G04 #@! TF.GenerationSoftware,KiCad,Pcbnew,(6.0.2)*
G04 #@! TF.CreationDate,2022-05-17T12:07:46-07:00*
G04 #@! TF.ProjectId,DaftPunkBackLayerBoard,44616674-5075-46e6-9b42-61636b4c6179,rev?*
G04 #@! TF.SameCoordinates,Original*
G04 #@! TF.FileFunction,Paste,Top*
G04 #@! TF.FilePolarity,Positive*
%FSLAX46Y46*%
G04 Gerber Fmt 4.6, Leading zero omitted, Abs format (unit mm)*
G04 Created by KiCad (PCBNEW (6.0.2)) date 2022-05-17 12:07:46*
%MOMM*%
%LPD*%
G01*
G04 APERTURE LIST*
%ADD10R,0.700000X0.700000*%
G04 APERTURE END LIST*
D10*
X75715000Y-262550000D03*
X75715000Y-261450000D03*
X73885000Y-261450000D03*
X73885000Y-262550000D03*
X277215000Y-308950000D03*
X277215000Y-307850000D03*
X275385000Y-307850000D03*
X275385000Y-308950000D03*
X234915000Y-79450000D03*
X234915000Y-78350000D03*
X233085000Y-78350000D03*
X233085000Y-79450000D03*
X124015000Y-283250000D03*
X124015000Y-282150000D03*
X122185000Y-282150000D03*
X122185000Y-283250000D03*
X234915000Y-160650000D03*
X234915000Y-159550000D03*
X233085000Y-159550000D03*
X233085000Y-160650000D03*
X172715000Y-237050000D03*
X172715000Y-235950000D03*
X170885000Y-235950000D03*
X170885000Y-237050000D03*
X89015000Y-220450000D03*
X89015000Y-219350000D03*
X87185000Y-219350000D03*
X87185000Y-220450000D03*
X220115000Y-233850000D03*
X220115000Y-232750000D03*
X218285000Y-232750000D03*
X218285000Y-233850000D03*
X85615000Y-219750000D03*
X85615000Y-218650000D03*
X83785000Y-218650000D03*
X83785000Y-219750000D03*
X291615000Y-158250000D03*
X291615000Y-157150000D03*
X289785000Y-157150000D03*
X289785000Y-158250000D03*
X291615000Y-195850000D03*
X291615000Y-194750000D03*
X289785000Y-194750000D03*
X289785000Y-195850000D03*
X291615000Y-222250000D03*
X291615000Y-221150000D03*
X289785000Y-221150000D03*
X289785000Y-222250000D03*
X152198522Y-219250000D03*
X152198522Y-218150000D03*
X150368522Y-218150000D03*
X150368522Y-219250000D03*
X263315000Y-125350000D03*
X263315000Y-124250000D03*
X261485000Y-124250000D03*
X261485000Y-125350000D03*
X291615000Y-235350000D03*
X291615000Y-234250000D03*
X289785000Y-234250000D03*
X289785000Y-235350000D03*
X220115000Y-305350000D03*
X220115000Y-304250000D03*
X218285000Y-304250000D03*
X218285000Y-305350000D03*
X277215000Y-122950000D03*
X277215000Y-121850000D03*
X275385000Y-121850000D03*
X275385000Y-122950000D03*
X277215000Y-243150000D03*
X277215000Y-242050000D03*
X275385000Y-242050000D03*
X275385000Y-243150000D03*
X99115000Y-207350000D03*
X99115000Y-206250000D03*
X97285000Y-206250000D03*
X97285000Y-207350000D03*
X146015000Y-244450000D03*
X146015000Y-243350000D03*
X144185000Y-243350000D03*
X144185000Y-244450000D03*
X92515000Y-221050000D03*
X92515000Y-219950000D03*
X90685000Y-219950000D03*
X90685000Y-221050000D03*
X304915000Y-118950000D03*
X304915000Y-117850000D03*
X303085000Y-117850000D03*
X303085000Y-118950000D03*
X206015000Y-53350000D03*
X206015000Y-52250000D03*
X204185000Y-52250000D03*
X204185000Y-53350000D03*
X263315000Y-223750000D03*
X263315000Y-222650000D03*
X261485000Y-222650000D03*
X261485000Y-223750000D03*
X220115000Y-56350000D03*
X220115000Y-55250000D03*
X218285000Y-55250000D03*
X218285000Y-56350000D03*
X96115000Y-221650000D03*
X96115000Y-220550000D03*
X94285000Y-220550000D03*
X94285000Y-221650000D03*
X133215000Y-210750000D03*
X133215000Y-209650000D03*
X131385000Y-209650000D03*
X131385000Y-210750000D03*
X75515000Y-224750000D03*
X75515000Y-223650000D03*
X73685000Y-223650000D03*
X73685000Y-224750000D03*
X234915000Y-210750000D03*
X234915000Y-209650000D03*
X233085000Y-209650000D03*
X233085000Y-210750000D03*
X291615000Y-142350000D03*
X291615000Y-141250000D03*
X289785000Y-141250000D03*
X289785000Y-142350000D03*
X234915000Y-105350000D03*
X234915000Y-104250000D03*
X233085000Y-104250000D03*
X233085000Y-105350000D03*
X76015000Y-231950000D03*
X76015000Y-230850000D03*
X74185000Y-230850000D03*
X74185000Y-231950000D03*
X145415000Y-218950000D03*
X145415000Y-217850000D03*
X143585000Y-217850000D03*
X143585000Y-218950000D03*
X193815000Y-228150000D03*
X193815000Y-227050000D03*
X191985000Y-227050000D03*
X191985000Y-228150000D03*
X206015000Y-266450000D03*
X206015000Y-265350000D03*
X204185000Y-265350000D03*
X204185000Y-266450000D03*
X234915000Y-61050000D03*
X234915000Y-59950000D03*
X233085000Y-59950000D03*
X233085000Y-61050000D03*
X263315000Y-188550000D03*
X263315000Y-187450000D03*
X261485000Y-187450000D03*
X261485000Y-188550000D03*
X234915000Y-217750000D03*
X234915000Y-216650000D03*
X233085000Y-216650000D03*
X233085000Y-217750000D03*
X310115000Y-197950000D03*
X310115000Y-196850000D03*
X308285000Y-196850000D03*
X308285000Y-197950000D03*
X277215000Y-111650000D03*
X277215000Y-110550000D03*
X275385000Y-110550000D03*
X275385000Y-111650000D03*
X291615000Y-147150000D03*
X291615000Y-146050000D03*
X289785000Y-146050000D03*
X289785000Y-147150000D03*
X179815000Y-253750000D03*
X179815000Y-252650000D03*
X177985000Y-252650000D03*
X177985000Y-253750000D03*
X220115000Y-168750000D03*
X220115000Y-167650000D03*
X218285000Y-167650000D03*
X218285000Y-168750000D03*
X234915000Y-255050000D03*
X234915000Y-253950000D03*
X233085000Y-253950000D03*
X233085000Y-255050000D03*
X248815000Y-162850000D03*
X248815000Y-161750000D03*
X246985000Y-161750000D03*
X246985000Y-162850000D03*
X291615000Y-152450000D03*
X291615000Y-151350000D03*
X289785000Y-151350000D03*
X289785000Y-152450000D03*
X123915000Y-276450000D03*
X123915000Y-275350000D03*
X122085000Y-275350000D03*
X122085000Y-276450000D03*
X114315000Y-281350000D03*
X114315000Y-280250000D03*
X112485000Y-280250000D03*
X112485000Y-281350000D03*
X89515000Y-228150000D03*
X89515000Y-227050000D03*
X87685000Y-227050000D03*
X87685000Y-228150000D03*
X73598522Y-243250000D03*
X73598522Y-242150000D03*
X71768522Y-242150000D03*
X71768522Y-243250000D03*
X186715000Y-237050000D03*
X186715000Y-235950000D03*
X184885000Y-235950000D03*
X184885000Y-237050000D03*
X248815000Y-291850000D03*
X248815000Y-290750000D03*
X246985000Y-290750000D03*
X246985000Y-291850000D03*
X291615000Y-129950000D03*
X291615000Y-128850000D03*
X289785000Y-128850000D03*
X289785000Y-129950000D03*
X98598522Y-262250000D03*
X98598522Y-261150000D03*
X96768522Y-261150000D03*
X96768522Y-262250000D03*
X172315000Y-219650000D03*
X172315000Y-218550000D03*
X170485000Y-218550000D03*
X170485000Y-219650000D03*
X113015000Y-216750000D03*
X113015000Y-215650000D03*
X111185000Y-215650000D03*
X111185000Y-216750000D03*
X79015000Y-225750000D03*
X79015000Y-224650000D03*
X77185000Y-224650000D03*
X77185000Y-225750000D03*
X118915000Y-275450000D03*
X118915000Y-274350000D03*
X117085000Y-274350000D03*
X117085000Y-275450000D03*
X113298522Y-232550000D03*
X113298522Y-231450000D03*
X111468522Y-231450000D03*
X111468522Y-232550000D03*
X83015000Y-234050000D03*
X83015000Y-232950000D03*
X81185000Y-232950000D03*
X81185000Y-234050000D03*
X263315000Y-210050000D03*
X263315000Y-208950000D03*
X261485000Y-208950000D03*
X261485000Y-210050000D03*
X109815000Y-265750000D03*
X109815000Y-264650000D03*
X107985000Y-264650000D03*
X107985000Y-265750000D03*
X220115000Y-218150000D03*
X220115000Y-217050000D03*
X218285000Y-217050000D03*
X218285000Y-218150000D03*
X193715000Y-253550000D03*
X193715000Y-252450000D03*
X191885000Y-252450000D03*
X191885000Y-253550000D03*
X206015000Y-298350000D03*
X206015000Y-297250000D03*
X204185000Y-297250000D03*
X204185000Y-298350000D03*
X199815000Y-236750000D03*
X199815000Y-235650000D03*
X197985000Y-235650000D03*
X197985000Y-236750000D03*
X220115000Y-210750000D03*
X220115000Y-209650000D03*
X218285000Y-209650000D03*
X218285000Y-210750000D03*
X146815000Y-279050000D03*
X146815000Y-277950000D03*
X144985000Y-277950000D03*
X144985000Y-279050000D03*
X263315000Y-251050000D03*
X263315000Y-249950000D03*
X261485000Y-249950000D03*
X261485000Y-251050000D03*
X234915000Y-66750000D03*
X234915000Y-65650000D03*
X233085000Y-65650000D03*
X233085000Y-66750000D03*
X277215000Y-285250000D03*
X277215000Y-284150000D03*
X275385000Y-284150000D03*
X275385000Y-285250000D03*
X220115000Y-186650000D03*
X220115000Y-185550000D03*
X218285000Y-185550000D03*
X218285000Y-186650000D03*
X234915000Y-131650000D03*
X234915000Y-130550000D03*
X233085000Y-130550000D03*
X233085000Y-131650000D03*
X291615000Y-164050000D03*
X291615000Y-162950000D03*
X289785000Y-162950000D03*
X289785000Y-164050000D03*
X77315000Y-246050000D03*
X77315000Y-244950000D03*
X75485000Y-244950000D03*
X75485000Y-246050000D03*
X187215000Y-287950000D03*
X187215000Y-286850000D03*
X185385000Y-286850000D03*
X185385000Y-287950000D03*
X248815000Y-111850000D03*
X248815000Y-110750000D03*
X246985000Y-110750000D03*
X246985000Y-111850000D03*
X206015000Y-156350000D03*
X206015000Y-155250000D03*
X204185000Y-155250000D03*
X204185000Y-156350000D03*
X172915000Y-245350000D03*
X172915000Y-244250000D03*
X171085000Y-244250000D03*
X171085000Y-245350000D03*
X291615000Y-228650000D03*
X291615000Y-227550000D03*
X289785000Y-227550000D03*
X289785000Y-228650000D03*
X291615000Y-267750000D03*
X291615000Y-266650000D03*
X289785000Y-266650000D03*
X289785000Y-267750000D03*
X263315000Y-73050000D03*
X263315000Y-71950000D03*
X261485000Y-71950000D03*
X261485000Y-73050000D03*
X220115000Y-51450000D03*
X220115000Y-50350000D03*
X218285000Y-50350000D03*
X218285000Y-51450000D03*
X206015000Y-76250000D03*
X206015000Y-75150000D03*
X204185000Y-75150000D03*
X204185000Y-76250000D03*
X98598522Y-254150000D03*
X98598522Y-253050000D03*
X96768522Y-253050000D03*
X96768522Y-254150000D03*
X206015000Y-125050000D03*
X206015000Y-123950000D03*
X204185000Y-123950000D03*
X204185000Y-125050000D03*
X108115000Y-216150000D03*
X108115000Y-215050000D03*
X106285000Y-215050000D03*
X106285000Y-216150000D03*
X112815000Y-209150000D03*
X112815000Y-208050000D03*
X110985000Y-208050000D03*
X110985000Y-209150000D03*
X291615000Y-260850000D03*
X291615000Y-259750000D03*
X289785000Y-259750000D03*
X289785000Y-260850000D03*
X186615000Y-228350000D03*
X186615000Y-227250000D03*
X184785000Y-227250000D03*
X184785000Y-228350000D03*
X291615000Y-189450000D03*
X291615000Y-188350000D03*
X289785000Y-188350000D03*
X289785000Y-189450000D03*
X277215000Y-139250000D03*
X277215000Y-138150000D03*
X275385000Y-138150000D03*
X275385000Y-139250000D03*
X263315000Y-140850000D03*
X263315000Y-139750000D03*
X261485000Y-139750000D03*
X261485000Y-140850000D03*
X234915000Y-179550000D03*
X234915000Y-178450000D03*
X233085000Y-178450000D03*
X233085000Y-179550000D03*
X140615000Y-270850000D03*
X140615000Y-269750000D03*
X138785000Y-269750000D03*
X138785000Y-270850000D03*
X234915000Y-112750000D03*
X234915000Y-111650000D03*
X233085000Y-111650000D03*
X233085000Y-112750000D03*
X206015000Y-258450000D03*
X206015000Y-257350000D03*
X204185000Y-257350000D03*
X204185000Y-258450000D03*
X123115000Y-233850000D03*
X123115000Y-232750000D03*
X121285000Y-232750000D03*
X121285000Y-233850000D03*
X220115000Y-249250000D03*
X220115000Y-248150000D03*
X218285000Y-248150000D03*
X218285000Y-249250000D03*
X206015000Y-82850000D03*
X206015000Y-81750000D03*
X204185000Y-81750000D03*
X204185000Y-82850000D03*
X102215000Y-255250000D03*
X102215000Y-254150000D03*
X100385000Y-254150000D03*
X100385000Y-255250000D03*
X82215000Y-268950000D03*
X82215000Y-267850000D03*
X80385000Y-267850000D03*
X80385000Y-268950000D03*
X159515000Y-245050000D03*
X159515000Y-243950000D03*
X157685000Y-243950000D03*
X157685000Y-245050000D03*
X220115000Y-108150000D03*
X220115000Y-107050000D03*
X218285000Y-107050000D03*
X218285000Y-108150000D03*
X133815000Y-243550000D03*
X133815000Y-242450000D03*
X131985000Y-242450000D03*
X131985000Y-243550000D03*
X277215000Y-209850000D03*
X277215000Y-208750000D03*
X275385000Y-208750000D03*
X275385000Y-209850000D03*
X206015000Y-185950000D03*
X206015000Y-184850000D03*
X204185000Y-184850000D03*
X204185000Y-185950000D03*
X139415000Y-218650000D03*
X139415000Y-217550000D03*
X137585000Y-217550000D03*
X137585000Y-218650000D03*
X84315000Y-249050000D03*
X84315000Y-247950000D03*
X82485000Y-247950000D03*
X82485000Y-249050000D03*
X220115000Y-61850000D03*
X220115000Y-60750000D03*
X218285000Y-60750000D03*
X218285000Y-61850000D03*
X234915000Y-121450000D03*
X234915000Y-120350000D03*
X233085000Y-120350000D03*
X233085000Y-121450000D03*
X92515000Y-267050000D03*
X92515000Y-265950000D03*
X90685000Y-265950000D03*
X90685000Y-267050000D03*
X186915000Y-253650000D03*
X186915000Y-252550000D03*
X185085000Y-252550000D03*
X185085000Y-253650000D03*
X166915000Y-271650000D03*
X166915000Y-270550000D03*
X165085000Y-270550000D03*
X165085000Y-271650000D03*
X105015000Y-247550000D03*
X105015000Y-246450000D03*
X103185000Y-246450000D03*
X103185000Y-247550000D03*
X129115000Y-277250000D03*
X129115000Y-276150000D03*
X127285000Y-276150000D03*
X127285000Y-277250000D03*
X220115000Y-80850000D03*
X220115000Y-79750000D03*
X218285000Y-79750000D03*
X218285000Y-80850000D03*
X110515000Y-280550000D03*
X110515000Y-279450000D03*
X108685000Y-279450000D03*
X108685000Y-280550000D03*
X80998522Y-255050000D03*
X80998522Y-253950000D03*
X79168522Y-253950000D03*
X79168522Y-255050000D03*
X113115000Y-224150000D03*
X113115000Y-223050000D03*
X111285000Y-223050000D03*
X111285000Y-224150000D03*
X133415000Y-218250000D03*
X133415000Y-217150000D03*
X131585000Y-217150000D03*
X131585000Y-218250000D03*
X234915000Y-247950000D03*
X234915000Y-246850000D03*
X233085000Y-246850000D03*
X233085000Y-247950000D03*
X220115000Y-264450000D03*
X220115000Y-263350000D03*
X218285000Y-263350000D03*
X218285000Y-264450000D03*
X108298522Y-223450000D03*
X108298522Y-222350000D03*
X106468522Y-222350000D03*
X106468522Y-223450000D03*
X86915000Y-242650000D03*
X86915000Y-241550000D03*
X85085000Y-241550000D03*
X85085000Y-242650000D03*
X128098522Y-234350000D03*
X128098522Y-233250000D03*
X126268522Y-233250000D03*
X126268522Y-234350000D03*
X291615000Y-241550000D03*
X291615000Y-240450000D03*
X289785000Y-240450000D03*
X289785000Y-241550000D03*
X291615000Y-247350000D03*
X291615000Y-246250000D03*
X289785000Y-246250000D03*
X289785000Y-247350000D03*
X220115000Y-93350000D03*
X220115000Y-92250000D03*
X218285000Y-92250000D03*
X218285000Y-93350000D03*
X140515000Y-261450000D03*
X140515000Y-260350000D03*
X138685000Y-260350000D03*
X138685000Y-261450000D03*
X117915000Y-217150000D03*
X117915000Y-216050000D03*
X116085000Y-216050000D03*
X116085000Y-217150000D03*
X263315000Y-78550000D03*
X263315000Y-77450000D03*
X261485000Y-77450000D03*
X261485000Y-78550000D03*
X173715000Y-271650000D03*
X173715000Y-270550000D03*
X171885000Y-270550000D03*
X171885000Y-271650000D03*
X152615000Y-236350000D03*
X152615000Y-235250000D03*
X150785000Y-235250000D03*
X150785000Y-236350000D03*
X234915000Y-329350000D03*
X234915000Y-328250000D03*
X233085000Y-328250000D03*
X233085000Y-329350000D03*
X248815000Y-283950000D03*
X248815000Y-282850000D03*
X246985000Y-282850000D03*
X246985000Y-283950000D03*
X199715000Y-278750000D03*
X199715000Y-277650000D03*
X197885000Y-277650000D03*
X197885000Y-278750000D03*
X160015000Y-262350000D03*
X160015000Y-261250000D03*
X158185000Y-261250000D03*
X158185000Y-262350000D03*
X277215000Y-249150000D03*
X277215000Y-248050000D03*
X275385000Y-248050000D03*
X275385000Y-249150000D03*
X145815000Y-235950000D03*
X145815000Y-234850000D03*
X143985000Y-234850000D03*
X143985000Y-235950000D03*
X134615000Y-284850000D03*
X134615000Y-283750000D03*
X132785000Y-283750000D03*
X132785000Y-284850000D03*
X291615000Y-202550000D03*
X291615000Y-201450000D03*
X289785000Y-201450000D03*
X289785000Y-202550000D03*
X220115000Y-256650000D03*
X220115000Y-255550000D03*
X218285000Y-255550000D03*
X218285000Y-256650000D03*
X78515000Y-218350000D03*
X78515000Y-217250000D03*
X76685000Y-217250000D03*
X76685000Y-218350000D03*
X173415000Y-262550000D03*
X173415000Y-261450000D03*
X171585000Y-261450000D03*
X171585000Y-262550000D03*
X152015000Y-211350000D03*
X152015000Y-210250000D03*
X150185000Y-210250000D03*
X150185000Y-211350000D03*
X304715000Y-195350000D03*
X304715000Y-194250000D03*
X302885000Y-194250000D03*
X302885000Y-195350000D03*
X248815000Y-86650000D03*
X248815000Y-85550000D03*
X246985000Y-85550000D03*
X246985000Y-86650000D03*
X199815000Y-218750000D03*
X199815000Y-217650000D03*
X197985000Y-217650000D03*
X197985000Y-218750000D03*
X291615000Y-177050000D03*
X291615000Y-175950000D03*
X289785000Y-175950000D03*
X289785000Y-177050000D03*
X87915000Y-205650000D03*
X87915000Y-204550000D03*
X86085000Y-204550000D03*
X86085000Y-205650000D03*
X86015000Y-227350000D03*
X86015000Y-226250000D03*
X84185000Y-226250000D03*
X84185000Y-227350000D03*
X97115000Y-237550000D03*
X97115000Y-236450000D03*
X95285000Y-236450000D03*
X95285000Y-237550000D03*
X234915000Y-303650000D03*
X234915000Y-302550000D03*
X233085000Y-302550000D03*
X233085000Y-303650000D03*
X291615000Y-294450000D03*
X291615000Y-293350000D03*
X289785000Y-293350000D03*
X289785000Y-294450000D03*
X108698522Y-239950000D03*
X108698522Y-238850000D03*
X106868522Y-238850000D03*
X106868522Y-239950000D03*
X234915000Y-312150000D03*
X234915000Y-311050000D03*
X233085000Y-311050000D03*
X233085000Y-312150000D03*
X134015000Y-252150000D03*
X134015000Y-251050000D03*
X132185000Y-251050000D03*
X132185000Y-252150000D03*
X248815000Y-318450000D03*
X248815000Y-317350000D03*
X246985000Y-317350000D03*
X246985000Y-318450000D03*
X248815000Y-216950000D03*
X248815000Y-215850000D03*
X246985000Y-215850000D03*
X246985000Y-216950000D03*
X263315000Y-195750000D03*
X263315000Y-194650000D03*
X261485000Y-194650000D03*
X261485000Y-195750000D03*
X106615000Y-272450000D03*
X106615000Y-271350000D03*
X104785000Y-271350000D03*
X104785000Y-272450000D03*
X118615000Y-258950000D03*
X118615000Y-257850000D03*
X116785000Y-257850000D03*
X116785000Y-258950000D03*
X263315000Y-216250000D03*
X263315000Y-215150000D03*
X261485000Y-215150000D03*
X261485000Y-216250000D03*
X248815000Y-309350000D03*
X248815000Y-308250000D03*
X246985000Y-308250000D03*
X246985000Y-309350000D03*
X277215000Y-167850000D03*
X277215000Y-166750000D03*
X275385000Y-166750000D03*
X275385000Y-167850000D03*
X248815000Y-126650000D03*
X248815000Y-125550000D03*
X246985000Y-125550000D03*
X246985000Y-126650000D03*
X248815000Y-195650000D03*
X248815000Y-194550000D03*
X246985000Y-194550000D03*
X246985000Y-195650000D03*
X314515000Y-175150000D03*
X314515000Y-174050000D03*
X312685000Y-174050000D03*
X312685000Y-175150000D03*
X152598522Y-244750000D03*
X152598522Y-243650000D03*
X150768522Y-243650000D03*
X150768522Y-244750000D03*
X306815000Y-286350000D03*
X306815000Y-285250000D03*
X304985000Y-285250000D03*
X304985000Y-286350000D03*
X70315000Y-241750000D03*
X70315000Y-240650000D03*
X68485000Y-240650000D03*
X68485000Y-241750000D03*
X206015000Y-242650000D03*
X206015000Y-241550000D03*
X204185000Y-241550000D03*
X204185000Y-242650000D03*
X206015000Y-63850000D03*
X206015000Y-62750000D03*
X204185000Y-62750000D03*
X204185000Y-63850000D03*
X83315000Y-241550000D03*
X83315000Y-240450000D03*
X81485000Y-240450000D03*
X81485000Y-241550000D03*
X103515000Y-278550000D03*
X103515000Y-277450000D03*
X101685000Y-277450000D03*
X101685000Y-278550000D03*
X313415000Y-149150000D03*
X313415000Y-148050000D03*
X311585000Y-148050000D03*
X311585000Y-149150000D03*
X234915000Y-233050000D03*
X234915000Y-231950000D03*
X233085000Y-231950000D03*
X233085000Y-233050000D03*
X291615000Y-170550000D03*
X291615000Y-169450000D03*
X289785000Y-169450000D03*
X289785000Y-170550000D03*
X206015000Y-195450000D03*
X206015000Y-194350000D03*
X204185000Y-194350000D03*
X204185000Y-195450000D03*
X145198522Y-211250000D03*
X145198522Y-210150000D03*
X143368522Y-210150000D03*
X143368522Y-211250000D03*
X118315000Y-241550000D03*
X118315000Y-240450000D03*
X116485000Y-240450000D03*
X116485000Y-241550000D03*
X220115000Y-128050000D03*
X220115000Y-126950000D03*
X218285000Y-126950000D03*
X218285000Y-128050000D03*
X199715000Y-253350000D03*
X199715000Y-252250000D03*
X197885000Y-252250000D03*
X197885000Y-253350000D03*
X263315000Y-113550000D03*
X263315000Y-112450000D03*
X261485000Y-112450000D03*
X261485000Y-113550000D03*
X193615000Y-287850000D03*
X193615000Y-286750000D03*
X191785000Y-286750000D03*
X191785000Y-287850000D03*
X104315000Y-231050000D03*
X104315000Y-229950000D03*
X102485000Y-229950000D03*
X102485000Y-231050000D03*
X79815000Y-240250000D03*
X79815000Y-239150000D03*
X77985000Y-239150000D03*
X77985000Y-240250000D03*
X234915000Y-286650000D03*
X234915000Y-285550000D03*
X233085000Y-285550000D03*
X233085000Y-286650000D03*
X66498522Y-204550000D03*
X66498522Y-203450000D03*
X64668522Y-203450000D03*
X64668522Y-204550000D03*
X89015000Y-265350000D03*
X89015000Y-264250000D03*
X87185000Y-264250000D03*
X87185000Y-265350000D03*
X248815000Y-92850000D03*
X248815000Y-91750000D03*
X246985000Y-91750000D03*
X246985000Y-92850000D03*
X291615000Y-110750000D03*
X291615000Y-109650000D03*
X289785000Y-109650000D03*
X289785000Y-110750000D03*
X248815000Y-80650000D03*
X248815000Y-79550000D03*
X246985000Y-79550000D03*
X246985000Y-80650000D03*
X123215000Y-242250000D03*
X123215000Y-241150000D03*
X121385000Y-241150000D03*
X121385000Y-242250000D03*
X100215000Y-230350000D03*
X100215000Y-229250000D03*
X98385000Y-229250000D03*
X98385000Y-230350000D03*
X220115000Y-330250000D03*
X220115000Y-329150000D03*
X218285000Y-329150000D03*
X218285000Y-330250000D03*
X263315000Y-323350000D03*
X263315000Y-322250000D03*
X261485000Y-322250000D03*
X261485000Y-323350000D03*
X220115000Y-67850000D03*
X220115000Y-66750000D03*
X218285000Y-66750000D03*
X218285000Y-67850000D03*
X93015000Y-228850000D03*
X93015000Y-227750000D03*
X91185000Y-227750000D03*
X91185000Y-228850000D03*
X118115000Y-233350000D03*
X118115000Y-232250000D03*
X116285000Y-232250000D03*
X116285000Y-233350000D03*
X277215000Y-84950000D03*
X277215000Y-83850000D03*
X275385000Y-83850000D03*
X275385000Y-84950000D03*
X103015000Y-271150000D03*
X103015000Y-270050000D03*
X101185000Y-270050000D03*
X101185000Y-271150000D03*
X248815000Y-68750000D03*
X248815000Y-67650000D03*
X246985000Y-67650000D03*
X246985000Y-68750000D03*
X158615000Y-211450000D03*
X158615000Y-210350000D03*
X156785000Y-210350000D03*
X156785000Y-211450000D03*
X99415000Y-214950000D03*
X99415000Y-213850000D03*
X97585000Y-213850000D03*
X97585000Y-214950000D03*
X248815000Y-99750000D03*
X248815000Y-98650000D03*
X246985000Y-98650000D03*
X246985000Y-99750000D03*
X80615000Y-204350000D03*
X80615000Y-203250000D03*
X78785000Y-203250000D03*
X78785000Y-204350000D03*
X311715000Y-254550000D03*
X311715000Y-253450000D03*
X309885000Y-253450000D03*
X309885000Y-254550000D03*
X96415000Y-276150000D03*
X96415000Y-275050000D03*
X94585000Y-275050000D03*
X94585000Y-276150000D03*
X193815000Y-237050000D03*
X193815000Y-235950000D03*
X191985000Y-235950000D03*
X191985000Y-237050000D03*
X105715000Y-256250000D03*
X105715000Y-255150000D03*
X103885000Y-255150000D03*
X103885000Y-256250000D03*
X277215000Y-256550000D03*
X277215000Y-255450000D03*
X275385000Y-255450000D03*
X275385000Y-256550000D03*
X103315000Y-208050000D03*
X103315000Y-206950000D03*
X101485000Y-206950000D03*
X101485000Y-208050000D03*
X291615000Y-125050000D03*
X291615000Y-123950000D03*
X289785000Y-123950000D03*
X289785000Y-125050000D03*
X263315000Y-101150000D03*
X263315000Y-100050000D03*
X261485000Y-100050000D03*
X261485000Y-101150000D03*
X114315000Y-274450000D03*
X114315000Y-273350000D03*
X112485000Y-273350000D03*
X112485000Y-274450000D03*
X206015000Y-89150000D03*
X206015000Y-88050000D03*
X204185000Y-88050000D03*
X204185000Y-89150000D03*
X99515000Y-269850000D03*
X99515000Y-268750000D03*
X97685000Y-268750000D03*
X97685000Y-269850000D03*
X89215000Y-272850000D03*
X89215000Y-271750000D03*
X87385000Y-271750000D03*
X87385000Y-272850000D03*
X310215000Y-226550000D03*
X310215000Y-225450000D03*
X308385000Y-225450000D03*
X308385000Y-226550000D03*
X153315000Y-262050000D03*
X153315000Y-260950000D03*
X151485000Y-260950000D03*
X151485000Y-262050000D03*
X206015000Y-226850000D03*
X206015000Y-225750000D03*
X204185000Y-225750000D03*
X204185000Y-226850000D03*
X113515000Y-240750000D03*
X113515000Y-239650000D03*
X111685000Y-239650000D03*
X111685000Y-240750000D03*
X220115000Y-148850000D03*
X220115000Y-147750000D03*
X218285000Y-147750000D03*
X218285000Y-148850000D03*
X220115000Y-195550000D03*
X220115000Y-194450000D03*
X218285000Y-194450000D03*
X218285000Y-195550000D03*
X277215000Y-106250000D03*
X277215000Y-105150000D03*
X275385000Y-105150000D03*
X275385000Y-106250000D03*
X84315000Y-204950000D03*
X84315000Y-203850000D03*
X82485000Y-203850000D03*
X82485000Y-204950000D03*
X291615000Y-301750000D03*
X291615000Y-300650000D03*
X289785000Y-300650000D03*
X289785000Y-301750000D03*
X172515000Y-228350000D03*
X172515000Y-227250000D03*
X170685000Y-227250000D03*
X170685000Y-228350000D03*
X277215000Y-188950000D03*
X277215000Y-187850000D03*
X275385000Y-187850000D03*
X275385000Y-188950000D03*
X234915000Y-98650000D03*
X234915000Y-97550000D03*
X233085000Y-97550000D03*
X233085000Y-98650000D03*
X69982044Y-205250000D03*
X69982044Y-204150000D03*
X68152044Y-204150000D03*
X68152044Y-205250000D03*
X82015000Y-219050000D03*
X82015000Y-217950000D03*
X80185000Y-217950000D03*
X80185000Y-219050000D03*
X311198522Y-285750000D03*
X311198522Y-284650000D03*
X309368522Y-284650000D03*
X309368522Y-285750000D03*
X263315000Y-258450000D03*
X263315000Y-257350000D03*
X261485000Y-257350000D03*
X261485000Y-258450000D03*
X133715000Y-234950000D03*
X133715000Y-233850000D03*
X131885000Y-233850000D03*
X131885000Y-234950000D03*
X291615000Y-209650000D03*
X291615000Y-208550000D03*
X289785000Y-208550000D03*
X289785000Y-209650000D03*
X186998522Y-271450000D03*
X186998522Y-270350000D03*
X185168522Y-270350000D03*
X185168522Y-271450000D03*
X248815000Y-105450000D03*
X248815000Y-104350000D03*
X246985000Y-104350000D03*
X246985000Y-105450000D03*
X139315000Y-211050000D03*
X139315000Y-209950000D03*
X137485000Y-209950000D03*
X137485000Y-211050000D03*
X291615000Y-306950000D03*
X291615000Y-305850000D03*
X289785000Y-305850000D03*
X289785000Y-306950000D03*
X104615000Y-239150000D03*
X104615000Y-238050000D03*
X102785000Y-238050000D03*
X102785000Y-239150000D03*
X206015000Y-167350000D03*
X206015000Y-166250000D03*
X204185000Y-166250000D03*
X204185000Y-167350000D03*
X167115000Y-279450000D03*
X167115000Y-278350000D03*
X165285000Y-278350000D03*
X165285000Y-279450000D03*
X248815000Y-135950000D03*
X248815000Y-134850000D03*
X246985000Y-134850000D03*
X246985000Y-135950000D03*
X206015000Y-48250000D03*
X206015000Y-47150000D03*
X204185000Y-47150000D03*
X204185000Y-48250000D03*
X146615000Y-271150000D03*
X146615000Y-270050000D03*
X144785000Y-270050000D03*
X144785000Y-271150000D03*
X139815000Y-235550000D03*
X139815000Y-234450000D03*
X137985000Y-234450000D03*
X137985000Y-235550000D03*
X263315000Y-297450000D03*
X263315000Y-296350000D03*
X261485000Y-296350000D03*
X261485000Y-297450000D03*
X206015000Y-234850000D03*
X206015000Y-233750000D03*
X204185000Y-233750000D03*
X204185000Y-234850000D03*
X291615000Y-120550000D03*
X291615000Y-119450000D03*
X289785000Y-119450000D03*
X289785000Y-120550000D03*
X291615000Y-101050000D03*
X291615000Y-99950000D03*
X289785000Y-99950000D03*
X289785000Y-101050000D03*
X220115000Y-272550000D03*
X220115000Y-271450000D03*
X218285000Y-271450000D03*
X218285000Y-272550000D03*
X105715000Y-264550000D03*
X105715000Y-263450000D03*
X103885000Y-263450000D03*
X103885000Y-264550000D03*
X301715000Y-114050000D03*
X301715000Y-112950000D03*
X299885000Y-112950000D03*
X299885000Y-114050000D03*
X234915000Y-225450000D03*
X234915000Y-224350000D03*
X233085000Y-224350000D03*
X233085000Y-225450000D03*
X310098522Y-171650000D03*
X310098522Y-170550000D03*
X308268522Y-170550000D03*
X308268522Y-171650000D03*
X179515000Y-237050000D03*
X179515000Y-235950000D03*
X177685000Y-235950000D03*
X177685000Y-237050000D03*
X193715000Y-245150000D03*
X193715000Y-244050000D03*
X191885000Y-244050000D03*
X191885000Y-245150000D03*
X159315000Y-236650000D03*
X159315000Y-235550000D03*
X157485000Y-235550000D03*
X157485000Y-236650000D03*
X248815000Y-202850000D03*
X248815000Y-201750000D03*
X246985000Y-201750000D03*
X246985000Y-202850000D03*
X220115000Y-158450000D03*
X220115000Y-157350000D03*
X218285000Y-157350000D03*
X218285000Y-158450000D03*
X277215000Y-236550000D03*
X277215000Y-235450000D03*
X275385000Y-235450000D03*
X275385000Y-236550000D03*
X234915000Y-92550000D03*
X234915000Y-91450000D03*
X233085000Y-91450000D03*
X233085000Y-92550000D03*
X146398522Y-261750000D03*
X146398522Y-260650000D03*
X144568522Y-260650000D03*
X144568522Y-261750000D03*
X76315000Y-239050000D03*
X76315000Y-237950000D03*
X74485000Y-237950000D03*
X74485000Y-239050000D03*
X277215000Y-101350000D03*
X277215000Y-100250000D03*
X275385000Y-100250000D03*
X275385000Y-101350000D03*
X248815000Y-63750000D03*
X248815000Y-62650000D03*
X246985000Y-62650000D03*
X246985000Y-63750000D03*
X220115000Y-100350000D03*
X220115000Y-99250000D03*
X218285000Y-99250000D03*
X218285000Y-100350000D03*
X128515000Y-251550000D03*
X128515000Y-250450000D03*
X126685000Y-250450000D03*
X126685000Y-251550000D03*
X234915000Y-294750000D03*
X234915000Y-293650000D03*
X233085000Y-293650000D03*
X233085000Y-294750000D03*
X166315000Y-253550000D03*
X166315000Y-252450000D03*
X164485000Y-252450000D03*
X164485000Y-253550000D03*
X74215000Y-210050000D03*
X74215000Y-208950000D03*
X72385000Y-208950000D03*
X72385000Y-210050000D03*
X91415000Y-206350000D03*
X91415000Y-205250000D03*
X89585000Y-205250000D03*
X89585000Y-206350000D03*
X167415000Y-287650000D03*
X167415000Y-286550000D03*
X165585000Y-286550000D03*
X165585000Y-287650000D03*
X87915000Y-250550000D03*
X87915000Y-249450000D03*
X86085000Y-249450000D03*
X86085000Y-250550000D03*
X263315000Y-305650000D03*
X263315000Y-304550000D03*
X261485000Y-304550000D03*
X261485000Y-305650000D03*
X90415000Y-243750000D03*
X90415000Y-242650000D03*
X88585000Y-242650000D03*
X88585000Y-243750000D03*
X96615000Y-229650000D03*
X96615000Y-228550000D03*
X94785000Y-228550000D03*
X94785000Y-229650000D03*
X234915000Y-321250000D03*
X234915000Y-320150000D03*
X233085000Y-320150000D03*
X233085000Y-321250000D03*
X117698522Y-209650000D03*
X117698522Y-208550000D03*
X115868522Y-208550000D03*
X115868522Y-209650000D03*
X234915000Y-86050000D03*
X234915000Y-84950000D03*
X233085000Y-84950000D03*
X233085000Y-86050000D03*
X291615000Y-138450000D03*
X291615000Y-137350000D03*
X289785000Y-137350000D03*
X289785000Y-138450000D03*
X234915000Y-270650000D03*
X234915000Y-269550000D03*
X233085000Y-269550000D03*
X233085000Y-270650000D03*
X206015000Y-70350000D03*
X206015000Y-69250000D03*
X204185000Y-69250000D03*
X204185000Y-70350000D03*
X291615000Y-287750000D03*
X291615000Y-286650000D03*
X289785000Y-286650000D03*
X289785000Y-287750000D03*
X263315000Y-95350000D03*
X263315000Y-94250000D03*
X261485000Y-94250000D03*
X261485000Y-95350000D03*
X263315000Y-132450000D03*
X263315000Y-131350000D03*
X261485000Y-131350000D03*
X261485000Y-132450000D03*
X234915000Y-170350000D03*
X234915000Y-169250000D03*
X233085000Y-169250000D03*
X233085000Y-170350000D03*
X199515000Y-287650000D03*
X199515000Y-286550000D03*
X197685000Y-286550000D03*
X197685000Y-287650000D03*
X277215000Y-317150000D03*
X277215000Y-316050000D03*
X275385000Y-316050000D03*
X275385000Y-317150000D03*
X153515000Y-271350000D03*
X153515000Y-270250000D03*
X151685000Y-270250000D03*
X151685000Y-271350000D03*
X186598522Y-245350000D03*
X186598522Y-244250000D03*
X184768522Y-244250000D03*
X184768522Y-245350000D03*
X206015000Y-330350000D03*
X206015000Y-329250000D03*
X204185000Y-329250000D03*
X204185000Y-330350000D03*
X248815000Y-260450000D03*
X248815000Y-259350000D03*
X246985000Y-259350000D03*
X246985000Y-260450000D03*
X248815000Y-252950000D03*
X248815000Y-251850000D03*
X246985000Y-251850000D03*
X246985000Y-252950000D03*
X165515000Y-228250000D03*
X165515000Y-227150000D03*
X163685000Y-227150000D03*
X163685000Y-228250000D03*
X90115000Y-235950000D03*
X90115000Y-234850000D03*
X88285000Y-234850000D03*
X88285000Y-235950000D03*
X302215000Y-286850000D03*
X302215000Y-285750000D03*
X300385000Y-285750000D03*
X300385000Y-286850000D03*
X166015000Y-245250000D03*
X166015000Y-244150000D03*
X164185000Y-244150000D03*
X164185000Y-245250000D03*
X193915000Y-219050000D03*
X193915000Y-217950000D03*
X192085000Y-217950000D03*
X192085000Y-219050000D03*
X234915000Y-195750000D03*
X234915000Y-194650000D03*
X233085000Y-194650000D03*
X233085000Y-195750000D03*
X123415000Y-250850000D03*
X123415000Y-249750000D03*
X121585000Y-249750000D03*
X121585000Y-250850000D03*
X179315000Y-228350000D03*
X179315000Y-227250000D03*
X177485000Y-227250000D03*
X177485000Y-228350000D03*
X277215000Y-90750000D03*
X277215000Y-89650000D03*
X275385000Y-89650000D03*
X275385000Y-90750000D03*
X206015000Y-282450000D03*
X206015000Y-281350000D03*
X204185000Y-281350000D03*
X204185000Y-282450000D03*
X114215000Y-266950000D03*
X114215000Y-265850000D03*
X112385000Y-265850000D03*
X112385000Y-266950000D03*
X85015000Y-212450000D03*
X85015000Y-211350000D03*
X83185000Y-211350000D03*
X83185000Y-212450000D03*
X291615000Y-115850000D03*
X291615000Y-114750000D03*
X289785000Y-114750000D03*
X289785000Y-115850000D03*
X305515000Y-224650000D03*
X305515000Y-223550000D03*
X303685000Y-223550000D03*
X303685000Y-224650000D03*
X92815000Y-274550000D03*
X92815000Y-273450000D03*
X90985000Y-273450000D03*
X90985000Y-274550000D03*
X129315000Y-284050000D03*
X129315000Y-282950000D03*
X127485000Y-282950000D03*
X127485000Y-284050000D03*
X277215000Y-146250000D03*
X277215000Y-145150000D03*
X275385000Y-145150000D03*
X275385000Y-146250000D03*
X193615000Y-270950000D03*
X193615000Y-269850000D03*
X191785000Y-269850000D03*
X191785000Y-270950000D03*
X220115000Y-322250000D03*
X220115000Y-321150000D03*
X218285000Y-321150000D03*
X218285000Y-322250000D03*
X277215000Y-133150000D03*
X277215000Y-132050000D03*
X275385000Y-132050000D03*
X275385000Y-133150000D03*
X172015000Y-211250000D03*
X172015000Y-210150000D03*
X170185000Y-210150000D03*
X170185000Y-211250000D03*
X165815000Y-236850000D03*
X165815000Y-235750000D03*
X163985000Y-235750000D03*
X163985000Y-236850000D03*
X81315000Y-211550000D03*
X81315000Y-210450000D03*
X79485000Y-210450000D03*
X79485000Y-211550000D03*
X100715000Y-238350000D03*
X100715000Y-237250000D03*
X98885000Y-237250000D03*
X98885000Y-238350000D03*
X306515000Y-253550000D03*
X306515000Y-252450000D03*
X304685000Y-252450000D03*
X304685000Y-253550000D03*
X263315000Y-119450000D03*
X263315000Y-118350000D03*
X261485000Y-118350000D03*
X261485000Y-119450000D03*
X122798522Y-217650000D03*
X122798522Y-216550000D03*
X120968522Y-216550000D03*
X120968522Y-217650000D03*
X314715000Y-228550000D03*
X314715000Y-227450000D03*
X312885000Y-227450000D03*
X312885000Y-228550000D03*
X110398522Y-273450000D03*
X110398522Y-272350000D03*
X108568522Y-272350000D03*
X108568522Y-273450000D03*
X248815000Y-171650000D03*
X248815000Y-170550000D03*
X246985000Y-170550000D03*
X246985000Y-171650000D03*
X220115000Y-87150000D03*
X220115000Y-86050000D03*
X218285000Y-86050000D03*
X218285000Y-87150000D03*
X315415000Y-200750000D03*
X315415000Y-199650000D03*
X313585000Y-199650000D03*
X313585000Y-200750000D03*
X91515000Y-251950000D03*
X91515000Y-250850000D03*
X89685000Y-250850000D03*
X89685000Y-251950000D03*
X153115000Y-253350000D03*
X153115000Y-252250000D03*
X151285000Y-252250000D03*
X151285000Y-253350000D03*
X299515000Y-192650000D03*
X299515000Y-191550000D03*
X297685000Y-191550000D03*
X297685000Y-192650000D03*
X263315000Y-202750000D03*
X263315000Y-201650000D03*
X261485000Y-201650000D03*
X261485000Y-202750000D03*
X128915000Y-269550000D03*
X128915000Y-268450000D03*
X127085000Y-268450000D03*
X127085000Y-269550000D03*
X206015000Y-135250000D03*
X206015000Y-134150000D03*
X204185000Y-134150000D03*
X204185000Y-135250000D03*
X220115000Y-280550000D03*
X220115000Y-279450000D03*
X218285000Y-279450000D03*
X218285000Y-280550000D03*
X193915000Y-210650000D03*
X193915000Y-209550000D03*
X192085000Y-209550000D03*
X192085000Y-210650000D03*
X193615000Y-279050000D03*
X193615000Y-277950000D03*
X191785000Y-277950000D03*
X191785000Y-279050000D03*
X291615000Y-273850000D03*
X291615000Y-272750000D03*
X289785000Y-272750000D03*
X289785000Y-273850000D03*
X277215000Y-277550000D03*
X277215000Y-276450000D03*
X275385000Y-276450000D03*
X275385000Y-277550000D03*
X193615000Y-262150000D03*
X193615000Y-261050000D03*
X191785000Y-261050000D03*
X191785000Y-262150000D03*
X186998522Y-262350000D03*
X186998522Y-261250000D03*
X185168522Y-261250000D03*
X185168522Y-262350000D03*
X308915000Y-144850000D03*
X308915000Y-143750000D03*
X307085000Y-143750000D03*
X307085000Y-144850000D03*
X140215000Y-252750000D03*
X140215000Y-251650000D03*
X138385000Y-251650000D03*
X138385000Y-252750000D03*
X118515000Y-250150000D03*
X118515000Y-249050000D03*
X116685000Y-249050000D03*
X116685000Y-250150000D03*
X248815000Y-180350000D03*
X248815000Y-179250000D03*
X246985000Y-179250000D03*
X246985000Y-180350000D03*
X81898522Y-261850000D03*
X81898522Y-260750000D03*
X80068522Y-260750000D03*
X80068522Y-261850000D03*
X291615000Y-183750000D03*
X291615000Y-182650000D03*
X289785000Y-182650000D03*
X289785000Y-183750000D03*
X152315000Y-227750000D03*
X152315000Y-226650000D03*
X150485000Y-226650000D03*
X150485000Y-227750000D03*
X140015000Y-243950000D03*
X140015000Y-242850000D03*
X138185000Y-242850000D03*
X138185000Y-243950000D03*
X206015000Y-290550000D03*
X206015000Y-289450000D03*
X204185000Y-289450000D03*
X204185000Y-290550000D03*
X85415000Y-263650000D03*
X85415000Y-262550000D03*
X83585000Y-262550000D03*
X83585000Y-263650000D03*
X93915000Y-244750000D03*
X93915000Y-243650000D03*
X92085000Y-243650000D03*
X92085000Y-244750000D03*
X206015000Y-104250000D03*
X206015000Y-103150000D03*
X204185000Y-103150000D03*
X204185000Y-104250000D03*
X134415000Y-270350000D03*
X134415000Y-269250000D03*
X132585000Y-269250000D03*
X132585000Y-270350000D03*
X248815000Y-268350000D03*
X248815000Y-267250000D03*
X246985000Y-267250000D03*
X246985000Y-268350000D03*
X85715000Y-271050000D03*
X85715000Y-269950000D03*
X83885000Y-269950000D03*
X83885000Y-271050000D03*
X263315000Y-148650000D03*
X263315000Y-147550000D03*
X261485000Y-147550000D03*
X261485000Y-148650000D03*
X199715000Y-244950000D03*
X199715000Y-243850000D03*
X197885000Y-243850000D03*
X197885000Y-244950000D03*
X93615000Y-236750000D03*
X93615000Y-235650000D03*
X91785000Y-235650000D03*
X91785000Y-236750000D03*
X301115000Y-252750000D03*
X301115000Y-251650000D03*
X299285000Y-251650000D03*
X299285000Y-252750000D03*
X308815000Y-124950000D03*
X308815000Y-123850000D03*
X306985000Y-123850000D03*
X306985000Y-124950000D03*
X147015000Y-286250000D03*
X147015000Y-285150000D03*
X145185000Y-285150000D03*
X145185000Y-286250000D03*
X118898522Y-282250000D03*
X118898522Y-281150000D03*
X117068522Y-281150000D03*
X117068522Y-282250000D03*
X74915000Y-217650000D03*
X74915000Y-216550000D03*
X73085000Y-216550000D03*
X73085000Y-217650000D03*
X102098522Y-263350000D03*
X102098522Y-262250000D03*
X100268522Y-262250000D03*
X100268522Y-263350000D03*
X86615000Y-235050000D03*
X86615000Y-233950000D03*
X84785000Y-233950000D03*
X84785000Y-235050000D03*
X234915000Y-151650000D03*
X234915000Y-150550000D03*
X233085000Y-150550000D03*
X233085000Y-151650000D03*
X248815000Y-246150000D03*
X248815000Y-245050000D03*
X246985000Y-245050000D03*
X246985000Y-246150000D03*
X160315000Y-271550000D03*
X160315000Y-270450000D03*
X158485000Y-270450000D03*
X158485000Y-271550000D03*
X220115000Y-137850000D03*
X220115000Y-136750000D03*
X218285000Y-136750000D03*
X218285000Y-137850000D03*
X88515000Y-213150000D03*
X88515000Y-212050000D03*
X86685000Y-212050000D03*
X86685000Y-213150000D03*
X248815000Y-118650000D03*
X248815000Y-117550000D03*
X246985000Y-117550000D03*
X246985000Y-118650000D03*
X160715000Y-287350000D03*
X160715000Y-286250000D03*
X158885000Y-286250000D03*
X158885000Y-287350000D03*
X277215000Y-153150000D03*
X277215000Y-152050000D03*
X275385000Y-152050000D03*
X275385000Y-153150000D03*
X95215000Y-206750000D03*
X95215000Y-205650000D03*
X93385000Y-205650000D03*
X93385000Y-206750000D03*
X301015000Y-222650000D03*
X301015000Y-221550000D03*
X299185000Y-221550000D03*
X299185000Y-222650000D03*
X166615000Y-262550000D03*
X166615000Y-261450000D03*
X164785000Y-261450000D03*
X164785000Y-262550000D03*
X248815000Y-275950000D03*
X248815000Y-274850000D03*
X246985000Y-274850000D03*
X246985000Y-275950000D03*
X234915000Y-140950000D03*
X234915000Y-139850000D03*
X233085000Y-139850000D03*
X233085000Y-140950000D03*
X220115000Y-313550000D03*
X220115000Y-312450000D03*
X218285000Y-312450000D03*
X218285000Y-313550000D03*
X186515000Y-210950000D03*
X186515000Y-209850000D03*
X184685000Y-209850000D03*
X184685000Y-210950000D03*
X206015000Y-306150000D03*
X206015000Y-305050000D03*
X204185000Y-305050000D03*
X204185000Y-306150000D03*
X68398522Y-225050000D03*
X68398522Y-223950000D03*
X66568522Y-223950000D03*
X66568522Y-225050000D03*
X291615000Y-105650000D03*
X291615000Y-104550000D03*
X289785000Y-104550000D03*
X289785000Y-105650000D03*
X263315000Y-157350000D03*
X263315000Y-156250000D03*
X261485000Y-156250000D03*
X261485000Y-157350000D03*
X234915000Y-203150000D03*
X234915000Y-202050000D03*
X233085000Y-202050000D03*
X233085000Y-203150000D03*
X109215000Y-248350000D03*
X109215000Y-247250000D03*
X107385000Y-247250000D03*
X107385000Y-248350000D03*
X220115000Y-241450000D03*
X220115000Y-240350000D03*
X218285000Y-240350000D03*
X218285000Y-241450000D03*
X77515000Y-253350000D03*
X77515000Y-252250000D03*
X75685000Y-252250000D03*
X75685000Y-253350000D03*
X179215000Y-219550000D03*
X179215000Y-218450000D03*
X177385000Y-218450000D03*
X177385000Y-219550000D03*
X79615000Y-233150000D03*
X79615000Y-232050000D03*
X77785000Y-232050000D03*
X77785000Y-233150000D03*
X154015000Y-286950000D03*
X154015000Y-285850000D03*
X152185000Y-285850000D03*
X152185000Y-286950000D03*
X180315000Y-279350000D03*
X180315000Y-278250000D03*
X178485000Y-278250000D03*
X178485000Y-279350000D03*
X277215000Y-263450000D03*
X277215000Y-262350000D03*
X275385000Y-262350000D03*
X275385000Y-263450000D03*
X95615000Y-214350000D03*
X95615000Y-213250000D03*
X93785000Y-213250000D03*
X93785000Y-214350000D03*
X277215000Y-300750000D03*
X277215000Y-299650000D03*
X275385000Y-299650000D03*
X275385000Y-300750000D03*
X263315000Y-181450000D03*
X263315000Y-180350000D03*
X261485000Y-180350000D03*
X261485000Y-181450000D03*
X220115000Y-178450000D03*
X220115000Y-177350000D03*
X218285000Y-177350000D03*
X218285000Y-178450000D03*
X173815000Y-279450000D03*
X173815000Y-278350000D03*
X171985000Y-278350000D03*
X171985000Y-279450000D03*
X123715000Y-268850000D03*
X123715000Y-267750000D03*
X121885000Y-267750000D03*
X121885000Y-268850000D03*
X220115000Y-74350000D03*
X220115000Y-73250000D03*
X218285000Y-73250000D03*
X218285000Y-74350000D03*
X78715000Y-266750000D03*
X78715000Y-265650000D03*
X76885000Y-265650000D03*
X76885000Y-266750000D03*
X263315000Y-273450000D03*
X263315000Y-272350000D03*
X261485000Y-272350000D03*
X261485000Y-273450000D03*
X127615000Y-210350000D03*
X127615000Y-209250000D03*
X125785000Y-209250000D03*
X125785000Y-210350000D03*
X263315000Y-265950000D03*
X263315000Y-264850000D03*
X261485000Y-264850000D03*
X261485000Y-265950000D03*
X127815000Y-217950000D03*
X127815000Y-216850000D03*
X125985000Y-216850000D03*
X125985000Y-217950000D03*
X127915000Y-225850000D03*
X127915000Y-224750000D03*
X126085000Y-224750000D03*
X126085000Y-225850000D03*
X277215000Y-229750000D03*
X277215000Y-228650000D03*
X275385000Y-228650000D03*
X275385000Y-229750000D03*
X159815000Y-253550000D03*
X159815000Y-252450000D03*
X157985000Y-252450000D03*
X157985000Y-253550000D03*
X277215000Y-293150000D03*
X277215000Y-292050000D03*
X275385000Y-292050000D03*
X275385000Y-293150000D03*
X206015000Y-203150000D03*
X206015000Y-202050000D03*
X204185000Y-202050000D03*
X204185000Y-203150000D03*
X95015000Y-253050000D03*
X95015000Y-251950000D03*
X93185000Y-251950000D03*
X93185000Y-253050000D03*
X297815000Y-108450000D03*
X297815000Y-107350000D03*
X295985000Y-107350000D03*
X295985000Y-108450000D03*
X99815000Y-222150000D03*
X99815000Y-221050000D03*
X97985000Y-221050000D03*
X97985000Y-222150000D03*
X220115000Y-203150000D03*
X220115000Y-202050000D03*
X218285000Y-202050000D03*
X218285000Y-203150000D03*
X277215000Y-96700000D03*
X277215000Y-95600000D03*
X275385000Y-95600000D03*
X275385000Y-96700000D03*
X206015000Y-146650000D03*
X206015000Y-145550000D03*
X204185000Y-145550000D03*
X204185000Y-146650000D03*
X96015000Y-268550000D03*
X96015000Y-267450000D03*
X94185000Y-267450000D03*
X94185000Y-268550000D03*
X206015000Y-96250000D03*
X206015000Y-95150000D03*
X204185000Y-95150000D03*
X204185000Y-96250000D03*
X291615000Y-254450000D03*
X291615000Y-253350000D03*
X289785000Y-253350000D03*
X289785000Y-254450000D03*
X199598522Y-261950000D03*
X199598522Y-260850000D03*
X197768522Y-260850000D03*
X197768522Y-261950000D03*
X159015000Y-228050000D03*
X159015000Y-226950000D03*
X157185000Y-226950000D03*
X157185000Y-228050000D03*
X107015000Y-279550000D03*
X107015000Y-278450000D03*
X105185000Y-278450000D03*
X105185000Y-279550000D03*
X97415000Y-245650000D03*
X97415000Y-244550000D03*
X95585000Y-244550000D03*
X95585000Y-245650000D03*
X118015000Y-224750000D03*
X118015000Y-223650000D03*
X116185000Y-223650000D03*
X116185000Y-224750000D03*
X165015000Y-211450000D03*
X165015000Y-210350000D03*
X163185000Y-210350000D03*
X163185000Y-211450000D03*
X133515000Y-226550000D03*
X133515000Y-225450000D03*
X131685000Y-225450000D03*
X131685000Y-226550000D03*
X277215000Y-160550000D03*
X277215000Y-159450000D03*
X275385000Y-159450000D03*
X275385000Y-160550000D03*
X234915000Y-278550000D03*
X234915000Y-277450000D03*
X233085000Y-277450000D03*
X233085000Y-278550000D03*
X206015000Y-274350000D03*
X206015000Y-273250000D03*
X204185000Y-273250000D03*
X204185000Y-274350000D03*
X153815000Y-279450000D03*
X153815000Y-278350000D03*
X151985000Y-278350000D03*
X151985000Y-279450000D03*
X109515000Y-257050000D03*
X109515000Y-255950000D03*
X107685000Y-255950000D03*
X107685000Y-257050000D03*
X220115000Y-296550000D03*
X220115000Y-295450000D03*
X218285000Y-295450000D03*
X218285000Y-296550000D03*
X186598522Y-219350000D03*
X186598522Y-218250000D03*
X184768522Y-218250000D03*
X184768522Y-219350000D03*
X103615000Y-215650000D03*
X103615000Y-214550000D03*
X101785000Y-214550000D03*
X101785000Y-215650000D03*
X234915000Y-262750000D03*
X234915000Y-261650000D03*
X233085000Y-261650000D03*
X233085000Y-262750000D03*
X72215000Y-260350000D03*
X72215000Y-259250000D03*
X70385000Y-259250000D03*
X70385000Y-260350000D03*
X234915000Y-56350000D03*
X234915000Y-55250000D03*
X233085000Y-55250000D03*
X233085000Y-56350000D03*
X100915000Y-246450000D03*
X100915000Y-245350000D03*
X99085000Y-245350000D03*
X99085000Y-246450000D03*
X180415000Y-287950000D03*
X180415000Y-286850000D03*
X178585000Y-286850000D03*
X178585000Y-287950000D03*
X277215000Y-215750000D03*
X277215000Y-214650000D03*
X275385000Y-214650000D03*
X275385000Y-215750000D03*
X82415000Y-226550000D03*
X82415000Y-225450000D03*
X80585000Y-225450000D03*
X80585000Y-226550000D03*
X180215000Y-271650000D03*
X180215000Y-270550000D03*
X178385000Y-270550000D03*
X178385000Y-271650000D03*
X277215000Y-222950000D03*
X277215000Y-221850000D03*
X275385000Y-221850000D03*
X275385000Y-222950000D03*
X91515000Y-259550000D03*
X91515000Y-258450000D03*
X89685000Y-258450000D03*
X89685000Y-259550000D03*
X206015000Y-114150000D03*
X206015000Y-113050000D03*
X204185000Y-113050000D03*
X204185000Y-114150000D03*
X263315000Y-108050000D03*
X263315000Y-106950000D03*
X261485000Y-106950000D03*
X261485000Y-108050000D03*
X263315000Y-230750000D03*
X263315000Y-229650000D03*
X261485000Y-229650000D03*
X261485000Y-230750000D03*
X160515000Y-279450000D03*
X160515000Y-278350000D03*
X158685000Y-278350000D03*
X158685000Y-279450000D03*
X220115000Y-288750000D03*
X220115000Y-287650000D03*
X218285000Y-287650000D03*
X218285000Y-288750000D03*
X180015000Y-262550000D03*
X180015000Y-261450000D03*
X178185000Y-261450000D03*
X178185000Y-262550000D03*
X263315000Y-288750000D03*
X263315000Y-287650000D03*
X261485000Y-287650000D03*
X261485000Y-288750000D03*
X145615000Y-227350000D03*
X145615000Y-226250000D03*
X143785000Y-226250000D03*
X143785000Y-227350000D03*
X234915000Y-187550000D03*
X234915000Y-186450000D03*
X233085000Y-186450000D03*
X233085000Y-187550000D03*
X248815000Y-327050000D03*
X248815000Y-325950000D03*
X246985000Y-325950000D03*
X246985000Y-327050000D03*
X100015000Y-277450000D03*
X100015000Y-276350000D03*
X98185000Y-276350000D03*
X98185000Y-277450000D03*
X220115000Y-226050000D03*
X220115000Y-224950000D03*
X218285000Y-224950000D03*
X218285000Y-226050000D03*
X199815000Y-227950000D03*
X199815000Y-226850000D03*
X197985000Y-226850000D03*
X197985000Y-227950000D03*
X179715000Y-245350000D03*
X179715000Y-244250000D03*
X177885000Y-244250000D03*
X177885000Y-245350000D03*
X199615000Y-270650000D03*
X199615000Y-269550000D03*
X197785000Y-269550000D03*
X197785000Y-270650000D03*
X206015000Y-177550000D03*
X206015000Y-176450000D03*
X204185000Y-176450000D03*
X204185000Y-177550000D03*
X122715000Y-210050000D03*
X122715000Y-208950000D03*
X120885000Y-208950000D03*
X120885000Y-210050000D03*
X263315000Y-237850000D03*
X263315000Y-236750000D03*
X261485000Y-236750000D03*
X261485000Y-237850000D03*
X173215000Y-253650000D03*
X173215000Y-252550000D03*
X171385000Y-252550000D03*
X171385000Y-253650000D03*
X84515000Y-256650000D03*
X84515000Y-255550000D03*
X82685000Y-255550000D03*
X82685000Y-256650000D03*
X277215000Y-117850000D03*
X277215000Y-116750000D03*
X275385000Y-116750000D03*
X275385000Y-117850000D03*
X108615000Y-231750000D03*
X108615000Y-230650000D03*
X106785000Y-230650000D03*
X106785000Y-231750000D03*
X179115000Y-211150000D03*
X179115000Y-210050000D03*
X177285000Y-210050000D03*
X177285000Y-211150000D03*
X128815000Y-260550000D03*
X128815000Y-259450000D03*
X126985000Y-259450000D03*
X126985000Y-260550000D03*
X206015000Y-210950000D03*
X206015000Y-209850000D03*
X204185000Y-209850000D03*
X204185000Y-210950000D03*
X248815000Y-239050000D03*
X248815000Y-237950000D03*
X246985000Y-237950000D03*
X246985000Y-239050000D03*
X134515000Y-277950000D03*
X134515000Y-276850000D03*
X132685000Y-276850000D03*
X132685000Y-277950000D03*
X291615000Y-134450000D03*
X291615000Y-133350000D03*
X289785000Y-133350000D03*
X289785000Y-134450000D03*
X118815000Y-267950000D03*
X118815000Y-266850000D03*
X116985000Y-266850000D03*
X116985000Y-267950000D03*
X113815000Y-249350000D03*
X113815000Y-248250000D03*
X111985000Y-248250000D03*
X111985000Y-249350000D03*
X277215000Y-270750000D03*
X277215000Y-269650000D03*
X275385000Y-269650000D03*
X275385000Y-270750000D03*
X95015000Y-260950000D03*
X95015000Y-259850000D03*
X93185000Y-259850000D03*
X93185000Y-260950000D03*
X277215000Y-175150000D03*
X277215000Y-174050000D03*
X275385000Y-174050000D03*
X275385000Y-175150000D03*
X206015000Y-322150000D03*
X206015000Y-321050000D03*
X204185000Y-321050000D03*
X204185000Y-322150000D03*
X299015000Y-134650000D03*
X299015000Y-133550000D03*
X297185000Y-133550000D03*
X297185000Y-134650000D03*
X122915000Y-225350000D03*
X122915000Y-224250000D03*
X121085000Y-224250000D03*
X121085000Y-225350000D03*
X248815000Y-210250000D03*
X248815000Y-209150000D03*
X246985000Y-209150000D03*
X246985000Y-210250000D03*
X248815000Y-231750000D03*
X248815000Y-230650000D03*
X246985000Y-230650000D03*
X246985000Y-231750000D03*
X263315000Y-280850000D03*
X263315000Y-279750000D03*
X261485000Y-279750000D03*
X261485000Y-280850000D03*
X234915000Y-73050000D03*
X234915000Y-71950000D03*
X233085000Y-71950000D03*
X233085000Y-73050000D03*
X139615000Y-226950000D03*
X139615000Y-225850000D03*
X137785000Y-225850000D03*
X137785000Y-226950000D03*
X91915000Y-213750000D03*
X91915000Y-212650000D03*
X90085000Y-212650000D03*
X90085000Y-213750000D03*
X291615000Y-281250000D03*
X291615000Y-280150000D03*
X289785000Y-280150000D03*
X289785000Y-281250000D03*
X304215000Y-139950000D03*
X304215000Y-138850000D03*
X302385000Y-138850000D03*
X302385000Y-139950000D03*
X123615000Y-259850000D03*
X123615000Y-258750000D03*
X121785000Y-258750000D03*
X121785000Y-259850000D03*
X291615000Y-215050000D03*
X291615000Y-213950000D03*
X289785000Y-213950000D03*
X289785000Y-215050000D03*
X206015000Y-313950000D03*
X206015000Y-312850000D03*
X204185000Y-312850000D03*
X204185000Y-313950000D03*
X277215000Y-182550000D03*
X277215000Y-181450000D03*
X275385000Y-181450000D03*
X275385000Y-182550000D03*
X206015000Y-218650000D03*
X206015000Y-217550000D03*
X204185000Y-217550000D03*
X204185000Y-218650000D03*
X187115000Y-279250000D03*
X187115000Y-278150000D03*
X185285000Y-278150000D03*
X185285000Y-279250000D03*
X134215000Y-261050000D03*
X134215000Y-259950000D03*
X132385000Y-259950000D03*
X132385000Y-261050000D03*
X277215000Y-128050000D03*
X277215000Y-126950000D03*
X275385000Y-126950000D03*
X275385000Y-128050000D03*
X248815000Y-187950000D03*
X248815000Y-186850000D03*
X246985000Y-186850000D03*
X246985000Y-187950000D03*
X263315000Y-89950000D03*
X263315000Y-88850000D03*
X261485000Y-88850000D03*
X261485000Y-89950000D03*
X248815000Y-154350000D03*
X248815000Y-153250000D03*
X246985000Y-153250000D03*
X246985000Y-154350000D03*
X220115000Y-117450000D03*
X220115000Y-116350000D03*
X218285000Y-116350000D03*
X218285000Y-117450000D03*
X103915000Y-222850000D03*
X103915000Y-221750000D03*
X102085000Y-221750000D03*
X102085000Y-222850000D03*
X77815000Y-210850000D03*
X77815000Y-209750000D03*
X75985000Y-209750000D03*
X75985000Y-210850000D03*
X199815000Y-210250000D03*
X199815000Y-209150000D03*
X197985000Y-209150000D03*
X197985000Y-210250000D03*
X165215000Y-219550000D03*
X165215000Y-218450000D03*
X163385000Y-218450000D03*
X163385000Y-219550000D03*
X107898522Y-208550000D03*
X107898522Y-207450000D03*
X106068522Y-207450000D03*
X106068522Y-208550000D03*
X305115000Y-167850000D03*
X305115000Y-166750000D03*
X303285000Y-166750000D03*
X303285000Y-167850000D03*
X248815000Y-74450000D03*
X248815000Y-73350000D03*
X246985000Y-73350000D03*
X246985000Y-74450000D03*
X113915000Y-258050000D03*
X113915000Y-256950000D03*
X112085000Y-256950000D03*
X112085000Y-258050000D03*
X263315000Y-165350000D03*
X263315000Y-164250000D03*
X261485000Y-164250000D03*
X261485000Y-165350000D03*
X248815000Y-224550000D03*
X248815000Y-223450000D03*
X246985000Y-223450000D03*
X246985000Y-224550000D03*
X140815000Y-278750000D03*
X140815000Y-277650000D03*
X138985000Y-277650000D03*
X138985000Y-278750000D03*
X299615000Y-163750000D03*
X299615000Y-162650000D03*
X297785000Y-162650000D03*
X297785000Y-163750000D03*
X248815000Y-301050000D03*
X248815000Y-299950000D03*
X246985000Y-299950000D03*
X246985000Y-301050000D03*
X174115000Y-287850000D03*
X174115000Y-286750000D03*
X172285000Y-286750000D03*
X172285000Y-287850000D03*
X234915000Y-240450000D03*
X234915000Y-239350000D03*
X233085000Y-239350000D03*
X233085000Y-240450000D03*
X88015000Y-258150000D03*
X88015000Y-257050000D03*
X86185000Y-257050000D03*
X86185000Y-258150000D03*
X78415000Y-259750000D03*
X78415000Y-258650000D03*
X76585000Y-258650000D03*
X76585000Y-259750000D03*
X158915000Y-219350000D03*
X158915000Y-218250000D03*
X157085000Y-218250000D03*
X157085000Y-219350000D03*
X206015000Y-58350000D03*
X206015000Y-57250000D03*
X204185000Y-57250000D03*
X204185000Y-58350000D03*
X248815000Y-144450000D03*
X248815000Y-143350000D03*
X246985000Y-143350000D03*
X246985000Y-144450000D03*
X77015000Y-203550000D03*
X77015000Y-202450000D03*
X75185000Y-202450000D03*
X75185000Y-203550000D03*
X141015000Y-285650000D03*
X141015000Y-284550000D03*
X139185000Y-284550000D03*
X139185000Y-285650000D03*
X263315000Y-173450000D03*
X263315000Y-172350000D03*
X261485000Y-172350000D03*
X261485000Y-173450000D03*
X263315000Y-314450000D03*
X263315000Y-313350000D03*
X261485000Y-313350000D03*
X261485000Y-314450000D03*
X72015000Y-225950000D03*
X72015000Y-224850000D03*
X70185000Y-224850000D03*
X70185000Y-225950000D03*
X73415000Y-202950000D03*
X73415000Y-201850000D03*
X71585000Y-201850000D03*
X71585000Y-202950000D03*
X277215000Y-195750000D03*
X277215000Y-194650000D03*
X275385000Y-194650000D03*
X275385000Y-195750000D03*
X80815000Y-247650000D03*
X80815000Y-246550000D03*
X78985000Y-246550000D03*
X78985000Y-247650000D03*
X263315000Y-244650000D03*
X263315000Y-243550000D03*
X261485000Y-243550000D03*
X261485000Y-244650000D03*
X263315000Y-84450000D03*
X263315000Y-83350000D03*
X261485000Y-83350000D03*
X261485000Y-84450000D03*
X146215000Y-253150000D03*
X146215000Y-252050000D03*
X144385000Y-252050000D03*
X144385000Y-253150000D03*
X206015000Y-250750000D03*
X206015000Y-249650000D03*
X204185000Y-249650000D03*
X204185000Y-250750000D03*
X128315000Y-242850000D03*
X128315000Y-241750000D03*
X126485000Y-241750000D03*
X126485000Y-242850000D03*
X277215000Y-202650000D03*
X277215000Y-201550000D03*
X275385000Y-201550000D03*
X275385000Y-202650000D03*
M02*
