M48
; DRILL file {KiCad (6.0.2)} date Tue May 17 12:07:49 2022
; FORMAT={-:-/ absolute / metric / decimal}
; #@! TF.CreationDate,2022-05-17T12:07:49-07:00
; #@! TF.GenerationSoftware,Kicad,Pcbnew,(6.0.2)
; #@! TF.FileFunction,Plated,1,2,PTH
FMAT,2
METRIC
; #@! TA.AperFunction,Plated,PTH,ViaDrill
T1C0.400
; #@! TA.AperFunction,Plated,PTH,ComponentDrill
T2C1.000
%
G90
G05
T1
X65.618Y-203.5
X66.6Y-222.9
X67.5Y-262.1
X67.5Y-263.2
X67.583Y-224.0
X67.6Y-255.0
X67.6Y-256.1
X68.5Y-239.5
X69.167Y-204.2
X69.2Y-205.3
X69.5Y-240.7
X70.4Y-258.1
X71.2Y-224.9
X71.2Y-226.0
X71.4Y-259.3
X72.6Y-201.9
X72.783Y-242.2
X73.1Y-215.7
X73.4Y-209.0
X73.5Y-207.9
X73.6Y-244.4
X73.7Y-222.5
X74.1Y-216.6
X74.2Y-229.8
X74.5Y-237.0
X74.7Y-223.7
X74.935Y-261.5
X75.2Y-230.9
X75.5Y-238.0
X75.5Y-244.0
X75.7Y-251.2
X76.2Y-202.45
X76.5Y-245.0
X76.6Y-257.6
X76.7Y-252.3
X76.935Y-209.8
X77.6Y-258.7
X77.7Y-217.3
X77.7Y-265.6
X78.2Y-224.7
X78.8Y-232.1
X79.0Y-239.2
X79.6Y-265.7
X79.8Y-203.3
X80.0Y-246.6
X80.183Y-254.0
X80.5Y-210.5
X81.083Y-260.8
X81.2Y-218.0
X81.4Y-267.9
X81.6Y-225.5
X82.2Y-233.0
X82.5Y-240.5
X83.5Y-203.9
X83.5Y-248.0
X83.7Y-255.6
X84.2Y-211.4
X84.6Y-262.6
X84.8Y-218.7
X84.9Y-270.0
X85.2Y-226.3
X85.8Y-234.0
X86.1Y-241.6
X87.1Y-204.6
X87.1Y-249.5
X87.2Y-257.1
X87.7Y-212.1
X88.2Y-219.4
X88.2Y-264.3
X88.4Y-271.8
X88.7Y-227.1
X89.3Y-234.9
X89.6Y-242.7
X90.6Y-205.3
X90.635Y-250.95
X90.635Y-258.5
X91.035Y-212.75
X91.7Y-220.0
X91.7Y-266.0
X92.0Y-273.5
X92.2Y-227.8
X92.8Y-235.7
X93.1Y-243.7
X94.2Y-252.0
X94.2Y-259.9
X94.4Y-205.7
X94.8Y-213.25
X95.135Y-267.5
X95.3Y-220.6
X95.6Y-275.1
X95.8Y-228.6
X96.3Y-236.5
X96.6Y-244.6
X97.735Y-253.15
X97.783Y-261.2
X98.3Y-206.3
X98.535Y-213.9
X98.7Y-268.8
X98.935Y-221.1
X99.2Y-276.35
X99.435Y-229.45
X99.9Y-237.3
X100.1Y-245.4
X101.283Y-262.3
X101.4Y-254.2
X102.2Y-270.1
X102.5Y-207.0
X102.7Y-277.5
X102.8Y-214.6
X103.1Y-221.8
X103.5Y-230.0
X103.8Y-238.1
X104.2Y-246.5
X104.9Y-255.2
X104.9Y-263.5
X105.8Y-271.4
X106.2Y-278.5
X107.083Y-207.5
X107.3Y-215.1
X107.483Y-222.4
X107.8Y-230.7
X107.883Y-238.9
X108.335Y-247.3
X108.7Y-256.0
X109.0Y-264.7
X109.583Y-272.4
X109.7Y-279.5
X112.0Y-208.1
X112.2Y-215.7
X112.3Y-223.1
X112.483Y-231.5
X112.7Y-239.6
X113.0Y-248.3
X113.1Y-257.0
X113.4Y-265.9
X113.5Y-273.4
X113.5Y-280.3
X116.883Y-208.6
X117.1Y-216.1
X117.2Y-223.7
X117.3Y-232.3
X117.5Y-240.7
X117.7Y-249.1
X117.8Y-257.9
X118.0Y-266.9
X118.083Y-281.2
X118.1Y-274.4
X121.9Y-209.0
X122.0Y-216.55
X122.1Y-224.3
X122.3Y-232.8
X122.4Y-241.2
X122.635Y-249.85
X122.8Y-258.8
X122.9Y-267.8
X123.1Y-275.4
X123.2Y-282.2
X126.8Y-209.3
X127.0Y-216.9
X127.1Y-224.8
X127.283Y-233.3
X127.435Y-241.75
X127.7Y-250.5
X128.0Y-259.5
X128.1Y-268.5
X128.3Y-276.2
X128.5Y-283.0
X132.335Y-209.65
X132.6Y-217.2
X132.635Y-225.5
X132.9Y-233.9
X133.0Y-242.5
X133.135Y-251.15
X133.4Y-260.0
X133.6Y-269.3
X133.7Y-276.9
X133.8Y-283.8
X138.5Y-210.0
X138.6Y-217.6
X138.8Y-225.9
X139.0Y-234.5
X139.2Y-242.9
X139.4Y-251.7
X139.7Y-260.4
X139.8Y-269.8
X140.0Y-277.7
X140.2Y-284.6
X144.383Y-210.2
X144.6Y-217.9
X144.8Y-226.3
X145.0Y-234.9
X145.2Y-243.4
X145.4Y-252.1
X145.583Y-260.7
X145.8Y-270.1
X146.0Y-278.0
X146.2Y-285.2
X151.2Y-210.3
X151.383Y-218.2
X151.5Y-226.7
X151.783Y-243.7
X151.8Y-235.3
X152.3Y-252.3
X152.5Y-261.0
X152.7Y-270.3
X153.0Y-278.4
X153.135Y-285.95
X157.8Y-210.4
X158.1Y-218.3
X158.2Y-227.0
X158.5Y-235.6
X158.7Y-244.0
X159.0Y-252.5
X159.2Y-261.3
X159.5Y-270.5
X159.7Y-278.4
X159.9Y-286.3
X164.2Y-210.4
X164.4Y-218.5
X164.7Y-227.2
X165.0Y-235.8
X165.2Y-244.2
X165.5Y-252.5
X165.8Y-261.5
X166.1Y-270.6
X166.3Y-278.4
X166.6Y-286.6
X171.2Y-210.2
X171.5Y-218.6
X171.7Y-227.3
X171.9Y-236.0
X172.1Y-244.3
X172.4Y-252.6
X172.6Y-261.5
X172.9Y-270.6
X173.0Y-278.4
X173.3Y-286.8
X178.3Y-210.1
X178.4Y-218.5
X178.5Y-227.3
X178.7Y-236.0
X178.9Y-244.3
X179.0Y-252.7
X179.2Y-261.5
X179.4Y-270.6
X179.5Y-278.3
X179.6Y-286.9
X185.7Y-209.9
X185.783Y-218.3
X185.783Y-244.3
X185.8Y-227.3
X185.9Y-236.0
X186.1Y-252.6
X186.183Y-261.3
X186.183Y-270.4
X186.3Y-278.2
X186.4Y-286.9
X192.8Y-261.1
X192.8Y-269.9
X192.8Y-278.0
X192.8Y-286.8
X192.9Y-244.1
X192.9Y-252.5
X193.0Y-227.1
X193.0Y-236.0
X193.1Y-209.6
X193.1Y-218.0
X198.7Y-286.6
X198.783Y-260.9
X198.8Y-269.6
X198.835Y-245.0
X198.9Y-243.9
X198.9Y-252.3
X198.9Y-277.7
X199.0Y-209.2
X199.0Y-217.7
X199.0Y-226.9
X199.0Y-235.7
X199.1Y-189.1
X199.6Y-263.1
X199.6Y-271.6
X199.7Y-254.3
X199.7Y-279.8
X199.8Y-211.2
X199.8Y-219.7
X199.8Y-228.9
X199.8Y-237.8
X200.1Y-189.1
X204.1Y-102.0
X204.1Y-111.7
X204.1Y-175.4
X204.1Y-303.8
X204.1Y-311.7
X204.185Y-74.115
X204.185Y-224.615
X204.2Y-51.3
X204.2Y-56.2
X204.2Y-59.7
X204.2Y-68.1
X204.2Y-80.7
X204.2Y-86.9
X204.2Y-93.9
X204.2Y-122.8
X204.2Y-133.0
X204.2Y-144.5
X204.2Y-154.2
X204.2Y-165.1
X204.2Y-183.7
X204.2Y-193.0
X204.2Y-200.7
X204.2Y-208.8
X204.2Y-216.5
X204.2Y-232.7
X204.2Y-240.6
X204.2Y-248.6
X204.2Y-256.3
X204.2Y-264.2
X204.2Y-272.0
X204.2Y-280.2
X204.2Y-288.3
X204.2Y-319.8
X204.2Y-327.9
X204.3Y-296.2
X205.15Y-52.25
X205.15Y-57.25
X205.15Y-62.75
X205.15Y-75.1
X205.15Y-81.75
X205.15Y-95.05
X205.15Y-103.15
X205.15Y-113.05
X205.15Y-123.95
X205.15Y-145.5
X205.15Y-155.25
X205.15Y-166.25
X205.15Y-273.2
X205.15Y-281.35
X205.15Y-297.25
X205.15Y-329.25
X205.2Y-47.2
X205.2Y-69.3
X205.2Y-88.1
X205.2Y-134.2
X205.2Y-176.5
X205.2Y-184.9
X205.2Y-194.4
X205.2Y-202.1
X205.2Y-209.9
X205.2Y-217.6
X205.2Y-225.8
X205.2Y-233.8
X205.2Y-241.6
X205.2Y-249.7
X205.2Y-257.4
X205.2Y-265.4
X205.2Y-289.5
X205.2Y-305.1
X205.2Y-312.9
X205.2Y-321.1
X219.25Y-66.75
X219.25Y-86.05
X219.25Y-126.95
X219.25Y-136.75
X219.25Y-147.75
X219.25Y-167.65
X219.25Y-177.35
X219.25Y-185.55
X219.25Y-194.45
X219.25Y-209.65
X219.25Y-217.05
X219.25Y-248.15
X219.25Y-263.35
X219.25Y-287.65
X219.25Y-295.45
X219.25Y-304.25
X219.25Y-312.45
X219.25Y-321.15
X219.3Y-50.4
X219.3Y-55.3
X219.3Y-60.8
X219.3Y-73.3
X219.3Y-79.8
X219.3Y-92.3
X219.3Y-99.3
X219.3Y-107.1
X219.3Y-116.4
X219.3Y-157.4
X219.3Y-202.1
X219.3Y-225.0
X219.3Y-232.75
X219.3Y-240.4
X219.3Y-255.55
X219.3Y-271.4
X219.3Y-279.4
X219.3Y-329.2
X234.05Y-55.25
X234.05Y-71.95
X234.05Y-78.35
X234.05Y-111.65
X234.05Y-139.85
X234.05Y-150.55
X234.05Y-159.55
X234.05Y-169.25
X234.05Y-178.4
X234.05Y-186.45
X234.05Y-194.55
X234.05Y-202.05
X234.05Y-209.55
X234.05Y-216.65
X234.05Y-246.75
X234.05Y-253.9
X234.05Y-261.65
X234.05Y-285.55
X234.05Y-293.65
X234.05Y-302.55
X234.05Y-311.05
X234.05Y-320.15
X234.1Y-60.0
X234.1Y-65.7
X234.1Y-85.0
X234.1Y-91.5
X234.1Y-97.6
X234.1Y-104.3
X234.1Y-120.4
X234.1Y-130.6
X234.1Y-224.4
X234.1Y-232.0
X234.1Y-239.4
X234.1Y-269.6
X234.1Y-277.5
X234.1Y-328.3
X247.95Y-67.65
X247.95Y-73.35
X247.95Y-79.55
X247.95Y-85.55
X247.95Y-125.55
X247.95Y-134.85
X247.95Y-143.35
X247.95Y-153.25
X247.95Y-161.85
X247.95Y-170.55
X247.95Y-179.25
X247.95Y-186.85
X247.95Y-194.45
X247.95Y-209.05
X247.95Y-223.35
X247.95Y-245.05
X247.95Y-259.35
X247.95Y-267.25
X247.95Y-282.85
X247.95Y-290.75
X247.95Y-299.85
X247.95Y-308.2
X247.968Y-251.843
X248.0Y-62.7
X248.0Y-91.8
X248.0Y-98.7
X248.0Y-104.4
X248.0Y-110.8
X248.0Y-117.6
X248.0Y-201.75
X248.0Y-215.85
X248.0Y-230.7
X248.0Y-238.0
X248.0Y-274.9
X248.0Y-317.4
X248.0Y-325.95
X262.45Y-71.95
X262.45Y-77.45
X262.45Y-94.25
X262.45Y-106.95
X262.45Y-112.35
X262.45Y-124.25
X262.45Y-131.35
X262.45Y-139.75
X262.45Y-147.55
X262.45Y-156.25
X262.45Y-164.25
X262.45Y-180.35
X262.45Y-194.55
X262.45Y-201.55
X262.45Y-222.65
X262.45Y-229.65
X262.45Y-243.55
X262.45Y-249.95
X262.45Y-257.25
X262.45Y-264.75
X262.45Y-287.55
X262.45Y-304.5
X262.5Y-88.8
X262.5Y-100.1
X262.5Y-118.4
X262.5Y-172.4
X262.5Y-187.5
X262.5Y-209.0
X262.5Y-215.1
X262.5Y-236.8
X262.5Y-272.4
X262.5Y-279.8
X262.5Y-296.35
X262.5Y-313.4
X262.5Y-322.3
X262.68Y-83.12
X276.338Y-105.262
X276.35Y-121.85
X276.35Y-138.15
X276.35Y-145.15
X276.35Y-152.05
X276.35Y-166.75
X276.35Y-174.05
X276.35Y-181.45
X276.35Y-187.85
X276.35Y-194.65
X276.35Y-201.55
X276.35Y-208.75
X276.35Y-214.65
X276.35Y-221.85
X276.35Y-228.65
X276.35Y-235.45
X276.35Y-242.05
X276.35Y-248.05
X276.35Y-255.45
X276.35Y-299.65
X276.35Y-316.05
X276.4Y-83.8
X276.4Y-89.7
X276.4Y-95.6
X276.4Y-100.3
X276.4Y-110.6
X276.4Y-116.8
X276.4Y-127.0
X276.4Y-132.1
X276.4Y-159.5
X276.4Y-262.4
X276.4Y-269.7
X276.4Y-276.5
X276.4Y-284.2
X276.4Y-292.1
X276.4Y-307.9
X290.75Y-109.65
X290.75Y-123.95
X290.75Y-133.35
X290.75Y-137.35
X290.75Y-141.25
X290.75Y-146.05
X290.75Y-151.35
X290.75Y-157.15
X290.75Y-162.95
X290.75Y-169.45
X290.75Y-175.95
X290.75Y-182.65
X290.75Y-188.35
X290.75Y-201.45
X290.75Y-208.55
X290.75Y-213.95
X290.75Y-221.15
X290.75Y-234.25
X290.75Y-240.45
X290.75Y-246.2
X290.75Y-253.25
X290.75Y-259.75
X290.75Y-266.65
X290.75Y-272.75
X290.75Y-280.15
X290.75Y-293.35
X290.75Y-300.65
X290.75Y-305.85
X290.8Y-100.0
X290.8Y-104.5
X290.8Y-114.8
X290.8Y-119.5
X290.8Y-129.0
X290.8Y-194.8
X290.8Y-227.6
X290.8Y-286.7
X291.6Y-112.3
X291.6Y-116.8
X291.6Y-121.6
X291.6Y-126.3
X291.6Y-139.5
X291.6Y-143.3
X291.6Y-148.3
X291.6Y-159.4
X291.6Y-165.5
X291.6Y-171.8
X291.6Y-178.2
X291.6Y-185.1
X291.6Y-190.4
X291.6Y-229.7
X291.6Y-243.0
X291.6Y-248.7
X291.6Y-255.7
X291.6Y-262.1
X291.6Y-269.0
X291.6Y-275.2
X291.6Y-282.4
X291.6Y-289.0
X291.6Y-303.1
X291.615Y-216.115
X291.615Y-223.415
X291.7Y-106.8
X291.7Y-130.9
X291.7Y-135.5
X291.7Y-153.6
X291.7Y-196.9
X291.7Y-204.3
X291.7Y-211.6
X291.7Y-236.8
X291.7Y-295.4
X291.7Y-310.7
X292.8Y-101.1
X297.0Y-107.4
X297.2Y-132.5
X297.6Y-190.5
X297.8Y-161.6
X298.15Y-133.55
X298.65Y-191.55
X298.75Y-162.65
X299.2Y-220.6
X299.3Y-250.7
X300.15Y-221.55
X300.3Y-251.65
X300.4Y-284.5
X300.85Y-112.95
X301.35Y-285.75
X303.35Y-138.85
X303.85Y-194.25
X304.1Y-117.9
X304.3Y-166.8
X304.65Y-223.55
X305.7Y-252.5
X305.95Y-285.25
X307.95Y-123.85
X308.05Y-143.75
X308.8Y-125.9
X309.25Y-196.85
X309.3Y-170.6
X309.35Y-225.45
X310.35Y-284.65
X310.85Y-253.45
X311.2Y-286.9
X311.7Y-255.7
X312.6Y-148.1
X313.4Y-150.2
X313.7Y-174.1
X313.9Y-227.5
X314.5Y-176.2
X314.55Y-199.65
X314.7Y-229.5
X315.4Y-201.6
T2
X191.2Y-165.975
X191.2Y-168.515
X191.2Y-171.055
X191.2Y-173.595
X191.2Y-176.135
X191.2Y-178.675
X191.2Y-181.215
X191.2Y-183.755
X191.2Y-186.295
X191.2Y-188.835
T0
M30
