G04 #@! TF.GenerationSoftware,KiCad,Pcbnew,(6.0.2)*
G04 #@! TF.CreationDate,2022-05-17T12:07:46-07:00*
G04 #@! TF.ProjectId,DaftPunkBackLayerBoard,44616674-5075-46e6-9b42-61636b4c6179,rev?*
G04 #@! TF.SameCoordinates,Original*
G04 #@! TF.FileFunction,Profile,NP*
%FSLAX46Y46*%
G04 Gerber Fmt 4.6, Leading zero omitted, Abs format (unit mm)*
G04 Created by KiCad (PCBNEW (6.0.2)) date 2022-05-17 12:07:46*
%MOMM*%
%LPD*%
G01*
G04 APERTURE LIST*
G04 #@! TA.AperFunction,Profile*
%ADD10C,0.050000*%
G04 #@! TD*
%ADD11C,0.200000*%
G04 APERTURE END LIST*
D10*
X61600000Y-274400000D02*
X60000000Y-271900000D01*
X263300000Y-343400000D02*
X273325000Y-340250000D01*
X198100000Y-32300000D02*
X199462513Y-31957670D01*
X67400000Y-279200000D02*
X66100000Y-278200000D01*
X66100000Y-278200000D02*
X65100000Y-277400000D01*
D11*
X313762513Y-109745169D02*
X313985039Y-110015666D01*
X314209524Y-110292085D01*
X314435828Y-110574437D01*
X314663814Y-110862730D01*
X314893344Y-111156975D01*
X315124281Y-111457182D01*
X315356486Y-111763359D01*
X315589822Y-112075517D01*
X315824150Y-112393666D01*
X316059334Y-112717815D01*
X316295236Y-113047973D01*
X316531717Y-113384152D01*
X316768639Y-113726360D01*
X317005866Y-114074607D01*
X317243259Y-114428903D01*
X317480680Y-114789257D01*
X317717992Y-115155680D01*
X317955057Y-115528181D01*
X318191737Y-115906769D01*
X318427894Y-116291455D01*
X318663390Y-116682249D01*
X318898088Y-117079159D01*
X319131850Y-117482196D01*
X319364538Y-117891369D01*
X319596015Y-118306689D01*
X319826141Y-118728164D01*
X320054781Y-119155806D01*
X320281795Y-119589622D01*
X320507047Y-120029623D01*
X320730397Y-120475820D01*
X320951710Y-120928220D01*
X321170846Y-121386836D01*
D10*
X110900000Y-296400000D02*
X92900000Y-291800000D01*
X74000000Y-283400000D02*
X72800000Y-282700000D01*
X191200000Y-194200000D02*
X191200000Y-33700000D01*
D11*
X287304180Y-70939614D02*
X287483974Y-71089208D01*
X287666213Y-71241879D01*
X287850844Y-71397636D01*
X288037814Y-71556485D01*
X288227070Y-71718433D01*
X288418558Y-71883489D01*
X288612225Y-72051659D01*
X288808019Y-72222950D01*
X289005887Y-72397371D01*
X289205774Y-72574928D01*
X289407629Y-72755629D01*
X289611398Y-72939481D01*
X289817027Y-73126492D01*
X290024465Y-73316669D01*
X290233657Y-73510019D01*
X290444551Y-73706549D01*
X290657093Y-73906268D01*
X290871231Y-74109182D01*
X291086911Y-74315299D01*
X291304081Y-74524625D01*
X291522687Y-74737170D01*
X291742676Y-74952939D01*
X291963995Y-75171940D01*
X292186591Y-75394181D01*
X292410411Y-75619668D01*
X292635401Y-75848410D01*
X292861509Y-76080414D01*
X293088682Y-76315686D01*
X293316867Y-76554235D01*
X293546009Y-76796068D01*
X293776057Y-77041191D01*
X294006958Y-77289614D01*
X294006958Y-77289614D02*
X294199041Y-77498210D01*
X294431024Y-77752819D01*
X294700838Y-78052740D01*
X294849285Y-78219474D01*
X295006413Y-78397273D01*
X295171965Y-78586049D01*
X295345682Y-78785715D01*
X295527304Y-78996184D01*
X295716575Y-79217368D01*
X295913234Y-79449178D01*
X296117023Y-79691529D01*
X296327685Y-79944332D01*
X296544959Y-80207499D01*
X296768588Y-80480943D01*
X296998313Y-80764577D01*
X297233876Y-81058312D01*
X297475017Y-81362061D01*
X297721478Y-81675737D01*
X297973001Y-81999252D01*
X298229328Y-82332519D01*
X298490198Y-82675449D01*
X298755355Y-83027956D01*
X299024539Y-83389951D01*
X299297491Y-83761347D01*
X299573954Y-84142057D01*
X299853668Y-84531993D01*
X300136376Y-84931067D01*
X300421817Y-85339192D01*
X300709735Y-85756280D01*
D10*
X146400000Y-300500000D02*
X110900000Y-296400000D01*
D11*
X273922235Y-58432670D02*
X273230111Y-57835122D01*
X272542712Y-57255419D01*
X271859619Y-56692850D01*
X271180414Y-56146704D01*
X270504680Y-55616270D01*
X269831999Y-55100837D01*
X269161954Y-54599692D01*
X268494127Y-54112126D01*
X267828101Y-53637426D01*
X267163457Y-53174881D01*
X266499778Y-52723781D01*
X265836647Y-52283414D01*
X265173645Y-51853069D01*
X264510356Y-51432034D01*
X263846361Y-51019599D01*
X263181243Y-50615052D01*
X262514584Y-50217681D01*
X261845968Y-49826777D01*
X261174975Y-49441627D01*
X260501188Y-49061520D01*
X259824191Y-48685745D01*
X259143564Y-48313591D01*
X258458891Y-47944346D01*
X257769754Y-47577300D01*
X257075735Y-47211740D01*
X256376417Y-46846957D01*
X255671381Y-46482238D01*
X254960211Y-46116873D01*
X254242489Y-45750150D01*
X253517797Y-45381358D01*
X252785717Y-45009785D01*
X252045833Y-44634722D01*
X324345846Y-129853503D02*
X324438921Y-130217293D01*
X324531396Y-130582564D01*
X324623259Y-130949314D01*
X324714500Y-131317541D01*
X324805107Y-131687243D01*
X324895071Y-132058417D01*
X324984380Y-132431062D01*
X325073025Y-132805177D01*
X325160993Y-133180758D01*
X325248275Y-133557803D01*
X325334861Y-133936312D01*
X325420738Y-134316281D01*
X325505897Y-134697709D01*
X325590327Y-135080593D01*
X325674017Y-135464933D01*
X325756958Y-135850725D01*
D10*
X63900000Y-276400000D02*
X62800000Y-275500000D01*
D11*
X207948611Y-31934723D02*
X207635359Y-31921258D01*
X207324914Y-31908942D01*
X207017305Y-31897750D01*
X206712562Y-31887661D01*
X206410713Y-31878649D01*
X206111788Y-31870693D01*
X205815817Y-31863768D01*
X205522829Y-31857852D01*
X205232854Y-31852920D01*
X204945920Y-31848950D01*
X204662058Y-31845919D01*
X204381296Y-31843802D01*
X204103664Y-31842577D01*
X203829192Y-31842220D01*
X203557909Y-31842708D01*
X203289844Y-31844018D01*
X203025027Y-31846126D01*
X202763488Y-31849009D01*
X202505255Y-31852644D01*
X202250358Y-31857007D01*
X201998826Y-31862074D01*
X201750689Y-31867824D01*
X201505977Y-31874231D01*
X201264718Y-31881274D01*
X201026943Y-31888928D01*
X200792680Y-31897170D01*
X200561959Y-31905977D01*
X200334809Y-31915326D01*
X200111260Y-31925193D01*
X199891341Y-31935555D01*
X199675082Y-31946388D01*
X199462513Y-31957670D01*
X321170846Y-121386836D02*
X321304967Y-121673036D01*
X321436580Y-121958132D01*
X321565711Y-122242093D01*
X321692385Y-122524892D01*
X321816627Y-122806498D01*
X321938464Y-123086884D01*
X322057921Y-123366020D01*
X322175024Y-123643876D01*
X322289797Y-123920425D01*
X322402268Y-124195638D01*
X322512461Y-124469484D01*
X322620403Y-124741936D01*
X322726118Y-125012964D01*
X322829633Y-125282540D01*
X322930973Y-125550634D01*
X323030164Y-125817218D01*
X323127231Y-126082262D01*
X323222200Y-126345738D01*
X323315097Y-126607616D01*
X323405947Y-126867868D01*
X323494777Y-127126465D01*
X323581611Y-127383378D01*
X323666475Y-127638577D01*
X323749395Y-127892035D01*
X323830396Y-128143721D01*
X323909505Y-128393607D01*
X323986747Y-128641664D01*
X324062147Y-128887864D01*
X324135731Y-129132176D01*
X324207526Y-129374573D01*
X324277555Y-129615024D01*
X324345846Y-129853503D01*
X222412500Y-33698612D02*
X221747314Y-33569296D01*
X221086517Y-33446273D01*
X220431045Y-33329393D01*
X219781835Y-33218505D01*
X219139824Y-33113458D01*
X218505948Y-33014102D01*
X217881143Y-32920286D01*
X217266347Y-32831859D01*
X216662494Y-32748671D01*
X216070523Y-32670571D01*
X215491370Y-32597408D01*
X214925971Y-32529032D01*
X214375262Y-32465292D01*
X213840181Y-32406038D01*
X213321663Y-32351118D01*
X212820646Y-32300382D01*
X212338065Y-32253680D01*
X211874858Y-32210861D01*
X211431960Y-32171774D01*
X211010309Y-32136268D01*
X210610841Y-32104194D01*
X210234492Y-32075399D01*
X209882200Y-32049734D01*
X209554899Y-32027048D01*
X209253528Y-32007190D01*
X208979022Y-31990010D01*
X208732319Y-31975357D01*
X208514354Y-31963080D01*
X208168386Y-31945053D01*
X207948611Y-31934723D01*
D10*
X192600000Y-301900000D02*
X146400000Y-300500000D01*
D11*
X287304180Y-70939614D02*
X287079534Y-70793155D01*
X286920549Y-70656068D01*
X286722795Y-70478517D01*
X286488239Y-70262702D01*
X286218850Y-70010826D01*
X285916598Y-69725089D01*
X285583451Y-69407693D01*
X285221378Y-69060839D01*
X284832347Y-68686728D01*
X284418328Y-68287562D01*
X283981289Y-67865542D01*
X283523199Y-67422869D01*
X283046026Y-66961745D01*
X282551740Y-66484371D01*
X282042309Y-65992948D01*
X281519702Y-65489678D01*
X280985888Y-64976762D01*
X280442835Y-64456401D01*
X279892513Y-63930797D01*
X279336889Y-63402151D01*
X278777934Y-62872664D01*
X278217615Y-62344538D01*
X277657902Y-61819974D01*
X277100762Y-61301173D01*
X276548166Y-60790336D01*
X276002081Y-60289666D01*
X275464477Y-59801362D01*
X274937322Y-59327628D01*
X274422585Y-58870663D01*
X273922235Y-58432670D01*
D10*
X79200000Y-286000000D02*
X77600000Y-285300000D01*
X192700000Y-33400000D02*
X194100000Y-33100000D01*
X77600000Y-285300000D02*
X76800000Y-284900000D01*
X183200000Y-194900000D02*
X191200000Y-194200000D01*
X52900000Y-182700000D02*
X64900000Y-185200000D01*
X194100000Y-33100000D02*
X196000000Y-32700000D01*
D11*
X301900000Y-321200000D02*
X302696974Y-320304928D01*
X303466220Y-319410109D01*
X304208284Y-318516384D01*
X304923714Y-317624594D01*
X305613057Y-316735582D01*
X306276859Y-315850190D01*
X306915670Y-314969258D01*
X307530034Y-314093630D01*
X308120501Y-313224147D01*
X308687616Y-312361651D01*
X309231928Y-311506984D01*
X309753983Y-310660987D01*
X310254328Y-309824503D01*
X310733512Y-308998373D01*
X311192080Y-308183439D01*
X311630580Y-307380543D01*
X312049560Y-306590527D01*
X312449567Y-305814233D01*
X312831147Y-305052502D01*
X313194848Y-304306177D01*
X313541218Y-303576099D01*
X313870803Y-302863110D01*
X314184150Y-302168053D01*
X314481808Y-301491768D01*
X314764323Y-300835097D01*
X315032241Y-300198884D01*
X315286112Y-299583968D01*
X315526481Y-298991193D01*
X315753896Y-298421401D01*
X315968904Y-297875432D01*
X316172053Y-297354129D01*
X316363889Y-296858334D01*
D10*
X60000000Y-271900000D02*
X52900000Y-182700000D01*
X139800000Y-195100000D02*
X183200000Y-194900000D01*
X72800000Y-282700000D02*
X71800000Y-282100000D01*
D11*
X252045833Y-44634722D02*
X251490281Y-44353505D01*
X250905307Y-44058558D01*
X250291464Y-43750863D01*
X249649302Y-43431402D01*
X248979374Y-43101158D01*
X248282231Y-42761114D01*
X247558427Y-42412251D01*
X246808512Y-42055553D01*
X246033038Y-41692001D01*
X245232559Y-41322579D01*
X244407624Y-40948268D01*
X243558787Y-40570052D01*
X242686600Y-40188913D01*
X241791613Y-39805833D01*
X240874380Y-39421795D01*
X239935453Y-39037782D01*
X238975382Y-38654775D01*
X237994720Y-38273758D01*
X236994020Y-37895713D01*
X235973832Y-37521622D01*
X234934709Y-37152469D01*
X233877203Y-36789234D01*
X232801866Y-36432902D01*
X231709250Y-36084454D01*
X230599906Y-35744873D01*
X229474387Y-35415141D01*
X228333245Y-35096242D01*
X227177031Y-34789157D01*
X226006298Y-34494869D01*
X224821597Y-34214360D01*
X223623480Y-33948614D01*
X222412500Y-33698612D01*
D10*
X65100000Y-277400000D02*
X63900000Y-276400000D01*
X196000000Y-32700000D02*
X198100000Y-32300000D01*
X75800000Y-284400000D02*
X74900000Y-283900000D01*
X76800000Y-284900000D02*
X75800000Y-284400000D01*
X328226402Y-151372947D02*
X323800000Y-267000000D01*
X263300000Y-343400000D02*
X235700000Y-347900000D01*
X191200000Y-33700000D02*
X192700000Y-33400000D01*
D11*
X316363889Y-296858334D02*
X316470414Y-296580911D01*
X316574883Y-296305938D01*
X316677312Y-296033468D01*
X316777716Y-295763550D01*
X316876112Y-295496236D01*
X316972517Y-295231577D01*
X317066946Y-294969624D01*
X317159416Y-294710428D01*
X317249944Y-294454042D01*
X317338545Y-294200515D01*
X317425235Y-293949899D01*
X317510032Y-293702245D01*
X317592951Y-293457604D01*
X317674009Y-293216028D01*
X317753222Y-292977567D01*
X317830606Y-292742273D01*
X317906177Y-292510197D01*
X317979953Y-292281390D01*
X318051948Y-292055903D01*
X318122180Y-291833788D01*
X318190665Y-291615095D01*
X318257419Y-291399876D01*
X318322457Y-291188182D01*
X318385798Y-290980064D01*
X318447456Y-290775573D01*
X318507449Y-290574761D01*
X318565792Y-290377678D01*
X318622502Y-290184376D01*
X318731086Y-289809319D01*
X318833334Y-289450000D01*
X300709735Y-85756280D02*
X300925907Y-86073343D01*
X301152614Y-86410687D01*
X301270826Y-86588878D01*
X301392762Y-86774436D01*
X301518783Y-86968127D01*
X301649255Y-87170715D01*
X301784539Y-87382966D01*
X301924999Y-87605646D01*
X302070998Y-87839520D01*
X302222900Y-88085354D01*
X302381067Y-88343913D01*
X302545863Y-88615963D01*
X302717651Y-88902268D01*
X302896794Y-89203596D01*
X303083656Y-89520710D01*
X303278598Y-89854376D01*
X303481986Y-90205361D01*
X303694181Y-90574429D01*
X303915547Y-90962346D01*
X304146448Y-91369878D01*
X304387246Y-91797789D01*
X304638304Y-92246846D01*
X304899986Y-92717814D01*
X305172655Y-93211458D01*
X305456675Y-93728544D01*
X305752407Y-94269837D01*
X306060216Y-94836102D01*
X306380465Y-95428107D01*
X306713517Y-96046614D01*
X307059735Y-96692392D01*
D10*
X71800000Y-282100000D02*
X68400000Y-279900000D01*
X74900000Y-283900000D02*
X74000000Y-283400000D01*
X68400000Y-279900000D02*
X67400000Y-279200000D01*
D11*
X273325000Y-340250000D02*
X273802048Y-340068522D01*
X274322844Y-339868089D01*
X274885695Y-339647928D01*
X275488911Y-339407262D01*
X276130800Y-339145318D01*
X276809670Y-338861321D01*
X277523831Y-338554498D01*
X278271591Y-338224073D01*
X279051258Y-337869272D01*
X279861142Y-337489321D01*
X280699550Y-337083445D01*
X281564792Y-336650870D01*
X282455177Y-336190822D01*
X283369012Y-335702526D01*
X284304606Y-335185208D01*
X285260269Y-334638093D01*
X286234309Y-334060407D01*
X287225034Y-333451375D01*
X288230753Y-332810224D01*
X289249775Y-332136179D01*
X290280408Y-331428464D01*
X291320962Y-330686307D01*
X292369744Y-329908933D01*
X293425063Y-329095566D01*
X294485228Y-328245433D01*
X295548548Y-327357760D01*
X296613331Y-326431772D01*
X297677887Y-325466694D01*
X298740522Y-324461752D01*
X299799547Y-323416172D01*
X300853270Y-322329179D01*
X301900000Y-321200000D01*
D10*
X192600000Y-348000000D02*
X192600000Y-301900000D01*
X323800000Y-267000000D02*
X318833334Y-289450000D01*
X62800000Y-275500000D02*
X61600000Y-274400000D01*
D11*
X307059735Y-96692392D02*
X307228595Y-97008335D01*
X307400482Y-97330588D01*
X307575353Y-97659114D01*
X307753169Y-97993875D01*
X307933888Y-98334832D01*
X308117470Y-98681949D01*
X308303874Y-99035187D01*
X308493060Y-99394509D01*
X308684988Y-99759877D01*
X308879616Y-100131253D01*
X309076904Y-100508599D01*
X309276812Y-100891878D01*
X309479298Y-101281052D01*
X309684323Y-101676083D01*
X309891845Y-102076934D01*
X310101824Y-102483566D01*
X310314219Y-102895941D01*
X310528991Y-103314023D01*
X310746097Y-103737774D01*
X310965498Y-104167155D01*
X311187154Y-104602128D01*
X311411022Y-105042657D01*
X311637064Y-105488703D01*
X311865237Y-105940229D01*
X312095502Y-106397197D01*
X312327818Y-106859568D01*
X312562145Y-107327306D01*
X312798441Y-107800372D01*
X313036667Y-108278730D01*
X313276781Y-108762340D01*
X313518743Y-109251165D01*
X313762513Y-109745169D01*
D10*
X92900000Y-291800000D02*
X79200000Y-286000000D01*
X99900000Y-192100000D02*
X139800000Y-195100000D01*
X235700000Y-347900000D02*
X192600000Y-348000000D01*
D11*
X325756958Y-135850725D02*
X325865235Y-136362031D01*
X325971317Y-136871769D01*
X326075225Y-137379926D01*
X326176976Y-137886489D01*
X326276588Y-138391446D01*
X326374082Y-138894785D01*
X326469475Y-139396493D01*
X326562786Y-139896558D01*
X326654034Y-140394967D01*
X326743238Y-140891708D01*
X326830416Y-141386769D01*
X326915587Y-141880137D01*
X326998770Y-142371800D01*
X327079983Y-142861745D01*
X327159246Y-143349961D01*
X327236577Y-143836434D01*
X327311995Y-144321153D01*
X327385518Y-144804104D01*
X327457165Y-145285276D01*
X327526955Y-145764657D01*
X327594907Y-146242233D01*
X327661039Y-146717992D01*
X327725370Y-147191922D01*
X327787919Y-147664011D01*
X327848705Y-148134247D01*
X327907746Y-148602616D01*
X327965061Y-149069106D01*
X328020669Y-149533706D01*
X328074588Y-149996402D01*
X328126837Y-150457182D01*
X328177436Y-150916035D01*
X328226402Y-151372947D01*
D10*
X64900000Y-185200000D02*
X99900000Y-192100000D01*
M02*
