  0
SECTION
  2
HEADER
  9
$ACADVER
  1
AC1032
  9
$ACADMAINTVER
 90
      197
  9
$DWGCODEPAGE
  3
ANSI_1252
  9
$REQUIREDVERSIONS
160
                 0
  9
$INSBASE
 10
0.0
 20
0.0
 30
0.0
  9
$EXTMIN
 10
1.000000000000000E+20
 20
1.000000000000000E+20
 30
1.000000000000000E+20
  9
$EXTMAX
 10
-1.000000000000000E+20
 20
-1.000000000000000E+20
 30
-1.000000000000000E+20
  9
$LIMMIN
 10
0.0
 20
0.0
  9
$LIMMAX
 10
12.0
 20
9.0
  9
$ORTHOMODE
 70
     0
  9
$REGENMODE
 70
     1
  9
$FILLMODE
 70
     1
  9
$QTEXTMODE
 70
     0
  9
$MIRRTEXT
 70
     0
  9
$LTSCALE
 40
1.0
  9
$ATTMODE
 70
     1
  9
$TEXTSIZE
 40
0.2
  9
$TRACEWID
 40
0.05
  9
$TEXTSTYLE
  7
Standard
  9
$CLAYER
  8
0
  9
$CELTYPE
  6
ByLayer
  9
$CECOLOR
 62
   256
  9
$CELTSCALE
 40
1.0
  9
$DISPSILH
 70
     0
  9
$DIMSCALE
 40
1.0
  9
$DIMASZ
 40
0.18
  9
$DIMEXO
 40
0.0625
  9
$DIMDLI
 40
0.38
  9
$DIMRND
 40
0.0
  9
$DIMDLE
 40
0.0
  9
$DIMEXE
 40
0.18
  9
$DIMTP
 40
0.0
  9
$DIMTM
 40
0.0
  9
$DIMTXT
 40
0.18
  9
$DIMCEN
 40
0.09
  9
$DIMTSZ
 40
0.0
  9
$DIMTOL
 70
     0
  9
$DIMLIM
 70
     0
  9
$DIMTIH
 70
     1
  9
$DIMTOH
 70
     1
  9
$DIMSE1
 70
     0
  9
$DIMSE2
 70
     0
  9
$DIMTAD
 70
     0
  9
$DIMZIN
 70
     0
  9
$DIMBLK
  1

  9
$DIMASO
 70
     1
  9
$DIMSHO
 70
     1
  9
$DIMPOST
  1

  9
$DIMAPOST
  1

  9
$DIMALT
 70
     0
  9
$DIMALTD
 70
     2
  9
$DIMALTF
 40
25.4
  9
$DIMLFAC
 40
1.0
  9
$DIMTOFL
 70
     0
  9
$DIMTVP
 40
0.0
  9
$DIMTIX
 70
     0
  9
$DIMSOXD
 70
     0
  9
$DIMSAH
 70
     0
  9
$DIMBLK1
  1

  9
$DIMBLK2
  1

  9
$DIMSTYLE
  2
Standard
  9
$DIMCLRD
 70
     0
  9
$DIMCLRE
 70
     0
  9
$DIMCLRT
 70
     0
  9
$DIMTFAC
 40
1.0
  9
$DIMGAP
 40
0.09
  9
$DIMJUST
 70
     0
  9
$DIMSD1
 70
     0
  9
$DIMSD2
 70
     0
  9
$DIMTOLJ
 70
     1
  9
$DIMTZIN
 70
     0
  9
$DIMALTZ
 70
     0
  9
$DIMALTTZ
 70
     0
  9
$DIMUPT
 70
     0
  9
$DIMDEC
 70
     4
  9
$DIMTDEC
 70
     4
  9
$DIMALTU
 70
     2
  9
$DIMALTTD
 70
     2
  9
$DIMTXSTY
  7
Standard
  9
$DIMAUNIT
 70
     0
  9
$DIMADEC
 70
     0
  9
$DIMALTRND
 40
0.0
  9
$DIMAZIN
 70
     0
  9
$DIMDSEP
 70
    46
  9
$DIMATFIT
 70
     3
  9
$DIMFRAC
 70
     0
  9
$DIMLDRBLK
  1

  9
$DIMLUNIT
 70
     2
  9
$DIMLWD
 70
    -2
  9
$DIMLWE
 70
    -2
  9
$DIMTMOVE
 70
     0
  9
$DIMFXL
 40
1.0
  9
$DIMFXLON
 70
     0
  9
$DIMJOGANG
 40
0.7853981633974483
  9
$DIMTFILL
 70
     0
  9
$DIMTFILLCLR
 70
     0
  9
$DIMARCSYM
 70
     0
  9
$DIMLTYPE
  6

  9
$DIMLTEX1
  6

  9
$DIMLTEX2
  6

  9
$DIMTXTDIRECTION
 70
     0
  9
$LUNITS
 70
     2
  9
$LUPREC
 70
     4
  9
$SKETCHINC
 40
0.1
  9
$FILLETRAD
 40
0.0
  9
$AUNITS
 70
     0
  9
$AUPREC
 70
     0
  9
$MENU
  1
.
  9
$ELEVATION
 40
0.0
  9
$PELEVATION
 40
0.0
  9
$THICKNESS
 40
0.0
  9
$LIMCHECK
 70
     0
  9
$CHAMFERA
 40
0.0
  9
$CHAMFERB
 40
0.0
  9
$CHAMFERC
 40
0.0
  9
$CHAMFERD
 40
0.0
  9
$SKPOLY
 70
     0
  9
$TDCREATE
 40
2459641.676284722
  9
$TDUCREATE
 40
2459642.009618056
  9
$TDUPDATE
 40
2459641.676284722
  9
$TDUUPDATE
 40
2459642.009618056
  9
$TDINDWG
 40
0.0000115741
  9
$TDUSRTIMER
 40
0.0000115741
  9
$USRTIMER
 70
     1
  9
$ANGBASE
 50
0.0
  9
$ANGDIR
 70
     0
  9
$PDMODE
 70
     0
  9
$PDSIZE
 40
0.0
  9
$PLINEWID
 40
0.0
  9
$SPLFRAME
 70
     0
  9
$SPLINETYPE
 70
     6
  9
$SPLINESEGS
 70
     8
  9
$HANDSEED
  5
95
  9
$SURFTAB1
 70
     6
  9
$SURFTAB2
 70
     6
  9
$SURFTYPE
 70
     6
  9
$SURFU
 70
     6
  9
$SURFV
 70
     6
  9
$UCSBASE
  2

  9
$UCSNAME
  2

  9
$UCSORG
 10
0.0
 20
0.0
 30
0.0
  9
$UCSXDIR
 10
1.0
 20
0.0
 30
0.0
  9
$UCSYDIR
 10
0.0
 20
1.0
 30
0.0
  9
$UCSORTHOREF
  2

  9
$UCSORTHOVIEW
 70
     0
  9
$UCSORGTOP
 10
0.0
 20
0.0
 30
0.0
  9
$UCSORGBOTTOM
 10
0.0
 20
0.0
 30
0.0
  9
$UCSORGLEFT
 10
0.0
 20
0.0
 30
0.0
  9
$UCSORGRIGHT
 10
0.0
 20
0.0
 30
0.0
  9
$UCSORGFRONT
 10
0.0
 20
0.0
 30
0.0
  9
$UCSORGBACK
 10
0.0
 20
0.0
 30
0.0
  9
$PUCSBASE
  2

  9
$PUCSNAME
  2

  9
$PUCSORG
 10
0.0
 20
0.0
 30
0.0
  9
$PUCSXDIR
 10
1.0
 20
0.0
 30
0.0
  9
$PUCSYDIR
 10
0.0
 20
1.0
 30
0.0
  9
$PUCSORTHOREF
  2

  9
$PUCSORTHOVIEW
 70
     0
  9
$PUCSORGTOP
 10
0.0
 20
0.0
 30
0.0
  9
$PUCSORGBOTTOM
 10
0.0
 20
0.0
 30
0.0
  9
$PUCSORGLEFT
 10
0.0
 20
0.0
 30
0.0
  9
$PUCSORGRIGHT
 10
0.0
 20
0.0
 30
0.0
  9
$PUCSORGFRONT
 10
0.0
 20
0.0
 30
0.0
  9
$PUCSORGBACK
 10
0.0
 20
0.0
 30
0.0
  9
$USERI1
 70
     0
  9
$USERI2
 70
     0
  9
$USERI3
 70
     0
  9
$USERI4
 70
     0
  9
$USERI5
 70
     0
  9
$USERR1
 40
0.0
  9
$USERR2
 40
0.0
  9
$USERR3
 40
0.0
  9
$USERR4
 40
0.0
  9
$USERR5
 40
0.0
  9
$WORLDVIEW
 70
     1
  9
$SHADEDGE
 70
     3
  9
$SHADEDIF
 70
    70
  9
$TILEMODE
 70
     1
  9
$MAXACTVP
 70
    64
  9
$PINSBASE
 10
0.0
 20
0.0
 30
0.0
  9
$PLIMCHECK
 70
     0
  9
$PEXTMIN
 10
1.000000000000000E+20
 20
1.000000000000000E+20
 30
1.000000000000000E+20
  9
$PEXTMAX
 10
-1.000000000000000E+20
 20
-1.000000000000000E+20
 30
-1.000000000000000E+20
  9
$PLIMMIN
 10
0.0
 20
0.0
  9
$PLIMMAX
 10
12.0
 20
9.0
  9
$UNITMODE
 70
     0
  9
$VISRETAIN
 70
     1
  9
$PLINEGEN
 70
     0
  9
$PSLTSCALE
 70
     1
  9
$TREEDEPTH
 70
  3020
  9
$CMLSTYLE
  2
Standard
  9
$CMLJUST
 70
     0
  9
$CMLSCALE
 40
1.0
  9
$PROXYGRAPHICS
 70
     1
  9
$MEASUREMENT
 70
     0
  9
$CELWEIGHT
370
    -1
  9
$ENDCAPS
280
     0
  9
$JOINSTYLE
280
     0
  9
$LWDISPLAY
290
     1
  9
$INSUNITS
 70
     1
  9
$HYPERLINKBASE
  1

  9
$STYLESHEET
  1

  9
$XEDIT
290
     1
  9
$CEPSNTYPE
380
     0
  9
$PSTYLEMODE
290
     1
  9
$FINGERPRINTGUID
  2
{A60AF503-BC8B-7D43-BB3C-1F53E7FCA876}
  9
$VERSIONGUID
  2
{E148ED8E-0BD0-504A-B81A-92F7C837ECFA}
  9
$EXTNAMES
290
     1
  9
$PSVPSCALE
 40
0.0
  9
$OLESTARTUP
290
     0
  9
$SORTENTS
280
   127
  9
$INDEXCTL
280
     0
  9
$HIDETEXT
280
     1
  9
$XCLIPFRAME
280
     2
  9
$HALOGAP
280
     0
  9
$OBSCOLOR
 70
   257
  9
$OBSLTYPE
280
     0
  9
$INTERSECTIONDISPLAY
280
     0
  9
$INTERSECTIONCOLOR
 70
   257
  9
$DIMASSOC
280
     2
  9
$PROJECTNAME
  1

  9
$CAMERADISPLAY
290
     0
  9
$LENSLENGTH
 40
50.0
  9
$CAMERAHEIGHT
 40
0.0
  9
$STEPSPERSEC
 40
2.0
  9
$STEPSIZE
 40
6.0
  9
$3DDWFPREC
 40
2.0
  9
$PSOLWIDTH
 40
0.25
  9
$PSOLHEIGHT
 40
4.0
  9
$LOFTANG1
 40
1.570796326794896
  9
$LOFTANG2
 40
1.570796326794896
  9
$LOFTMAG1
 40
0.0
  9
$LOFTMAG2
 40
0.0
  9
$LOFTPARAM
 70
     7
  9
$LOFTNORMALS
280
     1
  9
$LATITUDE
 40
37.795
  9
$LONGITUDE
 40
-122.394
  9
$NORTHDIRECTION
 40
0.0
  9
$TIMEZONE
 70
 -8000
  9
$LIGHTGLYPHDISPLAY
280
     1
  9
$TILEMODELIGHTSYNCH
280
     1
  9
$CMATERIAL
347
11
  9
$SOLIDHIST
280
     0
  9
$SHOWHIST
280
     1
  9
$DWFFRAME
280
     2
  9
$DGNFRAME
280
     0
  9
$REALWORLDSCALE
290
     1
  9
$INTERFERECOLOR
 62
     1
  9
$INTERFEREOBJVS
345
33
  9
$INTERFEREVPVS
346
30
  9
$CSHADOW
280
     0
  9
$SHADOWPLANELOCATION
 40
0.0
  0
ENDSEC
  0
SECTION
  2
CLASSES
  0
CLASS
  1
ACDBDICTIONARYWDFLT
  2
AcDbDictionaryWithDefault
  3
ObjectDBX Classes
 90
        0
 91
        1
280
     0
281
     0
  0
CLASS
  1
MATERIAL
  2
AcDbMaterial
  3
ObjectDBX Classes
 90
     1153
 91
        3
280
     0
281
     0
  0
CLASS
  1
VISUALSTYLE
  2
AcDbVisualStyle
  3
ObjectDBX Classes
 90
     4095
 91
       24
280
     0
281
     0
  0
CLASS
  1
SCALE
  2
AcDbScale
  3
ObjectDBX Classes
 90
     1153
 91
       17
280
     0
281
     0
  0
CLASS
  1
TABLESTYLE
  2
AcDbTableStyle
  3
ObjectDBX Classes
 90
     4095
 91
        1
280
     0
281
     0
  0
CLASS
  1
MLEADERSTYLE
  2
AcDbMLeaderStyle
  3
ACDB_MLEADERSTYLE_CLASS
 90
     4095
 91
        1
280
     0
281
     0
  0
CLASS
  1
ACDBSECTIONVIEWSTYLE
  2
AcDbSectionViewStyle
  3
ObjectDBX Classes
 90
     1025
 91
        1
280
     0
281
     0
  0
CLASS
  1
ACDBDETAILVIEWSTYLE
  2
AcDbDetailViewStyle
  3
ObjectDBX Classes
 90
     1025
 91
        1
280
     0
281
     0
  0
CLASS
  1
IMAGEDEF
  2
AcDbRasterImageDef
  3
ISM
 90
        0
 91
        1
280
     0
281
     0
  0
CLASS
  1
IMAGE
  2
AcDbRasterImage
  3
ISM
 90
     2175
 91
        1
280
     0
281
     1
  0
CLASS
  1
DICTIONARYVAR
  2
AcDbDictionaryVar
  3
ObjectDBX Classes
 90
        0
 91
        5
280
     0
281
     0
  0
CLASS
  1
CELLSTYLEMAP
  2
AcDbCellStyleMap
  3
ObjectDBX Classes
 90
     1152
 91
        1
280
     0
281
     0
  0
ENDSEC
  0
SECTION
  2
TABLES
  0
TABLE
  2
VPORT
  5
8
330
0
100
AcDbSymbolTable
 70
     1
  0
VPORT
  5
57
330
8
100
AcDbSymbolTableRecord
100
AcDbViewportTableRecord
  2
*Active
 70
     0
 10
0.0
 20
0.0
 11
1.0
 21
1.0
 12
0.0
 22
0.0
 13
0.0
 23
0.0
 14
1.0
 24
1.0
 15
0.0
 25
0.0
 16
0.0
 26
0.0
 36
1.0
 17
13.33333333333333
 27
-7.263888888888889
 37
0.0
 40
15.78166666666666
 41
1.723518850987432
 42
50.0
 43
0.0
 44
0.0
 50
0.0
 51
0.0
 71
     0
 72
   100
 73
     1
 74
     1
 75
     0
 76
     0
 77
     0
 78
     0
281
     0
 65
     1
110
0.0
120
0.0
130
0.0
111
1.0
121
0.0
131
0.0
112
0.0
122
1.0
132
0.0
 79
     0
146
0.0
 60
     3
 61
     5
292
     1
282
     1
141
0.0
142
0.0
 63
   250
421
  3355443
  0
ENDTAB
  0
TABLE
  2
LTYPE
  5
5
330
0
100
AcDbSymbolTable
 70
     1
  0
LTYPE
  5
5B
330
5
100
AcDbSymbolTableRecord
100
AcDbLinetypeTableRecord
  2
ByBlock
 70
     0
  3

 72
    65
 73
     0
 40
0.0
  0
LTYPE
  5
5C
330
5
100
AcDbSymbolTableRecord
100
AcDbLinetypeTableRecord
  2
ByLayer
 70
     0
  3

 72
    65
 73
     0
 40
0.0
  0
LTYPE
  5
5D
330
5
100
AcDbSymbolTableRecord
100
AcDbLinetypeTableRecord
  2
Continuous
 70
     0
  3
Solid line
 72
    65
 73
     0
 40
0.0
  0
ENDTAB
  0
TABLE
  2
LAYER
  5
2
330
0
100
AcDbSymbolTable
 70
     2
  0
LAYER
  5
54
330
2
100
AcDbSymbolTableRecord
100
AcDbLayerTableRecord
  2
0
 70
     0
 62
     7
  6
Continuous
370
    -3
390
F
347
21
348
0
  0
LAYER
  5
78
330
2
100
AcDbSymbolTableRecord
100
AcDbLayerTableRecord
  2
Base
 70
     0
 62
     7
  6
Continuous
370
     0
390
F
347
21
348
0
  0
ENDTAB
  0
TABLE
  2
STYLE
  5
3
330
0
100
AcDbSymbolTable
 70
     2
  0
STYLE
  5
55
330
3
100
AcDbSymbolTableRecord
100
AcDbTextStyleTableRecord
  2
Standard
 70
     0
 40
0.0
 41
1.0
 50
0.0
 71
     0
 42
0.2
  3
txt
  4

  0
STYLE
  5
5A
330
3
100
AcDbSymbolTableRecord
100
AcDbTextStyleTableRecord
  2
Annotative
 70
     0
 40
0.0
 41
1.0
 50
0.0
 71
     0
 42
0.2
  3
txt
  4

1001
AcadAnnotative
1000
AnnotativeData
1002
{
1070
     1
1070
     1
1002
}
  0
ENDTAB
  0
TABLE
  2
VIEW
  5
6
330
0
100
AcDbSymbolTable
 70
     0
  0
ENDTAB
  0
TABLE
  2
UCS
  5
7
330
0
100
AcDbSymbolTable
 70
     0
  0
ENDTAB
  0
TABLE
  2
APPID
  5
9
330
0
100
AcDbSymbolTable
 70
     2
  0
APPID
  5
56
330
9
100
AcDbSymbolTableRecord
100
AcDbRegAppTableRecord
  2
ACAD
 70
     0
  0
APPID
  5
5E
330
9
100
AcDbSymbolTableRecord
100
AcDbRegAppTableRecord
  2
AcadAnnotative
 70
     0
  0
ENDTAB
  0
TABLE
  2
DIMSTYLE
  5
A
330
0
100
AcDbSymbolTable
 70
     2
100
AcDbDimStyleTable
 71
     0
  0
DIMSTYLE
105
58
330
A
100
AcDbSymbolTableRecord
100
AcDbDimStyleTableRecord
  2
Standard
 70
     0
340
55
  0
DIMSTYLE
105
59
330
A
100
AcDbSymbolTableRecord
100
AcDbDimStyleTableRecord
  2
Annotative
 70
     0
340
55
1001
AcadAnnotative
1000
AnnotativeData
1002
{
1070
     1
1070
     1
1002
}
  0
ENDTAB
  0
TABLE
  2
BLOCK_RECORD
  5
1
330
0
100
AcDbSymbolTable
 70
     1
  0
BLOCK_RECORD
  5
70
330
1
100
AcDbSymbolTableRecord
100
AcDbBlockTableRecord
  2
*Model_Space
340
73
 70
     0
280
     1
281
     0
  0
BLOCK_RECORD
  5
6C
330
1
100
AcDbSymbolTableRecord
100
AcDbBlockTableRecord
  2
*Paper_Space
340
6F
 70
     0
280
     1
281
     0
  0
BLOCK_RECORD
  5
74
330
1
100
AcDbSymbolTableRecord
100
AcDbBlockTableRecord
  2
*Paper_Space0
340
77
 70
     0
280
     1
281
     0
  0
ENDTAB
  0
ENDSEC
  0
SECTION
  2
BLOCKS
  0
BLOCK
  5
71
330
70
100
AcDbEntity
  8
0
100
AcDbBlockBegin
  2
*Model_Space
 70
     0
 10
0.0
 20
0.0
 30
0.0
  3
*Model_Space
  1

  0
ENDBLK
  5
72
330
70
100
AcDbEntity
  8
0
100
AcDbBlockEnd
  0
BLOCK
  5
6D
330
6C
100
AcDbEntity
 67
     1
  8
0
100
AcDbBlockBegin
  2
*Paper_Space
 70
     0
 10
0.0
 20
0.0
 30
0.0
  3
*Paper_Space
  1

  0
ENDBLK
  5
6E
330
6C
100
AcDbEntity
 67
     1
  8
0
100
AcDbBlockEnd
  0
BLOCK
  5
75
330
74
100
AcDbEntity
 67
     1
  8
0
100
AcDbBlockBegin
  2
*Paper_Space0
 70
     0
 10
0.0
 20
0.0
 30
0.0
  3
*Paper_Space0
  1

  0
ENDBLK
  5
76
330
74
100
AcDbEntity
 67
     1
  8
0
100
AcDbBlockEnd
  0
ENDSEC
  0
SECTION
  2
ENTITIES
  0
IMAGE
  5
7B
330
70
100
AcDbEntity
  8
Base
160
               140
310
8C00000001000000840000000600000005000000E3388EE3388E1740B3AAAAAAAA2A2DC00000000000000000E3388EE3388E1740A0E3388EE338DE3F0000000000000000DFB66DDBB6363340A0E3388EE338DE3F0000000000000000DFB66DDBB6363340B3AAAAAAAA2A2DC00000000000000000E3388EE3388E1740B3AAAA
310
AAAA2A2DC00000000000000000
100
AcDbRasterImage
 90
        0
 10
5.888888888888888
 20
-14.58333333333334
 30
0.0
 11
0.0168030753968254
 21
0.0
 31
0.0
 12
0.0
 22
0.0168030753968254
 32
0.0
 13
793.0
 23
896.0
340
7A
 70
     3
280
     0
281
    50
282
    50
283
     0
290
     0
360
0
 71
     1
 91
        2
 14
-0.5
 24
-0.5
 14
792.4999999999999
 24
895.5
  0
SPLINE
  5
7C
330
70
100
AcDbEntity
  8
Base
 62
    18
420
        0
370
    35
100
AcDbSpline
210
0.0
220
0.0
230
1.0
 70
     9
 71
     3
 72
    80
 73
    76
 74
     0
 42
0.0000000001
 43
0.0000000001
 40
0.0
 40
0.0
 40
0.0
 40
0.0
 40
1.0
 40
1.0
 40
1.0
 40
2.0
 40
2.0
 40
2.0
 40
3.0
 40
3.0
 40
3.0
 40
4.0
 40
4.0
 40
4.0
 40
5.0
 40
5.0
 40
5.0
 40
6.0
 40
6.0
 40
6.0
 40
7.0
 40
7.0
 40
7.0
 40
8.0
 40
8.0
 40
8.0
 40
9.0
 40
9.0
 40
9.0
 40
10.0
 40
10.0
 40
10.0
 40
11.0
 40
11.0
 40
11.0
 40
12.0
 40
12.0
 40
12.0
 40
13.0
 40
13.0
 40
13.0
 40
14.0
 40
14.0
 40
14.0
 40
15.0
 40
15.0
 40
15.0
 40
16.0
 40
16.0
 40
16.0
 40
17.0
 40
17.0
 40
17.0
 40
18.0
 40
18.0
 40
18.0
 40
19.0
 40
19.0
 40
19.0
 40
20.0
 40
20.0
 40
20.0
 40
21.0
 40
21.0
 40
21.0
 40
22.0
 40
22.0
 40
22.0
 40
23.0
 40
23.0
 40
23.0
 40
24.0
 40
24.0
 40
24.0
 40
25.0
 40
25.0
 40
25.0
 40
25.0
 10
10.50694444444444
 20
-0.4097222222222223
 30
0.0
 10
10.49722968207465
 20
-0.3847751087612576
 30
0.0
 10
10.37598588731554
 20
-0.410264359580146
 30
0.0
 10
10.3125
 20
-0.4236111111111111
 30
0.0
 10
10.13602617051866
 20
-0.4607114791870118
 30
0.0
 10
9.999110751681856
 20
-0.5184791353013781
 30
0.0
 10
9.909722222222221
 20
-0.5625
 30
0.0
 10
10.30983818901909
 20
-0.3472008970048692
 30
0.0
 10
10.80215793185764
 20
-0.1226070059670342
 30
0.0
 10
11.38194444444444
 20
0.0625
 30
0.0
 10
11.78796301947699
 20
0.1921287377675374
 30
0.0
 10
12.16713036431206
 20
0.280125273598565
 30
0.0
 10
12.50694444444444
 20
0.3402777777777777
 30
0.0
 10
12.50694444444444
 20
0.1782407363255818
 30
0.0
 10
12.50694444444444
 20
0.0162037031518089
 30
0.0
 10
12.50694444444444
 20
-0.1458333333333333
 30
0.0
 10
12.13640764024522
 20
-0.1384729941685994
 30
0.0
 10
11.84456973605685
 20
-0.1846891111797757
 30
0.0
 10
11.64583333333333
 20
-0.2291666666666666
 30
0.0
 10
11.53015391031901
 20
-0.2550559308793809
 30
0.0
 10
11.43692525227864
 20
-0.2823911243014865
 30
0.0
 10
11.38194444444444
 20
-0.2986111111111111
 30
0.0
 10
11.17539554172092
 20
-0.3595452573564317
 30
0.0
 10
10.9713380601671
 20
-0.4209744930267334
 30
0.0
 10
10.74305555555555
 20
-0.5486111111111111
 30
0.0
 10
10.67140452067057
 20
-0.5886722140842014
 30
0.0
 10
10.56827206081814
 20
-0.6515233781602648
 30
0.0
 10
10.45138888888889
 20
-0.7430555555555555
 30
0.0
 10
10.40060000949435
 20
-0.7635074721442329
 30
0.0
 10
10.33402591281467
 20
-0.7913279533386231
 30
0.0
 10
10.25694444444444
 20
-0.8263888888888889
 30
0.0
 10
10.13082461886935
 20
-0.883755260043674
 30
0.0
 10
9.956127590603298
 20
-0.9698062472873264
 30
0.0
 10
9.756944444444444
 20
-1.090277777777777
 30
0.0
 10
9.61794704861111
 20
-1.17434713575575
 30
0.0
 10
9.452913072374132
 20
-1.275060441758897
 30
0.0
 10
9.256944444444444
 20
-1.4375
 30
0.0
 10
9.048032124837238
 20
-1.61066903008355
 30
0.0
 10
8.911652459038627
 20
-1.764724201626247
 30
0.0
 10
8.881944444444444
 20
-1.79861111111111
 30
0.0
 10
8.791588677300346
 20
-1.90167744954427
 30
0.0
 10
8.60225847032335
 20
-2.120595932006835
 30
0.0
 10
8.451388888888889
 20
-2.4375
 30
0.0
 10
8.405214097764757
 20
-2.534490161471896
 30
0.0
 10
8.359858194986978
 20
-2.646507051255967
 30
0.0
 10
8.326388888888889
 20
-2.729166666666666
 30
0.0
 10
8.299408806694877
 20
-2.795800526936848
 30
0.0
 10
8.261738247341579
 20
-2.894866095648871
 30
0.0
 10
8.1875
 20
-3.090277777777777
 30
0.0
 10
8.135381910536024
 20
-3.22746467590332
 30
0.0
 10
8.10921902126736
 20
-3.296386930677625
 30
0.0
 10
8.104166666666666
 20
-3.3125
 30
0.0
 10
8.073538038465711
 20
-3.410180197821722
 30
0.0
 10
8.039639790852863
 20
-3.554302639431423
 30
0.0
 10
8.034722222222221
 20
-3.743055555555555
 30
0.0
 10
7.988426208496093
 20
-3.743055555555555
 30
0.0
 10
7.942129347059461
 20
-3.743055555555555
 30
0.0
 10
7.895833333333333
 20
-3.743055555555555
 30
0.0
 10
7.924924214680989
 20
-3.591784159342447
 30
0.0
 10
7.971731397840711
 20
-3.385321299235025
 30
0.0
 10
8.04861111111111
 20
-3.145833333333333
 30
0.0
 10
8.115404764811197
 20
-2.937764061821831
 30
0.0
 10
8.212139553493923
 20
-2.641982184516058
 30
0.0
 10
8.409722222222221
 20
-2.298611111111111
 30
0.0
 10
8.643862406412759
 20
-1.891709009806314
 30
0.0
 10
8.896487765842012
 20
-1.631967650519476
 30
0.0
 10
8.951388888888887
 20
-1.576388888888888
 30
0.0
 10
9.283937242296007
 20
-1.239738040500216
 30
0.0
 10
9.637691921657985
 20
-1.028369055853949
 30
0.0
 10
9.92361111111111
 20
-0.8958333333333332
 30
0.0
 10
9.964824252658418
 20
-0.84795962439643
 30
0.0
 10
10.02984703911675
 20
-0.7773514323764377
 30
0.0
 10
10.11805555555555
 20
-0.7013888888888889
 30
0.0
 10
10.33209737141927
 20
-0.5170634587605793
 30
0.0
 10
10.51942952473958
 20
-0.4417834017011855
 30
0.0
 10
10.50694444444444
 20
-0.4097222222222223
 30
0.0
  0
SPLINE
  5
7D
330
70
100
AcDbEntity
  8
Base
 62
    18
420
        0
370
    35
100
AcDbSpline
210
0.0
220
0.0
230
1.0
 70
     9
 71
     3
 72
    71
 73
    67
 74
     0
 42
0.0000000001
 43
0.0000000001
 40
0.0
 40
0.0
 40
0.0
 40
0.0
 40
1.0
 40
1.0
 40
1.0
 40
2.0
 40
2.0
 40
2.0
 40
3.0
 40
3.0
 40
3.0
 40
4.0
 40
4.0
 40
4.0
 40
5.0
 40
5.0
 40
5.0
 40
6.0
 40
6.0
 40
6.0
 40
7.0
 40
7.0
 40
7.0
 40
8.0
 40
8.0
 40
8.0
 40
9.0
 40
9.0
 40
9.0
 40
10.0
 40
10.0
 40
10.0
 40
11.0
 40
11.0
 40
11.0
 40
12.0
 40
12.0
 40
12.0
 40
13.0
 40
13.0
 40
13.0
 40
14.0
 40
14.0
 40
14.0
 40
15.0
 40
15.0
 40
15.0
 40
16.0
 40
16.0
 40
16.0
 40
17.0
 40
17.0
 40
17.0
 40
18.0
 40
18.0
 40
18.0
 40
19.0
 40
19.0
 40
19.0
 40
20.0
 40
20.0
 40
20.0
 40
21.0
 40
21.0
 40
21.0
 40
22.0
 40
22.0
 40
22.0
 40
22.0
 10
10.45138888888889
 20
-3.8125
 30
0.0
 10
10.32526736789279
 20
-3.813836415608723
 30
0.0
 10
10.1798595852322
 20
-3.824783749050563
 30
0.0
 10
10.02083333333333
 20
-3.854166666666666
 30
0.0
 10
9.935826619466144
 20
-3.869873470730251
 30
0.0
 10
9.85698021782769
 20
-3.888990190294053
 30
0.0
 10
9.784722222222221
 20
-3.909722222222221
 30
0.0
 10
9.575158013237846
 20
-3.911345163981119
 30
0.0
 10
9.422550625271266
 20
-3.918098873562282
 30
0.0
 10
9.326388888888887
 20
-3.92361111111111
 30
0.0
 10
9.290054321289062
 20
-3.925693935818141
 30
0.0
 10
9.245586819118923
 20
-3.928527408175998
 30
0.0
 10
9.1875
 20
-3.9375
 30
0.0
 10
9.147359212239582
 20
-3.943700578477647
 30
0.0
 10
9.059874640570745
 20
-3.959141201443141
 30
0.0
 10
8.92361111111111
 20
-4.006944444444444
 30
0.0
 10
8.793299357096353
 20
-4.052659352620442
 30
0.0
 10
8.683672587076822
 20
-4.091117858886718
 30
0.0
 10
8.5625
 20
-4.17361111111111
 30
0.0
 10
8.483348422580295
 20
-4.227496253119574
 30
0.0
 10
8.475120544433593
 20
-4.248532613118489
 30
0.0
 10
8.354166666666666
 20
-4.354166666666666
 30
0.0
 10
8.201203240288627
 20
-4.487755245632595
 30
0.0
 10
8.086082458496093
 20
-4.566143459743923
 30
0.0
 10
8.034722222222221
 20
-4.604166666666666
 30
0.0
 10
7.897377861870658
 20
-4.705846150716145
 30
0.0
 10
7.653777228461371
 20
-4.935092078314887
 30
0.0
 10
7.1875
 20
-5.493055555555555
 30
0.0
 10
7.160629272460937
 20
-5.516078948974609
 30
0.0
 10
7.13285658094618
 20
-5.539250267876519
 30
0.0
 10
7.104166666666666
 20
-5.5625
 30
0.0
 10
7.061886681450737
 20
-5.596763186984591
 30
0.0
 10
7.020152197943793
 20
-5.629139794243706
 30
0.0
 10
6.979166666666666
 20
-5.659722222222222
 30
0.0
 10
6.946759117974174
 20
-5.641203562418619
 30
0.0
 10
6.914351993136935
 20
-5.622685326470269
 30
0.0
 10
6.881944444444443
 20
-5.604166666666666
 30
0.0
 10
6.922257741292317
 20
-5.562798394097222
 30
0.0
 10
6.980868445502387
 20
-5.501072777642144
 30
0.0
 10
7.04861111111111
 20
-5.42361111111111
 30
0.0
 10
7.257503085666232
 20
-5.184749179416232
 30
0.0
 10
7.267808702256943
 20
-5.122624291314019
 30
0.0
 10
7.42361111111111
 20
-4.9375
 30
0.0
 10
7.566643608940971
 20
-4.767548878987629
 30
0.0
 10
7.58911641438802
 20
-4.782884809705945
 30
0.0
 10
7.909722222222221
 20
-4.451388888888888
 30
0.0
 10
8.004875183105468
 20
-4.353003607855902
 30
0.0
 10
8.081409030490451
 20
-4.270472632514105
 30
0.0
 10
8.131944444444444
 20
-4.215277777777777
 30
0.0
 10
8.174281650119358
 20
-4.172562917073567
 30
0.0
 10
8.234231736924913
 20
-4.11774910820855
 30
0.0
 10
8.3125
 20
-4.0625
 30
0.0
 10
8.361757914225259
 20
-4.027729034423828
 30
0.0
 10
8.449924045138889
 20
-3.966245015462239
 30
0.0
 10
8.5625
 20
-3.92361111111111
 30
0.0
 10
8.632326761881509
 20
-3.897166781955295
 30
0.0
 10
8.699159410264757
 20
-3.882665422227647
 30
0.0
 10
8.965277777777776
 20
-3.868055555555555
 30
0.0
 10
9.071679009331596
 20
-3.862214406331379
 30
0.0
 10
9.208212958441839
 20
-3.85645039876302
 30
0.0
 10
9.368055555555555
 20
-3.854166666666666
 30
0.0
 10
9.400462680392793
 20
-3.844907548692491
 30
0.0
 10
9.432870652940538
 20
-3.835648006863063
 30
0.0
 10
9.465277777777776
 20
-3.826388888888888
 30
0.0
 10
9.793981764051649
 20
-3.821759117974174
 30
0.0
 10
10.12268490261502
 20
-3.817129770914713
 30
0.0
 10
10.45138888888889
 20
-3.8125
 30
0.0
  0
SPLINE
  5
7E
330
70
100
AcDbEntity
  8
Base
 62
    18
420
        0
370
    35
100
AcDbSpline
210
0.0
220
0.0
230
1.0
 70
     9
 71
     3
 72
    20
 73
    16
 74
     0
 42
0.0000000001
 43
0.0000000001
 40
0.0
 40
0.0
 40
0.0
 40
0.0
 40
1.0
 40
1.0
 40
1.0
 40
2.0
 40
2.0
 40
2.0
 40
3.0
 40
3.0
 40
3.0
 40
4.0
 40
4.0
 40
4.0
 40
5.0
 40
5.0
 40
5.0
 40
5.0
 10
7.784722222222221
 20
-3.826388888888888
 30
0.0
 10
7.719907124837239
 20
-3.826388888888888
 30
0.0
 10
7.655092875162759
 20
-3.826388888888888
 30
0.0
 10
7.590277777777777
 20
-3.826388888888888
 30
0.0
 10
7.539351569281683
 20
-3.826388888888888
 30
0.0
 10
7.488426208496093
 20
-3.826388888888888
 30
0.0
 10
7.4375
 20
-3.826388888888888
 30
0.0
 10
7.42361111111111
 20
-3.854166666666666
 30
0.0
 10
7.409722222222221
 20
-3.881944444444444
 30
0.0
 10
7.395833333333333
 20
-3.909722222222221
 30
0.0
 10
7.441685994466145
 20
-3.900912390814887
 30
0.0
 10
7.487987942165798
 20
-3.891660054524739
 30
0.0
 10
7.534722222222221
 20
-3.881944444444444
 30
0.0
 10
7.619962904188367
 20
-3.86422390407986
 30
0.0
 10
7.70330810546875
 20
-3.845654805501301
 30
0.0
 10
7.784722222222221
 20
-3.826388888888888
 30
0.0
  0
SPLINE
  5
7F
330
70
100
AcDbEntity
  8
Base
 62
    18
420
        0
370
    35
100
AcDbSpline
210
0.0
220
0.0
230
1.0
 70
     9
 71
     3
 72
    59
 73
    55
 74
     0
 42
0.0000000001
 43
0.0000000001
 40
0.0
 40
0.0
 40
0.0
 40
0.0
 40
1.0
 40
1.0
 40
1.0
 40
2.0
 40
2.0
 40
2.0
 40
3.0
 40
3.0
 40
3.0
 40
4.0
 40
4.0
 40
4.0
 40
5.0
 40
5.0
 40
5.0
 40
6.0
 40
6.0
 40
6.0
 40
7.0
 40
7.0
 40
7.0
 40
8.0
 40
8.0
 40
8.0
 40
9.0
 40
9.0
 40
9.0
 40
10.0
 40
10.0
 40
10.0
 40
11.0
 40
11.0
 40
11.0
 40
12.0
 40
12.0
 40
12.0
 40
13.0
 40
13.0
 40
13.0
 40
14.0
 40
14.0
 40
14.0
 40
15.0
 40
15.0
 40
15.0
 40
16.0
 40
16.0
 40
16.0
 40
17.0
 40
17.0
 40
17.0
 40
18.0
 40
18.0
 40
18.0
 40
18.0
 10
7.201388888888888
 20
-8.715277777777776
 30
0.0
 10
7.160385131835937
 20
-8.600593566894531
 30
0.0
 10
7.100254906548393
 20
-8.417651706271701
 30
0.0
 10
7.04861111111111
 20
-8.1875
 30
0.0
 10
6.985019259982638
 20
-7.904101053873697
 30
0.0
 10
7.000684526231553
 20
-7.863458421495225
 30
0.0
 10
6.909722222222221
 20
-7.090277777777777
 30
0.0
 10
6.881944444444443
 20
-6.854166666666666
 30
0.0
 10
6.854166666666666
 20
-6.618055555555555
 30
0.0
 10
6.826388888888888
 20
-6.381944444444443
 30
0.0
 10
6.811570485432942
 20
-6.302945454915364
 30
0.0
 10
6.800053490532768
 20
-6.209409077962239
 30
0.0
 10
6.79861111111111
 20
-6.104166666666666
 30
0.0
 10
6.796499888102212
 20
-5.950105879041883
 30
0.0
 10
6.816621144612629
 20
-5.817880418565537
 30
0.0
 10
6.840277777777777
 20
-5.715277777777777
 30
0.0
 10
6.859757741292317
 20
-5.725518544514973
 30
0.0
 10
6.888459523518879
 20
-5.740248362223306
 30
0.0
 10
6.92361111111111
 20
-5.756944444444443
 30
0.0
 10
7.156044006347656
 20
-5.867343054877387
 30
0.0
 10
7.347361246744791
 20
-5.910219404432508
 30
0.0
 10
7.618055555555555
 20
-5.965277777777777
 30
0.0
 10
7.985241360134548
 20
-6.039961920844183
 30
0.0
 10
8.168811374240451
 20
-6.077413347032334
 30
0.0
 10
8.270833333333332
 20
-6.090277777777777
 30
0.0
 10
8.503188239203558
 20
-6.119576348198784
 30
0.0
 10
8.674268934461805
 20
-6.124097612169053
 30
0.0
 10
9.006944444444444
 20
-6.131944444444443
 30
0.0
 10
9.203922695583766
 20
-6.136590745713975
 30
0.0
 10
9.468923780653211
 20
-6.139288160536024
 30
0.0
 10
9.784722222222221
 20
-6.131944444444443
 30
0.0
 10
9.9830813937717
 20
-6.151221805148654
 30
0.0
 10
10.19166904025607
 20
-6.165704515245225
 30
0.0
 10
10.40972222222222
 20
-6.17361111111111
 30
0.0
 10
10.77721235487196
 20
-6.186935848659938
 30
0.0
 10
11.12107510036892
 20
-6.179749806722004
 30
0.0
 10
11.4375
 20
-6.159722222222222
 30
0.0
 10
11.79861111111111
 20
-6.159722222222222
 30
0.0
 10
12.15972222222222
 20
-6.159722222222222
 30
0.0
 10
12.52083333333333
 20
-6.159722222222222
 30
0.0
 10
12.52083333333333
 20
-6.215277777777777
 30
0.0
 10
12.52083333333333
 20
-6.270833333333333
 30
0.0
 10
12.52083333333333
 20
-6.326388888888888
 30
0.0
 10
12.11656782362196
 20
-6.349485609266492
 30
0.0
 10
11.57602861192491
 20
-6.370772891574435
 30
0.0
 10
10.9375
 20
-6.368055555555555
 30
0.0
 10
10.33843739827474
 20
-6.365506066216362
 30
0.0
 10
9.757754007975259
 20
-6.36303499009874
 30
0.0
 10
9.034722222222221
 20
-6.284722222222221
 30
0.0
 10
8.491766187879774
 20
-6.225913577609591
 30
0.0
 10
7.767990112304687
 20
-6.113446129692925
 30
0.0
 10
6.92361111111111
 20
-5.881944444444443
 30
0.0
 10
7.016203562418619
 20
-6.826388888888888
 30
0.0
 10
7.108796437581379
 20
-7.770833333333333
 30
0.0
 10
7.201388888888888
 20
-8.715277777777776
 30
0.0
  0
SPLINE
  5
80
330
70
100
AcDbEntity
  8
Base
 62
    18
420
        0
370
    35
100
AcDbSpline
210
0.0
220
0.0
230
1.0
 70
     9
 71
     3
 72
    47
 73
    43
 74
     0
 42
0.0000000001
 43
0.0000000001
 40
0.0
 40
0.0
 40
0.0
 40
0.0
 40
1.0
 40
1.0
 40
1.0
 40
2.0
 40
2.0
 40
2.0
 40
3.0
 40
3.0
 40
3.0
 40
4.0
 40
4.0
 40
4.0
 40
5.0
 40
5.0
 40
5.0
 40
6.0
 40
6.0
 40
6.0
 40
7.0
 40
7.0
 40
7.0
 40
8.0
 40
8.0
 40
8.0
 40
9.0
 40
9.0
 40
9.0
 40
10.0
 40
10.0
 40
10.0
 40
11.0
 40
11.0
 40
11.0
 40
12.0
 40
12.0
 40
12.0
 40
13.0
 40
13.0
 40
13.0
 40
14.0
 40
14.0
 40
14.0
 40
14.0
 10
7.1875
 20
-8.770833333333332
 30
0.0
 10
7.161732143825954
 20
-8.76139662000868
 30
0.0
 10
7.111000908745658
 20
-8.746956719292533
 30
0.0
 10
7.04861111111111
 20
-8.756944444444444
 30
0.0
 10
7.013080596923828
 20
-8.762632581922742
 30
0.0
 10
6.984840816921657
 20
-8.774470011393228
 30
0.0
 10
6.965277777777777
 20
-8.784722222222221
 30
0.0
 10
7.044403500027126
 20
-8.865816752115884
 30
0.0
 10
7.16038597954644
 20
-8.975731743706596
 30
0.0
 10
7.3125
 20
-9.090277777777776
 30
0.0
 10
7.44602796766493
 20
-9.190828111436632
 30
0.0
 10
7.768794589572482
 20
-9.416485256618923
 30
0.0
 10
8.506944444444444
 20
-9.645833333333332
 30
0.0
 10
9.130853441026475
 20
-9.839686075846353
 30
0.0
 10
9.630721198187933
 20
-9.905430263943141
 30
0.0
 10
9.993055555555555
 20
-9.951388888888887
 30
0.0
 10
10.40166982014974
 20
-10.00321790907118
 30
0.0
 10
10.71009826660156
 20
-10.01827833387586
 30
0.0
 10
11.0625
 20
-10.03472222222222
 30
0.0
 10
11.6490478515625
 20
-10.06209225124783
 30
0.0
 10
12.14641825358073
 20
-10.05907185872396
 30
0.0
 10
12.52083333333333
 20
-10.04861111111111
 30
0.0
 10
12.52083333333333
 20
-10.03009287516276
 30
0.0
 10
12.52083333333333
 20
-10.0115737915039
 30
0.0
 10
12.52083333333333
 20
-9.993055555555555
 30
0.0
 10
11.97010887993706
 20
-10.0009028116862
 30
0.0
 10
11.49549780951605
 20
-9.985735575358072
 30
0.0
 10
11.11805555555555
 20
-9.965277777777776
 30
0.0
 10
10.96245066324869
 20
-9.956843905978731
 30
0.0
 10
10.42591857910156
 20
-9.925968594021266
 30
0.0
 10
9.756944444444444
 20
-9.840277777777776
 30
0.0
 10
9.491893344455293
 20
-9.806326124403211
 30
0.0
 10
9.229238722059461
 20
-9.766740587022569
 30
0.0
 10
8.909722222222221
 20
-9.6875
 30
0.0
 10
8.747394985622829
 20
-9.647242228190103
 30
0.0
 10
8.594635857476127
 20
-9.608851962619356
 30
0.0
 10
8.395833333333332
 20
-9.534722222222221
 30
0.0
 10
8.231734381781683
 20
-9.473532782660589
 30
0.0
 10
7.949444240993923
 20
-9.366191440158418
 30
0.0
 10
7.631944444444443
 20
-9.145833333333332
 30
0.0
 10
7.513238694932725
 20
-9.063446044921875
 30
0.0
 10
7.355381435818141
 20
-8.941504584418401
 30
0.0
 10
7.1875
 20
-8.770833333333332
 30
0.0
  0
SPLINE
  5
81
330
70
100
AcDbEntity
  8
Base
 62
    18
420
        0
370
    35
100
AcDbSpline
210
0.0
220
0.0
230
1.0
 70
     9
 71
     3
 72
    50
 73
    46
 74
     0
 42
0.0000000001
 43
0.0000000001
 40
0.0
 40
0.0
 40
0.0
 40
0.0
 40
1.0
 40
1.0
 40
1.0
 40
2.0
 40
2.0
 40
2.0
 40
3.0
 40
3.0
 40
3.0
 40
4.0
 40
4.0
 40
4.0
 40
5.0
 40
5.0
 40
5.0
 40
6.0
 40
6.0
 40
6.0
 40
7.0
 40
7.0
 40
7.0
 40
8.0
 40
8.0
 40
8.0
 40
9.0
 40
9.0
 40
9.0
 40
10.0
 40
10.0
 40
10.0
 40
11.0
 40
11.0
 40
11.0
 40
12.0
 40
12.0
 40
12.0
 40
13.0
 40
13.0
 40
13.0
 40
14.0
 40
14.0
 40
14.0
 40
15.0
 40
15.0
 40
15.0
 40
15.0
 10
6.715277777777777
 20
-7.895833333333333
 30
0.0
 10
6.705575731065537
 20
-7.960916307237412
 30
0.0
 10
6.70147493150499
 20
-8.041579352484808
 30
0.0
 10
6.715277777777777
 20
-8.131944444444444
 30
0.0
 10
6.719023810492621
 20
-8.156467861599391
 30
0.0
 10
6.72377226087782
 20
-8.1796391805013
 30
0.0
 10
6.729166666666666
 20
-8.201388888888889
 30
0.0
 10
6.74306191338433
 20
-8.224085489908853
 30
0.0
 10
6.756958431667751
 20
-8.24723392062717
 30
0.0
 10
6.770833333333333
 20
-8.270833333333332
 30
0.0
 10
6.790119171142578
 20
-8.303637186686197
 30
0.0
 10
6.808626810709634
 20
-8.336061265733507
 30
0.0
 10
6.826388888888888
 20
-8.368055555555555
 30
0.0
 10
6.830483330620658
 20
-8.4276123046875
 30
0.0
 10
6.835102505154079
 20
-8.487803141276041
 30
0.0
 10
6.840277777777777
 20
-8.54861111111111
 30
0.0
 10
6.852003733317056
 20
-8.686392042371961
 30
0.0
 10
6.866018931070962
 20
-8.820693969726562
 30
0.0
 10
6.881944444444443
 20
-8.951388888888887
 30
0.0
 10
6.860507541232638
 20
-8.950783623589408
 30
0.0
 10
6.826992034912109
 20
-8.946288214789495
 30
0.0
 10
6.79861111111111
 20
-8.92361111111111
 30
0.0
 10
6.788066016303168
 20
-8.915184868706596
 30
0.0
 10
6.765853034125433
 20
-8.894360012478298
 30
0.0
 10
6.743055555555555
 20
-8.79861111111111
 30
0.0
 10
6.726010216606987
 20
-8.727021111382377
 30
0.0
 10
6.732479519314235
 20
-8.713678148057725
 30
0.0
 10
6.715277777777777
 20
-8.631944444444444
 30
0.0
 10
6.705606248643662
 20
-8.585989210340711
 30
0.0
 10
6.704131656222872
 20
-8.592918395996093
 30
0.0
 10
6.6875
 20
-8.520833333333332
 30
0.0
 10
6.677240583631727
 20
-8.476365831163194
 30
0.0
 10
6.667818281385633
 20
-8.435159471299913
 30
0.0
 10
6.659722222222221
 20
-8.381944444444444
 30
0.0
 10
6.657947964138454
 20
-8.37028333875868
 30
0.0
 10
6.656122419569227
 20
-8.357289632161457
 30
0.0
 10
6.645833333333333
 20
-8.256944444444444
 30
0.0
 10
6.631613413492837
 20
-8.118265787760416
 30
0.0
 10
6.634444766574435
 20
-8.136691623263889
 30
0.0
 10
6.631944444444443
 20
-8.118055555555555
 30
0.0
 10
6.615889655219183
 20
-7.998385111490884
 30
0.0
 10
6.597137451171875
 20
-7.969028049045138
 30
0.0
 10
6.618055555555555
 20
-7.9375
 30
0.0
 10
6.628512912326388
 20
-7.92173851860894
 30
0.0
 10
6.652322557237412
 20
-7.90025414360894
 30
0.0
 10
6.715277777777777
 20
-7.895833333333333
 30
0.0
  0
SPLINE
  5
82
330
70
100
AcDbEntity
  8
Base
 62
    18
420
        0
370
    35
100
AcDbSpline
210
0.0
220
0.0
230
1.0
 70
     9
 71
     3
 72
    74
 73
    70
 74
     0
 42
0.0000000001
 43
0.0000000001
 40
0.0
 40
0.0
 40
0.0
 40
0.0
 40
1.0
 40
1.0
 40
1.0
 40
2.0
 40
2.0
 40
2.0
 40
3.0
 40
3.0
 40
3.0
 40
4.0
 40
4.0
 40
4.0
 40
5.0
 40
5.0
 40
5.0
 40
6.0
 40
6.0
 40
6.0
 40
7.0
 40
7.0
 40
7.0
 40
8.0
 40
8.0
 40
8.0
 40
9.0
 40
9.0
 40
9.0
 40
10.0
 40
10.0
 40
10.0
 40
11.0
 40
11.0
 40
11.0
 40
12.0
 40
12.0
 40
12.0
 40
13.0
 40
13.0
 40
13.0
 40
14.0
 40
14.0
 40
14.0
 40
15.0
 40
15.0
 40
15.0
 40
16.0
 40
16.0
 40
16.0
 40
17.0
 40
17.0
 40
17.0
 40
18.0
 40
18.0
 40
18.0
 40
19.0
 40
19.0
 40
19.0
 40
20.0
 40
20.0
 40
20.0
 40
21.0
 40
21.0
 40
21.0
 40
22.0
 40
22.0
 40
22.0
 40
23.0
 40
23.0
 40
23.0
 40
23.0
 10
6.0625
 20
-6.409722222222221
 30
0.0
 10
6.090610080295138
 20
-6.364016638861762
 30
0.0
 10
6.100440131293402
 20
-6.325550079345703
 30
0.0
 10
6.104166666666666
 20
-6.29861111111111
 30
0.0
 10
6.10802502102322
 20
-6.270720587836371
 30
0.0
 10
6.10774909125434
 20
-6.237782372368705
 30
0.0
 10
6.131944444444443
 20
-6.215277777777777
 30
0.0
 10
6.137037489149305
 20
-6.210540771484375
 30
0.0
 10
6.149303012424044
 20
-6.199132283528645
 30
0.0
 10
6.159722222222222
 20
-6.201388888888888
 30
0.0
 10
6.176588694254556
 20
-6.205042097303602
 30
0.0
 10
6.191615210639105
 20
-6.245155334472656
 30
0.0
 10
6.1875
 20
-6.395833333333333
 30
0.0
 10
6.196759117974175
 20
-6.372685326470268
 30
0.0
 10
6.206018659803602
 20
-6.349536895751953
 30
0.0
 10
6.215277777777777
 20
-6.326388888888888
 30
0.0
 10
6.232376098632812
 20
-6.243703630235459
 30
0.0
 10
6.258410135904947
 20
-6.149439917670355
 30
0.0
 10
6.29861111111111
 20
-6.04861111111111
 30
0.0
 10
6.376145680745442
 20
-5.854145050048828
 30
0.0
 10
6.477940029568141
 20
-5.706584930419921
 30
0.0
 10
6.5625
 20
-5.604166666666666
 30
0.0
 10
6.576317681206596
 20
-5.680960761176215
 30
0.0
 10
6.577589246961805
 20
-5.743142445882161
 30
0.0
 10
6.576388888888888
 20
-5.784722222222222
 30
0.0
 10
6.573504977756075
 20
-5.88460456000434
 30
0.0
 10
6.554459042019313
 20
-5.931336720784504
 30
0.0
 10
6.534722222222221
 20
-6.090277777777777
 30
0.0
 10
6.534722222222221
 20
-6.090279049343532
 30
0.0
 10
6.529012468126084
 20
-6.136258019341362
 30
0.0
 10
6.520833333333333
 20
-6.229166666666666
 30
0.0
 10
6.506798638237846
 20
-6.388587103949652
 30
0.0
 10
6.503516727023654
 20
-6.701324886745876
 30
0.0
 10
6.520833333333333
 20
-7.104166666666666
 30
0.0
 10
6.521510654025607
 20
-6.916386074490016
 30
0.0
 10
6.527810838487412
 20
-6.75632349650065
 30
0.0
 10
6.534722222222221
 20
-6.631944444444443
 30
0.0
 10
6.547735002305771
 20
-6.397758060031466
 30
0.0
 10
6.554241180419921
 20
-6.280665079752603
 30
0.0
 10
6.576388888888888
 20
-6.159722222222222
 30
0.0
 10
6.591531117757161
 20
-6.077034844292534
 30
0.0
 10
6.606593661838107
 20
-6.019357893202039
 30
0.0
 10
6.618055555555555
 20
-5.909722222222222
 30
0.0
 10
6.635687934027777
 20
-5.741066402859157
 30
0.0
 10
6.608677334255641
 20
-5.794969346788193
 30
0.0
 10
6.618055555555555
 20
-5.618055555555555
 30
0.0
 10
6.619244469536674
 20
-5.595626831054687
 30
0.0
 10
6.622532314724391
 20
-5.540931701660156
 30
0.0
 10
6.604166666666666
 20
-5.534722222222222
 30
0.0
 10
6.596131642659504
 20
-5.532005310058593
 30
0.0
 10
6.586850060356987
 20
-5.539549085828992
 30
0.0
 10
6.576388888888888
 20
-5.54861111111111
 30
0.0
 10
6.555223676893445
 20
-5.566945817735459
 30
0.0
 10
6.526187049018012
 20
-5.594132741292317
 30
0.0
 10
6.493055555555555
 20
-5.631944444444443
 30
0.0
 10
6.444018469916449
 20
-5.693464914957681
 30
0.0
 10
6.389759487575954
 20
-5.771929846869574
 30
0.0
 10
6.340277777777777
 20
-5.868055555555555
 30
0.0
 10
6.27274915907118
 20
-5.999239603678384
 30
0.0
 10
6.236063639322916
 20
-6.120682610405816
 30
0.0
 10
6.215277777777777
 20
-6.215277777777777
 30
0.0
 10
6.214461432562933
 20
-6.211596171061197
 30
0.0
 10
6.203771803114149
 20
-6.16603766547309
 30
0.0
 10
6.17361111111111
 20
-6.159722222222222
 30
0.0
 10
6.155547247992621
 20
-6.155939737955728
 30
0.0
 10
6.139328426784938
 20
-6.168082767062716
 30
0.0
 10
6.131944444444443
 20
-6.17361111111111
 30
0.0
 10
6.070864359537759
 20
-6.219341278076171
 30
0.0
 10
6.063554128011067
 20
-6.381656646728515
 30
0.0
 10
6.0625
 20
-6.409722222222221
 30
0.0
  0
SPLINE
  5
83
330
70
100
AcDbEntity
  8
Base
 62
    18
420
        0
370
    35
100
AcDbSpline
210
0.0
220
0.0
230
1.0
 70
     9
 71
     3
 72
   131
 73
   127
 74
     0
 42
0.0000000001
 43
0.0000000001
 40
0.0
 40
0.0
 40
0.0
 40
0.0
 40
1.0
 40
1.0
 40
1.0
 40
2.0
 40
2.0
 40
2.0
 40
3.0
 40
3.0
 40
3.0
 40
4.0
 40
4.0
 40
4.0
 40
5.0
 40
5.0
 40
5.0
 40
6.0
 40
6.0
 40
6.0
 40
7.0
 40
7.0
 40
7.0
 40
8.0
 40
8.0
 40
8.0
 40
9.0
 40
9.0
 40
9.0
 40
10.0
 40
10.0
 40
10.0
 40
11.0
 40
11.0
 40
11.0
 40
12.0
 40
12.0
 40
12.0
 40
13.0
 40
13.0
 40
13.0
 40
14.0
 40
14.0
 40
14.0
 40
15.0
 40
15.0
 40
15.0
 40
16.0
 40
16.0
 40
16.0
 40
17.0
 40
17.0
 40
17.0
 40
18.0
 40
18.0
 40
18.0
 40
19.0
 40
19.0
 40
19.0
 40
20.0
 40
20.0
 40
20.0
 40
21.0
 40
21.0
 40
21.0
 40
22.0
 40
22.0
 40
22.0
 40
23.0
 40
23.0
 40
23.0
 40
24.0
 40
24.0
 40
24.0
 40
25.0
 40
25.0
 40
25.0
 40
26.0
 40
26.0
 40
26.0
 40
27.0
 40
27.0
 40
27.0
 40
28.0
 40
28.0
 40
28.0
 40
29.0
 40
29.0
 40
29.0
 40
30.0
 40
30.0
 40
30.0
 40
31.0
 40
31.0
 40
31.0
 40
32.0
 40
32.0
 40
32.0
 40
33.0
 40
33.0
 40
33.0
 40
34.0
 40
34.0
 40
34.0
 40
35.0
 40
35.0
 40
35.0
 40
36.0
 40
36.0
 40
36.0
 40
37.0
 40
37.0
 40
37.0
 40
38.0
 40
38.0
 40
38.0
 40
39.0
 40
39.0
 40
39.0
 40
40.0
 40
40.0
 40
40.0
 40
41.0
 40
41.0
 40
41.0
 40
42.0
 40
42.0
 40
42.0
 40
42.0
 10
6.0625
 20
-8.020833333333332
 30
0.0
 10
6.070816463894313
 20
-8.021140204535589
 30
0.0
 10
6.066078186035156
 20
-8.056532965766058
 30
0.0
 10
6.090277777777777
 20
-8.090277777777776
 30
0.0
 10
6.105416191948784
 20
-8.111387464735242
 30
0.0
 10
6.131941901312933
 20
-8.13193851047092
 30
0.0
 10
6.131944444444443
 20
-8.131944444444444
 30
0.0
 10
6.131944444444443
 20
-8.131944444444444
 30
0.0
 10
6.131944444444443
 20
-8.131944444444444
 30
0.0
 10
6.131944444444443
 20
-8.131944444444444
 30
0.0
 10
6.131944020589192
 20
-8.131944444444444
 30
0.0
 10
6.126683553059895
 20
-8.077760484483507
 30
0.0
 10
6.131944444444443
 20
-8.020833333333332
 30
0.0
 10
6.135145823160806
 20
-7.986192491319443
 30
0.0
 10
6.136928134494357
 20
-7.968800014919704
 30
0.0
 10
6.145833333333333
 20
-7.965277777777777
 30
0.0
 10
6.16572782728407
 20
-7.957409328884548
 30
0.0
 10
6.206312815348306
 20
-8.00733693440755
 30
0.0
 10
6.229166666666666
 20
-8.04861111111111
 30
0.0
 10
6.248659345838758
 20
-8.083814832899305
 30
0.0
 10
6.255953470865884
 20
-8.113989935980901
 30
0.0
 10
6.256944444444443
 20
-8.118055555555555
 30
0.0
 10
6.273988935682508
 20
-8.18798828125
 30
0.0
 10
6.342381795247395
 20
-8.326714409722221
 30
0.0
 10
6.479166666666666
 20
-8.604166666666666
 30
0.0
 10
6.491134643554687
 20
-8.6284425523546
 30
0.0
 10
6.510378095838758
 20
-8.667252434624565
 30
0.0
 10
6.534722222222221
 20
-8.715277777777776
 30
0.0
 10
6.539351993136935
 20
-8.70601823594835
 30
0.0
 10
6.543981340196396
 20
-8.696759541829425
 30
0.0
 10
6.54861111111111
 20
-8.6875
 30
0.0
 10
6.533487108018662
 20
-8.639125400119358
 30
0.0
 10
6.519429524739583
 20
-8.58818138970269
 30
0.0
 10
6.506944444444443
 20
-8.534722222222221
 30
0.0
 10
6.457638634575737
 20
-8.323599921332464
 30
0.0
 10
6.446058485243055
 20
-8.129762437608507
 30
0.0
 10
6.451388888888888
 20
-7.965277777777777
 30
0.0
 10
6.460648006863063
 20
-7.965277777777777
 30
0.0
 10
6.46990754869249
 20
-7.965277777777777
 30
0.0
 10
6.479166666666666
 20
-7.965277777777777
 30
0.0
 10
6.483688778347438
 20
-8.056693183051214
 30
0.0
 10
6.492413838704426
 20
-8.154237535264757
 30
0.0
 10
6.506944444444443
 20
-8.256944444444444
 30
0.0
 10
6.538433922661674
 20
-8.479522705078125
 30
0.0
 10
6.589949713812933
 20
-8.675187004937065
 30
0.0
 10
6.645833333333333
 20
-8.840277777777776
 30
0.0
 10
6.649905310736762
 20
-8.834968566894531
 30
0.0
 10
6.656214396158853
 20
-8.825514899359808
 30
0.0
 10
6.659722222222221
 20
-8.8125
 30
0.0
 10
6.664312574598524
 20
-8.795467800564235
 30
0.0
 10
6.66188515557183
 20
-8.780571831597221
 30
0.0
 10
6.659722222222221
 20
-8.770833333333332
 30
0.0
 10
6.653397878011067
 20
-8.74235619439019
 30
0.0
 10
6.622283087836371
 20
-8.63615502251519
 30
0.0
 10
6.576388888888888
 20
-8.493055555555555
 30
0.0
 10
6.552462259928384
 20
-8.36782752143012
 30
0.0
 10
6.532446119520399
 20
-8.228370666503906
 30
0.0
 10
6.520833333333333
 20
-8.076388888888889
 30
0.0
 10
6.504662831624348
 20
-7.864756266276041
 30
0.0
 10
6.50816429985894
 20
-7.673038906521266
 30
0.0
 10
6.520833333333333
 20
-7.506944444444443
 30
0.0
 10
6.527895609537759
 20
-7.56148952907986
 30
0.0
 10
6.53802998860677
 20
-7.643253750271266
 30
0.0
 10
6.54861111111111
 20
-7.743055555555555
 30
0.0
 10
6.562991248236762
 20
-7.878692626953125
 30
0.0
 10
6.563148074679904
 20
-7.905714246961805
 30
0.0
 10
6.576388888888888
 20
-8.034722222222221
 30
0.0
 10
6.59124755859375
 20
-8.179494222005207
 30
0.0
 10
6.605896419949001
 20
-8.290119594997829
 30
0.0
 10
6.618055555555555
 20
-8.381944444444444
 30
0.0
 10
6.629930284288193
 20
-8.471619500054252
 30
0.0
 10
6.643706427680121
 20
-8.56915283203125
 30
0.0
 10
6.659722222222221
 20
-8.67361111111111
 30
0.0
 10
6.672748141818575
 20
-8.688864813910589
 30
0.0
 10
6.689242045084634
 20
-8.711912367078992
 30
0.0
 10
6.701388888888888
 20
-8.743055555555555
 30
0.0
 10
6.722170935736762
 20
-8.796339246961805
 30
0.0
 10
6.71876737806532
 20
-8.843933953179252
 30
0.0
 10
6.715277777777777
 20
-8.868055555555555
 30
0.0
 10
6.716075473361544
 20
-8.884172227647569
 30
0.0
 10
6.718846215142143
 20
-8.909212748209634
 30
0.0
 10
6.729166666666666
 20
-8.9375
 30
0.0
 10
6.748076544867621
 20
-8.989328172471788
 30
0.0
 10
6.776056501600477
 20
-9.0074462890625
 30
0.0
 10
6.79861111111111
 20
-9.04861111111111
 30
0.0
 10
6.812398698594834
 20
-9.07377454969618
 30
0.0
 10
6.827491336398654
 20
-9.113633897569444
 30
0.0
 10
6.826388888888888
 20
-9.17361111111111
 30
0.0
 10
6.79861111111111
 20
-9.17361111111111
 30
0.0
 10
6.770833333333333
 20
-9.17361111111111
 30
0.0
 10
6.743055555555555
 20
-9.17361111111111
 30
0.0
 10
6.744732326931423
 20
-9.160462273491752
 30
0.0
 10
6.746051788330078
 20
-9.141029357910156
 30
0.0
 10
6.743055555555555
 20
-9.118055555555555
 30
0.0
 10
6.737625969780815
 20
-9.07642873128255
 30
0.0
 10
6.721087985568575
 20
-9.046652052137586
 30
0.0
 10
6.67361111111111
 20
-8.979166666666666
 30
0.0
 10
6.608016967773437
 20
-8.885928683810764
 30
0.0
 10
6.585111829969617
 20
-8.865335252549913
 30
0.0
 10
6.54861111111111
 20
-8.79861111111111
 30
0.0
 10
6.535426245795355
 20
-8.774509006076389
 30
0.0
 10
6.527641296386718
 20
-8.757501390245225
 30
0.0
 10
6.520833333333333
 20
-8.743055555555555
 30
0.0
 10
6.431348164876301
 20
-8.553177727593315
 30
0.0
 10
6.371227688259548
 20
-8.510025872124565
 30
0.0
 10
6.29861111111111
 20
-8.340277777777776
 30
0.0
 10
6.276042090521918
 20
-8.287520514594183
 30
0.0
 10
6.276368459065754
 20
-8.278876410590276
 30
0.0
 10
6.201388888888888
 20
-8.090277777777776
 30
0.0
 10
6.1895997789171
 20
-8.060624864366319
 30
0.0
 10
6.179871453179253
 20
-8.036388821072048
 30
0.0
 10
6.17361111111111
 20
-8.020833333333332
 30
0.0
 10
6.168981340196396
 20
-8.071759541829425
 30
0.0
 10
6.164351993136935
 20
-8.122684902615016
 30
0.0
 10
6.159722222222222
 20
-8.17361111111111
 30
0.0
 10
6.156274159749348
 20
-8.19003211127387
 30
0.0
 10
6.143709394666883
 20
-8.20130666097005
 30
0.0
 10
6.131944444444443
 20
-8.201388888888889
 30
0.0
 10
6.116862826877169
 20
-8.201494004991319
 30
0.0
 10
6.100140889485676
 20
-8.183225843641492
 30
0.0
 10
6.104166666666666
 20
-8.159722222222221
 30
0.0
 10
6.085648006863063
 20
-8.122684902615016
 30
0.0
 10
6.067129770914712
 20
-8.085648430718315
 30
0.0
 10
6.04861111111111
 20
-8.04861111111111
 30
0.0
 10
6.054719712999131
 20
-8.025790744357639
 30
0.0
 10
6.059306674533419
 20
-8.02071550157335
 30
0.0
 10
6.0625
 20
-8.020833333333332
 30
0.0
  0
SPLINE
  5
84
330
70
100
AcDbEntity
  8
Base
 62
    18
420
        0
370
    35
100
AcDbSpline
210
0.0
220
0.0
230
1.0
 70
     9
 71
     3
 72
    23
 73
    19
 74
     0
 42
0.0000000001
 43
0.0000000001
 40
0.0
 40
0.0
 40
0.0
 40
0.0
 40
1.0
 40
1.0
 40
1.0
 40
2.0
 40
2.0
 40
2.0
 40
3.0
 40
3.0
 40
3.0
 40
4.0
 40
4.0
 40
4.0
 40
5.0
 40
5.0
 40
5.0
 40
6.0
 40
6.0
 40
6.0
 40
6.0
 10
10.95138888888889
 20
-10.28472222222222
 30
0.0
 10
11.1091800265842
 20
-10.29166073269314
 30
0.0
 10
11.27128431532118
 20
-10.29642062717013
 30
0.0
 10
11.4375
 20
-10.29861111111111
 30
0.0
 10
11.57940843370226
 20
-10.30048200819227
 30
0.0
 10
11.71834225124783
 20
-10.30040147569444
 30
0.0
 10
11.85416666666666
 20
-10.29861111111111
 30
0.0
 10
11.82667456732856
 20
-10.32456715901692
 30
0.0
 10
11.78053792317708
 20
-10.36106618245442
 30
0.0
 10
11.71527777777777
 20
-10.38194444444444
 30
0.0
 10
11.66152699788411
 20
-10.39914025200737
 30
0.0
 10
11.61773003472222
 20
-10.39840528700087
 30
0.0
 10
11.5625
 20
-10.39583333333333
 30
0.0
 10
11.38651190863715
 20
-10.38763766818576
 30
0.0
 10
11.29851786295573
 20
-10.38353983561198
 30
0.0
 10
11.17361111111111
 20
-10.35416666666666
 30
0.0
 10
11.11512502034505
 20
-10.34041341145833
 30
0.0
 10
11.03868611653646
 20
-10.3189943101671
 30
0.0
 10
10.95138888888889
 20
-10.28472222222222
 30
0.0
  0
SPLINE
  5
85
330
70
100
AcDbEntity
  8
Base
 62
    18
420
        0
370
    35
100
AcDbSpline
210
0.0
220
0.0
230
1.0
 70
     9
 71
     3
 72
   146
 73
   142
 74
     0
 42
0.0000000001
 43
0.0000000001
 40
0.0
 40
0.0
 40
0.0
 40
0.0
 40
1.0
 40
1.0
 40
1.0
 40
2.0
 40
2.0
 40
2.0
 40
3.0
 40
3.0
 40
3.0
 40
4.0
 40
4.0
 40
4.0
 40
5.0
 40
5.0
 40
5.0
 40
6.0
 40
6.0
 40
6.0
 40
7.0
 40
7.0
 40
7.0
 40
8.0
 40
8.0
 40
8.0
 40
9.0
 40
9.0
 40
9.0
 40
10.0
 40
10.0
 40
10.0
 40
11.0
 40
11.0
 40
11.0
 40
12.0
 40
12.0
 40
12.0
 40
13.0
 40
13.0
 40
13.0
 40
14.0
 40
14.0
 40
14.0
 40
15.0
 40
15.0
 40
15.0
 40
16.0
 40
16.0
 40
16.0
 40
17.0
 40
17.0
 40
17.0
 40
18.0
 40
18.0
 40
18.0
 40
19.0
 40
19.0
 40
19.0
 40
20.0
 40
20.0
 40
20.0
 40
21.0
 40
21.0
 40
21.0
 40
22.0
 40
22.0
 40
22.0
 40
23.0
 40
23.0
 40
23.0
 40
24.0
 40
24.0
 40
24.0
 40
25.0
 40
25.0
 40
25.0
 40
26.0
 40
26.0
 40
26.0
 40
27.0
 40
27.0
 40
27.0
 40
28.0
 40
28.0
 40
28.0
 40
29.0
 40
29.0
 40
29.0
 40
30.0
 40
30.0
 40
30.0
 40
31.0
 40
31.0
 40
31.0
 40
32.0
 40
32.0
 40
32.0
 40
33.0
 40
33.0
 40
33.0
 40
34.0
 40
34.0
 40
34.0
 40
35.0
 40
35.0
 40
35.0
 40
36.0
 40
36.0
 40
36.0
 40
37.0
 40
37.0
 40
37.0
 40
38.0
 40
38.0
 40
38.0
 40
39.0
 40
39.0
 40
39.0
 40
40.0
 40
40.0
 40
40.0
 40
41.0
 40
41.0
 40
41.0
 40
42.0
 40
42.0
 40
42.0
 40
43.0
 40
43.0
 40
43.0
 40
44.0
 40
44.0
 40
44.0
 40
45.0
 40
45.0
 40
45.0
 40
46.0
 40
46.0
 40
46.0
 40
47.0
 40
47.0
 40
47.0
 40
47.0
 10
10.04861111111111
 20
-10.11805555555555
 30
0.0
 10
10.04881286621094
 20
-10.11414591471354
 30
0.0
 10
10.03313276502821
 20
-10.10950554741753
 30
0.0
 10
9.854166666666666
 20
-10.07638888888888
 30
0.0
 10
9.762479146321613
 20
-10.05942281087239
 30
0.0
 10
9.716635810004339
 20
-10.05093977186415
 30
0.0
 10
9.701388888888887
 20
-10.04861111111111
 30
0.0
 10
9.562420315212673
 20
-10.02738783094618
 30
0.0
 10
9.527871025933158
 20
-10.04398345947265
 30
0.0
 10
9.381944444444444
 20
-10.03472222222222
 30
0.0
 10
9.186241149902343
 20
-10.02230241563585
 30
0.0
 10
9.194437662760416
 20
-9.989031473795572
 30
0.0
 10
9.006944444444444
 20
-9.979166666666666
 30
0.0
 10
8.972682529025606
 20
-9.977364434136283
 30
0.0
 10
8.897040473090276
 20
-9.974509345160589
 30
0.0
 10
8.79861111111111
 20
-9.951388888888887
 30
0.0
 10
8.753389146592882
 20
-9.940766228569877
 30
0.0
 10
8.719274732801649
 20
-9.929605272081163
 30
0.0
 10
8.701388888888889
 20
-9.92361111111111
 30
0.0
 10
8.118840535481769
 20
-9.72838168674045
 30
0.0
 10
7.840278625488281
 20
-9.590278625488281
 30
0.0
 10
7.840277777777777
 20
-9.590277777777776
 30
0.0
 10
7.629639519585502
 20
-9.485849168565538
 30
0.0
 10
7.36983405219184
 20
-9.338323805067274
 30
0.0
 10
7.090277777777777
 20
-9.131944444444444
 30
0.0
 10
7.030285305447048
 20
-9.120690239800346
 30
0.0
 10
6.982884301079643
 20
-9.125587463378906
 30
0.0
 10
6.951388888888888
 20
-9.131944444444444
 30
0.0
 10
6.909457312689887
 20
-9.14040798611111
 30
0.0
 10
6.852416144476996
 20
-9.160197787814668
 30
0.0
 10
6.854166666666666
 20
-9.17361111111111
 30
0.0
 10
6.855221218532985
 20
-9.181691487630207
 30
0.0
 10
6.8773562113444
 20
-9.185524834526908
 30
0.0
 10
6.895833333333333
 20
-9.1875
 30
0.0
 10
6.942129770914712
 20
-9.182870652940538
 30
0.0
 10
6.988425784640841
 20
-9.178240458170572
 30
0.0
 10
7.034722222222221
 20
-9.17361111111111
 30
0.0
 10
7.057870229085286
 20
-9.17361111111111
 30
0.0
 10
7.081018659803602
 20
-9.17361111111111
 30
0.0
 10
7.104166666666666
 20
-9.17361111111111
 30
0.0
 10
7.179707845052083
 20
-9.241233825683593
 30
0.0
 10
7.267398410373263
 20
-9.312141418457031
 30
0.0
 10
7.368055555555555
 20
-9.381944444444444
 30
0.0
 10
7.527222527398002
 20
-9.492323133680555
 30
0.0
 10
7.679755316840277
 20
-9.57285902235243
 30
0.0
 10
7.8125
 20
-9.631944444444444
 30
0.0
 10
7.89595709906684
 20
-9.692327711317274
 30
0.0
 10
7.969136555989583
 20
-9.7246585422092
 30
0.0
 10
8.020833333333332
 20
-9.743055555555555
 30
0.0
 10
8.080312093098957
 20
-9.764222039116752
 30
0.0
 10
8.131457858615451
 20
-9.774098714192707
 30
0.0
 10
8.229166666666666
 20
-9.8125
 30
0.0
 10
8.278196546766492
 20
-9.83177015516493
 30
0.0
 10
8.312653435601127
 20
-9.847886827256944
 30
0.0
 10
8.326388888888889
 20
-9.854166666666666
 30
0.0
 10
8.44117482503255
 20
-9.906650119357637
 30
0.0
 10
8.660590277777776
 20
-9.98167758517795
 30
0.0
 10
8.881944444444444
 20
-10.03472222222222
 30
0.0
 10
9.117753770616319
 20
-10.09123145209418
 30
0.0
 10
9.376987033420137
 20
-10.12787797715929
 30
0.0
 10
9.465277777777776
 20
-10.13194444444444
 30
0.0
 10
9.477255079481336
 20
-10.1324963039822
 30
0.0
 10
9.520209418402776
 20
-10.13401963975694
 30
0.0
 10
9.576388888888887
 20
-10.14583333333333
 30
0.0
 10
9.621337042914495
 20
-10.15528530544705
 30
0.0
 10
9.649612426757812
 20
-10.16603851318359
 30
0.0
 10
9.67361111111111
 20
-10.17361111111111
 30
0.0
 10
9.716543409559461
 20
-10.1871583726671
 30
0.0
 10
9.780537075466579
 20
-10.20149315728081
 30
0.0
 10
9.868055555555555
 20
-10.20138888888888
 30
0.0
 10
9.88302527533637
 20
-10.20895470513238
 30
0.0
 10
9.975477430555555
 20
-10.25496843126085
 30
0.0
 10
10.04861111111111
 20
-10.25694444444444
 30
0.0
 10
10.09100850423177
 20
-10.25808970133463
 30
0.0
 10
10.10416497124566
 20
-10.25694444444444
 30
0.0
 10
10.10416666666666
 20
-10.25694444444444
 30
0.0
 10
10.14079369439019
 20
-10.25375620524088
 30
0.0
 10
10.15868292914496
 20
-10.24576822916666
 30
0.0
 10
10.17361111111111
 20
-10.25694444444444
 30
0.0
 10
10.1816652086046
 20
-10.26297420925564
 30
0.0
 10
10.18809678819444
 20
-10.27401224772135
 30
0.0
 10
10.1875
 20
-10.28472222222222
 30
0.0
 10
10.1855477227105
 20
-10.31974114312066
 30
0.0
 10
10.109130859375
 20
-10.33906809488932
 30
0.0
 10
10.10416666666666
 20
-10.34027777777777
 30
0.0
 10
10.07908715142144
 20
-10.34638977050781
 30
0.0
 10
10.04614088270399
 20
-10.34934404161241
 30
0.0
 10
9.951388888888887
 20
-10.32638888888889
 30
0.0
 10
9.9160893758138
 20
-10.31783718532986
 30
0.0
 10
9.868322584364149
 20
-10.30474683973524
 30
0.0
 10
9.8125
 20
-10.28472222222222
 30
0.0
 10
9.803240458170572
 20
-10.28935156928168
 30
0.0
 10
9.793981764051649
 20
-10.29398176405165
 30
0.0
 10
9.784722222222221
 20
-10.29861111111111
 30
0.0
 10
9.789351569281683
 20
-10.30787065294054
 30
0.0
 10
9.793981764051649
 20
-10.31712934705946
 30
0.0
 10
9.79861111111111
 20
-10.32638888888889
 30
0.0
 10
9.817620171440971
 20
-10.3294677734375
 30
0.0
 10
9.846635606553819
 20
-10.3342293633355
 30
0.0
 10
9.881944444444444
 20
-10.34027777777777
 30
0.0
 10
10.06277381049262
 20
-10.37125481499566
 30
0.0
 10
10.10249582926432
 20
-10.38355170355902
 30
0.0
 10
10.20138888888888
 20
-10.39583333333333
 30
0.0
 10
10.27623579237196
 20
-10.4051284790039
 30
0.0
 10
10.33368259006076
 20
-10.40804545084635
 30
0.0
 10
10.36805555555555
 20
-10.40972222222222
 30
0.0
 10
10.46131303575304
 20
-10.41427018907335
 30
0.0
 10
10.54156578911675
 20
-10.41278839111328
 30
0.0
 10
10.60416666666666
 20
-10.40972222222222
 30
0.0
 10
10.56449720594618
 20
-10.38191223144531
 30
0.0
 10
10.53108130560981
 20
-10.37185414632161
 30
0.0
 10
10.50694444444444
 20
-10.36805555555555
 30
0.0
 10
10.49532402886284
 20
-10.36622704399956
 30
0.0
 10
10.48040262858073
 20
-10.364990234375
 30
0.0
 10
10.46527777777777
 20
-10.35416666666666
 30
0.0
 10
10.46219889322916
 20
-10.35196346706814
 30
0.0
 10
10.42796325683593
 20
-10.32675001356337
 30
0.0
 10
10.4375
 20
-10.29861111111111
 30
0.0
 10
10.44383578830295
 20
-10.27991655137804
 30
0.0
 10
10.4671393500434
 20
-10.26687622070312
 30
0.0
 10
10.49305555555555
 20
-10.27083333333333
 30
0.0
 10
10.48109181722005
 20
-10.2628673977322
 30
0.0
 10
10.46225314670139
 20
-10.25174458821614
 30
0.0
 10
10.4375
 20
-10.24305555555555
 30
0.0
 10
10.39319780137804
 20
-10.22750430636935
 30
0.0
 10
10.35581970214844
 20
-10.22882843017578
 30
0.0
 10
10.34027777777777
 20
-10.22916666666666
 30
0.0
 10
10.24936252170139
 20
-10.23114691840278
 30
0.0
 10
10.15928988986545
 20
-10.2156507703993
 30
0.0
 10
10.07638888888888
 20
-10.20138888888888
 30
0.0
 10
9.990850660536024
 20
-10.18667348225911
 30
0.0
 10
9.996717664930555
 20
-10.17897711859809
 30
0.0
 10
9.9375
 20
-10.17361111111111
 30
0.0
 10
9.878629048665363
 20
-10.16827646891276
 30
0.0
 10
9.844248453776041
 20
-10.17329321967231
 30
0.0
 10
9.784722222222221
 20
-10.15972222222222
 30
0.0
 10
9.748717414008245
 20
-10.1515138414171
 30
0.0
 10
9.720163981119791
 20
-10.14030032687717
 30
0.0
 10
9.701388888888887
 20
-10.13194444444444
 30
0.0
 10
9.983835008409288
 20
-10.13343387179904
 30
0.0
 10
10.04820675320095
 20
-10.12589433458116
 30
0.0
 10
10.04861111111111
 20
-10.11805555555555
 30
0.0
  0
SPLINE
  5
86
330
70
100
AcDbEntity
  8
Base
 62
    18
420
        0
370
    35
100
AcDbSpline
210
0.0
220
0.0
230
1.0
 70
     9
 71
     3
 72
    20
 73
    16
 74
     0
 42
0.0000000001
 43
0.0000000001
 40
0.0
 40
0.0
 40
0.0
 40
0.0
 40
1.0
 40
1.0
 40
1.0
 40
2.0
 40
2.0
 40
2.0
 40
3.0
 40
3.0
 40
3.0
 40
4.0
 40
4.0
 40
4.0
 40
5.0
 40
5.0
 40
5.0
 40
5.0
 10
10.71527777777777
 20
-10.42361111111111
 30
0.0
 10
10.71602630615234
 20
-10.41606818305121
 30
0.0
 10
10.86846330430772
 20
-10.43285539415147
 30
0.0
 10
11.1875
 20
-10.4375
 30
0.0
 10
11.31410725911458
 20
-10.43934292263455
 30
0.0
 10
11.41940561930338
 20
-10.43858167860243
 30
0.0
 10
11.49305555555555
 20
-10.4375
 30
0.0
 10
11.5115737915039
 20
-10.45601823594835
 30
0.0
 10
11.53009287516276
 20
-10.4745373196072
 30
0.0
 10
11.54861111111111
 20
-10.49305555555555
 30
0.0
 10
11.49976772732204
 20
-10.49421013726128
 30
0.0
 10
11.43314107259114
 20
-10.49491458468967
 30
0.0
 10
11.35416666666666
 20
-10.49305555555555
 30
0.0
 10
11.00707499186198
 20
-10.48488616943359
 30
0.0
 10
10.71423678927951
 20
-10.43409813774956
 30
0.0
 10
10.71527777777777
 20
-10.42361111111111
 30
0.0
  0
SPLINE
  5
87
330
70
100
AcDbEntity
  8
Base
 62
    18
420
        0
370
    35
100
AcDbSpline
210
0.0
220
0.0
230
1.0
 70
     9
 71
     3
 72
    56
 73
    52
 74
     0
 42
0.0000000001
 43
0.0000000001
 40
0.0
 40
0.0
 40
0.0
 40
0.0
 40
1.0
 40
1.0
 40
1.0
 40
2.0
 40
2.0
 40
2.0
 40
3.0
 40
3.0
 40
3.0
 40
4.0
 40
4.0
 40
4.0
 40
5.0
 40
5.0
 40
5.0
 40
6.0
 40
6.0
 40
6.0
 40
7.0
 40
7.0
 40
7.0
 40
8.0
 40
8.0
 40
8.0
 40
9.0
 40
9.0
 40
9.0
 40
10.0
 40
10.0
 40
10.0
 40
11.0
 40
11.0
 40
11.0
 40
12.0
 40
12.0
 40
12.0
 40
13.0
 40
13.0
 40
13.0
 40
14.0
 40
14.0
 40
14.0
 40
15.0
 40
15.0
 40
15.0
 40
16.0
 40
16.0
 40
16.0
 40
17.0
 40
17.0
 40
17.0
 40
17.0
 10
10.53472222222222
 20
-10.50694444444444
 30
0.0
 10
10.53461456298828
 20
-10.50251261393229
 30
0.0
 10
10.46050262451172
 20
-10.51619127061632
 30
0.0
 10
10.39583333333333
 20
-10.47916666666666
 30
0.0
 10
10.38456726074219
 20
-10.47271643744574
 30
0.0
 10
10.36794704861111
 20
-10.46149783664279
 30
0.0
 10
10.34027777777777
 20
-10.45138888888889
 30
0.0
 10
10.31498887803819
 20
-10.44214884440104
 30
0.0
 10
10.29469045003255
 20
-10.43903181287977
 30
0.0
 10
10.28472222222222
 20
-10.4375
 30
0.0
 10
10.12391832139757
 20
-10.4127926296658
 30
0.0
 10
10.10437689887152
 20
-10.40946367051866
 30
0.0
 10
10.07638888888888
 20
-10.42361111111111
 30
0.0
 10
10.0673353407118
 20
-10.42818705240885
 30
0.0
 10
10.03699239095052
 20
-10.44407484266493
 30
0.0
 10
10.02083333333333
 20
-10.47916666666666
 30
0.0
 10
10.0005874633789
 20
-10.52313486735026
 30
0.0
 10
10.01680670844184
 20
-10.56641981336805
 30
0.0
 10
10.02083333333333
 20
-10.57638888888889
 30
0.0
 10
10.04304928249783
 20
-10.57399749755859
 30
0.0
 10
10.07714165581597
 20
-10.57193671332465
 30
0.0
 10
10.11805555555555
 20
-10.57638888888889
 30
0.0
 10
10.1992933485243
 20
-10.5852296617296
 30
0.0
 10
10.24811638726128
 20
-10.61329566107856
 30
0.0
 10
10.29861111111111
 20
-10.63194444444444
 30
0.0
 10
10.34943728976779
 20
-10.65071529812283
 30
0.0
 10
10.42659081353081
 20
-10.66904195149739
 30
0.0
 10
10.53472222222222
 20
-10.65972222222222
 30
0.0
 10
10.53009287516276
 20
-10.64583333333333
 30
0.0
 10
10.52546268039279
 20
-10.63194444444444
 30
0.0
 10
10.52083333333333
 20
-10.61805555555555
 30
0.0
 10
10.46560414632161
 20
-10.61710272894965
 30
0.0
 10
10.39892832438151
 20
-10.61024729410807
 30
0.0
 10
10.32638888888889
 20
-10.59027777777777
 30
0.0
 10
10.26616075303819
 20
-10.57369740804036
 30
0.0
 10
10.21872795952691
 20
-10.55271233452691
 30
0.0
 10
10.18892415364583
 20
-10.53803168402777
 30
0.0
 10
10.1656019422743
 20
-10.52654351128472
 30
0.0
 10
10.1463377210829
 20
-10.51559787326389
 30
0.0
 10
10.13194444444444
 20
-10.50694444444444
 30
0.0
 10
10.19212934705946
 20
-10.52546268039279
 30
0.0
 10
10.25231509738498
 20
-10.54398176405165
 30
0.0
 10
10.3125
 20
-10.5625
 30
0.0
 10
10.34027777777777
 20
-10.5625
 30
0.0
 10
10.36805555555555
 20
-10.5625
 30
0.0
 10
10.39583333333333
 20
-10.5625
 30
0.0
 10
10.39583333333333
 20
-10.54861111111111
 30
0.0
 10
10.39583333333333
 20
-10.53472222222222
 30
0.0
 10
10.39583333333333
 20
-10.52083333333333
 30
0.0
 10
10.50804562038845
 20
-10.51384141710069
 30
0.0
 10
10.53478664822048
 20
-10.50960625542534
 30
0.0
 10
10.53472222222222
 20
-10.50694444444444
 30
0.0
  0
SPLINE
  5
88
330
70
100
AcDbEntity
  8
Base
 62
    18
420
        0
370
    35
100
AcDbSpline
210
0.0
220
0.0
230
1.0
 70
     9
 71
     3
 72
    80
 73
    76
 74
     0
 42
0.0000000001
 43
0.0000000001
 40
0.0
 40
0.0
 40
0.0
 40
0.0
 40
1.0
 40
1.0
 40
1.0
 40
2.0
 40
2.0
 40
2.0
 40
3.0
 40
3.0
 40
3.0
 40
4.0
 40
4.0
 40
4.0
 40
5.0
 40
5.0
 40
5.0
 40
6.0
 40
6.0
 40
6.0
 40
7.0
 40
7.0
 40
7.0
 40
8.0
 40
8.0
 40
8.0
 40
9.0
 40
9.0
 40
9.0
 40
10.0
 40
10.0
 40
10.0
 40
11.0
 40
11.0
 40
11.0
 40
12.0
 40
12.0
 40
12.0
 40
13.0
 40
13.0
 40
13.0
 40
14.0
 40
14.0
 40
14.0
 40
15.0
 40
15.0
 40
15.0
 40
16.0
 40
16.0
 40
16.0
 40
17.0
 40
17.0
 40
17.0
 40
18.0
 40
18.0
 40
18.0
 40
19.0
 40
19.0
 40
19.0
 40
20.0
 40
20.0
 40
20.0
 40
21.0
 40
21.0
 40
21.0
 40
22.0
 40
22.0
 40
22.0
 40
23.0
 40
23.0
 40
23.0
 40
24.0
 40
24.0
 40
24.0
 40
25.0
 40
25.0
 40
25.0
 40
25.0
 10
9.493055555555555
 20
-10.1875
 30
0.0
 10
9.469907124837238
 20
-10.1875
 30
0.0
 10
9.446759541829425
 20
-10.1875
 30
0.0
 10
9.42361111111111
 20
-10.1875
 30
0.0
 10
9.42361111111111
 20
-10.20601823594835
 30
0.0
 10
9.42361111111111
 20
-10.2245373196072
 30
0.0
 10
9.42361111111111
 20
-10.24305555555555
 30
0.0
 10
9.399957444932725
 20
-10.23989783393012
 30
0.0
 10
9.366451687282985
 20
-10.23526340060763
 30
0.0
 10
9.326388888888887
 20
-10.22916666666666
 30
0.0
 10
9.296823289659288
 20
-10.22466786702474
 30
0.0
 10
9.14724392361111
 20
-10.2019051445855
 30
0.0
 10
9.020833333333332
 20
-10.17361111111111
 30
0.0
 10
8.837616814507377
 20
-10.13260226779514
 30
0.0
 10
8.699408637152776
 20
-10.0791515774197
 30
0.0
 10
8.54861111111111
 20
-10.02083333333333
 30
0.0
 10
8.438033209906683
 20
-9.978068881564668
 30
0.0
 10
8.347704569498697
 20
-9.938479105631509
 30
0.0
 10
8.284722222222221
 20
-9.909722222222221
 30
0.0
 10
8.289842393663194
 20
-9.942160712348089
 30
0.0
 10
8.298428853352863
 20
-9.990563286675346
 30
0.0
 10
8.3125
 20
-10.04861111111111
 30
0.0
 10
8.337332831488714
 20
-10.15105523003472
 30
0.0
 10
8.350980970594617
 20
-10.16692521837022
 30
0.0
 10
8.368055555555555
 20
-10.24305555555555
 30
0.0
 10
8.390983581542968
 20
-10.34528689914279
 30
0.0
 10
8.3750737508138
 20
-10.35546196831597
 30
0.0
 10
8.395833333333332
 20
-10.46527777777777
 30
0.0
 10
8.408338758680555
 20
-10.53142717149522
 30
0.0
 10
8.420274522569444
 20
-10.56033579508463
 30
0.0
 10
8.451388888888889
 20
-10.65972222222222
 30
0.0
 10
8.49648708767361
 20
-10.80377366807725
 30
0.0
 10
8.5146001180013
 20
-10.88099500868055
 30
0.0
 10
8.534722222222221
 20
-10.95138888888889
 30
0.0
 10
8.565979851616752
 20
-11.06073930528429
 30
0.0
 10
8.722330729166666
 20
-11.57428232828776
 30
0.0
 10
8.895833333333332
 20
-11.95138888888888
 30
0.0
 10
9.016744825575086
 20
-12.21418931749132
 30
0.0
 10
9.243375990125867
 20
-12.62240431043837
 30
0.0
 10
9.67361111111111
 20
-13.07638888888889
 30
0.0
 10
9.608382331000433
 20
-12.98695373535156
 30
0.0
 10
9.519816080729166
 20
-12.85968695746527
 30
0.0
 10
9.42361111111111
 20
-12.70138888888889
 30
0.0
 10
9.248408847384981
 20
-12.41310713026259
 30
0.0
 10
9.143931918674043
 20
-12.17996554904513
 30
0.0
 10
9.04861111111111
 20
-11.96527777777777
 30
0.0
 10
8.926390753851995
 20
-11.69000413682725
 30
0.0
 10
8.985201517740884
 20
-11.78458319769965
 30
0.0
 10
8.743055555555555
 20
-11.1875
 30
0.0
 10
8.661871168348524
 20
-10.98731486002604
 30
0.0
 10
8.597292582194009
 20
-10.83374701605902
 30
0.0
 10
8.54861111111111
 20
-10.63194444444444
 30
0.0
 10
8.501790364583332
 20
-10.43785349527994
 30
0.0
 10
8.479166666666666
 20
-10.31250169542101
 30
0.0
 10
8.479166666666666
 20
-10.3125
 30
0.0
 10
8.474367777506509
 20
-10.28591071234809
 30
0.0
 10
8.459845648871526
 20
-10.20370398627387
 30
0.0
 10
8.4375
 20
-10.09027777777777
 30
0.0
 10
8.431710984971788
 20
-10.06089189317491
 30
0.0
 10
8.426842583550346
 20
-10.03674909803602
 30
0.0
 10
8.42361111111111
 20
-10.02083333333333
 30
0.0
 10
8.521580166286891
 20
-10.06909094916449
 30
0.0
 10
8.604025099012586
 20
-10.09951697455512
 30
0.0
 10
8.659722222222221
 20
-10.11805555555555
 30
0.0
 10
8.751514010959201
 20
-10.14860704210069
 30
0.0
 10
8.778934054904514
 20
-10.14962514241536
 30
0.0
 10
9.034722222222221
 20
-10.21527777777778
 30
0.0
 10
9.156083848741319
 20
-10.24642774793837
 30
0.0
 10
9.161427815755207
 20
-10.24915398491753
 30
0.0
 10
9.201388888888887
 20
-10.25694444444444
 30
0.0
 10
9.322807312011718
 20
-10.28061421712239
 30
0.0
 10
9.424730088975694
 20
-10.28492736816406
 30
0.0
 10
9.493055555555555
 20
-10.28472222222222
 30
0.0
 10
9.493055555555555
 20
-10.25231509738498
 30
0.0
 10
9.493055555555555
 20
-10.21990712483724
 30
0.0
 10
9.493055555555555
 20
-10.1875
 30
0.0
  0
SPLINE
  5
89
330
70
100
AcDbEntity
  8
Base
 62
    18
420
        0
370
    35
100
AcDbSpline
210
0.0
220
0.0
230
1.0
 70
     9
 71
     3
 72
    56
 73
    52
 74
     0
 42
0.0000000001
 43
0.0000000001
 40
0.0
 40
0.0
 40
0.0
 40
0.0
 40
1.0
 40
1.0
 40
1.0
 40
2.0
 40
2.0
 40
2.0
 40
3.0
 40
3.0
 40
3.0
 40
4.0
 40
4.0
 40
4.0
 40
5.0
 40
5.0
 40
5.0
 40
6.0
 40
6.0
 40
6.0
 40
7.0
 40
7.0
 40
7.0
 40
8.0
 40
8.0
 40
8.0
 40
9.0
 40
9.0
 40
9.0
 40
10.0
 40
10.0
 40
10.0
 40
11.0
 40
11.0
 40
11.0
 40
12.0
 40
12.0
 40
12.0
 40
13.0
 40
13.0
 40
13.0
 40
14.0
 40
14.0
 40
14.0
 40
15.0
 40
15.0
 40
15.0
 40
16.0
 40
16.0
 40
16.0
 40
17.0
 40
17.0
 40
17.0
 40
17.0
 10
10.49305555555555
 20
-12.90972222222222
 30
0.0
 10
10.5115737915039
 20
-12.94212934705946
 30
0.0
 10
10.53009287516276
 20
-12.9745373196072
 30
0.0
 10
10.54861111111111
 20
-13.00694444444444
 30
0.0
 10
10.57175954182942
 20
-13.01620398627387
 30
0.0
 10
10.59490712483724
 20
-13.02546268039279
 30
0.0
 10
10.61805555555555
 20
-13.03472222222222
 30
0.0
 10
10.61433580186632
 20
-13.15804206000434
 30
0.0
 10
10.62051815456814
 20
-13.29859670003255
 30
0.0
 10
10.64583333333333
 20
-13.45138888888889
 30
0.0
 10
10.65385606553819
 20
-13.49981265597873
 30
0.0
 10
10.66324954562717
 20
-13.54613664415147
 30
0.0
 10
10.67361111111111
 20
-13.59027777777777
 30
0.0
 10
10.70075056287977
 20
-13.65792168511285
 30
0.0
 10
10.71101548936632
 20
-13.71651458740234
 30
0.0
 10
10.71527777777777
 20
-13.75694444444444
 30
0.0
 10
10.72250027126736
 20
-13.82545810275607
 30
0.0
 10
10.73124610053168
 20
-13.90841674804687
 30
0.0
 10
10.6875
 20
-13.99305555555555
 30
0.0
 10
10.65834554036458
 20
-14.04946221245659
 30
0.0
 10
10.61715020073784
 20
-14.08480495876736
 30
0.0
 10
10.59027777777777
 20
-14.10416666666666
 30
0.0
 10
10.54861111111111
 20
-14.05787065294054
 30
0.0
 10
10.50694444444444
 20
-14.0115737915039
 30
0.0
 10
10.46527777777777
 20
-13.96527777777778
 30
0.0
 10
10.47136942545573
 20
-13.97041490342882
 30
0.0
 10
10.51242404513889
 20
-14.00394778781467
 30
0.0
 10
10.5625
 20
-13.99305555555555
 30
0.0
 10
10.61727142333984
 20
-13.98114183213975
 30
0.0
 10
10.63952297634548
 20
-13.92550150553385
 30
0.0
 10
10.64583333333333
 20
-13.90972222222222
 30
0.0
 10
10.65599822998047
 20
-13.88430447048611
 30
0.0
 10
10.65640936957465
 20
-13.86424255371094
 30
0.0
 10
10.64583333333333
 20
-13.77083333333333
 30
0.0
 10
10.63477325439453
 20
-13.67314826117621
 30
0.0
 10
10.62924279106987
 20
-13.62430572509765
 30
0.0
 10
10.61805555555555
 20
-13.57638888888889
 30
0.0
 10
10.60178460015191
 20
-13.50669776068793
 30
0.0
 10
10.5966076321072
 20
-13.51514180501302
 30
0.0
 10
10.57638888888889
 20
-13.4375
 30
0.0
 10
10.55783081054687
 20
-13.3662363688151
 30
0.0
 10
10.54896969265408
 20
-13.30834876166449
 30
0.0
 10
10.53472222222222
 20
-13.21527777777778
 30
0.0
 10
10.52198791503906
 20
-13.13209025065104
 30
0.0
 10
10.52140808105469
 20
-13.1087154812283
 30
0.0
 10
10.50694444444444
 20
-13.0625
 30
0.0
 10
10.5030271742079
 20
-13.04998185899522
 30
0.0
 10
10.49702877468533
 20
-13.03239525689019
 30
0.0
 10
10.49305555555555
 20
-13.00694444444444
 30
0.0
 10
10.48675791422526
 20
-12.96660020616319
 30
0.0
 10
10.48960198296441
 20
-12.93245866563585
 30
0.0
 10
10.49305555555555
 20
-12.90972222222222
 30
0.0
  0
SPLINE
  5
8A
330
70
100
AcDbEntity
  8
Base
 62
    18
420
        0
370
    35
100
AcDbSpline
210
0.0
220
0.0
230
1.0
 70
     9
 71
     3
 72
    26
 73
    22
 74
     0
 42
0.0000000001
 43
0.0000000001
 40
0.0
 40
0.0
 40
0.0
 40
0.0
 40
1.0
 40
1.0
 40
1.0
 40
2.0
 40
2.0
 40
2.0
 40
3.0
 40
3.0
 40
3.0
 40
4.0
 40
4.0
 40
4.0
 40
5.0
 40
5.0
 40
5.0
 40
6.0
 40
6.0
 40
6.0
 40
7.0
 40
7.0
 40
7.0
 40
7.0
 10
10.79861111111111
 20
-13.90972222222222
 30
0.0
 10
10.79861111111111
 20
-13.92361111111111
 30
0.0
 10
10.79861111111111
 20
-13.9375
 30
0.0
 10
10.79861111111111
 20
-13.95138888888889
 30
0.0
 10
10.94385443793402
 20
-13.94344668918185
 30
0.0
 10
11.05509355333116
 20
-13.93957434760199
 30
0.0
 10
11.13194444444444
 20
-13.9375
 30
0.0
 10
11.18768310546875
 20
-13.93599531385633
 30
0.0
 10
11.26386176215278
 20
-13.93439653184678
 30
0.0
 10
11.36805555555555
 20
-13.92361111111111
 30
0.0
 10
11.41454484727647
 20
-13.9187986585829
 30
0.0
 10
11.45291646321614
 20
-13.9135750664605
 30
0.0
 10
11.47916666666666
 20
-13.90972222222222
 30
0.0
 10
11.46527777777778
 20
-13.90046268039279
 30
0.0
 10
11.45138888888888
 20
-13.89120398627387
 30
0.0
 10
11.4375
 20
-13.88194444444444
 30
0.0
 10
11.36919487847222
 20
-13.88726721869574
 30
0.0
 10
11.29974110921224
 20
-13.89192199707031
 30
0.0
 10
11.22916666666666
 20
-13.89583333333333
 30
0.0
 10
11.08121744791666
 20
-13.90403238932291
 30
0.0
 10
10.93759070502387
 20
-13.90845235188802
 30
0.0
 10
10.79861111111111
 20
-13.90972222222222
 30
0.0
  0
SPLINE
  5
8B
330
70
100
AcDbEntity
  8
Base
 62
    18
420
        0
370
    35
100
AcDbSpline
210
0.0
220
0.0
230
1.0
 70
     9
 71
     3
 72
    23
 73
    19
 74
     0
 42
0.0000000001
 43
0.0000000001
 40
0.0
 40
0.0
 40
0.0
 40
0.0
 40
1.0
 40
1.0
 40
1.0
 40
2.0
 40
2.0
 40
2.0
 40
3.0
 40
3.0
 40
3.0
 40
4.0
 40
4.0
 40
4.0
 40
5.0
 40
5.0
 40
5.0
 40
6.0
 40
6.0
 40
6.0
 40
6.0
 10
11.17361111111111
 20
-12.07638888888889
 30
0.0
 10
11.17361111111111
 20
-12.18287065294054
 30
0.0
 10
11.17361111111111
 20
-12.28935156928168
 30
0.0
 10
11.17361111111111
 20
-12.39583333333333
 30
0.0
 10
11.36936357286241
 20
-12.41359541151259
 30
0.0
 10
11.57323201497395
 20
-12.42783610026041
 30
0.0
 10
11.78472222222222
 20
-12.4375
 30
0.0
 10
12.03570895724826
 20
-12.44896867540147
 30
0.0
 10
12.27676984998915
 20
-12.45304701063368
 30
0.0
 10
12.50694444444444
 20
-12.45138888888889
 30
0.0
 10
12.5115737915039
 20
-12.33101823594835
 30
0.0
 10
12.51620398627387
 20
-12.21064843071831
 30
0.0
 10
12.52083333333333
 20
-12.09027777777778
 30
0.0
 10
12.33775922987196
 20
-12.0916019015842
 30
0.0
 10
12.15255822075738
 20
-12.09163241916232
 30
0.0
 10
11.96527777777777
 20
-12.09027777777778
 30
0.0
 10
11.6970943874783
 20
-12.08833821614583
 30
0.0
 10
11.43316056993272
 20
-12.083619011773
 30
0.0
 10
11.17361111111111
 20
-12.07638888888889
 30
0.0
  0
ENDSEC
  0
SECTION
  2
OBJECTS
  0
DICTIONARY
  5
C
330
0
100
AcDbDictionary
281
     1
  3
ACAD_COLOR
350
63
  3
ACAD_DETAILVIEWSTYLE
350
6A
  3
ACAD_GROUP
350
D
  3
ACAD_IMAGE_DICT
350
79
  3
ACAD_LAYOUT
350
62
  3
ACAD_MATERIAL
350
10
  3
ACAD_MLEADERSTYLE
350
66
  3
ACAD_MLINESTYLE
350
5F
  3
ACAD_PLOTSETTINGS
350
61
  3
ACAD_PLOTSTYLENAME
350
E
  3
ACAD_SCALELIST
350
42
  3
ACAD_SECTIONVIEWSTYLE
350
68
  3
ACAD_TABLESTYLE
350
64
  3
ACAD_VISUALSTYLE
350
29
  3
ACDB_RECOMPOSE_DATA
350
94
  3
AcDbVariableDictionary
350
8C
  0
DICTIONARY
  5
63
102
{ACAD_REACTORS
330
C
102
}
330
C
100
AcDbDictionary
281
     1
  0
DICTIONARY
  5
6A
102
{ACAD_REACTORS
330
C
102
}
330
C
100
AcDbDictionary
281
     1
  3
Imperial24
350
6B
  0
DICTIONARY
  5
D
102
{ACAD_REACTORS
330
C
102
}
330
C
100
AcDbDictionary
281
     1
  0
DICTIONARY
  5
79
102
{ACAD_REACTORS
330
C
102
}
330
C
100
AcDbDictionary
281
     1
  3
Vectors2 left black_1.png
350
7A
  0
DICTIONARY
  5
62
102
{ACAD_REACTORS
330
C
102
}
330
C
100
AcDbDictionary
281
     1
  3
Layout1
350
6F
  3
Layout2
350
77
  3
Model
350
73
  0
DICTIONARY
  5
10
102
{ACAD_REACTORS
330
C
102
}
330
C
100
AcDbDictionary
281
     1
  3
ByBlock
350
19
  3
ByLayer
350
11
  3
Global
350
21
  0
DICTIONARY
  5
66
102
{ACAD_REACTORS
330
C
102
}
330
C
100
AcDbDictionary
281
     1
  3
Standard
350
67
  0
DICTIONARY
  5
5F
102
{ACAD_REACTORS
330
C
102
}
330
C
100
AcDbDictionary
281
     1
  3
Standard
350
60
  0
DICTIONARY
  5
61
102
{ACAD_REACTORS
330
C
102
}
330
C
100
AcDbDictionary
281
     1
  0
ACDBDICTIONARYWDFLT
  5
E
102
{ACAD_REACTORS
330
C
102
}
330
C
100
AcDbDictionary
281
     1
  3
Normal
350
F
100
AcDbDictionaryWithDefault
340
F
  0
DICTIONARY
  5
42
102
{ACAD_REACTORS
330
C
102
}
330
C
100
AcDbDictionary
281
     1
  3
A0
350
43
  3
A1
350
44
  3
A2
350
45
  3
A3
350
46
  3
A4
350
47
  3
A5
350
48
  3
A6
350
49
  3
A7
350
4A
  3
A8
350
4B
  3
A9
350
4C
  3
B0
350
4D
  3
B1
350
4E
  3
B2
350
4F
  3
B3
350
50
  3
B4
350
51
  3
B5
350
52
  3
B6
350
53
  0
DICTIONARY
  5
68
102
{ACAD_REACTORS
330
C
102
}
330
C
100
AcDbDictionary
281
     1
  3
Imperial24
350
69
  0
DICTIONARY
  5
64
102
{ACAD_REACTORS
330
C
102
}
330
C
100
AcDbDictionary
281
     1
  3
Standard
350
65
  0
DICTIONARY
  5
29
102
{ACAD_REACTORS
330
C
102
}
330
C
100
AcDbDictionary
281
     1
  3
2dWireframe
350
2F
  3
Basic
350
2E
  3
Brighten
350
35
  3
ColorChange
350
39
  3
Conceptual
350
32
  3
Dim
350
34
  3
EdgeColorOff
350
41
  3
Facepattern
350
38
  3
Flat
350
2A
  3
FlatWithEdges
350
2B
  3
Gouraud
350
2C
  3
GouraudWithEdges
350
2D
  3
Hidden
350
31
  3
JitterOff
350
3F
  3
Linepattern
350
37
  3
OverhangOff
350
40
  3
Realistic
350
33
  3
Shaded
350
3E
  3
Shaded with edges
350
3D
  3
Shades of Gray
350
3A
  3
Sketchy
350
3B
  3
Thicken
350
36
  3
Wireframe
350
30
  3
X-Ray
350
3C
  0
XRECORD
  5
94
102
{ACAD_REACTORS
330
C
102
}
330
C
100
AcDbXrecord
280
     1
 90
        1
330
65
  0
DICTIONARY
  5
8C
102
{ACAD_REACTORS
330
C
102
}
330
C
100
AcDbDictionary
281
     1
  3
CANNOSCALE
350
91
  3
CMLEADERSTYLE
350
8E
  3
CTABLESTYLE
350
8D
  3
CVIEWDETAILSTYLE
350
8F
  3
CVIEWSECTIONSTYLE
350
90
  0
ACDBDETAILVIEWSTYLE
  5
6B
102
{ACAD_REACTORS
330
6A
102
}
330
6A
100
AcDbModelDocViewStyle
 70
     0
  3
Imperial24
290
     1
300
Imperial24
 90
        0
100
AcDbDetailViewStyle
 70
     0
 71
     0
 90
        3
 71
     1
340
55
 62
   256
 40
0.24
340
0
 62
   256
 40
0.24
300

 40
0.36
280
     3
 71
     2
340
5D
 90
       25
 62
   256
 71
     3
340
55
 62
   256
 40
0.24
 90
        1
 40
0.75
 90
        1
300
%<\AcVar ViewType \f "%tc1">% %<\AcVar ViewDetailId>%\PSCALE %<\AcVar ViewScale \f "%sn">%
 71
     4
340
5D
 90
       25
 62
   256
340
5D
 90
       25
 62
   256
280
     0
  0
IMAGEDEF
  5
7A
102
{ACAD_REACTORS
330
79
102
}
330
79
100
AcDbRasterImageDef
 90
        0
  1
M:\My Documents\Google Drive\BFB\DC30\Daft Punk Badge\Vectors2 left black_1.png
 10
793.0
 20
896.0
 11
0.3527336860670194
 21
0.3527336860670194
280
     1
281
     2
  0
LAYOUT
  5
6F
102
{ACAD_REACTORS
330
62
102
}
330
62
100
AcDbPlotSettings
  1

  2

  4

  6

 40
0.0
 41
0.0
 42
0.0
 43
0.0
 44
0.0
 45
0.0
 46
0.0
 47
0.0
 48
0.0
 49
0.0
140
0.0
141
0.0
142
1.0
143
1.0
 70
   688
 72
     0
 73
     0
 74
     5
  7

 75
    16
147
1.0
 76
     0
 77
     2
 78
   300
148
0.0
149
0.0
100
AcDbLayout
  1
Layout1
 70
     1
 71
     1
 10
0.0
 20
0.0
 11
12.0
 21
9.0
 12
0.0
 22
0.0
 32
0.0
 14
0.0
 24
0.0
 34
0.0
 15
0.0
 25
0.0
 35
0.0
146
0.0
 13
0.0
 23
0.0
 33
0.0
 16
1.0
 26
0.0
 36
0.0
 17
0.0
 27
1.0
 37
0.0
 76
     0
330
6C
  0
LAYOUT
  5
77
102
{ACAD_REACTORS
330
62
102
}
330
62
100
AcDbPlotSettings
  1

  2

  4

  6

 40
0.0
 41
0.0
 42
0.0
 43
0.0
 44
0.0
 45
0.0
 46
0.0
 47
0.0
 48
0.0
 49
0.0
140
0.0
141
0.0
142
1.0
143
1.0
 70
   688
 72
     0
 73
     0
 74
     5
  7

 75
    16
147
1.0
 76
     0
 77
     2
 78
   300
148
0.0
149
0.0
100
AcDbLayout
  1
Layout2
 70
     1
 71
     2
 10
0.0
 20
0.0
 11
12.0
 21
9.0
 12
0.0
 22
0.0
 32
0.0
 14
0.0
 24
0.0
 34
0.0
 15
0.0
 25
0.0
 35
0.0
146
0.0
 13
0.0
 23
0.0
 33
0.0
 16
1.0
 26
0.0
 36
0.0
 17
0.0
 27
1.0
 37
0.0
 76
     0
330
74
  0
LAYOUT
  5
73
102
{ACAD_REACTORS
330
62
102
}
330
62
100
AcDbPlotSettings
  1

  2

  4

  6

 40
0.0
 41
0.0
 42
0.0
 43
0.0
 44
0.0
 45
0.0
 46
0.0
 47
0.0
 48
0.0
 49
0.0
140
0.0
141
0.0
142
1.0
143
1.0
 70
  1712
 72
     0
 73
     0
 74
     0
  7

 75
     0
147
1.0
 76
     0
 77
     2
 78
   300
148
0.0
149
0.0
100
AcDbLayout
  1
Model
 70
     1
 71
     0
 10
0.0
 20
0.0
 11
12.0
 21
9.0
 12
0.0
 22
0.0
 32
0.0
 14
0.0
 24
0.0
 34
0.0
 15
0.0
 25
0.0
 35
0.0
146
0.0
 13
0.0
 23
0.0
 33
0.0
 16
1.0
 26
0.0
 36
0.0
 17
0.0
 27
1.0
 37
0.0
 76
     0
330
70
  0
MATERIAL
  5
19
102
{ACAD_XDICTIONARY
360
1A
102
}
102
{ACAD_REACTORS
330
10
102
}
330
10
100
AcDbMaterial
  1
ByBlock
 72
     0
 43
0.0208333333333333
 43
0.0
 43
0.0
 43
0.0
 43
0.0
 43
0.0208333333333333
 43
0.0
 43
0.0
 43
0.0
 43
0.0
 43
1.0
 43
0.0
 43
0.0
 43
0.0
 43
0.0
 43
1.0
 77
     0
 47
0.0208333333333333
 47
0.0
 47
0.0
 47
0.0
 47
0.0
 47
0.0208333333333333
 47
0.0
 47
0.0
 47
0.0
 47
0.0
 47
1.0
 47
0.0
 47
0.0
 47
0.0
 47
0.0
 47
1.0
171
     0
 49
0.0208333333333333
 49
0.0
 49
0.0
 49
0.0
 49
0.0
 49
0.0208333333333333
 49
0.0
 49
0.0
 49
0.0
 49
0.0
 49
1.0
 49
0.0
 49
0.0
 49
0.0
 49
0.0
 49
1.0
175
     0
142
0.0208333333333333
142
0.0
142
0.0
142
0.0
142
0.0
142
0.0208333333333333
142
0.0
142
0.0
142
0.0
142
0.0
142
1.0
142
0.0
142
0.0
142
0.0
142
0.0
142
1.0
179
     0
144
0.0208333333333333
144
0.0
144
0.0
144
0.0
144
0.0
144
0.0208333333333333
144
0.0
144
0.0
144
0.0
144
0.0
144
1.0
144
0.0
144
0.0
144
0.0
144
0.0
144
1.0
147
0.0208333333333333
147
0.0
147
0.0
147
0.0
147
0.0
147
0.0208333333333333
147
0.0
147
0.0
147
0.0
147
0.0
147
1.0
147
0.0
147
0.0
147
0.0
147
0.0
147
1.0
  0
MATERIAL
  5
11
102
{ACAD_XDICTIONARY
360
12
102
}
102
{ACAD_REACTORS
330
10
102
}
330
10
100
AcDbMaterial
  1
ByLayer
 72
     0
 43
0.0208333333333333
 43
0.0
 43
0.0
 43
0.0
 43
0.0
 43
0.0208333333333333
 43
0.0
 43
0.0
 43
0.0
 43
0.0
 43
1.0
 43
0.0
 43
0.0
 43
0.0
 43
0.0
 43
1.0
 77
     0
 47
0.0208333333333333
 47
0.0
 47
0.0
 47
0.0
 47
0.0
 47
0.0208333333333333
 47
0.0
 47
0.0
 47
0.0
 47
0.0
 47
1.0
 47
0.0
 47
0.0
 47
0.0
 47
0.0
 47
1.0
171
     0
 49
0.0208333333333333
 49
0.0
 49
0.0
 49
0.0
 49
0.0
 49
0.0208333333333333
 49
0.0
 49
0.0
 49
0.0
 49
0.0
 49
1.0
 49
0.0
 49
0.0
 49
0.0
 49
0.0
 49
1.0
175
     0
142
0.0208333333333333
142
0.0
142
0.0
142
0.0
142
0.0
142
0.0208333333333333
142
0.0
142
0.0
142
0.0
142
0.0
142
1.0
142
0.0
142
0.0
142
0.0
142
0.0
142
1.0
179
     0
144
0.0208333333333333
144
0.0
144
0.0
144
0.0
144
0.0
144
0.0208333333333333
144
0.0
144
0.0
144
0.0
144
0.0
144
1.0
144
0.0
144
0.0
144
0.0
144
0.0
144
1.0
147
0.0208333333333333
147
0.0
147
0.0
147
0.0
147
0.0
147
0.0208333333333333
147
0.0
147
0.0
147
0.0
147
0.0
147
1.0
147
0.0
147
0.0
147
0.0
147
0.0
147
1.0
  0
MATERIAL
  5
21
102
{ACAD_XDICTIONARY
360
22
102
}
102
{ACAD_REACTORS
330
10
102
}
330
10
100
AcDbMaterial
  1
Global
 72
     0
 43
0.0208333333333333
 43
0.0
 43
0.0
 43
0.0
 43
0.0
 43
0.0208333333333333
 43
0.0
 43
0.0
 43
0.0
 43
0.0
 43
1.0
 43
0.0
 43
0.0
 43
0.0
 43
0.0
 43
1.0
 77
     0
 47
0.0208333333333333
 47
0.0
 47
0.0
 47
0.0
 47
0.0
 47
0.0208333333333333
 47
0.0
 47
0.0
 47
0.0
 47
0.0
 47
1.0
 47
0.0
 47
0.0
 47
0.0
 47
0.0
 47
1.0
171
     0
 49
0.0208333333333333
 49
0.0
 49
0.0
 49
0.0
 49
0.0
 49
0.0208333333333333
 49
0.0
 49
0.0
 49
0.0
 49
0.0
 49
1.0
 49
0.0
 49
0.0
 49
0.0
 49
0.0
 49
1.0
175
     0
142
0.0208333333333333
142
0.0
142
0.0
142
0.0
142
0.0
142
0.0208333333333333
142
0.0
142
0.0
142
0.0
142
0.0
142
1.0
142
0.0
142
0.0
142
0.0
142
0.0
142
1.0
179
     0
144
0.0208333333333333
144
0.0
144
0.0
144
0.0
144
0.0
144
0.0208333333333333
144
0.0
144
0.0
144
0.0
144
0.0
144
1.0
144
0.0
144
0.0
144
0.0
144
0.0
144
1.0
147
0.0208333333333333
147
0.0
147
0.0
147
0.0
147
0.0
147
0.0208333333333333
147
0.0
147
0.0
147
0.0
147
0.0
147
1.0
147
0.0
147
0.0
147
0.0
147
0.0
147
1.0
  0
MLEADERSTYLE
  5
67
102
{ACAD_REACTORS
330
66
102
}
330
66
100
AcDbMLeaderStyle
179
     2
170
     2
171
     1
172
     0
 90
        2
 40
0.0
 41
0.0
173
     1
 91
-1056964608
340
5B
 92
       -2
290
     1
 42
0.09
291
     1
 43
0.36
  3
Standard
 44
0.18
300

342
55
174
     1
178
     6
175
     1
176
     0
 93
-1056964608
 45
0.18
292
     0
297
     0
 46
0.18
 94
-1056964608
 47
1.0
 49
1.0
140
1.0
293
     1
141
0.0
294
     1
177
     0
142
1.0
295
     1
296
     0
143
0.125
271
     0
272
     9
273
     9
298
     1
  0
MLINESTYLE
  5
60
102
{ACAD_REACTORS
330
5F
102
}
330
5F
100
AcDbMlineStyle
  2
STANDARD
 70
     0
  3

 62
   256
 51
90.0
 52
90.0
 71
     2
 49
0.5
 62
   256
  6
BYLAYER
 49
-0.5
 62
   256
  6
BYLAYER
  0
ACDBPLACEHOLDER
  5
F
102
{ACAD_REACTORS
330
E
102
}
330
E
  0
SCALE
  5
43
102
{ACAD_REACTORS
330
42
102
}
330
42
100
AcDbScale
 70
     0
300
1:1
140
1.0
141
1.0
290
     1
  0
SCALE
  5
44
102
{ACAD_REACTORS
330
42
102
}
330
42
100
AcDbScale
 70
     0
300
1/128" = 1'-0"
140
0.0078125
141
12.0
290
     0
  0
SCALE
  5
45
102
{ACAD_REACTORS
330
42
102
}
330
42
100
AcDbScale
 70
     0
300
1/64" = 1'-0"
140
0.015625
141
12.0
290
     0
  0
SCALE
  5
46
102
{ACAD_REACTORS
330
42
102
}
330
42
100
AcDbScale
 70
     0
300
1/32" = 1'-0"
140
0.03125
141
12.0
290
     0
  0
SCALE
  5
47
102
{ACAD_REACTORS
330
42
102
}
330
42
100
AcDbScale
 70
     0
300
1/16" = 1'-0"
140
0.0625
141
12.0
290
     0
  0
SCALE
  5
48
102
{ACAD_REACTORS
330
42
102
}
330
42
100
AcDbScale
 70
     0
300
3/32" = 1'-0"
140
0.09375
141
12.0
290
     0
  0
SCALE
  5
49
102
{ACAD_REACTORS
330
42
102
}
330
42
100
AcDbScale
 70
     0
300
1/8" = 1'-0"
140
0.125
141
12.0
290
     0
  0
SCALE
  5
4A
102
{ACAD_REACTORS
330
42
102
}
330
42
100
AcDbScale
 70
     0
300
3/16" = 1'-0"
140
0.1875
141
12.0
290
     0
  0
SCALE
  5
4B
102
{ACAD_REACTORS
330
42
102
}
330
42
100
AcDbScale
 70
     0
300
1/4" = 1'-0"
140
0.25
141
12.0
290
     0
  0
SCALE
  5
4C
102
{ACAD_REACTORS
330
42
102
}
330
42
100
AcDbScale
 70
     0
300
3/8" = 1'-0"
140
0.375
141
12.0
290
     0
  0
SCALE
  5
4D
102
{ACAD_REACTORS
330
42
102
}
330
42
100
AcDbScale
 70
     0
300
1/2" = 1'-0"
140
0.5
141
12.0
290
     0
  0
SCALE
  5
4E
102
{ACAD_REACTORS
330
42
102
}
330
42
100
AcDbScale
 70
     0
300
3/4" = 1'-0"
140
0.75
141
12.0
290
     0
  0
SCALE
  5
4F
102
{ACAD_REACTORS
330
42
102
}
330
42
100
AcDbScale
 70
     0
300
1" = 1'-0"
140
1.0
141
12.0
290
     0
  0
SCALE
  5
50
102
{ACAD_REACTORS
330
42
102
}
330
42
100
AcDbScale
 70
     0
300
1-1/2" = 1'-0"
140
1.5
141
12.0
290
     0
  0
SCALE
  5
51
102
{ACAD_REACTORS
330
42
102
}
330
42
100
AcDbScale
 70
     0
300
3" = 1'-0"
140
3.0
141
12.0
290
     0
  0
SCALE
  5
52
102
{ACAD_REACTORS
330
42
102
}
330
42
100
AcDbScale
 70
     0
300
6" = 1'-0"
140
6.0
141
12.0
290
     0
  0
SCALE
  5
53
102
{ACAD_REACTORS
330
42
102
}
330
42
100
AcDbScale
 70
     0
300
1'-0" = 1'-0"
140
12.0
141
12.0
290
     0
  0
ACDBSECTIONVIEWSTYLE
  5
69
102
{ACAD_REACTORS
330
68
102
}
330
68
100
AcDbModelDocViewStyle
 70
     0
  3
Imperial24
290
     1
300
Imperial24
 90
        0
100
AcDbSectionViewStyle
 70
     0
 71
     0
 90
       78
 71
     1
340
55
 62
   256
 40
0.24
340
0
340
0
 62
   256
 40
0.24
300
I, O, Q, S, X, Z
 40
0.48
 90
        3
 40
0.18
 90
        1
 71
     2
340
5D
 90
       25
 62
   256
340
5D
 90
       50
 62
   256
 40
0.24
 40
0.0
 40
0.24
 71
     3
340
55
 62
   256
 40
0.24
 90
        1
 40
0.75
 90
        1
300
%<\AcVar ViewType \f "%tc1">% %<\AcVar ViewSectionStartId>%-%<\AcVar ViewSectionEndId>%\PSCALE %<\AcVar ViewScale \f "%sn">%
 71
     4
 62
   256
 62
   257
300
ANSI31
 40
1.0
 90
        0
290
     0
290
     0
 90
        6
 40
0.0
 40
1.570796326794896
 40
0.2617993877991494
 40
1.308996938995747
 40
-0.2617993877991494
 40
1.832595714594046
  0
TABLESTYLE
  5
65
102
{ACAD_XDICTIONARY
360
92
102
}
102
{ACAD_REACTORS
330
64
102
}
330
64
100
AcDbTableStyle
280
     0
  3
Standard
 70
     0
 71
     0
 40
0.06
 41
0.06
280
     0
281
     0
  7
Standard
140
0.18
170
     2
 62
     0
 63
     7
283
     0
 90
      512
 91
        0
  1

274
    -2
284
     1
 64
     0
275
    -2
285
     1
 65
     0
276
    -2
286
     1
 66
     0
277
    -2
287
     1
 67
     0
278
    -2
288
     1
 68
     0
279
    -2
289
     1
 69
     0
  7
Standard
140
0.25
170
     5
 62
     0
 63
     7
283
     0
 90
      512
 91
        0
  1

274
    -2
284
     1
 64
     0
275
    -2
285
     1
 65
     0
276
    -2
286
     1
 66
     0
277
    -2
287
     1
 67
     0
278
    -2
288
     1
 68
     0
279
    -2
289
     1
 69
     0
  7
Standard
140
0.18
170
     5
 62
     0
 63
     7
283
     0
 90
      512
 91
        0
  1

274
    -2
284
     1
 64
     0
275
    -2
285
     1
 65
     0
276
    -2
286
     1
 66
     0
277
    -2
287
     1
 67
     0
278
    -2
288
     1
 68
     0
279
    -2
289
     1
 69
     0
  0
VISUALSTYLE
  5
2F
102
{ACAD_REACTORS
330
29
102
}
330
29
100
AcDbVisualStyle
  2
2dWireframe
 70
     4
177
     3
291
     0
 70
    58
 90
        0
176
     1
 90
        2
176
     1
 90
        0
176
     1
 90
        0
176
     1
 40
0.6
176
     1
 40
30.0
176
     1
 62
     7
420
 16777215
176
     1
 90
        1
176
     1
 90
        4
176
     1
 62
     7
176
     1
 62
   257
176
     1
 90
        1
176
     1
 90
        1
176
     1
 40
1.0
176
     1
 90
        0
176
     1
 62
   257
176
     1
 40
1.0
176
     1
 90
        1
176
     1
 90
        6
176
     1
 90
        2
176
     1
 62
     7
176
     1
 90
        5
176
     1
 90
        0
176
     1
 90
        0
176
     1
290
     0
176
     1
 90
        1
176
     1
 40
0.0
176
     1
 90
        0
176
     1
290
     1
176
     1
290
     1
176
     1
290
     0
176
     1
290
     0
176
     1
290
     0
176
     1
290
     0
176
     1
290
     0
176
     1
290
     0
176
     1
290
     0
176
     1
 90
       50
176
     1
 40
0.0
176
     1
 40
1.0
176
     1
 90
        0
176
     1
 62
    18
420
        0
176
     1
 90
       50
176
     1
 90
        3
176
     1
 62
     5
420
      255
176
     1
290
     0
176
     1
 90
       50
176
     1
 90
       50
176
     1
 90
       50
176
     1
290
     0
176
     1
 90
       50
176
     1
 62
   256
176
     0
 40
1.0
176
     0
 90
        2
176
     1
  1
strokes_ogs.tif
176
     1
290
     0
176
     1
 40
1.0
176
     1
 40
1.0
176
     1
  0
VISUALSTYLE
  5
2E
102
{ACAD_REACTORS
330
29
102
}
330
29
100
AcDbVisualStyle
  2
Basic
 70
     7
177
     3
291
     1
 70
    58
 90
        1
176
     1
 90
        0
176
     1
 90
        1
176
     1
 90
        0
176
     1
 40
0.6
176
     1
 40
30.0
176
     1
 62
     7
420
 16777215
176
     1
 90
        0
176
     1
 90
        4
176
     1
 62
     7
176
     1
 62
   257
176
     1
 90
        1
176
     1
 90
        1
176
     1
 40
1.0
176
     1
 90
        8
176
     1
 62
     7
176
     1
 40
1.0
176
     1
 90
        1
176
     1
 90
        6
176
     1
 90
        2
176
     1
 62
     7
176
     1
 90
        5
176
     1
 90
        0
176
     1
 90
        0
176
     1
290
     0
176
     1
 90
        1
176
     1
 40
0.0
176
     1
 90
        0
176
     1
290
     0
176
     1
290
     1
176
     1
290
     1
176
     1
290
     0
176
     1
290
     0
176
     1
290
     0
176
     1
290
     0
176
     1
290
     0
176
     1
290
     0
176
     1
 90
       50
176
     1
 40
0.0
176
     1
 40
1.0
176
     1
 90
        0
176
     1
 62
    18
420
        0
176
     1
 90
       50
176
     1
 90
        3
176
     1
 62
     5
420
      255
176
     1
290
     0
176
     1
 90
       50
176
     1
 90
       50
176
     1
 90
       50
176
     1
290
     0
176
     1
 90
       50
176
     1
 62
   256
176
     0
 40
1.0
176
     0
 90
        2
176
     1
  1
strokes_ogs.tif
176
     1
290
     0
176
     1
 40
1.0
176
     1
 40
1.0
176
     1
  0
VISUALSTYLE
  5
35
102
{ACAD_REACTORS
330
29
102
}
330
29
100
AcDbVisualStyle
  2
Brighten
 70
    12
177
     3
291
     1
 70
    58
 90
        2
176
     1
 90
        2
176
     1
 90
        0
176
     1
 90
        0
176
     1
 40
0.6
176
     1
 40
30.0
176
     1
 62
     7
420
 16777215
176
     1
 90
        1
176
     1
 90
        4
176
     1
 62
     7
176
     1
 62
   257
176
     1
 90
        1
176
     1
 90
        1
176
     1
 40
1.0
176
     1
 90
        8
176
     1
 62
     7
176
     1
 40
1.0
176
     1
 90
        1
176
     1
 90
        6
176
     1
 90
        2
176
     1
 62
     7
176
     1
 90
        5
176
     1
 90
        0
176
     1
 90
        0
176
     1
290
     0
176
     1
 90
        1
176
     1
 40
50.0
176
     1
 90
        0
176
     1
290
     0
176
     1
290
     1
176
     1
290
     1
176
     1
290
     0
176
     1
290
     0
176
     1
290
     0
176
     1
290
     0
176
     1
290
     0
176
     1
290
     0
176
     1
 90
       50
176
     1
 40
0.0
176
     1
 40
1.0
176
     1
 90
        0
176
     1
 62
    18
420
        0
176
     1
 90
       50
176
     1
 90
        3
176
     1
 62
     5
420
      255
176
     1
290
     0
176
     1
 90
       50
176
     1
 90
       50
176
     1
 90
       50
176
     1
290
     0
176
     1
 90
       50
176
     1
 62
   256
176
     0
 40
1.0
176
     0
 90
        2
176
     1
  1
strokes_ogs.tif
176
     1
290
     0
176
     1
 40
1.0
176
     1
 40
1.0
176
     1
  0
VISUALSTYLE
  5
39
102
{ACAD_REACTORS
330
29
102
}
330
29
100
AcDbVisualStyle
  2
ColorChange
 70
    16
177
     3
291
     1
 70
    58
 90
        2
176
     1
 90
        2
176
     1
 90
        3
176
     1
 90
        0
176
     1
 40
0.6
176
     1
 40
30.0
176
     1
 62
     8
420
  8421504
176
     1
 90
        1
176
     1
 90
        4
176
     1
 62
     7
176
     1
 62
   257
176
     1
 90
        1
176
     1
 90
        1
176
     1
 40
1.0
176
     1
 90
        8
176
     1
 62
     8
420
  8421504
176
     1
 40
1.0
176
     1
 90
        1
176
     1
 90
        6
176
     1
 90
        2
176
     1
 62
     7
176
     1
 90
        5
176
     1
 90
        0
176
     1
 90
        0
176
     1
290
     0
176
     1
 90
        1
176
     1
 40
0.0
176
     1
 90
        0
176
     1
290
     0
176
     1
290
     1
176
     1
290
     1
176
     1
290
     0
176
     1
290
     0
176
     1
290
     0
176
     1
290
     0
176
     1
290
     0
176
     1
290
     0
176
     1
 90
       50
176
     1
 40
0.0
176
     1
 40
1.0
176
     1
 90
        0
176
     1
 62
    18
420
        0
176
     1
 90
       50
176
     1
 90
        3
176
     1
 62
     5
420
      255
176
     1
290
     0
176
     1
 90
       50
176
     1
 90
       50
176
     1
 90
       50
176
     1
290
     0
176
     1
 90
       50
176
     1
 62
   256
176
     0
 40
1.0
176
     0
 90
        2
176
     1
  1
strokes_ogs.tif
176
     1
290
     0
176
     1
 40
1.0
176
     1
 40
1.0
176
     1
  0
VISUALSTYLE
  5
32
102
{ACAD_REACTORS
330
29
102
}
330
29
100
AcDbVisualStyle
  2
Conceptual
 70
     9
177
     3
291
     0
 70
    58
 90
        3
176
     1
 90
        2
176
     1
 90
        0
176
     1
 90
        0
176
     1
 40
0.6
176
     1
 40
30.0
176
     1
 62
     7
420
 16777215
176
     1
 90
        2
176
     1
 90
        2
176
     1
 62
     7
176
     1
 62
   257
176
     1
 90
        1
176
     1
 90
        1
176
     1
 40
179.0
176
     1
 90
        8
176
     1
 62
     7
176
     1
 40
1.0
176
     1
 90
        1
176
     1
 90
        6
176
     1
 90
        2
176
     1
 62
     7
176
     1
 90
        3
176
     1
 90
        0
176
     1
 90
        0
176
     1
290
     0
176
     1
 90
        1
176
     1
 40
0.0
176
     1
 90
        0
176
     1
290
     0
176
     1
290
     1
176
     1
290
     1
176
     1
290
     0
176
     1
290
     0
176
     1
290
     0
176
     1
290
     0
176
     1
290
     0
176
     1
290
     0
176
     1
 90
       50
176
     1
 40
0.0
176
     1
 40
1.0
176
     1
 90
        0
176
     1
 62
    18
420
        0
176
     1
 90
       50
176
     1
 90
        3
176
     1
 62
     5
420
      255
176
     1
290
     0
176
     1
 90
       50
176
     1
 90
       50
176
     1
 90
       50
176
     1
290
     0
176
     1
 90
       50
176
     1
 62
   256
176
     0
 40
1.0
176
     0
 90
        2
176
     1
  1
strokes_ogs.tif
176
     1
290
     0
176
     1
 40
1.0
176
     1
 40
1.0
176
     1
  0
VISUALSTYLE
  5
34
102
{ACAD_REACTORS
330
29
102
}
330
29
100
AcDbVisualStyle
  2
Dim
 70
    11
177
     3
291
     1
 70
    58
 90
        2
176
     1
 90
        2
176
     1
 90
        0
176
     1
 90
        0
176
     1
 40
0.6
176
     1
 40
30.0
176
     1
 62
     7
420
 16777215
176
     1
 90
        1
176
     1
 90
        4
176
     1
 62
     7
176
     1
 62
   257
176
     1
 90
        1
176
     1
 90
        1
176
     1
 40
1.0
176
     1
 90
        8
176
     1
 62
     7
176
     1
 40
1.0
176
     1
 90
        1
176
     1
 90
        6
176
     1
 90
        2
176
     1
 62
     7
176
     1
 90
        5
176
     1
 90
        0
176
     1
 90
        0
176
     1
290
     0
176
     1
 90
        1
176
     1
 40
-50.0
176
     1
 90
        0
176
     1
290
     0
176
     1
290
     1
176
     1
290
     1
176
     1
290
     0
176
     1
290
     0
176
     1
290
     0
176
     1
290
     0
176
     1
290
     0
176
     1
290
     0
176
     1
 90
       50
176
     1
 40
0.0
176
     1
 40
1.0
176
     1
 90
        0
176
     1
 62
    18
420
        0
176
     1
 90
       50
176
     1
 90
        3
176
     1
 62
     5
420
      255
176
     1
290
     0
176
     1
 90
       50
176
     1
 90
       50
176
     1
 90
       50
176
     1
290
     0
176
     1
 90
       50
176
     1
 62
   256
176
     0
 40
1.0
176
     0
 90
        2
176
     1
  1
strokes_ogs.tif
176
     1
290
     0
176
     1
 40
1.0
176
     1
 40
1.0
176
     1
  0
VISUALSTYLE
  5
41
102
{ACAD_REACTORS
330
29
102
}
330
29
100
AcDbVisualStyle
  2
EdgeColorOff
 70
    22
177
     3
291
     1
 70
    58
 90
        2
176
     0
 90
        2
176
     0
 90
        0
176
     0
 90
        0
176
     0
 40
0.6
176
     0
 40
30.0
176
     0
 62
     7
420
 16777215
176
     0
 90
        1
176
     0
 90
        4
176
     0
 62
     7
176
     0
 62
   257
176
     0
 90
        1
176
     0
 90
        1
176
     0
 40
1.0
176
     0
 90
        8
176
     2
 62
     7
176
     0
 40
1.0
176
     0
 90
        1
176
     0
 90
        6
176
     0
 90
        2
176
     0
 62
     7
176
     0
 90
        5
176
     0
 90
        0
176
     0
 90
        0
176
     0
290
     0
176
     0
 90
        1
176
     0
 40
0.0
176
     0
 90
        0
176
     0
290
     0
176
     0
290
     1
176
     0
290
     1
176
     0
290
     0
176
     0
290
     0
176
     0
290
     0
176
     0
290
     0
176
     0
290
     0
176
     0
290
     0
176
     0
 90
       50
176
     0
 40
0.0
176
     0
 40
1.0
176
     0
 90
        0
176
     0
 62
    18
420
        0
176
     0
 90
       50
176
     0
 90
        3
176
     0
 62
     5
420
      255
176
     0
290
     0
176
     0
 90
       50
176
     0
 90
       50
176
     0
 90
       50
176
     0
290
     0
176
     0
 90
       50
176
     0
 62
   256
176
     0
 40
1.0
176
     0
 90
        2
176
     0
  1
strokes_ogs.tif
176
     0
290
     0
176
     0
 40
1.0
176
     0
 40
1.0
176
     0
  0
VISUALSTYLE
  5
38
102
{ACAD_REACTORS
330
29
102
}
330
29
100
AcDbVisualStyle
  2
Facepattern
 70
    15
177
     3
291
     1
 70
    58
 90
        2
176
     1
 90
        2
176
     1
 90
        0
176
     1
 90
        0
176
     1
 40
0.6
176
     1
 40
30.0
176
     1
 62
     7
420
 16777215
176
     1
 90
        1
176
     1
 90
        4
176
     1
 62
     7
176
     1
 62
   257
176
     1
 90
        1
176
     1
 90
        1
176
     1
 40
1.0
176
     1
 90
        8
176
     1
 62
     7
176
     1
 40
1.0
176
     1
 90
        1
176
     1
 90
        6
176
     1
 90
        2
176
     1
 62
     7
176
     1
 90
        5
176
     1
 90
        0
176
     1
 90
        0
176
     1
290
     0
176
     1
 90
        1
176
     1
 40
0.0
176
     1
 90
        0
176
     1
290
     0
176
     1
290
     1
176
     1
290
     1
176
     1
290
     0
176
     1
290
     0
176
     1
290
     0
176
     1
290
     0
176
     1
290
     0
176
     1
290
     0
176
     1
 90
       50
176
     1
 40
0.0
176
     1
 40
1.0
176
     1
 90
        0
176
     1
 62
    18
420
        0
176
     1
 90
       50
176
     1
 90
        3
176
     1
 62
     5
420
      255
176
     1
290
     0
176
     1
 90
       50
176
     1
 90
       50
176
     1
 90
       50
176
     1
290
     0
176
     1
 90
       50
176
     1
 62
   256
176
     0
 40
1.0
176
     0
 90
        2
176
     1
  1
strokes_ogs.tif
176
     1
290
     0
176
     1
 40
1.0
176
     1
 40
1.0
176
     1
  0
VISUALSTYLE
  5
2A
102
{ACAD_REACTORS
330
29
102
}
330
29
100
AcDbVisualStyle
  2
Flat
 70
     0
177
     3
291
     1
 70
    58
 90
        2
176
     1
 90
        1
176
     1
 90
        1
176
     1
 90
        2
176
     1
 40
0.6
176
     1
 40
30.0
176
     1
 62
     7
420
 16777215
176
     1
 90
        0
176
     1
 90
        0
176
     1
 62
     7
176
     1
 62
   257
176
     1
 90
        1
176
     1
 90
        1
176
     1
 40
1.0
176
     1
 90
        8
176
     1
 62
     7
176
     1
 40
1.0
176
     1
 90
        1
176
     1
 90
        6
176
     1
 90
        2
176
     1
 62
     7
176
     1
 90
        5
176
     1
 90
        0
176
     1
 90
        0
176
     1
290
     0
176
     1
 90
       13
176
     1
 40
0.0
176
     1
 90
        0
176
     1
290
     0
176
     1
290
     1
176
     1
290
     1
176
     1
290
     0
176
     1
290
     0
176
     1
290
     0
176
     1
290
     0
176
     1
290
     0
176
     1
290
     0
176
     1
 90
       50
176
     1
 40
0.0
176
     1
 40
1.0
176
     1
 90
        0
176
     1
 62
    18
420
        0
176
     1
 90
       50
176
     1
 90
        3
176
     1
 62
     5
420
      255
176
     1
290
     0
176
     1
 90
       50
176
     1
 90
       50
176
     1
 90
       50
176
     1
290
     0
176
     1
 90
       50
176
     1
 62
   256
176
     0
 40
1.0
176
     0
 90
        2
176
     1
  1
strokes_ogs.tif
176
     1
290
     0
176
     1
 40
1.0
176
     1
 40
1.0
176
     1
  0
VISUALSTYLE
  5
2B
102
{ACAD_REACTORS
330
29
102
}
330
29
100
AcDbVisualStyle
  2
FlatWithEdges
 70
     1
177
     3
291
     1
 70
    58
 90
        2
176
     1
 90
        1
176
     1
 90
        1
176
     1
 90
        2
176
     1
 40
0.6
176
     1
 40
30.0
176
     1
 62
     7
420
 16777215
176
     1
 90
        1
176
     1
 90
        0
176
     1
 62
     7
176
     1
 62
   257
176
     1
 90
        1
176
     1
 90
        1
176
     1
 40
1.0
176
     1
 90
        0
176
     1
 62
   257
176
     1
 40
1.0
176
     1
 90
        1
176
     1
 90
        6
176
     1
 90
        2
176
     1
 62
     7
176
     1
 90
        5
176
     1
 90
        0
176
     1
 90
        0
176
     1
290
     0
176
     1
 90
       13
176
     1
 40
0.0
176
     1
 90
        0
176
     1
290
     0
176
     1
290
     1
176
     1
290
     1
176
     1
290
     0
176
     1
290
     0
176
     1
290
     0
176
     1
290
     0
176
     1
290
     0
176
     1
290
     0
176
     1
 90
       50
176
     1
 40
0.0
176
     1
 40
1.0
176
     1
 90
        0
176
     1
 62
    18
420
        0
176
     1
 90
       50
176
     1
 90
        3
176
     1
 62
     5
420
      255
176
     1
290
     0
176
     1
 90
       50
176
     1
 90
       50
176
     1
 90
       50
176
     1
290
     0
176
     1
 90
       50
176
     1
 62
   256
176
     0
 40
1.0
176
     0
 90
        2
176
     1
  1
strokes_ogs.tif
176
     1
290
     0
176
     1
 40
1.0
176
     1
 40
1.0
176
     1
  0
VISUALSTYLE
  5
2C
102
{ACAD_REACTORS
330
29
102
}
330
29
100
AcDbVisualStyle
  2
Gouraud
 70
     2
177
     3
291
     1
 70
    58
 90
        2
176
     1
 90
        2
176
     1
 90
        1
176
     1
 90
        2
176
     1
 40
0.6
176
     1
 40
30.0
176
     1
 62
     7
420
 16777215
176
     1
 90
        0
176
     1
 90
        0
176
     1
 62
     7
176
     1
 62
   257
176
     1
 90
        1
176
     1
 90
        1
176
     1
 40
1.0
176
     1
 90
        0
176
     1
 62
     7
176
     1
 40
1.0
176
     1
 90
        1
176
     1
 90
        6
176
     1
 90
        2
176
     1
 62
     7
176
     1
 90
        5
176
     1
 90
        0
176
     1
 90
        0
176
     1
290
     0
176
     1
 90
       13
176
     1
 40
0.0
176
     1
 90
        0
176
     1
290
     0
176
     1
290
     1
176
     1
290
     1
176
     1
290
     0
176
     1
290
     0
176
     1
290
     0
176
     1
290
     0
176
     1
290
     0
176
     1
290
     0
176
     1
 90
       50
176
     1
 40
0.0
176
     1
 40
1.0
176
     1
 90
        0
176
     1
 62
    18
420
        0
176
     1
 90
       50
176
     1
 90
        3
176
     1
 62
     5
420
      255
176
     1
290
     0
176
     1
 90
       50
176
     1
 90
       50
176
     1
 90
       50
176
     1
290
     0
176
     1
 90
       50
176
     1
 62
   256
176
     0
 40
1.0
176
     0
 90
        2
176
     1
  1
strokes_ogs.tif
176
     1
290
     0
176
     1
 40
1.0
176
     1
 40
1.0
176
     1
  0
VISUALSTYLE
  5
2D
102
{ACAD_REACTORS
330
29
102
}
330
29
100
AcDbVisualStyle
  2
GouraudWithEdges
 70
     3
177
     3
291
     1
 70
    58
 90
        2
176
     1
 90
        2
176
     1
 90
        1
176
     1
 90
        2
176
     1
 40
0.6
176
     1
 40
30.0
176
     1
 62
     7
420
 16777215
176
     1
 90
        1
176
     1
 90
        0
176
     1
 62
     7
176
     1
 62
   257
176
     1
 90
        1
176
     1
 90
        1
176
     1
 40
1.0
176
     1
 90
        0
176
     1
 62
   257
176
     1
 40
1.0
176
     1
 90
        1
176
     1
 90
        6
176
     1
 90
        2
176
     1
 62
     7
176
     1
 90
        5
176
     1
 90
        0
176
     1
 90
        0
176
     1
290
     0
176
     1
 90
       13
176
     1
 40
0.0
176
     1
 90
        0
176
     1
290
     0
176
     1
290
     1
176
     1
290
     1
176
     1
290
     0
176
     1
290
     0
176
     1
290
     0
176
     1
290
     0
176
     1
290
     0
176
     1
290
     0
176
     1
 90
       50
176
     1
 40
0.0
176
     1
 40
1.0
176
     1
 90
        0
176
     1
 62
    18
420
        0
176
     1
 90
       50
176
     1
 90
        3
176
     1
 62
     5
420
      255
176
     1
290
     0
176
     1
 90
       50
176
     1
 90
       50
176
     1
 90
       50
176
     1
290
     0
176
     1
 90
       50
176
     1
 62
   256
176
     0
 40
1.0
176
     0
 90
        2
176
     1
  1
strokes_ogs.tif
176
     1
290
     0
176
     1
 40
1.0
176
     1
 40
1.0
176
     1
  0
VISUALSTYLE
  5
31
102
{ACAD_REACTORS
330
29
102
}
330
29
100
AcDbVisualStyle
  2
Hidden
 70
     6
177
     3
291
     0
 70
    58
 90
        1
176
     1
 90
        2
176
     1
 90
        2
176
     1
 90
        0
176
     1
 40
0.6
176
     1
 40
30.0
176
     1
 62
     7
420
 16777215
176
     1
 90
        2
176
     1
 90
        2
176
     1
 62
     7
176
     1
 62
   257
176
     1
 90
        2
176
     1
 90
        1
176
     1
 40
40.0
176
     1
 90
        0
176
     1
 62
   257
176
     1
 40
1.0
176
     1
 90
        1
176
     1
 90
        6
176
     1
 90
        2
176
     1
 62
     7
176
     1
 90
        3
176
     1
 90
        0
176
     1
 90
        0
176
     1
290
     0
176
     1
 90
        1
176
     1
 40
0.0
176
     1
 90
        0
176
     1
290
     0
176
     1
290
     1
176
     1
290
     1
176
     1
290
     0
176
     1
290
     0
176
     1
290
     0
176
     1
290
     0
176
     1
290
     0
176
     1
290
     0
176
     1
 90
       50
176
     1
 40
0.0
176
     1
 40
1.0
176
     1
 90
        0
176
     1
 62
    18
420
        0
176
     1
 90
       50
176
     1
 90
        3
176
     1
 62
     5
420
      255
176
     1
290
     0
176
     1
 90
       50
176
     1
 90
       50
176
     1
 90
       50
176
     1
290
     0
176
     1
 90
       50
176
     1
 62
   256
176
     0
 40
1.0
176
     0
 90
        2
176
     1
  1
strokes_ogs.tif
176
     1
290
     0
176
     1
 40
1.0
176
     1
 40
1.0
176
     1
  0
VISUALSTYLE
  5
3F
102
{ACAD_REACTORS
330
29
102
}
330
29
100
AcDbVisualStyle
  2
JitterOff
 70
    20
177
     3
291
     1
 70
    58
 90
        2
176
     0
 90
        2
176
     0
 90
        0
176
     0
 90
        0
176
     0
 40
0.6
176
     0
 40
30.0
176
     0
 62
     7
420
 16777215
176
     0
 90
        1
176
     0
 90
        4
176
     0
 62
     7
176
     0
 62
   257
176
     0
 90
        1
176
     0
 90
        1
176
     0
 40
1.0
176
     0
 90
       10
176
     2
 62
     7
176
     0
 40
1.0
176
     0
 90
        1
176
     0
 90
        6
176
     0
 90
        2
176
     0
 62
     7
176
     0
 90
        5
176
     0
 90
        0
176
     0
 90
        0
176
     0
290
     0
176
     0
 90
        1
176
     0
 40
0.0
176
     0
 90
        0
176
     0
290
     0
176
     0
290
     1
176
     0
290
     1
176
     0
290
     0
176
     0
290
     0
176
     0
290
     0
176
     0
290
     0
176
     0
290
     0
176
     0
290
     0
176
     0
 90
       50
176
     0
 40
0.0
176
     0
 40
1.0
176
     0
 90
        0
176
     0
 62
    18
420
        0
176
     0
 90
       50
176
     0
 90
        3
176
     0
 62
     5
420
      255
176
     0
290
     0
176
     0
 90
       50
176
     0
 90
       50
176
     0
 90
       50
176
     0
290
     0
176
     0
 90
       50
176
     0
 62
   256
176
     0
 40
1.0
176
     0
 90
        2
176
     0
  1
strokes_ogs.tif
176
     0
290
     0
176
     0
 40
1.0
176
     0
 40
1.0
176
     0
  0
VISUALSTYLE
  5
37
102
{ACAD_REACTORS
330
29
102
}
330
29
100
AcDbVisualStyle
  2
Linepattern
 70
    14
177
     3
291
     1
 70
    58
 90
        2
176
     1
 90
        2
176
     1
 90
        0
176
     1
 90
        0
176
     1
 40
0.6
176
     1
 40
30.0
176
     1
 62
     7
420
 16777215
176
     1
 90
        1
176
     1
 90
        4
176
     1
 62
     7
176
     1
 62
   257
176
     1
 90
        7
176
     1
 90
        7
176
     1
 40
1.0
176
     1
 90
        8
176
     1
 62
     7
176
     1
 40
1.0
176
     1
 90
        1
176
     1
 90
        6
176
     1
 90
        2
176
     1
 62
     7
176
     1
 90
        5
176
     1
 90
        0
176
     1
 90
        0
176
     1
290
     0
176
     1
 90
        1
176
     1
 40
0.0
176
     1
 90
        0
176
     1
290
     0
176
     1
290
     1
176
     1
290
     1
176
     1
290
     0
176
     1
290
     0
176
     1
290
     0
176
     1
290
     0
176
     1
290
     0
176
     1
290
     0
176
     1
 90
       50
176
     1
 40
0.0
176
     1
 40
1.0
176
     1
 90
        0
176
     1
 62
    18
420
        0
176
     1
 90
       50
176
     1
 90
        3
176
     1
 62
     5
420
      255
176
     1
290
     0
176
     1
 90
       50
176
     1
 90
       50
176
     1
 90
       50
176
     1
290
     0
176
     1
 90
       50
176
     1
 62
   256
176
     0
 40
1.0
176
     0
 90
        2
176
     1
  1
strokes_ogs.tif
176
     1
290
     0
176
     1
 40
1.0
176
     1
 40
1.0
176
     1
  0
VISUALSTYLE
  5
40
102
{ACAD_REACTORS
330
29
102
}
330
29
100
AcDbVisualStyle
  2
OverhangOff
 70
    21
177
     3
291
     1
 70
    58
 90
        2
176
     0
 90
        2
176
     0
 90
        0
176
     0
 90
        0
176
     0
 40
0.6
176
     0
 40
30.0
176
     0
 62
     7
420
 16777215
176
     0
 90
        1
176
     0
 90
        4
176
     0
 62
     7
176
     0
 62
   257
176
     0
 90
        1
176
     0
 90
        1
176
     0
 40
1.0
176
     0
 90
        9
176
     2
 62
     7
176
     0
 40
1.0
176
     0
 90
        1
176
     0
 90
        6
176
     0
 90
        2
176
     0
 62
     7
176
     0
 90
        5
176
     0
 90
        0
176
     0
 90
        0
176
     0
290
     0
176
     0
 90
        1
176
     0
 40
0.0
176
     0
 90
        0
176
     0
290
     0
176
     0
290
     1
176
     0
290
     1
176
     0
290
     0
176
     0
290
     0
176
     0
290
     0
176
     0
290
     0
176
     0
290
     0
176
     0
290
     0
176
     0
 90
       50
176
     0
 40
0.0
176
     0
 40
1.0
176
     0
 90
        0
176
     0
 62
    18
420
        0
176
     0
 90
       50
176
     0
 90
        3
176
     0
 62
     5
420
      255
176
     0
290
     0
176
     0
 90
       50
176
     0
 90
       50
176
     0
 90
       50
176
     0
290
     0
176
     0
 90
       50
176
     0
 62
   256
176
     0
 40
1.0
176
     0
 90
        2
176
     0
  1
strokes_ogs.tif
176
     0
290
     0
176
     0
 40
1.0
176
     0
 40
1.0
176
     0
  0
VISUALSTYLE
  5
33
102
{ACAD_REACTORS
330
29
102
}
330
29
100
AcDbVisualStyle
  2
Realistic
 70
     8
177
     3
291
     0
 70
    58
 90
        2
176
     1
 90
        3
176
     1
 90
        0
176
     1
 90
        2
176
     1
 40
0.6
176
     1
 40
30.0
176
     1
 62
     7
420
 16777215
176
     1
 90
        0
176
     1
 90
        0
176
     1
 62
     7
176
     1
 62
   257
176
     1
 90
        1
176
     1
 90
        1
176
     1
 40
1.0
176
     1
 90
        8
176
     1
 62
   257
176
     1
 40
1.0
176
     1
 90
        1
176
     1
 90
        6
176
     1
 90
        2
176
     1
 62
     7
176
     1
 90
        3
176
     1
 90
        0
176
     1
 90
        0
176
     1
290
     0
176
     1
 90
       13
176
     1
 40
0.0
176
     1
 90
        0
176
     1
290
     0
176
     1
290
     1
176
     1
290
     1
176
     1
290
     0
176
     1
290
     0
176
     1
290
     0
176
     1
290
     0
176
     1
290
     0
176
     1
290
     0
176
     1
 90
       50
176
     1
 40
0.0
176
     1
 40
1.0
176
     1
 90
        0
176
     1
 62
    18
420
        0
176
     1
 90
       50
176
     1
 90
        3
176
     1
 62
     5
420
      255
176
     1
290
     0
176
     1
 90
       50
176
     1
 90
       50
176
     1
 90
       50
176
     1
290
     0
176
     1
 90
       50
176
     1
 62
   256
176
     0
 40
1.0
176
     0
 90
        2
176
     1
  1
strokes_ogs.tif
176
     1
290
     0
176
     1
 40
1.0
176
     1
 40
1.0
176
     1
  0
VISUALSTYLE
  5
3E
102
{ACAD_REACTORS
330
29
102
}
330
29
100
AcDbVisualStyle
  2
Shaded
 70
    27
177
     3
291
     0
 70
    58
 90
        2
176
     1
 90
        2
176
     1
 90
        1
176
     1
 90
        2
176
     1
 40
0.6
176
     1
 40
30.0
176
     1
 62
     7
420
 16777215
176
     1
 90
        0
176
     1
 90
        4
176
     1
 62
     7
176
     1
 62
   257
176
     1
 90
        1
176
     1
 90
        1
176
     1
 40
1.0
176
     1
 90
        8
176
     1
 62
   257
176
     1
 40
1.0
176
     1
 90
        1
176
     1
 90
        6
176
     1
 90
        2
176
     1
 62
     8
420
  7895160
176
     1
 90
        3
176
     1
 90
        0
176
     1
 90
        0
176
     1
290
     0
176
     1
 90
        5
176
     1
 40
0.0
176
     1
 90
        0
176
     1
290
     0
176
     1
290
     1
176
     1
290
     1
176
     1
290
     0
176
     1
290
     0
176
     1
290
     0
176
     1
290
     0
176
     1
290
     0
176
     1
290
     0
176
     1
 90
       50
176
     1
 40
0.0
176
     1
 40
1.0
176
     1
 90
        0
176
     1
 62
    18
420
        0
176
     1
 90
       50
176
     1
 90
        3
176
     1
 62
     5
420
      255
176
     1
290
     0
176
     1
 90
       50
176
     1
 90
       50
176
     1
 90
       50
176
     1
290
     0
176
     1
 90
       50
176
     1
 62
   256
176
     0
 40
1.0
176
     0
 90
        2
176
     1
  1
strokes_ogs.tif
176
     1
290
     0
176
     1
 40
1.0
176
     1
 40
1.0
176
     1
  0
VISUALSTYLE
  5
3D
102
{ACAD_REACTORS
330
29
102
}
330
29
100
AcDbVisualStyle
  2
Shaded with edges
 70
    26
177
     3
291
     0
 70
    58
 90
        2
176
     1
 90
        2
176
     1
 90
        1
176
     1
 90
        2
176
     1
 40
0.6
176
     1
 40
30.0
176
     1
 62
     7
420
 16777215
176
     1
 90
        1
176
     1
 90
        2
176
     1
 62
     7
176
     1
 62
   257
176
     1
 90
        2
176
     1
 90
        1
176
     1
 40
1.0
176
     1
 90
        8
176
     1
 62
   257
176
     1
 40
1.0
176
     1
 90
        1
176
     1
 90
        6
176
     1
 90
        2
176
     1
 62
     7
176
     1
 90
        3
176
     1
 90
        0
176
     1
 90
        0
176
     1
290
     0
176
     1
 90
        5
176
     1
 40
0.0
176
     1
 90
        0
176
     1
290
     0
176
     1
290
     1
176
     1
290
     1
176
     1
290
     0
176
     1
290
     0
176
     1
290
     0
176
     1
290
     0
176
     1
290
     0
176
     1
290
     0
176
     1
 90
       50
176
     1
 40
0.0
176
     1
 40
1.0
176
     1
 90
        0
176
     1
 62
    18
420
        0
176
     1
 90
       50
176
     1
 90
        3
176
     1
 62
     5
420
      255
176
     1
290
     0
176
     1
 90
       50
176
     1
 90
       50
176
     1
 90
       50
176
     1
290
     0
176
     1
 90
       50
176
     1
 62
   256
176
     0
 40
1.0
176
     0
 90
        2
176
     1
  1
strokes_ogs.tif
176
     1
290
     0
176
     1
 40
1.0
176
     1
 40
1.0
176
     1
  0
VISUALSTYLE
  5
3A
102
{ACAD_REACTORS
330
29
102
}
330
29
100
AcDbVisualStyle
  2
Shades of Gray
 70
    23
177
     3
291
     0
 70
    58
 90
        2
176
     1
 90
        2
176
     1
 90
        3
176
     1
 90
        0
176
     1
 40
0.6
176
     1
 40
30.0
176
     1
 62
     7
420
 16777215
176
     1
 90
        2
176
     1
 90
        2
176
     1
 62
     7
176
     1
 62
     7
176
     1
 90
        1
176
     1
 90
        1
176
     1
 40
40.0
176
     1
 90
        8
176
     1
 62
     7
176
     1
 40
1.0
176
     1
 90
        1
176
     1
 90
        6
176
     1
 90
        2
176
     1
 62
     7
176
     1
 90
        3
176
     1
 90
        0
176
     1
 90
        0
176
     1
290
     0
176
     1
 90
        1
176
     1
 40
0.0
176
     1
 90
        0
176
     1
290
     0
176
     1
290
     1
176
     1
290
     1
176
     1
290
     0
176
     1
290
     0
176
     1
290
     0
176
     1
290
     0
176
     1
290
     0
176
     1
290
     0
176
     1
 90
       50
176
     1
 40
0.0
176
     1
 40
1.0
176
     1
 90
        0
176
     1
 62
    18
420
        0
176
     1
 90
       50
176
     1
 90
        3
176
     1
 62
     5
420
      255
176
     1
290
     0
176
     1
 90
       50
176
     1
 90
       50
176
     1
 90
       50
176
     1
290
     0
176
     1
 90
       50
176
     1
 62
   256
176
     0
 40
1.0
176
     0
 90
        2
176
     1
  1
strokes_ogs.tif
176
     1
290
     0
176
     1
 40
1.0
176
     1
 40
1.0
176
     1
  0
VISUALSTYLE
  5
3B
102
{ACAD_REACTORS
330
29
102
}
330
29
100
AcDbVisualStyle
  2
Sketchy
 70
    24
177
     3
291
     0
 70
    58
 90
        1
176
     1
 90
        2
176
     1
 90
        2
176
     1
 90
        0
176
     1
 40
0.6
176
     1
 40
30.0
176
     1
 62
     7
420
 16777215
176
     1
 90
        2
176
     1
 90
        2
176
     1
 62
     7
176
     1
 62
     7
176
     1
 90
        1
176
     1
 90
        1
176
     1
 40
40.0
176
     1
 90
       11
176
     1
 62
     7
176
     1
 40
1.0
176
     1
 90
        1
176
     1
 90
        6
176
     1
 90
        2
176
     1
 62
     7
176
     1
 90
        6
176
     1
 90
        0
176
     1
 90
        0
176
     1
290
     0
176
     1
 90
        1
176
     1
 40
0.0
176
     1
 90
        0
176
     1
290
     0
176
     1
290
     1
176
     1
290
     1
176
     1
290
     0
176
     1
290
     0
176
     1
290
     0
176
     1
290
     0
176
     1
290
     0
176
     1
290
     0
176
     1
 90
       50
176
     1
 40
0.0
176
     1
 40
1.0
176
     1
 90
        0
176
     1
 62
    18
420
        0
176
     1
 90
       50
176
     1
 90
        3
176
     1
 62
     5
420
      255
176
     1
290
     0
176
     1
 90
       50
176
     1
 90
       50
176
     1
 90
       50
176
     1
290
     0
176
     1
 90
       50
176
     1
 62
   256
176
     0
 40
1.0
176
     0
 90
        2
176
     1
  1
strokes_ogs.tif
176
     1
290
     0
176
     1
 40
1.0
176
     1
 40
1.0
176
     1
  0
VISUALSTYLE
  5
36
102
{ACAD_REACTORS
330
29
102
}
330
29
100
AcDbVisualStyle
  2
Thicken
 70
    13
177
     3
291
     1
 70
    58
 90
        2
176
     1
 90
        2
176
     1
 90
        0
176
     1
 90
        0
176
     1
 40
0.6
176
     1
 40
30.0
176
     1
 62
     7
420
 16777215
176
     1
 90
        1
176
     1
 90
        4
176
     1
 62
     7
176
     1
 62
   257
176
     1
 90
        1
176
     1
 90
        1
176
     1
 40
1.0
176
     1
 90
       12
176
     1
 62
     7
176
     1
 40
1.0
176
     1
 90
        1
176
     1
 90
        6
176
     1
 90
        2
176
     1
 62
     7
176
     1
 90
        5
176
     1
 90
        0
176
     1
 90
        0
176
     1
290
     0
176
     1
 90
        1
176
     1
 40
0.0
176
     1
 90
        0
176
     1
290
     0
176
     1
290
     1
176
     1
290
     1
176
     1
290
     0
176
     1
290
     0
176
     1
290
     0
176
     1
290
     0
176
     1
290
     0
176
     1
290
     0
176
     1
 90
       50
176
     1
 40
0.0
176
     1
 40
1.0
176
     1
 90
        0
176
     1
 62
    18
420
        0
176
     1
 90
       50
176
     1
 90
        3
176
     1
 62
     5
420
      255
176
     1
290
     0
176
     1
 90
       50
176
     1
 90
       50
176
     1
 90
       50
176
     1
290
     0
176
     1
 90
       50
176
     1
 62
   256
176
     0
 40
1.0
176
     0
 90
        2
176
     1
  1
strokes_ogs.tif
176
     1
290
     0
176
     1
 40
1.0
176
     1
 40
1.0
176
     1
  0
VISUALSTYLE
  5
30
102
{ACAD_REACTORS
330
29
102
}
330
29
100
AcDbVisualStyle
  2
Wireframe
 70
     5
177
     3
291
     0
 70
    58
 90
        0
176
     1
 90
        2
176
     1
 90
        0
176
     1
 90
        0
176
     1
 40
0.6
176
     1
 40
30.0
176
     1
 62
     7
420
 16777215
176
     1
 90
        1
176
     1
 90
        4
176
     1
 62
     7
176
     1
 62
   257
176
     1
 90
        1
176
     1
 90
        1
176
     1
 40
1.0
176
     1
 90
        0
176
     1
 62
   257
176
     1
 40
1.0
176
     1
 90
        1
176
     1
 90
        6
176
     1
 90
        2
176
     1
 62
     7
176
     1
 90
        3
176
     1
 90
        0
176
     1
 90
        0
176
     1
290
     0
176
     1
 90
        1
176
     1
 40
0.0
176
     1
 90
        0
176
     1
290
     0
176
     1
290
     1
176
     1
290
     1
176
     1
290
     0
176
     1
290
     0
176
     1
290
     0
176
     1
290
     0
176
     1
290
     0
176
     1
290
     0
176
     1
 90
       50
176
     1
 40
0.0
176
     1
 40
1.0
176
     1
 90
        0
176
     1
 62
    18
420
        0
176
     1
 90
       50
176
     1
 90
        3
176
     1
 62
     5
420
      255
176
     1
290
     0
176
     1
 90
       50
176
     1
 90
       50
176
     1
 90
       50
176
     1
290
     0
176
     1
 90
       50
176
     1
 62
   256
176
     0
 40
1.0
176
     0
 90
        2
176
     1
  1
strokes_ogs.tif
176
     1
290
     0
176
     1
 40
1.0
176
     1
 40
1.0
176
     1
  0
VISUALSTYLE
  5
3C
102
{ACAD_REACTORS
330
29
102
}
330
29
100
AcDbVisualStyle
  2
X-Ray
 70
    25
177
     3
291
     0
 70
    58
 90
        2
176
     1
 90
        2
176
     1
 90
        1
176
     1
 90
        1
176
     1
 40
0.5
176
     1
 40
30.0
176
     1
 62
     7
420
 16777215
176
     1
 90
        1
176
     1
 90
        0
176
     1
 62
     7
176
     1
 62
   257
176
     1
 90
        1
176
     1
 90
        1
176
     1
 40
1.0
176
     1
 90
        8
176
     1
 62
     7
176
     1
 40
1.0
176
     1
 90
        1
176
     1
 90
        6
176
     1
 90
        2
176
     1
 62
     7
176
     1
 90
        3
176
     1
 90
        0
176
     1
 90
        0
176
     1
290
     0
176
     1
 90
       13
176
     1
 40
0.0
176
     1
 90
        0
176
     1
290
     0
176
     1
290
     1
176
     1
290
     1
176
     1
290
     0
176
     1
290
     0
176
     1
290
     0
176
     1
290
     0
176
     1
290
     0
176
     1
290
     0
176
     1
 90
       50
176
     1
 40
0.0
176
     1
 40
1.0
176
     1
 90
        0
176
     1
 62
    18
420
        0
176
     1
 90
       50
176
     1
 90
        3
176
     1
 62
     5
420
      255
176
     1
290
     0
176
     1
 90
       50
176
     1
 90
       50
176
     1
 90
       50
176
     1
290
     0
176
     1
 90
       50
176
     1
 62
   256
176
     0
 40
1.0
176
     0
 90
        2
176
     1
  1
strokes_ogs.tif
176
     1
290
     0
176
     1
 40
1.0
176
     1
 40
1.0
176
     1
  0
DICTIONARYVAR
  5
91
102
{ACAD_REACTORS
330
8C
102
}
330
8C
100
DictionaryVariables
280
     0
  1
1:1
  0
DICTIONARYVAR
  5
8E
102
{ACAD_REACTORS
330
8C
102
}
330
8C
100
DictionaryVariables
280
     0
  1
STANDARD
  0
DICTIONARYVAR
  5
8D
102
{ACAD_REACTORS
330
8C
102
}
330
8C
100
DictionaryVariables
280
     0
  1
STANDARD
  0
DICTIONARYVAR
  5
8F
102
{ACAD_REACTORS
330
8C
102
}
330
8C
100
DictionaryVariables
280
     0
  1
Imperial24
  0
DICTIONARYVAR
  5
90
102
{ACAD_REACTORS
330
8C
102
}
330
8C
100
DictionaryVariables
280
     0
  1
Imperial24
  0
DICTIONARY
  5
1A
330
19
100
AcDbDictionary
280
     1
281
     1
  3
BUMPTILE
360
1C
  3
DIFFUSETILE
360
1B
  3
OPACITYTILE
360
1F
  3
REFLECTIONTILE
360
1E
  3
REFRACTIONTILE
360
20
  3
SPECULARTILE
360
1D
  0
DICTIONARY
  5
12
330
11
100
AcDbDictionary
280
     1
281
     1
  3
BUMPTILE
360
14
  3
DIFFUSETILE
360
13
  3
OPACITYTILE
360
17
  3
REFLECTIONTILE
360
16
  3
REFRACTIONTILE
360
18
  3
SPECULARTILE
360
15
  0
DICTIONARY
  5
22
330
21
100
AcDbDictionary
280
     1
281
     1
  3
BUMPTILE
360
24
  3
DIFFUSETILE
360
23
  3
OPACITYTILE
360
27
  3
REFLECTIONTILE
360
26
  3
REFRACTIONTILE
360
28
  3
SPECULARTILE
360
25
  0
DICTIONARY
  5
92
330
65
100
AcDbDictionary
280
     1
281
     1
  3
ACAD_ROUNDTRIP_2008_TABLESTYLE_CELLSTYLEMAP
360
93
  0
XRECORD
  5
1C
102
{ACAD_REACTORS
330
1A
102
}
330
1A
100
AcDbXrecord
280
     1
270
     1
271
     1
  0
XRECORD
  5
1B
102
{ACAD_REACTORS
330
1A
102
}
330
1A
100
AcDbXrecord
280
     1
270
     1
271
     1
  0
XRECORD
  5
1F
102
{ACAD_REACTORS
330
1A
102
}
330
1A
100
AcDbXrecord
280
     1
270
     1
271
     1
  0
XRECORD
  5
1E
102
{ACAD_REACTORS
330
1A
102
}
330
1A
100
AcDbXrecord
280
     1
270
     1
271
     1
  0
XRECORD
  5
20
102
{ACAD_REACTORS
330
1A
102
}
330
1A
100
AcDbXrecord
280
     1
270
     1
271
     1
  0
XRECORD
  5
1D
102
{ACAD_REACTORS
330
1A
102
}
330
1A
100
AcDbXrecord
280
     1
270
     1
271
     1
  0
XRECORD
  5
14
102
{ACAD_REACTORS
330
12
102
}
330
12
100
AcDbXrecord
280
     1
270
     1
271
     1
  0
XRECORD
  5
13
102
{ACAD_REACTORS
330
12
102
}
330
12
100
AcDbXrecord
280
     1
270
     1
271
     1
  0
XRECORD
  5
17
102
{ACAD_REACTORS
330
12
102
}
330
12
100
AcDbXrecord
280
     1
270
     1
271
     1
  0
XRECORD
  5
16
102
{ACAD_REACTORS
330
12
102
}
330
12
100
AcDbXrecord
280
     1
270
     1
271
     1
  0
XRECORD
  5
18
102
{ACAD_REACTORS
330
12
102
}
330
12
100
AcDbXrecord
280
     1
270
     1
271
     1
  0
XRECORD
  5
15
102
{ACAD_REACTORS
330
12
102
}
330
12
100
AcDbXrecord
280
     1
270
     1
271
     1
  0
XRECORD
  5
24
102
{ACAD_REACTORS
330
22
102
}
330
22
100
AcDbXrecord
280
     1
270
     1
271
     1
  0
XRECORD
  5
23
102
{ACAD_REACTORS
330
22
102
}
330
22
100
AcDbXrecord
280
     1
270
     1
271
     1
  0
XRECORD
  5
27
102
{ACAD_REACTORS
330
22
102
}
330
22
100
AcDbXrecord
280
     1
270
     1
271
     1
  0
XRECORD
  5
26
102
{ACAD_REACTORS
330
22
102
}
330
22
100
AcDbXrecord
280
     1
270
     1
271
     1
  0
XRECORD
  5
28
102
{ACAD_REACTORS
330
22
102
}
330
22
100
AcDbXrecord
280
     1
270
     1
271
     1
  0
XRECORD
  5
25
102
{ACAD_REACTORS
330
22
102
}
330
22
100
AcDbXrecord
280
     1
270
     1
271
     1
  0
CELLSTYLEMAP
  5
93
102
{ACAD_REACTORS
330
92
102
}
330
92
100
AcDbCellStyleMap
 90
        3
300
CELLSTYLE
  1
TABLEFORMAT_BEGIN
 90
        5
170
     1
 91
        0
 92
    32768
 62
   257
 93
        1
300
CONTENTFORMAT
  1
CONTENTFORMAT_BEGIN
 90
        0
 91
        0
 92
      512
 93
        0
300

 40
0.0
140
1.0
 94
        5
 62
     0
340
55
144
0.25
309
CONTENTFORMAT_END
171
     0
 94
        0
309
TABLEFORMAT_END
  1
CELLSTYLE_BEGIN
 90
        1
 91
        1
300
_TITLE
309
CELLSTYLE_END
300
CELLSTYLE
  1
TABLEFORMAT_BEGIN
 90
        5
170
     1
 91
        0
 92
        0
 62
   257
 93
        1
300
CONTENTFORMAT
  1
CONTENTFORMAT_BEGIN
 90
        0
 91
        0
 92
      512
 93
        0
300

 40
0.0
140
1.0
 94
        5
 62
     0
340
55
144
0.18
309
CONTENTFORMAT_END
171
     0
 94
        0
309
TABLEFORMAT_END
  1
CELLSTYLE_BEGIN
 90
        2
 91
        1
300
_HEADER
309
CELLSTYLE_END
300
CELLSTYLE
  1
TABLEFORMAT_BEGIN
 90
        5
170
     1
 91
        0
 92
        0
 62
   257
 93
        1
300
CONTENTFORMAT
  1
CONTENTFORMAT_BEGIN
 90
        0
 91
        0
 92
      512
 93
        0
300

 40
0.0
140
1.0
 94
        2
 62
     0
340
55
144
0.18
309
CONTENTFORMAT_END
171
     0
 94
        0
309
TABLEFORMAT_END
  1
CELLSTYLE_BEGIN
 90
        3
 91
        2
300
_DATA
309
CELLSTYLE_END
  0
ENDSEC
  0
EOF
