%TF.GenerationSoftware,KiCad,Pcbnew,(6.0.2)*%
%TF.CreationDate,2022-04-02T19:10:38-07:00*%
%TF.ProjectId,DaftPunkTopLayerLeftBoard,44616674-5075-46e6-9b54-6f704c617965,rev?*%
%TF.SameCoordinates,Original*%
%TF.FileFunction,Legend,Top*%
%TF.FilePolarity,Positive*%
%FSLAX46Y46*%
G04 Gerber Fmt 4.6, Leading zero omitted, Abs format (unit mm)*
G04 Created by KiCad (PCBNEW (6.0.2)) date 2022-04-02 19:10:38*
%MOMM*%
%LPD*%
G01*
G04 APERTURE LIST*
%ADD10C,0.350000*%
%ADD11C,0.150000*%
G04 APERTURE END LIST*
D10*
X104363889Y-281668334D02*
X104101854Y-281362686D01*
X103848577Y-281060800D01*
X103603998Y-280763044D01*
X103368057Y-280469783D01*
X103140694Y-280181386D01*
X102921851Y-279898220D01*
X102609429Y-279484080D01*
X102315841Y-279083774D01*
X102040886Y-278698541D01*
X101784363Y-278329620D01*
X101546072Y-277978249D01*
X101325811Y-277645669D01*
X101188889Y-277435000D01*
X87425000Y-218513888D02*
X87535241Y-218128036D01*
X87645484Y-217742186D01*
X87755728Y-217356336D01*
X87865972Y-216970486D01*
X87976215Y-216584636D01*
X88086458Y-216198784D01*
X88130555Y-216044444D01*
X101188889Y-277435000D02*
X101123612Y-277056575D01*
X101059855Y-276682638D01*
X100997604Y-276313259D01*
X100936842Y-275948512D01*
X100877554Y-275588468D01*
X100819725Y-275233201D01*
X100763339Y-274882782D01*
X100654836Y-274196780D01*
X100551922Y-273531043D01*
X100454473Y-272886148D01*
X100362367Y-272262677D01*
X100275480Y-271661207D01*
X100193690Y-271082320D01*
X100116873Y-270526593D01*
X100044907Y-269994607D01*
X99977667Y-269486942D01*
X99915031Y-269004176D01*
X99856877Y-268546889D01*
X99803080Y-268115661D01*
X99777778Y-267910000D01*
D11*
X88000000Y-216400000D02*
X87966837Y-216445918D01*
X87966837Y-216445918D02*
X87500000Y-218500000D01*
X87500000Y-218500000D02*
X88100000Y-218600000D01*
X88100000Y-218600000D02*
X88600000Y-218866666D01*
X88600000Y-218866666D02*
X88836111Y-219219444D01*
X88836111Y-219219444D02*
X89300000Y-223000000D01*
X89300000Y-223000000D02*
X89700000Y-227500000D01*
X89700000Y-227500000D02*
X90000000Y-231600000D01*
X90000000Y-231600000D02*
X90100000Y-236700000D01*
X90100000Y-236700000D02*
X89900000Y-243400000D01*
X89900000Y-243400000D02*
X89500000Y-243300000D01*
X89500000Y-243300000D02*
X89000000Y-243200000D01*
X89000000Y-243200000D02*
X88700000Y-243300000D01*
X88700000Y-243300000D02*
X88483333Y-243561111D01*
X88483333Y-243561111D02*
X88200000Y-246300000D01*
X88200000Y-246300000D02*
X87900000Y-249600000D01*
X87900000Y-249600000D02*
X87700000Y-252700000D01*
X87700000Y-252700000D02*
X87700000Y-255300000D01*
X87700000Y-255300000D02*
X87600000Y-256500000D01*
X87600000Y-256500000D02*
X87500000Y-256800000D01*
X87500000Y-256800000D02*
X87425000Y-256966666D01*
X87425000Y-256966666D02*
X87100000Y-256800000D01*
X87100000Y-256800000D02*
X86600000Y-256300000D01*
X86600000Y-256300000D02*
X85400000Y-254300000D01*
X85400000Y-254300000D02*
X84300000Y-251600000D01*
X84300000Y-251600000D02*
X83400000Y-249300000D01*
X83400000Y-249300000D02*
X82700000Y-246700000D01*
X82700000Y-246700000D02*
X81900000Y-242600000D01*
X81900000Y-242600000D02*
X81600000Y-239100000D01*
X81600000Y-239100000D02*
X81600000Y-235100000D01*
X81600000Y-235100000D02*
X81700000Y-233600000D01*
X81700000Y-233600000D02*
X82100000Y-230600000D01*
X82100000Y-230600000D02*
X82500000Y-228900000D01*
X82500000Y-228900000D02*
X83200000Y-226300000D01*
X83200000Y-226300000D02*
X84000000Y-223800000D01*
X84000000Y-223800000D02*
X84800000Y-221900000D01*
X84800000Y-221900000D02*
X85800000Y-220100000D01*
X85800000Y-220100000D02*
X86700000Y-218200000D01*
X86700000Y-218200000D02*
X87966837Y-216445918D01*
X87966837Y-216445918D02*
X88000000Y-216300000D01*
X88000000Y-216300000D02*
X88000000Y-216400000D01*
G36*
X88000000Y-216400000D02*
G01*
X87966837Y-216445918D01*
X87500000Y-218500000D01*
X88100000Y-218600000D01*
X88600000Y-218866666D01*
X88836111Y-219219444D01*
X89300000Y-223000000D01*
X89700000Y-227500000D01*
X90000000Y-231600000D01*
X90100000Y-236700000D01*
X89900000Y-243400000D01*
X89500000Y-243300000D01*
X89000000Y-243200000D01*
X88700000Y-243300000D01*
X88483333Y-243561111D01*
X88200000Y-246300000D01*
X87900000Y-249600000D01*
X87700000Y-252700000D01*
X87700000Y-255300000D01*
X87600000Y-256500000D01*
X87500000Y-256800000D01*
X87425000Y-256966666D01*
X87100000Y-256800000D01*
X86600000Y-256300000D01*
X85400000Y-254300000D01*
X84300000Y-251600000D01*
X83400000Y-249300000D01*
X82700000Y-246700000D01*
X81900000Y-242600000D01*
X81600000Y-239100000D01*
X81600000Y-235100000D01*
X81700000Y-233600000D01*
X82100000Y-230600000D01*
X82500000Y-228900000D01*
X83200000Y-226300000D01*
X84000000Y-223800000D01*
X84800000Y-221900000D01*
X85800000Y-220100000D01*
X86700000Y-218200000D01*
X87966837Y-216445918D01*
X88000000Y-216300000D01*
X88000000Y-216400000D01*
G37*
X88000000Y-216400000D02*
X87966837Y-216445918D01*
X87500000Y-218500000D01*
X88100000Y-218600000D01*
X88600000Y-218866666D01*
X88836111Y-219219444D01*
X89300000Y-223000000D01*
X89700000Y-227500000D01*
X90000000Y-231600000D01*
X90100000Y-236700000D01*
X89900000Y-243400000D01*
X89500000Y-243300000D01*
X89000000Y-243200000D01*
X88700000Y-243300000D01*
X88483333Y-243561111D01*
X88200000Y-246300000D01*
X87900000Y-249600000D01*
X87700000Y-252700000D01*
X87700000Y-255300000D01*
X87600000Y-256500000D01*
X87500000Y-256800000D01*
X87425000Y-256966666D01*
X87100000Y-256800000D01*
X86600000Y-256300000D01*
X85400000Y-254300000D01*
X84300000Y-251600000D01*
X83400000Y-249300000D01*
X82700000Y-246700000D01*
X81900000Y-242600000D01*
X81600000Y-239100000D01*
X81600000Y-235100000D01*
X81700000Y-233600000D01*
X82100000Y-230600000D01*
X82500000Y-228900000D01*
X83200000Y-226300000D01*
X84000000Y-223800000D01*
X84800000Y-221900000D01*
X85800000Y-220100000D01*
X86700000Y-218200000D01*
X87966837Y-216445918D01*
X88000000Y-216300000D01*
X88000000Y-216400000D01*
D10*
X243000000Y-89044444D02*
X243000000Y-89805121D01*
X243000000Y-90565798D01*
X243000000Y-91326475D01*
X243000000Y-92087152D01*
X243000000Y-92847829D01*
X243000000Y-93608506D01*
X243000000Y-94369183D01*
X243000000Y-95129860D01*
X243000000Y-95890537D01*
X243000000Y-96651214D01*
X243000000Y-97411892D01*
X243000000Y-98172569D01*
X243000000Y-98933246D01*
X243000000Y-99693923D01*
X243000000Y-100454600D01*
X243000000Y-101215277D01*
X243000000Y-101975954D01*
X243000000Y-102736631D01*
X243000000Y-103497308D01*
X243000000Y-104257985D01*
X243000000Y-105018662D01*
X243000000Y-105779340D01*
X243000000Y-106540017D01*
X243000000Y-107300694D01*
X243000000Y-108061371D01*
X243000000Y-108822048D01*
X243000000Y-109582725D01*
X243000000Y-110343402D01*
X243000000Y-111104079D01*
X243000000Y-111864756D01*
X243000000Y-112625433D01*
X243000000Y-113386111D01*
X92363889Y-219219444D02*
X92297588Y-219576988D01*
X92232139Y-219938750D01*
X92167601Y-220304702D01*
X92104030Y-220674820D01*
X92041485Y-221049077D01*
X91980024Y-221427448D01*
X91919705Y-221809908D01*
X91860587Y-222196430D01*
X91802727Y-222586989D01*
X91746183Y-222981559D01*
X91691014Y-223380115D01*
X91637277Y-223782631D01*
X91585031Y-224189081D01*
X91534333Y-224599439D01*
X91485242Y-225013681D01*
X91437815Y-225431780D01*
X91392112Y-225853710D01*
X91348189Y-226279446D01*
X91306105Y-226708963D01*
X91265918Y-227142234D01*
X91227686Y-227579234D01*
X91191468Y-228019937D01*
X91157320Y-228464318D01*
X91125302Y-228912351D01*
X91095471Y-229364009D01*
X91067886Y-229819269D01*
X91042603Y-230278103D01*
X91019683Y-230740487D01*
X90999182Y-231206394D01*
X90981158Y-231675799D01*
X90965670Y-232148676D01*
X90952777Y-232625000D01*
X243400000Y-404780555D02*
X242856542Y-404769531D01*
X242315354Y-404758507D01*
X241776364Y-404747483D01*
X241239498Y-404736459D01*
X240704682Y-404725435D01*
X240171844Y-404714411D01*
X239640910Y-404703387D01*
X239111807Y-404692362D01*
X238584462Y-404681338D01*
X238058801Y-404670313D01*
X237534752Y-404659289D01*
X237012240Y-404648264D01*
X236491194Y-404637240D01*
X235971539Y-404626215D01*
X235453202Y-404615191D01*
X234936111Y-404604166D01*
X234420191Y-404593141D01*
X233905370Y-404582117D01*
X233391574Y-404571092D01*
X232878731Y-404560067D01*
X232366766Y-404549043D01*
X231855607Y-404538018D01*
X231345181Y-404526994D01*
X230835414Y-404515969D01*
X230326233Y-404504945D01*
X229817564Y-404493921D01*
X229309336Y-404482896D01*
X228801473Y-404471872D01*
X228293904Y-404460848D01*
X227786554Y-404449824D01*
X227279351Y-404438800D01*
X226772222Y-404427777D01*
X91658333Y-245677777D02*
X91793986Y-245282100D01*
X91937838Y-244856464D01*
X92089178Y-244401680D01*
X92247296Y-243918557D01*
X92356123Y-243581131D01*
X92467437Y-243231711D01*
X92581028Y-242870535D01*
X92696684Y-242497845D01*
X92814195Y-242113880D01*
X92933352Y-241718880D01*
X93053943Y-241313085D01*
X93175759Y-240896736D01*
X93298588Y-240470071D01*
X93422222Y-240033333D01*
X96250000Y-229810000D02*
X96203434Y-230203521D01*
X96155179Y-230639598D01*
X96118600Y-230993441D01*
X96082248Y-231369350D01*
X96046630Y-231766526D01*
X96012251Y-232184165D01*
X95979616Y-232621467D01*
X95949229Y-233077630D01*
X95921596Y-233551853D01*
X95897222Y-234043334D01*
X134697222Y-295772222D02*
X135548811Y-296094944D01*
X136391433Y-296411481D01*
X137224901Y-296721861D01*
X138049027Y-297026116D01*
X138863624Y-297324274D01*
X139668502Y-297616367D01*
X140463475Y-297902425D01*
X141248355Y-298182477D01*
X142022955Y-298456554D01*
X142787085Y-298724686D01*
X143540560Y-298986903D01*
X144283190Y-299243236D01*
X145014789Y-299493714D01*
X145735168Y-299738368D01*
X146444140Y-299977227D01*
X147141517Y-300210323D01*
X147827112Y-300437684D01*
X148500735Y-300659342D01*
X149162201Y-300875327D01*
X149811321Y-301085668D01*
X150447907Y-301290395D01*
X151071772Y-301489540D01*
X151682728Y-301683132D01*
X152280587Y-301871201D01*
X152865161Y-302053778D01*
X153436263Y-302230892D01*
X153993705Y-302402573D01*
X154537299Y-302568853D01*
X155066858Y-302729761D01*
X155582193Y-302885327D01*
X156083118Y-303035582D01*
X156569444Y-303180555D01*
D11*
X93300000Y-220700000D02*
X94400000Y-223500000D01*
X94400000Y-223500000D02*
X95200000Y-226200000D01*
X95200000Y-226200000D02*
X95538889Y-228500000D01*
X95538889Y-228500000D02*
X95500000Y-230500000D01*
X95500000Y-230500000D02*
X95300000Y-232700000D01*
X95300000Y-232700000D02*
X94300000Y-236800000D01*
X94300000Y-236800000D02*
X92600000Y-242800000D01*
X92600000Y-242800000D02*
X92000000Y-244800000D01*
X92000000Y-244800000D02*
X91695204Y-245156834D01*
X91695204Y-245156834D02*
X91700000Y-245200000D01*
X91700000Y-245200000D02*
X91658333Y-245200000D01*
X91658333Y-245200000D02*
X91695204Y-245156834D01*
X91695204Y-245156834D02*
X91500000Y-243400000D01*
X91500000Y-243400000D02*
X91100000Y-240100000D01*
X91100000Y-240100000D02*
X91000000Y-236200000D01*
X91000000Y-236200000D02*
X90952777Y-232625000D01*
X90952777Y-232625000D02*
X91100000Y-229300000D01*
X91100000Y-229300000D02*
X91300000Y-226600000D01*
X91300000Y-226600000D02*
X91700000Y-223600000D01*
X91700000Y-223600000D02*
X92200000Y-220200000D01*
X92200000Y-220200000D02*
X92400000Y-219400000D01*
X92400000Y-219400000D02*
X93300000Y-220700000D01*
G36*
X93300000Y-220700000D02*
G01*
X94400000Y-223500000D01*
X95200000Y-226200000D01*
X95538889Y-228500000D01*
X95500000Y-230500000D01*
X95300000Y-232700000D01*
X94300000Y-236800000D01*
X92600000Y-242800000D01*
X92000000Y-244800000D01*
X91695204Y-245156834D01*
X91700000Y-245200000D01*
X91658333Y-245200000D01*
X91695204Y-245156834D01*
X91500000Y-243400000D01*
X91100000Y-240100000D01*
X91000000Y-236200000D01*
X90952777Y-232625000D01*
X91100000Y-229300000D01*
X91300000Y-226600000D01*
X91700000Y-223600000D01*
X92200000Y-220200000D01*
X92400000Y-219400000D01*
X93300000Y-220700000D01*
G37*
X93300000Y-220700000D02*
X94400000Y-223500000D01*
X95200000Y-226200000D01*
X95538889Y-228500000D01*
X95500000Y-230500000D01*
X95300000Y-232700000D01*
X94300000Y-236800000D01*
X92600000Y-242800000D01*
X92000000Y-244800000D01*
X91695204Y-245156834D01*
X91700000Y-245200000D01*
X91658333Y-245200000D01*
X91695204Y-245156834D01*
X91500000Y-243400000D01*
X91100000Y-240100000D01*
X91000000Y-236200000D01*
X90952777Y-232625000D01*
X91100000Y-229300000D01*
X91300000Y-226600000D01*
X91700000Y-223600000D01*
X92200000Y-220200000D01*
X92400000Y-219400000D01*
X93300000Y-220700000D01*
D10*
X87425000Y-256966666D02*
X87610076Y-256624888D01*
X87651210Y-256225020D01*
X87667081Y-255865864D01*
X87677523Y-255428689D01*
X87685803Y-254910106D01*
X87695187Y-254306723D01*
X87708944Y-253615150D01*
X87718482Y-253235232D01*
X87730339Y-252831995D01*
X87744922Y-252405016D01*
X87762640Y-251953869D01*
X87783901Y-251478132D01*
X87809114Y-250977381D01*
X87838687Y-250451191D01*
X87873028Y-249899139D01*
X87912546Y-249320800D01*
X87957649Y-248715752D01*
X88008746Y-248083571D01*
X88066245Y-247423831D01*
X88130555Y-246736111D01*
X232416666Y-403722222D02*
X233063411Y-403667956D01*
X233656407Y-403622540D01*
X234200032Y-403583738D01*
X234698664Y-403549314D01*
X235156682Y-403517033D01*
X235578465Y-403484658D01*
X235968392Y-403449954D01*
X236330841Y-403410685D01*
X236832571Y-403338331D01*
X237297106Y-403243128D01*
X237739224Y-403117532D01*
X238173702Y-402953996D01*
X238615319Y-402744974D01*
X238766666Y-402663888D01*
D11*
X128500000Y-299700000D02*
X135050000Y-303180555D01*
X135050000Y-303180555D02*
X135600000Y-308100000D01*
X135600000Y-308100000D02*
X136400000Y-312500000D01*
X136400000Y-312500000D02*
X137400000Y-317200000D01*
X137400000Y-317200000D02*
X138800000Y-322300000D01*
X138800000Y-322300000D02*
X140000000Y-326000000D01*
X140000000Y-326000000D02*
X140900000Y-328800000D01*
X140900000Y-328800000D02*
X140300000Y-328000000D01*
X140300000Y-328000000D02*
X137300000Y-321200000D01*
X137300000Y-321200000D02*
X133600000Y-312300000D01*
X133600000Y-312300000D02*
X128347222Y-299500000D01*
X128347222Y-299500000D02*
X128500000Y-299700000D01*
G36*
X128500000Y-299700000D02*
G01*
X135050000Y-303180555D01*
X135600000Y-308100000D01*
X136400000Y-312500000D01*
X137400000Y-317200000D01*
X138800000Y-322300000D01*
X140000000Y-326000000D01*
X140900000Y-328800000D01*
X140300000Y-328000000D01*
X137300000Y-321200000D01*
X133600000Y-312300000D01*
X128347222Y-299500000D01*
X128500000Y-299700000D01*
G37*
X128500000Y-299700000D02*
X135050000Y-303180555D01*
X135600000Y-308100000D01*
X136400000Y-312500000D01*
X137400000Y-317200000D01*
X138800000Y-322300000D01*
X140000000Y-326000000D01*
X140900000Y-328800000D01*
X140300000Y-328000000D01*
X137300000Y-321200000D01*
X133600000Y-312300000D01*
X128347222Y-299500000D01*
X128500000Y-299700000D01*
D10*
X97308333Y-234043334D02*
X97221235Y-233545017D01*
X97128267Y-233065781D01*
X97030591Y-232606285D01*
X96929372Y-232167190D01*
X96825775Y-231749156D01*
X96720963Y-231352843D01*
X96616101Y-230978913D01*
X96512355Y-230628025D01*
X96377771Y-230197161D01*
X96250000Y-229810000D01*
X133991666Y-298241666D02*
X133045733Y-297875931D01*
X132113021Y-297501707D01*
X131194683Y-297120212D01*
X130291873Y-296732662D01*
X129405743Y-296340274D01*
X128537447Y-295944265D01*
X127688139Y-295545853D01*
X126858972Y-295146253D01*
X126051099Y-294746684D01*
X125265673Y-294348361D01*
X124503849Y-293952503D01*
X123766779Y-293560326D01*
X123055617Y-293173046D01*
X122371516Y-292791881D01*
X121715629Y-292418048D01*
X121089111Y-292052764D01*
X120493113Y-291697246D01*
X119928790Y-291352710D01*
X119397296Y-291020374D01*
X118899782Y-290701454D01*
X118437404Y-290397168D01*
X118011313Y-290108733D01*
X117622664Y-289837365D01*
X117272610Y-289584281D01*
X116962305Y-289350699D01*
X116465551Y-288946907D01*
X116141632Y-288635724D01*
X116000000Y-288363888D01*
X156569444Y-303180555D02*
X156040555Y-303140984D01*
X155497564Y-303096849D01*
X154940740Y-303047865D01*
X154370353Y-302993748D01*
X153786675Y-302934215D01*
X153189976Y-302868981D01*
X152580526Y-302797762D01*
X151958596Y-302720274D01*
X151324456Y-302636234D01*
X150678377Y-302545358D01*
X150020630Y-302447360D01*
X149351485Y-302341959D01*
X148671213Y-302228869D01*
X147980084Y-302107806D01*
X147278368Y-301978487D01*
X146566337Y-301840628D01*
X145844261Y-301693944D01*
X145112410Y-301538152D01*
X144371055Y-301372967D01*
X143620466Y-301198107D01*
X142860915Y-301013286D01*
X142092671Y-300818221D01*
X141316005Y-300612628D01*
X140531188Y-300396222D01*
X139738489Y-300168721D01*
X138938181Y-299929839D01*
X138130533Y-299679293D01*
X137315816Y-299416800D01*
X136494300Y-299142074D01*
X135666256Y-298854832D01*
X134831954Y-298554791D01*
X133991666Y-298241666D01*
X138577777Y-321525000D02*
X138700741Y-321940879D01*
X138823331Y-322349112D01*
X138945287Y-322749346D01*
X139066351Y-323141226D01*
X139186267Y-323524398D01*
X139304775Y-323898510D01*
X139421619Y-324263207D01*
X139536539Y-324618136D01*
X139649279Y-324962942D01*
X139759580Y-325297272D01*
X139971835Y-325933090D01*
X140171239Y-326522758D01*
X140355732Y-327063448D01*
X140523247Y-327552328D01*
X140671724Y-327986569D01*
X140799099Y-328363341D01*
X140946080Y-328814553D01*
X141048940Y-329188613D01*
X141047222Y-329286111D01*
X180911111Y-207930555D02*
X180427829Y-207896910D01*
X179925253Y-207859920D01*
X179403688Y-207819375D01*
X178863435Y-207775061D01*
X178304800Y-207726767D01*
X177728085Y-207674281D01*
X177133594Y-207617391D01*
X176521631Y-207555884D01*
X175892498Y-207489550D01*
X175246500Y-207418176D01*
X174583940Y-207341549D01*
X173905121Y-207259459D01*
X173210348Y-207171694D01*
X172857073Y-207125616D01*
X172499923Y-207078040D01*
X172138936Y-207028939D01*
X171774150Y-206978287D01*
X171405603Y-206926056D01*
X171033333Y-206872222D01*
X226772222Y-404427777D02*
X227208258Y-404358606D01*
X227634365Y-404293362D01*
X228050292Y-404231920D01*
X228455788Y-404174156D01*
X228850602Y-404119943D01*
X229234482Y-404069156D01*
X229607177Y-404021672D01*
X229968436Y-403977363D01*
X230318007Y-403936105D01*
X230819902Y-403879666D01*
X231294087Y-403829388D01*
X231739715Y-403784849D01*
X232155938Y-403745625D01*
X232416666Y-403722222D01*
X198902777Y-204755555D02*
X199533287Y-204858508D01*
X200143778Y-204958275D01*
X200734247Y-205054936D01*
X201304690Y-205148573D01*
X201855103Y-205239267D01*
X202385484Y-205327099D01*
X202895829Y-205412150D01*
X203386136Y-205494501D01*
X203856400Y-205574234D01*
X204306619Y-205651430D01*
X204736789Y-205726170D01*
X205146907Y-205798536D01*
X205536969Y-205868608D01*
X205906973Y-205936468D01*
X206256916Y-206002196D01*
X206896602Y-206127585D01*
X207456003Y-206245424D01*
X207935091Y-206356363D01*
X208333841Y-206461052D01*
X208781275Y-206607786D01*
X209096427Y-206787620D01*
X209133333Y-206872222D01*
X189025000Y-388200000D02*
X188985765Y-387682810D01*
X188946203Y-387166263D01*
X188906314Y-386650360D01*
X188866101Y-386135102D01*
X188825564Y-385620489D01*
X188784706Y-385106522D01*
X188743526Y-384593201D01*
X188702027Y-384080527D01*
X188660211Y-383568502D01*
X188618078Y-383057124D01*
X188575629Y-382546396D01*
X188532867Y-382036318D01*
X188489793Y-381526890D01*
X188446408Y-381018113D01*
X188402713Y-380509988D01*
X188358710Y-380002516D01*
X188314400Y-379495696D01*
X188269785Y-378989530D01*
X188224866Y-378484019D01*
X188179644Y-377979163D01*
X188134121Y-377474962D01*
X188088299Y-376971418D01*
X188042177Y-376468531D01*
X187995759Y-375966301D01*
X187949046Y-375464730D01*
X187902038Y-374963818D01*
X187854737Y-374463566D01*
X187807144Y-373963973D01*
X187759262Y-373465042D01*
X187711091Y-372966773D01*
X187662633Y-372469166D01*
X187613889Y-371972222D01*
X171738889Y-308825000D02*
X172200087Y-308686330D01*
X172716634Y-308668656D01*
X173392818Y-308680781D01*
X173783510Y-308696930D01*
X174205394Y-308719223D01*
X174655564Y-308747225D01*
X175131114Y-308780501D01*
X175629140Y-308818615D01*
X176146734Y-308861133D01*
X176680992Y-308907619D01*
X177229008Y-308957638D01*
X177787876Y-309010755D01*
X178354690Y-309066535D01*
X178926544Y-309124542D01*
X179500533Y-309184341D01*
X180073751Y-309245498D01*
X180643292Y-309307577D01*
X181206251Y-309370142D01*
X181759721Y-309432759D01*
X182300798Y-309494993D01*
X182826575Y-309556408D01*
X183334146Y-309616568D01*
X183820606Y-309675040D01*
X184283050Y-309731388D01*
X184718571Y-309785176D01*
X185124263Y-309835969D01*
X185497222Y-309883333D01*
D11*
X243000000Y-113200000D02*
X242800000Y-113400000D01*
X242800000Y-113400000D02*
X242800000Y-113386111D01*
X242800000Y-113386111D02*
X241700000Y-112300000D01*
X241700000Y-112300000D02*
X239825000Y-110211111D01*
X239825000Y-110211111D02*
X238100000Y-107700000D01*
X238100000Y-107700000D02*
X236800000Y-105100000D01*
X236800000Y-105100000D02*
X236300000Y-103300000D01*
X236300000Y-103300000D02*
X235900000Y-100900000D01*
X235900000Y-100900000D02*
X235944444Y-98600000D01*
X235944444Y-98600000D02*
X236100000Y-96300000D01*
X236100000Y-96300000D02*
X236800000Y-94200000D01*
X236800000Y-94200000D02*
X237900000Y-92400000D01*
X237900000Y-92400000D02*
X239300000Y-91100000D01*
X239300000Y-91100000D02*
X240400000Y-90100000D01*
X240400000Y-90100000D02*
X242400000Y-89300000D01*
X242400000Y-89300000D02*
X243000000Y-89044444D01*
X243000000Y-89044444D02*
X243000000Y-113200000D01*
G36*
X243000000Y-113200000D02*
G01*
X242800000Y-113400000D01*
X242800000Y-113386111D01*
X241700000Y-112300000D01*
X239825000Y-110211111D01*
X238100000Y-107700000D01*
X236800000Y-105100000D01*
X236300000Y-103300000D01*
X235900000Y-100900000D01*
X235944444Y-98600000D01*
X236100000Y-96300000D01*
X236800000Y-94200000D01*
X237900000Y-92400000D01*
X239300000Y-91100000D01*
X240400000Y-90100000D01*
X242400000Y-89300000D01*
X243000000Y-89044444D01*
X243000000Y-113200000D01*
G37*
X243000000Y-113200000D02*
X242800000Y-113400000D01*
X242800000Y-113386111D01*
X241700000Y-112300000D01*
X239825000Y-110211111D01*
X238100000Y-107700000D01*
X236800000Y-105100000D01*
X236300000Y-103300000D01*
X235900000Y-100900000D01*
X235944444Y-98600000D01*
X236100000Y-96300000D01*
X236800000Y-94200000D01*
X237900000Y-92400000D01*
X239300000Y-91100000D01*
X240400000Y-90100000D01*
X242400000Y-89300000D01*
X243000000Y-89044444D01*
X243000000Y-113200000D01*
D10*
X242294444Y-311294444D02*
X241856056Y-311083651D01*
X241354833Y-310996266D01*
X240701095Y-310919888D01*
X240325354Y-310885592D01*
X239921470Y-310853766D01*
X239492771Y-310824318D01*
X239042586Y-310797152D01*
X238574244Y-310772176D01*
X238091073Y-310749295D01*
X237596401Y-310728416D01*
X237093558Y-310709445D01*
X236585871Y-310692288D01*
X236076669Y-310676852D01*
X235569281Y-310663042D01*
X235067036Y-310650765D01*
X234573261Y-310639927D01*
X234091286Y-310630435D01*
X233624438Y-310622195D01*
X233176047Y-310615112D01*
X232749441Y-310609094D01*
X232347949Y-310604046D01*
X231974898Y-310599875D01*
X231327438Y-310593788D01*
X230833688Y-310590082D01*
X230652777Y-310588888D01*
X182675000Y-311294444D02*
X182151234Y-311234076D01*
X181629526Y-311169335D01*
X181110844Y-311100550D01*
X180596157Y-311028049D01*
X180086433Y-310952161D01*
X179582640Y-310873216D01*
X179085748Y-310791543D01*
X178596724Y-310707470D01*
X178116538Y-310621325D01*
X177646157Y-310533439D01*
X177186550Y-310444140D01*
X176738686Y-310353757D01*
X176303533Y-310262619D01*
X175882060Y-310171055D01*
X175475235Y-310079394D01*
X175084027Y-309987964D01*
X174709405Y-309897095D01*
X174352336Y-309807115D01*
X173694733Y-309631140D01*
X173118968Y-309462670D01*
X172632789Y-309304337D01*
X172243943Y-309158772D01*
X171860124Y-308970121D01*
X171738889Y-308825000D01*
X88130555Y-216044444D02*
X87923669Y-216352036D01*
X87710802Y-216675017D01*
X87492606Y-217013277D01*
X87269733Y-217366705D01*
X87042836Y-217735194D01*
X86812568Y-218118633D01*
X86579582Y-218516914D01*
X86344529Y-218929927D01*
X86108064Y-219357563D01*
X85870839Y-219799713D01*
X85633505Y-220256267D01*
X85396717Y-220727116D01*
X85161127Y-221212150D01*
X84927387Y-221711262D01*
X84696150Y-222224340D01*
X84468068Y-222751277D01*
X84243796Y-223291962D01*
X84023984Y-223846287D01*
X83809286Y-224414142D01*
X83600355Y-224995418D01*
X83397843Y-225590005D01*
X83202404Y-226197794D01*
X83014688Y-226818677D01*
X82835350Y-227452543D01*
X82665042Y-228099284D01*
X82504417Y-228758790D01*
X82354128Y-229430952D01*
X82214826Y-230115661D01*
X82087165Y-230812807D01*
X81971798Y-231522281D01*
X81869377Y-232243974D01*
X81780555Y-232977777D01*
X99777778Y-267910000D02*
X99683336Y-267126168D01*
X99587904Y-266308902D01*
X99491764Y-265460770D01*
X99395196Y-264584340D01*
X99298483Y-263682181D01*
X99201905Y-262756860D01*
X99105746Y-261810945D01*
X99010285Y-260847006D01*
X98915805Y-259867610D01*
X98822588Y-258875325D01*
X98730914Y-257872719D01*
X98641066Y-256862361D01*
X98553325Y-255846819D01*
X98467972Y-254828661D01*
X98385290Y-253810455D01*
X98305560Y-252794770D01*
X98229064Y-251784173D01*
X98156082Y-250781233D01*
X98086897Y-249788518D01*
X98021790Y-248808597D01*
X97961043Y-247844036D01*
X97904938Y-246897405D01*
X97853755Y-245971272D01*
X97807777Y-245068205D01*
X97767286Y-244190772D01*
X97732562Y-243341541D01*
X97703887Y-242523080D01*
X97681544Y-241737959D01*
X97665812Y-240988744D01*
X97656976Y-240278004D01*
X97655314Y-239608308D01*
X97661111Y-238982223D01*
X97661111Y-262400000D02*
X97823594Y-262752343D01*
X98019043Y-263133996D01*
X98202958Y-263458886D01*
X98403868Y-263786718D01*
X98603896Y-264103649D01*
X98719445Y-264300000D01*
X220422222Y-310941666D02*
X220751917Y-311190087D01*
X221160421Y-311336982D01*
X221717748Y-311492764D01*
X222413688Y-311652755D01*
X222810447Y-311732867D01*
X223238030Y-311812278D01*
X223695161Y-311890402D01*
X224180563Y-311966656D01*
X224692960Y-312040454D01*
X225231077Y-312111211D01*
X225793635Y-312178344D01*
X226379361Y-312241267D01*
X226986976Y-312299396D01*
X227615204Y-312352146D01*
X228262770Y-312398932D01*
X228928397Y-312439170D01*
X229610808Y-312472275D01*
X230308727Y-312497663D01*
X231020879Y-312514749D01*
X231745986Y-312522948D01*
X232482772Y-312521675D01*
X233229961Y-312510346D01*
X233986277Y-312488377D01*
X234750443Y-312455182D01*
X235521184Y-312410176D01*
X236297222Y-312352777D01*
X80369444Y-236505555D02*
X80401818Y-235930393D01*
X80428106Y-235353982D01*
X80448493Y-234777598D01*
X80463167Y-234202515D01*
X80472312Y-233630008D01*
X80476117Y-233061353D01*
X80474767Y-232497825D01*
X80468449Y-231940699D01*
X80457350Y-231391249D01*
X80441655Y-230850752D01*
X80421551Y-230320482D01*
X80397224Y-229801714D01*
X80368862Y-229295723D01*
X80336650Y-228803786D01*
X80300775Y-228327176D01*
X80261424Y-227867169D01*
X80218782Y-227425040D01*
X80173036Y-227002064D01*
X80124374Y-226599516D01*
X80072980Y-226218672D01*
X80019042Y-225860806D01*
X79904278Y-225219111D01*
X79781573Y-224684631D01*
X79652420Y-224267569D01*
X79449861Y-223884446D01*
X79311111Y-223805555D01*
X135050000Y-303180555D02*
X135090979Y-303604976D01*
X135134976Y-304040543D01*
X135182136Y-304487102D01*
X135232605Y-304944497D01*
X135286527Y-305412576D01*
X135344047Y-305891183D01*
X135405311Y-306380165D01*
X135470463Y-306879366D01*
X135539649Y-307388633D01*
X135613013Y-307907811D01*
X135690701Y-308436747D01*
X135772857Y-308975285D01*
X135859628Y-309523272D01*
X135951157Y-310080552D01*
X136047589Y-310646973D01*
X136149071Y-311222379D01*
X136255746Y-311806616D01*
X136367761Y-312399530D01*
X136485259Y-313000967D01*
X136608386Y-313610773D01*
X136737288Y-314228792D01*
X136872108Y-314854871D01*
X137012993Y-315488855D01*
X137160087Y-316130591D01*
X137313535Y-316779923D01*
X137473483Y-317436698D01*
X137640075Y-318100761D01*
X137813456Y-318771958D01*
X137993772Y-319450135D01*
X138181167Y-320135137D01*
X138375787Y-320826810D01*
X138577777Y-321525000D01*
D11*
X243400000Y-404780555D02*
X232700000Y-404600000D01*
X232700000Y-404600000D02*
X227600000Y-404400000D01*
X227600000Y-404400000D02*
X228700000Y-404200000D01*
X228700000Y-404200000D02*
X230900000Y-403900000D01*
X230900000Y-403900000D02*
X234000000Y-403600000D01*
X234000000Y-403600000D02*
X235700000Y-403600000D01*
X235700000Y-403600000D02*
X236500000Y-403400000D01*
X236500000Y-403400000D02*
X237700000Y-403200000D01*
X237700000Y-403200000D02*
X238600000Y-402800000D01*
X238600000Y-402800000D02*
X239700000Y-402100000D01*
X239700000Y-402100000D02*
X240800000Y-401200000D01*
X240800000Y-401200000D02*
X241500000Y-400200000D01*
X241500000Y-400200000D02*
X242300000Y-399000000D01*
X242300000Y-399000000D02*
X242800000Y-397400000D01*
X242800000Y-397400000D02*
X243400000Y-395200000D01*
X243400000Y-395200000D02*
X243400000Y-404780555D01*
G36*
X243400000Y-404780555D02*
G01*
X232700000Y-404600000D01*
X227600000Y-404400000D01*
X228700000Y-404200000D01*
X230900000Y-403900000D01*
X234000000Y-403600000D01*
X235700000Y-403600000D01*
X236500000Y-403400000D01*
X237700000Y-403200000D01*
X238600000Y-402800000D01*
X239700000Y-402100000D01*
X240800000Y-401200000D01*
X241500000Y-400200000D01*
X242300000Y-399000000D01*
X242800000Y-397400000D01*
X243400000Y-395200000D01*
X243400000Y-404780555D01*
G37*
X243400000Y-404780555D02*
X232700000Y-404600000D01*
X227600000Y-404400000D01*
X228700000Y-404200000D01*
X230900000Y-403900000D01*
X234000000Y-403600000D01*
X235700000Y-403600000D01*
X236500000Y-403400000D01*
X237700000Y-403200000D01*
X238600000Y-402800000D01*
X239700000Y-402100000D01*
X240800000Y-401200000D01*
X241500000Y-400200000D01*
X242300000Y-399000000D01*
X242800000Y-397400000D01*
X243400000Y-395200000D01*
X243400000Y-404780555D01*
D10*
X99700000Y-275165000D02*
X99753720Y-275644630D01*
X99802813Y-276108057D01*
X99847924Y-276555993D01*
X99889697Y-276989148D01*
X99928778Y-277408235D01*
X99965814Y-277813965D01*
X100001448Y-278207050D01*
X100036328Y-278588200D01*
X100071097Y-278958128D01*
X100106402Y-279317544D01*
X100130556Y-279551667D01*
X179500000Y-203697222D02*
X179997441Y-203608406D01*
X180482016Y-203532038D01*
X180956127Y-203467357D01*
X181422177Y-203413604D01*
X181882572Y-203370020D01*
X182339715Y-203335845D01*
X182796009Y-203310318D01*
X183253859Y-203292681D01*
X183715668Y-203282174D01*
X184183840Y-203278036D01*
X184660779Y-203279510D01*
X185148889Y-203285833D01*
X185650573Y-203296248D01*
X186168235Y-203309995D01*
X186704280Y-203326313D01*
X187261111Y-203344444D01*
X95897222Y-234043334D02*
X95874212Y-234619343D01*
X95857525Y-235184604D01*
X95846893Y-235739318D01*
X95842043Y-236283690D01*
X95842705Y-236817923D01*
X95848608Y-237342222D01*
X95859483Y-237856790D01*
X95875058Y-238361831D01*
X95895064Y-238857549D01*
X95919228Y-239344146D01*
X95947282Y-239821828D01*
X95978953Y-240290798D01*
X96013973Y-240751260D01*
X96052069Y-241203416D01*
X96092972Y-241647472D01*
X96136411Y-242083632D01*
X96182116Y-242512097D01*
X96229815Y-242933073D01*
X96279239Y-243346764D01*
X96330116Y-243753372D01*
X96382177Y-244153102D01*
X96435150Y-244546158D01*
X96488766Y-244932743D01*
X96542753Y-245313061D01*
X96596840Y-245687315D01*
X96650759Y-246055711D01*
X96704237Y-246418450D01*
X96757004Y-246775738D01*
X96808790Y-247127777D01*
X96859325Y-247474772D01*
X96955556Y-248154445D01*
X141047222Y-329286111D02*
X140777585Y-328867823D01*
X140549206Y-328407379D01*
X140240169Y-327749879D01*
X140052948Y-327341076D01*
X139842615Y-326875620D01*
X139608188Y-326351050D01*
X139348686Y-325764901D01*
X139063125Y-325114712D01*
X138750523Y-324398020D01*
X138409899Y-323612361D01*
X138040269Y-322755273D01*
X137640651Y-321824293D01*
X137210064Y-320816959D01*
X136747524Y-319730807D01*
X136252050Y-318563375D01*
X135722659Y-317312200D01*
X135158369Y-315974820D01*
X134558198Y-314548771D01*
X133921163Y-313031590D01*
X133246282Y-311420816D01*
X132532572Y-309713984D01*
X131779052Y-307908633D01*
X130984740Y-306002300D01*
X130148652Y-303992521D01*
X129269807Y-301876834D01*
X128347222Y-299652777D01*
X193611111Y-311294444D02*
X193225702Y-311467970D01*
X192878390Y-311525932D01*
X192432210Y-311576004D01*
X191894829Y-311617290D01*
X191273915Y-311648891D01*
X190577135Y-311669910D01*
X190202692Y-311676171D01*
X189812158Y-311679449D01*
X189406491Y-311679633D01*
X188986651Y-311676610D01*
X188553595Y-311670269D01*
X188108282Y-311660496D01*
X187651670Y-311647179D01*
X187184719Y-311630208D01*
X186708386Y-311609468D01*
X186223629Y-311584848D01*
X185731408Y-311556236D01*
X185232681Y-311523520D01*
X184728406Y-311486587D01*
X184219542Y-311445325D01*
X183707048Y-311399622D01*
X183191880Y-311349366D01*
X182675000Y-311294444D01*
X79311111Y-223805555D02*
X79040716Y-224057907D01*
X78833297Y-224557656D01*
X78695213Y-225019858D01*
X78558776Y-225573580D01*
X78425265Y-226208789D01*
X78360006Y-226553815D01*
X78295957Y-226915449D01*
X78233280Y-227292438D01*
X78172133Y-227683526D01*
X78112676Y-228087460D01*
X78055068Y-228502985D01*
X77999471Y-228928847D01*
X77946043Y-229363792D01*
X77894944Y-229806565D01*
X77846335Y-230255911D01*
X77800374Y-230710577D01*
X77757222Y-231169309D01*
X77717038Y-231630851D01*
X77679983Y-232093949D01*
X77646215Y-232557350D01*
X77615896Y-233019798D01*
X77589184Y-233480040D01*
X77566239Y-233936822D01*
X77547222Y-234388888D01*
X114588889Y-200522222D02*
X114467622Y-200158419D01*
X114346352Y-199794617D01*
X114236111Y-199463888D01*
X239825000Y-110211111D02*
X239493645Y-109783207D01*
X239238170Y-109440711D01*
X238961436Y-109053217D01*
X238668924Y-108621394D01*
X238366119Y-108145912D01*
X238058502Y-107627443D01*
X237751556Y-107066656D01*
X237450765Y-106464221D01*
X237161612Y-105820810D01*
X237023113Y-105483947D01*
X236889579Y-105137091D01*
X236761696Y-104780326D01*
X236640150Y-104413736D01*
X236525624Y-104037405D01*
X236418806Y-103651415D01*
X236320380Y-103255852D01*
X236231032Y-102850798D01*
X236151447Y-102436338D01*
X236082310Y-102012556D01*
X236024307Y-101579535D01*
X235978123Y-101137358D01*
X235944444Y-100686111D01*
X187261111Y-203344444D02*
X187662602Y-203359133D01*
X188078412Y-203377814D01*
X188514790Y-203401731D01*
X188977986Y-203432130D01*
X189474249Y-203470254D01*
X190009826Y-203517349D01*
X190590969Y-203574660D01*
X191223926Y-203643431D01*
X191914945Y-203724907D01*
X192284182Y-203770799D01*
X192670277Y-203820333D01*
X193074013Y-203873667D01*
X193496170Y-203930955D01*
X193937530Y-203992353D01*
X194398874Y-204058016D01*
X194880983Y-204128100D01*
X195384637Y-204202761D01*
X195910619Y-204282155D01*
X196459709Y-204366437D01*
X197032689Y-204455762D01*
X197630339Y-204550286D01*
X198253442Y-204650165D01*
X198902777Y-204755555D01*
X93422222Y-240033333D02*
X93551252Y-239573502D01*
X93676189Y-239127762D01*
X93797037Y-238695606D01*
X93913800Y-238276531D01*
X94026481Y-237870031D01*
X94135084Y-237475602D01*
X94239612Y-237092738D01*
X94340068Y-236720933D01*
X94436457Y-236359685D01*
X94528782Y-236008486D01*
X94617046Y-235666833D01*
X94781406Y-235010143D01*
X94929567Y-234385575D01*
X95061557Y-233789088D01*
X95177404Y-233216643D01*
X95277136Y-232664201D01*
X95360782Y-232127721D01*
X95428371Y-231603163D01*
X95479930Y-231086488D01*
X95515489Y-230573656D01*
X95535076Y-230060627D01*
X95538889Y-229802777D01*
X209133333Y-206872222D02*
X208731681Y-207180527D01*
X208265784Y-207321654D01*
X207646637Y-207453870D01*
X207285095Y-207516583D01*
X206891840Y-207577004D01*
X206469072Y-207635113D01*
X206018991Y-207690887D01*
X205543798Y-207744305D01*
X205045690Y-207795347D01*
X204526870Y-207843990D01*
X203989536Y-207890214D01*
X203435888Y-207933996D01*
X202868127Y-207975317D01*
X202288451Y-208014154D01*
X201699062Y-208050486D01*
X201102158Y-208084292D01*
X200499940Y-208115550D01*
X199894607Y-208144240D01*
X199288360Y-208170339D01*
X198683399Y-208193827D01*
X198081922Y-208214682D01*
X197486131Y-208232884D01*
X196898224Y-208248409D01*
X196320402Y-208261239D01*
X195754865Y-208271350D01*
X195203812Y-208278721D01*
X194669444Y-208283333D01*
X241941666Y-399488888D02*
X242150276Y-399093011D01*
X242337053Y-398707560D01*
X242503319Y-398333954D01*
X242650396Y-397973610D01*
X242779607Y-397627945D01*
X242942818Y-397140075D01*
X243073269Y-396693209D01*
X243175423Y-396292133D01*
X243253745Y-395941632D01*
X243328815Y-395561241D01*
X243400000Y-395200000D01*
X89894444Y-243561111D02*
X89911207Y-243195680D01*
X89927065Y-242828121D01*
X89941998Y-242458444D01*
X89955991Y-242086659D01*
X89969025Y-241712775D01*
X89981083Y-241336803D01*
X89992147Y-240958753D01*
X90002200Y-240578634D01*
X90011223Y-240196457D01*
X90019201Y-239812231D01*
X90026114Y-239425967D01*
X90031946Y-239037674D01*
X90036679Y-238647362D01*
X90040295Y-238255041D01*
X90042777Y-237860722D01*
X90044108Y-237464414D01*
X90044269Y-237066126D01*
X90043243Y-236665870D01*
X90041013Y-236263655D01*
X90037561Y-235859491D01*
X90032870Y-235453387D01*
X90026921Y-235045355D01*
X90019698Y-234635403D01*
X90011183Y-234223541D01*
X90001359Y-233809781D01*
X89990207Y-233394131D01*
X89977711Y-232976601D01*
X89963852Y-232557203D01*
X89948613Y-232135944D01*
X89931977Y-231712836D01*
X89913927Y-231287888D01*
X89894444Y-230861111D01*
X132933333Y-200875000D02*
X133522276Y-200964231D01*
X134136317Y-201059929D01*
X134772561Y-201161726D01*
X135428112Y-201269253D01*
X136100075Y-201382140D01*
X136785553Y-201500019D01*
X137481653Y-201622520D01*
X138185478Y-201749275D01*
X138894132Y-201879915D01*
X139604721Y-202014071D01*
X140314349Y-202151373D01*
X141020120Y-202291454D01*
X141719139Y-202433944D01*
X142408511Y-202578475D01*
X143085340Y-202724676D01*
X143746731Y-202872181D01*
X144389787Y-203020618D01*
X145011615Y-203169620D01*
X145609317Y-203318818D01*
X146180000Y-203467842D01*
X146720766Y-203616325D01*
X147228722Y-203763896D01*
X147700971Y-203910187D01*
X148134618Y-204054829D01*
X148526767Y-204197453D01*
X148874524Y-204337691D01*
X149425276Y-204609529D01*
X149763711Y-204867394D01*
X149866666Y-205108333D01*
X193258333Y-208283333D02*
X192683197Y-208281609D01*
X192074508Y-208279324D01*
X191433841Y-208276018D01*
X190762768Y-208271230D01*
X190062864Y-208264499D01*
X189702591Y-208260262D01*
X189335701Y-208255366D01*
X188962390Y-208249754D01*
X188582855Y-208243369D01*
X188197292Y-208236153D01*
X187805898Y-208228048D01*
X187408870Y-208218997D01*
X187006405Y-208208942D01*
X186598698Y-208197826D01*
X186185948Y-208185592D01*
X185768350Y-208172181D01*
X185346102Y-208157536D01*
X184919400Y-208141599D01*
X184488440Y-208124314D01*
X184053420Y-208105621D01*
X183614537Y-208085465D01*
X183171986Y-208063787D01*
X182725965Y-208040529D01*
X182276670Y-208015635D01*
X181824298Y-207989046D01*
X181369046Y-207960705D01*
X180911111Y-207930555D01*
X98719445Y-264300000D02*
X98772296Y-264918326D01*
X98825721Y-265548408D01*
X98879839Y-266189461D01*
X98934765Y-266840703D01*
X98990620Y-267501348D01*
X99047520Y-268170615D01*
X99105584Y-268847718D01*
X99164930Y-269531875D01*
X99225676Y-270222301D01*
X99287939Y-270918212D01*
X99319677Y-271267981D01*
X99351838Y-271618826D01*
X99384438Y-271970652D01*
X99417491Y-272323359D01*
X99451012Y-272676850D01*
X99485015Y-273031026D01*
X99519516Y-273385790D01*
X99554530Y-273741044D01*
X99590070Y-274096690D01*
X99626152Y-274452630D01*
X99662790Y-274808766D01*
X99700000Y-275165000D01*
X96955556Y-248154445D02*
X97045932Y-248831165D01*
X97090525Y-249182280D01*
X97134563Y-249541707D01*
X97177929Y-249909304D01*
X97220502Y-250284928D01*
X97262165Y-250668435D01*
X97302799Y-251059683D01*
X97342286Y-251458528D01*
X97380507Y-251864828D01*
X97417343Y-252278440D01*
X97452676Y-252699220D01*
X97486387Y-253127026D01*
X97518359Y-253561714D01*
X97548471Y-254003142D01*
X97576606Y-254451166D01*
X97602645Y-254905644D01*
X97626470Y-255366433D01*
X97647962Y-255833389D01*
X97667002Y-256306370D01*
X97683472Y-256785232D01*
X97697254Y-257269833D01*
X97708228Y-257760029D01*
X97716276Y-258255678D01*
X97721281Y-258756636D01*
X97723122Y-259262761D01*
X97721682Y-259773909D01*
X97716842Y-260289938D01*
X97708483Y-260810705D01*
X97696487Y-261336066D01*
X97680736Y-261865878D01*
X97661111Y-262400000D01*
X149866666Y-205108333D02*
X149600468Y-205409129D01*
X149176264Y-205589358D01*
X148571189Y-205751175D01*
X148205251Y-205824596D01*
X147799406Y-205892717D01*
X147355425Y-205955303D01*
X146875077Y-206012122D01*
X146360133Y-206062942D01*
X145812364Y-206107530D01*
X145233538Y-206145653D01*
X144625427Y-206177079D01*
X143989801Y-206201574D01*
X143328430Y-206218907D01*
X142643085Y-206228844D01*
X141935534Y-206231152D01*
X141207550Y-206225600D01*
X140460901Y-206211954D01*
X139697358Y-206189981D01*
X138918692Y-206159449D01*
X138126673Y-206120126D01*
X137323070Y-206071778D01*
X136509654Y-206014173D01*
X135688196Y-205947078D01*
X134860465Y-205870260D01*
X134028232Y-205783487D01*
X133193267Y-205686527D01*
X132357340Y-205579145D01*
X131522222Y-205461111D01*
X97661111Y-238982223D02*
X97666199Y-238608913D01*
X97666361Y-238186131D01*
X97660506Y-237802079D01*
X97646887Y-237364520D01*
X97623127Y-236876954D01*
X97600480Y-236525858D01*
X97571565Y-236155131D01*
X97535679Y-235765809D01*
X97492117Y-235358931D01*
X97440174Y-234935534D01*
X97379148Y-234496656D01*
X97308333Y-234043334D01*
X88483333Y-243561111D02*
X88704343Y-243287045D01*
X88836111Y-243208333D01*
X187613889Y-371972222D02*
X187462029Y-371637727D01*
X187306150Y-371303653D01*
X187147044Y-370973165D01*
X186985499Y-370649432D01*
X186822306Y-370335621D01*
X186576156Y-369890438D01*
X186330744Y-369485395D01*
X186088736Y-369131184D01*
X185852800Y-368838495D01*
X185552274Y-368562420D01*
X185208094Y-368436459D01*
X185144444Y-368444444D01*
D11*
X117300000Y-288700000D02*
X121200000Y-290200000D01*
X121200000Y-290200000D02*
X124500000Y-291600000D01*
X124500000Y-291600000D02*
X128000000Y-293100000D01*
X128000000Y-293100000D02*
X131300000Y-294400000D01*
X131300000Y-294400000D02*
X137700000Y-296900000D01*
X137700000Y-296900000D02*
X143500000Y-299000000D01*
X143500000Y-299000000D02*
X148900000Y-300800000D01*
X148900000Y-300800000D02*
X154000000Y-302400000D01*
X154000000Y-302400000D02*
X155887742Y-302996129D01*
X155887742Y-302996129D02*
X156000000Y-303000000D01*
X156000000Y-303000000D02*
X155900000Y-303000000D01*
X155900000Y-303000000D02*
X155887742Y-302996129D01*
X155887742Y-302996129D02*
X153100000Y-302900000D01*
X153100000Y-302900000D02*
X147000000Y-302000000D01*
X147000000Y-302000000D02*
X141100000Y-300600000D01*
X141100000Y-300600000D02*
X138000000Y-299600000D01*
X138000000Y-299600000D02*
X134700000Y-298600000D01*
X134700000Y-298600000D02*
X130600000Y-296900000D01*
X130600000Y-296900000D02*
X125600000Y-294500000D01*
X125600000Y-294500000D02*
X121500000Y-292300000D01*
X121500000Y-292300000D02*
X119100000Y-290900000D01*
X119100000Y-290900000D02*
X116800000Y-289200000D01*
X116800000Y-289200000D02*
X116000000Y-288500000D01*
X116000000Y-288500000D02*
X116400000Y-288300000D01*
X116400000Y-288300000D02*
X117300000Y-288700000D01*
G36*
X117300000Y-288700000D02*
G01*
X121200000Y-290200000D01*
X124500000Y-291600000D01*
X128000000Y-293100000D01*
X131300000Y-294400000D01*
X137700000Y-296900000D01*
X143500000Y-299000000D01*
X148900000Y-300800000D01*
X154000000Y-302400000D01*
X155887742Y-302996129D01*
X156000000Y-303000000D01*
X155900000Y-303000000D01*
X155887742Y-302996129D01*
X153100000Y-302900000D01*
X147000000Y-302000000D01*
X141100000Y-300600000D01*
X138000000Y-299600000D01*
X134700000Y-298600000D01*
X130600000Y-296900000D01*
X125600000Y-294500000D01*
X121500000Y-292300000D01*
X119100000Y-290900000D01*
X116800000Y-289200000D01*
X116000000Y-288500000D01*
X116400000Y-288300000D01*
X117300000Y-288700000D01*
G37*
X117300000Y-288700000D02*
X121200000Y-290200000D01*
X124500000Y-291600000D01*
X128000000Y-293100000D01*
X131300000Y-294400000D01*
X137700000Y-296900000D01*
X143500000Y-299000000D01*
X148900000Y-300800000D01*
X154000000Y-302400000D01*
X155887742Y-302996129D01*
X156000000Y-303000000D01*
X155900000Y-303000000D01*
X155887742Y-302996129D01*
X153100000Y-302900000D01*
X147000000Y-302000000D01*
X141100000Y-300600000D01*
X138000000Y-299600000D01*
X134700000Y-298600000D01*
X130600000Y-296900000D01*
X125600000Y-294500000D01*
X121500000Y-292300000D01*
X119100000Y-290900000D01*
X116800000Y-289200000D01*
X116000000Y-288500000D01*
X116400000Y-288300000D01*
X117300000Y-288700000D01*
D10*
X81780555Y-232977777D02*
X81666761Y-234195992D01*
X81594559Y-235401340D01*
X81561661Y-236592082D01*
X81565779Y-237766483D01*
X81604627Y-238922808D01*
X81675919Y-240059319D01*
X81777366Y-241174281D01*
X81906683Y-242265958D01*
X82061582Y-243332613D01*
X82239776Y-244372511D01*
X82438979Y-245383915D01*
X82656903Y-246365089D01*
X82891261Y-247314297D01*
X83139767Y-248229803D01*
X83400134Y-249109870D01*
X83670074Y-249952764D01*
X83947301Y-250756746D01*
X84229528Y-251520083D01*
X84514468Y-252241036D01*
X84799833Y-252917871D01*
X85083338Y-253548850D01*
X85362695Y-254132239D01*
X85635616Y-254666300D01*
X85899817Y-255149298D01*
X86153008Y-255579496D01*
X86392903Y-255955159D01*
X86617216Y-256274550D01*
X87009947Y-256737573D01*
X87312904Y-256954675D01*
X87425000Y-256966666D01*
X88483333Y-218866666D02*
X88172198Y-218682440D01*
X87840229Y-218567949D01*
X87487969Y-218516373D01*
X87425000Y-218513888D01*
X243400000Y-395600000D02*
X243344149Y-396021538D01*
X243318483Y-396508701D01*
X243302896Y-396940772D01*
X243289948Y-397464209D01*
X243280860Y-398083749D01*
X243276849Y-398804132D01*
X243277128Y-399203620D01*
X243279134Y-399630096D01*
X243283018Y-400084152D01*
X243288933Y-400566380D01*
X243297031Y-401077372D01*
X243307465Y-401617722D01*
X243320387Y-402188020D01*
X243335949Y-402788861D01*
X243354304Y-403420835D01*
X243375603Y-404084535D01*
X243400000Y-404780555D01*
D11*
X79700000Y-224300000D02*
X80100000Y-226000000D01*
X80100000Y-226000000D02*
X80400000Y-229700000D01*
X80400000Y-229700000D02*
X80500000Y-233700000D01*
X80500000Y-233700000D02*
X80300000Y-237800000D01*
X80300000Y-237800000D02*
X79800000Y-241900000D01*
X79800000Y-241900000D02*
X78800000Y-246400000D01*
X78800000Y-246400000D02*
X78600000Y-246700000D01*
X78600000Y-246700000D02*
X78600000Y-246800000D01*
X78600000Y-246800000D02*
X77900000Y-243000000D01*
X77900000Y-243000000D02*
X77500000Y-237400000D01*
X77500000Y-237400000D02*
X77600000Y-233000000D01*
X77600000Y-233000000D02*
X78000000Y-229000000D01*
X78000000Y-229000000D02*
X78600000Y-225700000D01*
X78600000Y-225700000D02*
X79000000Y-224300000D01*
X79000000Y-224300000D02*
X79200000Y-223900000D01*
X79200000Y-223900000D02*
X79500000Y-223900000D01*
X79500000Y-223900000D02*
X79700000Y-224300000D01*
G36*
X79700000Y-224300000D02*
G01*
X80100000Y-226000000D01*
X80400000Y-229700000D01*
X80500000Y-233700000D01*
X80300000Y-237800000D01*
X79800000Y-241900000D01*
X78800000Y-246400000D01*
X78600000Y-246700000D01*
X78600000Y-246800000D01*
X77900000Y-243000000D01*
X77500000Y-237400000D01*
X77600000Y-233000000D01*
X78000000Y-229000000D01*
X78600000Y-225700000D01*
X79000000Y-224300000D01*
X79200000Y-223900000D01*
X79500000Y-223900000D01*
X79700000Y-224300000D01*
G37*
X79700000Y-224300000D02*
X80100000Y-226000000D01*
X80400000Y-229700000D01*
X80500000Y-233700000D01*
X80300000Y-237800000D01*
X79800000Y-241900000D01*
X78800000Y-246400000D01*
X78600000Y-246700000D01*
X78600000Y-246800000D01*
X77900000Y-243000000D01*
X77500000Y-237400000D01*
X77600000Y-233000000D01*
X78000000Y-229000000D01*
X78600000Y-225700000D01*
X79000000Y-224300000D01*
X79200000Y-223900000D01*
X79500000Y-223900000D01*
X79700000Y-224300000D01*
X97063889Y-232568334D02*
X97563889Y-234968334D01*
X97563889Y-234968334D02*
X97663889Y-236768334D01*
X97663889Y-236768334D02*
X97763889Y-243168334D01*
X97763889Y-243168334D02*
X98563889Y-255968334D01*
X98563889Y-255968334D02*
X99663889Y-266868334D01*
X99663889Y-266868334D02*
X101188889Y-277235000D01*
X101188889Y-277235000D02*
X102463889Y-279068334D01*
X102463889Y-279068334D02*
X106263889Y-283568334D01*
X106263889Y-283568334D02*
X110004046Y-286816365D01*
X110004046Y-286816365D02*
X110263889Y-286868334D01*
X110263889Y-286868334D02*
X110063889Y-286868334D01*
X110063889Y-286868334D02*
X110004046Y-286816365D01*
X110004046Y-286816365D02*
X109763889Y-286768334D01*
X109763889Y-286768334D02*
X100113233Y-279354031D01*
X100113233Y-279354031D02*
X99400000Y-272270698D01*
X99400000Y-272270698D02*
X99000000Y-268500000D01*
X99000000Y-268500000D02*
X98719445Y-264300000D01*
X98719445Y-264300000D02*
X97661111Y-262400000D01*
X97661111Y-262400000D02*
X97763889Y-260368334D01*
X97763889Y-260368334D02*
X97663889Y-255468334D01*
X97663889Y-255468334D02*
X97263889Y-250768334D01*
X97263889Y-250768334D02*
X97063889Y-248568334D01*
X97063889Y-248568334D02*
X96263889Y-243468334D01*
X96263889Y-243468334D02*
X95963889Y-240068334D01*
X95963889Y-240068334D02*
X95897222Y-236368334D01*
X95897222Y-236368334D02*
X95863889Y-233368334D01*
X95863889Y-233368334D02*
X96163889Y-230868334D01*
X96163889Y-230868334D02*
X96363889Y-230068334D01*
X96363889Y-230068334D02*
X97063889Y-232568334D01*
G36*
X97063889Y-232568334D02*
G01*
X97563889Y-234968334D01*
X97663889Y-236768334D01*
X97763889Y-243168334D01*
X98563889Y-255968334D01*
X99663889Y-266868334D01*
X101188889Y-277235000D01*
X102463889Y-279068334D01*
X106263889Y-283568334D01*
X110004046Y-286816365D01*
X110263889Y-286868334D01*
X110063889Y-286868334D01*
X110004046Y-286816365D01*
X109763889Y-286768334D01*
X100113233Y-279354031D01*
X99400000Y-272270698D01*
X99000000Y-268500000D01*
X98719445Y-264300000D01*
X97661111Y-262400000D01*
X97763889Y-260368334D01*
X97663889Y-255468334D01*
X97263889Y-250768334D01*
X97063889Y-248568334D01*
X96263889Y-243468334D01*
X95963889Y-240068334D01*
X95897222Y-236368334D01*
X95863889Y-233368334D01*
X96163889Y-230868334D01*
X96363889Y-230068334D01*
X97063889Y-232568334D01*
G37*
X97063889Y-232568334D02*
X97563889Y-234968334D01*
X97663889Y-236768334D01*
X97763889Y-243168334D01*
X98563889Y-255968334D01*
X99663889Y-266868334D01*
X101188889Y-277235000D01*
X102463889Y-279068334D01*
X106263889Y-283568334D01*
X110004046Y-286816365D01*
X110263889Y-286868334D01*
X110063889Y-286868334D01*
X110004046Y-286816365D01*
X109763889Y-286768334D01*
X100113233Y-279354031D01*
X99400000Y-272270698D01*
X99000000Y-268500000D01*
X98719445Y-264300000D01*
X97661111Y-262400000D01*
X97763889Y-260368334D01*
X97663889Y-255468334D01*
X97263889Y-250768334D01*
X97063889Y-248568334D01*
X96263889Y-243468334D01*
X95963889Y-240068334D01*
X95897222Y-236368334D01*
X95863889Y-233368334D01*
X96163889Y-230868334D01*
X96363889Y-230068334D01*
X97063889Y-232568334D01*
X187800000Y-203344444D02*
X192400000Y-203700000D01*
X192400000Y-203700000D02*
X203800000Y-205500000D01*
X203800000Y-205500000D02*
X208600000Y-206500000D01*
X208600000Y-206500000D02*
X209100000Y-206800000D01*
X209100000Y-206800000D02*
X208900000Y-207100000D01*
X208900000Y-207100000D02*
X208400000Y-207300000D01*
X208400000Y-207300000D02*
X205500000Y-207800000D01*
X205500000Y-207800000D02*
X198900000Y-208100000D01*
X198900000Y-208100000D02*
X191900000Y-208300000D01*
X191900000Y-208300000D02*
X187500000Y-208200000D01*
X187500000Y-208200000D02*
X180911111Y-207930555D01*
X180911111Y-207930555D02*
X176400000Y-207500000D01*
X176400000Y-207500000D02*
X171300000Y-206872222D01*
X171300000Y-206872222D02*
X171300000Y-206700000D01*
X171300000Y-206700000D02*
X171200000Y-206700000D01*
X171200000Y-206700000D02*
X173000000Y-205800000D01*
X173000000Y-205800000D02*
X177000000Y-204300000D01*
X177000000Y-204300000D02*
X180100000Y-203600000D01*
X180100000Y-203600000D02*
X182900000Y-203300000D01*
X182900000Y-203300000D02*
X187800000Y-203344444D01*
G36*
X187800000Y-203344444D02*
G01*
X192400000Y-203700000D01*
X203800000Y-205500000D01*
X208600000Y-206500000D01*
X209100000Y-206800000D01*
X208900000Y-207100000D01*
X208400000Y-207300000D01*
X205500000Y-207800000D01*
X198900000Y-208100000D01*
X191900000Y-208300000D01*
X187500000Y-208200000D01*
X180911111Y-207930555D01*
X176400000Y-207500000D01*
X171300000Y-206872222D01*
X171300000Y-206700000D01*
X171200000Y-206700000D01*
X173000000Y-205800000D01*
X177000000Y-204300000D01*
X180100000Y-203600000D01*
X182900000Y-203300000D01*
X187800000Y-203344444D01*
G37*
X187800000Y-203344444D02*
X192400000Y-203700000D01*
X203800000Y-205500000D01*
X208600000Y-206500000D01*
X209100000Y-206800000D01*
X208900000Y-207100000D01*
X208400000Y-207300000D01*
X205500000Y-207800000D01*
X198900000Y-208100000D01*
X191900000Y-208300000D01*
X187500000Y-208200000D01*
X180911111Y-207930555D01*
X176400000Y-207500000D01*
X171300000Y-206872222D01*
X171300000Y-206700000D01*
X171200000Y-206700000D01*
X173000000Y-205800000D01*
X177000000Y-204300000D01*
X180100000Y-203600000D01*
X182900000Y-203300000D01*
X187800000Y-203344444D01*
X173800000Y-308700000D02*
X178400000Y-309000000D01*
X178400000Y-309000000D02*
X182400000Y-309500000D01*
X182400000Y-309500000D02*
X186000000Y-310000000D01*
X186000000Y-310000000D02*
X190300000Y-310500000D01*
X190300000Y-310500000D02*
X193300000Y-311100000D01*
X193300000Y-311100000D02*
X193611111Y-311294444D01*
X193611111Y-311294444D02*
X192700000Y-311600000D01*
X192700000Y-311600000D02*
X188000000Y-311700000D01*
X188000000Y-311700000D02*
X184400000Y-311400000D01*
X184400000Y-311400000D02*
X180300000Y-311000000D01*
X180300000Y-311000000D02*
X176700000Y-310400000D01*
X176700000Y-310400000D02*
X173400000Y-309600000D01*
X173400000Y-309600000D02*
X172000000Y-309000000D01*
X172000000Y-309000000D02*
X171900000Y-308800000D01*
X171900000Y-308800000D02*
X172300000Y-308600000D01*
X172300000Y-308600000D02*
X173800000Y-308700000D01*
G36*
X173800000Y-308700000D02*
G01*
X178400000Y-309000000D01*
X182400000Y-309500000D01*
X186000000Y-310000000D01*
X190300000Y-310500000D01*
X193300000Y-311100000D01*
X193611111Y-311294444D01*
X192700000Y-311600000D01*
X188000000Y-311700000D01*
X184400000Y-311400000D01*
X180300000Y-311000000D01*
X176700000Y-310400000D01*
X173400000Y-309600000D01*
X172000000Y-309000000D01*
X171900000Y-308800000D01*
X172300000Y-308600000D01*
X173800000Y-308700000D01*
G37*
X173800000Y-308700000D02*
X178400000Y-309000000D01*
X182400000Y-309500000D01*
X186000000Y-310000000D01*
X190300000Y-310500000D01*
X193300000Y-311100000D01*
X193611111Y-311294444D01*
X192700000Y-311600000D01*
X188000000Y-311700000D01*
X184400000Y-311400000D01*
X180300000Y-311000000D01*
X176700000Y-310400000D01*
X173400000Y-309600000D01*
X172000000Y-309000000D01*
X171900000Y-308800000D01*
X172300000Y-308600000D01*
X173800000Y-308700000D01*
D10*
X194669444Y-208283333D02*
X194310500Y-208284846D01*
X193952163Y-208284983D01*
X193586923Y-208284248D01*
X193258333Y-208283333D01*
X114236111Y-199463888D02*
X114654762Y-199465422D01*
X115085590Y-199468432D01*
X115528446Y-199473045D01*
X115983181Y-199479387D01*
X116449646Y-199487586D01*
X116927691Y-199497769D01*
X117417168Y-199510063D01*
X117917928Y-199524595D01*
X118429820Y-199541492D01*
X118952698Y-199560881D01*
X119486410Y-199582889D01*
X120030809Y-199607642D01*
X120585745Y-199635269D01*
X121151070Y-199665896D01*
X121726633Y-199699650D01*
X122312286Y-199736658D01*
X122907880Y-199777047D01*
X123513266Y-199820944D01*
X124128295Y-199868476D01*
X124752817Y-199919771D01*
X125386684Y-199974955D01*
X126029747Y-200034155D01*
X126681856Y-200097499D01*
X127342862Y-200165113D01*
X128012617Y-200237124D01*
X128690971Y-200313660D01*
X129377776Y-200394847D01*
X130072881Y-200480812D01*
X130776138Y-200571683D01*
X131487399Y-200667587D01*
X132206513Y-200768650D01*
X132933333Y-200875000D01*
D11*
X117100000Y-199500000D02*
X124000000Y-199800000D01*
X124000000Y-199800000D02*
X129300000Y-200400000D01*
X129300000Y-200400000D02*
X132800000Y-200875000D01*
X132800000Y-200875000D02*
X137200000Y-201600000D01*
X137200000Y-201600000D02*
X142900000Y-202600000D01*
X142900000Y-202600000D02*
X146200000Y-203400000D01*
X146200000Y-203400000D02*
X149400000Y-204500000D01*
X149400000Y-204500000D02*
X149800000Y-204900000D01*
X149800000Y-204900000D02*
X149700000Y-205400000D01*
X149700000Y-205400000D02*
X148500000Y-205800000D01*
X148500000Y-205800000D02*
X146000000Y-206100000D01*
X146000000Y-206100000D02*
X141700000Y-206300000D01*
X141700000Y-206300000D02*
X137700000Y-206100000D01*
X137700000Y-206100000D02*
X133300000Y-205700000D01*
X133300000Y-205700000D02*
X129500000Y-205100000D01*
X129500000Y-205100000D02*
X125100000Y-204200000D01*
X125100000Y-204200000D02*
X121400000Y-203100000D01*
X121400000Y-203100000D02*
X117800000Y-201900000D01*
X117800000Y-201900000D02*
X114588889Y-200522222D01*
X114588889Y-200522222D02*
X114236111Y-199463888D01*
X114236111Y-199463888D02*
X117100000Y-199500000D01*
G36*
X117100000Y-199500000D02*
G01*
X124000000Y-199800000D01*
X129300000Y-200400000D01*
X132800000Y-200875000D01*
X137200000Y-201600000D01*
X142900000Y-202600000D01*
X146200000Y-203400000D01*
X149400000Y-204500000D01*
X149800000Y-204900000D01*
X149700000Y-205400000D01*
X148500000Y-205800000D01*
X146000000Y-206100000D01*
X141700000Y-206300000D01*
X137700000Y-206100000D01*
X133300000Y-205700000D01*
X129500000Y-205100000D01*
X125100000Y-204200000D01*
X121400000Y-203100000D01*
X117800000Y-201900000D01*
X114588889Y-200522222D01*
X114236111Y-199463888D01*
X117100000Y-199500000D01*
G37*
X117100000Y-199500000D02*
X124000000Y-199800000D01*
X129300000Y-200400000D01*
X132800000Y-200875000D01*
X137200000Y-201600000D01*
X142900000Y-202600000D01*
X146200000Y-203400000D01*
X149400000Y-204500000D01*
X149800000Y-204900000D01*
X149700000Y-205400000D01*
X148500000Y-205800000D01*
X146000000Y-206100000D01*
X141700000Y-206300000D01*
X137700000Y-206100000D01*
X133300000Y-205700000D01*
X129500000Y-205100000D01*
X125100000Y-204200000D01*
X121400000Y-203100000D01*
X117800000Y-201900000D01*
X114588889Y-200522222D01*
X114236111Y-199463888D01*
X117100000Y-199500000D01*
D10*
X235944444Y-100686111D02*
X235921968Y-100298762D01*
X235901331Y-99877857D01*
X235886560Y-99426532D01*
X235881683Y-98947928D01*
X235890728Y-98445183D01*
X235917723Y-97921437D01*
X235966696Y-97379827D01*
X236041676Y-96823494D01*
X236146690Y-96255575D01*
X236285767Y-95679211D01*
X236462934Y-95097540D01*
X236682220Y-94513701D01*
X236947652Y-93930833D01*
X237263259Y-93352074D01*
X237633069Y-92780565D01*
X238061111Y-92219444D01*
X95538889Y-229802777D02*
X95536636Y-229380934D01*
X95522214Y-228921288D01*
X95492624Y-228425093D01*
X95444868Y-227893604D01*
X95375951Y-227328075D01*
X95282873Y-226729761D01*
X95162638Y-226099917D01*
X95012249Y-225439796D01*
X94924810Y-225098775D01*
X94828708Y-224750655D01*
X94723568Y-224395593D01*
X94609017Y-224033746D01*
X94484679Y-223665271D01*
X94350180Y-223290325D01*
X94205145Y-222909064D01*
X94049199Y-222521646D01*
X93881968Y-222128227D01*
X93703077Y-221728964D01*
X93512151Y-221324014D01*
X93308816Y-220913533D01*
X93092697Y-220497679D01*
X92863419Y-220076608D01*
X92620608Y-219650477D01*
X92363889Y-219219444D01*
X190083333Y-404780555D02*
X190056622Y-404272153D01*
X190029515Y-403763114D01*
X190002009Y-403253439D01*
X189974104Y-402743128D01*
X189945798Y-402232182D01*
X189917090Y-401720602D01*
X189887978Y-401208390D01*
X189858460Y-400695545D01*
X189828537Y-400182069D01*
X189798206Y-399667963D01*
X189767465Y-399153227D01*
X189736314Y-398637864D01*
X189704751Y-398121872D01*
X189672775Y-397605254D01*
X189640385Y-397088010D01*
X189607578Y-396570141D01*
X189574355Y-396051648D01*
X189540712Y-395532533D01*
X189506650Y-395012795D01*
X189472166Y-394492436D01*
X189437260Y-393971456D01*
X189401929Y-393449857D01*
X189366173Y-392927640D01*
X189329990Y-392404805D01*
X189293379Y-391881353D01*
X189256339Y-391357286D01*
X189218867Y-390832604D01*
X189180964Y-390307307D01*
X189142626Y-389781398D01*
X189103854Y-389254876D01*
X189064646Y-388727743D01*
X189025000Y-388200000D01*
X89894444Y-230861111D02*
X89875422Y-230470533D01*
X89855351Y-230081618D01*
X89834245Y-229694372D01*
X89812117Y-229308802D01*
X89788982Y-228924914D01*
X89764855Y-228542714D01*
X89739750Y-228162209D01*
X89713681Y-227783406D01*
X89686662Y-227406310D01*
X89658708Y-227030930D01*
X89629833Y-226657270D01*
X89600051Y-226285337D01*
X89569378Y-225915139D01*
X89537826Y-225546681D01*
X89505411Y-225179970D01*
X89472146Y-224815012D01*
X89438047Y-224451814D01*
X89403127Y-224090382D01*
X89367401Y-223730724D01*
X89330883Y-223372845D01*
X89293587Y-223016751D01*
X89255528Y-222662450D01*
X89216720Y-222309948D01*
X89177177Y-221959251D01*
X89136915Y-221610365D01*
X89054285Y-220918056D01*
X88968947Y-220233072D01*
X88881014Y-219555465D01*
X88836111Y-219219444D01*
D11*
X185700000Y-368600000D02*
X186300000Y-369500000D01*
X186300000Y-369500000D02*
X187613889Y-371972222D01*
X187613889Y-371972222D02*
X188200000Y-378700000D01*
X188200000Y-378700000D02*
X189100000Y-388900000D01*
X189100000Y-388900000D02*
X190000000Y-402300000D01*
X190000000Y-402300000D02*
X190000000Y-404280000D01*
X190000000Y-404280000D02*
X190100000Y-404600000D01*
X190100000Y-404600000D02*
X190000000Y-404400000D01*
X190000000Y-404400000D02*
X190000000Y-404280000D01*
X190000000Y-404280000D02*
X188600000Y-399800000D01*
X188600000Y-399800000D02*
X187200000Y-394100000D01*
X187200000Y-394100000D02*
X186100000Y-388700000D01*
X186100000Y-388700000D02*
X185400000Y-384200000D01*
X185400000Y-384200000D02*
X184900000Y-380400000D01*
X184900000Y-380400000D02*
X184600000Y-377700000D01*
X184600000Y-377700000D02*
X184500000Y-374500000D01*
X184500000Y-374500000D02*
X184400000Y-371900000D01*
X184400000Y-371900000D02*
X184500000Y-370000000D01*
X184500000Y-370000000D02*
X184800000Y-368800000D01*
X184800000Y-368800000D02*
X185200000Y-368444444D01*
X185200000Y-368444444D02*
X185700000Y-368600000D01*
G36*
X185700000Y-368600000D02*
G01*
X186300000Y-369500000D01*
X187613889Y-371972222D01*
X188200000Y-378700000D01*
X189100000Y-388900000D01*
X190000000Y-402300000D01*
X190000000Y-404280000D01*
X190100000Y-404600000D01*
X190000000Y-404400000D01*
X190000000Y-404280000D01*
X188600000Y-399800000D01*
X187200000Y-394100000D01*
X186100000Y-388700000D01*
X185400000Y-384200000D01*
X184900000Y-380400000D01*
X184600000Y-377700000D01*
X184500000Y-374500000D01*
X184400000Y-371900000D01*
X184500000Y-370000000D01*
X184800000Y-368800000D01*
X185200000Y-368444444D01*
X185700000Y-368600000D01*
G37*
X185700000Y-368600000D02*
X186300000Y-369500000D01*
X187613889Y-371972222D01*
X188200000Y-378700000D01*
X189100000Y-388900000D01*
X190000000Y-402300000D01*
X190000000Y-404280000D01*
X190100000Y-404600000D01*
X190000000Y-404400000D01*
X190000000Y-404280000D01*
X188600000Y-399800000D01*
X187200000Y-394100000D01*
X186100000Y-388700000D01*
X185400000Y-384200000D01*
X184900000Y-380400000D01*
X184600000Y-377700000D01*
X184500000Y-374500000D01*
X184400000Y-371900000D01*
X184500000Y-370000000D01*
X184800000Y-368800000D01*
X185200000Y-368444444D01*
X185700000Y-368600000D01*
D10*
X171033333Y-206872222D02*
X171393334Y-206666357D01*
X171777030Y-206454672D01*
X172184176Y-206238627D01*
X172614528Y-206019681D01*
X173067842Y-205799294D01*
X173543874Y-205578923D01*
X174042380Y-205360030D01*
X174563116Y-205144073D01*
X175105838Y-204932510D01*
X175670302Y-204726803D01*
X176256263Y-204528409D01*
X176863479Y-204338788D01*
X177491705Y-204159400D01*
X178140696Y-203991703D01*
X178810209Y-203837157D01*
X179500000Y-203697222D01*
X77547222Y-234388888D02*
X77530800Y-234885046D01*
X77519183Y-235375704D01*
X77512208Y-235860770D01*
X77509716Y-236340154D01*
X77511544Y-236813765D01*
X77517532Y-237281514D01*
X77527518Y-237743309D01*
X77541342Y-238199060D01*
X77558843Y-238648677D01*
X77579858Y-239092069D01*
X77604228Y-239529147D01*
X77631792Y-239959819D01*
X77662387Y-240383995D01*
X77695853Y-240801585D01*
X77732029Y-241212498D01*
X77770754Y-241616644D01*
X77811867Y-242013933D01*
X77855207Y-242404274D01*
X77900612Y-242787577D01*
X77947921Y-243163750D01*
X77996974Y-243532705D01*
X78047610Y-243894350D01*
X78099666Y-244248596D01*
X78152983Y-244595351D01*
X78262753Y-245266028D01*
X78375631Y-245905658D01*
X78490327Y-246513519D01*
X78605555Y-247088888D01*
X131522222Y-205461111D02*
X130844022Y-205357017D01*
X130174634Y-205246944D01*
X129514138Y-205131166D01*
X128862615Y-205009956D01*
X128220145Y-204883587D01*
X127586808Y-204752334D01*
X126962684Y-204616471D01*
X126347854Y-204476271D01*
X125742399Y-204332008D01*
X125146398Y-204183955D01*
X124559931Y-204032387D01*
X123983080Y-203877577D01*
X123415923Y-203719799D01*
X122858543Y-203559327D01*
X122311019Y-203396435D01*
X121773430Y-203231396D01*
X121245859Y-203064484D01*
X120728384Y-202895973D01*
X120221087Y-202726137D01*
X119724047Y-202555249D01*
X119237345Y-202383583D01*
X118761061Y-202211413D01*
X118295275Y-202039013D01*
X117840069Y-201866656D01*
X117395521Y-201694617D01*
X116961713Y-201523169D01*
X116538724Y-201352585D01*
X116126636Y-201183140D01*
X115725528Y-201015107D01*
X115335480Y-200848761D01*
X114956574Y-200684374D01*
X114588889Y-200522222D01*
X185144444Y-368444444D02*
X184782846Y-368801202D01*
X184611515Y-369305889D01*
X184490916Y-369997260D01*
X184448288Y-370405776D01*
X184416718Y-370852350D01*
X184395665Y-371334112D01*
X184384588Y-371848192D01*
X184382944Y-372391718D01*
X184390193Y-372961819D01*
X184405793Y-373555626D01*
X184429202Y-374170267D01*
X184459879Y-374802871D01*
X184497282Y-375450567D01*
X184540870Y-376110486D01*
X184590100Y-376779755D01*
X184644433Y-377455505D01*
X184703325Y-378134864D01*
X184766236Y-378814962D01*
X184832624Y-379492928D01*
X184901947Y-380165891D01*
X184973664Y-380830980D01*
X185047233Y-381485325D01*
X185122113Y-382126055D01*
X185197763Y-382750299D01*
X185273640Y-383355186D01*
X185349203Y-383937846D01*
X185423911Y-384495407D01*
X185497222Y-385025000D01*
X238766666Y-402663888D02*
X239108846Y-402462354D01*
X239453758Y-402233303D01*
X239757662Y-402009855D01*
X240089711Y-401740842D01*
X240440355Y-401425109D01*
X240800042Y-401061502D01*
X241040140Y-400791930D01*
X241277181Y-400500225D01*
X241508336Y-400186044D01*
X241730774Y-399849046D01*
X241941666Y-399488888D01*
X90952777Y-232625000D02*
X90942894Y-233085390D01*
X90935589Y-233542655D01*
X90930809Y-233996768D01*
X90928502Y-234447703D01*
X90928617Y-234895434D01*
X90931103Y-235339935D01*
X90935907Y-235781180D01*
X90942978Y-236219143D01*
X90952264Y-236653797D01*
X90963714Y-237085117D01*
X90977275Y-237513077D01*
X90992896Y-237937649D01*
X91010526Y-238358810D01*
X91030112Y-238776531D01*
X91051604Y-239190788D01*
X91074949Y-239601554D01*
X91100095Y-240008803D01*
X91126991Y-240412509D01*
X91155586Y-240812646D01*
X91185827Y-241209188D01*
X91217662Y-241602109D01*
X91251041Y-241991382D01*
X91285912Y-242376982D01*
X91322222Y-242758882D01*
X91359920Y-243137057D01*
X91398955Y-243511481D01*
X91439274Y-243882126D01*
X91480827Y-244248968D01*
X91523561Y-244611980D01*
X91567424Y-244971136D01*
X91612365Y-245326410D01*
X91658333Y-245677777D01*
X185497222Y-309883333D02*
X185849030Y-309928361D01*
X186203840Y-309973841D01*
X186560718Y-310019722D01*
X186918728Y-310065953D01*
X187276938Y-310112482D01*
X187634413Y-310159259D01*
X187990220Y-310206231D01*
X188343424Y-310253349D01*
X188693091Y-310300560D01*
X189378079Y-310395058D01*
X190037712Y-310489317D01*
X190664519Y-310582925D01*
X191251027Y-310675473D01*
X191789764Y-310766552D01*
X192273258Y-310855751D01*
X192694038Y-310942662D01*
X193044631Y-311026873D01*
X193422576Y-311147234D01*
X193611111Y-311294444D01*
X238061111Y-92219444D02*
X238382965Y-91850487D01*
X238713686Y-91509349D01*
X239050996Y-91194942D01*
X239392619Y-90906175D01*
X239736279Y-90641960D01*
X240079700Y-90401207D01*
X240420606Y-90182826D01*
X240756720Y-89985730D01*
X241085767Y-89808827D01*
X241405469Y-89651029D01*
X241862525Y-89447772D01*
X242285753Y-89281372D01*
X242667472Y-89148155D01*
X243000000Y-89044444D01*
X185497222Y-385025000D02*
X185564724Y-385497416D01*
X185635828Y-385980334D01*
X185710663Y-386473639D01*
X185789358Y-386977216D01*
X185872042Y-387490949D01*
X185958844Y-388014725D01*
X186049892Y-388548427D01*
X186145316Y-389091941D01*
X186245244Y-389645151D01*
X186349806Y-390207943D01*
X186459130Y-390780202D01*
X186573345Y-391361811D01*
X186692581Y-391952657D01*
X186816965Y-392552624D01*
X186946627Y-393161596D01*
X187081697Y-393779460D01*
X187222301Y-394406100D01*
X187368571Y-395041401D01*
X187520634Y-395685247D01*
X187678620Y-396337524D01*
X187842658Y-396998117D01*
X188012875Y-397666910D01*
X188189402Y-398343789D01*
X188372367Y-399028638D01*
X188561899Y-399721342D01*
X188758128Y-400421787D01*
X188961181Y-401129857D01*
X189171188Y-401845436D01*
X189388277Y-402568411D01*
X189612579Y-403298666D01*
X189844221Y-404036085D01*
X190083333Y-404780555D01*
X243000000Y-113386111D02*
X242664743Y-113116159D01*
X242396436Y-112890913D01*
X242115494Y-112645792D01*
X241823557Y-112380481D01*
X241522263Y-112094668D01*
X241213252Y-111788038D01*
X240898161Y-111460277D01*
X240578631Y-111111073D01*
X240256299Y-110740112D01*
X239932806Y-110347080D01*
X239825000Y-110211111D01*
X236297222Y-312352777D02*
X236767292Y-312312055D01*
X237256859Y-312265344D01*
X237759023Y-312213202D01*
X238266886Y-312156185D01*
X238773547Y-312094851D01*
X239272109Y-312029755D01*
X239755672Y-311961455D01*
X240217337Y-311890507D01*
X240650204Y-311817469D01*
X241047376Y-311742897D01*
X241401953Y-311667349D01*
X241838860Y-311553412D01*
X242207930Y-311403276D01*
X242294444Y-311294444D01*
X88130555Y-246736111D02*
X88175658Y-246279358D01*
X88220980Y-245838563D01*
X88266267Y-245414301D01*
X88311267Y-245007146D01*
X88355727Y-244617674D01*
X88399393Y-244246461D01*
X88442012Y-243894081D01*
X88483333Y-243561111D01*
X110361111Y-287312778D02*
X110083032Y-287080484D01*
X109743135Y-286811428D01*
X109451775Y-286577186D01*
X109113509Y-286299943D01*
X108732538Y-285980467D01*
X108313064Y-285619526D01*
X107859290Y-285217888D01*
X107375417Y-284776323D01*
X106865648Y-284295598D01*
X106602365Y-284040791D01*
X106334184Y-283776481D01*
X106061630Y-283502766D01*
X105785229Y-283219742D01*
X105505505Y-282927503D01*
X105222983Y-282626147D01*
X104938190Y-282315770D01*
X104651650Y-281996466D01*
X104363889Y-281668334D01*
X128347222Y-299652777D02*
X128766144Y-299873262D01*
X129185067Y-300093747D01*
X129603990Y-300314233D01*
X130022914Y-300534719D01*
X130441838Y-300755205D01*
X130860762Y-300975692D01*
X131279686Y-301196179D01*
X131698611Y-301416666D01*
X132117535Y-301637152D01*
X132536459Y-301857639D01*
X132955383Y-302078126D01*
X133374307Y-302298612D01*
X133793231Y-302519098D01*
X134212154Y-302739584D01*
X134631077Y-302960069D01*
X135050000Y-303180555D01*
X88836111Y-243208333D02*
X89199577Y-243156950D01*
X89548202Y-243270666D01*
X89837042Y-243495932D01*
X89894444Y-243561111D01*
X230652777Y-310588888D02*
X230110960Y-310585384D01*
X229578181Y-310582016D01*
X229054969Y-310578863D01*
X228541854Y-310576006D01*
X228039364Y-310573526D01*
X227548028Y-310571501D01*
X227068377Y-310570013D01*
X226600938Y-310569141D01*
X226146242Y-310568966D01*
X225704817Y-310569568D01*
X225277193Y-310571027D01*
X224863898Y-310573424D01*
X224465463Y-310576838D01*
X224082415Y-310581349D01*
X223715285Y-310587039D01*
X223364602Y-310593986D01*
X222714692Y-310611975D01*
X222136918Y-310635959D01*
X221635514Y-310666579D01*
X221214714Y-310704476D01*
X220743907Y-310776369D01*
X220422222Y-310941666D01*
X78605555Y-247088888D02*
X78733781Y-246613366D01*
X78864185Y-246110616D01*
X78995786Y-245581160D01*
X79127604Y-245025520D01*
X79258658Y-244444217D01*
X79387968Y-243837775D01*
X79514553Y-243206715D01*
X79637433Y-242551560D01*
X79755628Y-241872832D01*
X79812662Y-241524791D01*
X79868157Y-241171053D01*
X79921990Y-240811682D01*
X79974039Y-240446745D01*
X80024182Y-240076306D01*
X80072295Y-239700431D01*
X80118257Y-239319185D01*
X80161944Y-238932633D01*
X80203234Y-238540840D01*
X80242005Y-238143872D01*
X80278134Y-237741795D01*
X80311499Y-237334672D01*
X80341976Y-236922570D01*
X80369444Y-236505555D01*
X116000000Y-288363888D02*
X116381704Y-288366990D01*
X116792300Y-288492266D01*
X117347294Y-288694931D01*
X117678447Y-288824089D01*
X118045110Y-288971162D01*
X118447085Y-289135671D01*
X118884175Y-289317139D01*
X119356184Y-289515088D01*
X119862915Y-289729040D01*
X120404171Y-289958518D01*
X120979756Y-290203044D01*
X121589472Y-290462140D01*
X122233123Y-290735329D01*
X122910513Y-291022134D01*
X123621444Y-291322075D01*
X124365719Y-291634676D01*
X125143142Y-291959460D01*
X125953517Y-292295948D01*
X126796645Y-292643662D01*
X127672332Y-293002126D01*
X128580379Y-293370861D01*
X129520590Y-293749390D01*
X130492769Y-294137235D01*
X131496718Y-294533918D01*
X132532241Y-294938962D01*
X133599141Y-295351889D01*
X134697222Y-295772222D01*
D11*
X236400000Y-310700000D02*
X239700000Y-310800000D01*
X239700000Y-310800000D02*
X241400000Y-311000000D01*
X241400000Y-311000000D02*
X242200000Y-311200000D01*
X242200000Y-311200000D02*
X242000000Y-311500000D01*
X242000000Y-311500000D02*
X239800000Y-312000000D01*
X239800000Y-312000000D02*
X236900000Y-312300000D01*
X236900000Y-312300000D02*
X233400000Y-312500000D01*
X233400000Y-312500000D02*
X230000000Y-312500000D01*
X230000000Y-312500000D02*
X225500000Y-312100000D01*
X225500000Y-312100000D02*
X223000000Y-311800000D01*
X223000000Y-311800000D02*
X221700000Y-311500000D01*
X221700000Y-311500000D02*
X220600000Y-311100000D01*
X220600000Y-311100000D02*
X220600000Y-310941666D01*
X220600000Y-310941666D02*
X220800000Y-310700000D01*
X220800000Y-310700000D02*
X222200000Y-310600000D01*
X222200000Y-310600000D02*
X228100000Y-310600000D01*
X228100000Y-310600000D02*
X231200000Y-310588888D01*
X231200000Y-310588888D02*
X233700000Y-310588888D01*
X233700000Y-310588888D02*
X236400000Y-310700000D01*
G36*
X236400000Y-310700000D02*
G01*
X239700000Y-310800000D01*
X241400000Y-311000000D01*
X242200000Y-311200000D01*
X242000000Y-311500000D01*
X239800000Y-312000000D01*
X236900000Y-312300000D01*
X233400000Y-312500000D01*
X230000000Y-312500000D01*
X225500000Y-312100000D01*
X223000000Y-311800000D01*
X221700000Y-311500000D01*
X220600000Y-311100000D01*
X220600000Y-310941666D01*
X220800000Y-310700000D01*
X222200000Y-310600000D01*
X228100000Y-310600000D01*
X231200000Y-310588888D01*
X233700000Y-310588888D01*
X236400000Y-310700000D01*
G37*
X236400000Y-310700000D02*
X239700000Y-310800000D01*
X241400000Y-311000000D01*
X242200000Y-311200000D01*
X242000000Y-311500000D01*
X239800000Y-312000000D01*
X236900000Y-312300000D01*
X233400000Y-312500000D01*
X230000000Y-312500000D01*
X225500000Y-312100000D01*
X223000000Y-311800000D01*
X221700000Y-311500000D01*
X220600000Y-311100000D01*
X220600000Y-310941666D01*
X220800000Y-310700000D01*
X222200000Y-310600000D01*
X228100000Y-310600000D01*
X231200000Y-310588888D01*
X233700000Y-310588888D01*
X236400000Y-310700000D01*
D10*
X88836111Y-219219444D02*
X88592928Y-218955582D01*
X88483333Y-218866666D01*
X100130556Y-279551667D02*
X100882798Y-280130094D01*
X101599316Y-280680744D01*
X102280890Y-281204226D01*
X102928302Y-281701152D01*
X103542335Y-282172131D01*
X104123771Y-282617775D01*
X104673390Y-283038695D01*
X105191977Y-283435501D01*
X105680311Y-283808804D01*
X106139176Y-284159215D01*
X106569353Y-284487345D01*
X106971625Y-284793804D01*
X107346773Y-285079203D01*
X107695579Y-285344154D01*
X108018825Y-285589266D01*
X108317294Y-285815151D01*
X108843026Y-286211682D01*
X109279031Y-286538632D01*
X109631564Y-286800889D01*
X110017539Y-287083660D01*
X110332097Y-287300698D01*
X110361111Y-287312778D01*
M02*
