%TF.GenerationSoftware,KiCad,Pcbnew,(6.0.2)*%
%TF.CreationDate,2022-04-02T19:10:38-07:00*%
%TF.ProjectId,DaftPunkTopLayerLeftBoard,44616674-5075-46e6-9b54-6f704c617965,rev?*%
%TF.SameCoordinates,Original*%
%TF.FileFunction,Copper,L1,Top*%
%TF.FilePolarity,Positive*%
%FSLAX46Y46*%
G04 Gerber Fmt 4.6, Leading zero omitted, Abs format (unit mm)*
G04 Created by KiCad (PCBNEW (6.0.2)) date 2022-04-02 19:10:38*
%MOMM*%
%LPD*%
G01*
G04 APERTURE LIST*
G04 APERTURE END LIST*
%TA.AperFunction,NonConductor*%
G36*
X242822258Y-43255933D02*
G01*
X242877952Y-43299963D01*
X242901127Y-43372263D01*
X242922023Y-48418719D01*
X242944145Y-53761004D01*
X242966082Y-59058794D01*
X242988131Y-64383534D01*
X243010180Y-69708273D01*
X243032228Y-75033013D01*
X243054277Y-80357752D01*
X243076326Y-85682492D01*
X243098374Y-91007232D01*
X243120423Y-96331971D01*
X243142471Y-101656711D01*
X243164519Y-106981450D01*
X243186568Y-112306190D01*
X243208616Y-117630929D01*
X243230673Y-122957740D01*
X243252713Y-128280409D01*
X243274761Y-133605148D01*
X243296809Y-138929888D01*
X243318985Y-144285418D01*
X243340906Y-149579367D01*
X243362954Y-154904106D01*
X243385002Y-160228846D01*
X243407179Y-165584433D01*
X243429099Y-170878325D01*
X243451148Y-176203065D01*
X243473197Y-181527804D01*
X243495245Y-186852544D01*
X243517337Y-192187678D01*
X243539343Y-197502023D01*
X243561472Y-202846056D01*
X243583457Y-208155258D01*
X243604319Y-213193087D01*
X243604672Y-213278353D01*
X243584952Y-213346556D01*
X243531489Y-213393271D01*
X243486221Y-213404649D01*
X242635551Y-213455701D01*
X241913088Y-213499059D01*
X240144193Y-213600071D01*
X239211821Y-213650627D01*
X238391835Y-213695088D01*
X238391477Y-213695107D01*
X236656490Y-213784232D01*
X236656135Y-213784250D01*
X234938514Y-213867628D01*
X234938163Y-213867644D01*
X233238346Y-213945401D01*
X233237998Y-213945417D01*
X231555182Y-214017736D01*
X231554837Y-214017750D01*
X230462538Y-214061697D01*
X229890213Y-214084723D01*
X229889994Y-214084731D01*
X229637850Y-214094191D01*
X228243576Y-214146502D01*
X228243238Y-214146515D01*
X226614496Y-214203249D01*
X225791888Y-214229716D01*
X225003889Y-214255069D01*
X225003558Y-214255079D01*
X223985193Y-214285167D01*
X223411663Y-214302112D01*
X222835028Y-214317648D01*
X221838939Y-214344485D01*
X221838615Y-214344494D01*
X220284481Y-214382370D01*
X219355958Y-214402637D01*
X218748957Y-214415886D01*
X218748640Y-214415893D01*
X217232425Y-214445172D01*
X217232112Y-214445177D01*
X215736262Y-214470345D01*
X215735952Y-214470350D01*
X214541256Y-214487516D01*
X214258930Y-214491573D01*
X214258713Y-214491575D01*
X214073115Y-214493792D01*
X212801422Y-214508977D01*
X212801121Y-214508980D01*
X211364130Y-214522696D01*
X211363831Y-214522699D01*
X209946641Y-214532871D01*
X209946347Y-214532873D01*
X208549314Y-214539637D01*
X208549024Y-214539638D01*
X207172442Y-214543133D01*
X207172155Y-214543133D01*
X206446286Y-214543325D01*
X205816276Y-214543492D01*
X205404415Y-214542679D01*
X204480923Y-214540855D01*
X204480645Y-214540854D01*
X203166349Y-214535358D01*
X203166075Y-214535356D01*
X202357066Y-214530215D01*
X201872923Y-214527138D01*
X201386967Y-214523010D01*
X200601466Y-214516338D01*
X200601201Y-214516336D01*
X199350408Y-214503082D01*
X198121644Y-214487520D01*
X198121389Y-214487516D01*
X196914681Y-214469786D01*
X196914430Y-214469782D01*
X195729635Y-214450016D01*
X195729492Y-214450014D01*
X195729488Y-214450014D01*
X195647564Y-214448551D01*
X193927479Y-214417837D01*
X193927402Y-214417836D01*
X192127367Y-214384583D01*
X192127368Y-214384555D01*
X192127245Y-214384581D01*
X191060850Y-214363833D01*
X190324377Y-214349504D01*
X190324208Y-214349501D01*
X188518617Y-214311946D01*
X188518402Y-214311941D01*
X187925709Y-214298604D01*
X186710572Y-214271261D01*
X184897786Y-214226743D01*
X184174510Y-214207244D01*
X183079793Y-214177730D01*
X183079448Y-214177720D01*
X182111171Y-214148959D01*
X181255259Y-214123536D01*
X179423641Y-214063498D01*
X178830503Y-214042040D01*
X177583638Y-213996932D01*
X177583171Y-213996914D01*
X177134257Y-213979007D01*
X175734038Y-213923153D01*
X175733893Y-213923147D01*
X173874262Y-213841502D01*
X173874158Y-213841497D01*
X172003132Y-213751296D01*
X172002731Y-213751276D01*
X171375461Y-213718160D01*
X170119648Y-213651861D01*
X170119040Y-213651827D01*
X168222831Y-213542522D01*
X168222191Y-213542484D01*
X166311260Y-213422578D01*
X166310592Y-213422534D01*
X165229117Y-213348897D01*
X164384471Y-213291385D01*
X164384076Y-213291357D01*
X163016182Y-213190603D01*
X162441450Y-213148270D01*
X162440729Y-213148214D01*
X160480989Y-212992541D01*
X160480243Y-212992480D01*
X158501914Y-212823509D01*
X158501148Y-212823441D01*
X157891120Y-212767582D01*
X156503381Y-212640509D01*
X156502838Y-212640458D01*
X154484689Y-212442895D01*
X154483891Y-212442814D01*
X154234090Y-212416742D01*
X152444370Y-212229947D01*
X152443725Y-212229878D01*
X150381465Y-212000991D01*
X150380932Y-212000931D01*
X148601877Y-211791481D01*
X148295368Y-211755396D01*
X148294523Y-211755293D01*
X146184910Y-211492469D01*
X146184055Y-211492360D01*
X144048703Y-211211488D01*
X144047840Y-211211371D01*
X141886096Y-210911819D01*
X141885227Y-210911696D01*
X141036930Y-210788118D01*
X139695834Y-210592750D01*
X139695085Y-210592638D01*
X138728633Y-210444922D01*
X137477210Y-210253648D01*
X137476333Y-210253510D01*
X135229407Y-209893870D01*
X135228529Y-209893727D01*
X132950272Y-209512555D01*
X132949594Y-209512439D01*
X131699063Y-209296192D01*
X131698587Y-209296109D01*
X130926497Y-209159543D01*
X130462078Y-209077398D01*
X130461746Y-209077339D01*
X129853052Y-208967294D01*
X129240629Y-208856575D01*
X129240166Y-208856490D01*
X128562881Y-208731429D01*
X128034287Y-208633823D01*
X128033985Y-208633767D01*
X126843093Y-208409317D01*
X126842642Y-208409231D01*
X125667512Y-208183315D01*
X125667067Y-208183229D01*
X124507705Y-207956017D01*
X124507267Y-207955930D01*
X124207384Y-207896053D01*
X123364061Y-207727669D01*
X122236544Y-207498433D01*
X122236224Y-207498367D01*
X121125144Y-207268474D01*
X121124724Y-207268387D01*
X121074873Y-207257895D01*
X120922288Y-207225781D01*
X120030787Y-207038152D01*
X120030373Y-207038064D01*
X118953058Y-206807548D01*
X118952650Y-206807460D01*
X117891874Y-206576805D01*
X117891472Y-206576717D01*
X117747349Y-206544886D01*
X116847914Y-206346236D01*
X116036395Y-206164264D01*
X115821783Y-206116140D01*
X115821394Y-206116052D01*
X115269690Y-205990504D01*
X114812705Y-205886511D01*
X114812527Y-205886470D01*
X113821272Y-205657639D01*
X112847792Y-205429760D01*
X112847422Y-205429672D01*
X111892922Y-205203192D01*
X111892557Y-205203105D01*
X111779729Y-205175979D01*
X110955487Y-204977815D01*
X110037607Y-204754301D01*
X110037256Y-204754215D01*
X109137581Y-204532397D01*
X109137236Y-204532311D01*
X108478942Y-204368037D01*
X108256932Y-204312635D01*
X108256621Y-204312557D01*
X107395345Y-204095099D01*
X107395014Y-204095015D01*
X106552680Y-203879909D01*
X106552356Y-203879826D01*
X105729478Y-203667360D01*
X105729161Y-203667278D01*
X105667078Y-203651076D01*
X104925737Y-203457607D01*
X104925487Y-203457542D01*
X104875249Y-203444295D01*
X104741617Y-203409059D01*
X104142106Y-203250979D01*
X104141805Y-203250899D01*
X103378258Y-203047544D01*
X103377964Y-203047465D01*
X103353031Y-203040760D01*
X102635090Y-202847696D01*
X101912215Y-202651489D01*
X101238714Y-202467040D01*
X101234715Y-202465352D01*
X101221628Y-202462067D01*
X101206010Y-202452883D01*
X101179282Y-202455478D01*
X101173029Y-202455928D01*
X101169397Y-202456099D01*
X101163116Y-202456393D01*
X101163115Y-202456393D01*
X101146194Y-202457187D01*
X101144057Y-202458898D01*
X101141330Y-202459163D01*
X101128395Y-202470626D01*
X101128394Y-202470626D01*
X101121236Y-202476969D01*
X101116423Y-202481024D01*
X101095467Y-202497803D01*
X101094743Y-202500445D01*
X101092694Y-202502261D01*
X101088965Y-202519142D01*
X101088965Y-202519143D01*
X101086902Y-202528484D01*
X101085397Y-202534571D01*
X101078302Y-202560479D01*
X101083667Y-202574688D01*
X101083814Y-202582707D01*
X101086704Y-202595113D01*
X101111313Y-202848589D01*
X101305816Y-204851988D01*
X101305817Y-204851991D01*
X101526302Y-207122995D01*
X101526303Y-207122998D01*
X101746788Y-209394001D01*
X101746789Y-209394004D01*
X101967274Y-211665008D01*
X101967275Y-211665011D01*
X102187760Y-213936014D01*
X102187761Y-213936017D01*
X102408246Y-216207021D01*
X102408247Y-216207024D01*
X102628731Y-218478028D01*
X102628732Y-218478031D01*
X102849217Y-220749034D01*
X102849218Y-220749037D01*
X103069703Y-223020041D01*
X103069704Y-223020044D01*
X103290189Y-225291048D01*
X103290190Y-225291051D01*
X103510675Y-227562054D01*
X103510676Y-227562057D01*
X103731161Y-229833061D01*
X103731162Y-229833064D01*
X103951647Y-232104068D01*
X103951648Y-232104071D01*
X104172133Y-234375075D01*
X104172134Y-234375078D01*
X104392619Y-236646082D01*
X104392620Y-236646085D01*
X104613105Y-238917088D01*
X104613106Y-238917091D01*
X104833591Y-241188095D01*
X104833592Y-241188098D01*
X105054077Y-243459102D01*
X105054078Y-243459105D01*
X105274563Y-245730109D01*
X105274564Y-245730112D01*
X105495049Y-248001116D01*
X105495050Y-248001119D01*
X105715535Y-250272123D01*
X105715536Y-250272126D01*
X105936022Y-252543130D01*
X105936023Y-252543133D01*
X106156508Y-254814137D01*
X106156509Y-254814140D01*
X106376994Y-257085144D01*
X106376995Y-257085147D01*
X106597480Y-259356152D01*
X106597481Y-259356155D01*
X106817967Y-261627159D01*
X106817968Y-261627162D01*
X107038453Y-263898166D01*
X107038454Y-263898169D01*
X107258940Y-266169174D01*
X107258941Y-266169177D01*
X107479426Y-268440181D01*
X107479427Y-268440184D01*
X107699913Y-270711188D01*
X107699914Y-270711191D01*
X107915463Y-272931339D01*
X107920400Y-272982193D01*
X107920401Y-272982199D01*
X108136500Y-275208021D01*
X108136369Y-275211956D01*
X108137790Y-275221309D01*
X108138093Y-275224425D01*
X108134937Y-275243576D01*
X108143886Y-275261415D01*
X108143886Y-275261416D01*
X108146766Y-275267157D01*
X108149650Y-275273316D01*
X108152221Y-275279215D01*
X108160194Y-275297511D01*
X108176928Y-275307350D01*
X108179109Y-275309558D01*
X108185393Y-275316650D01*
X108188505Y-275319072D01*
X108337623Y-275470066D01*
X108337623Y-275470067D01*
X108334762Y-275472893D01*
X108334891Y-275472994D01*
X108337694Y-275470208D01*
X108348311Y-275480890D01*
X108348597Y-275481178D01*
X108359766Y-275492488D01*
X108356948Y-275495270D01*
X108357052Y-275495406D01*
X108359912Y-275492563D01*
X108521309Y-275654960D01*
X108518329Y-275657922D01*
X108518464Y-275658025D01*
X108521383Y-275655105D01*
X108521383Y-275655106D01*
X108532490Y-275666211D01*
X108543523Y-275677312D01*
X108540746Y-275680072D01*
X108540849Y-275680207D01*
X108543668Y-275677387D01*
X108707602Y-275841285D01*
X108704662Y-275844225D01*
X108704800Y-275844329D01*
X108707678Y-275841432D01*
X108718755Y-275852437D01*
X108729885Y-275863564D01*
X108727084Y-275866365D01*
X108727190Y-275866502D01*
X108730033Y-275863639D01*
X108896504Y-276029004D01*
X108893638Y-276031890D01*
X108893775Y-276031993D01*
X108896580Y-276029151D01*
X108907542Y-276039969D01*
X108907837Y-276040261D01*
X108918859Y-276051210D01*
X108916092Y-276053996D01*
X108916198Y-276054132D01*
X108919008Y-276051285D01*
X109088021Y-276218082D01*
X109085054Y-276221088D01*
X109085195Y-276221193D01*
X109088099Y-276218231D01*
X109099199Y-276229114D01*
X109099491Y-276229402D01*
X109110447Y-276240214D01*
X109107681Y-276243017D01*
X109107789Y-276243155D01*
X109110598Y-276240289D01*
X109282155Y-276408484D01*
X109279210Y-276411488D01*
X109279357Y-276411595D01*
X109282237Y-276408638D01*
X109293364Y-276419475D01*
X109293660Y-276419764D01*
X109304651Y-276430539D01*
X109301917Y-276433327D01*
X109302028Y-276433468D01*
X109304805Y-276430617D01*
X109478912Y-276600176D01*
X109476119Y-276603044D01*
X109476264Y-276603152D01*
X109478994Y-276600330D01*
X109478994Y-276600331D01*
X109490414Y-276611378D01*
X109490562Y-276611522D01*
X109501483Y-276622158D01*
X109498731Y-276624984D01*
X109498840Y-276625121D01*
X109501635Y-276622232D01*
X109678300Y-276793128D01*
X109675407Y-276796119D01*
X109675550Y-276796224D01*
X109678380Y-276793278D01*
X109678381Y-276793280D01*
X109689562Y-276804022D01*
X109700940Y-276815029D01*
X109698210Y-276817851D01*
X109698324Y-276817993D01*
X109701098Y-276815106D01*
X109880314Y-276987295D01*
X109877383Y-276990346D01*
X109877529Y-276990449D01*
X109880394Y-276987446D01*
X109880398Y-276987450D01*
X109891684Y-276998219D01*
X109891825Y-276998354D01*
X109903032Y-277009123D01*
X109900324Y-277011942D01*
X109900435Y-277012080D01*
X109903187Y-277009196D01*
X110084966Y-277182651D01*
X110082164Y-277185588D01*
X110082312Y-277185695D01*
X110085050Y-277182806D01*
X110096342Y-277193506D01*
X110096664Y-277193813D01*
X110107756Y-277204398D01*
X110105040Y-277207245D01*
X110105154Y-277207386D01*
X110107915Y-277204473D01*
X110292254Y-277379157D01*
X110289386Y-277382183D01*
X110289539Y-277382292D01*
X110292341Y-277379315D01*
X110303800Y-277390098D01*
X110304120Y-277390401D01*
X110315118Y-277400823D01*
X110312430Y-277403660D01*
X110312546Y-277403802D01*
X110315278Y-277400899D01*
X110502189Y-277576779D01*
X110499326Y-277579821D01*
X110499482Y-277579932D01*
X110502278Y-277576940D01*
X110513772Y-277587679D01*
X110514101Y-277587988D01*
X110525126Y-277598363D01*
X110522428Y-277601230D01*
X110522547Y-277601375D01*
X110525289Y-277598440D01*
X110714773Y-277775488D01*
X110711981Y-277778476D01*
X110712131Y-277778582D01*
X110714857Y-277775643D01*
X110725926Y-277785911D01*
X110726224Y-277786187D01*
X110734673Y-277794082D01*
X110737786Y-277796991D01*
X110735107Y-277799858D01*
X110735226Y-277800002D01*
X110737950Y-277797066D01*
X110930006Y-277975239D01*
X110927221Y-277978241D01*
X110927377Y-277978352D01*
X110930096Y-277975400D01*
X110941606Y-277986001D01*
X110953092Y-277996657D01*
X110950444Y-277999510D01*
X110950567Y-277999658D01*
X110953259Y-277996735D01*
X111147896Y-278176004D01*
X111145173Y-278178960D01*
X111145333Y-278179072D01*
X111147989Y-278176167D01*
X111159388Y-278186590D01*
X111159723Y-278186898D01*
X111171058Y-278197338D01*
X111168409Y-278200215D01*
X111168532Y-278200362D01*
X111171227Y-278197415D01*
X111368448Y-278377749D01*
X111365644Y-278380816D01*
X111365808Y-278380928D01*
X111368544Y-278377914D01*
X111379948Y-278388266D01*
X111380282Y-278388570D01*
X111391683Y-278398994D01*
X111389056Y-278401867D01*
X111389185Y-278402019D01*
X111391857Y-278399075D01*
X111591664Y-278580436D01*
X111588900Y-278583481D01*
X111589061Y-278583590D01*
X111591757Y-278580598D01*
X111603143Y-278590856D01*
X111603492Y-278591172D01*
X111614979Y-278601599D01*
X111612341Y-278604506D01*
X111612468Y-278604655D01*
X111615152Y-278601676D01*
X111817549Y-278784029D01*
X111814806Y-278787074D01*
X111814972Y-278787187D01*
X111817646Y-278784196D01*
X111829159Y-278794492D01*
X111829504Y-278794801D01*
X111840941Y-278805105D01*
X111838317Y-278808018D01*
X111838446Y-278808168D01*
X111841115Y-278805183D01*
X112046108Y-278988500D01*
X112043305Y-278991635D01*
X112043468Y-278991744D01*
X112046202Y-278988663D01*
X112046205Y-278988665D01*
X112046205Y-278988666D01*
X112057917Y-278999061D01*
X112069576Y-279009487D01*
X112069577Y-279009488D01*
X112069580Y-279009490D01*
X112066960Y-279012420D01*
X112067087Y-279012567D01*
X112069752Y-279009564D01*
X112277344Y-279193810D01*
X112274587Y-279196916D01*
X112274754Y-279197027D01*
X112277442Y-279193976D01*
X112288981Y-279204139D01*
X112289343Y-279204459D01*
X112300889Y-279214707D01*
X112298302Y-279217622D01*
X112298435Y-279217775D01*
X112301068Y-279214786D01*
X112511260Y-279399923D01*
X112508567Y-279402981D01*
X112508735Y-279403092D01*
X112511359Y-279400089D01*
X112511361Y-279400090D01*
X112511361Y-279400091D01*
X112523204Y-279410442D01*
X112534885Y-279420731D01*
X112534886Y-279420732D01*
X112534888Y-279420733D01*
X112532300Y-279423671D01*
X112532431Y-279423819D01*
X112535063Y-279420808D01*
X112747865Y-279606808D01*
X112745085Y-279609988D01*
X112745259Y-279610100D01*
X112747967Y-279606978D01*
X112759575Y-279617046D01*
X112759936Y-279617360D01*
X112771564Y-279627523D01*
X112768993Y-279630464D01*
X112769131Y-279630620D01*
X112771748Y-279627602D01*
X112987158Y-279814425D01*
X112984422Y-279817579D01*
X112984594Y-279817690D01*
X112987259Y-279814593D01*
X112987262Y-279814596D01*
X112999227Y-279824892D01*
X112999360Y-279825007D01*
X113010941Y-279835052D01*
X113008394Y-279837989D01*
X113008528Y-279838139D01*
X113011120Y-279835127D01*
X113229146Y-280022745D01*
X113226535Y-280025779D01*
X113226712Y-280025895D01*
X113229253Y-280022919D01*
X113241028Y-280032972D01*
X113241402Y-280033292D01*
X113253004Y-280043276D01*
X113250475Y-280046215D01*
X113250613Y-280046370D01*
X113253188Y-280043354D01*
X113473833Y-280231732D01*
X113471181Y-280234838D01*
X113471358Y-280234952D01*
X113473939Y-280231904D01*
X113485582Y-280241765D01*
X113485964Y-280242090D01*
X113497770Y-280252170D01*
X113495244Y-280255128D01*
X113495384Y-280255283D01*
X113497956Y-280252246D01*
X113721223Y-280441350D01*
X113718612Y-280444433D01*
X113718794Y-280444548D01*
X113721334Y-280441525D01*
X113732512Y-280450918D01*
X113733079Y-280451394D01*
X113733452Y-280451709D01*
X113745236Y-280461689D01*
X113742723Y-280464657D01*
X113742866Y-280464815D01*
X113745426Y-280461768D01*
X113971320Y-280651563D01*
X113968635Y-280654759D01*
X113968814Y-280654871D01*
X113971427Y-280651736D01*
X113983305Y-280661635D01*
X113983694Y-280661960D01*
X113995417Y-280671810D01*
X113992903Y-280674802D01*
X113993045Y-280674955D01*
X113995604Y-280671885D01*
X114224128Y-280862341D01*
X114221504Y-280865490D01*
X114221686Y-280865604D01*
X114224239Y-280862515D01*
X114236013Y-280872248D01*
X114236399Y-280872569D01*
X114248301Y-280882488D01*
X114245796Y-280885494D01*
X114245943Y-280885653D01*
X114248495Y-280882565D01*
X114479650Y-281073643D01*
X114477067Y-281076768D01*
X114477250Y-281076882D01*
X114479761Y-281073819D01*
X114491781Y-281083672D01*
X114492187Y-281084006D01*
X114503908Y-281093696D01*
X114501427Y-281096697D01*
X114501572Y-281096852D01*
X114504098Y-281093770D01*
X114737895Y-281285440D01*
X114735359Y-281288534D01*
X114735545Y-281288649D01*
X114738010Y-281285617D01*
X114750083Y-281295433D01*
X114750477Y-281295755D01*
X114762229Y-281305389D01*
X114759766Y-281308393D01*
X114759915Y-281308552D01*
X114762424Y-281305466D01*
X114998861Y-281497694D01*
X114996291Y-281500855D01*
X114996480Y-281500969D01*
X114998978Y-281497871D01*
X115011108Y-281507651D01*
X115011349Y-281507846D01*
X115023277Y-281517544D01*
X115020817Y-281520569D01*
X115020967Y-281520726D01*
X115023472Y-281517619D01*
X115262703Y-281710490D01*
X115260209Y-281713583D01*
X115260562Y-281713793D01*
X115262921Y-281710819D01*
X115262923Y-281710821D01*
X115274758Y-281720211D01*
X115275257Y-281720610D01*
X115287053Y-281730121D01*
X115287054Y-281730121D01*
X115287056Y-281730123D01*
X115284726Y-281733013D01*
X115285009Y-281733309D01*
X115287426Y-281730263D01*
X115445095Y-281855369D01*
X115442565Y-281858558D01*
X115442813Y-281858703D01*
X115445250Y-281855599D01*
X115457403Y-281865138D01*
X115457922Y-281865548D01*
X115469695Y-281874889D01*
X115467315Y-281877888D01*
X115467512Y-281878091D01*
X115469950Y-281874985D01*
X115664796Y-282027912D01*
X115662300Y-282031092D01*
X115662518Y-282031219D01*
X115664932Y-282028113D01*
X115676946Y-282037451D01*
X115677417Y-282037818D01*
X115689522Y-282047319D01*
X115687129Y-282050367D01*
X115687306Y-282050547D01*
X115689750Y-282047403D01*
X115962829Y-282259661D01*
X115960360Y-282262837D01*
X115960531Y-282262936D01*
X115962936Y-282259818D01*
X115962937Y-282259819D01*
X115975417Y-282269446D01*
X115987690Y-282278985D01*
X115985294Y-282282068D01*
X115985432Y-282282206D01*
X115987867Y-282279049D01*
X116139632Y-282396113D01*
X116137027Y-282399490D01*
X116137150Y-282399559D01*
X116139708Y-282396224D01*
X116139709Y-282396225D01*
X116152155Y-282405773D01*
X116164606Y-282415377D01*
X116162213Y-282418479D01*
X116162312Y-282418579D01*
X116164733Y-282415423D01*
X116333983Y-282545262D01*
X116331441Y-282548575D01*
X116331569Y-282548648D01*
X116334063Y-282545378D01*
X116346615Y-282554952D01*
X116359004Y-282564457D01*
X116359005Y-282564457D01*
X116359006Y-282564458D01*
X116356605Y-282567587D01*
X116356707Y-282567689D01*
X116359136Y-282564504D01*
X116545244Y-282706469D01*
X116542786Y-282709692D01*
X116542915Y-282709766D01*
X116545326Y-282706587D01*
X116557679Y-282715954D01*
X116557970Y-282716176D01*
X116570313Y-282725592D01*
X116567930Y-282728715D01*
X116568038Y-282728822D01*
X116570451Y-282725640D01*
X116772739Y-282879037D01*
X116770214Y-282882367D01*
X116770350Y-282882444D01*
X116772825Y-282879160D01*
X116772826Y-282879161D01*
X116785291Y-282888555D01*
X116797858Y-282898085D01*
X116795471Y-282901233D01*
X116795584Y-282901344D01*
X116798002Y-282898135D01*
X117015798Y-283062278D01*
X117013304Y-283065587D01*
X117013448Y-283065667D01*
X117015889Y-283062407D01*
X117028304Y-283071704D01*
X117028612Y-283071936D01*
X117040968Y-283081248D01*
X117038591Y-283084403D01*
X117038708Y-283084517D01*
X117041118Y-283081299D01*
X117273745Y-283255500D01*
X117271217Y-283258876D01*
X117271368Y-283258958D01*
X117273841Y-283255634D01*
X117286305Y-283264906D01*
X117286522Y-283265069D01*
X117298967Y-283274388D01*
X117296608Y-283277538D01*
X117296731Y-283277657D01*
X117299123Y-283274441D01*
X117545906Y-283458010D01*
X117543455Y-283461305D01*
X117543613Y-283461391D01*
X117546007Y-283458150D01*
X117558398Y-283467303D01*
X117558735Y-283467553D01*
X117571184Y-283476813D01*
X117568846Y-283479956D01*
X117568974Y-283480080D01*
X117571347Y-283476868D01*
X117831610Y-283669116D01*
X117829207Y-283672369D01*
X117829371Y-283672458D01*
X117831715Y-283669262D01*
X117844118Y-283678358D01*
X117844463Y-283678611D01*
X117856946Y-283687831D01*
X117854607Y-283690998D01*
X117854739Y-283691126D01*
X117857114Y-283687887D01*
X118130184Y-283888131D01*
X118127760Y-283891436D01*
X118127929Y-283891528D01*
X118130292Y-283888281D01*
X118142702Y-283897312D01*
X118143046Y-283897563D01*
X118154713Y-283906118D01*
X118155576Y-283906751D01*
X118153259Y-283909911D01*
X118153401Y-283910047D01*
X118155756Y-283906811D01*
X118440949Y-284114356D01*
X118438581Y-284117609D01*
X118438761Y-284117707D01*
X118441066Y-284114515D01*
X118445351Y-284117609D01*
X118453440Y-284123449D01*
X118453822Y-284123725D01*
X118466404Y-284132881D01*
X118464107Y-284136038D01*
X118464253Y-284136176D01*
X118466588Y-284132941D01*
X118763240Y-284347108D01*
X118760862Y-284350402D01*
X118761045Y-284350500D01*
X118763358Y-284347269D01*
X118763359Y-284347270D01*
X118775928Y-284356269D01*
X118788755Y-284365529D01*
X118788756Y-284365529D01*
X118788757Y-284365530D01*
X118786474Y-284368693D01*
X118786627Y-284368837D01*
X118788951Y-284365592D01*
X119096373Y-284585686D01*
X119093941Y-284589083D01*
X119094138Y-284589185D01*
X119096500Y-284585857D01*
X119096501Y-284585858D01*
X119109363Y-284594985D01*
X119121958Y-284604003D01*
X119121959Y-284604003D01*
X119119700Y-284607158D01*
X119119860Y-284607307D01*
X119122159Y-284604067D01*
X119439688Y-284829408D01*
X119437322Y-284832743D01*
X119437525Y-284832849D01*
X119439820Y-284829585D01*
X119439821Y-284829586D01*
X119452398Y-284838430D01*
X119452717Y-284838655D01*
X119465338Y-284847612D01*
X119463098Y-284850768D01*
X119463267Y-284850924D01*
X119465550Y-284847678D01*
X119792503Y-285077578D01*
X119790245Y-285080789D01*
X119790456Y-285080899D01*
X119792641Y-285077760D01*
X119792643Y-285077762D01*
X119805332Y-285086598D01*
X119818222Y-285095662D01*
X119818223Y-285095662D01*
X119818224Y-285095663D01*
X119816000Y-285098826D01*
X119816178Y-285098990D01*
X119818447Y-285095731D01*
X120154145Y-285329503D01*
X120151815Y-285332849D01*
X120152047Y-285332966D01*
X120154298Y-285329700D01*
X120166937Y-285338413D01*
X120167420Y-285338748D01*
X120179935Y-285347462D01*
X120177733Y-285350625D01*
X120177924Y-285350798D01*
X120180173Y-285347535D01*
X120523946Y-285584493D01*
X120521657Y-285587814D01*
X120521897Y-285587935D01*
X120524105Y-285584697D01*
X120536818Y-285593366D01*
X120537213Y-285593637D01*
X120549815Y-285602324D01*
X120547630Y-285605494D01*
X120547828Y-285605672D01*
X120550061Y-285602397D01*
X120901232Y-285841860D01*
X120898957Y-285845197D01*
X120899210Y-285845323D01*
X120901400Y-285842075D01*
X120913960Y-285850543D01*
X120914509Y-285850914D01*
X120921389Y-285855605D01*
X120927177Y-285859552D01*
X120925011Y-285862728D01*
X120925223Y-285862916D01*
X120927439Y-285859629D01*
X121285327Y-286100910D01*
X121283116Y-286104189D01*
X121283383Y-286104320D01*
X121285505Y-286101134D01*
X121298293Y-286109652D01*
X121298552Y-286109826D01*
X121311354Y-286118457D01*
X121309224Y-286121616D01*
X121309447Y-286121812D01*
X121311629Y-286118536D01*
X121675564Y-286360952D01*
X121673316Y-286364327D01*
X121673598Y-286364464D01*
X121675753Y-286361188D01*
X121688533Y-286369594D01*
X121688981Y-286369891D01*
X121701675Y-286378345D01*
X121699569Y-286381506D01*
X121699805Y-286381711D01*
X121701965Y-286378427D01*
X122071268Y-286621298D01*
X122069081Y-286624623D01*
X122069379Y-286624764D01*
X122071468Y-286621545D01*
X122084116Y-286629751D01*
X122084770Y-286630178D01*
X122097467Y-286638528D01*
X122095382Y-286641699D01*
X122095633Y-286641914D01*
X122097775Y-286638612D01*
X122471766Y-286881253D01*
X122469611Y-286884574D01*
X122469929Y-286884723D01*
X122471981Y-286881513D01*
X122484664Y-286889624D01*
X122485273Y-286890016D01*
X122498056Y-286898310D01*
X122496002Y-286901476D01*
X122496268Y-286901702D01*
X122498382Y-286898397D01*
X122876392Y-287140131D01*
X122874257Y-287143469D01*
X122874589Y-287143622D01*
X122876617Y-287140402D01*
X122889307Y-287148393D01*
X122889958Y-287148806D01*
X122902776Y-287157003D01*
X122902778Y-287157004D01*
X122900757Y-287160164D01*
X122901040Y-287160401D01*
X122903123Y-287157093D01*
X123284468Y-287397235D01*
X123282371Y-287400566D01*
X123282729Y-287400727D01*
X123284713Y-287397525D01*
X123297450Y-287405415D01*
X123298239Y-287405908D01*
X123310951Y-287413913D01*
X123308969Y-287417061D01*
X123309271Y-287417311D01*
X123311318Y-287414006D01*
X123695644Y-287652077D01*
X123693714Y-287655192D01*
X123694449Y-287655512D01*
X123696155Y-287652662D01*
X123708298Y-287659932D01*
X123709929Y-287660925D01*
X123721915Y-287668350D01*
X123720156Y-287671189D01*
X123720775Y-287671692D01*
X123722666Y-287668534D01*
X124735823Y-288275132D01*
X124734062Y-288278074D01*
X124735096Y-288278504D01*
X124736558Y-288275939D01*
X124736559Y-288275940D01*
X124748230Y-288282592D01*
X124750475Y-288283904D01*
X124762058Y-288290839D01*
X124762059Y-288290839D01*
X124760505Y-288293434D01*
X124761390Y-288294133D01*
X124763128Y-288291084D01*
X125795146Y-288879324D01*
X125793416Y-288882360D01*
X125794388Y-288882740D01*
X125795845Y-288880062D01*
X125807770Y-288886549D01*
X125809952Y-288887764D01*
X125821781Y-288894506D01*
X125820245Y-288897201D01*
X125821081Y-288897832D01*
X125822778Y-288894712D01*
X126869947Y-289464319D01*
X126868251Y-289467437D01*
X126869166Y-289467774D01*
X126870612Y-289464994D01*
X126882789Y-289471329D01*
X126884843Y-289472422D01*
X126896938Y-289479001D01*
X126895423Y-289481786D01*
X126896215Y-289482359D01*
X126897871Y-289479175D01*
X127956825Y-290030082D01*
X127955152Y-290033297D01*
X127956009Y-290033595D01*
X127957453Y-290030700D01*
X127969866Y-290036889D01*
X127971792Y-290037870D01*
X127984141Y-290044294D01*
X127982647Y-290047166D01*
X127983394Y-290047685D01*
X127985012Y-290044439D01*
X129052374Y-290576580D01*
X129050747Y-290579844D01*
X129051554Y-290580109D01*
X129052972Y-290577148D01*
X129065591Y-290583189D01*
X129067398Y-290584071D01*
X129079984Y-290590345D01*
X129078512Y-290593298D01*
X129079217Y-290593771D01*
X129080799Y-290590467D01*
X130153199Y-291103779D01*
X130151603Y-291107114D01*
X130152361Y-291107350D01*
X130153765Y-291104301D01*
X130166613Y-291110216D01*
X130168308Y-291111011D01*
X130181072Y-291117120D01*
X130179631Y-291120132D01*
X130180300Y-291120566D01*
X130181839Y-291117224D01*
X131255893Y-291611637D01*
X131254350Y-291614989D01*
X131255064Y-291615202D01*
X131256431Y-291612119D01*
X131269452Y-291617893D01*
X131271034Y-291618608D01*
X131284008Y-291624580D01*
X131282591Y-291627657D01*
X131283226Y-291628056D01*
X131284729Y-291624666D01*
X132357054Y-292100119D01*
X132355547Y-292103518D01*
X132356217Y-292103708D01*
X132357562Y-292100564D01*
X132370789Y-292106221D01*
X132372256Y-292106859D01*
X132385392Y-292112683D01*
X132384001Y-292115821D01*
X132384599Y-292116184D01*
X132386066Y-292112754D01*
X133453280Y-292569183D01*
X133451804Y-292572635D01*
X133452442Y-292572806D01*
X133453768Y-292569597D01*
X133461538Y-292572806D01*
X133467094Y-292575101D01*
X133468531Y-292575706D01*
X133481817Y-292581388D01*
X133480452Y-292584579D01*
X133481020Y-292584914D01*
X133482453Y-292581446D01*
X134541172Y-293018791D01*
X134539719Y-293022309D01*
X134540316Y-293022461D01*
X134541630Y-293019172D01*
X134541631Y-293019173D01*
X134555218Y-293024601D01*
X134556391Y-293025078D01*
X134569895Y-293030656D01*
X134569896Y-293030656D01*
X134568552Y-293033909D01*
X134569087Y-293034215D01*
X134570491Y-293030702D01*
X135617323Y-293448900D01*
X135615903Y-293452454D01*
X135616467Y-293452592D01*
X135617757Y-293449255D01*
X135631337Y-293454507D01*
X135632636Y-293455017D01*
X135646217Y-293460443D01*
X135644902Y-293463735D01*
X135645409Y-293464017D01*
X135646778Y-293460479D01*
X136678331Y-293859468D01*
X136676943Y-293863057D01*
X136677475Y-293863181D01*
X136678743Y-293859799D01*
X136692526Y-293864966D01*
X136693578Y-293865366D01*
X136707377Y-293870703D01*
X136707379Y-293870703D01*
X136707381Y-293870704D01*
X136706088Y-293874047D01*
X136706568Y-293874307D01*
X136707908Y-293870732D01*
X137720792Y-294250453D01*
X137719447Y-294254040D01*
X137719952Y-294254153D01*
X137721186Y-294250761D01*
X137721187Y-294250761D01*
X137721188Y-294250762D01*
X137735126Y-294255831D01*
X137736198Y-294256228D01*
X137749982Y-294261396D01*
X137748713Y-294264780D01*
X137749171Y-294265023D01*
X137750483Y-294261417D01*
X138741300Y-294621810D01*
X138739982Y-294625434D01*
X138740462Y-294625536D01*
X138741676Y-294622099D01*
X138741679Y-294622100D01*
X138755724Y-294627061D01*
X138756669Y-294627400D01*
X138770622Y-294632475D01*
X138770625Y-294632476D01*
X138769379Y-294635900D01*
X138769813Y-294636124D01*
X138771096Y-294632491D01*
X139736457Y-294973499D01*
X139735148Y-294977205D01*
X139735606Y-294977297D01*
X139736817Y-294973770D01*
X139750794Y-294978569D01*
X139751846Y-294978935D01*
X139765898Y-294983899D01*
X139764676Y-294987357D01*
X139765094Y-294987568D01*
X139766350Y-294983910D01*
X140702851Y-295305473D01*
X140701578Y-295309180D01*
X140702017Y-295309265D01*
X140703198Y-295305729D01*
X140717463Y-295310494D01*
X140718455Y-295310830D01*
X140732404Y-295315620D01*
X140731210Y-295319096D01*
X140731609Y-295319293D01*
X140732833Y-295315628D01*
X141637084Y-295617688D01*
X141635825Y-295621457D01*
X141636241Y-295621533D01*
X141637413Y-295617928D01*
X141651705Y-295622576D01*
X141652575Y-295622863D01*
X141666744Y-295627596D01*
X141666745Y-295627596D01*
X141665572Y-295631108D01*
X141665949Y-295631290D01*
X141667150Y-295627599D01*
X142535749Y-295910101D01*
X142534531Y-295913845D01*
X142534929Y-295913917D01*
X142536067Y-295910328D01*
X142550491Y-295914899D01*
X142551282Y-295915154D01*
X142565501Y-295919778D01*
X142564351Y-295923314D01*
X142564715Y-295923487D01*
X142565890Y-295919779D01*
X143395439Y-296182666D01*
X143394245Y-296186433D01*
X143394622Y-296186498D01*
X143395740Y-296182879D01*
X143395741Y-296182879D01*
X143395742Y-296182880D01*
X143410289Y-296187375D01*
X143411023Y-296187605D01*
X143425288Y-296192126D01*
X143424156Y-296195696D01*
X143424498Y-296195855D01*
X143425652Y-296192122D01*
X144212753Y-296435339D01*
X144211568Y-296439175D01*
X144211930Y-296439233D01*
X144213043Y-296435541D01*
X144227451Y-296439885D01*
X144228279Y-296440138D01*
X144242683Y-296444589D01*
X144241574Y-296448178D01*
X144241903Y-296448328D01*
X144243032Y-296444583D01*
X144984286Y-296668076D01*
X144983121Y-296671940D01*
X144983466Y-296671992D01*
X144984563Y-296668265D01*
X144997221Y-296671992D01*
X144999062Y-296672534D01*
X144999695Y-296672722D01*
X145014291Y-296677123D01*
X145013202Y-296680733D01*
X145013521Y-296680876D01*
X145014628Y-296677116D01*
X145706626Y-296880827D01*
X145705498Y-296884657D01*
X145705826Y-296884706D01*
X145706890Y-296881006D01*
X145706893Y-296881007D01*
X145721632Y-296885246D01*
X145722163Y-296885400D01*
X145736707Y-296889682D01*
X145736710Y-296889683D01*
X145735639Y-296893321D01*
X145735939Y-296893453D01*
X145737026Y-296889673D01*
X146376377Y-297073551D01*
X146375283Y-297077355D01*
X146375599Y-297077401D01*
X146376634Y-297073721D01*
X146391252Y-297077831D01*
X146391972Y-297078036D01*
X146401968Y-297080911D01*
X146406490Y-297082211D01*
X146406521Y-297082220D01*
X146405476Y-297085854D01*
X146405771Y-297085982D01*
X146406831Y-297082211D01*
X146990125Y-297246198D01*
X146989046Y-297250036D01*
X146989349Y-297250078D01*
X146990371Y-297246360D01*
X147005182Y-297250433D01*
X147005738Y-297250588D01*
X147020338Y-297254692D01*
X147020339Y-297254692D01*
X147019306Y-297258368D01*
X147019582Y-297258486D01*
X147020629Y-297254680D01*
X147544470Y-297398727D01*
X147543402Y-297402610D01*
X147543694Y-297402647D01*
X147544708Y-297398881D01*
X147559456Y-297402850D01*
X147560117Y-297403030D01*
X147574741Y-297407051D01*
X147573726Y-297410743D01*
X147573995Y-297410856D01*
X147575023Y-297407038D01*
X148036005Y-297531088D01*
X148034943Y-297535034D01*
X148035222Y-297535069D01*
X148036232Y-297531234D01*
X148050860Y-297535088D01*
X148051503Y-297535259D01*
X148066333Y-297539250D01*
X148065335Y-297542958D01*
X148065593Y-297543064D01*
X148066602Y-297539236D01*
X148461325Y-297643239D01*
X148460285Y-297647186D01*
X148460548Y-297647218D01*
X148461539Y-297643377D01*
X148476325Y-297647193D01*
X148476733Y-297647299D01*
X148491705Y-297651244D01*
X148491707Y-297651244D01*
X148490724Y-297654973D01*
X148490971Y-297655073D01*
X148491963Y-297651229D01*
X148817019Y-297735130D01*
X148816005Y-297739058D01*
X148816258Y-297739087D01*
X148817226Y-297735261D01*
X148817228Y-297735262D01*
X148832343Y-297739086D01*
X148847450Y-297742985D01*
X148847452Y-297742985D01*
X148846492Y-297746706D01*
X148846728Y-297746801D01*
X148847697Y-297742970D01*
X149099685Y-297806716D01*
X149098683Y-297810675D01*
X149098934Y-297810703D01*
X149099891Y-297806843D01*
X149114746Y-297810528D01*
X149115311Y-297810669D01*
X149130162Y-297814426D01*
X149129208Y-297818196D01*
X149129438Y-297818287D01*
X149130400Y-297814411D01*
X149305963Y-297857963D01*
X149304992Y-297861876D01*
X149305275Y-297861906D01*
X149306196Y-297858107D01*
X149306198Y-297858108D01*
X149321250Y-297861756D01*
X149321618Y-297861847D01*
X149324734Y-297862620D01*
X149336444Y-297865525D01*
X149335524Y-297869234D01*
X149335785Y-297869335D01*
X149336713Y-297865505D01*
X149476344Y-297899350D01*
X149475591Y-297902458D01*
X149477064Y-297902589D01*
X149477599Y-297900074D01*
X149489962Y-297902704D01*
X149493420Y-297903490D01*
X149505721Y-297906471D01*
X149505089Y-297909078D01*
X149506474Y-297909609D01*
X149507165Y-297906362D01*
X150567003Y-298131762D01*
X150566160Y-298135726D01*
X150566328Y-298135739D01*
X150567144Y-298131842D01*
X150582088Y-298134972D01*
X150582462Y-298135051D01*
X150597823Y-298138317D01*
X150597003Y-298142172D01*
X150597165Y-298142229D01*
X150597988Y-298138300D01*
X151646014Y-298357746D01*
X151645155Y-298361848D01*
X151645322Y-298361859D01*
X151646154Y-298357825D01*
X151660114Y-298360703D01*
X151661138Y-298360914D01*
X151661521Y-298360993D01*
X151676861Y-298364205D01*
X151676052Y-298368069D01*
X151676209Y-298368123D01*
X151677020Y-298364188D01*
X152714349Y-298578023D01*
X152713504Y-298582124D01*
X152713671Y-298582134D01*
X152714489Y-298578102D01*
X152729913Y-298581232D01*
X152730293Y-298581310D01*
X152745220Y-298584387D01*
X152744429Y-298588224D01*
X152744583Y-298588277D01*
X152745376Y-298584370D01*
X153771872Y-298792674D01*
X153771046Y-298796742D01*
X153771209Y-298796752D01*
X153772009Y-298792750D01*
X153787020Y-298795749D01*
X153787390Y-298795823D01*
X153802762Y-298798942D01*
X153801977Y-298802813D01*
X153802130Y-298802865D01*
X153802917Y-298798924D01*
X154818430Y-299001776D01*
X154817632Y-299005773D01*
X154817795Y-299005783D01*
X154818568Y-299001852D01*
X154834051Y-299004897D01*
X154849342Y-299007951D01*
X154848567Y-299011830D01*
X154848719Y-299011881D01*
X154849495Y-299007933D01*
X155853889Y-299205411D01*
X155853105Y-299209397D01*
X155853269Y-299209407D01*
X155854028Y-299205487D01*
X155869313Y-299208445D01*
X155869680Y-299208517D01*
X155884817Y-299211493D01*
X155884057Y-299215356D01*
X155884211Y-299215408D01*
X155884972Y-299211475D01*
X156878104Y-299403659D01*
X156877338Y-299407615D01*
X156877496Y-299407625D01*
X156878237Y-299403732D01*
X156893395Y-299406619D01*
X156893758Y-299406689D01*
X156909050Y-299409648D01*
X156908300Y-299413522D01*
X156908454Y-299413573D01*
X156909205Y-299409629D01*
X157890930Y-299596596D01*
X157890144Y-299600721D01*
X157890301Y-299600728D01*
X157891062Y-299596668D01*
X157906477Y-299599557D01*
X157906840Y-299599626D01*
X157921899Y-299602494D01*
X157921159Y-299606378D01*
X157921307Y-299606427D01*
X157922048Y-299602475D01*
X158892228Y-299784305D01*
X158891452Y-299788443D01*
X158891608Y-299788450D01*
X158892359Y-299784376D01*
X158907853Y-299787234D01*
X158923215Y-299790113D01*
X158922485Y-299794007D01*
X158922632Y-299794055D01*
X158923363Y-299790094D01*
X159881857Y-299966865D01*
X159881091Y-299971021D01*
X159881243Y-299971028D01*
X159881986Y-299966935D01*
X159897450Y-299969741D01*
X159912864Y-299972584D01*
X159912865Y-299972584D01*
X159912149Y-299976468D01*
X159912292Y-299976514D01*
X159913009Y-299972565D01*
X160859674Y-300144356D01*
X160858931Y-300148451D01*
X160859081Y-300148458D01*
X160859801Y-300144424D01*
X160875095Y-300147155D01*
X160875293Y-300147190D01*
X160890698Y-300149986D01*
X160889984Y-300153918D01*
X160890128Y-300153963D01*
X160890842Y-300149966D01*
X161825533Y-300316856D01*
X161824817Y-300320867D01*
X161824969Y-300320873D01*
X161825663Y-300316925D01*
X161840941Y-300319608D01*
X161841286Y-300319669D01*
X161847165Y-300320719D01*
X161856571Y-300322398D01*
X161855882Y-300326254D01*
X161856027Y-300326301D01*
X161856716Y-300322380D01*
X162779299Y-300484447D01*
X162778562Y-300488642D01*
X162778710Y-300488646D01*
X162779424Y-300484513D01*
X162794848Y-300487179D01*
X162795184Y-300487238D01*
X162810357Y-300489903D01*
X162809671Y-300493809D01*
X162809812Y-300493852D01*
X162810498Y-300489883D01*
X163720820Y-300647205D01*
X163720087Y-300651444D01*
X163720239Y-300651448D01*
X163720949Y-300647271D01*
X163736656Y-300649942D01*
X163751898Y-300652576D01*
X163751219Y-300656504D01*
X163751356Y-300656546D01*
X163752034Y-300652556D01*
X164649966Y-300805215D01*
X164649263Y-300809350D01*
X164649408Y-300809354D01*
X164650089Y-300805279D01*
X164665632Y-300807878D01*
X164665973Y-300807936D01*
X164681058Y-300810501D01*
X164680391Y-300814421D01*
X164680529Y-300814463D01*
X164681195Y-300810481D01*
X165566588Y-300958553D01*
X165565909Y-300962613D01*
X165566051Y-300962617D01*
X165566710Y-300958615D01*
X165581751Y-300961090D01*
X165582073Y-300961143D01*
X165597694Y-300963755D01*
X165597045Y-300967634D01*
X165597182Y-300967675D01*
X165597830Y-300963735D01*
X166470544Y-301107298D01*
X166469881Y-301111331D01*
X166470018Y-301111335D01*
X166470662Y-301107358D01*
X166485882Y-301109821D01*
X166486204Y-301109874D01*
X166501665Y-301112417D01*
X166501017Y-301116356D01*
X166501154Y-301116396D01*
X166501801Y-301112396D01*
X167361690Y-301251531D01*
X167361048Y-301255501D01*
X167361184Y-301255505D01*
X167361807Y-301251591D01*
X167377050Y-301254017D01*
X167377370Y-301254068D01*
X167392828Y-301256569D01*
X167392197Y-301260471D01*
X167392330Y-301260510D01*
X167392960Y-301256549D01*
X168239886Y-301391331D01*
X168239251Y-301395323D01*
X168239388Y-301395327D01*
X168240004Y-301391391D01*
X168255329Y-301393790D01*
X168255642Y-301393839D01*
X168271039Y-301396289D01*
X168270419Y-301400187D01*
X168270549Y-301400226D01*
X168271168Y-301396269D01*
X169104992Y-301526780D01*
X169104378Y-301530704D01*
X169104516Y-301530707D01*
X169105112Y-301526839D01*
X169120693Y-301529237D01*
X169136157Y-301531658D01*
X169135547Y-301535552D01*
X169135679Y-301535591D01*
X169136287Y-301531638D01*
X169956863Y-301657954D01*
X169956218Y-301662144D01*
X169956352Y-301662145D01*
X169956978Y-301658012D01*
X169972760Y-301660401D01*
X169972980Y-301660435D01*
X169988046Y-301662754D01*
X169987441Y-301666685D01*
X169987565Y-301666721D01*
X169988169Y-301662734D01*
X170795360Y-301784936D01*
X170794723Y-301789142D01*
X170794854Y-301789143D01*
X170795472Y-301784992D01*
X170810935Y-301787294D01*
X170811243Y-301787341D01*
X170826554Y-301789659D01*
X170825954Y-301793625D01*
X170826080Y-301793661D01*
X170826679Y-301789638D01*
X171620337Y-301907804D01*
X171619714Y-301911988D01*
X171619843Y-301911989D01*
X171620448Y-301907859D01*
X171635686Y-301910090D01*
X171635990Y-301910135D01*
X171651544Y-301912451D01*
X171650953Y-301916421D01*
X171651078Y-301916456D01*
X171651668Y-301912430D01*
X172431654Y-302026638D01*
X172431046Y-302030792D01*
X172431173Y-302030793D01*
X172431764Y-302026692D01*
X172443066Y-302028320D01*
X172446998Y-302028886D01*
X172447290Y-302028928D01*
X172462876Y-302031210D01*
X172462304Y-302035114D01*
X172462426Y-302035148D01*
X172462996Y-302031190D01*
X173229167Y-302141516D01*
X173228582Y-302145578D01*
X173228707Y-302145579D01*
X173229275Y-302141569D01*
X173244912Y-302143783D01*
X173245210Y-302143826D01*
X173260402Y-302146014D01*
X173259839Y-302149922D01*
X173259958Y-302149956D01*
X173260519Y-302145994D01*
X174012736Y-302252521D01*
X174012174Y-302256492D01*
X174012295Y-302256493D01*
X174012841Y-302252572D01*
X174028279Y-302254722D01*
X174028567Y-302254763D01*
X174043981Y-302256946D01*
X174043426Y-302260862D01*
X174043546Y-302260895D01*
X174044099Y-302256926D01*
X174782219Y-302359730D01*
X174781622Y-302364017D01*
X174781740Y-302364016D01*
X174782321Y-302359779D01*
X174797662Y-302361881D01*
X174797933Y-302361919D01*
X174813475Y-302364083D01*
X174812927Y-302368015D01*
X174813045Y-302368048D01*
X174813591Y-302364063D01*
X175537467Y-302463221D01*
X175536877Y-302467530D01*
X175536997Y-302467529D01*
X175537571Y-302463271D01*
X175553402Y-302465404D01*
X175568737Y-302467505D01*
X175568191Y-302471488D01*
X175568306Y-302471519D01*
X175568850Y-302467485D01*
X176278349Y-302563078D01*
X176277772Y-302567358D01*
X176277892Y-302567357D01*
X176278453Y-302563127D01*
X176294022Y-302565191D01*
X176294282Y-302565226D01*
X176309628Y-302567293D01*
X176309095Y-302571254D01*
X176309209Y-302571284D01*
X176309741Y-302567273D01*
X177004716Y-302659380D01*
X177004160Y-302663574D01*
X177004273Y-302663573D01*
X177004814Y-302659426D01*
X177020333Y-302661449D01*
X177036008Y-302663527D01*
X177035481Y-302667502D01*
X177035592Y-302667531D01*
X177036117Y-302663507D01*
X177716425Y-302752203D01*
X177715879Y-302756389D01*
X177715988Y-302756388D01*
X177716519Y-302752247D01*
X177716521Y-302752248D01*
X177732146Y-302754252D01*
X177747730Y-302756284D01*
X177747732Y-302756284D01*
X177747221Y-302760199D01*
X177747326Y-302760227D01*
X177747834Y-302756265D01*
X178413391Y-302841636D01*
X178412877Y-302845642D01*
X178413047Y-302845642D01*
X178413540Y-302841705D01*
X178427879Y-302843499D01*
X178429148Y-302843658D01*
X178429370Y-302843686D01*
X178444651Y-302845646D01*
X178444150Y-302849552D01*
X178444310Y-302849594D01*
X178444808Y-302845617D01*
X179839741Y-303020122D01*
X179839242Y-303024115D01*
X179839460Y-303024112D01*
X179839931Y-303020212D01*
X179855095Y-303022044D01*
X179855627Y-303022109D01*
X179870963Y-303024028D01*
X179870478Y-303027904D01*
X179870690Y-303027958D01*
X179871170Y-303023986D01*
X181246861Y-303190231D01*
X181246380Y-303194212D01*
X181246600Y-303194209D01*
X181247054Y-303190319D01*
X181262114Y-303192075D01*
X181262640Y-303192137D01*
X181278095Y-303194005D01*
X181277629Y-303197860D01*
X181277845Y-303197915D01*
X181278306Y-303193964D01*
X182635104Y-303352198D01*
X182634639Y-303356185D01*
X182634859Y-303356182D01*
X182635297Y-303352286D01*
X182650578Y-303354004D01*
X182651026Y-303354055D01*
X182666358Y-303355843D01*
X182666359Y-303355843D01*
X182665910Y-303359691D01*
X182666121Y-303359743D01*
X182666564Y-303355802D01*
X184004888Y-303506284D01*
X184004424Y-303510414D01*
X184004641Y-303510408D01*
X184005078Y-303506370D01*
X184020481Y-303508038D01*
X184020858Y-303508080D01*
X184036157Y-303509800D01*
X184036158Y-303509800D01*
X184035722Y-303513678D01*
X184035932Y-303513729D01*
X184036362Y-303509758D01*
X185356614Y-303652744D01*
X185356178Y-303656766D01*
X185356394Y-303656760D01*
X185356804Y-303652828D01*
X185372196Y-303654432D01*
X185372605Y-303654475D01*
X185387901Y-303656132D01*
X185387902Y-303656132D01*
X185387483Y-303660001D01*
X185387690Y-303660051D01*
X185388103Y-303656090D01*
X186690698Y-303791835D01*
X186690278Y-303795869D01*
X186690491Y-303795862D01*
X186690886Y-303791917D01*
X186704309Y-303793262D01*
X186706180Y-303793449D01*
X186706682Y-303793501D01*
X186721996Y-303795097D01*
X186721592Y-303798976D01*
X186721801Y-303799026D01*
X186722199Y-303795054D01*
X188007543Y-303923816D01*
X188007127Y-303927969D01*
X188007336Y-303927960D01*
X188007727Y-303923896D01*
X188023055Y-303925371D01*
X188023542Y-303925419D01*
X188038859Y-303926953D01*
X188038469Y-303930843D01*
X188038674Y-303930890D01*
X188039057Y-303926910D01*
X189307558Y-304048943D01*
X189307162Y-304053062D01*
X189307371Y-304053053D01*
X189307743Y-304049021D01*
X189319075Y-304050067D01*
X189322966Y-304050426D01*
X189323452Y-304050472D01*
X189338888Y-304051957D01*
X189338514Y-304055841D01*
X189338718Y-304055887D01*
X189339085Y-304051914D01*
X190591155Y-304167475D01*
X190590780Y-304171539D01*
X190590983Y-304171530D01*
X190591335Y-304167551D01*
X190604079Y-304168678D01*
X190606541Y-304168896D01*
X190607020Y-304168939D01*
X190622501Y-304170368D01*
X190622142Y-304174262D01*
X190622340Y-304174307D01*
X190622692Y-304170325D01*
X191858743Y-304279670D01*
X191858388Y-304283681D01*
X191858581Y-304283672D01*
X191858914Y-304279743D01*
X191870585Y-304280732D01*
X191874233Y-304281041D01*
X191874357Y-304281051D01*
X191890104Y-304282444D01*
X191890106Y-304282444D01*
X191889762Y-304286330D01*
X191889956Y-304286372D01*
X191890292Y-304282401D01*
X193110725Y-304385784D01*
X193110388Y-304389757D01*
X193110585Y-304389748D01*
X193110900Y-304385856D01*
X193125218Y-304387016D01*
X193126263Y-304387101D01*
X193126721Y-304387139D01*
X193142102Y-304388442D01*
X193141773Y-304392325D01*
X193141963Y-304392366D01*
X193142284Y-304388400D01*
X194347518Y-304486076D01*
X194347181Y-304490237D01*
X194347365Y-304490226D01*
X194347681Y-304486144D01*
X194347683Y-304486144D01*
X194347685Y-304486145D01*
X194363224Y-304487349D01*
X194378909Y-304488620D01*
X194378912Y-304488620D01*
X194378597Y-304492508D01*
X194378780Y-304492547D01*
X194379087Y-304488578D01*
X195569526Y-304580803D01*
X195569205Y-304584943D01*
X195569386Y-304584932D01*
X195569687Y-304580869D01*
X195584632Y-304581975D01*
X195585065Y-304582007D01*
X195600929Y-304583236D01*
X195600628Y-304587128D01*
X195600810Y-304587166D01*
X195601104Y-304583194D01*
X196777155Y-304670223D01*
X196776854Y-304674290D01*
X196777030Y-304674279D01*
X196777312Y-304670287D01*
X196792641Y-304671370D01*
X196792976Y-304671394D01*
X196808573Y-304672548D01*
X196808574Y-304672548D01*
X196808284Y-304676465D01*
X196808459Y-304676501D01*
X196808741Y-304672507D01*
X197970816Y-304754593D01*
X197970538Y-304758529D01*
X197970709Y-304758519D01*
X197970969Y-304754655D01*
X197979749Y-304755247D01*
X197986802Y-304755722D01*
X198002250Y-304756813D01*
X198002253Y-304756813D01*
X198001978Y-304760707D01*
X198002142Y-304760741D01*
X198002409Y-304756774D01*
X199150925Y-304834173D01*
X199150641Y-304838386D01*
X199150807Y-304838373D01*
X199151073Y-304834232D01*
X199166365Y-304835215D01*
X199166752Y-304835240D01*
X199182366Y-304836292D01*
X199182100Y-304840238D01*
X199182267Y-304840271D01*
X199182525Y-304836252D01*
X200317880Y-304909217D01*
X200317609Y-304913439D01*
X200317763Y-304913427D01*
X200318018Y-304909273D01*
X200326066Y-304909766D01*
X200333568Y-304910226D01*
X200349337Y-304911239D01*
X200349339Y-304911239D01*
X200349085Y-304915188D01*
X200349240Y-304915218D01*
X200349486Y-304911201D01*
X201472092Y-304979985D01*
X201471843Y-304984047D01*
X201471995Y-304984035D01*
X201472229Y-304980038D01*
X201487832Y-304980950D01*
X201488181Y-304980971D01*
X201503564Y-304981913D01*
X201503324Y-304985839D01*
X201503472Y-304985868D01*
X201503705Y-304981877D01*
X202613975Y-305046734D01*
X202613736Y-305050821D01*
X202613880Y-305050810D01*
X202614104Y-305046784D01*
X202629472Y-305047640D01*
X202629814Y-305047659D01*
X202645458Y-305048573D01*
X202645227Y-305052521D01*
X202645369Y-305052548D01*
X202645592Y-305048538D01*
X203743934Y-305109723D01*
X203743712Y-305113716D01*
X203743847Y-305113706D01*
X203744056Y-305109769D01*
X203759256Y-305110577D01*
X203759293Y-305110579D01*
X203759611Y-305110596D01*
X203775429Y-305111477D01*
X203775208Y-305115451D01*
X203775342Y-305115476D01*
X203775556Y-305111443D01*
X204862375Y-305169207D01*
X204862143Y-305173568D01*
X204862271Y-305173556D01*
X204862490Y-305169251D01*
X204869320Y-305169598D01*
X204878172Y-305170047D01*
X204878472Y-305170063D01*
X204893883Y-305170882D01*
X204893670Y-305174897D01*
X204893795Y-305174920D01*
X204894002Y-305170850D01*
X205969710Y-305225446D01*
X205969494Y-305229697D01*
X205969615Y-305229686D01*
X205969819Y-305225487D01*
X205976958Y-305225833D01*
X205985487Y-305226247D01*
X205985771Y-305226261D01*
X206001232Y-305227046D01*
X206001032Y-305230989D01*
X206001148Y-305231010D01*
X206001342Y-305227017D01*
X207066350Y-305278697D01*
X207066147Y-305282874D01*
X207066258Y-305282863D01*
X207066450Y-305278734D01*
X207075387Y-305279149D01*
X207081987Y-305279456D01*
X207082246Y-305279468D01*
X207097884Y-305280227D01*
X207097691Y-305284203D01*
X207097798Y-305284222D01*
X207097985Y-305280200D01*
X208152697Y-305329217D01*
X208152502Y-305333404D01*
X208152601Y-305333395D01*
X208152786Y-305329251D01*
X208160456Y-305329593D01*
X208168826Y-305329966D01*
X208184245Y-305330683D01*
X208184246Y-305330683D01*
X208184059Y-305334705D01*
X208184154Y-305334721D01*
X208184335Y-305330658D01*
X209229165Y-305377265D01*
X209228981Y-305381385D01*
X209229076Y-305381376D01*
X209229251Y-305377296D01*
X209235865Y-305377580D01*
X209245209Y-305377981D01*
X209245423Y-305377990D01*
X209260726Y-305378673D01*
X209260548Y-305382666D01*
X209260633Y-305382681D01*
X209260806Y-305378651D01*
X210296164Y-305423098D01*
X210295990Y-305427144D01*
X210296067Y-305427137D01*
X210296233Y-305423124D01*
X210300706Y-305423309D01*
X210311998Y-305423777D01*
X210327736Y-305424453D01*
X210327738Y-305424453D01*
X210327566Y-305428464D01*
X210327641Y-305428477D01*
X210327809Y-305424433D01*
X211354095Y-305466973D01*
X211353937Y-305470786D01*
X211354006Y-305470780D01*
X211354158Y-305466996D01*
X211370345Y-305467646D01*
X211370509Y-305467653D01*
X211385680Y-305468282D01*
X211385513Y-305472304D01*
X211385579Y-305472315D01*
X211385742Y-305468265D01*
X212403375Y-305509149D01*
X212403194Y-305513665D01*
X212403252Y-305513658D01*
X212403428Y-305509168D01*
X212419723Y-305509805D01*
X212419858Y-305509811D01*
X212434969Y-305510418D01*
X212434807Y-305514442D01*
X212434866Y-305514452D01*
X212435024Y-305510404D01*
X213444412Y-305549883D01*
X213444240Y-305554273D01*
X213444286Y-305554268D01*
X213444453Y-305549897D01*
X213449940Y-305550107D01*
X213459324Y-305550466D01*
X213459432Y-305550470D01*
X213476019Y-305551119D01*
X213475865Y-305555065D01*
X213475911Y-305555073D01*
X213476063Y-305551107D01*
X214477607Y-305589431D01*
X214477432Y-305594007D01*
X214477467Y-305594003D01*
X214477639Y-305589442D01*
X214482681Y-305589632D01*
X214493372Y-305590034D01*
X214493456Y-305590037D01*
X214509228Y-305590641D01*
X214509070Y-305594774D01*
X214509103Y-305594779D01*
X214509259Y-305590632D01*
X215503377Y-305628054D01*
X215503260Y-305631155D01*
X215503280Y-305631152D01*
X215503395Y-305628061D01*
X215518680Y-305628630D01*
X215518736Y-305628632D01*
X215535009Y-305629245D01*
X215534854Y-305633371D01*
X215534875Y-305633374D01*
X215535029Y-305629239D01*
X216522169Y-305666009D01*
X216522002Y-305670485D01*
X216522060Y-305670478D01*
X216522221Y-305666028D01*
X216538043Y-305666601D01*
X216538174Y-305666605D01*
X216553768Y-305667186D01*
X216553617Y-305671227D01*
X216553674Y-305671236D01*
X216553821Y-305667172D01*
X217535637Y-305702738D01*
X217535490Y-305706802D01*
X217535581Y-305706794D01*
X217535720Y-305702769D01*
X217540236Y-305702924D01*
X217551177Y-305703301D01*
X217551399Y-305703375D01*
X217551401Y-305703309D01*
X217567200Y-305703881D01*
X217567057Y-305707830D01*
X217567152Y-305707847D01*
X217567289Y-305703856D01*
X218539098Y-305737308D01*
X218538957Y-305741401D01*
X218539051Y-305741392D01*
X218539183Y-305737339D01*
X218554689Y-305737845D01*
X218554913Y-305737853D01*
X218570661Y-305738395D01*
X218570521Y-305742450D01*
X218570618Y-305742466D01*
X218570752Y-305738369D01*
X219532383Y-305769757D01*
X219532251Y-305773792D01*
X219532346Y-305773783D01*
X219532469Y-305769789D01*
X219536249Y-305769906D01*
X219548728Y-305770291D01*
X219563955Y-305770788D01*
X219563958Y-305770788D01*
X219563828Y-305774783D01*
X219563914Y-305774797D01*
X219564039Y-305770764D01*
X220515376Y-305800139D01*
X220515250Y-305804217D01*
X220515342Y-305804208D01*
X220515460Y-305800169D01*
X220530885Y-305800619D01*
X220531096Y-305800625D01*
X220546946Y-305801114D01*
X220546823Y-305805100D01*
X220546915Y-305805115D01*
X220547032Y-305801089D01*
X221487938Y-305828502D01*
X221487821Y-305832525D01*
X221487910Y-305832516D01*
X221488019Y-305828531D01*
X221503166Y-305828946D01*
X221503386Y-305828952D01*
X221519510Y-305829422D01*
X221519394Y-305833407D01*
X221519487Y-305833421D01*
X221519597Y-305829397D01*
X222449939Y-305854898D01*
X222449828Y-305858932D01*
X222449917Y-305858923D01*
X222450020Y-305854927D01*
X222450023Y-305854928D01*
X222465805Y-305855333D01*
X222466021Y-305855403D01*
X222466023Y-305855339D01*
X222481517Y-305855764D01*
X222481407Y-305859769D01*
X222481495Y-305859783D01*
X222481599Y-305855740D01*
X223401261Y-305879380D01*
X223401165Y-305883103D01*
X223401255Y-305883085D01*
X223401343Y-305879409D01*
X223417163Y-305879789D01*
X223417162Y-305879838D01*
X223417376Y-305879794D01*
X223432841Y-305880192D01*
X223432844Y-305880192D01*
X223432742Y-305884153D01*
X223432827Y-305884167D01*
X223432923Y-305880168D01*
X224341769Y-305901997D01*
X224341663Y-305906408D01*
X224341749Y-305906398D01*
X224341847Y-305902025D01*
X224341848Y-305902025D01*
X224341851Y-305902026D01*
X224357644Y-305902379D01*
X224357844Y-305902443D01*
X224357845Y-305902384D01*
X224373352Y-305902756D01*
X224373255Y-305906809D01*
X224373341Y-305906822D01*
X224373432Y-305902732D01*
X225271339Y-305922804D01*
X225271242Y-305927134D01*
X225271333Y-305927122D01*
X225271422Y-305922832D01*
X225273696Y-305922879D01*
X225287151Y-305923158D01*
X225287356Y-305923162D01*
X225302924Y-305923510D01*
X225302834Y-305927531D01*
X225302920Y-305927544D01*
X225303004Y-305923486D01*
X226189841Y-305941850D01*
X226189751Y-305946176D01*
X226189840Y-305946165D01*
X226189922Y-305941878D01*
X226205930Y-305942183D01*
X226206142Y-305942187D01*
X226221429Y-305942504D01*
X226221347Y-305946444D01*
X226221431Y-305946457D01*
X226221507Y-305942481D01*
X227097153Y-305959186D01*
X227097069Y-305963581D01*
X227097154Y-305963570D01*
X227097230Y-305959213D01*
X227112878Y-305959486D01*
X227113086Y-305959490D01*
X227128740Y-305959789D01*
X227128664Y-305963782D01*
X227128749Y-305963794D01*
X227128819Y-305959765D01*
X227993134Y-305974865D01*
X227993058Y-305979193D01*
X227993147Y-305979182D01*
X227993215Y-305974892D01*
X227995098Y-305974922D01*
X228009086Y-305975144D01*
X228009290Y-305975147D01*
X228024726Y-305975417D01*
X228024656Y-305979424D01*
X228024738Y-305979436D01*
X228024802Y-305975394D01*
X228877671Y-305988938D01*
X228877602Y-305993298D01*
X228877685Y-305993287D01*
X228877747Y-305988964D01*
X228879155Y-305988984D01*
X228893208Y-305989185D01*
X228893410Y-305989188D01*
X228909261Y-305989440D01*
X228909197Y-305993477D01*
X228909282Y-305993489D01*
X228909340Y-305989416D01*
X229750622Y-306001456D01*
X229750560Y-306005765D01*
X229750645Y-306005754D01*
X229750699Y-306001482D01*
X229766869Y-306001688D01*
X229767069Y-306001691D01*
X229782216Y-306001908D01*
X229782158Y-306005923D01*
X229782239Y-306005935D01*
X229782291Y-306001885D01*
X230611872Y-306012472D01*
X230611817Y-306016745D01*
X230611900Y-306016734D01*
X230611948Y-306012497D01*
X230613147Y-306012510D01*
X230627595Y-306012673D01*
X230627785Y-306012675D01*
X230643468Y-306012875D01*
X230643417Y-306016850D01*
X230643498Y-306016861D01*
X230643543Y-306012852D01*
X231461289Y-306022035D01*
X231461241Y-306026318D01*
X231461319Y-306026308D01*
X231461360Y-306022059D01*
X231476494Y-306022206D01*
X231476686Y-306022208D01*
X231492884Y-306022390D01*
X231492838Y-306026456D01*
X231492920Y-306026468D01*
X231492960Y-306022366D01*
X232298738Y-306030198D01*
X232298697Y-306034424D01*
X232298776Y-306034414D01*
X232298810Y-306030222D01*
X232314504Y-306030351D01*
X232314692Y-306030353D01*
X232330334Y-306030505D01*
X232330295Y-306034534D01*
X232330376Y-306034546D01*
X232330409Y-306030482D01*
X233124098Y-306037012D01*
X233124063Y-306041263D01*
X233124144Y-306041253D01*
X233124172Y-306037036D01*
X233124897Y-306037041D01*
X233139884Y-306037142D01*
X233140074Y-306037143D01*
X233155698Y-306037272D01*
X233155664Y-306041355D01*
X233155741Y-306041365D01*
X233155769Y-306037249D01*
X233937240Y-306042529D01*
X233937210Y-306046907D01*
X233937288Y-306046897D01*
X233937311Y-306042553D01*
X233953172Y-306042637D01*
X233968841Y-306042743D01*
X233968842Y-306042743D01*
X233968815Y-306046740D01*
X233968890Y-306046750D01*
X233968911Y-306042721D01*
X234738038Y-306046800D01*
X234738015Y-306051065D01*
X234738091Y-306051055D01*
X234738107Y-306046823D01*
X234753666Y-306046883D01*
X234753850Y-306046884D01*
X234769639Y-306046968D01*
X234769617Y-306051012D01*
X234769694Y-306051022D01*
X234769710Y-306046945D01*
X235526360Y-306049877D01*
X235526344Y-306054093D01*
X235526418Y-306054083D01*
X235526428Y-306049899D01*
X235542146Y-306049938D01*
X235542316Y-306049939D01*
X235557960Y-306049999D01*
X235557945Y-306054037D01*
X235558022Y-306054047D01*
X235558032Y-306049977D01*
X236302081Y-306051810D01*
X236302070Y-306056101D01*
X236302145Y-306056091D01*
X236302150Y-306051832D01*
X236302330Y-306051832D01*
X236317601Y-306051849D01*
X236317771Y-306051849D01*
X236333684Y-306051888D01*
X236333674Y-306055935D01*
X236333748Y-306055944D01*
X236333752Y-306051866D01*
X237065069Y-306052652D01*
X237065065Y-306056824D01*
X237065137Y-306056814D01*
X237065136Y-306052674D01*
X237065137Y-306052674D01*
X237081133Y-306052669D01*
X237096676Y-306052686D01*
X237096672Y-306056657D01*
X237096743Y-306056666D01*
X237096742Y-306052665D01*
X237815202Y-306052453D01*
X237815203Y-306056695D01*
X237815276Y-306056685D01*
X237815269Y-306052475D01*
X237831434Y-306052449D01*
X237831596Y-306052449D01*
X237846810Y-306052444D01*
X237846811Y-306056520D01*
X237846881Y-306056529D01*
X237846874Y-306052423D01*
X238552352Y-306051268D01*
X238552359Y-306055429D01*
X238552423Y-306055420D01*
X238552411Y-306051288D01*
X238552415Y-306051288D01*
X238567612Y-306051243D01*
X238567773Y-306051290D01*
X238567773Y-306051243D01*
X238583959Y-306051216D01*
X238583966Y-306055271D01*
X238584037Y-306055280D01*
X238584025Y-306051194D01*
X239276384Y-306049144D01*
X239276396Y-306053231D01*
X239276465Y-306053222D01*
X239276448Y-306049164D01*
X239292262Y-306049097D01*
X239292416Y-306049097D01*
X239307596Y-306049051D01*
X239307990Y-306049050D01*
X239308002Y-306053139D01*
X239308075Y-306053148D01*
X239308057Y-306049029D01*
X239987179Y-306046135D01*
X239987197Y-306050278D01*
X239987263Y-306050268D01*
X239987240Y-306046154D01*
X240002372Y-306046070D01*
X240002536Y-306046069D01*
X240018787Y-306046000D01*
X240018804Y-306050037D01*
X240018874Y-306050046D01*
X240018851Y-306045979D01*
X240684602Y-306042291D01*
X240684625Y-306046445D01*
X240684692Y-306046436D01*
X240684664Y-306042310D01*
X240699884Y-306042207D01*
X240700036Y-306042206D01*
X240715522Y-306042120D01*
X240716210Y-306042116D01*
X240716232Y-306046144D01*
X240716303Y-306046153D01*
X240716275Y-306042095D01*
X241368525Y-306037664D01*
X241368553Y-306041793D01*
X241368619Y-306041783D01*
X241368586Y-306037683D01*
X241384580Y-306037555D01*
X241384729Y-306037554D01*
X241395361Y-306037482D01*
X241400137Y-306037449D01*
X241400165Y-306041553D01*
X241400230Y-306041561D01*
X241400197Y-306037429D01*
X242038827Y-306032307D01*
X242038859Y-306036353D01*
X242038922Y-306036344D01*
X242038885Y-306032325D01*
X242054568Y-306032180D01*
X242054723Y-306032179D01*
X242069457Y-306032061D01*
X242070438Y-306032053D01*
X242070471Y-306036127D01*
X242070537Y-306036134D01*
X242070499Y-306032033D01*
X242695376Y-306026269D01*
X242695413Y-306030285D01*
X242695469Y-306030277D01*
X242695427Y-306026286D01*
X242695431Y-306026286D01*
X242710501Y-306026130D01*
X242710647Y-306026171D01*
X242710647Y-306026128D01*
X242726988Y-306025977D01*
X242727026Y-306030060D01*
X242727090Y-306030067D01*
X242727047Y-306025957D01*
X243127894Y-306021788D01*
X243196219Y-306041080D01*
X243243267Y-306094250D01*
X243255197Y-306146435D01*
X243258760Y-306480094D01*
X243264784Y-307057815D01*
X243270812Y-307650844D01*
X243270824Y-307652054D01*
X243270814Y-307652088D01*
X243270824Y-307652088D01*
X243276876Y-308263731D01*
X243282766Y-308876113D01*
X243282932Y-308893413D01*
X243282922Y-308893449D01*
X243282932Y-308893449D01*
X243288949Y-309538204D01*
X243294902Y-310196604D01*
X243300695Y-310859088D01*
X243300818Y-310873207D01*
X243300807Y-310873246D01*
X243300818Y-310873246D01*
X243306653Y-311564692D01*
X243312367Y-312267744D01*
X243318001Y-312988589D01*
X243321134Y-313406803D01*
X243323530Y-313726716D01*
X243323518Y-313726757D01*
X243323530Y-313726757D01*
X243328899Y-314476295D01*
X243334116Y-315239892D01*
X243338769Y-315956595D01*
X243339200Y-316023050D01*
X243339188Y-316023093D01*
X243339200Y-316023093D01*
X243344081Y-316817116D01*
X243348762Y-317624884D01*
X243353232Y-318446017D01*
X243357399Y-319266064D01*
X243357471Y-319280299D01*
X243357458Y-319280345D01*
X243357471Y-319280345D01*
X243361481Y-320130513D01*
X243365231Y-320993489D01*
X243368706Y-321869107D01*
X243371183Y-322559794D01*
X243371900Y-322759878D01*
X243371900Y-322759927D01*
X243374780Y-323659902D01*
X243374766Y-323659951D01*
X243374780Y-323659951D01*
X243377343Y-324573217D01*
X243379577Y-325500507D01*
X243381462Y-326439553D01*
X243382980Y-327390229D01*
X243384120Y-328352436D01*
X243384867Y-329328209D01*
X243385179Y-330243693D01*
X243385202Y-330312742D01*
X243385202Y-330312796D01*
X243385114Y-331308199D01*
X243385114Y-331308263D01*
X243384442Y-332432532D01*
X243384442Y-332432605D01*
X243383149Y-333536225D01*
X243383149Y-333536295D01*
X243381276Y-334619410D01*
X243381276Y-334619478D01*
X243378854Y-335685385D01*
X243378854Y-335685451D01*
X243375943Y-336726637D01*
X243375929Y-336726637D01*
X243375943Y-336726702D01*
X243372557Y-337750824D01*
X243372557Y-337750886D01*
X243368756Y-338751210D01*
X243368756Y-338751270D01*
X243364568Y-339730890D01*
X243364568Y-339730947D01*
X243360041Y-340687352D01*
X243360029Y-340687352D01*
X243360041Y-340687407D01*
X243358395Y-341005614D01*
X243355205Y-341622256D01*
X243355205Y-341622309D01*
X243350112Y-342532710D01*
X243350112Y-342532760D01*
X243344797Y-343419407D01*
X243344787Y-343419407D01*
X243344797Y-343419454D01*
X243344638Y-343444395D01*
X243339290Y-344283154D01*
X243339290Y-344283200D01*
X243333662Y-345118769D01*
X243333662Y-345118811D01*
X243327897Y-345934427D01*
X243327897Y-345934466D01*
X243322094Y-346720753D01*
X243322086Y-346720753D01*
X243322094Y-346720788D01*
X243321249Y-346831030D01*
X243316241Y-347484345D01*
X243316241Y-347484377D01*
X243310443Y-348216591D01*
X243310443Y-348216619D01*
X243304648Y-348928264D01*
X243304648Y-348928287D01*
X243298991Y-349607523D01*
X243298987Y-349607523D01*
X243298991Y-349607541D01*
X243297547Y-349777869D01*
X243294931Y-350086504D01*
X243293378Y-350269643D01*
X243288207Y-350872144D01*
X243283057Y-351468537D01*
X243283057Y-351468538D01*
X243278161Y-352035751D01*
X243274483Y-352035719D01*
X243274484Y-352035725D01*
X243278160Y-352035756D01*
X243277999Y-352054568D01*
X243277888Y-352067423D01*
X243273548Y-352067386D01*
X243273548Y-352067389D01*
X243277889Y-352067426D01*
X243273558Y-352573334D01*
X243270501Y-352573308D01*
X243270502Y-352573314D01*
X243273556Y-352573340D01*
X243273440Y-352587090D01*
X243273437Y-352587090D01*
X243273440Y-352587103D01*
X243273287Y-352605000D01*
X243273287Y-352605001D01*
X243268952Y-352604964D01*
X243268951Y-352604971D01*
X243273290Y-352605008D01*
X243269286Y-353080830D01*
X243265512Y-353080798D01*
X243265514Y-353080811D01*
X243269283Y-353080842D01*
X243269174Y-353094188D01*
X243269020Y-353112490D01*
X243265204Y-353112458D01*
X243265202Y-353112473D01*
X243269024Y-353112504D01*
X243265388Y-353557779D01*
X243260633Y-353557740D01*
X243260636Y-353557762D01*
X243265382Y-353557799D01*
X243265264Y-353572876D01*
X243265129Y-353589436D01*
X243260846Y-353589401D01*
X243260843Y-353589420D01*
X243265135Y-353589454D01*
X243261900Y-354003733D01*
X243258371Y-354003705D01*
X243258376Y-354003731D01*
X243261892Y-354003757D01*
X243261776Y-354019597D01*
X243261763Y-354019597D01*
X243261776Y-354019659D01*
X243261653Y-354035385D01*
X243257540Y-354035353D01*
X243257537Y-354035376D01*
X243261661Y-354035406D01*
X243258863Y-354418234D01*
X243254720Y-354418204D01*
X243254725Y-354418238D01*
X243258852Y-354418265D01*
X243258746Y-354434306D01*
X243258720Y-354434393D01*
X243258745Y-354434393D01*
X243258632Y-354449875D01*
X243254675Y-354449846D01*
X243254670Y-354449882D01*
X243258642Y-354449908D01*
X243256317Y-354800833D01*
X243251954Y-354800804D01*
X243251960Y-354800850D01*
X243256302Y-354800875D01*
X243256302Y-354800877D01*
X243256212Y-354816666D01*
X243256107Y-354832462D01*
X243252094Y-354832435D01*
X243252087Y-354832483D01*
X243256121Y-354832506D01*
X243254299Y-355151075D01*
X243250033Y-355151051D01*
X243250041Y-355151114D01*
X243254279Y-355151133D01*
X243254279Y-355151135D01*
X243254207Y-355167134D01*
X243254118Y-355182689D01*
X243250044Y-355182666D01*
X243250035Y-355182730D01*
X243254137Y-355182748D01*
X243252850Y-355468664D01*
X243248724Y-355468645D01*
X243248757Y-355468884D01*
X243252778Y-355468884D01*
X243252778Y-355484215D01*
X243252777Y-355484782D01*
X243252708Y-355500109D01*
X243248833Y-355500092D01*
X243248801Y-355500328D01*
X243252778Y-355500328D01*
X243252778Y-417168668D01*
X243232776Y-417236789D01*
X243179120Y-417283282D01*
X243125362Y-417294660D01*
X242360246Y-417286062D01*
X241382060Y-417275071D01*
X240403521Y-417264076D01*
X239424644Y-417253077D01*
X238445444Y-417242076D01*
X237465940Y-417231070D01*
X236486141Y-417220062D01*
X235506066Y-417209051D01*
X234525731Y-417198036D01*
X233545148Y-417187019D01*
X232564335Y-417176000D01*
X231583306Y-417164978D01*
X230602077Y-417153954D01*
X229620662Y-417142928D01*
X228639077Y-417131900D01*
X227657337Y-417120870D01*
X226675457Y-417109839D01*
X225693453Y-417098806D01*
X224711341Y-417087771D01*
X223729132Y-417076736D01*
X222746847Y-417065699D01*
X221764496Y-417054662D01*
X220782098Y-417043624D01*
X219799666Y-417032585D01*
X218817217Y-417021546D01*
X217834764Y-417010506D01*
X216852324Y-416999467D01*
X215869912Y-416988427D01*
X214887542Y-416977387D01*
X213905231Y-416966348D01*
X212922992Y-416955310D01*
X211972819Y-416944631D01*
X211954931Y-416943152D01*
X211615340Y-416890504D01*
X211614702Y-416890403D01*
X211300058Y-416839969D01*
X211256863Y-416833045D01*
X211256330Y-416832958D01*
X211182479Y-416820728D01*
X210895147Y-416773143D01*
X210894496Y-416773033D01*
X210650174Y-416731256D01*
X210530588Y-416710807D01*
X210530140Y-416710730D01*
X210362707Y-416681188D01*
X210163293Y-416646003D01*
X210162630Y-416645885D01*
X209792860Y-416578604D01*
X209792193Y-416578480D01*
X209419825Y-416508652D01*
X209419150Y-416508524D01*
X209043807Y-416436019D01*
X209043129Y-416435886D01*
X208665099Y-416360707D01*
X208664414Y-416360569D01*
X208283725Y-416282664D01*
X208283110Y-416282536D01*
X207899680Y-416201833D01*
X207899194Y-416201729D01*
X207856908Y-416192579D01*
X207512936Y-416118151D01*
X207512420Y-416118037D01*
X207374175Y-416087299D01*
X207123822Y-416031633D01*
X207123116Y-416031474D01*
X206819318Y-415962092D01*
X206732068Y-415942166D01*
X206731455Y-415942024D01*
X206337363Y-415849615D01*
X206336660Y-415849447D01*
X206320945Y-415845665D01*
X205940858Y-415754193D01*
X205940244Y-415754044D01*
X205541481Y-415655589D01*
X205541019Y-415655473D01*
X205139919Y-415553910D01*
X205139421Y-415553782D01*
X204735863Y-415449020D01*
X204735128Y-415448826D01*
X204329792Y-415340988D01*
X204329052Y-415340789D01*
X203921414Y-415229678D01*
X203920670Y-415229473D01*
X203510362Y-415114929D01*
X203509811Y-415114773D01*
X203097475Y-414996913D01*
X203096722Y-414996695D01*
X202893474Y-414937229D01*
X202682226Y-414875422D01*
X202681831Y-414875305D01*
X202265125Y-414750543D01*
X202264390Y-414750320D01*
X201845957Y-414622156D01*
X201845192Y-414621919D01*
X201624461Y-414552772D01*
X201424640Y-414490176D01*
X201424099Y-414490005D01*
X201001329Y-414354587D01*
X201000668Y-414354372D01*
X200793210Y-414286443D01*
X200576160Y-414215373D01*
X200575383Y-414215116D01*
X200149000Y-414072429D01*
X200148220Y-414072165D01*
X199831209Y-413963770D01*
X199719940Y-413925724D01*
X199719299Y-413925503D01*
X199289188Y-413775267D01*
X199288474Y-413775015D01*
X198937168Y-413649931D01*
X198936529Y-413649702D01*
X198587911Y-413523454D01*
X198587277Y-413523222D01*
X198448408Y-413472090D01*
X198241735Y-413395991D01*
X198241295Y-413395827D01*
X198035917Y-413318963D01*
X197898380Y-413267488D01*
X197897757Y-413267253D01*
X197557988Y-413138039D01*
X197557370Y-413137802D01*
X197220484Y-413007657D01*
X197219872Y-413007419D01*
X196885837Y-412876370D01*
X196885230Y-412876130D01*
X196699893Y-412802308D01*
X196554146Y-412744255D01*
X196553604Y-412744038D01*
X196366302Y-412668315D01*
X196225143Y-412611247D01*
X196224756Y-412611090D01*
X195899236Y-412477548D01*
X195898655Y-412477308D01*
X195576420Y-412343202D01*
X195575835Y-412342957D01*
X195256230Y-412208054D01*
X195255651Y-412207808D01*
X194938914Y-412072247D01*
X194938534Y-412072083D01*
X194624868Y-411935993D01*
X194624409Y-411935793D01*
X194327709Y-411805324D01*
X194313510Y-411799080D01*
X194313012Y-411798860D01*
X194045380Y-411679610D01*
X194005462Y-411651457D01*
X193887034Y-411527216D01*
X193878675Y-411518444D01*
X193737818Y-411370627D01*
X193737805Y-411370614D01*
X193581998Y-411207060D01*
X193582001Y-411207058D01*
X193581988Y-411207049D01*
X193420353Y-411037325D01*
X193257570Y-410866340D01*
X193093960Y-410694430D01*
X193044402Y-410642340D01*
X192926021Y-410517913D01*
X192926006Y-410517897D01*
X192752412Y-410335372D01*
X192752397Y-410335357D01*
X192575904Y-410149722D01*
X192575907Y-410149719D01*
X192575892Y-410149709D01*
X192394095Y-409958426D01*
X192211559Y-409766297D01*
X192028603Y-409573655D01*
X192028606Y-409573652D01*
X192028591Y-409573642D01*
X191837791Y-409372668D01*
X191644541Y-409169036D01*
X191580176Y-409101186D01*
X191448312Y-408962184D01*
X191448295Y-408962166D01*
X191254120Y-408757399D01*
X191254104Y-408757382D01*
X191049296Y-408541319D01*
X191049279Y-408541301D01*
X190847113Y-408327942D01*
X190847095Y-408327923D01*
X190637888Y-408107041D01*
X190637870Y-408107022D01*
X190427834Y-407885172D01*
X190427816Y-407885153D01*
X190215175Y-407660460D01*
X190215157Y-407660441D01*
X190000401Y-407433418D01*
X190000382Y-407433398D01*
X189778238Y-407198462D01*
X189778219Y-407198442D01*
X189555856Y-406963173D01*
X189555837Y-406963153D01*
X189330933Y-406725091D01*
X189330914Y-406725071D01*
X189107887Y-406488891D01*
X189107868Y-406488871D01*
X188874072Y-406241177D01*
X188874052Y-406241156D01*
X188760994Y-406121322D01*
X188644161Y-405997488D01*
X188405945Y-405744878D01*
X188169169Y-405493677D01*
X187930114Y-405239940D01*
X187685948Y-404980654D01*
X187286315Y-404555995D01*
X187286278Y-404555955D01*
X186875176Y-404118733D01*
X186875135Y-404118690D01*
X186451778Y-403668010D01*
X186451735Y-403667964D01*
X186016442Y-403204112D01*
X186016396Y-403204063D01*
X185568497Y-402726271D01*
X185568450Y-402726221D01*
X185107350Y-402233805D01*
X185107301Y-402233752D01*
X184631508Y-401725062D01*
X184631457Y-401725008D01*
X184141990Y-401201082D01*
X184141938Y-401201027D01*
X183638166Y-400661138D01*
X183638114Y-400661082D01*
X183119523Y-400104634D01*
X183119470Y-400104577D01*
X182583807Y-399529098D01*
X182583754Y-399529041D01*
X182034537Y-398938264D01*
X182034502Y-398938194D01*
X182034486Y-398938209D01*
X181466289Y-398326249D01*
X181466235Y-398326190D01*
X180880986Y-397695068D01*
X180880933Y-397695011D01*
X180278737Y-397044802D01*
X180278683Y-397044744D01*
X179659175Y-396375002D01*
X179659122Y-396374945D01*
X179019211Y-395682285D01*
X179019159Y-395682228D01*
X178361552Y-394969535D01*
X178361500Y-394969478D01*
X177684200Y-394234543D01*
X177684148Y-394234487D01*
X177122191Y-393623969D01*
X176987297Y-393477419D01*
X176267991Y-392695022D01*
X176267941Y-392694967D01*
X175528978Y-391890237D01*
X175528929Y-391890184D01*
X174768894Y-391061543D01*
X174768845Y-391061489D01*
X173986509Y-390207555D01*
X173986461Y-390207503D01*
X173180539Y-389326831D01*
X173180492Y-389326780D01*
X172351851Y-388420276D01*
X172351805Y-388420225D01*
X171501154Y-387488627D01*
X171501109Y-387488578D01*
X170625255Y-386528350D01*
X170625210Y-386528301D01*
X169725437Y-385540812D01*
X169725394Y-385540764D01*
X168801076Y-384525291D01*
X168801033Y-384525244D01*
X167849981Y-383479343D01*
X167849939Y-383479297D01*
X166873592Y-382404512D01*
X166873543Y-382404458D01*
X165539836Y-380934560D01*
X165539774Y-380934491D01*
X164390611Y-379666116D01*
X164269793Y-379532764D01*
X164269748Y-379532670D01*
X164269726Y-379532690D01*
X163060096Y-378195412D01*
X163060107Y-378195402D01*
X163060021Y-378195329D01*
X161908772Y-376920331D01*
X161908690Y-376920241D01*
X160815305Y-375706965D01*
X160815215Y-375706865D01*
X159775904Y-374551120D01*
X159775806Y-374551011D01*
X158789969Y-373452150D01*
X157855379Y-372407719D01*
X157099000Y-371560047D01*
X156969756Y-371415203D01*
X156969626Y-371415058D01*
X156131369Y-370472698D01*
X156131228Y-370472538D01*
X155338696Y-369578541D01*
X155338541Y-369578366D01*
X154588846Y-368729520D01*
X154588677Y-368729328D01*
X153880951Y-367924716D01*
X153880766Y-367924506D01*
X153337667Y-367304287D01*
X153212178Y-367160979D01*
X152580860Y-366436479D01*
X152109141Y-365892243D01*
X151985539Y-365749639D01*
X151985303Y-365749366D01*
X151423543Y-365097479D01*
X151423288Y-365097182D01*
X150893340Y-364478332D01*
X150893066Y-364478010D01*
X150513279Y-364031491D01*
X150392968Y-363890040D01*
X149920723Y-363330747D01*
X149920411Y-363330376D01*
X149474049Y-362797592D01*
X149473719Y-362797197D01*
X149051305Y-362288791D01*
X149050959Y-362288372D01*
X148744984Y-361916864D01*
X148650567Y-361802225D01*
X148270081Y-361335990D01*
X148269711Y-361335535D01*
X147907459Y-360887402D01*
X147907084Y-360886935D01*
X147561177Y-360454835D01*
X147560801Y-360454363D01*
X147317295Y-360147178D01*
X147228819Y-360035564D01*
X146909090Y-359628258D01*
X146908772Y-359627852D01*
X146599365Y-359229920D01*
X146599025Y-359229480D01*
X146298455Y-358839374D01*
X146298140Y-358838964D01*
X146003493Y-358453285D01*
X146003211Y-358452914D01*
X145814090Y-358203455D01*
X145713112Y-358070260D01*
X145412467Y-357670928D01*
X145112337Y-357269645D01*
X144910375Y-356997930D01*
X144812424Y-356866150D01*
X144812213Y-356865865D01*
X144591601Y-356567308D01*
X144513316Y-356461365D01*
X144215286Y-356055784D01*
X143918853Y-355650238D01*
X143624148Y-355245030D01*
X143331948Y-354841345D01*
X143331790Y-354841125D01*
X143042292Y-354439360D01*
X143042142Y-354439151D01*
X142756010Y-354040340D01*
X142755868Y-354040142D01*
X142472523Y-353643596D01*
X142472387Y-353643406D01*
X142192839Y-353250640D01*
X142192711Y-353250460D01*
X142094854Y-353112458D01*
X141917190Y-352861908D01*
X141646334Y-352478577D01*
X141646219Y-352478413D01*
X141380509Y-352101092D01*
X141380399Y-352100937D01*
X141356877Y-352067426D01*
X141119303Y-351728975D01*
X140863747Y-351363786D01*
X140703514Y-351134143D01*
X140614660Y-351006799D01*
X140614566Y-351006665D01*
X140371631Y-350657530D01*
X140371542Y-350657402D01*
X140135135Y-350316752D01*
X140135158Y-350316736D01*
X140135054Y-350316635D01*
X139905737Y-349985377D01*
X139684016Y-349664337D01*
X139470138Y-349353964D01*
X139264469Y-349054885D01*
X139066466Y-348766398D01*
X139043142Y-348732354D01*
X138878448Y-348491969D01*
X138878394Y-348491891D01*
X138698957Y-348229564D01*
X138698909Y-348229494D01*
X138682566Y-348205566D01*
X138529862Y-347982000D01*
X138369863Y-347747462D01*
X138220383Y-347528119D01*
X138081787Y-347324597D01*
X137955384Y-347138903D01*
X137670044Y-346718993D01*
X137396597Y-346315188D01*
X137396478Y-346315011D01*
X137134842Y-345927233D01*
X137134716Y-345927047D01*
X136883657Y-345553511D01*
X136883526Y-345553315D01*
X136643758Y-345195133D01*
X136643620Y-345194927D01*
X136414012Y-344850458D01*
X136413868Y-344850241D01*
X136194350Y-344519426D01*
X136194198Y-344519197D01*
X135984297Y-344201377D01*
X135984139Y-344201137D01*
X135855894Y-344005987D01*
X135783631Y-343896025D01*
X135783581Y-343895948D01*
X135592335Y-343603400D01*
X135592162Y-343603135D01*
X135409671Y-343322441D01*
X135409490Y-343322162D01*
X135235311Y-343052700D01*
X135069159Y-342794092D01*
X134987991Y-342666951D01*
X134910983Y-342546328D01*
X134760198Y-342308564D01*
X134616348Y-342080154D01*
X134545552Y-341966924D01*
X134479592Y-341861428D01*
X134479366Y-341861067D01*
X134349059Y-341651079D01*
X134348828Y-341650704D01*
X134297331Y-341567066D01*
X134224710Y-341449122D01*
X134106515Y-341255606D01*
X134106274Y-341255210D01*
X133993451Y-341068951D01*
X133993207Y-341068546D01*
X133955409Y-341005614D01*
X133885659Y-340889483D01*
X133782866Y-340716855D01*
X133782659Y-340716505D01*
X133590305Y-340389238D01*
X133589957Y-340388640D01*
X133413281Y-340082794D01*
X133412875Y-340082086D01*
X133249041Y-339793757D01*
X133248651Y-339793065D01*
X133094914Y-339518486D01*
X133094667Y-339518044D01*
X133082167Y-339495506D01*
X133020887Y-339385018D01*
X132831686Y-339040657D01*
X132831346Y-339040034D01*
X132697609Y-338793340D01*
X132646303Y-338698699D01*
X132645995Y-338698127D01*
X132522467Y-338467201D01*
X132464997Y-338359766D01*
X132464686Y-338359181D01*
X132287813Y-338024115D01*
X132287495Y-338023509D01*
X132114355Y-337691156D01*
X132114045Y-337690556D01*
X131944946Y-337361667D01*
X131944642Y-337361073D01*
X131779316Y-337035292D01*
X131779020Y-337034704D01*
X131617664Y-336712587D01*
X131617374Y-336712005D01*
X131459681Y-336393104D01*
X131459399Y-336392529D01*
X131403402Y-336277822D01*
X131305317Y-336076898D01*
X131154893Y-335764794D01*
X131008290Y-335456728D01*
X131008028Y-335456174D01*
X130911495Y-335250745D01*
X130865035Y-335151874D01*
X130764542Y-334935313D01*
X130725651Y-334851502D01*
X130725401Y-334850960D01*
X130589893Y-334555281D01*
X130589649Y-334554745D01*
X130457478Y-334262753D01*
X130457240Y-334262223D01*
X130364851Y-334055586D01*
X130328539Y-333974372D01*
X130203411Y-333691077D01*
X130203185Y-333690563D01*
X130122406Y-333505447D01*
X130081388Y-333411449D01*
X129962813Y-333136434D01*
X129887103Y-332958733D01*
X129847896Y-332866707D01*
X129847688Y-332866216D01*
X129735993Y-332600944D01*
X129735791Y-332600460D01*
X129627630Y-332340561D01*
X129627433Y-332340086D01*
X129522323Y-332084584D01*
X129522132Y-332084117D01*
X129420328Y-331833806D01*
X129420143Y-331833348D01*
X129391636Y-331762463D01*
X129321478Y-331588007D01*
X129225840Y-331347529D01*
X129133293Y-331112262D01*
X129043788Y-330882260D01*
X128957452Y-330658037D01*
X128874024Y-330439111D01*
X128873935Y-330438875D01*
X128800308Y-330243693D01*
X128794516Y-330223274D01*
X128719800Y-329839057D01*
X128719792Y-329839016D01*
X128641367Y-329435019D01*
X128641359Y-329434979D01*
X128623475Y-329342687D01*
X128562435Y-329027697D01*
X128484162Y-328623076D01*
X128484167Y-328623075D01*
X128484154Y-328623035D01*
X128406014Y-328218393D01*
X128406006Y-328218353D01*
X128327954Y-327813450D01*
X128327946Y-327813409D01*
X128249307Y-327404747D01*
X128249299Y-327404707D01*
X128171525Y-326999826D01*
X128171517Y-326999786D01*
X128093740Y-326594175D01*
X128093745Y-326594174D01*
X128093732Y-326594134D01*
X128060973Y-326422989D01*
X128016489Y-326190595D01*
X127938968Y-325784894D01*
X127860917Y-325375693D01*
X127860922Y-325375692D01*
X127860909Y-325375652D01*
X127783522Y-324969206D01*
X127783514Y-324969165D01*
X127706203Y-324562393D01*
X127706195Y-324562353D01*
X127629020Y-324155574D01*
X127629012Y-324155533D01*
X127551363Y-323745512D01*
X127551367Y-323745511D01*
X127551355Y-323745472D01*
X127538052Y-323675098D01*
X127474218Y-323337429D01*
X127397430Y-322930503D01*
X127320611Y-322522674D01*
X127320615Y-322522673D01*
X127320603Y-322522634D01*
X127243317Y-322111583D01*
X127243309Y-322111542D01*
X127166831Y-321704060D01*
X127166823Y-321704019D01*
X127089694Y-321292310D01*
X127089699Y-321292309D01*
X127089686Y-321292269D01*
X127013256Y-320883544D01*
X127013260Y-320883504D01*
X127013249Y-320883506D01*
X126937015Y-320475096D01*
X126937020Y-320475095D01*
X126937007Y-320475055D01*
X126860688Y-320065443D01*
X126860680Y-320065402D01*
X126794127Y-319707543D01*
X126784738Y-319657061D01*
X126708623Y-319247053D01*
X126632280Y-318835043D01*
X126632284Y-318835002D01*
X126632273Y-318835004D01*
X126556331Y-318424414D01*
X126556336Y-318424413D01*
X126556323Y-318424373D01*
X126480182Y-318011935D01*
X126480174Y-318011894D01*
X126404459Y-317601013D01*
X126404464Y-317601012D01*
X126404451Y-317600972D01*
X126328834Y-317189851D01*
X126328824Y-317189799D01*
X126257130Y-316799090D01*
X126212659Y-316556742D01*
X126212666Y-316556741D01*
X126212647Y-316556679D01*
X126096527Y-315922044D01*
X126096515Y-315921981D01*
X125980790Y-315287683D01*
X125980779Y-315287620D01*
X125865133Y-314651918D01*
X125865121Y-314651854D01*
X125833277Y-314476295D01*
X125750194Y-314018266D01*
X125636015Y-313386994D01*
X125521970Y-312754616D01*
X125431438Y-312251154D01*
X125408254Y-312122228D01*
X125408243Y-312122165D01*
X125310453Y-311576765D01*
X125295297Y-311492234D01*
X125295304Y-311492169D01*
X125295286Y-311492172D01*
X125182107Y-310859088D01*
X125182096Y-310859025D01*
X125069555Y-310227666D01*
X125069544Y-310227603D01*
X124957512Y-309597246D01*
X124957501Y-309597184D01*
X124846142Y-308968776D01*
X124846131Y-308968713D01*
X124734784Y-308338525D01*
X124734773Y-308338462D01*
X124623998Y-307709649D01*
X124623987Y-307709587D01*
X124613882Y-307652054D01*
X124513831Y-307082448D01*
X124403723Y-306453710D01*
X124294280Y-305826927D01*
X124184758Y-305197818D01*
X124076116Y-304571896D01*
X123967661Y-303945185D01*
X123967669Y-303945184D01*
X123967650Y-303945123D01*
X123965195Y-303930890D01*
X123859855Y-303320357D01*
X123752126Y-302694111D01*
X123644851Y-302068620D01*
X123644859Y-302068619D01*
X123644840Y-302068557D01*
X123642805Y-302056652D01*
X123575051Y-301660412D01*
X123537962Y-301443502D01*
X123537951Y-301443440D01*
X123529749Y-301395323D01*
X123431681Y-300820057D01*
X123325895Y-300197645D01*
X123325885Y-300197583D01*
X123219816Y-299571606D01*
X123219805Y-299571544D01*
X123114805Y-298949992D01*
X123114795Y-298949930D01*
X123062309Y-298638294D01*
X123009822Y-298326655D01*
X123009830Y-298326592D01*
X123009812Y-298326595D01*
X122905594Y-297705897D01*
X122905584Y-297705835D01*
X122806447Y-297113604D01*
X122809532Y-297113088D01*
X122809014Y-297111462D01*
X122807257Y-297111821D01*
X122801563Y-297083939D01*
X122800745Y-297079537D01*
X122798981Y-297069002D01*
X122798981Y-297069001D01*
X122798791Y-297067869D01*
X122797950Y-297066253D01*
X122794253Y-297048154D01*
X122783317Y-297038148D01*
X122776472Y-297025000D01*
X122759939Y-297016758D01*
X122760462Y-297015709D01*
X122759140Y-297014333D01*
X122758596Y-297015529D01*
X122747831Y-297010633D01*
X122743779Y-297008702D01*
X122718314Y-296996007D01*
X122719770Y-296993087D01*
X122718192Y-296992355D01*
X122716384Y-296996330D01*
X122447872Y-296874206D01*
X122447569Y-296874067D01*
X122148863Y-296736443D01*
X122148396Y-296736227D01*
X122056314Y-296693248D01*
X121846687Y-296595405D01*
X121542421Y-296451529D01*
X121542051Y-296451353D01*
X121235442Y-296304464D01*
X121234862Y-296304184D01*
X120926003Y-296154272D01*
X120925416Y-296153985D01*
X120613838Y-296000752D01*
X120613248Y-296000460D01*
X120299353Y-295844044D01*
X120298757Y-295843745D01*
X120294866Y-295841781D01*
X119982451Y-295684033D01*
X119982173Y-295683892D01*
X119663408Y-295520796D01*
X119662992Y-295520581D01*
X119342113Y-295354213D01*
X119341567Y-295353928D01*
X119018637Y-295184258D01*
X119018231Y-295184044D01*
X118704711Y-295017108D01*
X118693011Y-295010878D01*
X118692394Y-295010547D01*
X118524601Y-294920004D01*
X118365237Y-294834009D01*
X118364774Y-294833758D01*
X118035402Y-294653634D01*
X118035071Y-294653452D01*
X117703826Y-294469856D01*
X117703198Y-294469506D01*
X117370154Y-294282418D01*
X117369521Y-294282060D01*
X117339172Y-294264780D01*
X117314008Y-294250453D01*
X117034663Y-294091403D01*
X117034027Y-294091038D01*
X116697541Y-293896853D01*
X116697036Y-293896560D01*
X116358512Y-293698541D01*
X116357879Y-293698168D01*
X116324298Y-293678257D01*
X116017861Y-293496561D01*
X116017242Y-293496192D01*
X115675601Y-293290854D01*
X115674952Y-293290461D01*
X115331762Y-293081368D01*
X115331110Y-293080968D01*
X114986450Y-292868098D01*
X114985795Y-292867690D01*
X114639795Y-292651055D01*
X114639136Y-292650640D01*
X114291558Y-292430015D01*
X114290897Y-292429593D01*
X114230953Y-292391018D01*
X113942046Y-292205103D01*
X113941445Y-292204713D01*
X113860394Y-292151833D01*
X113591402Y-291976337D01*
X113590736Y-291975900D01*
X113239373Y-291743484D01*
X113238706Y-291743039D01*
X112886284Y-291506683D01*
X112885613Y-291506230D01*
X112532059Y-291265809D01*
X112531387Y-291265349D01*
X112176796Y-291020855D01*
X112176218Y-291020454D01*
X111921973Y-290843047D01*
X111921492Y-290842710D01*
X111669150Y-290664877D01*
X111668803Y-290664631D01*
X111418570Y-290486544D01*
X111170655Y-290308380D01*
X110924980Y-290130113D01*
X110924620Y-290129850D01*
X110681568Y-289951793D01*
X110681109Y-289951455D01*
X110657193Y-289933767D01*
X110440439Y-289773462D01*
X110439984Y-289773124D01*
X110201384Y-289594997D01*
X110200934Y-289594659D01*
X109964782Y-289416712D01*
X109964335Y-289416374D01*
X109730227Y-289238329D01*
X109729786Y-289237992D01*
X109498084Y-289060159D01*
X109497826Y-289059961D01*
X109267712Y-288881737D01*
X109040439Y-288704124D01*
X109040019Y-288703795D01*
X108814818Y-288526225D01*
X108814393Y-288525888D01*
X108591516Y-288348589D01*
X108591096Y-288348254D01*
X108370333Y-288171094D01*
X108369916Y-288170758D01*
X108151662Y-287994081D01*
X108151251Y-287993747D01*
X107934830Y-287817042D01*
X107934422Y-287816707D01*
X107754490Y-287668534D01*
X107720388Y-287640451D01*
X107508366Y-287464368D01*
X107508001Y-287464063D01*
X107493016Y-287451513D01*
X107298236Y-287288387D01*
X107181253Y-287189598D01*
X107090400Y-287112874D01*
X107090009Y-287112542D01*
X106885038Y-286938013D01*
X106884651Y-286937683D01*
X106681401Y-286763200D01*
X106681019Y-286762870D01*
X106480133Y-286589012D01*
X106479755Y-286588683D01*
X106280878Y-286415176D01*
X106280599Y-286414932D01*
X106084127Y-286242150D01*
X106083759Y-286241826D01*
X105889325Y-286069482D01*
X105888959Y-286069156D01*
X105696646Y-285897353D01*
X105696285Y-285897029D01*
X105505922Y-285725644D01*
X105505564Y-285725320D01*
X105318085Y-285555227D01*
X105317732Y-285554906D01*
X105131862Y-285384984D01*
X105131378Y-285384539D01*
X105122540Y-285376374D01*
X105122539Y-285376374D01*
X105107881Y-285362832D01*
X105091076Y-285360848D01*
X105075671Y-285353849D01*
X105056123Y-285357849D01*
X105056120Y-285357849D01*
X105044346Y-285360259D01*
X105043767Y-285360377D01*
X104734282Y-285422032D01*
X104733325Y-285422218D01*
X104556022Y-285455963D01*
X104418384Y-285482159D01*
X104417303Y-285482360D01*
X104096524Y-285540517D01*
X104095424Y-285540711D01*
X103769192Y-285596872D01*
X103768302Y-285597022D01*
X103526318Y-285636437D01*
X103436151Y-285651123D01*
X103435010Y-285651304D01*
X103294338Y-285672895D01*
X103097237Y-285703147D01*
X103096195Y-285703301D01*
X102753085Y-285752696D01*
X102751936Y-285752856D01*
X102739615Y-285754511D01*
X102403582Y-285799650D01*
X102402383Y-285799806D01*
X102305518Y-285811873D01*
X102048177Y-285843929D01*
X102047090Y-285844059D01*
X101687831Y-285885265D01*
X101686665Y-285885393D01*
X101321981Y-285923575D01*
X101320775Y-285923696D01*
X100950864Y-285958685D01*
X100949726Y-285958787D01*
X100765384Y-285974337D01*
X100574624Y-285990429D01*
X100573333Y-285990531D01*
X100319449Y-286009322D01*
X100193273Y-286018660D01*
X100192035Y-286018746D01*
X99806891Y-286043220D01*
X99805688Y-286043291D01*
X99415149Y-286063975D01*
X99414140Y-286064025D01*
X99316187Y-286068379D01*
X99180739Y-286074401D01*
X99179945Y-286074433D01*
X99128139Y-286076409D01*
X98948412Y-286083262D01*
X98947913Y-286083280D01*
X98717996Y-286090604D01*
X98717213Y-286090627D01*
X98489150Y-286096473D01*
X98488373Y-286096490D01*
X98262536Y-286100886D01*
X98261767Y-286100899D01*
X98158324Y-286102280D01*
X98037365Y-286103895D01*
X98036848Y-286103901D01*
X97814270Y-286105525D01*
X97813821Y-286105526D01*
X97703992Y-286105667D01*
X97593421Y-286105808D01*
X97592673Y-286105807D01*
X97374235Y-286104789D01*
X97373491Y-286104783D01*
X97238362Y-286103356D01*
X97157094Y-286102497D01*
X97156552Y-286102489D01*
X97039023Y-286100562D01*
X96942149Y-286098973D01*
X96941419Y-286098959D01*
X96728940Y-286094242D01*
X96728218Y-286094224D01*
X96517762Y-286088346D01*
X96517047Y-286088324D01*
X96308511Y-286081314D01*
X96308051Y-286081297D01*
X96101733Y-286073200D01*
X96101244Y-286073179D01*
X95975749Y-286067556D01*
X95908593Y-286044524D01*
X95898047Y-286036179D01*
X95897258Y-286035483D01*
X95693986Y-285856202D01*
X95693313Y-285855605D01*
X95685690Y-285848779D01*
X95426811Y-285616984D01*
X95426095Y-285616338D01*
X95212494Y-285422118D01*
X95156358Y-285371075D01*
X95155649Y-285370426D01*
X95144784Y-285360390D01*
X94882987Y-285118582D01*
X94882253Y-285117898D01*
X94606745Y-284859328D01*
X94606001Y-284858624D01*
X94327988Y-284593421D01*
X94327236Y-284592698D01*
X94096420Y-284368837D01*
X94046668Y-284320584D01*
X94046096Y-284320024D01*
X93763297Y-284041084D01*
X93762566Y-284040357D01*
X93477844Y-283754656D01*
X93477217Y-283754021D01*
X93190651Y-283461408D01*
X93189872Y-283460606D01*
X92901739Y-283161120D01*
X92900954Y-283160297D01*
X92611427Y-282853873D01*
X92610638Y-282853030D01*
X92319915Y-282539636D01*
X92319121Y-282538772D01*
X92073903Y-282269446D01*
X92027305Y-282218267D01*
X92026541Y-282217419D01*
X91931753Y-282111312D01*
X91733800Y-281889721D01*
X91733038Y-281888860D01*
X91723425Y-281877888D01*
X91439861Y-281554267D01*
X91439056Y-281553340D01*
X91373321Y-281476828D01*
X91145284Y-281211405D01*
X91144523Y-281210510D01*
X91085559Y-281140491D01*
X90850428Y-280861278D01*
X90849775Y-280860495D01*
X90555569Y-280503939D01*
X90554874Y-280503087D01*
X90260883Y-280139327D01*
X90260089Y-280138335D01*
X90171114Y-280025895D01*
X90011890Y-279824681D01*
X89966499Y-279767320D01*
X89965689Y-279766285D01*
X89775882Y-279521212D01*
X89672639Y-279387907D01*
X89671844Y-279386870D01*
X89379464Y-279001004D01*
X89378655Y-278999924D01*
X89087303Y-278606743D01*
X89086497Y-278605643D01*
X88796101Y-278204748D01*
X88795296Y-278203625D01*
X88506239Y-277795228D01*
X88505438Y-277794082D01*
X88217925Y-277378157D01*
X88217128Y-277376990D01*
X87931248Y-276953343D01*
X87930455Y-276952153D01*
X87706176Y-276611522D01*
X87646514Y-276520908D01*
X87645732Y-276519706D01*
X87363888Y-276080770D01*
X87363106Y-276079537D01*
X87083407Y-275632633D01*
X87082632Y-275631377D01*
X86805289Y-275176477D01*
X86804731Y-275175553D01*
X86680225Y-274967343D01*
X86679880Y-274966763D01*
X86624574Y-274873141D01*
X86556828Y-274758461D01*
X86556533Y-274757958D01*
X86435413Y-274550408D01*
X86435078Y-274549831D01*
X86315706Y-274342766D01*
X86315376Y-274342190D01*
X86253737Y-274233956D01*
X86197728Y-274135607D01*
X86197458Y-274135130D01*
X86081694Y-273929356D01*
X86081375Y-273928786D01*
X86028510Y-273833666D01*
X85967156Y-273723272D01*
X85854555Y-273518175D01*
X85743763Y-273313891D01*
X85743492Y-273313387D01*
X85634608Y-273110157D01*
X85634307Y-273109592D01*
X85527195Y-272907205D01*
X85526900Y-272906644D01*
X85421511Y-272705066D01*
X85421220Y-272704507D01*
X85364331Y-272594358D01*
X85317177Y-272503056D01*
X85214821Y-272302427D01*
X85214539Y-272301872D01*
X85113996Y-272102370D01*
X85113720Y-272101817D01*
X85014815Y-271903146D01*
X85014543Y-271902597D01*
X84967213Y-271806354D01*
X84917241Y-271704738D01*
X84917039Y-271704324D01*
X84821298Y-271507236D01*
X84821034Y-271506690D01*
X84726737Y-271310174D01*
X84674309Y-271199568D01*
X84634031Y-271114593D01*
X84633776Y-271114053D01*
X84575560Y-270989716D01*
X84542652Y-270919430D01*
X84453128Y-270725866D01*
X84452882Y-270725332D01*
X84364887Y-270532718D01*
X84364647Y-270532187D01*
X84278205Y-270340635D01*
X84277967Y-270340106D01*
X84192845Y-270149140D01*
X84192613Y-270148615D01*
X84138133Y-270024878D01*
X84109217Y-269959204D01*
X84109030Y-269958777D01*
X84026991Y-269770142D01*
X84026766Y-269769622D01*
X83946159Y-269581980D01*
X83945939Y-269581464D01*
X83866853Y-269395079D01*
X83866637Y-269394567D01*
X83788859Y-269208990D01*
X83788647Y-269208481D01*
X83712267Y-269023982D01*
X83712059Y-269023476D01*
X83646060Y-268862073D01*
X83650116Y-268860414D01*
X83646696Y-268854298D01*
X83646758Y-268853533D01*
X83633996Y-268832568D01*
X83631011Y-268825269D01*
X83625814Y-268819127D01*
X83621627Y-268812250D01*
X83615641Y-268807107D01*
X83599790Y-268788376D01*
X83594966Y-268787194D01*
X83592805Y-268784784D01*
X83591469Y-268786338D01*
X83446984Y-268662197D01*
X83445620Y-268661008D01*
X83280730Y-268515165D01*
X83279333Y-268513910D01*
X83111364Y-268360823D01*
X83109973Y-268359537D01*
X82939295Y-268199096D01*
X82937933Y-268197795D01*
X82765020Y-268029989D01*
X82763551Y-268028540D01*
X82588777Y-267853266D01*
X82587285Y-267851744D01*
X82411012Y-267668882D01*
X82409506Y-267667292D01*
X82232136Y-267476774D01*
X82230616Y-267475112D01*
X82052472Y-267276769D01*
X82050944Y-267275036D01*
X81872463Y-267068833D01*
X81870930Y-267067028D01*
X81692482Y-266852857D01*
X81690975Y-266851013D01*
X81512920Y-266628746D01*
X81511390Y-266626796D01*
X81334106Y-266396325D01*
X81332580Y-266394299D01*
X81156552Y-266155670D01*
X81155035Y-266153569D01*
X80980511Y-265906498D01*
X80979008Y-265904322D01*
X80806458Y-265648830D01*
X80804958Y-265646557D01*
X80631163Y-265376832D01*
X80629694Y-265374496D01*
X80464386Y-265105166D01*
X80462989Y-265102833D01*
X80305887Y-264834028D01*
X80304560Y-264831702D01*
X80200677Y-264644956D01*
X80155426Y-264563609D01*
X80154181Y-264561316D01*
X80012861Y-264294284D01*
X80011674Y-264291983D01*
X79877937Y-264026211D01*
X79876817Y-264023929D01*
X79750427Y-263759610D01*
X79749374Y-263757350D01*
X79630143Y-263494772D01*
X79629153Y-263492535D01*
X79555979Y-263322706D01*
X79516833Y-263231851D01*
X79515920Y-263229676D01*
X79410358Y-262971264D01*
X79409491Y-262969084D01*
X79310411Y-262713022D01*
X79309603Y-262710874D01*
X79216882Y-262457637D01*
X79216129Y-262455524D01*
X79129442Y-262205040D01*
X79128743Y-262202961D01*
X79047991Y-261955784D01*
X79047343Y-261953744D01*
X78972187Y-261709733D01*
X78971589Y-261707731D01*
X78948228Y-261627159D01*
X78901945Y-261467527D01*
X78901407Y-261465613D01*
X78836994Y-261229221D01*
X78836487Y-261227302D01*
X78777105Y-260995003D01*
X78776641Y-260993126D01*
X78722084Y-260765183D01*
X78721660Y-260763350D01*
X78684286Y-260596212D01*
X78671737Y-260540088D01*
X78671359Y-260538343D01*
X78625810Y-260319791D01*
X78625460Y-260318048D01*
X78584116Y-260104642D01*
X78583800Y-260102946D01*
X78569666Y-260024236D01*
X78546428Y-259894824D01*
X78546155Y-259893244D01*
X78517645Y-259721383D01*
X78512556Y-259690711D01*
X78512302Y-259689116D01*
X78482355Y-259493018D01*
X78482028Y-259490734D01*
X78431667Y-259114958D01*
X78431313Y-259112069D01*
X78392709Y-258762960D01*
X78392444Y-258760299D01*
X78366559Y-258469888D01*
X78363781Y-258438717D01*
X78363634Y-258436927D01*
X78353362Y-258298602D01*
X78354814Y-258298494D01*
X78353926Y-258295032D01*
X78354024Y-258294411D01*
X78352470Y-258284623D01*
X78352470Y-258283360D01*
X78352354Y-258282367D01*
X78352064Y-258281137D01*
X78351330Y-258271244D01*
X78351274Y-258271108D01*
X78351496Y-258267037D01*
X78349724Y-258267318D01*
X78266044Y-257740051D01*
X78265969Y-257739567D01*
X78181938Y-257196475D01*
X78181863Y-257195988D01*
X78105848Y-256691640D01*
X78099051Y-256646544D01*
X78021895Y-256120510D01*
X78017727Y-256092093D01*
X78017655Y-256091596D01*
X77937892Y-255532263D01*
X77937821Y-255531761D01*
X77861198Y-254978513D01*
X77859603Y-254966997D01*
X77782978Y-254396718D01*
X77708039Y-253821152D01*
X77678736Y-253588593D01*
X77634883Y-253240547D01*
X77634819Y-253240027D01*
X77568343Y-252694131D01*
X77563565Y-252654895D01*
X77494136Y-252064084D01*
X77426671Y-251468252D01*
X77361239Y-250867466D01*
X77297874Y-250261460D01*
X77240214Y-249685912D01*
X77236710Y-249650935D01*
X77236656Y-249650388D01*
X77177731Y-249035148D01*
X77177679Y-249034596D01*
X77121021Y-248414270D01*
X77120972Y-248413714D01*
X77080712Y-247950262D01*
X77066690Y-247788850D01*
X77014768Y-247158534D01*
X76965308Y-246523203D01*
X76918425Y-245883508D01*
X76918384Y-245882934D01*
X76907884Y-245730106D01*
X76874117Y-245238614D01*
X76832506Y-244589338D01*
X76795231Y-243962287D01*
X76793619Y-243935169D01*
X76793586Y-243934583D01*
X76767544Y-243459102D01*
X76757537Y-243276396D01*
X76724346Y-242613438D01*
X76724317Y-242612844D01*
X76694049Y-241945154D01*
X76694024Y-241944556D01*
X76682650Y-241664205D01*
X76666750Y-241272264D01*
X76642527Y-240595196D01*
X76622098Y-239935181D01*
X76621438Y-239913857D01*
X76621421Y-239913246D01*
X76603532Y-239227809D01*
X76603517Y-239227195D01*
X76588876Y-238537173D01*
X76588865Y-238536552D01*
X76584212Y-238250794D01*
X76577438Y-237834806D01*
X76569539Y-237137079D01*
X76567066Y-236750101D01*
X76565112Y-236444247D01*
X76565109Y-236443630D01*
X76564080Y-235755267D01*
X76564081Y-235754654D01*
X76566386Y-235071289D01*
X76566389Y-235070680D01*
X76571961Y-234391413D01*
X76571968Y-234390809D01*
X76580731Y-233716771D01*
X76580740Y-233716170D01*
X76581075Y-233697368D01*
X76592650Y-233046118D01*
X76592662Y-233045522D01*
X76607629Y-232380546D01*
X76607644Y-232379954D01*
X76625612Y-231719661D01*
X76625629Y-231719072D01*
X76646533Y-231063483D01*
X76646553Y-231062900D01*
X76670309Y-230412503D01*
X76670331Y-230411924D01*
X76696914Y-229765656D01*
X76696939Y-229765080D01*
X76726253Y-229123816D01*
X76726281Y-229123246D01*
X76758250Y-228487092D01*
X76758280Y-228486525D01*
X76792857Y-227855215D01*
X76792889Y-227854654D01*
X76829991Y-227228465D01*
X76830025Y-227227907D01*
X76830799Y-227215768D01*
X76869598Y-226606662D01*
X76869634Y-226606109D01*
X76911628Y-225989601D01*
X76911667Y-225989053D01*
X76955967Y-225378024D01*
X76956007Y-225377480D01*
X77002614Y-224771034D01*
X77002657Y-224770494D01*
X77051460Y-224169301D01*
X77051505Y-224168767D01*
X77102384Y-223573421D01*
X77102430Y-223572891D01*
X77155450Y-222981936D01*
X77155498Y-222981410D01*
X77210504Y-222395883D01*
X77210554Y-222395362D01*
X77267509Y-221814986D01*
X77267561Y-221814470D01*
X77326346Y-221239791D01*
X77326399Y-221239280D01*
X77383979Y-220698180D01*
X77387043Y-220669390D01*
X77449479Y-220104401D01*
X77513520Y-219545430D01*
X77513578Y-219544934D01*
X77579181Y-218991739D01*
X77579240Y-218991247D01*
X77645287Y-218452443D01*
X77645811Y-218452507D01*
X77645712Y-218451149D01*
X77647172Y-218446703D01*
X77647203Y-218436818D01*
X77648406Y-218427002D01*
X77647594Y-218422829D01*
X77648044Y-218421071D01*
X77647252Y-218421069D01*
X77647985Y-218184942D01*
X77647996Y-218183627D01*
X77651481Y-217926243D01*
X77651507Y-217924850D01*
X77658148Y-217654962D01*
X77658193Y-217653493D01*
X77668407Y-217371920D01*
X77668472Y-217370380D01*
X77682702Y-217077199D01*
X77682791Y-217075589D01*
X77701444Y-216771650D01*
X77701558Y-216769971D01*
X77703694Y-216741420D01*
X77725082Y-216455435D01*
X77725222Y-216453729D01*
X77727930Y-216423222D01*
X77754026Y-216129268D01*
X77754193Y-216127520D01*
X77754450Y-216125039D01*
X77788718Y-215793436D01*
X77788923Y-215791593D01*
X77829568Y-215448616D01*
X77829813Y-215446677D01*
X77877014Y-215095117D01*
X77877299Y-215093113D01*
X77879046Y-215081521D01*
X77929972Y-214743492D01*
X77931513Y-214733264D01*
X77931842Y-214731198D01*
X77972703Y-214487516D01*
X77993448Y-214363805D01*
X77993819Y-214361702D01*
X77996081Y-214349504D01*
X78038205Y-214122283D01*
X78063275Y-213987052D01*
X78063701Y-213984861D01*
X78121830Y-213699606D01*
X78141433Y-213603409D01*
X78141909Y-213601178D01*
X78147700Y-213575196D01*
X78228296Y-213213612D01*
X78228826Y-213211332D01*
X78233256Y-213193087D01*
X78324366Y-212817785D01*
X78324967Y-212815413D01*
X78429989Y-212416742D01*
X78430654Y-212414314D01*
X78545662Y-212010656D01*
X78546398Y-212008171D01*
X78548599Y-212001010D01*
X78624085Y-211755357D01*
X78671790Y-211600112D01*
X78672599Y-211597575D01*
X78808801Y-211185551D01*
X78809688Y-211182964D01*
X78957103Y-210767509D01*
X78958071Y-210764874D01*
X79023520Y-210592690D01*
X79117174Y-210346302D01*
X79118191Y-210343718D01*
X79289383Y-209922560D01*
X79290515Y-209919867D01*
X79301836Y-209893784D01*
X79474181Y-209496687D01*
X79475413Y-209493938D01*
X79672009Y-209069106D01*
X79673338Y-209066324D01*
X79883309Y-208640262D01*
X79884736Y-208637456D01*
X79901390Y-208605690D01*
X80108470Y-208210703D01*
X80109987Y-208207896D01*
X80141872Y-208150674D01*
X80347934Y-207780858D01*
X80349560Y-207778028D01*
X80602157Y-207351148D01*
X80603889Y-207348308D01*
X80871535Y-206922087D01*
X80873371Y-206919248D01*
X81122712Y-206544871D01*
X81156915Y-206493517D01*
X81158384Y-206491360D01*
X81314283Y-206267489D01*
X81315329Y-206266010D01*
X81472913Y-206046516D01*
X81473967Y-206045071D01*
X81632751Y-205830406D01*
X81633811Y-205828993D01*
X81793630Y-205619145D01*
X81794694Y-205617767D01*
X81955435Y-205412653D01*
X81956504Y-205411309D01*
X82117888Y-205211057D01*
X82118959Y-205209745D01*
X82281093Y-205014006D01*
X82282166Y-205012729D01*
X82381204Y-204896336D01*
X82444703Y-204821709D01*
X82445762Y-204820480D01*
X82531135Y-204722758D01*
X82608652Y-204634027D01*
X82609717Y-204632824D01*
X82772775Y-204450941D01*
X82773844Y-204449763D01*
X82886132Y-204327649D01*
X82937032Y-204272295D01*
X82938016Y-204271238D01*
X83101103Y-204098240D01*
X83102128Y-204097167D01*
X83264984Y-203928584D01*
X83266039Y-203927505D01*
X83428435Y-203763379D01*
X83429484Y-203762331D01*
X83572271Y-203621380D01*
X83591354Y-203602542D01*
X83592374Y-203601547D01*
X83733711Y-203465214D01*
X83738465Y-203461674D01*
X83746689Y-203453240D01*
X83762481Y-203444356D01*
X83773245Y-203420890D01*
X83776534Y-203414245D01*
X83788672Y-203391447D01*
X83785945Y-203371962D01*
X83786114Y-203370508D01*
X83787867Y-203360601D01*
X83787813Y-203355921D01*
X83819641Y-203082553D01*
X83819902Y-203080470D01*
X83862286Y-202762643D01*
X83862604Y-202760412D01*
X83902006Y-202500513D01*
X83913305Y-202425988D01*
X83913682Y-202423649D01*
X83918939Y-202392936D01*
X83973591Y-202073605D01*
X83974044Y-202071108D01*
X84044055Y-201706364D01*
X84044586Y-201703746D01*
X84049501Y-201680783D01*
X84125730Y-201324617D01*
X84126179Y-201322601D01*
X84170962Y-201129028D01*
X84171294Y-201127632D01*
X84219279Y-200930470D01*
X84219608Y-200929150D01*
X84270820Y-200728900D01*
X84271197Y-200727463D01*
X84325682Y-200524501D01*
X84326087Y-200523027D01*
X84384000Y-200317299D01*
X84384432Y-200315798D01*
X84445881Y-200107445D01*
X84446341Y-200105921D01*
X84511432Y-199895072D01*
X84511921Y-199893524D01*
X84580782Y-199680256D01*
X84581287Y-199678727D01*
X84653994Y-199463263D01*
X84654543Y-199461672D01*
X84731210Y-199244110D01*
X84731791Y-199242496D01*
X84812560Y-199022878D01*
X84813173Y-199021245D01*
X84898146Y-198799714D01*
X84898793Y-198798062D01*
X84988071Y-198574758D01*
X84988752Y-198573089D01*
X85082476Y-198348060D01*
X85083174Y-198346419D01*
X85181425Y-198119863D01*
X85182178Y-198118162D01*
X85285044Y-197890240D01*
X85285833Y-197888525D01*
X85324705Y-197805729D01*
X85393487Y-197659223D01*
X85394312Y-197657500D01*
X85506863Y-197426941D01*
X85507699Y-197425260D01*
X85625259Y-197193574D01*
X85626163Y-197191827D01*
X85748767Y-196959271D01*
X85749691Y-196957551D01*
X85858522Y-196758651D01*
X85859638Y-196756655D01*
X85980332Y-196545278D01*
X85981665Y-196542998D01*
X86118685Y-196314299D01*
X86120087Y-196312015D01*
X86278324Y-196060493D01*
X86279516Y-196058636D01*
X86398519Y-195876670D01*
X86399458Y-195875255D01*
X86531388Y-195679339D01*
X86532287Y-195678021D01*
X86678301Y-195467008D01*
X86679152Y-195465794D01*
X86840476Y-195238422D01*
X86841273Y-195237312D01*
X87019270Y-194992120D01*
X87020011Y-194991110D01*
X87107315Y-194873329D01*
X87215959Y-194726757D01*
X87216620Y-194725873D01*
X87306889Y-194606371D01*
X87432007Y-194440735D01*
X87432605Y-194439951D01*
X87516024Y-194331391D01*
X87668689Y-194132713D01*
X87668970Y-194132350D01*
X87795250Y-193969925D01*
X87927259Y-193801371D01*
X88064941Y-193626801D01*
X88208766Y-193445649D01*
X88456848Y-193135828D01*
X88585985Y-192975854D01*
X88718577Y-192812510D01*
X88854613Y-192645874D01*
X88993855Y-192476295D01*
X89099060Y-192348923D01*
X89136671Y-192303388D01*
X89136907Y-192303103D01*
X89283203Y-192127039D01*
X89283446Y-192126748D01*
X89432601Y-191948337D01*
X89432847Y-191948043D01*
X89586122Y-191765833D01*
X89742800Y-191580741D01*
X89902920Y-191392786D01*
X90066560Y-191201930D01*
X90233632Y-191008340D01*
X90404201Y-190812000D01*
X90578423Y-190612793D01*
X90756048Y-190411064D01*
X90936985Y-190206973D01*
X90937273Y-190206650D01*
X91121819Y-189999925D01*
X91122111Y-189999598D01*
X91309965Y-189790634D01*
X91310261Y-189790307D01*
X91501408Y-189579171D01*
X91501709Y-189578840D01*
X91554048Y-189521439D01*
X91697015Y-189364644D01*
X91895486Y-189148540D01*
X91895699Y-189148309D01*
X92098110Y-188929511D01*
X92098425Y-188929172D01*
X92303975Y-188708609D01*
X92304292Y-188708269D01*
X92513634Y-188485293D01*
X92513957Y-188484951D01*
X92726520Y-188260233D01*
X92726847Y-188259888D01*
X92943233Y-188032847D01*
X92943564Y-188032501D01*
X93087165Y-187882972D01*
X93163670Y-187803308D01*
X93387386Y-187572140D01*
X93387726Y-187571790D01*
X93523625Y-187432449D01*
X93615240Y-187338514D01*
X93827040Y-187123043D01*
X93828684Y-187124659D01*
X93830551Y-187122119D01*
X93831870Y-187121772D01*
X93844551Y-187106256D01*
X93845880Y-187104630D01*
X93849402Y-187100702D01*
X93850465Y-187099211D01*
X93857418Y-187092138D01*
X93859500Y-187087963D01*
X93862454Y-187084349D01*
X93866049Y-187075108D01*
X93866972Y-187073526D01*
X93869113Y-187068690D01*
X93878989Y-187048889D01*
X93879491Y-187049139D01*
X93881438Y-187045235D01*
X93878165Y-187043962D01*
X93948217Y-186863894D01*
X93948271Y-186863755D01*
X94030161Y-186653993D01*
X94030217Y-186653851D01*
X94113902Y-186440255D01*
X94114003Y-186440125D01*
X94113960Y-186440108D01*
X94199846Y-186221700D01*
X94199863Y-186221707D01*
X94199904Y-186221552D01*
X94228674Y-186148662D01*
X94287464Y-185999712D01*
X94377226Y-185773148D01*
X94468952Y-185542515D01*
X94562661Y-185307809D01*
X94658261Y-185069311D01*
X94755699Y-184827197D01*
X94855053Y-184581320D01*
X94956646Y-184330925D01*
X95059884Y-184077533D01*
X95165185Y-183820155D01*
X95272320Y-183559402D01*
X95381620Y-183294513D01*
X95492804Y-183026222D01*
X95492929Y-183026068D01*
X95492877Y-183026046D01*
X95605767Y-182754824D01*
X95605843Y-182754642D01*
X95721046Y-182479082D01*
X95721124Y-182478897D01*
X95837859Y-182200913D01*
X95837937Y-182200728D01*
X95956783Y-181918979D01*
X95956918Y-181918813D01*
X95956863Y-181918790D01*
X96077670Y-181633687D01*
X96077751Y-181633496D01*
X96200698Y-181344667D01*
X96200781Y-181344474D01*
X96325448Y-181052950D01*
X96325531Y-181052755D01*
X96452183Y-180757964D01*
X96452268Y-180757767D01*
X96580943Y-180459667D01*
X96581029Y-180459469D01*
X96711519Y-180158587D01*
X96711606Y-180158386D01*
X96844287Y-179853904D01*
X96844376Y-179853701D01*
X96978597Y-179547158D01*
X96978687Y-179546952D01*
X97115403Y-179236218D01*
X97115495Y-179236011D01*
X97253621Y-178923593D01*
X97253714Y-178923384D01*
X97394117Y-178607374D01*
X97394165Y-178607266D01*
X97565708Y-178222141D01*
X97565721Y-178222125D01*
X97565716Y-178222123D01*
X97732489Y-177847863D01*
X97732506Y-177847825D01*
X97896595Y-177479910D01*
X97896620Y-177479854D01*
X98057350Y-177119947D01*
X98057361Y-177119952D01*
X98057385Y-177119868D01*
X98087101Y-177053452D01*
X98214873Y-176767870D01*
X98214946Y-176767784D01*
X98214917Y-176767771D01*
X98370076Y-176421783D01*
X98370132Y-176421659D01*
X98523202Y-176081313D01*
X98523222Y-176081322D01*
X98523267Y-176081170D01*
X98673904Y-175747379D01*
X98822833Y-175418681D01*
X98970195Y-175094917D01*
X99116333Y-174775481D01*
X99261138Y-174460743D01*
X99405295Y-174149360D01*
X99548716Y-173841657D01*
X99692090Y-173536283D01*
X99835163Y-173233907D01*
X99835336Y-173233543D01*
X99978260Y-172933960D01*
X99978443Y-172933577D01*
X100020068Y-172847078D01*
X100122349Y-172634533D01*
X100266903Y-172336846D01*
X100412499Y-172039819D01*
X100559352Y-171743111D01*
X100707580Y-171446587D01*
X100857401Y-171149894D01*
X100857637Y-171149428D01*
X101009422Y-170851920D01*
X101009664Y-170851448D01*
X101163797Y-170552452D01*
X101164044Y-170551976D01*
X101320573Y-170251480D01*
X101320824Y-170251002D01*
X101480193Y-169948229D01*
X101480445Y-169947752D01*
X101642810Y-169642465D01*
X101643064Y-169641989D01*
X101808722Y-169333701D01*
X101808977Y-169333230D01*
X101978304Y-169021300D01*
X101978557Y-169020836D01*
X102023365Y-168939113D01*
X102151636Y-168705161D01*
X102328783Y-168385216D01*
X102329116Y-168384617D01*
X102637554Y-167834635D01*
X102637963Y-167833912D01*
X102952561Y-167281511D01*
X102952792Y-167281109D01*
X103272630Y-166727636D01*
X103272978Y-166727037D01*
X103597769Y-166172751D01*
X103598074Y-166172234D01*
X103650289Y-166084303D01*
X103926821Y-165618610D01*
X103927143Y-165618072D01*
X103966429Y-165552756D01*
X104259201Y-165065990D01*
X104259558Y-165065400D01*
X104594437Y-164515473D01*
X104594790Y-164514897D01*
X104931441Y-163968670D01*
X104931790Y-163968107D01*
X105270006Y-163425748D01*
X105270353Y-163425194D01*
X105345604Y-163305905D01*
X105609207Y-162888036D01*
X105948064Y-162356945D01*
X105948413Y-162356401D01*
X106286406Y-161832605D01*
X106286759Y-161832062D01*
X106623128Y-161316615D01*
X106623485Y-161316070D01*
X106704560Y-161193226D01*
X106958128Y-160809021D01*
X107133262Y-160546666D01*
X107289914Y-160312000D01*
X107290290Y-160311440D01*
X107365356Y-160200284D01*
X107618737Y-159825082D01*
X107942740Y-159350951D01*
X107943096Y-159350434D01*
X108262230Y-158889088D01*
X108262656Y-158888475D01*
X108576138Y-158440991D01*
X108576590Y-158440350D01*
X108883844Y-158007515D01*
X108884327Y-158006840D01*
X109184564Y-157589741D01*
X109185084Y-157589023D01*
X109477868Y-157188252D01*
X109478434Y-157187483D01*
X109575353Y-157056907D01*
X109762701Y-156804499D01*
X109763284Y-156803722D01*
X110038468Y-156439298D01*
X110039161Y-156438388D01*
X110304637Y-156093380D01*
X110305419Y-156092374D01*
X110560434Y-155767805D01*
X110561328Y-155766681D01*
X110805064Y-155463643D01*
X110806103Y-155462368D01*
X111037890Y-155181765D01*
X111039119Y-155180300D01*
X111258133Y-154923209D01*
X111259618Y-154921497D01*
X111465013Y-154688997D01*
X111466854Y-154686959D01*
X111657840Y-154480037D01*
X111660187Y-154477562D01*
X111837218Y-154295886D01*
X111838416Y-154294673D01*
X111971756Y-154161486D01*
X111974227Y-154163959D01*
X111974855Y-154163115D01*
X111972659Y-154161002D01*
X111982105Y-154151184D01*
X111983819Y-154149437D01*
X111993442Y-154139824D01*
X111995629Y-154142013D01*
X111996464Y-154141370D01*
X111993908Y-154138911D01*
X112113852Y-154014208D01*
X112116231Y-154016497D01*
X112117003Y-154015411D01*
X112114985Y-154013566D01*
X112123720Y-154004009D01*
X112125913Y-154001670D01*
X112134907Y-153992319D01*
X112136940Y-153994275D01*
X112137984Y-153993437D01*
X112135476Y-153991145D01*
X112284502Y-153828092D01*
X112286933Y-153830314D01*
X112287688Y-153829189D01*
X112285637Y-153827409D01*
X112294094Y-153817660D01*
X112296267Y-153815220D01*
X112304978Y-153805689D01*
X112307042Y-153807576D01*
X112308080Y-153806698D01*
X112305526Y-153804482D01*
X112428121Y-153663156D01*
X112430622Y-153665325D01*
X112431320Y-153664228D01*
X112429194Y-153662474D01*
X112437482Y-153652424D01*
X112439470Y-153650073D01*
X112448042Y-153640191D01*
X112448043Y-153640189D01*
X112450197Y-153642058D01*
X112451173Y-153641188D01*
X112448539Y-153639016D01*
X112582074Y-153477100D01*
X112584562Y-153479152D01*
X112585292Y-153477939D01*
X112583222Y-153476324D01*
X112591081Y-153466252D01*
X112593210Y-153463598D01*
X112601347Y-153453731D01*
X112603465Y-153455477D01*
X112604501Y-153454507D01*
X112601855Y-153452442D01*
X112744099Y-153270134D01*
X112746610Y-153272093D01*
X112747355Y-153270767D01*
X112745310Y-153269265D01*
X112752727Y-153259165D01*
X112754942Y-153256238D01*
X112762666Y-153246338D01*
X112764745Y-153247960D01*
X112765832Y-153246885D01*
X112763176Y-153244934D01*
X112911784Y-153042559D01*
X112914280Y-153044392D01*
X112915037Y-153042943D01*
X112913056Y-153041581D01*
X112920010Y-153031462D01*
X112922290Y-153028253D01*
X112929581Y-153018323D01*
X112931619Y-153019819D01*
X112932753Y-153018630D01*
X112930086Y-153016797D01*
X113082551Y-152794916D01*
X113085193Y-152796732D01*
X113085826Y-152795433D01*
X113083649Y-152794024D01*
X113090551Y-152783359D01*
X113092485Y-152780459D01*
X113099689Y-152769975D01*
X113101923Y-152771510D01*
X113102890Y-152770430D01*
X113100091Y-152768619D01*
X113197178Y-152618598D01*
X113200220Y-152620566D01*
X113200599Y-152619736D01*
X113197857Y-152618028D01*
X113205200Y-152606237D01*
X113206337Y-152604446D01*
X113213905Y-152592752D01*
X113213905Y-152592751D01*
X113216613Y-152594504D01*
X113217205Y-152593805D01*
X113214134Y-152591892D01*
X113254799Y-152526599D01*
X113257800Y-152528468D01*
X113258198Y-152527558D01*
X113255528Y-152525964D01*
X113262563Y-152514177D01*
X113263805Y-152512139D01*
X113271036Y-152500529D01*
X113273712Y-152502196D01*
X113274340Y-152501429D01*
X113271266Y-152499594D01*
X113376206Y-152323775D01*
X113379040Y-152325467D01*
X113379546Y-152324234D01*
X113377164Y-152322893D01*
X113383550Y-152311547D01*
X113385120Y-152308841D01*
X113391774Y-152297692D01*
X113394199Y-152299139D01*
X113395024Y-152298091D01*
X113392062Y-152296424D01*
X113488994Y-152124207D01*
X113491905Y-152125845D01*
X113492363Y-152124644D01*
X113489897Y-152123334D01*
X113496035Y-152111775D01*
X113497515Y-152109067D01*
X113503123Y-152099104D01*
X113503915Y-152097696D01*
X113506417Y-152099104D01*
X113507186Y-152098072D01*
X113504163Y-152096467D01*
X113593226Y-151928741D01*
X113596194Y-151930317D01*
X113596606Y-151929158D01*
X113594071Y-151927887D01*
X113599974Y-151916109D01*
X113601334Y-151913473D01*
X113607518Y-151901827D01*
X113610093Y-151903194D01*
X113610807Y-151902187D01*
X113607725Y-151900643D01*
X113689251Y-151737976D01*
X113692295Y-151739502D01*
X113692665Y-151738375D01*
X113690043Y-151737134D01*
X113695715Y-151725149D01*
X113696960Y-151722593D01*
X113702923Y-151710695D01*
X113705578Y-151712025D01*
X113706244Y-151711037D01*
X113703098Y-151709548D01*
X113777528Y-151552276D01*
X113780470Y-151553668D01*
X113780872Y-151552334D01*
X113778436Y-151551260D01*
X113778437Y-151551259D01*
X113783621Y-151539503D01*
X113785002Y-151536483D01*
X113790495Y-151524877D01*
X113792992Y-151526059D01*
X113793747Y-151524882D01*
X113790668Y-151523524D01*
X113895620Y-151285538D01*
X113898500Y-151286808D01*
X113898910Y-151285291D01*
X113896611Y-151284359D01*
X113901289Y-151272823D01*
X113902767Y-151269330D01*
X113907319Y-151259009D01*
X113907780Y-151257963D01*
X113910151Y-151259009D01*
X113910966Y-151257662D01*
X113907936Y-151256433D01*
X113998195Y-151033860D01*
X114001174Y-151035068D01*
X114001513Y-151033663D01*
X113999076Y-151032753D01*
X114003521Y-151020856D01*
X114004788Y-151017604D01*
X114009568Y-151005817D01*
X114012077Y-151006835D01*
X114012790Y-151005572D01*
X114009668Y-151004406D01*
X114086233Y-150799481D01*
X114089345Y-150800644D01*
X114089619Y-150799354D01*
X114087009Y-150798453D01*
X114091257Y-150786151D01*
X114092324Y-150783180D01*
X114096870Y-150771012D01*
X114099527Y-150772005D01*
X114100143Y-150770840D01*
X114096927Y-150769729D01*
X114160909Y-150584425D01*
X114164151Y-150585544D01*
X114164364Y-150584408D01*
X114161570Y-150583512D01*
X114165644Y-150570805D01*
X114166497Y-150568241D01*
X114170877Y-150555557D01*
X114170877Y-150555555D01*
X114170878Y-150555552D01*
X114173699Y-150556526D01*
X114174216Y-150555486D01*
X114170898Y-150554422D01*
X114223420Y-150390638D01*
X114226719Y-150391696D01*
X114226899Y-150390611D01*
X114224028Y-150389756D01*
X114227880Y-150376819D01*
X114228659Y-150374300D01*
X114232766Y-150361493D01*
X114235669Y-150362424D01*
X114236136Y-150361429D01*
X114232762Y-150360424D01*
X114289603Y-150169525D01*
X114293148Y-150170581D01*
X114293260Y-150169825D01*
X114290015Y-150168909D01*
X114293915Y-150155084D01*
X114294386Y-150153461D01*
X114298353Y-150140140D01*
X114298432Y-150139874D01*
X114298432Y-150139873D01*
X114301663Y-150140835D01*
X114301972Y-150140140D01*
X114298414Y-150139136D01*
X114328102Y-150033892D01*
X114332075Y-150035013D01*
X114332100Y-150034836D01*
X114328197Y-150033749D01*
X114332389Y-150018693D01*
X114336655Y-150003572D01*
X114336655Y-150003569D01*
X114340451Y-150004640D01*
X114340520Y-150004477D01*
X114336648Y-150003399D01*
X114412109Y-149732406D01*
X114416187Y-149733541D01*
X114416188Y-149733533D01*
X114412114Y-149732399D01*
X114416346Y-149717190D01*
X114416353Y-149717165D01*
X114420604Y-149701900D01*
X114424388Y-149702954D01*
X114424392Y-149702945D01*
X114420604Y-149701891D01*
X114493401Y-149440294D01*
X114497327Y-149441386D01*
X114497329Y-149441365D01*
X114493412Y-149440276D01*
X114497865Y-149424254D01*
X114497875Y-149424215D01*
X114501888Y-149409794D01*
X114506030Y-149410946D01*
X114506036Y-149410930D01*
X114501887Y-149409777D01*
X114572110Y-149157090D01*
X114574239Y-149157682D01*
X114574240Y-149157651D01*
X114572126Y-149157065D01*
X114576519Y-149141224D01*
X114576537Y-149141159D01*
X114580584Y-149126596D01*
X114584487Y-149127681D01*
X114584498Y-149127655D01*
X114580583Y-149126569D01*
X114648275Y-148882467D01*
X114650942Y-148883207D01*
X114650945Y-148883167D01*
X114648296Y-148882435D01*
X114652163Y-148868451D01*
X114652186Y-148868365D01*
X114656728Y-148851985D01*
X114660682Y-148853082D01*
X114660699Y-148853041D01*
X114656726Y-148851943D01*
X114721928Y-148616117D01*
X114726151Y-148617284D01*
X114726157Y-148617229D01*
X114721957Y-148616072D01*
X114726141Y-148600878D01*
X114730355Y-148585636D01*
X114734172Y-148586691D01*
X114734194Y-148586642D01*
X114730353Y-148585584D01*
X114793108Y-148357710D01*
X114797157Y-148358825D01*
X114797166Y-148358758D01*
X114793143Y-148357656D01*
X114797272Y-148342588D01*
X114797315Y-148342431D01*
X114801501Y-148327232D01*
X114805384Y-148328301D01*
X114805409Y-148328240D01*
X114801498Y-148327168D01*
X114861854Y-148106926D01*
X114865657Y-148107968D01*
X114865668Y-148107888D01*
X114861897Y-148106861D01*
X114865988Y-148091842D01*
X114866039Y-148091654D01*
X114870205Y-148076452D01*
X114874140Y-148077530D01*
X114874172Y-148077455D01*
X114870201Y-148076373D01*
X114928201Y-147863445D01*
X114932167Y-147864525D01*
X114932180Y-147864430D01*
X114928253Y-147863368D01*
X114932329Y-147848295D01*
X114932389Y-147848072D01*
X114936502Y-147832972D01*
X114940320Y-147834012D01*
X114940357Y-147833923D01*
X114936498Y-147832879D01*
X114992187Y-147626945D01*
X114996014Y-147627980D01*
X114996030Y-147627865D01*
X114992248Y-147626851D01*
X114996317Y-147611675D01*
X114996387Y-147611414D01*
X115000428Y-147596471D01*
X115004252Y-147597505D01*
X115004295Y-147597401D01*
X115000423Y-147596363D01*
X115053849Y-147397102D01*
X115057844Y-147398173D01*
X115057861Y-147398039D01*
X115053919Y-147396992D01*
X115057862Y-147382140D01*
X115057942Y-147381837D01*
X115062020Y-147366629D01*
X115065893Y-147367668D01*
X115065943Y-147367545D01*
X115062013Y-147366502D01*
X115113225Y-147173599D01*
X115117061Y-147174617D01*
X115117080Y-147174468D01*
X115113303Y-147173477D01*
X115117278Y-147158330D01*
X115117371Y-147157979D01*
X115121316Y-147143121D01*
X115125127Y-147144133D01*
X115125183Y-147143995D01*
X115121307Y-147142978D01*
X115170348Y-146956112D01*
X115174374Y-146957168D01*
X115174393Y-146956999D01*
X115170436Y-146955974D01*
X115174349Y-146940869D01*
X115174450Y-146940485D01*
X115178348Y-146925631D01*
X115182128Y-146926623D01*
X115182192Y-146926466D01*
X115178338Y-146925468D01*
X115225258Y-146744322D01*
X115229170Y-146745335D01*
X115229193Y-146745146D01*
X115225356Y-146744167D01*
X115229216Y-146729042D01*
X115233154Y-146713837D01*
X115233154Y-146713834D01*
X115236948Y-146714817D01*
X115237018Y-146714641D01*
X115233143Y-146713652D01*
X115277990Y-146537907D01*
X115281848Y-146538892D01*
X115281873Y-146538680D01*
X115278099Y-146537733D01*
X115281858Y-146522753D01*
X115281981Y-146522267D01*
X115285771Y-146507414D01*
X115289535Y-146508374D01*
X115289614Y-146508177D01*
X115285758Y-146507210D01*
X115328581Y-146336544D01*
X115332521Y-146337533D01*
X115332547Y-146337301D01*
X115328699Y-146336354D01*
X115328700Y-146336353D01*
X115332408Y-146321293D01*
X115336235Y-146306042D01*
X115336235Y-146306040D01*
X115340005Y-146306986D01*
X115340090Y-146306768D01*
X115336219Y-146305815D01*
X115377101Y-146139784D01*
X115380924Y-146140725D01*
X115380965Y-146140332D01*
X115377300Y-146139459D01*
X115380742Y-146125014D01*
X115380965Y-146124092D01*
X115384582Y-146109404D01*
X115388196Y-146110294D01*
X115388341Y-146109920D01*
X115384554Y-146109017D01*
X115467838Y-145759539D01*
X115471521Y-145760417D01*
X115471577Y-145759815D01*
X115468136Y-145759037D01*
X115468137Y-145759036D01*
X115471365Y-145744764D01*
X115471631Y-145743623D01*
X115475044Y-145729300D01*
X115475044Y-145729298D01*
X115478463Y-145730113D01*
X115478679Y-145729544D01*
X115474997Y-145728711D01*
X115550645Y-145394288D01*
X115554311Y-145395117D01*
X115554367Y-145394417D01*
X115550985Y-145393699D01*
X115553969Y-145379646D01*
X115554325Y-145378020D01*
X115557312Y-145364815D01*
X115557483Y-145364058D01*
X115560832Y-145364815D01*
X115561074Y-145364154D01*
X115557422Y-145363379D01*
X115625747Y-145041576D01*
X115629331Y-145042337D01*
X115629384Y-145041552D01*
X115626119Y-145040910D01*
X115628861Y-145026973D01*
X115629221Y-145025210D01*
X115632167Y-145011337D01*
X115632167Y-145011335D01*
X115635446Y-145012031D01*
X115635706Y-145011290D01*
X115632087Y-145010578D01*
X115693424Y-144698854D01*
X115696984Y-144699554D01*
X115697028Y-144698688D01*
X115693822Y-144698112D01*
X115696299Y-144684331D01*
X115696683Y-144682294D01*
X115699378Y-144668598D01*
X115702585Y-144669229D01*
X115702859Y-144668409D01*
X115699277Y-144667765D01*
X115753952Y-144363585D01*
X115757457Y-144364215D01*
X115757489Y-144363285D01*
X115754365Y-144362780D01*
X115756572Y-144349119D01*
X115756946Y-144346923D01*
X115759394Y-144333304D01*
X115762554Y-144333872D01*
X115762836Y-144332980D01*
X115759272Y-144332404D01*
X115807603Y-144033251D01*
X115811077Y-144033812D01*
X115811093Y-144032832D01*
X115808021Y-144032394D01*
X115809957Y-144018817D01*
X115810307Y-144016510D01*
X115810978Y-144012355D01*
X115812502Y-144002922D01*
X115815630Y-144003427D01*
X115815909Y-144002485D01*
X115812357Y-144001979D01*
X115854652Y-143705328D01*
X115858140Y-143705825D01*
X115858138Y-143704822D01*
X115855064Y-143704443D01*
X115856735Y-143690885D01*
X115857050Y-143688516D01*
X115858986Y-143674935D01*
X115862099Y-143675379D01*
X115862367Y-143674410D01*
X115858819Y-143673973D01*
X115897126Y-143363107D01*
X115897211Y-143362434D01*
X115952447Y-142933245D01*
X115952926Y-142929881D01*
X116022608Y-142483802D01*
X116023100Y-142480877D01*
X116026228Y-142463543D01*
X116106919Y-142016314D01*
X116107408Y-142013755D01*
X116111798Y-141992013D01*
X116204619Y-141532239D01*
X116205096Y-141529982D01*
X116314995Y-141032765D01*
X116315455Y-141030762D01*
X116365841Y-140819233D01*
X116437284Y-140519304D01*
X116437682Y-140517686D01*
X116570757Y-139993090D01*
X116571174Y-139991491D01*
X116714710Y-139455271D01*
X116715105Y-139453832D01*
X116868361Y-138907293D01*
X116868733Y-138905994D01*
X117031015Y-138350273D01*
X117031326Y-138349227D01*
X117201852Y-137785758D01*
X117202181Y-137784688D01*
X117380239Y-137214652D01*
X117380548Y-137213676D01*
X117565362Y-136638476D01*
X117565652Y-136637585D01*
X117756489Y-136058468D01*
X117756761Y-136057652D01*
X117952929Y-135475752D01*
X117953184Y-135475005D01*
X118153878Y-134891780D01*
X118154116Y-134891093D01*
X118358693Y-134307541D01*
X118358916Y-134306912D01*
X118566452Y-133724816D01*
X118566659Y-133724238D01*
X118776669Y-133144159D01*
X118776862Y-133143629D01*
X118801900Y-133075425D01*
X118988446Y-132567277D01*
X119201125Y-131995215D01*
X119413750Y-131429811D01*
X119625894Y-130871499D01*
X119836625Y-130322047D01*
X120045233Y-129782645D01*
X120067637Y-129725142D01*
X120250888Y-129254787D01*
X120250988Y-129254531D01*
X120452995Y-128739357D01*
X120453081Y-128739138D01*
X120651195Y-128236657D01*
X120651267Y-128236476D01*
X120843846Y-127750242D01*
X120843902Y-127750100D01*
X121030731Y-127280047D01*
X121030770Y-127279948D01*
X121211490Y-126826380D01*
X121211511Y-126826328D01*
X121384357Y-126393088D01*
X121384463Y-126392823D01*
X121570144Y-125930454D01*
X121570365Y-125929908D01*
X121774985Y-125427181D01*
X121775230Y-125426583D01*
X121800542Y-125365297D01*
X121999660Y-124883191D01*
X122243893Y-124300982D01*
X122244181Y-124300303D01*
X122508268Y-123680952D01*
X122508574Y-123680239D01*
X122793094Y-123024184D01*
X122793418Y-123023443D01*
X122823695Y-122954841D01*
X123098699Y-122331722D01*
X123099041Y-122330954D01*
X123425258Y-121604942D01*
X123425618Y-121604149D01*
X123456635Y-121536377D01*
X123773136Y-120844809D01*
X123773493Y-120844037D01*
X124142478Y-120052759D01*
X124142872Y-120051922D01*
X124533672Y-119229690D01*
X124534084Y-119228830D01*
X124569129Y-119156513D01*
X124947205Y-118376331D01*
X124947595Y-118375536D01*
X124990774Y-118288172D01*
X125382928Y-117494712D01*
X125383377Y-117493813D01*
X125841449Y-116585295D01*
X125841917Y-116584376D01*
X126322892Y-115649537D01*
X126323379Y-115648600D01*
X126371603Y-115556771D01*
X126827719Y-114688231D01*
X126828198Y-114687328D01*
X127356054Y-113702816D01*
X127356582Y-113701841D01*
X127408485Y-113607049D01*
X127908271Y-112694259D01*
X127908820Y-112693267D01*
X128125310Y-112306190D01*
X128484679Y-111663653D01*
X128485209Y-111662715D01*
X128533256Y-111578637D01*
X129085400Y-110612418D01*
X129085969Y-110611433D01*
X129136088Y-110525616D01*
X129710887Y-109541395D01*
X129711499Y-109540359D01*
X130361386Y-108451779D01*
X130362028Y-108450717D01*
X131037136Y-107344785D01*
X131037749Y-107343790D01*
X131738463Y-106221471D01*
X131739155Y-106220376D01*
X132465611Y-105083037D01*
X132466330Y-105081924D01*
X133218964Y-103930463D01*
X133219710Y-103929335D01*
X133284655Y-103832268D01*
X133998741Y-102764982D01*
X133999516Y-102763837D01*
X134278917Y-102355991D01*
X134805278Y-101587653D01*
X134805892Y-101586766D01*
X135638776Y-100399732D01*
X135639440Y-100398797D01*
X136499469Y-99202417D01*
X136500302Y-99201272D01*
X136577115Y-99097010D01*
X137387770Y-97996660D01*
X137388658Y-97995470D01*
X138304375Y-96783051D01*
X138304748Y-96782560D01*
X138545136Y-96468382D01*
X138545190Y-96468311D01*
X138787733Y-96151785D01*
X138787820Y-96151672D01*
X138871539Y-96042671D01*
X139032122Y-95833595D01*
X139278669Y-95513611D01*
X139278873Y-95513462D01*
X139278817Y-95513419D01*
X139528569Y-95190560D01*
X139528630Y-95190607D01*
X139528747Y-95190331D01*
X139780707Y-94866167D01*
X139780913Y-94865901D01*
X140036340Y-94539079D01*
X140036575Y-94538780D01*
X140294870Y-94210339D01*
X140295133Y-94210006D01*
X140402981Y-94073816D01*
X140557071Y-93879230D01*
X140557360Y-93878866D01*
X140823425Y-93545411D01*
X140823740Y-93545018D01*
X141093694Y-93209448D01*
X141094034Y-93209027D01*
X141368266Y-92871123D01*
X141368630Y-92870677D01*
X141647609Y-92530117D01*
X141647996Y-92529647D01*
X141931698Y-92186715D01*
X141932108Y-92186222D01*
X142220963Y-91840656D01*
X142221394Y-91840143D01*
X142515622Y-91491930D01*
X142516073Y-91491399D01*
X142815969Y-91140436D01*
X142816441Y-91139887D01*
X143122150Y-90786249D01*
X143122639Y-90785687D01*
X143247497Y-90642970D01*
X143434635Y-90429065D01*
X143434902Y-90428762D01*
X143587749Y-90256185D01*
X143753242Y-90069332D01*
X143753766Y-90068745D01*
X144078749Y-89706399D01*
X144079289Y-89705801D01*
X144411017Y-89340658D01*
X144411571Y-89340052D01*
X144750573Y-88971753D01*
X144751140Y-88971141D01*
X145097460Y-88599860D01*
X145098040Y-88599242D01*
X145452174Y-88224666D01*
X145452766Y-88224044D01*
X145814883Y-87846215D01*
X145815212Y-87845875D01*
X146185599Y-87464708D01*
X146186082Y-87464214D01*
X146564802Y-87079851D01*
X146565423Y-87079225D01*
X146952746Y-86691595D01*
X146953375Y-86690970D01*
X147349680Y-86299894D01*
X147350316Y-86299271D01*
X147755903Y-85904652D01*
X147756545Y-85904032D01*
X147917328Y-85749799D01*
X148171465Y-85506014D01*
X148172027Y-85505480D01*
X148422057Y-85269327D01*
X148670619Y-85034560D01*
X148671396Y-85033832D01*
X149167856Y-84572799D01*
X149168639Y-84572078D01*
X149663234Y-84120504D01*
X149664022Y-84119790D01*
X149816879Y-83982576D01*
X150156872Y-83677377D01*
X150157530Y-83676792D01*
X150648710Y-83243289D01*
X150649451Y-83242641D01*
X151139112Y-82817732D01*
X151139909Y-82817047D01*
X151627796Y-82400757D01*
X151628592Y-82400083D01*
X152115319Y-81991699D01*
X152116114Y-81991037D01*
X152601561Y-81590471D01*
X152602353Y-81589823D01*
X153086693Y-81196736D01*
X153087481Y-81196102D01*
X153269685Y-81050637D01*
X153570708Y-80810311D01*
X153571438Y-80809733D01*
X153782929Y-80643609D01*
X154053823Y-80430823D01*
X154054577Y-80430236D01*
X154536101Y-80058028D01*
X154536639Y-80057616D01*
X155017526Y-79691737D01*
X155018069Y-79691328D01*
X155498282Y-79331611D01*
X155499022Y-79331061D01*
X155978585Y-78977282D01*
X155979311Y-78976750D01*
X156458620Y-78628419D01*
X156459331Y-78627907D01*
X156938089Y-78285038D01*
X156938781Y-78284545D01*
X157417485Y-77946573D01*
X157418158Y-77946101D01*
X157653046Y-77782553D01*
X157896901Y-77612762D01*
X157897494Y-77612352D01*
X158123351Y-77457195D01*
X158376074Y-77283581D01*
X158376615Y-77283211D01*
X158855463Y-76958502D01*
X158855765Y-76958299D01*
X159334978Y-76637385D01*
X159335511Y-76637031D01*
X159814627Y-76320008D01*
X159815181Y-76319643D01*
X160118913Y-76120959D01*
X160295162Y-76005667D01*
X160295451Y-76005479D01*
X160775687Y-75694740D01*
X160776184Y-75694420D01*
X161257204Y-75386365D01*
X161257670Y-75386068D01*
X161523255Y-75217621D01*
X161739494Y-75080472D01*
X162222396Y-74776952D01*
X162706063Y-74475493D01*
X162706433Y-74475263D01*
X163190998Y-74175565D01*
X163191335Y-74175357D01*
X163676499Y-73877392D01*
X163677319Y-73876892D01*
X165881744Y-72546078D01*
X165883042Y-72545306D01*
X168081584Y-71253737D01*
X168082832Y-71253013D01*
X170272092Y-70000406D01*
X170273294Y-69999727D01*
X170570829Y-69833791D01*
X172448860Y-68786406D01*
X172450018Y-68785768D01*
X174607567Y-67611994D01*
X174608682Y-67611394D01*
X175502071Y-67136935D01*
X176744293Y-66477219D01*
X176745224Y-66476730D01*
X178854282Y-65382571D01*
X178855309Y-65382045D01*
X179219846Y-65197182D01*
X180933757Y-64328029D01*
X180934570Y-64327621D01*
X182978221Y-63313943D01*
X182979166Y-63313479D01*
X183362706Y-63127294D01*
X184983373Y-62340559D01*
X184984289Y-62340119D01*
X186945089Y-61408039D01*
X186945987Y-61407616D01*
X188859053Y-60516636D01*
X188859921Y-60516236D01*
X190721299Y-59666444D01*
X190722137Y-59666065D01*
X192078426Y-59058794D01*
X192527124Y-58857892D01*
X192527716Y-58857630D01*
X194272379Y-58091158D01*
X194273101Y-58090843D01*
X195953074Y-57366347D01*
X195953832Y-57366023D01*
X197564917Y-56683704D01*
X197565651Y-56683396D01*
X197917530Y-56536984D01*
X199103616Y-56043470D01*
X199103958Y-56043329D01*
X200564491Y-55446047D01*
X200565154Y-55445778D01*
X201943697Y-54891484D01*
X201944363Y-54891218D01*
X203237354Y-54379862D01*
X203238001Y-54379609D01*
X204440443Y-53911710D01*
X204440787Y-53911577D01*
X205548960Y-53487146D01*
X205549568Y-53486915D01*
X206558956Y-53106281D01*
X206559546Y-53106060D01*
X207048689Y-52924393D01*
X207466153Y-52769347D01*
X207466672Y-52769156D01*
X207964651Y-52586947D01*
X208266237Y-52476597D01*
X208266790Y-52476397D01*
X208954303Y-52228486D01*
X208954603Y-52228378D01*
X209527283Y-52024814D01*
X209527583Y-52024708D01*
X209980148Y-51866078D01*
X210308666Y-51752496D01*
X210308938Y-51752403D01*
X210508537Y-51684304D01*
X210508806Y-51684212D01*
X210576587Y-51661361D01*
X211355633Y-51399630D01*
X211356043Y-51399493D01*
X212151354Y-51135407D01*
X212151783Y-51135265D01*
X212962683Y-50869227D01*
X212963121Y-50869085D01*
X213789574Y-50601285D01*
X213790020Y-50601141D01*
X214632316Y-50331667D01*
X214632771Y-50331522D01*
X215490927Y-50060553D01*
X215491390Y-50060408D01*
X216088765Y-49874309D01*
X216365001Y-49788254D01*
X216609827Y-49713033D01*
X217254411Y-49514991D01*
X217254890Y-49514845D01*
X218158922Y-49241015D01*
X218159408Y-49240868D01*
X219079214Y-48966306D01*
X219079708Y-48966160D01*
X220014236Y-48691361D01*
X220014738Y-48691214D01*
X220964523Y-48416203D01*
X220965032Y-48416057D01*
X221930274Y-48140965D01*
X221930791Y-48140819D01*
X222910326Y-47866161D01*
X222910850Y-47866015D01*
X223905626Y-47591707D01*
X223906157Y-47591562D01*
X224122807Y-47532839D01*
X224915879Y-47317875D01*
X225656522Y-47120634D01*
X225940331Y-47045053D01*
X225940876Y-47044909D01*
X226979683Y-46773237D01*
X226980236Y-46773094D01*
X228033330Y-46502774D01*
X228033889Y-46502631D01*
X228787870Y-46312767D01*
X229101942Y-46233679D01*
X229102128Y-46233633D01*
X230184460Y-45966409D01*
X230184916Y-45966298D01*
X231281553Y-45700984D01*
X231281770Y-45700932D01*
X231788533Y-45580864D01*
X232392698Y-45437720D01*
X232393285Y-45437583D01*
X233517907Y-45176801D01*
X233518500Y-45176665D01*
X233776528Y-45118145D01*
X234657105Y-44918431D01*
X234657421Y-44918360D01*
X235081878Y-44824271D01*
X235810230Y-44662817D01*
X235810836Y-44662684D01*
X236977422Y-44410115D01*
X236978036Y-44409984D01*
X238158223Y-44160619D01*
X238158843Y-44160489D01*
X239353003Y-43914436D01*
X239353630Y-43914309D01*
X240313569Y-43721593D01*
X240561074Y-43671904D01*
X240561659Y-43671788D01*
X241783078Y-43433086D01*
X241783371Y-43433029D01*
X242751602Y-43249002D01*
X242822258Y-43255933D01*
G37*
%TD.AperFunction*%
M02*
