G04 #@! TF.GenerationSoftware,KiCad,Pcbnew,(6.0.2)*
G04 #@! TF.CreationDate,2022-04-01T18:40:44-07:00*
G04 #@! TF.ProjectId,DaftPunkTopLayerRightBoard,44616674-5075-46e6-9b54-6f704c617965,rev?*
G04 #@! TF.SameCoordinates,Original*
G04 #@! TF.FileFunction,Copper,L1,Top*
G04 #@! TF.FilePolarity,Positive*
%FSLAX46Y46*%
G04 Gerber Fmt 4.6, Leading zero omitted, Abs format (unit mm)*
G04 Created by KiCad (PCBNEW (6.0.2)) date 2022-04-01 18:40:44*
%MOMM*%
%LPD*%
G01*
G04 APERTURE LIST*
G04 APERTURE END LIST*
G04 #@! TA.AperFunction,NonConductor*
G36*
X288082292Y-76484353D02*
G01*
X288146740Y-76539502D01*
X288146772Y-76539530D01*
X288174410Y-76563353D01*
X288295388Y-76667631D01*
X288337886Y-76704263D01*
X288337918Y-76704291D01*
X288531177Y-76872108D01*
X288531210Y-76872136D01*
X288664167Y-76988453D01*
X288726847Y-77043289D01*
X288726880Y-77043318D01*
X288924387Y-77217422D01*
X288924420Y-77217452D01*
X289123972Y-77394711D01*
X289124006Y-77394741D01*
X289242194Y-77500543D01*
X289325550Y-77575164D01*
X289529082Y-77758803D01*
X289730455Y-77941942D01*
X289734136Y-77945290D01*
X289734171Y-77945322D01*
X289941437Y-78135341D01*
X289941471Y-78135373D01*
X290150250Y-78328341D01*
X290150286Y-78328374D01*
X290215661Y-78389296D01*
X290361011Y-78524747D01*
X290361046Y-78524780D01*
X290573149Y-78724088D01*
X290573185Y-78724121D01*
X290786900Y-78926634D01*
X290786935Y-78926668D01*
X290897338Y-79032175D01*
X291002378Y-79132557D01*
X291127494Y-79253153D01*
X291219167Y-79341515D01*
X291219203Y-79341550D01*
X291437395Y-79553692D01*
X291437432Y-79553728D01*
X291657153Y-79769233D01*
X291657189Y-79769269D01*
X291878139Y-79987905D01*
X291878177Y-79987942D01*
X292100472Y-80209882D01*
X292100509Y-80209920D01*
X292323967Y-80435041D01*
X292324004Y-80435079D01*
X292548683Y-80663507D01*
X292548721Y-80663545D01*
X292774498Y-80895209D01*
X293001329Y-81130127D01*
X293154491Y-81290245D01*
X293229012Y-81368151D01*
X293229050Y-81368191D01*
X293374817Y-81522030D01*
X293457925Y-81609741D01*
X293687709Y-81854583D01*
X293918251Y-82102620D01*
X294109976Y-82310827D01*
X294341621Y-82565065D01*
X294611139Y-82864657D01*
X294755236Y-83026506D01*
X294759127Y-83030876D01*
X294759155Y-83030908D01*
X294915925Y-83208301D01*
X294915955Y-83208335D01*
X295068601Y-83382395D01*
X295081343Y-83396925D01*
X295140834Y-83465301D01*
X295254656Y-83596124D01*
X295254687Y-83596160D01*
X295436241Y-83806550D01*
X295436273Y-83806587D01*
X295625207Y-84027379D01*
X295625239Y-84027417D01*
X295769387Y-84197330D01*
X295821648Y-84258932D01*
X296025084Y-84500864D01*
X296235339Y-84753179D01*
X296452379Y-85016061D01*
X296510117Y-85086660D01*
X296675693Y-85289120D01*
X296675728Y-85289163D01*
X296905132Y-85572400D01*
X296905167Y-85572444D01*
X297140333Y-85865684D01*
X297140369Y-85865729D01*
X297326570Y-86100273D01*
X297381235Y-86169131D01*
X297627472Y-86482522D01*
X297842176Y-86758679D01*
X297878544Y-86805457D01*
X297878581Y-86805505D01*
X298134573Y-87138336D01*
X298134611Y-87138385D01*
X298395105Y-87480820D01*
X298395143Y-87480871D01*
X298659946Y-87832907D01*
X298659985Y-87832958D01*
X298862709Y-88105579D01*
X298928875Y-88194559D01*
X298928914Y-88194612D01*
X299201429Y-88565414D01*
X299201468Y-88565468D01*
X299477513Y-88945601D01*
X299477553Y-88945656D01*
X299756985Y-89335200D01*
X299757025Y-89335257D01*
X300039215Y-89733599D01*
X300039256Y-89733656D01*
X300324410Y-90141371D01*
X300612007Y-90557994D01*
X300760325Y-90775534D01*
X300827797Y-90874497D01*
X300827841Y-90874562D01*
X301054091Y-91211226D01*
X301054130Y-91211284D01*
X301172122Y-91389144D01*
X301172150Y-91389187D01*
X301293716Y-91574182D01*
X301293745Y-91574226D01*
X301419461Y-91767448D01*
X301419491Y-91767494D01*
X301549742Y-91969736D01*
X301549771Y-91969782D01*
X301608120Y-92061328D01*
X301684827Y-92181676D01*
X301766420Y-92311030D01*
X301824941Y-92403808D01*
X301824970Y-92403854D01*
X301970780Y-92637425D01*
X301970808Y-92637471D01*
X302066041Y-92791593D01*
X302122353Y-92882726D01*
X302208480Y-93023518D01*
X302280340Y-93140989D01*
X302280366Y-93141032D01*
X302444910Y-93412667D01*
X302444936Y-93412709D01*
X302616607Y-93698819D01*
X302795490Y-93999711D01*
X302922478Y-94215215D01*
X302982014Y-94316251D01*
X302982036Y-94316289D01*
X303176704Y-94649485D01*
X303176725Y-94649521D01*
X303380055Y-95000405D01*
X303380075Y-95000439D01*
X303592215Y-95369413D01*
X303592234Y-95369446D01*
X303813204Y-95756669D01*
X303813222Y-95756700D01*
X304044122Y-96164231D01*
X304044118Y-96164233D01*
X304044139Y-96164260D01*
X304208556Y-96456437D01*
X304284691Y-96591733D01*
X304284707Y-96591762D01*
X304389225Y-96778708D01*
X304535749Y-97040790D01*
X304797182Y-97511311D01*
X305062239Y-97991172D01*
X305069742Y-98004756D01*
X305069745Y-98004785D01*
X305069755Y-98004780D01*
X305353862Y-98522027D01*
X305353875Y-98522050D01*
X305649194Y-99062587D01*
X305649191Y-99062589D01*
X305649206Y-99062609D01*
X305956995Y-99628838D01*
X305957007Y-99628859D01*
X306277248Y-100220848D01*
X306277245Y-100220849D01*
X306277258Y-100220867D01*
X306406895Y-100461614D01*
X306610185Y-100839144D01*
X306610187Y-100839167D01*
X306610195Y-100839163D01*
X306956329Y-101484783D01*
X306956336Y-101484796D01*
X307125111Y-101800580D01*
X307125110Y-101800581D01*
X307125116Y-101800589D01*
X307296945Y-102122735D01*
X307296950Y-102122744D01*
X307471937Y-102451490D01*
X307471942Y-102451499D01*
X307649623Y-102786006D01*
X307649628Y-102786015D01*
X307809948Y-103088485D01*
X307830409Y-103127089D01*
X307971758Y-103394351D01*
X308014016Y-103474253D01*
X308014021Y-103474263D01*
X308043944Y-103530967D01*
X308200440Y-103827532D01*
X308389220Y-104186082D01*
X308581163Y-104551479D01*
X308775784Y-104922842D01*
X308924543Y-105207367D01*
X308973100Y-105300241D01*
X308973101Y-105300253D01*
X308973105Y-105300251D01*
X309172824Y-105683168D01*
X309172823Y-105683169D01*
X309172829Y-105683177D01*
X309334602Y-105994103D01*
X309375133Y-106072003D01*
X309375134Y-106072015D01*
X309375138Y-106072013D01*
X309580408Y-106467514D01*
X309580407Y-106467515D01*
X309580414Y-106467525D01*
X309787579Y-106867689D01*
X309787585Y-106867700D01*
X309997664Y-107274525D01*
X309997663Y-107274526D01*
X309997669Y-107274534D01*
X310103819Y-107480630D01*
X310209968Y-107686724D01*
X310209974Y-107686735D01*
X310424852Y-108105024D01*
X310424858Y-108105035D01*
X310641717Y-108528305D01*
X310641723Y-108528316D01*
X310861305Y-108958052D01*
X310861311Y-108958064D01*
X311082961Y-109393025D01*
X311082966Y-109393036D01*
X311259230Y-109739890D01*
X311306674Y-109833250D01*
X311532606Y-110279080D01*
X311731954Y-110673563D01*
X311760678Y-110730405D01*
X311760684Y-110730417D01*
X311990891Y-111187271D01*
X311990892Y-111187285D01*
X311990897Y-111187283D01*
X312223185Y-111649599D01*
X312223191Y-111649611D01*
X312457523Y-112117359D01*
X312457529Y-112117372D01*
X312622741Y-112448126D01*
X312693668Y-112590122D01*
X312924037Y-113052703D01*
X312931935Y-113068563D01*
X312931941Y-113068576D01*
X313171979Y-113552034D01*
X313171986Y-113552047D01*
X313413735Y-114040443D01*
X313608763Y-114435668D01*
X313655468Y-114530317D01*
X313655865Y-114531214D01*
X313659934Y-114541576D01*
X313660516Y-114542284D01*
X313660517Y-114542285D01*
X313661798Y-114543842D01*
X313663254Y-114546097D01*
X313664554Y-114548731D01*
X313665198Y-114549392D01*
X313665199Y-114549393D01*
X313672333Y-114556713D01*
X313672990Y-114557446D01*
X313892255Y-114823979D01*
X313892302Y-114824036D01*
X314116433Y-115100021D01*
X314116481Y-115100080D01*
X314342358Y-115381900D01*
X314342405Y-115381960D01*
X314462368Y-115533655D01*
X314567396Y-115666465D01*
X314569867Y-115669590D01*
X314569915Y-115669651D01*
X314798919Y-115963223D01*
X314798968Y-115963285D01*
X315029574Y-116263062D01*
X315029622Y-116263126D01*
X315261230Y-116568516D01*
X315261279Y-116568581D01*
X315494155Y-116880124D01*
X315494205Y-116880190D01*
X315728149Y-117197817D01*
X315728198Y-117197885D01*
X315868796Y-117391667D01*
X315962873Y-117521331D01*
X316198388Y-117850949D01*
X316434359Y-118186402D01*
X316670936Y-118528111D01*
X316840402Y-118776884D01*
X316907744Y-118875742D01*
X316907794Y-118875816D01*
X317144617Y-119229263D01*
X317144667Y-119229339D01*
X317381668Y-119589055D01*
X317381718Y-119589132D01*
X317557219Y-119860114D01*
X317618518Y-119954763D01*
X317855223Y-120326698D01*
X318091458Y-120704575D01*
X318327193Y-121088576D01*
X318562211Y-121478577D01*
X318796513Y-121874817D01*
X319029864Y-122277145D01*
X319262113Y-122685546D01*
X319493193Y-123100156D01*
X319722921Y-123520904D01*
X319951099Y-123947681D01*
X320046851Y-124130661D01*
X320177676Y-124380664D01*
X320177725Y-124380757D01*
X320402506Y-124819837D01*
X320402553Y-124819932D01*
X320516182Y-125046933D01*
X320625463Y-125265248D01*
X320827798Y-125678853D01*
X320846349Y-125716775D01*
X320846396Y-125716872D01*
X321065136Y-126174658D01*
X321065173Y-126174737D01*
X321198935Y-126460172D01*
X321198964Y-126460233D01*
X321330371Y-126744880D01*
X321330360Y-126744885D01*
X321330398Y-126744940D01*
X321437775Y-126981063D01*
X321459300Y-127028398D01*
X321459302Y-127028469D01*
X321459327Y-127028458D01*
X321585700Y-127310586D01*
X321585726Y-127310646D01*
X321709710Y-127591667D01*
X321709737Y-127591727D01*
X321831341Y-127871576D01*
X321831330Y-127871581D01*
X321831366Y-127871635D01*
X321950613Y-128150281D01*
X321950614Y-128150350D01*
X321950638Y-128150340D01*
X322067424Y-128427444D01*
X322067448Y-128427503D01*
X322111073Y-128532619D01*
X322182049Y-128703637D01*
X322294342Y-128978414D01*
X322404311Y-129251703D01*
X322404334Y-129251762D01*
X322512064Y-129523680D01*
X322512087Y-129523737D01*
X322617502Y-129793996D01*
X322617524Y-129794054D01*
X322720919Y-130063316D01*
X322720941Y-130063373D01*
X322821977Y-130330664D01*
X322821999Y-130330721D01*
X322921089Y-130597033D01*
X322921109Y-130597089D01*
X323017905Y-130861393D01*
X323017926Y-130861450D01*
X323112726Y-131124457D01*
X323112746Y-131124512D01*
X323205463Y-131385884D01*
X323205482Y-131385940D01*
X323268097Y-131565306D01*
X323296164Y-131645707D01*
X323384854Y-131903896D01*
X323464365Y-132139144D01*
X323471479Y-132160193D01*
X323471497Y-132160247D01*
X323556151Y-132414811D01*
X323556169Y-132414865D01*
X323638961Y-132667930D01*
X323638978Y-132667984D01*
X323719839Y-132919235D01*
X323719856Y-132919288D01*
X323798760Y-133168527D01*
X323798777Y-133168579D01*
X323875912Y-133416291D01*
X323875928Y-133416344D01*
X323923103Y-133570382D01*
X323951187Y-133662083D01*
X324024021Y-133903904D01*
X324024599Y-133905824D01*
X324024614Y-133905875D01*
X324096267Y-134147793D01*
X324096282Y-134147844D01*
X324166148Y-134387732D01*
X324166163Y-134387783D01*
X324233982Y-134624616D01*
X324234069Y-134624937D01*
X324326692Y-134986959D01*
X324419128Y-135352078D01*
X324502641Y-135685488D01*
X324510914Y-135718518D01*
X324510909Y-135718550D01*
X324510921Y-135718547D01*
X324599531Y-136076150D01*
X324602053Y-136086330D01*
X324602060Y-136086359D01*
X324692672Y-136456080D01*
X324692679Y-136456109D01*
X324782574Y-136826996D01*
X324782581Y-136827025D01*
X324832121Y-137033732D01*
X324871868Y-137199581D01*
X324949541Y-137527392D01*
X324960376Y-137573122D01*
X324960383Y-137573152D01*
X325048236Y-137948237D01*
X325048243Y-137948266D01*
X325135541Y-138325380D01*
X325135532Y-138325382D01*
X325135548Y-138325410D01*
X325222047Y-138703540D01*
X325222054Y-138703570D01*
X325307881Y-139083320D01*
X325307888Y-139083350D01*
X325393004Y-139464587D01*
X325393011Y-139464617D01*
X325477399Y-139847313D01*
X325477391Y-139847315D01*
X325477406Y-139847343D01*
X325555119Y-140204240D01*
X325561033Y-140231401D01*
X325643831Y-140616528D01*
X325746659Y-141102097D01*
X325752073Y-141127664D01*
X325752065Y-141127707D01*
X325752081Y-141127704D01*
X325852907Y-141612184D01*
X325858080Y-141637043D01*
X325858088Y-141637083D01*
X325961922Y-142144877D01*
X325961930Y-142144917D01*
X326063595Y-142651049D01*
X326063603Y-142651089D01*
X326163146Y-143155695D01*
X326163154Y-143155734D01*
X326260622Y-143658946D01*
X326260610Y-143658948D01*
X326260629Y-143658985D01*
X326355951Y-144160320D01*
X326445284Y-144639063D01*
X326449165Y-144659864D01*
X326449156Y-144659906D01*
X326449172Y-144659903D01*
X326540350Y-145157930D01*
X326540357Y-145157969D01*
X326629496Y-145654350D01*
X326629503Y-145654389D01*
X326716597Y-146148971D01*
X326716585Y-146148973D01*
X326716604Y-146149010D01*
X326801703Y-146641966D01*
X326801710Y-146642004D01*
X326881906Y-147116011D01*
X326884858Y-147133460D01*
X326965996Y-147622952D01*
X327045256Y-148111147D01*
X327098345Y-148445122D01*
X327122521Y-148597214D01*
X327122527Y-148597252D01*
X327197837Y-149081277D01*
X327197843Y-149081315D01*
X327271331Y-149564029D01*
X327271319Y-149564031D01*
X327271337Y-149564067D01*
X327340936Y-150031486D01*
X327342920Y-150044813D01*
X327412677Y-150523963D01*
X327478859Y-150989097D01*
X327480604Y-151001364D01*
X327480594Y-151001403D01*
X327480609Y-151001401D01*
X327529514Y-151353222D01*
X327546648Y-151476488D01*
X327546653Y-151476525D01*
X327610956Y-151950243D01*
X327610961Y-151950280D01*
X327673471Y-152422075D01*
X327673459Y-152422077D01*
X327673476Y-152422112D01*
X327734188Y-152891779D01*
X327734193Y-152891816D01*
X327793220Y-153360079D01*
X327793225Y-153360115D01*
X327850475Y-153826068D01*
X327850479Y-153826105D01*
X327882784Y-154096004D01*
X327906069Y-154290553D01*
X327957302Y-154730192D01*
X327959948Y-154752902D01*
X327959952Y-154752938D01*
X328012186Y-155213584D01*
X328012175Y-155213622D01*
X328012190Y-155213620D01*
X328062755Y-155672179D01*
X328062743Y-155672180D01*
X328062759Y-155672213D01*
X328110318Y-156115988D01*
X328111333Y-156125460D01*
X328111385Y-156126126D01*
X328112797Y-156155339D01*
X328122739Y-156167718D01*
X328124151Y-156169476D01*
X328125707Y-156172019D01*
X328133116Y-156188570D01*
X328134722Y-156189493D01*
X328134723Y-156189494D01*
X328158438Y-156203121D01*
X328159021Y-156203478D01*
X328426316Y-156378605D01*
X328426390Y-156378661D01*
X328426439Y-156378722D01*
X328426628Y-156378846D01*
X328426629Y-156378846D01*
X328439321Y-156387125D01*
X328439336Y-156387146D01*
X328439341Y-156387138D01*
X328452782Y-156395944D01*
X328452857Y-156395964D01*
X328452954Y-156396018D01*
X328706825Y-156561613D01*
X328706910Y-156561678D01*
X328706956Y-156561736D01*
X328707140Y-156561856D01*
X328707142Y-156561857D01*
X328720070Y-156570252D01*
X328720066Y-156570258D01*
X328720090Y-156570265D01*
X328733335Y-156578905D01*
X328733409Y-156578925D01*
X328733503Y-156578976D01*
X328984429Y-156741933D01*
X328984517Y-156742000D01*
X328984563Y-156742056D01*
X328984742Y-156742172D01*
X328984745Y-156742174D01*
X328997649Y-156750518D01*
X328997668Y-156750530D01*
X329010795Y-156759055D01*
X329010799Y-156759057D01*
X329010979Y-156759174D01*
X329011051Y-156759194D01*
X329011146Y-156759245D01*
X329259088Y-156919562D01*
X329259167Y-156919622D01*
X329259215Y-156919681D01*
X329259400Y-156919800D01*
X329272501Y-156928235D01*
X329272520Y-156928247D01*
X329285483Y-156936629D01*
X329285486Y-156936631D01*
X329285666Y-156936747D01*
X329285737Y-156936766D01*
X329285828Y-156936815D01*
X329530736Y-157094489D01*
X329530817Y-157094550D01*
X329530862Y-157094606D01*
X329543934Y-157102986D01*
X329557348Y-157111622D01*
X329557419Y-157111641D01*
X329557514Y-157111692D01*
X329799327Y-157266709D01*
X329799410Y-157266772D01*
X329799457Y-157266828D01*
X329799638Y-157266944D01*
X329799640Y-157266945D01*
X329812888Y-157275401D01*
X329812903Y-157275422D01*
X329812908Y-157275414D01*
X329825978Y-157283793D01*
X329826046Y-157283811D01*
X329826139Y-157283861D01*
X330064833Y-157436229D01*
X330064906Y-157436284D01*
X330064952Y-157436340D01*
X330065127Y-157436451D01*
X330078096Y-157444695D01*
X330078115Y-157444707D01*
X330091326Y-157453141D01*
X330091331Y-157453144D01*
X330091507Y-157453256D01*
X330091578Y-157453275D01*
X330091665Y-157453321D01*
X330327174Y-157603026D01*
X330327253Y-157603085D01*
X330327300Y-157603142D01*
X330340734Y-157611646D01*
X330353890Y-157620009D01*
X330353959Y-157620027D01*
X330354044Y-157620072D01*
X330586331Y-157767117D01*
X330586409Y-157767175D01*
X330586454Y-157767229D01*
X330586968Y-157767553D01*
X330599692Y-157775575D01*
X330599710Y-157775586D01*
X330613076Y-157784047D01*
X330613143Y-157784064D01*
X330613235Y-157784113D01*
X330709135Y-157844570D01*
X330842248Y-157928487D01*
X330842319Y-157928541D01*
X330842364Y-157928595D01*
X330842534Y-157928702D01*
X330842537Y-157928704D01*
X330855623Y-157936920D01*
X330869019Y-157945365D01*
X330869087Y-157945382D01*
X330869171Y-157945426D01*
X331094869Y-158087134D01*
X331094943Y-158087189D01*
X331094985Y-158087239D01*
X331107898Y-158095314D01*
X331121672Y-158103962D01*
X331121739Y-158103979D01*
X331121832Y-158104028D01*
X331290824Y-158209702D01*
X331330604Y-158234577D01*
X331344147Y-158243046D01*
X331344224Y-158243103D01*
X331344267Y-158243154D01*
X331344430Y-158243256D01*
X331344432Y-158243257D01*
X331357392Y-158251329D01*
X331357409Y-158251340D01*
X331370814Y-158259722D01*
X331370987Y-158259830D01*
X331371055Y-158259847D01*
X331371139Y-158259891D01*
X331590042Y-158396231D01*
X331590119Y-158396287D01*
X331590163Y-158396340D01*
X331590332Y-158396445D01*
X331590335Y-158396447D01*
X331603732Y-158404758D01*
X331603749Y-158404769D01*
X331616747Y-158412864D01*
X331616914Y-158412968D01*
X331616979Y-158412984D01*
X331617059Y-158413026D01*
X331832506Y-158546683D01*
X331832584Y-158546740D01*
X331832626Y-158546789D01*
X331832788Y-158546889D01*
X331845986Y-158555045D01*
X331846002Y-158555056D01*
X331859238Y-158563266D01*
X331859409Y-158563372D01*
X331859474Y-158563388D01*
X331859556Y-158563430D01*
X332071491Y-158694394D01*
X332071567Y-158694449D01*
X332071609Y-158694500D01*
X332082446Y-158701171D01*
X332085002Y-158702744D01*
X332085020Y-158702755D01*
X332098258Y-158710936D01*
X332098261Y-158710938D01*
X332098422Y-158711037D01*
X332098486Y-158711053D01*
X332098564Y-158711092D01*
X332274346Y-158819297D01*
X332306952Y-158839368D01*
X332307021Y-158839418D01*
X332307063Y-158839467D01*
X332307222Y-158839564D01*
X332307224Y-158839566D01*
X332320293Y-158847580D01*
X332320310Y-158847590D01*
X332333747Y-158855862D01*
X332333752Y-158855864D01*
X332333907Y-158855960D01*
X332333968Y-158855975D01*
X332334054Y-158856019D01*
X332538825Y-158981587D01*
X332538899Y-158981641D01*
X332538940Y-158981688D01*
X332552236Y-158989811D01*
X332565813Y-158998136D01*
X332565875Y-158998151D01*
X332565958Y-158998193D01*
X332646957Y-159047674D01*
X332767080Y-159121056D01*
X332767153Y-159121109D01*
X332767194Y-159121157D01*
X332780758Y-159129412D01*
X332780774Y-159129423D01*
X332793935Y-159137463D01*
X332793944Y-159137468D01*
X332794097Y-159137561D01*
X332794158Y-159137576D01*
X332794237Y-159137616D01*
X332991662Y-159257773D01*
X332991735Y-159257826D01*
X332991775Y-159257872D01*
X332998733Y-159262091D01*
X333005301Y-159266074D01*
X333005313Y-159266090D01*
X333005317Y-159266084D01*
X333018707Y-159274233D01*
X333018765Y-159274247D01*
X333018849Y-159274289D01*
X333212528Y-159391732D01*
X333212598Y-159391782D01*
X333212638Y-159391828D01*
X333226053Y-159399933D01*
X333239599Y-159408147D01*
X333239659Y-159408161D01*
X333239734Y-159408199D01*
X333429630Y-159522929D01*
X333429697Y-159522977D01*
X333429734Y-159523020D01*
X333429875Y-159523105D01*
X333429878Y-159523107D01*
X333442747Y-159530854D01*
X333442763Y-159530864D01*
X333448030Y-159534046D01*
X333456723Y-159539298D01*
X333456785Y-159539312D01*
X333456860Y-159539350D01*
X333642912Y-159651357D01*
X333642978Y-159651404D01*
X333643015Y-159651447D01*
X333643154Y-159651530D01*
X333643159Y-159651534D01*
X333656203Y-159659359D01*
X333656247Y-159659385D01*
X333670031Y-159667683D01*
X333670089Y-159667696D01*
X333670167Y-159667735D01*
X333852331Y-159777014D01*
X333852394Y-159777059D01*
X333852433Y-159777104D01*
X333866063Y-159785252D01*
X333879477Y-159793299D01*
X333879532Y-159793312D01*
X333879608Y-159793350D01*
X334057840Y-159899897D01*
X334057905Y-159899943D01*
X334057941Y-159899984D01*
X334071225Y-159907898D01*
X334085012Y-159916140D01*
X334085068Y-159916152D01*
X334085142Y-159916189D01*
X334259387Y-160019998D01*
X334259455Y-160020046D01*
X334259491Y-160020087D01*
X334268050Y-160025169D01*
X334272953Y-160028081D01*
X334272967Y-160028089D01*
X334286589Y-160036204D01*
X334286642Y-160036216D01*
X334286719Y-160036254D01*
X334456930Y-160137319D01*
X334457000Y-160137368D01*
X334457035Y-160137408D01*
X334457174Y-160137490D01*
X334470827Y-160145570D01*
X334470825Y-160145573D01*
X334470839Y-160145577D01*
X334484159Y-160153486D01*
X334484214Y-160153498D01*
X334484275Y-160153528D01*
X334650437Y-160251861D01*
X334650490Y-160251898D01*
X334650527Y-160251941D01*
X334650668Y-160252024D01*
X334664225Y-160260021D01*
X334664236Y-160260036D01*
X334664240Y-160260030D01*
X334677677Y-160267982D01*
X334677726Y-160267993D01*
X334677799Y-160268029D01*
X334839819Y-160363601D01*
X334839883Y-160363646D01*
X334839917Y-160363685D01*
X334840048Y-160363762D01*
X334853545Y-160371698D01*
X334853560Y-160371707D01*
X334866956Y-160379610D01*
X334866962Y-160379613D01*
X334867091Y-160379689D01*
X334867141Y-160379700D01*
X334867205Y-160379731D01*
X334925759Y-160414161D01*
X335025077Y-160472561D01*
X335025124Y-160472594D01*
X335025159Y-160472634D01*
X335038500Y-160480455D01*
X335052358Y-160488603D01*
X335052410Y-160488614D01*
X335052473Y-160488645D01*
X335206123Y-160578712D01*
X335206168Y-160578744D01*
X335206203Y-160578784D01*
X335219970Y-160586829D01*
X335219978Y-160586841D01*
X335219981Y-160586836D01*
X335233427Y-160594718D01*
X335233476Y-160594729D01*
X335233535Y-160594757D01*
X335348173Y-160661754D01*
X335382915Y-160682058D01*
X335382972Y-160682098D01*
X335383003Y-160682132D01*
X335396121Y-160689776D01*
X335410250Y-160698033D01*
X335410299Y-160698044D01*
X335410367Y-160698077D01*
X335555430Y-160782604D01*
X335555520Y-160782666D01*
X335555569Y-160782721D01*
X335569298Y-160790684D01*
X335582783Y-160798542D01*
X335582857Y-160798558D01*
X335582945Y-160798600D01*
X335742686Y-160891257D01*
X335925313Y-160997189D01*
X335925424Y-160997265D01*
X335925488Y-160997336D01*
X335938944Y-161005095D01*
X335952686Y-161013066D01*
X335952780Y-161013086D01*
X335952907Y-161013147D01*
X336278039Y-161200626D01*
X336278143Y-161200697D01*
X336278202Y-161200762D01*
X336292139Y-161208756D01*
X336305462Y-161216438D01*
X336305545Y-161216456D01*
X336305655Y-161216508D01*
X336482721Y-161318065D01*
X336614183Y-161393466D01*
X336614272Y-161393526D01*
X336614322Y-161393581D01*
X336627745Y-161401244D01*
X336627765Y-161401256D01*
X336641309Y-161409024D01*
X336641642Y-161409215D01*
X336641719Y-161409231D01*
X336641809Y-161409273D01*
X336934350Y-161576287D01*
X336934412Y-161576329D01*
X336934454Y-161576376D01*
X336948026Y-161584096D01*
X336948039Y-161584112D01*
X336948043Y-161584105D01*
X336961835Y-161591979D01*
X336961895Y-161591991D01*
X336961977Y-161592030D01*
X337239126Y-161749665D01*
X337239178Y-161749701D01*
X337239207Y-161749732D01*
X337239315Y-161749793D01*
X337239319Y-161749796D01*
X337252955Y-161757530D01*
X337252968Y-161757537D01*
X337266649Y-161765319D01*
X337266692Y-161765328D01*
X337266746Y-161765353D01*
X337529146Y-161914194D01*
X337529169Y-161914210D01*
X337529187Y-161914229D01*
X337543516Y-161922345D01*
X337543521Y-161922348D01*
X337556632Y-161929785D01*
X337556635Y-161929786D01*
X337556689Y-161929817D01*
X337556710Y-161929821D01*
X337556742Y-161929836D01*
X337773352Y-162052523D01*
X337832561Y-162086059D01*
X337832562Y-162086059D01*
X337832565Y-162086060D01*
X338081702Y-162227170D01*
X338081710Y-162227174D01*
X338329964Y-162368021D01*
X338329979Y-162368030D01*
X338567238Y-162503127D01*
X338567258Y-162503153D01*
X338567264Y-162503142D01*
X338792521Y-162632160D01*
X338792558Y-162632181D01*
X339006610Y-162755807D01*
X339006603Y-162755820D01*
X339006658Y-162755835D01*
X339210097Y-162874642D01*
X339210159Y-162874678D01*
X339403657Y-162989286D01*
X339403734Y-162989332D01*
X339587949Y-163100350D01*
X339763138Y-163208141D01*
X339763212Y-163208188D01*
X340090474Y-163417353D01*
X340090722Y-163417516D01*
X340318065Y-163572228D01*
X340390136Y-163621274D01*
X340390476Y-163621515D01*
X340667253Y-163824678D01*
X340667637Y-163824972D01*
X340926927Y-164032325D01*
X340927305Y-164032642D01*
X341174214Y-164248980D01*
X341174584Y-164249320D01*
X341256583Y-164328081D01*
X341414319Y-164479588D01*
X341414671Y-164479941D01*
X341513564Y-164583603D01*
X341652317Y-164729048D01*
X341652627Y-164729386D01*
X341893373Y-165002431D01*
X341893593Y-165002688D01*
X342056741Y-165198888D01*
X342056911Y-165199097D01*
X342213460Y-165396431D01*
X342213626Y-165396645D01*
X342363659Y-165595013D01*
X342363819Y-165595231D01*
X342507572Y-165794733D01*
X342507685Y-165794893D01*
X342560259Y-165871522D01*
X342645438Y-165995673D01*
X342645587Y-165995895D01*
X342777642Y-166198141D01*
X342777784Y-166198365D01*
X342904269Y-166401998D01*
X342904404Y-166402220D01*
X343025739Y-166607615D01*
X343025845Y-166607800D01*
X343050335Y-166651398D01*
X343142235Y-166815004D01*
X343142343Y-166815202D01*
X343254023Y-167024294D01*
X343254134Y-167024507D01*
X343361374Y-167235634D01*
X343361478Y-167235843D01*
X343464565Y-167449189D01*
X343464660Y-167449391D01*
X343563810Y-167664995D01*
X343563897Y-167665189D01*
X343659432Y-167883316D01*
X343659505Y-167883486D01*
X343751673Y-168104259D01*
X343840746Y-168327844D01*
X343869292Y-168402832D01*
X343926903Y-168554176D01*
X343926961Y-168554333D01*
X343985976Y-168716322D01*
X344010458Y-168783522D01*
X344091627Y-169015909D01*
X344147528Y-169182491D01*
X344170669Y-169251452D01*
X344170710Y-169251577D01*
X344247847Y-169490301D01*
X344247883Y-169490414D01*
X344309736Y-169688707D01*
X344323458Y-169732697D01*
X344397729Y-169978683D01*
X344470851Y-170228146D01*
X344523392Y-170412213D01*
X344543142Y-170481405D01*
X344543161Y-170481473D01*
X344614921Y-170738806D01*
X344614937Y-170738864D01*
X344686334Y-171000072D01*
X344686347Y-171000119D01*
X344757688Y-171265485D01*
X344757698Y-171265523D01*
X344829275Y-171535309D01*
X344829282Y-171535336D01*
X344883910Y-171743255D01*
X344901248Y-171809247D01*
X344973818Y-172087235D01*
X345038608Y-172336203D01*
X345047567Y-172370631D01*
X345047580Y-172370682D01*
X345118700Y-172649069D01*
X345118724Y-172649167D01*
X345186596Y-172924713D01*
X345186620Y-172924810D01*
X345251434Y-173197937D01*
X345251456Y-173198032D01*
X345313267Y-173468621D01*
X345313288Y-173468716D01*
X345362882Y-173694455D01*
X345372132Y-173736560D01*
X345428143Y-174001888D01*
X345473446Y-174225462D01*
X345481359Y-174264511D01*
X345481377Y-174264603D01*
X345531816Y-174524183D01*
X345531833Y-174524274D01*
X345575870Y-174760894D01*
X345579633Y-174781116D01*
X345624856Y-175035127D01*
X345667538Y-175286049D01*
X345707781Y-175534034D01*
X345745626Y-175778838D01*
X345779237Y-176007434D01*
X345781143Y-176020399D01*
X345781155Y-176020483D01*
X345814439Y-176258926D01*
X345814450Y-176259010D01*
X345845538Y-176494043D01*
X345845549Y-176494125D01*
X345874517Y-176725735D01*
X345874489Y-176725738D01*
X345874526Y-176725815D01*
X345896925Y-176915630D01*
X345901461Y-176954067D01*
X345901437Y-176954151D01*
X345901470Y-176954147D01*
X345926438Y-177178975D01*
X345949497Y-177400210D01*
X345970441Y-177614970D01*
X345970736Y-177618000D01*
X345970743Y-177618076D01*
X345990202Y-177832067D01*
X345990208Y-177832142D01*
X346007953Y-178042215D01*
X346007959Y-178042289D01*
X346022926Y-178233827D01*
X346024087Y-178248689D01*
X346038661Y-178451313D01*
X346062706Y-178833651D01*
X346063416Y-178844942D01*
X346063424Y-178845077D01*
X346082752Y-179222336D01*
X346082758Y-179222466D01*
X346097239Y-179583318D01*
X346097242Y-179583411D01*
X346102322Y-179741592D01*
X346102274Y-179743089D01*
X346102230Y-179743548D01*
X346102000Y-179744436D01*
X346102056Y-179745354D01*
X346102865Y-179758636D01*
X346102881Y-179758970D01*
X346103338Y-179773206D01*
X346103650Y-179774072D01*
X346103736Y-179774520D01*
X346103922Y-179776007D01*
X346124169Y-180108438D01*
X346125843Y-180135928D01*
X346125835Y-180135952D01*
X346125844Y-180135951D01*
X346148036Y-180512892D01*
X346169560Y-180891593D01*
X346189034Y-181246991D01*
X346190404Y-181272002D01*
X346190395Y-181272027D01*
X346190405Y-181272026D01*
X346210488Y-181652784D01*
X346229898Y-182035730D01*
X346248581Y-182419968D01*
X346266502Y-182804922D01*
X346275668Y-183011008D01*
X346283722Y-183192113D01*
X346283713Y-183192137D01*
X346283723Y-183192137D01*
X346300149Y-183579598D01*
X346300150Y-183579623D01*
X346315854Y-183969283D01*
X346315845Y-183969283D01*
X346315855Y-183969307D01*
X346330803Y-184360602D01*
X346330804Y-184360627D01*
X346344959Y-184752783D01*
X346344960Y-184752808D01*
X346358313Y-185145662D01*
X346358314Y-185145686D01*
X346370902Y-185540718D01*
X346370903Y-185540743D01*
X346382689Y-185937008D01*
X346382690Y-185937033D01*
X346393665Y-186334537D01*
X346393655Y-186334537D01*
X346393666Y-186334561D01*
X346397985Y-186504120D01*
X346403822Y-186733252D01*
X346403823Y-186733277D01*
X346413152Y-187133204D01*
X346413142Y-187133204D01*
X346413153Y-187133228D01*
X346417501Y-187338610D01*
X346421238Y-187515071D01*
X346421655Y-187534776D01*
X346429314Y-187937589D01*
X346436071Y-188338532D01*
X346436122Y-188341586D01*
X346436112Y-188341611D01*
X346436122Y-188341611D01*
X346442075Y-188747266D01*
X346447153Y-189153675D01*
X346447214Y-189159543D01*
X346451360Y-189561704D01*
X346451350Y-189561730D01*
X346451360Y-189561730D01*
X346454680Y-189970913D01*
X346454680Y-189970939D01*
X346457110Y-190381791D01*
X346457110Y-190381817D01*
X346458637Y-190793836D01*
X346458637Y-190793862D01*
X346459252Y-191206598D01*
X346459252Y-191206624D01*
X346458950Y-191621039D01*
X346458950Y-191621065D01*
X346457722Y-192036627D01*
X346457722Y-192036653D01*
X346455557Y-192453561D01*
X346455557Y-192453594D01*
X346450534Y-193081590D01*
X346450518Y-193081590D01*
X346450534Y-193081629D01*
X346443713Y-193681865D01*
X346443420Y-193707635D01*
X346434258Y-194330179D01*
X346423274Y-194938651D01*
X346423062Y-194950371D01*
X346423061Y-194950410D01*
X346409866Y-195567677D01*
X346409865Y-195567716D01*
X346394702Y-196182031D01*
X346394701Y-196182069D01*
X346377578Y-196794042D01*
X346377577Y-196794081D01*
X346358549Y-197402802D01*
X346358548Y-197402840D01*
X346337624Y-198008894D01*
X346337623Y-198008932D01*
X346314830Y-198612330D01*
X346314828Y-198612367D01*
X346301972Y-198925843D01*
X346290512Y-199205299D01*
X346290209Y-199212676D01*
X346290192Y-199212713D01*
X346290207Y-199212714D01*
X346263781Y-199810112D01*
X346235568Y-200404776D01*
X346205864Y-200991376D01*
X346205595Y-200996679D01*
X346205593Y-200996716D01*
X346173902Y-201585571D01*
X346173900Y-201585608D01*
X346140519Y-202171403D01*
X346140517Y-202171439D01*
X346105656Y-202751176D01*
X346105456Y-202754494D01*
X346068739Y-203334791D01*
X346068723Y-203334790D01*
X346068737Y-203334826D01*
X346066394Y-203370110D01*
X346032660Y-203878207D01*
X346030416Y-203911999D01*
X345990538Y-204485775D01*
X345962602Y-204870602D01*
X345949070Y-205057004D01*
X345949052Y-205057039D01*
X345949067Y-205057040D01*
X345906047Y-205625533D01*
X345861537Y-206190808D01*
X345815614Y-206752281D01*
X345815584Y-206752642D01*
X345815581Y-206752677D01*
X345768113Y-207312271D01*
X345768110Y-207312306D01*
X345719290Y-207868051D01*
X345719287Y-207868086D01*
X345669025Y-208421294D01*
X345669022Y-208421328D01*
X345617405Y-208971344D01*
X345617402Y-208971379D01*
X345564430Y-209518465D01*
X345564429Y-209518465D01*
X345564428Y-209518489D01*
X345560912Y-209553725D01*
X345510188Y-210062038D01*
X345510185Y-210062072D01*
X345454606Y-210603064D01*
X345454605Y-210603064D01*
X345454604Y-210603085D01*
X345416944Y-210959477D01*
X345399429Y-211125229D01*
X345399219Y-211126428D01*
X345398927Y-211127120D01*
X345398849Y-211128030D01*
X345398849Y-211128032D01*
X345397677Y-211141792D01*
X345397654Y-211142028D01*
X345396111Y-211156631D01*
X345396267Y-211157367D01*
X345396247Y-211158573D01*
X345333441Y-211895816D01*
X345266776Y-212668016D01*
X345232216Y-213062997D01*
X345197656Y-213457964D01*
X345197655Y-213457978D01*
X345125956Y-214266356D01*
X345125955Y-214266370D01*
X345070647Y-214881452D01*
X345051536Y-215093980D01*
X344974509Y-215938833D01*
X344955408Y-216145442D01*
X344918455Y-216545160D01*
X344894816Y-216800852D01*
X344812256Y-217681479D01*
X344727541Y-218572495D01*
X344726938Y-218578836D01*
X344726930Y-218578851D01*
X344726936Y-218578852D01*
X344638718Y-219493698D01*
X344574970Y-220145508D01*
X344547561Y-220425753D01*
X344547553Y-220425768D01*
X344547559Y-220425769D01*
X344453476Y-221374181D01*
X344373360Y-222170415D01*
X344356351Y-222339455D01*
X344356342Y-222339471D01*
X344356349Y-222339472D01*
X344256124Y-223321485D01*
X344152824Y-224319305D01*
X344046336Y-225333377D01*
X343936590Y-226363693D01*
X343823563Y-227409786D01*
X343711259Y-228434509D01*
X343707319Y-228470455D01*
X343707317Y-228470473D01*
X343587604Y-229547340D01*
X343587602Y-229547358D01*
X343464523Y-230638897D01*
X343464521Y-230638915D01*
X343337941Y-231745677D01*
X343337939Y-231745696D01*
X343207812Y-232867430D01*
X343207810Y-232867449D01*
X343074158Y-234003373D01*
X343074156Y-234003392D01*
X342936921Y-235153403D01*
X342936920Y-235153403D01*
X342936919Y-235153417D01*
X342894924Y-235500396D01*
X342795867Y-236318831D01*
X342795865Y-236318850D01*
X342651188Y-237497486D01*
X342651187Y-237497486D01*
X342651186Y-237497499D01*
X342592438Y-237969416D01*
X342504820Y-238673246D01*
X342502787Y-238689576D01*
X342350544Y-239895488D01*
X342195444Y-241106933D01*
X342194399Y-241115093D01*
X342194388Y-241115112D01*
X342194396Y-241115113D01*
X342034322Y-242348047D01*
X341879234Y-243526036D01*
X341870305Y-243593854D01*
X341870302Y-243593873D01*
X341743829Y-244542761D01*
X341743827Y-244542777D01*
X341617986Y-245476844D01*
X341617984Y-245476861D01*
X341492467Y-246398497D01*
X341492465Y-246398514D01*
X341367330Y-247307446D01*
X341367329Y-247307446D01*
X341367328Y-247307458D01*
X341349962Y-247432246D01*
X341242338Y-248205580D01*
X341242336Y-248205597D01*
X341117262Y-249094722D01*
X341117260Y-249094739D01*
X340991919Y-249976354D01*
X340991918Y-249976354D01*
X340991917Y-249976366D01*
X340966952Y-250150140D01*
X340866137Y-250851873D01*
X340866135Y-250851890D01*
X340739800Y-251722303D01*
X340739799Y-251722303D01*
X340739798Y-251722315D01*
X340697161Y-252013156D01*
X340612731Y-252589071D01*
X340612729Y-252589087D01*
X340484829Y-253453130D01*
X340484827Y-253453146D01*
X340355686Y-254317464D01*
X340355685Y-254317464D01*
X340355684Y-254317476D01*
X340331788Y-254475981D01*
X340225361Y-255181923D01*
X340225359Y-255181938D01*
X340099735Y-256008123D01*
X340093605Y-256048435D01*
X339960269Y-256918249D01*
X339825052Y-257793621D01*
X339688112Y-258673810D01*
X339548929Y-259562468D01*
X339440627Y-260249712D01*
X339407558Y-260459554D01*
X339407552Y-260459563D01*
X339407556Y-260459564D01*
X339279650Y-261266636D01*
X339263701Y-261367269D01*
X339263699Y-261367279D01*
X339117316Y-262286201D01*
X339117315Y-262286209D01*
X338967869Y-263220028D01*
X338967868Y-263220035D01*
X338869286Y-263833491D01*
X338815580Y-264167688D01*
X338660430Y-265129651D01*
X338501494Y-266111995D01*
X338340440Y-267104759D01*
X338339378Y-267111304D01*
X338339377Y-267111308D01*
X338173507Y-268131458D01*
X338173507Y-268131461D01*
X338004620Y-269168299D01*
X338004619Y-269168302D01*
X337831277Y-270230994D01*
X337831277Y-270230995D01*
X337667359Y-271234886D01*
X337652869Y-271323625D01*
X337473655Y-272420472D01*
X337305796Y-273447504D01*
X337284794Y-273576000D01*
X337284793Y-273576005D01*
X337091838Y-274753759D01*
X337091837Y-274753767D01*
X336900090Y-275918734D01*
X336900088Y-275918743D01*
X336718054Y-277019646D01*
X336709174Y-277073353D01*
X336518894Y-278218911D01*
X336443296Y-278672011D01*
X336329393Y-279354688D01*
X336329392Y-279354697D01*
X336160549Y-280362244D01*
X336140235Y-280483462D01*
X335951290Y-281606115D01*
X335896857Y-281928188D01*
X335762645Y-282722291D01*
X335762644Y-282722299D01*
X335574194Y-283832772D01*
X335574193Y-283832779D01*
X335411974Y-284784897D01*
X335385349Y-284941165D01*
X335196479Y-286045475D01*
X335084396Y-286698397D01*
X335007107Y-287148632D01*
X335007106Y-287148638D01*
X334817427Y-288249672D01*
X334817426Y-288249679D01*
X334627034Y-289351126D01*
X334627033Y-289351132D01*
X334435684Y-290454549D01*
X334435683Y-290454555D01*
X334251380Y-291514112D01*
X334243698Y-291558273D01*
X334050634Y-292665013D01*
X333856358Y-293775712D01*
X333665777Y-294862558D01*
X333660344Y-294893540D01*
X333660343Y-294893544D01*
X333463355Y-296014330D01*
X333463352Y-296014335D01*
X333463354Y-296014335D01*
X333264886Y-297141141D01*
X333064063Y-298279111D01*
X332883279Y-299301746D01*
X332861906Y-299422645D01*
X332861904Y-299422648D01*
X332861905Y-299422648D01*
X332661524Y-300554375D01*
X332657028Y-300579765D01*
X332657027Y-300579768D01*
X332451649Y-301738121D01*
X332451649Y-301738123D01*
X332301447Y-302584283D01*
X332242209Y-302917997D01*
X332030456Y-304109707D01*
X331914443Y-304762074D01*
X331818938Y-305299119D01*
X331818938Y-305299120D01*
X331601422Y-306521473D01*
X331383482Y-307745631D01*
X331383482Y-307745632D01*
X331157737Y-309013226D01*
X331063814Y-309540544D01*
X330935619Y-310260271D01*
X330810044Y-310964972D01*
X330769172Y-311194145D01*
X330687429Y-311652489D01*
X330687429Y-311652491D01*
X330608678Y-312093698D01*
X330566132Y-312332061D01*
X330444895Y-313010754D01*
X330324996Y-313681415D01*
X330209017Y-314329645D01*
X330093370Y-314975520D01*
X329977884Y-315620011D01*
X329974922Y-315636528D01*
X329865786Y-316245122D01*
X329865786Y-316245124D01*
X329754788Y-316863648D01*
X329754788Y-316863649D01*
X329664907Y-317364139D01*
X329644643Y-317476973D01*
X329536311Y-318079772D01*
X329504426Y-318257064D01*
X329430799Y-318666463D01*
X329430799Y-318666464D01*
X329325833Y-319249720D01*
X329325833Y-319249722D01*
X329222010Y-319826227D01*
X329222010Y-319826228D01*
X329120235Y-320390981D01*
X329120235Y-320390982D01*
X329021468Y-320938686D01*
X329021468Y-320938688D01*
X328922925Y-321484789D01*
X328922925Y-321484790D01*
X328828220Y-322009288D01*
X328828220Y-322009289D01*
X328732625Y-322538393D01*
X328732625Y-322538394D01*
X328642970Y-323034311D01*
X328642970Y-323034313D01*
X328550946Y-323543027D01*
X328550946Y-323543028D01*
X328462865Y-324029650D01*
X328462865Y-324029651D01*
X328375201Y-324513697D01*
X328375201Y-324513698D01*
X328290730Y-324979842D01*
X328290730Y-324979843D01*
X328210071Y-325424714D01*
X328210071Y-325424715D01*
X328129594Y-325868329D01*
X328129594Y-325868330D01*
X328072703Y-326181774D01*
X328051268Y-326299868D01*
X327974503Y-326722589D01*
X327901852Y-327122461D01*
X327895170Y-327159222D01*
X327829100Y-327522685D01*
X327761104Y-327896580D01*
X327760787Y-327897889D01*
X327758054Y-327906869D01*
X327758071Y-327907788D01*
X327758071Y-327907789D01*
X327758142Y-327911580D01*
X327757955Y-327913892D01*
X327757113Y-327918523D01*
X327757236Y-327919434D01*
X327757236Y-327919435D01*
X327758369Y-327927816D01*
X327758472Y-327929159D01*
X327759577Y-327988216D01*
X327762031Y-328119348D01*
X327762017Y-328120171D01*
X327751648Y-328320748D01*
X327751571Y-328321613D01*
X327720210Y-328569416D01*
X327720067Y-328570283D01*
X327677557Y-328778874D01*
X327677355Y-328779705D01*
X327659910Y-328841617D01*
X327614108Y-329004163D01*
X327613811Y-329005073D01*
X327526138Y-329240491D01*
X327525729Y-329241453D01*
X327481680Y-329333441D01*
X327409849Y-329483443D01*
X327409309Y-329484443D01*
X327306650Y-329653988D01*
X327260861Y-329729610D01*
X327260302Y-329730450D01*
X327141883Y-329892625D01*
X327141500Y-329893120D01*
X327077297Y-329971828D01*
X327076862Y-329972332D01*
X326946689Y-330114556D01*
X326926603Y-330136501D01*
X326925972Y-330137140D01*
X326771531Y-330281846D01*
X326770878Y-330282413D01*
X326613126Y-330409709D01*
X326612467Y-330410204D01*
X326453720Y-330520802D01*
X326452910Y-330521318D01*
X326213386Y-330660507D01*
X326212448Y-330660997D01*
X325979501Y-330769492D01*
X325978625Y-330769857D01*
X325757267Y-330851859D01*
X325756483Y-330852117D01*
X325649379Y-330883235D01*
X325553149Y-330911193D01*
X325552328Y-330911400D01*
X325442970Y-330934745D01*
X325317863Y-330961452D01*
X325316996Y-330961602D01*
X325144779Y-330984727D01*
X325103605Y-330990256D01*
X325102956Y-330990325D01*
X325031447Y-330995893D01*
X325030794Y-330995925D01*
X325022447Y-330996107D01*
X325018095Y-330996202D01*
X325017225Y-330996506D01*
X325017224Y-330996506D01*
X325016838Y-330996641D01*
X325013883Y-330997261D01*
X325012558Y-330997364D01*
X325011706Y-330997716D01*
X325000815Y-331002216D01*
X325000204Y-331002449D01*
X324695982Y-331108686D01*
X324674241Y-331116278D01*
X324674195Y-331116294D01*
X324342464Y-331230591D01*
X324342418Y-331230607D01*
X324007203Y-331344534D01*
X324007156Y-331344550D01*
X323669107Y-331457849D01*
X323669060Y-331457864D01*
X323327625Y-331570680D01*
X323327577Y-331570696D01*
X322982968Y-331682920D01*
X322982920Y-331682936D01*
X322635333Y-331794469D01*
X322635284Y-331794484D01*
X322284444Y-331905375D01*
X322284395Y-331905390D01*
X321930625Y-332015498D01*
X321930571Y-332015493D01*
X321930577Y-332015513D01*
X321573282Y-332124986D01*
X321573232Y-332125001D01*
X321212840Y-332233664D01*
X320918602Y-332320939D01*
X320849495Y-332341437D01*
X320849444Y-332341452D01*
X320546725Y-332429754D01*
X320483220Y-332448278D01*
X320113596Y-332554270D01*
X320113592Y-332554257D01*
X320113545Y-332554284D01*
X319927227Y-332606787D01*
X319740911Y-332659288D01*
X319740859Y-332659303D01*
X319409758Y-332750954D01*
X319365232Y-332763279D01*
X319365192Y-332763290D01*
X319168608Y-332816959D01*
X319168581Y-332816966D01*
X319070474Y-332843495D01*
X318972366Y-332870024D01*
X318972337Y-332870020D01*
X318972340Y-332870031D01*
X318776631Y-332922444D01*
X318776604Y-332922451D01*
X318582120Y-332974036D01*
X318582093Y-332974043D01*
X318387800Y-333025080D01*
X318387772Y-333025087D01*
X318307941Y-333045854D01*
X318193895Y-333075520D01*
X318193852Y-333075514D01*
X318193856Y-333075530D01*
X317807980Y-333174440D01*
X317807927Y-333174453D01*
X317424734Y-333270750D01*
X317424680Y-333270763D01*
X317102390Y-333350150D01*
X317044173Y-333364490D01*
X317043592Y-333364633D01*
X317043539Y-333364646D01*
X316665202Y-333455972D01*
X316665150Y-333455985D01*
X316289116Y-333544922D01*
X316289064Y-333544934D01*
X315915883Y-333631391D01*
X315915831Y-333631403D01*
X315544850Y-333715576D01*
X315544798Y-333715588D01*
X315176660Y-333797372D01*
X315176609Y-333797383D01*
X314810961Y-333876901D01*
X314810910Y-333876912D01*
X314447810Y-333954188D01*
X314447760Y-333954198D01*
X314279167Y-333989305D01*
X314087652Y-334029185D01*
X314087599Y-334029175D01*
X314087603Y-334029195D01*
X313729916Y-334102049D01*
X313729866Y-334102059D01*
X313391681Y-334169418D01*
X313388144Y-334169576D01*
X313374687Y-334168127D01*
X313374686Y-334168127D01*
X313372845Y-334167929D01*
X313353854Y-334178829D01*
X313345218Y-334183786D01*
X313345114Y-334183846D01*
X313317215Y-334199480D01*
X313316978Y-334199995D01*
X313316485Y-334200278D01*
X313303401Y-334229463D01*
X313290023Y-334258501D01*
X313290385Y-334260318D01*
X313293029Y-334273592D01*
X313293187Y-334277131D01*
X313281927Y-334381702D01*
X313256289Y-334619786D01*
X313256280Y-334619866D01*
X313214472Y-334984321D01*
X313214462Y-334984403D01*
X313169388Y-335354276D01*
X313169378Y-335354359D01*
X313120949Y-335729370D01*
X313120937Y-335729455D01*
X313115734Y-335767563D01*
X313069065Y-336109387D01*
X313025423Y-336412369D01*
X313013625Y-336494274D01*
X313013577Y-336494356D01*
X313013612Y-336494361D01*
X312954466Y-336884297D01*
X312895919Y-337251507D01*
X312891524Y-337279072D01*
X312891513Y-337279138D01*
X312864300Y-337443736D01*
X312858601Y-337478205D01*
X312833693Y-337625336D01*
X312824708Y-337678407D01*
X312824700Y-337678452D01*
X312789785Y-337879916D01*
X312789777Y-337879961D01*
X312753873Y-338082422D01*
X312753865Y-338082467D01*
X312744669Y-338133165D01*
X312716920Y-338286137D01*
X312678909Y-338491048D01*
X312653560Y-338624729D01*
X312639860Y-338696974D01*
X312639851Y-338697020D01*
X312599739Y-338904003D01*
X312599730Y-338904049D01*
X312589063Y-338957931D01*
X312558531Y-339112148D01*
X312516246Y-339321269D01*
X312491705Y-339440136D01*
X312472866Y-339531381D01*
X312472837Y-339531424D01*
X312472856Y-339531428D01*
X312428271Y-339742988D01*
X312428266Y-339742987D01*
X312428261Y-339743035D01*
X312382638Y-339955160D01*
X312382628Y-339955208D01*
X312349211Y-340107503D01*
X312335806Y-340168592D01*
X312287823Y-340382987D01*
X312238661Y-340598394D01*
X312190182Y-340806823D01*
X312145904Y-340993735D01*
X312141136Y-341013860D01*
X312141125Y-341013906D01*
X312091554Y-341219451D01*
X312091543Y-341219497D01*
X312041361Y-341423961D01*
X312041350Y-341424006D01*
X311990648Y-341627074D01*
X311990636Y-341627120D01*
X311953099Y-341774950D01*
X311939431Y-341828776D01*
X311887699Y-342029177D01*
X311835526Y-342228050D01*
X311814646Y-342306393D01*
X311782841Y-342425723D01*
X311782811Y-342425762D01*
X311782829Y-342425767D01*
X311729740Y-342621879D01*
X311676200Y-342816673D01*
X311622164Y-343010353D01*
X311622158Y-343010351D01*
X311622152Y-343010395D01*
X311606527Y-343065584D01*
X311567857Y-343202165D01*
X311567839Y-343202229D01*
X311457932Y-343582184D01*
X311457908Y-343582268D01*
X311346572Y-343956625D01*
X311346547Y-343956708D01*
X311233897Y-344325460D01*
X311233871Y-344325542D01*
X311140409Y-344623667D01*
X311120006Y-344688747D01*
X311005087Y-345046262D01*
X310889238Y-345398053D01*
X310788483Y-345696933D01*
X310772594Y-345744065D01*
X310772568Y-345744141D01*
X310655213Y-346084468D01*
X310655187Y-346084544D01*
X310537234Y-346419175D01*
X310537214Y-346419230D01*
X310479647Y-346579956D01*
X310479281Y-346580858D01*
X310475027Y-346590202D01*
X310475026Y-346590205D01*
X310474647Y-346591038D01*
X310474544Y-346591950D01*
X310474543Y-346591952D01*
X310474322Y-346593903D01*
X310473714Y-346596523D01*
X310472738Y-346599246D01*
X310472711Y-346600167D01*
X310472404Y-346610435D01*
X310472334Y-346611406D01*
X310441346Y-346884375D01*
X310441327Y-346884533D01*
X310404544Y-347173396D01*
X310404522Y-347173560D01*
X310361953Y-347473791D01*
X310361928Y-347473962D01*
X310313050Y-347785506D01*
X310257424Y-348107720D01*
X310250694Y-348143327D01*
X310194613Y-348440025D01*
X310194576Y-348440213D01*
X310124136Y-348782078D01*
X310124095Y-348782272D01*
X310045506Y-349133527D01*
X310045459Y-349133725D01*
X309958313Y-349493687D01*
X309958262Y-349493890D01*
X309862060Y-349862260D01*
X309862004Y-349862468D01*
X309756205Y-350239078D01*
X309756159Y-350239237D01*
X309699643Y-350430050D01*
X309640506Y-350622913D01*
X309626237Y-350667889D01*
X309578772Y-350817496D01*
X309578737Y-350817606D01*
X309514276Y-351014070D01*
X309514239Y-351014180D01*
X309447174Y-351211930D01*
X309447136Y-351212041D01*
X309377191Y-351411667D01*
X309377151Y-351411779D01*
X309304426Y-351612770D01*
X309304384Y-351612883D01*
X309228699Y-351815521D01*
X309228656Y-351815634D01*
X309195820Y-351900839D01*
X309150053Y-352019595D01*
X309068381Y-352225063D01*
X309037738Y-352299877D01*
X308986782Y-352424282D01*
X308986736Y-352424392D01*
X308904045Y-352620532D01*
X308903998Y-352620641D01*
X308820188Y-352813944D01*
X308820141Y-352814051D01*
X308735390Y-353004286D01*
X308735343Y-353004392D01*
X308649581Y-353191878D01*
X308562959Y-353376442D01*
X308475639Y-353557908D01*
X308475590Y-353558009D01*
X308387640Y-353736395D01*
X308387566Y-353736542D01*
X308209615Y-354085001D01*
X308209515Y-354085193D01*
X308029736Y-354421754D01*
X308029635Y-354421938D01*
X307848633Y-354746608D01*
X307848532Y-354746786D01*
X307666798Y-355059756D01*
X307666696Y-355059928D01*
X307484876Y-355361124D01*
X307484775Y-355361288D01*
X307303516Y-355650628D01*
X307303426Y-355650770D01*
X307123166Y-355928511D01*
X306944581Y-356194528D01*
X306768340Y-356448716D01*
X306608216Y-356672656D01*
X306595062Y-356691052D01*
X306594966Y-356691184D01*
X306425217Y-356921717D01*
X306343777Y-357029276D01*
X306264598Y-357133848D01*
X306263349Y-357135248D01*
X306258403Y-357139966D01*
X306257965Y-357140778D01*
X306254956Y-357146355D01*
X306253991Y-357147857D01*
X306249604Y-357153650D01*
X306249305Y-357154513D01*
X306249303Y-357154516D01*
X306247364Y-357160107D01*
X306246607Y-357161828D01*
X305949324Y-357712797D01*
X305949288Y-357712862D01*
X305638693Y-358279887D01*
X305638657Y-358279953D01*
X305318677Y-358855273D01*
X305318639Y-358855340D01*
X305255663Y-358966840D01*
X304989319Y-359438402D01*
X304650329Y-360029323D01*
X304301680Y-360627620D01*
X303943337Y-361232891D01*
X303873658Y-361348722D01*
X303575017Y-361845166D01*
X303574973Y-361845237D01*
X303196705Y-362464009D01*
X303196661Y-362464082D01*
X302808164Y-363089361D01*
X302808118Y-363089434D01*
X302409330Y-363720871D01*
X302409283Y-363720944D01*
X302000238Y-364358045D01*
X302000190Y-364358119D01*
X301580588Y-365000913D01*
X301580539Y-365000988D01*
X301150211Y-365649288D01*
X301150160Y-365649364D01*
X300709078Y-366302778D01*
X300709026Y-366302854D01*
X300257252Y-366960864D01*
X300257199Y-366960941D01*
X299794244Y-367623828D01*
X299794190Y-367623906D01*
X299320206Y-368291025D01*
X299320150Y-368291102D01*
X298834936Y-368962317D01*
X298834879Y-368962396D01*
X298338239Y-369637552D01*
X298338180Y-369637631D01*
X297830079Y-370316363D01*
X297830019Y-370316442D01*
X297310370Y-370998446D01*
X297310309Y-370998526D01*
X296778964Y-371683592D01*
X296778901Y-371683672D01*
X296601143Y-371908790D01*
X296235573Y-372371756D01*
X295771097Y-372949470D01*
X295680447Y-373062219D01*
X295680382Y-373062300D01*
X295113143Y-373755132D01*
X295113076Y-373755213D01*
X294533623Y-374450137D01*
X294533555Y-374450218D01*
X293941787Y-375146956D01*
X293941717Y-375147038D01*
X293337438Y-375845423D01*
X293337366Y-375845504D01*
X293221487Y-375976949D01*
X292720590Y-376545131D01*
X292091094Y-377245855D01*
X291448734Y-377947456D01*
X290951948Y-378481004D01*
X290455280Y-379006736D01*
X290312375Y-379155842D01*
X289959002Y-379524547D01*
X289958944Y-379524607D01*
X289463089Y-380034649D01*
X289463031Y-380034708D01*
X288967803Y-380536952D01*
X288473178Y-381031602D01*
X287979403Y-381518586D01*
X287821209Y-381672470D01*
X287486738Y-381997827D01*
X287486681Y-381997882D01*
X286995077Y-382469604D01*
X286995019Y-382469659D01*
X286504624Y-382933889D01*
X286504567Y-382933942D01*
X286015592Y-383390655D01*
X286015535Y-383390708D01*
X285528081Y-383839975D01*
X285528025Y-383840027D01*
X285042067Y-384282043D01*
X285042010Y-384282094D01*
X284557913Y-384716686D01*
X284557857Y-384716737D01*
X284075610Y-385144084D01*
X284075554Y-385144133D01*
X283595459Y-385564134D01*
X283117297Y-385977137D01*
X282641467Y-386382954D01*
X282168129Y-386781613D01*
X281697324Y-387173235D01*
X281497636Y-387337302D01*
X281229223Y-387557834D01*
X281229169Y-387557878D01*
X280763856Y-387935537D01*
X280763802Y-387935581D01*
X280301497Y-388306278D01*
X280301444Y-388306321D01*
X279842300Y-388670088D01*
X279842246Y-388670130D01*
X279386307Y-389027082D01*
X279386255Y-389027123D01*
X278933432Y-389377475D01*
X278933379Y-389377515D01*
X278484175Y-389721026D01*
X278484123Y-389721065D01*
X278038462Y-390057943D01*
X278038411Y-390057982D01*
X277596467Y-390388239D01*
X277596416Y-390388277D01*
X277158549Y-390711791D01*
X277158498Y-390711828D01*
X276724548Y-391028862D01*
X276724498Y-391028899D01*
X276302193Y-391334012D01*
X276300436Y-391335059D01*
X276295036Y-391337666D01*
X276294368Y-391338306D01*
X276289180Y-391343275D01*
X276287942Y-391344307D01*
X276281377Y-391349051D01*
X276280835Y-391349793D01*
X276280833Y-391349795D01*
X276277847Y-391353883D01*
X276276494Y-391355430D01*
X276121301Y-391504108D01*
X276121270Y-391504137D01*
X276033130Y-391587967D01*
X275957677Y-391659730D01*
X275953900Y-391663322D01*
X275953868Y-391663352D01*
X275781121Y-391826424D01*
X275781089Y-391826455D01*
X275602990Y-391993287D01*
X275602956Y-391993318D01*
X275420040Y-392163307D01*
X275420005Y-392163340D01*
X275249250Y-392320742D01*
X275231671Y-392336946D01*
X275231635Y-392336979D01*
X275038118Y-392513878D01*
X275038081Y-392513911D01*
X274839373Y-392694010D01*
X274839335Y-392694044D01*
X274635424Y-392877247D01*
X274635386Y-392877282D01*
X274426290Y-393063475D01*
X274426250Y-393063510D01*
X274212079Y-393252489D01*
X274212038Y-393252525D01*
X273992634Y-393444327D01*
X273992593Y-393444363D01*
X273767947Y-393638892D01*
X273767905Y-393638928D01*
X273538268Y-393835862D01*
X273538224Y-393835899D01*
X273303411Y-394035297D01*
X273303367Y-394035335D01*
X273063419Y-394237055D01*
X273063374Y-394237092D01*
X272818389Y-394440953D01*
X272818343Y-394440992D01*
X272568127Y-394647045D01*
X272312771Y-394855115D01*
X272052495Y-395064919D01*
X271786921Y-395276657D01*
X271516498Y-395489865D01*
X271240909Y-395704693D01*
X270960314Y-395920908D01*
X270674625Y-396138477D01*
X270383945Y-396357217D01*
X270088257Y-396577034D01*
X269787607Y-396797793D01*
X269481890Y-397019465D01*
X269171012Y-397242011D01*
X268927503Y-397414074D01*
X268855371Y-397465042D01*
X268855311Y-397465084D01*
X268535101Y-397688366D01*
X268534977Y-397688452D01*
X267531631Y-398369054D01*
X267531443Y-398369179D01*
X266530744Y-399020111D01*
X266530556Y-399020230D01*
X265532912Y-399642495D01*
X265532725Y-399642609D01*
X264538902Y-400236968D01*
X264538717Y-400237077D01*
X263549459Y-400804301D01*
X263549275Y-400804404D01*
X262565374Y-401345236D01*
X262565192Y-401345334D01*
X262154846Y-401561550D01*
X261587374Y-401860555D01*
X261587301Y-401860593D01*
X260850376Y-402232758D01*
X260616442Y-402350900D01*
X260616265Y-402350987D01*
X259653127Y-402817144D01*
X259652966Y-402817221D01*
X258698258Y-403260013D01*
X258698203Y-403260038D01*
X258273966Y-403448567D01*
X257752709Y-403680211D01*
X257752553Y-403680279D01*
X256817115Y-404078559D01*
X256817046Y-404078588D01*
X256379684Y-404256984D01*
X255892451Y-404455722D01*
X255892290Y-404455787D01*
X255578879Y-404578252D01*
X254979152Y-404812595D01*
X254165410Y-405117198D01*
X254078478Y-405149739D01*
X254078325Y-405149795D01*
X253190817Y-405468058D01*
X253190670Y-405468110D01*
X252316938Y-405768301D01*
X252316795Y-405768349D01*
X251457924Y-406051117D01*
X251457786Y-406051162D01*
X250614351Y-406317328D01*
X250614219Y-406317369D01*
X250144093Y-406459628D01*
X249786911Y-406567711D01*
X249141061Y-406755207D01*
X248976633Y-406802942D01*
X248976512Y-406802976D01*
X248184153Y-407023818D01*
X248184039Y-407023850D01*
X247410081Y-407231136D01*
X247409973Y-407231164D01*
X246655445Y-407425580D01*
X246655345Y-407425605D01*
X245920924Y-407607930D01*
X245207242Y-407778950D01*
X244515217Y-407939382D01*
X243845803Y-408089942D01*
X243845738Y-408089956D01*
X243199464Y-408231451D01*
X243199410Y-408231463D01*
X242577092Y-408364636D01*
X242577051Y-408364645D01*
X241979393Y-408490267D01*
X241979365Y-408490273D01*
X241407794Y-408608961D01*
X241407792Y-408608952D01*
X241407763Y-408608967D01*
X241221170Y-408647171D01*
X241064214Y-408679307D01*
X241064167Y-408679317D01*
X240712805Y-408749761D01*
X240712757Y-408749770D01*
X240352930Y-408820344D01*
X240352881Y-408820354D01*
X239984648Y-408890936D01*
X239984645Y-408890921D01*
X239984598Y-408890945D01*
X239796681Y-408926112D01*
X239608764Y-408961278D01*
X239608713Y-408961288D01*
X239224347Y-409031438D01*
X239224294Y-409031447D01*
X238832069Y-409101181D01*
X238832015Y-409101191D01*
X238431905Y-409170408D01*
X238431851Y-409170417D01*
X238023909Y-409239001D01*
X238023853Y-409239010D01*
X237608248Y-409306825D01*
X237608192Y-409306834D01*
X237184393Y-409373856D01*
X237184335Y-409373865D01*
X236753207Y-409439848D01*
X236753149Y-409439857D01*
X236314309Y-409504753D01*
X236314249Y-409504762D01*
X235867877Y-409568432D01*
X235867817Y-409568440D01*
X235413916Y-409630777D01*
X235413855Y-409630785D01*
X234952424Y-409691676D01*
X234952362Y-409691684D01*
X234483523Y-409751002D01*
X234483460Y-409751010D01*
X234007510Y-409808609D01*
X234007446Y-409808617D01*
X233523892Y-409864443D01*
X233523827Y-409864450D01*
X233418185Y-409876051D01*
X233033411Y-409918305D01*
X232558163Y-409967790D01*
X232535749Y-409970124D01*
X232535682Y-409970131D01*
X232030939Y-410019781D01*
X232030872Y-410019787D01*
X231519080Y-410067152D01*
X231519012Y-410067158D01*
X231000387Y-410112107D01*
X231000318Y-410112113D01*
X230474729Y-410154544D01*
X230474660Y-410154549D01*
X230259874Y-410170599D01*
X229942266Y-410194333D01*
X229942195Y-410194309D01*
X229942197Y-410194338D01*
X229403103Y-410231356D01*
X229403101Y-410231329D01*
X229403032Y-410231360D01*
X228866888Y-410264895D01*
X228857199Y-410265501D01*
X228857127Y-410265505D01*
X228304592Y-410296648D01*
X228304520Y-410296652D01*
X227745407Y-410324674D01*
X227745333Y-410324678D01*
X227179813Y-410349459D01*
X227179739Y-410349462D01*
X226880429Y-410360675D01*
X226623107Y-410370314D01*
X226621569Y-410370270D01*
X226621548Y-410370268D01*
X226620650Y-410370037D01*
X226619726Y-410370095D01*
X226606259Y-410370940D01*
X226605965Y-410370955D01*
X226602636Y-410371080D01*
X226591541Y-410371496D01*
X226590676Y-410371813D01*
X226590641Y-410371820D01*
X226589114Y-410372017D01*
X226387429Y-410384682D01*
X226387420Y-410384683D01*
X226169945Y-410398164D01*
X226169945Y-410398161D01*
X226169936Y-410398165D01*
X226070251Y-410404262D01*
X225954863Y-410411320D01*
X225954854Y-410411321D01*
X225736936Y-410424475D01*
X225736936Y-410424472D01*
X225736927Y-410424476D01*
X225644765Y-410429963D01*
X225519046Y-410437448D01*
X225519037Y-410437449D01*
X225299686Y-410450330D01*
X225299686Y-410450327D01*
X225299677Y-410450331D01*
X225198118Y-410456212D01*
X225082586Y-410462902D01*
X225082577Y-410462903D01*
X224864021Y-410475379D01*
X224864011Y-410475380D01*
X224645305Y-410487687D01*
X224645296Y-410487687D01*
X224426327Y-410499827D01*
X224426317Y-410499828D01*
X224208304Y-410511738D01*
X224208295Y-410511738D01*
X223987668Y-410523611D01*
X223987658Y-410523612D01*
X223768101Y-410535245D01*
X223768101Y-410535242D01*
X223768092Y-410535245D01*
X223549469Y-410546650D01*
X223549461Y-410546647D01*
X223549461Y-410546650D01*
X223329504Y-410557943D01*
X223329504Y-410557940D01*
X223329495Y-410557943D01*
X223108087Y-410569129D01*
X223108079Y-410569126D01*
X223108079Y-410569129D01*
X222887600Y-410580086D01*
X222887590Y-410580086D01*
X222782227Y-410585235D01*
X222667081Y-410590862D01*
X222667072Y-410590858D01*
X222667072Y-410590862D01*
X222446209Y-410601472D01*
X222446200Y-410601472D01*
X222224114Y-410611958D01*
X222224104Y-410611958D01*
X222113505Y-410617089D01*
X222002906Y-410622219D01*
X222002897Y-410622215D01*
X222002897Y-410622219D01*
X221781317Y-410632314D01*
X221781308Y-410632314D01*
X221676318Y-410637011D01*
X221559662Y-410642229D01*
X221559653Y-410642225D01*
X221559653Y-410642229D01*
X221337914Y-410651964D01*
X221337904Y-410651964D01*
X221220466Y-410657022D01*
X221114771Y-410661574D01*
X221114763Y-410661571D01*
X221114763Y-410661574D01*
X220892447Y-410670964D01*
X220892437Y-410670964D01*
X220669941Y-410680178D01*
X220669931Y-410680178D01*
X220552179Y-410684956D01*
X220446202Y-410689256D01*
X220446194Y-410689253D01*
X220446194Y-410689256D01*
X220223262Y-410698116D01*
X220223252Y-410698116D01*
X220111150Y-410702478D01*
X219999047Y-410706840D01*
X219999038Y-410706836D01*
X219999038Y-410706840D01*
X219775767Y-410715341D01*
X219775757Y-410715341D01*
X219551955Y-410723676D01*
X219551936Y-410723677D01*
X219235915Y-410734930D01*
X218908070Y-410746604D01*
X218265905Y-410767917D01*
X218265905Y-410767906D01*
X218265877Y-410767918D01*
X217905475Y-410779007D01*
X217625152Y-410787632D01*
X217625123Y-410787633D01*
X216985568Y-410805757D01*
X216985540Y-410805758D01*
X216346566Y-410822311D01*
X216346538Y-410822312D01*
X215708337Y-410837290D01*
X215708337Y-410837279D01*
X215708309Y-410837291D01*
X215397873Y-410843821D01*
X215070692Y-410850703D01*
X215070664Y-410850704D01*
X214433791Y-410862553D01*
X214433762Y-410862553D01*
X214109647Y-410867796D01*
X213796708Y-410872859D01*
X213796681Y-410872848D01*
X213796681Y-410872859D01*
X213159905Y-410881619D01*
X213159877Y-410881619D01*
X212841597Y-410885230D01*
X212523316Y-410888842D01*
X212523289Y-410888831D01*
X212523289Y-410888842D01*
X211886239Y-410894541D01*
X211886211Y-410894541D01*
X211248107Y-410898725D01*
X211248079Y-410898725D01*
X210609931Y-410901395D01*
X210609903Y-410901395D01*
X210083484Y-410902358D01*
X209970674Y-410902564D01*
X209690628Y-410902421D01*
X209330598Y-410902237D01*
X209330572Y-410902237D01*
X208689437Y-410900424D01*
X208689410Y-410900424D01*
X208046132Y-410897128D01*
X208046105Y-410897128D01*
X207402218Y-410892367D01*
X207402218Y-410892356D01*
X207402193Y-410892367D01*
X207079010Y-410889251D01*
X206755828Y-410886135D01*
X206755802Y-410886135D01*
X206107972Y-410878451D01*
X206107947Y-410878451D01*
X205457557Y-410869313D01*
X205457557Y-410869302D01*
X205457532Y-410869313D01*
X205118417Y-410863816D01*
X204805389Y-410858742D01*
X204805365Y-410858742D01*
X204779179Y-410858262D01*
X204150731Y-410846738D01*
X204150707Y-410846738D01*
X203493360Y-410833308D01*
X203493336Y-410833307D01*
X202833185Y-410818461D01*
X202833161Y-410818460D01*
X202511142Y-410810567D01*
X202169946Y-410802203D01*
X202169924Y-410802193D01*
X202169924Y-410802202D01*
X201503922Y-410784553D01*
X201503899Y-410784552D01*
X201182178Y-410775399D01*
X200833971Y-410765492D01*
X200833950Y-410765482D01*
X200833950Y-410765491D01*
X200160839Y-410745055D01*
X200160817Y-410745054D01*
X199484381Y-410723252D01*
X199484360Y-410723251D01*
X198911128Y-410703727D01*
X198902976Y-410700021D01*
X198899826Y-410692053D01*
X198800181Y-349199290D01*
X198803594Y-349191011D01*
X198811888Y-349187571D01*
X198947500Y-349187658D01*
X199064486Y-349187741D01*
X199181476Y-349187825D01*
X199181477Y-349187825D01*
X199427446Y-349188014D01*
X199605685Y-349188155D01*
X199605689Y-349188155D01*
X199605691Y-349188156D01*
X199799650Y-349188306D01*
X199896626Y-349188381D01*
X199896630Y-349188381D01*
X199896633Y-349188382D01*
X199908625Y-349188390D01*
X199909956Y-349188391D01*
X199909957Y-349188391D01*
X199928285Y-349188405D01*
X199928298Y-349188405D01*
X199928302Y-349188404D01*
X199928309Y-349188403D01*
X200007131Y-349188455D01*
X200164771Y-349188560D01*
X200164784Y-349188561D01*
X200164793Y-349188564D01*
X200181275Y-349188571D01*
X200183038Y-349188572D01*
X200183041Y-349188572D01*
X200196425Y-349188581D01*
X200196447Y-349188581D01*
X200196454Y-349188579D01*
X200196463Y-349188578D01*
X200272832Y-349188612D01*
X200414661Y-349188675D01*
X200414678Y-349188676D01*
X200414690Y-349188680D01*
X200427651Y-349188681D01*
X200429402Y-349188681D01*
X200446290Y-349188689D01*
X200446332Y-349188689D01*
X200446346Y-349188685D01*
X200446364Y-349188683D01*
X200538694Y-349188692D01*
X200650807Y-349188704D01*
X200650830Y-349188706D01*
X200650846Y-349188711D01*
X200650897Y-349188711D01*
X200665539Y-349188705D01*
X200667170Y-349188705D01*
X200682417Y-349188707D01*
X200682474Y-349188707D01*
X200682492Y-349188701D01*
X200682520Y-349188699D01*
X200775686Y-349188664D01*
X200877725Y-349188625D01*
X200877755Y-349188627D01*
X200877776Y-349188634D01*
X200877841Y-349188634D01*
X200893054Y-349188619D01*
X200893061Y-349188619D01*
X200894539Y-349188618D01*
X200909393Y-349188613D01*
X200909415Y-349188606D01*
X200909448Y-349188603D01*
X201002825Y-349188513D01*
X201099937Y-349188419D01*
X201099971Y-349188422D01*
X201099995Y-349188429D01*
X201100069Y-349188429D01*
X201115264Y-349188404D01*
X201115272Y-349188404D01*
X201116784Y-349188403D01*
X201131603Y-349188388D01*
X201131628Y-349188380D01*
X201131665Y-349188377D01*
X201228541Y-349188217D01*
X201321959Y-349188063D01*
X201321994Y-349188066D01*
X201322019Y-349188074D01*
X201322098Y-349188074D01*
X201337083Y-349188038D01*
X201337092Y-349188038D01*
X201338650Y-349188035D01*
X201353623Y-349188011D01*
X201353650Y-349188002D01*
X201353690Y-349187999D01*
X201450992Y-349187768D01*
X201548296Y-349187537D01*
X201548335Y-349187540D01*
X201548362Y-349187549D01*
X201548447Y-349187549D01*
X201564619Y-349187498D01*
X201564629Y-349187498D01*
X201566287Y-349187494D01*
X201579965Y-349187462D01*
X201579991Y-349187454D01*
X201580028Y-349187451D01*
X202103038Y-349185823D01*
X203036987Y-349182916D01*
X203037050Y-349182921D01*
X203037096Y-349182936D01*
X203053018Y-349182867D01*
X203053032Y-349182867D01*
X203054467Y-349182862D01*
X203068647Y-349182818D01*
X203068691Y-349182803D01*
X203068756Y-349182798D01*
X203635628Y-349180328D01*
X204549568Y-349176347D01*
X204549668Y-349176355D01*
X204549739Y-349176377D01*
X204549951Y-349176376D01*
X204549955Y-349176376D01*
X204565633Y-349176277D01*
X204565656Y-349176277D01*
X204581006Y-349176210D01*
X204581007Y-349176210D01*
X204581220Y-349176209D01*
X204581288Y-349176186D01*
X204581390Y-349176178D01*
X206085801Y-349166704D01*
X206085943Y-349166714D01*
X206086036Y-349166743D01*
X206101836Y-349166602D01*
X206101866Y-349166602D01*
X206117164Y-349166506D01*
X206117167Y-349166506D01*
X206117450Y-349166504D01*
X206117544Y-349166473D01*
X206117677Y-349166461D01*
X207645447Y-349152860D01*
X207645613Y-349152871D01*
X207645732Y-349152908D01*
X207646086Y-349152904D01*
X207646091Y-349152904D01*
X207652778Y-349152822D01*
X207661390Y-349152717D01*
X207661428Y-349152733D01*
X207661428Y-349152717D01*
X207677082Y-349152578D01*
X207677198Y-349152539D01*
X207677368Y-349152523D01*
X209147987Y-349134662D01*
X209228217Y-349133688D01*
X209228431Y-349133702D01*
X209228571Y-349133745D01*
X209244406Y-349133492D01*
X209244406Y-349133510D01*
X209244450Y-349133491D01*
X209259860Y-349133304D01*
X209259996Y-349133258D01*
X209260196Y-349133240D01*
X210833901Y-349108065D01*
X210834140Y-349108079D01*
X210834300Y-349108128D01*
X210842409Y-349107962D01*
X210849913Y-349107809D01*
X210849965Y-349107808D01*
X210865051Y-349107567D01*
X210865056Y-349107567D01*
X210865527Y-349107559D01*
X210865686Y-349107504D01*
X210865919Y-349107481D01*
X212462223Y-349074861D01*
X212462482Y-349074875D01*
X212462663Y-349074929D01*
X212469940Y-349074744D01*
X212478011Y-349074539D01*
X212478069Y-349074537D01*
X212493831Y-349074215D01*
X212494009Y-349074153D01*
X212494288Y-349074125D01*
X214112905Y-349032950D01*
X214113206Y-349032965D01*
X214113408Y-349033024D01*
X214128371Y-349032560D01*
X214128963Y-349032542D01*
X214129027Y-349032540D01*
X214144517Y-349032146D01*
X214144713Y-349032077D01*
X214145013Y-349032045D01*
X215785730Y-348981206D01*
X215786059Y-348981221D01*
X215786277Y-348981283D01*
X215801729Y-348980710D01*
X215801801Y-348980708D01*
X215808933Y-348980487D01*
X215817329Y-348980227D01*
X215817546Y-348980149D01*
X215817873Y-348980112D01*
X217095246Y-348932775D01*
X217480425Y-348918501D01*
X217480782Y-348918515D01*
X217481019Y-348918580D01*
X217481709Y-348918550D01*
X217481713Y-348918550D01*
X217496408Y-348917908D01*
X217496485Y-348917905D01*
X217511313Y-348917356D01*
X217511314Y-348917356D01*
X217512013Y-348917330D01*
X217512247Y-348917245D01*
X217512604Y-348917202D01*
X217938832Y-348898602D01*
X219196733Y-348843708D01*
X219197121Y-348843720D01*
X219197379Y-348843790D01*
X219198130Y-348843752D01*
X219198132Y-348843752D01*
X219212878Y-348843004D01*
X219212961Y-348843000D01*
X219220669Y-348842663D01*
X219228315Y-348842330D01*
X219228564Y-348842237D01*
X219228940Y-348842189D01*
X220107374Y-348797643D01*
X220934420Y-348755703D01*
X220934830Y-348755713D01*
X220935103Y-348755784D01*
X220935893Y-348755738D01*
X220935896Y-348755738D01*
X220950430Y-348754891D01*
X220950518Y-348754886D01*
X220956124Y-348754602D01*
X220965980Y-348754102D01*
X220966245Y-348754001D01*
X220966657Y-348753946D01*
X221986633Y-348694521D01*
X222693217Y-348653355D01*
X222693647Y-348653362D01*
X222693938Y-348653436D01*
X222694768Y-348653381D01*
X222694770Y-348653381D01*
X222699431Y-348653072D01*
X222709236Y-348652422D01*
X222724755Y-348651518D01*
X222725036Y-348651408D01*
X222725475Y-348651346D01*
X223606944Y-348592928D01*
X224472863Y-348535540D01*
X224473320Y-348535544D01*
X224473628Y-348535619D01*
X224483912Y-348534850D01*
X224488892Y-348534478D01*
X224488990Y-348534471D01*
X224503496Y-348533510D01*
X224503497Y-348533510D01*
X224504385Y-348533451D01*
X224504682Y-348533332D01*
X224505136Y-348533264D01*
X225752706Y-348440025D01*
X226273111Y-348401132D01*
X226273600Y-348401131D01*
X226273922Y-348401207D01*
X226283134Y-348400436D01*
X226289167Y-348399932D01*
X226289270Y-348399924D01*
X226303699Y-348398846D01*
X226303701Y-348398845D01*
X226304616Y-348398777D01*
X226304925Y-348398651D01*
X226305411Y-348398574D01*
X227882206Y-348266691D01*
X228093707Y-348249001D01*
X228094225Y-348248996D01*
X228094564Y-348249072D01*
X228095478Y-348248987D01*
X228095511Y-348248984D01*
X228109893Y-348247647D01*
X228110001Y-348247638D01*
X228124278Y-348246444D01*
X228124280Y-348246444D01*
X228125195Y-348246367D01*
X228125516Y-348246232D01*
X228126019Y-348246148D01*
X229614963Y-348107720D01*
X229934408Y-348078021D01*
X229934946Y-348078011D01*
X229935302Y-348078087D01*
X229936217Y-348077993D01*
X229936218Y-348077993D01*
X229940552Y-348077548D01*
X229950633Y-348076512D01*
X229965866Y-348075096D01*
X229966199Y-348074953D01*
X229966721Y-348074860D01*
X231794961Y-347887065D01*
X231795511Y-347887049D01*
X231795881Y-347887125D01*
X231810995Y-347885419D01*
X231811111Y-347885406D01*
X231826377Y-347883838D01*
X231826721Y-347883686D01*
X231827276Y-347883582D01*
X233675085Y-347675010D01*
X233675668Y-347674987D01*
X233676049Y-347675061D01*
X233676957Y-347674949D01*
X233676960Y-347674949D01*
X233691182Y-347673193D01*
X233691303Y-347673179D01*
X233693326Y-347672951D01*
X233706471Y-347671467D01*
X233706827Y-347671305D01*
X233707399Y-347671192D01*
X235574549Y-347440724D01*
X235575154Y-347440694D01*
X235575550Y-347440766D01*
X235576458Y-347440644D01*
X235576460Y-347440644D01*
X235590687Y-347438732D01*
X235590812Y-347438716D01*
X235604984Y-347436967D01*
X235604986Y-347436966D01*
X235605897Y-347436854D01*
X235606262Y-347436684D01*
X235606851Y-347436560D01*
X236081241Y-347372810D01*
X237493105Y-347183081D01*
X237493720Y-347183044D01*
X237494132Y-347183114D01*
X237495045Y-347182981D01*
X237509193Y-347180920D01*
X237509321Y-347180902D01*
X237514776Y-347180169D01*
X237524401Y-347178875D01*
X237524777Y-347178695D01*
X237525383Y-347178561D01*
X239430475Y-346900956D01*
X239431118Y-346900910D01*
X239431540Y-346900977D01*
X239446590Y-346898608D01*
X239446617Y-346898604D01*
X239461726Y-346896402D01*
X239462109Y-346896213D01*
X239462738Y-346896066D01*
X240541769Y-346726195D01*
X241386433Y-346593221D01*
X241387085Y-346593166D01*
X241387522Y-346593231D01*
X241388430Y-346593077D01*
X241388432Y-346593077D01*
X241402440Y-346590702D01*
X241402577Y-346590679D01*
X241416714Y-346588454D01*
X241416716Y-346588453D01*
X241417620Y-346588311D01*
X241418012Y-346588112D01*
X241418660Y-346587953D01*
X242566973Y-346393298D01*
X243360692Y-346258752D01*
X243361375Y-346258686D01*
X243361822Y-346258747D01*
X243376758Y-346256029D01*
X243376898Y-346256005D01*
X243376940Y-346255998D01*
X243391830Y-346253474D01*
X243392231Y-346253264D01*
X243392891Y-346253094D01*
X245353035Y-345896417D01*
X245353730Y-345896342D01*
X245354189Y-345896398D01*
X245355092Y-345896222D01*
X245355095Y-345896222D01*
X245369012Y-345893511D01*
X245369154Y-345893484D01*
X245383196Y-345890929D01*
X245383198Y-345890928D01*
X245384101Y-345890764D01*
X245384509Y-345890545D01*
X245385191Y-345890360D01*
X247363178Y-345505094D01*
X247363895Y-345505007D01*
X247364367Y-345505059D01*
X247368245Y-345504253D01*
X247379234Y-345501968D01*
X247379379Y-345501939D01*
X247383906Y-345501057D01*
X247394178Y-345499056D01*
X247394591Y-345498826D01*
X247395276Y-345498631D01*
X249390895Y-345083653D01*
X249391618Y-345083556D01*
X249392101Y-345083603D01*
X249393004Y-345083403D01*
X249393006Y-345083403D01*
X249403055Y-345081177D01*
X249406874Y-345080332D01*
X249406975Y-345080310D01*
X249421808Y-345077225D01*
X249422228Y-345076986D01*
X249422934Y-345076775D01*
X251435905Y-344630970D01*
X251436651Y-344630860D01*
X251437141Y-344630901D01*
X251451867Y-344627435D01*
X251451961Y-344627414D01*
X251466736Y-344624142D01*
X251467162Y-344623891D01*
X251467875Y-344623668D01*
X253497975Y-344145915D01*
X253498729Y-344145794D01*
X253499230Y-344145829D01*
X253513921Y-344142163D01*
X253528708Y-344138683D01*
X253529139Y-344138422D01*
X253529861Y-344138185D01*
X255576842Y-343627365D01*
X255577605Y-343627233D01*
X255578114Y-343627261D01*
X255592749Y-343623396D01*
X255603586Y-343620692D01*
X255606578Y-343619945D01*
X255606579Y-343619945D01*
X255607471Y-343619722D01*
X255607905Y-343619451D01*
X255608644Y-343619198D01*
X256326208Y-343429687D01*
X257672244Y-343074194D01*
X257673021Y-343074047D01*
X257673540Y-343074069D01*
X257688080Y-343070012D01*
X257688199Y-343069980D01*
X257694954Y-343068196D01*
X257702770Y-343066132D01*
X257703206Y-343065851D01*
X257703951Y-343065584D01*
X257762547Y-343049236D01*
X259159783Y-342659410D01*
X259783906Y-342485281D01*
X259784281Y-342485206D01*
X259784546Y-342485216D01*
X259785255Y-342485013D01*
X259785259Y-342485012D01*
X259799430Y-342480951D01*
X259799509Y-342480928D01*
X259813642Y-342476985D01*
X259813644Y-342476984D01*
X259814351Y-342476787D01*
X259814569Y-342476642D01*
X259814932Y-342476508D01*
X259864761Y-342462228D01*
X260085134Y-342399073D01*
X260085143Y-342399073D01*
X260100936Y-342394545D01*
X260115580Y-342390348D01*
X260115584Y-342390345D01*
X260115588Y-342390344D01*
X260263935Y-342347808D01*
X260377961Y-342315113D01*
X260377971Y-342315111D01*
X260377984Y-342315112D01*
X260393634Y-342310620D01*
X260408403Y-342306385D01*
X260408411Y-342306380D01*
X260408427Y-342306374D01*
X260559525Y-342263001D01*
X260663436Y-342233173D01*
X260663452Y-342233170D01*
X260663472Y-342233171D01*
X260663522Y-342233157D01*
X260663525Y-342233156D01*
X260668981Y-342231587D01*
X260678969Y-342228715D01*
X260678973Y-342228716D01*
X260678973Y-342228714D01*
X260681439Y-342228006D01*
X260693872Y-342224437D01*
X260693886Y-342224427D01*
X260693908Y-342224419D01*
X260941953Y-342153095D01*
X260941984Y-342153088D01*
X260942009Y-342153089D01*
X260957521Y-342148618D01*
X260972388Y-342144343D01*
X260972408Y-342144329D01*
X260972433Y-342144320D01*
X261076640Y-342114284D01*
X261213928Y-342074714D01*
X261213974Y-342074704D01*
X261214001Y-342074705D01*
X261228436Y-342070532D01*
X261228444Y-342070530D01*
X261237458Y-342067931D01*
X261244356Y-342065943D01*
X261244383Y-342065924D01*
X261244423Y-342065909D01*
X261479767Y-341997869D01*
X261479812Y-341997860D01*
X261479850Y-341997861D01*
X261494864Y-341993504D01*
X261494875Y-341993505D01*
X261494874Y-341993501D01*
X261510075Y-341989106D01*
X261510074Y-341989106D01*
X261510179Y-341989076D01*
X261510210Y-341989055D01*
X261510263Y-341989035D01*
X261739859Y-341922403D01*
X261739913Y-341922392D01*
X261739961Y-341922394D01*
X261740090Y-341922356D01*
X261740092Y-341922356D01*
X261755115Y-341917976D01*
X261755129Y-341917972D01*
X261770131Y-341913619D01*
X261770137Y-341913617D01*
X261770260Y-341913581D01*
X261770297Y-341913556D01*
X261770359Y-341913532D01*
X261994608Y-341848159D01*
X261994686Y-341848143D01*
X261994736Y-341848144D01*
X261994878Y-341848103D01*
X261994880Y-341848102D01*
X262009648Y-341843774D01*
X262009663Y-341843770D01*
X262019780Y-341840820D01*
X262025005Y-341839297D01*
X262025051Y-341839266D01*
X262025118Y-341839241D01*
X262244442Y-341774966D01*
X262244516Y-341774950D01*
X262244580Y-341774952D01*
X262244760Y-341774899D01*
X262259608Y-341770522D01*
X262259626Y-341770516D01*
X262274640Y-341766116D01*
X262274814Y-341766065D01*
X262274865Y-341766030D01*
X262274947Y-341765999D01*
X262489725Y-341702676D01*
X262489825Y-341702655D01*
X262489896Y-341702656D01*
X262505305Y-341698082D01*
X262520093Y-341693722D01*
X262520150Y-341693683D01*
X262520236Y-341693650D01*
X262730903Y-341631116D01*
X262731005Y-341631094D01*
X262731084Y-341631095D01*
X262746044Y-341626621D01*
X262761022Y-341622175D01*
X262761026Y-341622173D01*
X262761243Y-341622109D01*
X262761307Y-341622065D01*
X262761412Y-341622025D01*
X262968343Y-341560135D01*
X262968464Y-341560109D01*
X262968548Y-341560110D01*
X262983362Y-341555642D01*
X262983364Y-341555648D01*
X262983384Y-341555635D01*
X262998667Y-341551065D01*
X262998740Y-341551014D01*
X262998851Y-341550971D01*
X263202467Y-341489567D01*
X263202596Y-341489539D01*
X263202692Y-341489540D01*
X263217946Y-341484899D01*
X263217975Y-341484902D01*
X263217972Y-341484891D01*
X263232769Y-341480428D01*
X263232844Y-341480376D01*
X263232971Y-341480326D01*
X263433677Y-341419253D01*
X263433818Y-341419222D01*
X263433918Y-341419223D01*
X263448770Y-341414660D01*
X263463952Y-341410040D01*
X263464037Y-341409981D01*
X263464172Y-341409928D01*
X263662362Y-341349035D01*
X263662515Y-341349001D01*
X263662625Y-341349002D01*
X263677757Y-341344305D01*
X263692614Y-341339740D01*
X263692704Y-341339676D01*
X263692841Y-341339622D01*
X263761992Y-341318156D01*
X263888948Y-341278747D01*
X263889104Y-341278712D01*
X263889219Y-341278713D01*
X263889541Y-341278612D01*
X263903965Y-341274086D01*
X263903999Y-341274075D01*
X263919162Y-341269368D01*
X263919259Y-341269300D01*
X263919417Y-341269237D01*
X264113799Y-341208238D01*
X264113975Y-341208197D01*
X264114097Y-341208198D01*
X264114435Y-341208091D01*
X264114438Y-341208090D01*
X264129176Y-341203412D01*
X264129179Y-341203421D01*
X264129212Y-341203401D01*
X264137303Y-341200862D01*
X264143654Y-341198869D01*
X264143657Y-341198868D01*
X264143994Y-341198762D01*
X264144094Y-341198691D01*
X264144249Y-341198628D01*
X264186780Y-341185129D01*
X264337365Y-341137334D01*
X264337532Y-341137295D01*
X264337663Y-341137296D01*
X264352548Y-341132515D01*
X264367512Y-341127766D01*
X264367618Y-341127691D01*
X264367784Y-341127623D01*
X264559998Y-341065890D01*
X264560182Y-341065846D01*
X264560317Y-341065846D01*
X264575235Y-341060996D01*
X264590119Y-341056216D01*
X264590229Y-341056137D01*
X264590405Y-341056064D01*
X264782133Y-340993735D01*
X264782319Y-340993690D01*
X264782459Y-340993689D01*
X264787832Y-340991920D01*
X264797258Y-340988818D01*
X264797299Y-340988804D01*
X264811832Y-340984080D01*
X264811837Y-340984078D01*
X264812215Y-340983955D01*
X264812327Y-340983874D01*
X264812514Y-340983796D01*
X265004152Y-340920714D01*
X265004349Y-340920666D01*
X265004492Y-340920665D01*
X265004882Y-340920535D01*
X265004886Y-340920534D01*
X265019295Y-340915730D01*
X265019337Y-340915716D01*
X265033808Y-340910953D01*
X265033811Y-340910952D01*
X265034202Y-340910823D01*
X265034317Y-340910739D01*
X265034507Y-340910659D01*
X265163242Y-340867742D01*
X265226469Y-340846664D01*
X265226668Y-340846614D01*
X265226814Y-340846613D01*
X265227210Y-340846479D01*
X265227215Y-340846478D01*
X265241666Y-340841598D01*
X265241708Y-340841584D01*
X265256082Y-340836792D01*
X265256478Y-340836660D01*
X265256595Y-340836574D01*
X265256783Y-340836494D01*
X265368662Y-340798715D01*
X265449477Y-340771426D01*
X265449676Y-340771375D01*
X265449827Y-340771373D01*
X265464745Y-340766270D01*
X265479447Y-340761306D01*
X265479565Y-340761218D01*
X265479759Y-340761135D01*
X265673580Y-340694841D01*
X265673785Y-340694788D01*
X265673931Y-340694785D01*
X265674330Y-340694647D01*
X265674333Y-340694646D01*
X265688512Y-340689733D01*
X265688556Y-340689718D01*
X265703093Y-340684746D01*
X265703094Y-340684746D01*
X265703508Y-340684604D01*
X265703628Y-340684514D01*
X265703826Y-340684428D01*
X265866515Y-340628062D01*
X265899174Y-340616747D01*
X265899376Y-340616694D01*
X265899527Y-340616690D01*
X265914244Y-340611525D01*
X265914288Y-340611510D01*
X265928649Y-340606535D01*
X265928652Y-340606534D01*
X265929061Y-340606392D01*
X265929182Y-340606301D01*
X265929375Y-340606216D01*
X266126662Y-340536985D01*
X266126865Y-340536930D01*
X266127015Y-340536926D01*
X266141779Y-340531679D01*
X266156510Y-340526510D01*
X266156631Y-340526418D01*
X266156814Y-340526336D01*
X266356448Y-340455393D01*
X266356647Y-340455339D01*
X266356795Y-340455335D01*
X266357193Y-340455192D01*
X266357196Y-340455191D01*
X266371426Y-340450071D01*
X266371469Y-340450055D01*
X266386252Y-340444802D01*
X266386371Y-340444711D01*
X266386559Y-340444626D01*
X266588920Y-340371818D01*
X266589122Y-340371762D01*
X266589270Y-340371757D01*
X266604125Y-340366347D01*
X266604168Y-340366332D01*
X266618294Y-340361249D01*
X266618689Y-340361107D01*
X266618804Y-340361017D01*
X266618987Y-340360934D01*
X266824502Y-340286090D01*
X266824694Y-340286036D01*
X266824839Y-340286030D01*
X266839524Y-340280618D01*
X266853832Y-340275408D01*
X266853835Y-340275407D01*
X266854224Y-340275265D01*
X266854339Y-340275175D01*
X266854517Y-340275094D01*
X267063569Y-340198057D01*
X267063763Y-340198002D01*
X267063905Y-340197996D01*
X267078755Y-340192461D01*
X267093256Y-340187117D01*
X267093366Y-340187030D01*
X267093540Y-340186949D01*
X267306540Y-340107554D01*
X267306727Y-340107501D01*
X267306866Y-340107494D01*
X267307237Y-340107354D01*
X267307241Y-340107353D01*
X267321660Y-340101918D01*
X267321700Y-340101903D01*
X267335818Y-340096641D01*
X267335819Y-340096641D01*
X267336188Y-340096503D01*
X267336295Y-340096418D01*
X267336467Y-340096338D01*
X267346033Y-340092733D01*
X267553805Y-340014428D01*
X267553970Y-340014380D01*
X267554086Y-340014374D01*
X267568776Y-340008786D01*
X267568779Y-340008793D01*
X267568810Y-340008773D01*
X267583099Y-340003388D01*
X267583103Y-340003386D01*
X267583419Y-340003267D01*
X267583510Y-340003194D01*
X267583661Y-340003123D01*
X267597620Y-339997813D01*
X268031169Y-339832883D01*
X268031370Y-339832823D01*
X268031518Y-339832815D01*
X268046241Y-339827149D01*
X268060740Y-339821633D01*
X268060854Y-339821542D01*
X268061036Y-339821455D01*
X268552367Y-339632360D01*
X268552649Y-339632276D01*
X268552855Y-339632264D01*
X268567313Y-339626609D01*
X268581331Y-339621214D01*
X268581333Y-339621213D01*
X268581876Y-339621004D01*
X268582037Y-339620873D01*
X268582300Y-339620746D01*
X269115763Y-339412081D01*
X269116120Y-339411972D01*
X269116374Y-339411955D01*
X269130786Y-339406205D01*
X269145205Y-339400565D01*
X269145402Y-339400404D01*
X269145732Y-339400243D01*
X269719663Y-339171260D01*
X269720072Y-339171131D01*
X269720363Y-339171110D01*
X269734551Y-339165320D01*
X269734637Y-339165286D01*
X269748238Y-339159860D01*
X269748244Y-339159857D01*
X269749011Y-339159551D01*
X269749240Y-339159361D01*
X269749628Y-339159167D01*
X270362329Y-338909135D01*
X270362786Y-338908987D01*
X270363115Y-338908960D01*
X270377344Y-338903007D01*
X270391580Y-338897198D01*
X270391832Y-338896985D01*
X270392261Y-338896767D01*
X271042061Y-338624931D01*
X271042566Y-338624762D01*
X271042925Y-338624729D01*
X271057016Y-338618675D01*
X271057120Y-338618631D01*
X271060266Y-338617315D01*
X271071207Y-338612738D01*
X271071478Y-338612505D01*
X271071951Y-338612259D01*
X271281451Y-338522252D01*
X271757175Y-338317869D01*
X271757710Y-338317684D01*
X271758096Y-338317644D01*
X271766227Y-338314051D01*
X271772024Y-338311490D01*
X271772134Y-338311442D01*
X271785340Y-338305768D01*
X271785341Y-338305767D01*
X271786189Y-338305403D01*
X271786479Y-338305148D01*
X271786989Y-338304876D01*
X272505938Y-337987182D01*
X272506518Y-337986975D01*
X272506928Y-337986929D01*
X272507767Y-337986547D01*
X272507768Y-337986547D01*
X272520783Y-337980624D01*
X272520900Y-337980571D01*
X272534829Y-337974416D01*
X272535134Y-337974143D01*
X272535676Y-337973847D01*
X273286681Y-337632089D01*
X273287294Y-337631862D01*
X273287725Y-337631808D01*
X273301520Y-337625336D01*
X273315426Y-337619008D01*
X273315747Y-337618714D01*
X273316321Y-337618392D01*
X274097689Y-337251819D01*
X274098340Y-337251569D01*
X274098793Y-337251507D01*
X274103389Y-337249282D01*
X274112521Y-337244862D01*
X274112649Y-337244801D01*
X274113290Y-337244500D01*
X274126286Y-337238403D01*
X274126620Y-337238091D01*
X274127205Y-337237753D01*
X274937292Y-336845587D01*
X274937963Y-336845320D01*
X274938434Y-336845249D01*
X274939980Y-336844476D01*
X274951940Y-336838497D01*
X274952074Y-336838431D01*
X274960654Y-336834277D01*
X274965711Y-336831829D01*
X274966057Y-336831497D01*
X274966674Y-336831130D01*
X275581599Y-336523700D01*
X275803765Y-336412629D01*
X275804467Y-336412339D01*
X275804957Y-336412259D01*
X275818404Y-336405311D01*
X275818505Y-336405260D01*
X275831182Y-336398922D01*
X275832008Y-336398509D01*
X275832362Y-336398160D01*
X275833003Y-336397768D01*
X276695435Y-335952164D01*
X276696159Y-335951853D01*
X276696669Y-335951762D01*
X276697478Y-335951330D01*
X276697480Y-335951329D01*
X276709924Y-335944679D01*
X276710068Y-335944603D01*
X276722665Y-335938095D01*
X276722669Y-335938092D01*
X276723484Y-335937671D01*
X276723846Y-335937304D01*
X276724518Y-335936881D01*
X277034330Y-335771337D01*
X277610595Y-335463417D01*
X277611346Y-335463082D01*
X277611873Y-335462980D01*
X277625051Y-335455694D01*
X277625183Y-335455622D01*
X277638442Y-335448537D01*
X277638814Y-335448151D01*
X277639504Y-335447702D01*
X277735593Y-335394572D01*
X278406457Y-335023631D01*
X278547555Y-334945614D01*
X278548336Y-334945251D01*
X278548878Y-334945138D01*
X278561937Y-334937662D01*
X278562085Y-334937579D01*
X278574380Y-334930781D01*
X278574381Y-334930780D01*
X278575188Y-334930334D01*
X278575566Y-334929929D01*
X278576275Y-334929453D01*
X279504637Y-334397969D01*
X279505434Y-334397585D01*
X279505991Y-334397460D01*
X279506782Y-334396991D01*
X279506784Y-334396990D01*
X279518812Y-334389856D01*
X279518967Y-334389765D01*
X279531233Y-334382743D01*
X279531234Y-334382743D01*
X279532031Y-334382286D01*
X279532417Y-334381861D01*
X279533153Y-334381351D01*
X280480124Y-333819719D01*
X280480944Y-333819308D01*
X280481519Y-333819169D01*
X280494284Y-333811322D01*
X280494340Y-333811288D01*
X280507276Y-333803616D01*
X280507666Y-333803172D01*
X280508417Y-333802634D01*
X280942936Y-333535521D01*
X281472343Y-333210077D01*
X281473180Y-333209640D01*
X281473768Y-333209488D01*
X281486367Y-333201456D01*
X281486448Y-333201406D01*
X281499229Y-333193549D01*
X281499626Y-333193083D01*
X281500395Y-333192513D01*
X281528745Y-333174440D01*
X282479579Y-332568279D01*
X282480437Y-332567813D01*
X282481046Y-332567644D01*
X282493499Y-332559406D01*
X282493647Y-332559310D01*
X282505419Y-332551806D01*
X282506197Y-332551310D01*
X282506596Y-332550826D01*
X282507376Y-332550228D01*
X283500150Y-331893543D01*
X283501041Y-331893040D01*
X283501659Y-331892857D01*
X283513935Y-331884427D01*
X283514080Y-331884329D01*
X283525720Y-331876630D01*
X283525721Y-331876629D01*
X283526486Y-331876123D01*
X283526887Y-331875620D01*
X283527680Y-331874989D01*
X284197995Y-331414697D01*
X284532376Y-331185084D01*
X284533280Y-331184552D01*
X284533914Y-331184352D01*
X284546042Y-331175702D01*
X284546197Y-331175593D01*
X284557648Y-331167730D01*
X284558404Y-331167211D01*
X284558805Y-331166689D01*
X284559615Y-331166022D01*
X285574549Y-330442137D01*
X285575472Y-330441570D01*
X285576119Y-330441353D01*
X285576859Y-330440805D01*
X285576862Y-330440803D01*
X285588021Y-330432531D01*
X285588194Y-330432405D01*
X285599504Y-330424339D01*
X285599510Y-330424333D01*
X285600256Y-330423801D01*
X285600659Y-330423256D01*
X285601480Y-330422555D01*
X285782590Y-330288313D01*
X286624984Y-329663917D01*
X286625921Y-329663317D01*
X286626578Y-329663083D01*
X286638311Y-329654040D01*
X286638468Y-329653921D01*
X286650348Y-329645116D01*
X286650752Y-329644549D01*
X286651586Y-329643809D01*
X287072717Y-329319230D01*
X287681987Y-328849647D01*
X287682931Y-328849019D01*
X287683599Y-328848766D01*
X287684316Y-328848191D01*
X287684318Y-328848190D01*
X287695100Y-328839543D01*
X287695243Y-328839431D01*
X287700514Y-328835368D01*
X287706255Y-328830944D01*
X287706257Y-328830942D01*
X287706986Y-328830380D01*
X287707390Y-328829789D01*
X287708234Y-328829011D01*
X288588618Y-328123044D01*
X288743849Y-327998566D01*
X288744811Y-327997898D01*
X288745488Y-327997626D01*
X288756761Y-327988216D01*
X288756939Y-327988071D01*
X288767757Y-327979395D01*
X288767759Y-327979393D01*
X288768477Y-327978817D01*
X288768878Y-327978206D01*
X288769731Y-327977388D01*
X289808885Y-327109889D01*
X289809862Y-327109181D01*
X289810552Y-327108888D01*
X289821666Y-327099223D01*
X289821842Y-327099072D01*
X289832418Y-327090243D01*
X289833125Y-327089653D01*
X289833522Y-327089022D01*
X289834369Y-327088176D01*
X290875416Y-326182829D01*
X290876399Y-326182086D01*
X290877094Y-326181774D01*
X290887980Y-326171904D01*
X290888158Y-326171747D01*
X290898541Y-326162718D01*
X290899237Y-326162113D01*
X290899632Y-326161456D01*
X290900491Y-326160563D01*
X291941725Y-325216628D01*
X291942718Y-325215844D01*
X291943424Y-325215509D01*
X291944089Y-325214880D01*
X291944092Y-325214878D01*
X291954108Y-325205405D01*
X291954289Y-325205238D01*
X291964434Y-325196041D01*
X291965118Y-325195421D01*
X291965505Y-325194745D01*
X291966360Y-325193819D01*
X293006134Y-324210496D01*
X293007133Y-324209673D01*
X293007842Y-324209317D01*
X293018248Y-324199043D01*
X293018429Y-324198868D01*
X293028404Y-324189435D01*
X293028405Y-324189434D01*
X293029073Y-324188802D01*
X293029454Y-324188103D01*
X293030313Y-324187131D01*
X294066936Y-323163669D01*
X294067941Y-323162803D01*
X294068657Y-323162424D01*
X294078828Y-323151931D01*
X294079006Y-323151751D01*
X294089408Y-323141482D01*
X294089782Y-323140760D01*
X294090633Y-323139755D01*
X295122446Y-322075363D01*
X295123455Y-322074455D01*
X295124173Y-322074054D01*
X295124794Y-322073384D01*
X295124799Y-322073380D01*
X295134094Y-322063353D01*
X295134273Y-322063164D01*
X295143785Y-322053351D01*
X295143787Y-322053348D01*
X295144428Y-322052687D01*
X295144792Y-322051945D01*
X295145644Y-322050892D01*
X295637710Y-321520066D01*
X296170972Y-320944800D01*
X296171842Y-320943981D01*
X296172486Y-320943605D01*
X296176865Y-320938688D01*
X296182298Y-320932586D01*
X296182455Y-320932413D01*
X296191810Y-320922320D01*
X296192437Y-320921644D01*
X296192749Y-320920970D01*
X296193480Y-320920026D01*
X296649064Y-320408366D01*
X296969532Y-320048452D01*
X296970258Y-320047742D01*
X296970813Y-320047405D01*
X296975521Y-320041929D01*
X296980509Y-320036127D01*
X296980643Y-320035974D01*
X296989908Y-320025568D01*
X296989908Y-320025567D01*
X296990524Y-320024876D01*
X296990785Y-320024280D01*
X296991394Y-320023464D01*
X297740129Y-319152504D01*
X297740832Y-319151793D01*
X297741372Y-319151452D01*
X297750936Y-319139934D01*
X297760709Y-319128565D01*
X297760955Y-319127977D01*
X297761539Y-319127163D01*
X298112557Y-318704405D01*
X298483509Y-318257640D01*
X298484183Y-318256935D01*
X298484708Y-318256591D01*
X298485281Y-318255877D01*
X298485284Y-318255874D01*
X298494030Y-318244972D01*
X298494154Y-318244820D01*
X298503082Y-318234067D01*
X298503083Y-318234065D01*
X298503671Y-318233357D01*
X298503904Y-318232773D01*
X298504463Y-318231967D01*
X299200207Y-317364715D01*
X299200857Y-317364011D01*
X299201368Y-317363664D01*
X299210499Y-317351889D01*
X299210609Y-317351749D01*
X299219384Y-317340811D01*
X299219960Y-317340093D01*
X299220179Y-317339515D01*
X299220716Y-317338712D01*
X299547011Y-316917906D01*
X299890775Y-316474570D01*
X299891404Y-316473867D01*
X299891900Y-316473517D01*
X299900917Y-316461490D01*
X299910121Y-316449620D01*
X299910326Y-316449051D01*
X299910839Y-316448255D01*
X299991829Y-316340229D01*
X300555766Y-315588039D01*
X300556367Y-315587344D01*
X300556849Y-315586994D01*
X300565611Y-315574911D01*
X300565722Y-315574761D01*
X300574148Y-315563522D01*
X300574149Y-315563519D01*
X300574703Y-315562781D01*
X300574895Y-315562219D01*
X300575378Y-315561442D01*
X301000263Y-314975518D01*
X301195721Y-314705978D01*
X301196302Y-314705285D01*
X301196767Y-314704936D01*
X301205369Y-314692676D01*
X301205461Y-314692548D01*
X301213714Y-314681166D01*
X301213715Y-314681164D01*
X301214256Y-314680418D01*
X301214436Y-314679864D01*
X301214898Y-314679094D01*
X301286950Y-314576402D01*
X301811191Y-313829221D01*
X301811746Y-313828538D01*
X301812196Y-313828189D01*
X301816424Y-313821962D01*
X301820596Y-313815820D01*
X301820697Y-313815673D01*
X301824255Y-313810601D01*
X301829324Y-313803377D01*
X301829491Y-313802833D01*
X301829934Y-313802069D01*
X302402723Y-312958620D01*
X302403254Y-312957946D01*
X302403688Y-312957598D01*
X302404191Y-312956834D01*
X302404193Y-312956831D01*
X302411925Y-312945070D01*
X302412022Y-312944925D01*
X302420459Y-312932502D01*
X302420614Y-312931966D01*
X302421034Y-312931217D01*
X302970857Y-312095020D01*
X302971369Y-312094351D01*
X302971788Y-312094005D01*
X302979907Y-312081257D01*
X302979992Y-312081126D01*
X302987698Y-312069406D01*
X302988206Y-312068634D01*
X302988349Y-312068111D01*
X302988744Y-312067380D01*
X303516156Y-311239250D01*
X303516641Y-311238597D01*
X303517045Y-311238254D01*
X303524940Y-311225460D01*
X303525028Y-311225319D01*
X303532624Y-311213393D01*
X303532625Y-311213390D01*
X303533115Y-311212621D01*
X303533247Y-311212109D01*
X303533625Y-311211386D01*
X304039152Y-310392171D01*
X304039614Y-310391530D01*
X304040005Y-310391189D01*
X304047801Y-310378156D01*
X304055734Y-310365300D01*
X304055856Y-310364799D01*
X304056210Y-310364097D01*
X304085535Y-310315072D01*
X304540404Y-309554615D01*
X304540842Y-309553989D01*
X304541216Y-309553654D01*
X304548783Y-309540608D01*
X304548857Y-309540482D01*
X304556137Y-309528311D01*
X304556610Y-309527521D01*
X304556723Y-309527030D01*
X304557059Y-309526340D01*
X304607714Y-309439010D01*
X305020448Y-308727442D01*
X305020868Y-308726824D01*
X305021228Y-308726493D01*
X305028652Y-308713298D01*
X305028715Y-308713189D01*
X305035830Y-308700924D01*
X305035832Y-308700919D01*
X305036293Y-308700124D01*
X305036395Y-308699648D01*
X305036710Y-308698980D01*
X305479848Y-307911466D01*
X305480240Y-307910874D01*
X305480585Y-307910548D01*
X305487847Y-307897251D01*
X305495330Y-307883953D01*
X305495424Y-307883486D01*
X305495723Y-307882830D01*
X305919134Y-307107565D01*
X305919509Y-307106983D01*
X305919837Y-307106665D01*
X305920268Y-307105853D01*
X305926920Y-307093310D01*
X305926988Y-307093184D01*
X305933827Y-307080662D01*
X305933828Y-307080660D01*
X305934269Y-307079852D01*
X305934354Y-307079400D01*
X305934635Y-307078762D01*
X306338861Y-306316566D01*
X306339218Y-306315997D01*
X306339531Y-306315687D01*
X306346506Y-306302150D01*
X306353658Y-306288665D01*
X306353735Y-306288229D01*
X306353998Y-306287612D01*
X306739578Y-305539317D01*
X306739916Y-305538763D01*
X306740216Y-305538459D01*
X306747077Y-305524762D01*
X306754047Y-305511236D01*
X306754116Y-305510814D01*
X306754358Y-305510228D01*
X307121837Y-304776647D01*
X307122152Y-304776118D01*
X307122436Y-304775824D01*
X307129136Y-304762074D01*
X307135983Y-304748407D01*
X307136044Y-304748002D01*
X307136273Y-304747431D01*
X307424644Y-304155683D01*
X307486178Y-304029414D01*
X307486469Y-304028913D01*
X307486740Y-304028627D01*
X307493310Y-304014778D01*
X307500013Y-304001024D01*
X307500067Y-304000635D01*
X307500277Y-304000093D01*
X307833150Y-303298464D01*
X307833421Y-303297986D01*
X307833676Y-303297712D01*
X307840079Y-303283860D01*
X307846688Y-303269930D01*
X307846736Y-303269558D01*
X307846935Y-303269029D01*
X308163294Y-302584651D01*
X308163552Y-302584187D01*
X308163791Y-302583924D01*
X308170118Y-302569890D01*
X308176552Y-302555971D01*
X308176594Y-302555620D01*
X308176773Y-302555128D01*
X308477170Y-301888797D01*
X308477407Y-301888360D01*
X308477630Y-301888110D01*
X308483854Y-301873968D01*
X308490156Y-301859990D01*
X308490193Y-301859658D01*
X308490356Y-301859197D01*
X308775319Y-301211755D01*
X308775536Y-301211348D01*
X308775741Y-301211114D01*
X308781820Y-301196984D01*
X308788048Y-301182834D01*
X308788080Y-301182520D01*
X308788227Y-301182092D01*
X309058285Y-300554374D01*
X309058480Y-300554001D01*
X309058671Y-300553781D01*
X309064672Y-300539530D01*
X309070775Y-300525345D01*
X309070801Y-300525057D01*
X309070935Y-300524659D01*
X309326613Y-299917509D01*
X309326790Y-299917164D01*
X309326962Y-299916962D01*
X309332879Y-299902630D01*
X309338882Y-299888375D01*
X309338904Y-299888112D01*
X309339023Y-299887748D01*
X309580860Y-299301982D01*
X309581011Y-299301681D01*
X309581164Y-299301500D01*
X309582972Y-299297042D01*
X309586956Y-299287218D01*
X309586983Y-299287150D01*
X309592666Y-299273385D01*
X309592666Y-299273383D01*
X309592921Y-299272767D01*
X309592939Y-299272530D01*
X309593044Y-299272203D01*
X309821554Y-298708677D01*
X309821689Y-298708405D01*
X309821819Y-298708248D01*
X309827574Y-298693828D01*
X309827585Y-298693833D01*
X309827598Y-298693768D01*
X309833213Y-298679922D01*
X309833437Y-298679370D01*
X309833452Y-298679162D01*
X309833541Y-298678878D01*
X310049251Y-298138414D01*
X310049361Y-298138189D01*
X310049471Y-298138056D01*
X310049652Y-298137595D01*
X310049655Y-298137590D01*
X310055193Y-298123524D01*
X310055213Y-298123474D01*
X310060791Y-298109499D01*
X310060976Y-298109036D01*
X310060987Y-298108862D01*
X310061059Y-298108629D01*
X310264491Y-297592054D01*
X310264576Y-297591880D01*
X310264661Y-297591776D01*
X310264800Y-297591419D01*
X310264803Y-297591413D01*
X310270368Y-297577131D01*
X310270375Y-297577134D01*
X310270383Y-297577092D01*
X310275942Y-297562978D01*
X310275943Y-297562974D01*
X310276085Y-297562614D01*
X310276093Y-297562480D01*
X310276149Y-297562296D01*
X310467818Y-297070454D01*
X310467877Y-297070331D01*
X310467933Y-297070262D01*
X310473609Y-297055593D01*
X310479312Y-297040958D01*
X310479317Y-297040867D01*
X310479354Y-297040744D01*
X310659778Y-296574444D01*
X310659838Y-296574318D01*
X310659899Y-296574243D01*
X310659998Y-296573986D01*
X310660001Y-296573979D01*
X310665561Y-296559496D01*
X310665572Y-296559468D01*
X310671099Y-296545184D01*
X310671199Y-296544926D01*
X310671204Y-296544830D01*
X310671244Y-296544696D01*
X310693095Y-296487792D01*
X310766439Y-296296783D01*
X310766519Y-296296613D01*
X310766603Y-296296509D01*
X310772154Y-296281899D01*
X310777779Y-296267249D01*
X310777786Y-296267115D01*
X310777842Y-296266927D01*
X310871083Y-296021507D01*
X310871165Y-296021332D01*
X310871247Y-296021229D01*
X310876789Y-296006488D01*
X310876804Y-296006450D01*
X310882185Y-295992284D01*
X310882321Y-295991926D01*
X310882328Y-295991793D01*
X310882378Y-295991620D01*
X310973693Y-295748714D01*
X310973766Y-295748557D01*
X310973849Y-295748453D01*
X310979276Y-295733864D01*
X310984823Y-295719108D01*
X310984829Y-295718977D01*
X310984881Y-295718795D01*
X311074266Y-295478498D01*
X311074341Y-295478336D01*
X311074422Y-295478233D01*
X311079818Y-295463573D01*
X311085296Y-295448847D01*
X311085301Y-295448716D01*
X311085350Y-295448543D01*
X311172832Y-295210883D01*
X311172905Y-295210725D01*
X311172985Y-295210621D01*
X311178373Y-295195828D01*
X311178403Y-295195796D01*
X311178387Y-295195790D01*
X311183634Y-295181535D01*
X311183760Y-295181194D01*
X311183765Y-295181068D01*
X311183815Y-295180890D01*
X311269401Y-294945930D01*
X311269476Y-294945763D01*
X311269553Y-294945665D01*
X311274860Y-294930942D01*
X311280231Y-294916198D01*
X311280235Y-294916072D01*
X311280282Y-294915903D01*
X311363994Y-294683680D01*
X311364066Y-294683520D01*
X311364143Y-294683420D01*
X311369448Y-294668550D01*
X311374724Y-294653914D01*
X311374728Y-294653790D01*
X311374774Y-294653620D01*
X311456626Y-294424188D01*
X311456696Y-294424031D01*
X311456770Y-294423934D01*
X311461917Y-294409356D01*
X311467257Y-294394389D01*
X311467261Y-294394266D01*
X311467308Y-294394090D01*
X311547310Y-294167516D01*
X311547380Y-294167358D01*
X311547453Y-294167261D01*
X311552590Y-294152562D01*
X311552595Y-294152564D01*
X311552601Y-294152530D01*
X311557845Y-294137679D01*
X311557848Y-294137555D01*
X311557891Y-294137392D01*
X311636064Y-293913703D01*
X311636132Y-293913547D01*
X311636206Y-293913450D01*
X311641351Y-293898576D01*
X311646504Y-293883831D01*
X311646507Y-293883711D01*
X311646550Y-293883547D01*
X311676770Y-293796181D01*
X311722908Y-293662797D01*
X311722972Y-293662651D01*
X311723045Y-293662554D01*
X311728145Y-293647659D01*
X311733251Y-293632898D01*
X311733253Y-293632780D01*
X311733295Y-293632619D01*
X311807851Y-293414874D01*
X311807919Y-293414716D01*
X311807989Y-293414622D01*
X311813073Y-293399623D01*
X311818103Y-293384932D01*
X311818104Y-293384816D01*
X311818144Y-293384660D01*
X311890921Y-293169943D01*
X311890983Y-293169799D01*
X311891051Y-293169707D01*
X311895989Y-293154990D01*
X311901076Y-293139982D01*
X311901077Y-293139868D01*
X311901119Y-293139703D01*
X311972121Y-292928098D01*
X311972184Y-292927949D01*
X311972250Y-292927860D01*
X311977140Y-292913140D01*
X311982186Y-292898101D01*
X311982187Y-292897984D01*
X311982224Y-292897832D01*
X312042582Y-292716134D01*
X312051474Y-292689367D01*
X312051536Y-292689219D01*
X312051601Y-292689131D01*
X312051700Y-292688831D01*
X312051703Y-292688823D01*
X312056417Y-292674488D01*
X312056428Y-292674455D01*
X312061344Y-292659656D01*
X312061345Y-292659653D01*
X312061449Y-292659339D01*
X312061450Y-292659224D01*
X312061488Y-292659068D01*
X312128992Y-292453814D01*
X312129055Y-292453663D01*
X312129121Y-292453573D01*
X312134052Y-292438432D01*
X312138881Y-292423747D01*
X312138882Y-292423636D01*
X312138917Y-292423491D01*
X312154176Y-292376631D01*
X312204704Y-292221457D01*
X312204760Y-292221324D01*
X312204824Y-292221236D01*
X312209571Y-292206513D01*
X312214500Y-292191377D01*
X312214500Y-292191267D01*
X312214537Y-292191112D01*
X312278608Y-291992406D01*
X312278668Y-291992259D01*
X312278731Y-291992171D01*
X312283563Y-291977038D01*
X312288321Y-291962281D01*
X312288321Y-291962175D01*
X312288356Y-291962027D01*
X312350736Y-291766653D01*
X312350792Y-291766515D01*
X312350853Y-291766430D01*
X312355530Y-291751640D01*
X312360361Y-291736508D01*
X312360360Y-291736401D01*
X312360395Y-291736252D01*
X312421095Y-291544285D01*
X312421150Y-291544149D01*
X312421210Y-291544064D01*
X312421300Y-291543778D01*
X312421302Y-291543772D01*
X312425909Y-291529061D01*
X312425918Y-291529031D01*
X312430545Y-291514397D01*
X312430545Y-291514396D01*
X312430635Y-291514112D01*
X312430634Y-291514011D01*
X312430669Y-291513861D01*
X312489703Y-291325347D01*
X312489759Y-291325207D01*
X312489817Y-291325124D01*
X312494458Y-291310160D01*
X312499161Y-291295143D01*
X312499160Y-291295039D01*
X312499192Y-291294900D01*
X312556579Y-291109877D01*
X312556632Y-291109745D01*
X312556691Y-291109661D01*
X312561336Y-291094542D01*
X312565955Y-291079650D01*
X312565954Y-291079550D01*
X312565985Y-291079410D01*
X312621739Y-290897939D01*
X312621791Y-290897807D01*
X312621846Y-290897727D01*
X312626377Y-290882840D01*
X312631032Y-290867688D01*
X312631031Y-290867587D01*
X312631061Y-290867450D01*
X312685196Y-290689581D01*
X312685247Y-290689451D01*
X312685301Y-290689373D01*
X312689803Y-290674442D01*
X312694410Y-290659305D01*
X312694408Y-290659206D01*
X312694437Y-290659071D01*
X312746969Y-290484853D01*
X312747018Y-290484727D01*
X312747071Y-290484650D01*
X312747149Y-290484390D01*
X312747151Y-290484384D01*
X312751517Y-290469766D01*
X312751526Y-290469736D01*
X312756023Y-290454823D01*
X312756104Y-290454555D01*
X312756102Y-290454460D01*
X312756132Y-290454321D01*
X312807070Y-290283817D01*
X312807120Y-290283687D01*
X312807173Y-290283610D01*
X312811633Y-290268542D01*
X312816131Y-290253488D01*
X312816129Y-290253394D01*
X312816156Y-290253267D01*
X312865523Y-290086501D01*
X312865569Y-290086382D01*
X312865622Y-290086304D01*
X312870076Y-290071121D01*
X312874507Y-290056154D01*
X312874505Y-290056061D01*
X312874531Y-290055937D01*
X312922343Y-289892964D01*
X312922410Y-289892789D01*
X312922486Y-289892676D01*
X312922594Y-289892304D01*
X312922596Y-289892298D01*
X312926860Y-289877570D01*
X312926871Y-289877531D01*
X312931141Y-289862977D01*
X312931142Y-289862971D01*
X312931249Y-289862607D01*
X312931245Y-289862475D01*
X312931285Y-289862285D01*
X313031083Y-289517574D01*
X313031170Y-289517342D01*
X313031266Y-289517199D01*
X313035543Y-289502170D01*
X313039879Y-289487192D01*
X313039873Y-289487019D01*
X313039923Y-289486774D01*
X313064242Y-289401315D01*
X313129060Y-289173536D01*
X313130755Y-289170817D01*
X313130455Y-289170644D01*
X313131380Y-289169040D01*
X313132756Y-289167799D01*
X313138703Y-289139744D01*
X313138896Y-289138968D01*
X313141931Y-289128303D01*
X313141931Y-289128301D01*
X313142184Y-289127413D01*
X313142150Y-289126488D01*
X313142109Y-289125373D01*
X313142355Y-289122519D01*
X313142588Y-289121421D01*
X313142588Y-289121413D01*
X313142778Y-289120519D01*
X313141514Y-289108554D01*
X313141458Y-289107770D01*
X313140399Y-289079115D01*
X313139254Y-289077656D01*
X313138617Y-289075917D01*
X313138943Y-289075798D01*
X313137738Y-289072828D01*
X313105205Y-288764944D01*
X313105191Y-288764811D01*
X313072190Y-288413969D01*
X313072178Y-288413830D01*
X313042446Y-288051693D01*
X313042435Y-288051551D01*
X313016388Y-287678429D01*
X313016379Y-287678282D01*
X312994427Y-287294351D01*
X312994419Y-287294200D01*
X312976959Y-286899443D01*
X312976955Y-286899327D01*
X312970057Y-286698397D01*
X312970054Y-286698319D01*
X312964428Y-286494585D01*
X312964460Y-286494584D01*
X312964426Y-286494505D01*
X312960136Y-286288371D01*
X312960134Y-286288291D01*
X312957225Y-286079463D01*
X312957224Y-286079382D01*
X312957219Y-286078567D01*
X312955752Y-285868274D01*
X312955766Y-285654616D01*
X312957319Y-285438523D01*
X312960466Y-285219870D01*
X312965252Y-284999105D01*
X312971733Y-284775953D01*
X312979956Y-284550606D01*
X312989985Y-284322798D01*
X312990476Y-284313302D01*
X313001853Y-284092945D01*
X313001858Y-284092855D01*
X313015623Y-283860870D01*
X313015628Y-283860779D01*
X313031348Y-283626563D01*
X313031355Y-283626472D01*
X313049067Y-283390242D01*
X313049074Y-283390150D01*
X313068853Y-283151646D01*
X313068861Y-283151553D01*
X313090742Y-282911015D01*
X313090751Y-282910921D01*
X313114796Y-282668262D01*
X313114806Y-282668168D01*
X313141047Y-282423629D01*
X313141057Y-282423535D01*
X313145380Y-282386083D01*
X313168324Y-282187322D01*
X313197185Y-281953420D01*
X313198438Y-281943882D01*
X313227573Y-281721986D01*
X313227585Y-281721896D01*
X313259479Y-281492700D01*
X313259491Y-281492612D01*
X313292827Y-281265755D01*
X313292841Y-281265667D01*
X313327533Y-281041408D01*
X313327546Y-281041322D01*
X313363611Y-280819219D01*
X313363626Y-280819133D01*
X313400947Y-280599618D01*
X313400961Y-280599533D01*
X313439523Y-280382387D01*
X313439538Y-280382304D01*
X313479274Y-280167631D01*
X313479290Y-280167548D01*
X313486435Y-280130442D01*
X313520178Y-279955216D01*
X313562112Y-279745516D01*
X313567264Y-279720668D01*
X313605110Y-279538111D01*
X313605160Y-279538038D01*
X313605127Y-279538031D01*
X313649081Y-279333228D01*
X313649099Y-279333149D01*
X313693938Y-279131032D01*
X313693955Y-279130954D01*
X313704031Y-279086959D01*
X313739719Y-278931132D01*
X313786257Y-278734052D01*
X313833558Y-278539562D01*
X313930333Y-278158024D01*
X313930371Y-278157879D01*
X314029519Y-277787094D01*
X314029558Y-277786952D01*
X314130738Y-277426769D01*
X314220531Y-277121519D01*
X314233545Y-277077278D01*
X314233585Y-277077145D01*
X314337542Y-276738688D01*
X314337582Y-276738559D01*
X314442354Y-276411001D01*
X314442395Y-276410876D01*
X314458139Y-276363495D01*
X314546421Y-276097813D01*
X314546702Y-276097057D01*
X314551231Y-276086117D01*
X314551405Y-276083896D01*
X314551966Y-276081123D01*
X314552671Y-276079002D01*
X314552749Y-276067149D01*
X314552785Y-276066317D01*
X314560603Y-275966765D01*
X314570436Y-275841536D01*
X314589160Y-275606011D01*
X314608577Y-275364843D01*
X314629090Y-275113332D01*
X314650287Y-274856818D01*
X314657533Y-274770291D01*
X314672522Y-274591295D01*
X314672523Y-274591282D01*
X314695477Y-274320840D01*
X314695478Y-274320826D01*
X314719411Y-274042649D01*
X314719412Y-274042635D01*
X314744301Y-273757272D01*
X314744302Y-273757258D01*
X314770072Y-273465837D01*
X314770073Y-273465823D01*
X314770279Y-273463533D01*
X314796898Y-273166656D01*
X314824642Y-272861518D01*
X314853405Y-272549586D01*
X314883136Y-272231654D01*
X314913980Y-271906435D01*
X314945752Y-271576127D01*
X314945759Y-271576113D01*
X314945753Y-271576112D01*
X314965838Y-271370230D01*
X314978680Y-271238595D01*
X315012697Y-270894835D01*
X315012704Y-270894821D01*
X315012698Y-270894820D01*
X315047705Y-270546031D01*
X315047707Y-270546014D01*
X315077753Y-270250875D01*
X315083909Y-270190403D01*
X315121194Y-269829325D01*
X315159646Y-269462196D01*
X315159655Y-269462180D01*
X315159648Y-269462179D01*
X315199214Y-269089737D01*
X315199216Y-269089720D01*
X315239974Y-268711459D01*
X315239976Y-268711441D01*
X315281951Y-268327398D01*
X315281953Y-268327380D01*
X315325090Y-267938255D01*
X315325092Y-267938237D01*
X315369481Y-267543471D01*
X315369483Y-267543452D01*
X315415132Y-267143191D01*
X315415134Y-267143173D01*
X315462071Y-266737394D01*
X315462072Y-266737394D01*
X315462073Y-266737375D01*
X315510156Y-266327535D01*
X315510158Y-266327516D01*
X315559638Y-265911695D01*
X315559640Y-265911675D01*
X315610331Y-265491642D01*
X315610332Y-265491642D01*
X315610333Y-265491624D01*
X315615255Y-265451385D01*
X315627623Y-265350256D01*
X315655409Y-265123071D01*
X315655411Y-265123052D01*
X315698617Y-264774312D01*
X315698619Y-264774294D01*
X315740083Y-264443990D01*
X315740084Y-264443990D01*
X315740085Y-264443971D01*
X315779938Y-264130688D01*
X315779948Y-264130670D01*
X315779940Y-264130669D01*
X315818246Y-263833510D01*
X315818247Y-263833510D01*
X315818248Y-263833491D01*
X315819545Y-263823567D01*
X315855097Y-263551396D01*
X315855107Y-263551378D01*
X315855099Y-263551377D01*
X315890675Y-263282490D01*
X315890676Y-263282490D01*
X315890677Y-263282478D01*
X315925132Y-263025278D01*
X315958446Y-262779495D01*
X315990716Y-262543979D01*
X316022196Y-262316433D01*
X316052867Y-262096550D01*
X316082867Y-261882901D01*
X316112317Y-261674154D01*
X316112320Y-261674150D01*
X316112318Y-261674150D01*
X316143033Y-261457013D01*
X316167723Y-261282558D01*
X316167726Y-261282547D01*
X316167730Y-261282538D01*
X316169976Y-261266639D01*
X316169977Y-261266636D01*
X316169976Y-261266636D01*
X316172161Y-261251199D01*
X316172160Y-261251190D01*
X316172161Y-261251173D01*
X316196144Y-261081383D01*
X316196151Y-261081350D01*
X316196162Y-261081329D01*
X316198470Y-261064921D01*
X316200575Y-261050020D01*
X316200571Y-261049999D01*
X316200573Y-261049971D01*
X316224446Y-260880269D01*
X316224455Y-260880225D01*
X316224470Y-260880195D01*
X316226717Y-260864120D01*
X316226722Y-260864111D01*
X316226718Y-260864110D01*
X316228843Y-260849006D01*
X316228843Y-260849005D01*
X316228856Y-260848913D01*
X316228850Y-260848882D01*
X316228853Y-260848834D01*
X316230530Y-260836840D01*
X316252729Y-260678019D01*
X316252742Y-260677961D01*
X316252760Y-260677923D01*
X316252778Y-260677797D01*
X316254849Y-260662849D01*
X316254851Y-260662835D01*
X316257092Y-260646798D01*
X316257111Y-260646665D01*
X316257103Y-260646621D01*
X316257107Y-260646557D01*
X316276496Y-260506641D01*
X316281100Y-260473424D01*
X316281117Y-260473345D01*
X316281141Y-260473295D01*
X316283370Y-260457038D01*
X316283371Y-260457038D01*
X316283372Y-260457021D01*
X316285424Y-260442216D01*
X316285446Y-260442058D01*
X316285437Y-260442005D01*
X316285441Y-260441938D01*
X316309670Y-260265236D01*
X316309688Y-260265154D01*
X316309714Y-260265098D01*
X316311797Y-260249711D01*
X316311808Y-260249693D01*
X316311800Y-260249692D01*
X316313944Y-260234057D01*
X316313969Y-260233876D01*
X316313958Y-260233816D01*
X316313964Y-260233720D01*
X316338536Y-260052276D01*
X316338557Y-260052181D01*
X316338586Y-260052119D01*
X316340661Y-260036580D01*
X316342784Y-260020907D01*
X316342771Y-260020838D01*
X316342777Y-260020741D01*
X316367811Y-259833312D01*
X316367832Y-259833211D01*
X316367864Y-259833145D01*
X316369879Y-259817825D01*
X316372001Y-259801940D01*
X316371987Y-259801865D01*
X316371993Y-259801757D01*
X316397594Y-259607141D01*
X316397617Y-259607035D01*
X316397651Y-259606963D01*
X316399691Y-259591205D01*
X316401723Y-259575758D01*
X316401709Y-259575683D01*
X316401715Y-259575573D01*
X316427998Y-259372537D01*
X316428020Y-259372432D01*
X316428055Y-259372358D01*
X316430005Y-259357039D01*
X316432062Y-259341150D01*
X316432047Y-259341069D01*
X316432053Y-259340953D01*
X316459123Y-259128303D01*
X316459146Y-259128191D01*
X316459181Y-259128116D01*
X316461168Y-259112234D01*
X316463120Y-259096902D01*
X316463106Y-259096826D01*
X316463111Y-259096712D01*
X316491077Y-258873209D01*
X316491100Y-258873094D01*
X316491133Y-258873024D01*
X316493021Y-258857671D01*
X316493022Y-258857671D01*
X316493024Y-258857646D01*
X316494977Y-258842042D01*
X316494977Y-258842037D01*
X316495007Y-258841799D01*
X316494991Y-258841717D01*
X316494996Y-258841609D01*
X316523964Y-258606044D01*
X316523985Y-258605942D01*
X316524019Y-258605867D01*
X316525926Y-258590086D01*
X316527827Y-258574630D01*
X316527812Y-258574554D01*
X316527817Y-258574446D01*
X316557893Y-258325603D01*
X316557915Y-258325495D01*
X316557946Y-258325426D01*
X316559790Y-258309907D01*
X316561691Y-258294177D01*
X316561676Y-258294100D01*
X316561680Y-258294001D01*
X316577324Y-258162327D01*
X316592968Y-258030660D01*
X316592989Y-258030554D01*
X316593018Y-258030490D01*
X316594832Y-258014963D01*
X316596702Y-257999225D01*
X316596687Y-257999152D01*
X316596691Y-257999051D01*
X316629296Y-257720000D01*
X316629315Y-257719905D01*
X316629344Y-257719840D01*
X316631161Y-257704033D01*
X316631171Y-257704015D01*
X316631163Y-257704014D01*
X316632969Y-257688559D01*
X316632955Y-257688492D01*
X316632959Y-257688391D01*
X316666984Y-257392407D01*
X316667007Y-257392290D01*
X316667041Y-257392214D01*
X316668810Y-257376515D01*
X316670598Y-257360963D01*
X316670581Y-257360881D01*
X316670585Y-257360764D01*
X316679791Y-257279077D01*
X316721959Y-256904914D01*
X316721986Y-256904774D01*
X316722029Y-256904678D01*
X316723713Y-256889346D01*
X316725502Y-256873475D01*
X316725480Y-256873368D01*
X316725485Y-256873219D01*
X316772601Y-256444344D01*
X316772631Y-256444185D01*
X316772677Y-256444083D01*
X316774363Y-256428305D01*
X316776057Y-256412886D01*
X316776034Y-256412776D01*
X316776038Y-256412624D01*
X316811775Y-256078208D01*
X316819200Y-256008732D01*
X316819230Y-256008570D01*
X316819278Y-256008461D01*
X316820904Y-255992784D01*
X316822562Y-255977268D01*
X316822538Y-255977154D01*
X316822542Y-255976990D01*
X316862043Y-255596127D01*
X316862073Y-255595959D01*
X316862124Y-255595844D01*
X316863713Y-255580019D01*
X316863733Y-255579983D01*
X316863717Y-255579981D01*
X316865271Y-255564999D01*
X316865307Y-255564653D01*
X316865282Y-255564535D01*
X316865286Y-255564360D01*
X316865751Y-255559738D01*
X316901425Y-255204556D01*
X316901456Y-255204381D01*
X316901507Y-255204264D01*
X316903030Y-255188575D01*
X316904587Y-255173073D01*
X316904561Y-255172951D01*
X316904564Y-255172775D01*
X316937638Y-254832057D01*
X316937670Y-254831872D01*
X316937722Y-254831753D01*
X316939201Y-254815959D01*
X316940696Y-254800559D01*
X316940669Y-254800436D01*
X316940672Y-254800257D01*
X316970977Y-254476644D01*
X316971008Y-254476466D01*
X316971058Y-254476348D01*
X316972457Y-254460836D01*
X316973927Y-254445144D01*
X316973899Y-254445016D01*
X316973901Y-254444837D01*
X316985393Y-254317464D01*
X317001730Y-254136375D01*
X317001759Y-254136201D01*
X317001809Y-254136084D01*
X317003164Y-254120481D01*
X317004573Y-254104864D01*
X317004545Y-254104741D01*
X317004547Y-254104560D01*
X317030191Y-253809279D01*
X317030219Y-253809109D01*
X317030266Y-253808997D01*
X317031583Y-253793239D01*
X317032928Y-253777757D01*
X317032901Y-253777641D01*
X317032902Y-253777468D01*
X317056653Y-253493387D01*
X317056679Y-253493228D01*
X317056722Y-253493124D01*
X317057971Y-253477620D01*
X317059289Y-253461856D01*
X317059262Y-253461744D01*
X317059263Y-253461581D01*
X317081405Y-253186743D01*
X317081428Y-253186600D01*
X317081467Y-253186504D01*
X317082681Y-253170899D01*
X317083946Y-253155199D01*
X317083921Y-253155096D01*
X317083921Y-253154954D01*
X317104741Y-252887380D01*
X317104761Y-252887253D01*
X317104795Y-252887170D01*
X317105984Y-252871406D01*
X317107176Y-252856085D01*
X317107176Y-252856082D01*
X317107196Y-252855825D01*
X317107175Y-252855738D01*
X317107175Y-252855611D01*
X317123909Y-252633697D01*
X317126952Y-252593331D01*
X317126968Y-252593232D01*
X317126995Y-252593164D01*
X317128126Y-252577766D01*
X317129332Y-252561770D01*
X317129314Y-252561697D01*
X317129314Y-252561593D01*
X317148331Y-252302645D01*
X317148342Y-252302569D01*
X317148363Y-252302518D01*
X317149493Y-252286819D01*
X317150649Y-252271073D01*
X317150636Y-252271018D01*
X317150635Y-252270938D01*
X317169170Y-252013352D01*
X317169178Y-252013300D01*
X317169192Y-252013265D01*
X317170328Y-251997260D01*
X317171443Y-251981765D01*
X317171434Y-251981731D01*
X317171434Y-251981682D01*
X317189762Y-251723470D01*
X317189765Y-251723452D01*
X317189771Y-251723436D01*
X317190882Y-251707684D01*
X317192004Y-251691882D01*
X317192000Y-251691866D01*
X317192000Y-251691843D01*
X317211780Y-251411495D01*
X317211780Y-251411493D01*
X317232582Y-251117072D01*
X317232583Y-251117065D01*
X317254121Y-250814814D01*
X317254127Y-250814802D01*
X317254122Y-250814802D01*
X317276685Y-250502832D01*
X317276693Y-250502833D01*
X317276686Y-250502815D01*
X317278909Y-250472693D01*
X317300449Y-250180802D01*
X317300458Y-250180783D01*
X317300450Y-250180782D01*
X317325735Y-249846350D01*
X317325737Y-249846326D01*
X317352864Y-249497158D01*
X317352866Y-249497131D01*
X317382108Y-249131568D01*
X317382109Y-249131568D01*
X317382110Y-249131540D01*
X317382168Y-249130843D01*
X317413766Y-248747496D01*
X317448110Y-248343281D01*
X317450981Y-248310492D01*
X317485426Y-247916977D01*
X317485441Y-247916948D01*
X317485429Y-247916947D01*
X317526060Y-247466062D01*
X317526063Y-247466032D01*
X317536807Y-247350080D01*
X317570270Y-246988950D01*
X317618358Y-246483572D01*
X317618372Y-246483546D01*
X317618361Y-246483545D01*
X317670558Y-245948562D01*
X317670561Y-245948535D01*
X317727280Y-245380801D01*
X317727282Y-245380777D01*
X317778873Y-244875084D01*
X317778876Y-244875060D01*
X317828483Y-244398422D01*
X317828485Y-244398398D01*
X317876166Y-243949371D01*
X317876169Y-243949346D01*
X317913536Y-243604457D01*
X317922035Y-243526011D01*
X317966202Y-243126402D01*
X318008641Y-242749844D01*
X318008654Y-242749820D01*
X318008644Y-242749819D01*
X318049486Y-242394199D01*
X318049489Y-242394175D01*
X318088848Y-242057573D01*
X318088851Y-242057551D01*
X318126822Y-241738200D01*
X318126824Y-241738179D01*
X318163311Y-241435900D01*
X318163312Y-241435900D01*
X318163313Y-241435882D01*
X318198644Y-241146981D01*
X318198652Y-241146967D01*
X318198646Y-241146966D01*
X318232761Y-240870962D01*
X318232762Y-240870951D01*
X318265694Y-240606546D01*
X318265697Y-240606540D01*
X318265695Y-240606540D01*
X318298844Y-240341569D01*
X318326738Y-240118720D01*
X318326742Y-240118702D01*
X318326750Y-240118686D01*
X318328760Y-240102569D01*
X318330672Y-240087297D01*
X318330669Y-240087282D01*
X318330670Y-240087262D01*
X318356874Y-239877183D01*
X318356884Y-239877133D01*
X318356901Y-239877097D01*
X318358902Y-239860923D01*
X318360794Y-239845759D01*
X318360788Y-239845725D01*
X318360790Y-239845673D01*
X318386223Y-239640148D01*
X318386241Y-239640060D01*
X318386265Y-239640008D01*
X318388221Y-239624001D01*
X318388222Y-239624001D01*
X318388223Y-239623983D01*
X318390091Y-239608890D01*
X318390112Y-239608720D01*
X318390101Y-239608664D01*
X318390104Y-239608591D01*
X318414865Y-239405964D01*
X318414887Y-239405856D01*
X318414919Y-239405786D01*
X318416798Y-239390139D01*
X318418704Y-239374544D01*
X318418689Y-239374469D01*
X318418694Y-239374361D01*
X318442876Y-239173019D01*
X318442902Y-239172887D01*
X318442943Y-239172799D01*
X318444764Y-239157303D01*
X318446650Y-239141599D01*
X318446631Y-239141505D01*
X318446637Y-239141362D01*
X318470335Y-238939681D01*
X318470366Y-238939521D01*
X318470414Y-238939417D01*
X318472204Y-238923772D01*
X318474028Y-238908252D01*
X318474006Y-238908140D01*
X318474012Y-238907980D01*
X318497319Y-238704312D01*
X318497354Y-238704130D01*
X318497406Y-238704014D01*
X318499128Y-238688499D01*
X318499130Y-238688499D01*
X318499132Y-238688468D01*
X318500916Y-238672876D01*
X318500890Y-238672750D01*
X318500896Y-238672571D01*
X318523905Y-238465281D01*
X318523941Y-238465091D01*
X318523999Y-238464963D01*
X318525669Y-238449389D01*
X318525691Y-238449349D01*
X318525674Y-238449347D01*
X318527351Y-238434239D01*
X318527351Y-238434238D01*
X318527395Y-238433842D01*
X318527367Y-238433706D01*
X318527373Y-238433504D01*
X318527979Y-238427861D01*
X318550168Y-238220977D01*
X318550206Y-238220775D01*
X318550266Y-238220640D01*
X318551869Y-238205123D01*
X318553542Y-238189526D01*
X318553512Y-238189381D01*
X318553517Y-238189173D01*
X318576184Y-237969773D01*
X318576223Y-237969555D01*
X318576284Y-237969416D01*
X318577842Y-237953722D01*
X318579435Y-237938300D01*
X318579403Y-237938153D01*
X318579408Y-237937942D01*
X318602031Y-237710018D01*
X318602068Y-237709809D01*
X318602129Y-237709668D01*
X318603608Y-237694128D01*
X318605155Y-237678543D01*
X318605123Y-237678396D01*
X318605127Y-237678174D01*
X318621529Y-237505845D01*
X318627784Y-237440119D01*
X318627822Y-237439906D01*
X318627881Y-237439767D01*
X318629301Y-237424185D01*
X318629303Y-237424185D01*
X318629305Y-237424138D01*
X318630740Y-237409062D01*
X318630782Y-237408626D01*
X318630748Y-237408475D01*
X318630751Y-237408268D01*
X318630975Y-237405818D01*
X318653522Y-237158425D01*
X318653557Y-237158219D01*
X318653614Y-237158084D01*
X318654971Y-237142521D01*
X318656393Y-237126921D01*
X318656361Y-237126778D01*
X318656363Y-237126568D01*
X318679321Y-236863320D01*
X318679354Y-236863122D01*
X318679408Y-236862992D01*
X318680710Y-236847382D01*
X318682069Y-236831804D01*
X318682038Y-236831668D01*
X318682039Y-236831461D01*
X318705259Y-236553168D01*
X318705289Y-236552978D01*
X318705340Y-236552856D01*
X318706574Y-236537398D01*
X318707889Y-236521641D01*
X318707857Y-236521507D01*
X318707858Y-236521320D01*
X318707896Y-236520854D01*
X318731411Y-236226345D01*
X318731439Y-236226167D01*
X318731488Y-236226049D01*
X318732692Y-236210311D01*
X318733930Y-236194803D01*
X318733900Y-236194680D01*
X318733900Y-236194504D01*
X318757863Y-235881210D01*
X318757889Y-235881043D01*
X318757933Y-235880934D01*
X318759079Y-235865313D01*
X318760250Y-235850001D01*
X318760250Y-235849998D01*
X318760276Y-235849658D01*
X318760248Y-235849542D01*
X318760247Y-235849377D01*
X318784688Y-235516135D01*
X318784708Y-235516000D01*
X318784744Y-235515911D01*
X318785844Y-235500366D01*
X318787002Y-235484573D01*
X318786978Y-235484477D01*
X318786977Y-235484339D01*
X318804321Y-235239185D01*
X318804339Y-235239064D01*
X318804372Y-235238982D01*
X318805452Y-235223204D01*
X318806555Y-235207611D01*
X318806534Y-235207526D01*
X318806533Y-235207408D01*
X318822570Y-234973091D01*
X318822589Y-234972962D01*
X318822623Y-234972876D01*
X318823669Y-234957030D01*
X318824731Y-234941513D01*
X318824709Y-234941424D01*
X318824707Y-234941299D01*
X318839522Y-234716877D01*
X318839540Y-234716750D01*
X318839576Y-234716660D01*
X318840582Y-234700815D01*
X318840596Y-234700786D01*
X318840584Y-234700785D01*
X318841588Y-234685568D01*
X318841606Y-234685301D01*
X318841584Y-234685212D01*
X318841582Y-234685074D01*
X318855259Y-234469632D01*
X318855278Y-234469494D01*
X318855315Y-234469402D01*
X318856267Y-234453762D01*
X318857247Y-234438332D01*
X318857247Y-234438330D01*
X318857265Y-234438046D01*
X318857240Y-234437950D01*
X318857238Y-234437813D01*
X318869866Y-234230399D01*
X318869885Y-234230260D01*
X318869921Y-234230170D01*
X318870819Y-234214753D01*
X318871789Y-234198815D01*
X318871763Y-234198715D01*
X318871760Y-234198573D01*
X318883424Y-233998266D01*
X318883443Y-233998125D01*
X318883479Y-233998032D01*
X318884338Y-233982557D01*
X318885263Y-233966675D01*
X318885237Y-233966575D01*
X318885234Y-233966431D01*
X318896013Y-233772298D01*
X318896033Y-233772152D01*
X318896069Y-233772058D01*
X318896904Y-233756261D01*
X318897752Y-233740988D01*
X318897752Y-233740985D01*
X318897768Y-233740695D01*
X318897742Y-233740599D01*
X318897739Y-233740458D01*
X318907721Y-233551546D01*
X318907739Y-233551408D01*
X318907774Y-233551316D01*
X318908558Y-233535691D01*
X318908572Y-233535662D01*
X318908560Y-233535661D01*
X318909375Y-233520232D01*
X318909375Y-233520231D01*
X318909390Y-233519946D01*
X318909365Y-233519852D01*
X318909361Y-233519705D01*
X318918625Y-233335110D01*
X318918643Y-233334967D01*
X318918677Y-233334877D01*
X318919430Y-233319054D01*
X318920211Y-233303496D01*
X318920186Y-233303403D01*
X318920182Y-233303272D01*
X318928809Y-233122022D01*
X318928825Y-233121899D01*
X318928858Y-233121810D01*
X318929563Y-233106181D01*
X318930314Y-233090414D01*
X318930290Y-233090326D01*
X318930286Y-233090191D01*
X318938356Y-232911391D01*
X318938371Y-232911269D01*
X318938402Y-232911185D01*
X318939083Y-232895269D01*
X318939772Y-232880025D01*
X318939772Y-232880020D01*
X318939783Y-232879772D01*
X318939760Y-232879689D01*
X318939756Y-232879566D01*
X318947348Y-232702262D01*
X318947362Y-232702148D01*
X318947390Y-232702071D01*
X318948037Y-232686168D01*
X318948702Y-232670636D01*
X318948680Y-232670558D01*
X318948676Y-232670447D01*
X318955866Y-232493710D01*
X318955878Y-232493606D01*
X318955904Y-232493537D01*
X318956524Y-232477544D01*
X318957153Y-232462078D01*
X318957134Y-232462009D01*
X318957130Y-232461910D01*
X318963994Y-232284800D01*
X318964004Y-232284712D01*
X318964026Y-232284652D01*
X318964608Y-232268953D01*
X318965220Y-232253166D01*
X318965203Y-232253103D01*
X318965199Y-232253017D01*
X318971815Y-232074609D01*
X318971824Y-232074530D01*
X318971842Y-232074481D01*
X318972402Y-232058777D01*
X318972988Y-232042970D01*
X318972973Y-232042917D01*
X318972970Y-232042843D01*
X318979410Y-231862194D01*
X318979416Y-231862138D01*
X318979432Y-231862095D01*
X318979977Y-231846294D01*
X318980538Y-231830554D01*
X318980527Y-231830514D01*
X318980524Y-231830448D01*
X318986862Y-231646639D01*
X318986867Y-231646590D01*
X318986879Y-231646558D01*
X318987432Y-231630096D01*
X318987953Y-231614989D01*
X318987944Y-231614958D01*
X318987942Y-231614911D01*
X318994255Y-231426998D01*
X318994260Y-231426958D01*
X318994268Y-231426935D01*
X318994819Y-231410212D01*
X318994822Y-231410212D01*
X318994819Y-231410204D01*
X318995317Y-231395411D01*
X318995317Y-231395406D01*
X318995319Y-231395340D01*
X318995313Y-231395319D01*
X318995312Y-231395293D01*
X319001674Y-231202322D01*
X319001676Y-231202305D01*
X319001680Y-231202293D01*
X319002170Y-231187247D01*
X319002716Y-231170714D01*
X319002716Y-231170709D01*
X319002717Y-231170671D01*
X319002713Y-231170659D01*
X319002712Y-231170636D01*
X319009197Y-230971704D01*
X319009198Y-230971699D01*
X319009199Y-230971695D01*
X319009616Y-230958853D01*
X319010229Y-230940049D01*
X319010227Y-230940042D01*
X319017330Y-230721299D01*
X319025356Y-230474794D01*
X319033461Y-230228164D01*
X319033748Y-230219424D01*
X319033748Y-230219418D01*
X319042547Y-229955387D01*
X319042550Y-229955387D01*
X319042547Y-229955380D01*
X319051896Y-229680064D01*
X319051896Y-229680055D01*
X319061779Y-229395353D01*
X319061779Y-229395343D01*
X319072434Y-229095850D01*
X319072438Y-229095850D01*
X319072434Y-229095839D01*
X319073260Y-229073243D01*
X319077875Y-228946888D01*
X319083810Y-228784397D01*
X319083810Y-228784385D01*
X319096084Y-228457492D01*
X319096089Y-228457492D01*
X319096084Y-228457480D01*
X319096383Y-228449743D01*
X319109253Y-228116499D01*
X319109258Y-228116487D01*
X319109253Y-228116487D01*
X319123487Y-227758180D01*
X319138788Y-227383657D01*
X319138795Y-227383642D01*
X319138789Y-227383642D01*
X319161100Y-226855310D01*
X319183337Y-226348579D01*
X319205532Y-225861673D01*
X319227741Y-225392290D01*
X319249869Y-224941451D01*
X319271956Y-224507258D01*
X319279926Y-224355919D01*
X319294074Y-224087266D01*
X319294075Y-224087245D01*
X319316117Y-223682408D01*
X319316118Y-223682387D01*
X319338141Y-223290666D01*
X319338150Y-223290666D01*
X319338142Y-223290646D01*
X319360165Y-222910619D01*
X319360166Y-222910600D01*
X319382149Y-222541885D01*
X319382150Y-222541866D01*
X319404113Y-222183112D01*
X319404114Y-222183095D01*
X319426094Y-221832601D01*
X319426095Y-221832585D01*
X319448024Y-221490429D01*
X319448025Y-221490414D01*
X319453287Y-221409856D01*
X319470008Y-221153883D01*
X319491978Y-220822980D01*
X319491983Y-220822971D01*
X319491979Y-220822971D01*
X319513881Y-220497429D01*
X319535655Y-220177087D01*
X319535851Y-220174206D01*
X319535851Y-220174200D01*
X319557846Y-219852823D01*
X319557847Y-219852823D01*
X319557846Y-219852820D01*
X319559768Y-219824850D01*
X319579544Y-219536968D01*
X319600555Y-219231248D01*
X319600557Y-219231237D01*
X319600559Y-219231233D01*
X319601496Y-219217561D01*
X319601497Y-219217561D01*
X319601496Y-219217559D01*
X319602725Y-219199683D01*
X319602725Y-219199682D01*
X319602727Y-219199652D01*
X319602724Y-219199640D01*
X319622520Y-218910742D01*
X319622523Y-218910725D01*
X319622529Y-218910709D01*
X319623595Y-218895054D01*
X319624685Y-218879149D01*
X319624681Y-218879133D01*
X319624681Y-218879109D01*
X319642756Y-218613696D01*
X319644502Y-218588061D01*
X319644505Y-218588040D01*
X319644515Y-218588015D01*
X319644905Y-218582234D01*
X319645562Y-218572502D01*
X319645562Y-218572495D01*
X319646648Y-218556544D01*
X319646653Y-218556475D01*
X319646647Y-218556452D01*
X319646647Y-218556414D01*
X319666500Y-218262138D01*
X319666507Y-218262090D01*
X319666518Y-218262061D01*
X319667600Y-218245825D01*
X319668631Y-218230539D01*
X319668623Y-218230509D01*
X319668623Y-218230469D01*
X319688520Y-217931844D01*
X319688528Y-217931790D01*
X319688542Y-217931753D01*
X319689573Y-217916033D01*
X319690625Y-217900248D01*
X319690616Y-217900211D01*
X319690615Y-217900158D01*
X319710561Y-217596106D01*
X319710570Y-217596042D01*
X319710587Y-217596001D01*
X319711605Y-217580195D01*
X319712634Y-217564511D01*
X319712623Y-217564467D01*
X319712622Y-217564405D01*
X319732627Y-217253831D01*
X319732638Y-217253758D01*
X319732656Y-217253712D01*
X319733678Y-217237506D01*
X319734662Y-217222233D01*
X319734650Y-217222185D01*
X319734649Y-217222118D01*
X319754720Y-216903922D01*
X319754731Y-216903848D01*
X319754751Y-216903796D01*
X319755720Y-216888071D01*
X319756713Y-216872327D01*
X319756699Y-216872275D01*
X319756698Y-216872196D01*
X319776840Y-216545295D01*
X319776851Y-216545216D01*
X319776873Y-216545160D01*
X319777816Y-216529463D01*
X319778787Y-216513698D01*
X319778772Y-216513642D01*
X319778771Y-216513558D01*
X319798990Y-216176852D01*
X319799001Y-216176770D01*
X319799024Y-216176713D01*
X319799913Y-216161498D01*
X319800888Y-216145256D01*
X319800872Y-216145194D01*
X319800870Y-216145103D01*
X319821171Y-215797515D01*
X319821183Y-215797426D01*
X319821207Y-215797365D01*
X319822108Y-215781472D01*
X319823017Y-215765911D01*
X319823001Y-215765850D01*
X319822999Y-215765761D01*
X319843388Y-215406176D01*
X319843403Y-215406065D01*
X319843430Y-215405995D01*
X319844285Y-215390353D01*
X319844295Y-215390354D01*
X319844286Y-215390329D01*
X319845167Y-215374798D01*
X319845180Y-215374571D01*
X319845160Y-215374494D01*
X319845157Y-215374392D01*
X319872101Y-214881547D01*
X319872118Y-214881422D01*
X319872151Y-214881336D01*
X319872991Y-214865275D01*
X319873829Y-214849943D01*
X319873807Y-214849859D01*
X319873804Y-214849733D01*
X319899082Y-214366298D01*
X319899098Y-214366177D01*
X319899130Y-214366091D01*
X319899901Y-214350626D01*
X319900734Y-214334698D01*
X319900710Y-214334609D01*
X319900706Y-214334475D01*
X319924380Y-213859718D01*
X319924397Y-213859585D01*
X319924429Y-213859500D01*
X319925169Y-213843890D01*
X319925181Y-213843891D01*
X319925170Y-213843861D01*
X319925942Y-213828381D01*
X319925956Y-213828107D01*
X319925932Y-213828017D01*
X319925928Y-213827890D01*
X319948059Y-213361025D01*
X319948075Y-213360897D01*
X319948109Y-213360806D01*
X319948817Y-213345040D01*
X319949558Y-213329412D01*
X319949534Y-213329324D01*
X319949530Y-213329189D01*
X319970177Y-212869476D01*
X319970194Y-212869340D01*
X319970227Y-212869251D01*
X319970891Y-212853588D01*
X319970903Y-212853589D01*
X319970892Y-212853559D01*
X319971586Y-212838132D01*
X319971586Y-212838126D01*
X319971598Y-212837855D01*
X319971573Y-212837763D01*
X319971568Y-212837628D01*
X319977367Y-212700906D01*
X319990796Y-212384301D01*
X319990812Y-212384166D01*
X319990845Y-212384076D01*
X319991478Y-212368213D01*
X319991490Y-212368213D01*
X319991479Y-212368184D01*
X319992125Y-212352954D01*
X319992137Y-212352677D01*
X319992112Y-212352586D01*
X319992107Y-212352460D01*
X320009974Y-211904744D01*
X320009989Y-211904615D01*
X320010022Y-211904525D01*
X320010609Y-211888822D01*
X320011236Y-211873122D01*
X320011210Y-211873032D01*
X320011205Y-211872899D01*
X320027772Y-211430058D01*
X320027787Y-211429928D01*
X320027819Y-211429839D01*
X320028369Y-211414106D01*
X320028955Y-211398431D01*
X320028929Y-211398340D01*
X320028923Y-211398215D01*
X320044251Y-210959477D01*
X320044266Y-210959347D01*
X320044296Y-210959261D01*
X320044806Y-210943564D01*
X320045355Y-210927847D01*
X320045329Y-210927758D01*
X320045323Y-210927629D01*
X320054688Y-210639406D01*
X320059469Y-210492239D01*
X320059483Y-210492115D01*
X320059512Y-210492032D01*
X320059973Y-210476706D01*
X320060496Y-210460612D01*
X320060470Y-210460522D01*
X320060464Y-210460392D01*
X320071362Y-210098184D01*
X320073486Y-210027592D01*
X320073498Y-210027482D01*
X320073529Y-210027396D01*
X320073962Y-210011789D01*
X320073974Y-210011763D01*
X320073963Y-210011763D01*
X320074438Y-209995968D01*
X320074413Y-209995884D01*
X320074407Y-209995753D01*
X320086364Y-209564794D01*
X320086377Y-209564675D01*
X320086405Y-209564594D01*
X320086800Y-209549084D01*
X320087242Y-209533156D01*
X320087217Y-209533071D01*
X320087211Y-209532952D01*
X320098161Y-209103063D01*
X320098173Y-209102945D01*
X320098200Y-209102869D01*
X320098562Y-209087309D01*
X320098967Y-209071421D01*
X320098943Y-209071340D01*
X320098937Y-209071225D01*
X320108939Y-208641643D01*
X320108950Y-208641538D01*
X320108976Y-208641463D01*
X320109304Y-208626013D01*
X320109313Y-208625990D01*
X320109304Y-208625990D01*
X320109676Y-208610005D01*
X320109654Y-208609929D01*
X320109647Y-208609810D01*
X320118756Y-208179801D01*
X320118767Y-208179692D01*
X320118792Y-208179619D01*
X320119097Y-208163719D01*
X320119427Y-208148148D01*
X320119405Y-208148073D01*
X320119399Y-208147975D01*
X320127675Y-207716744D01*
X320127685Y-207716645D01*
X320127708Y-207716577D01*
X320127985Y-207700566D01*
X320128282Y-207685095D01*
X320128261Y-207685027D01*
X320128255Y-207684928D01*
X320135753Y-207251743D01*
X320135763Y-207251641D01*
X320135784Y-207251579D01*
X320136032Y-207235634D01*
X320136041Y-207235634D01*
X320136032Y-207235613D01*
X320136298Y-207220278D01*
X320136298Y-207220273D01*
X320136301Y-207220083D01*
X320136282Y-207220019D01*
X320136276Y-207219933D01*
X320143052Y-206784010D01*
X320143060Y-206783928D01*
X320143080Y-206783869D01*
X320143299Y-206768094D01*
X320143544Y-206752361D01*
X320143526Y-206752302D01*
X320143520Y-206752214D01*
X320149632Y-206312815D01*
X320149639Y-206312741D01*
X320149658Y-206312686D01*
X320149851Y-206297088D01*
X320150073Y-206281163D01*
X320150056Y-206281109D01*
X320150051Y-206281025D01*
X320155553Y-205837390D01*
X320155559Y-205837322D01*
X320155576Y-205837273D01*
X320155747Y-205821812D01*
X320155946Y-205805736D01*
X320155931Y-205805688D01*
X320155926Y-205805611D01*
X320160875Y-205356977D01*
X320160881Y-205356916D01*
X320160896Y-205356870D01*
X320161048Y-205341377D01*
X320161225Y-205325319D01*
X320161211Y-205325275D01*
X320161207Y-205325207D01*
X320165659Y-204870822D01*
X320165665Y-204870756D01*
X320165677Y-204870720D01*
X320165815Y-204854918D01*
X320165820Y-204854918D01*
X320165815Y-204854906D01*
X320165968Y-204839281D01*
X320165968Y-204839278D01*
X320165969Y-204839155D01*
X320165956Y-204839114D01*
X320165952Y-204839063D01*
X320169965Y-204378143D01*
X320169969Y-204378094D01*
X320169980Y-204378061D01*
X320170100Y-204362518D01*
X320170240Y-204346482D01*
X320170229Y-204346447D01*
X320170225Y-204346396D01*
X320173853Y-203878207D01*
X320173857Y-203878165D01*
X320173866Y-203878137D01*
X320173973Y-203862662D01*
X320174098Y-203846544D01*
X320174088Y-203846513D01*
X320174085Y-203846469D01*
X320177382Y-203370247D01*
X320177385Y-203370211D01*
X320177393Y-203370187D01*
X320177491Y-203354491D01*
X320177601Y-203338581D01*
X320177593Y-203338555D01*
X320177590Y-203338519D01*
X320180615Y-202853498D01*
X320180617Y-202853472D01*
X320180623Y-202853453D01*
X320180706Y-202838868D01*
X320180812Y-202821834D01*
X320180805Y-202821813D01*
X320180803Y-202821781D01*
X320183610Y-202327216D01*
X320183612Y-202327191D01*
X320183618Y-202327174D01*
X320183709Y-202309821D01*
X320183790Y-202295542D01*
X320183786Y-202295528D01*
X320183784Y-202295508D01*
X320186430Y-201790619D01*
X320186431Y-201790602D01*
X320186435Y-201790591D01*
X320186511Y-201775198D01*
X320186596Y-201758948D01*
X320186592Y-201758936D01*
X320186591Y-201758918D01*
X320189133Y-201242961D01*
X320189134Y-201242953D01*
X320189136Y-201242946D01*
X320189205Y-201228316D01*
X320189289Y-201211291D01*
X320189287Y-201211283D01*
X320189286Y-201211271D01*
X320191779Y-200683487D01*
X320191780Y-200683482D01*
X320191781Y-200683478D01*
X320191861Y-200666210D01*
X320191929Y-200651812D01*
X320191928Y-200651808D01*
X320194577Y-200079751D01*
X320197212Y-199512002D01*
X320201720Y-198620031D01*
X320202300Y-198505224D01*
X320202300Y-198505215D01*
X320208011Y-197515719D01*
X320208011Y-197515712D01*
X320214259Y-196541934D01*
X320214259Y-196541927D01*
X320220956Y-195582874D01*
X320220956Y-195582869D01*
X320228031Y-194635254D01*
X320228031Y-194635249D01*
X320235387Y-193699688D01*
X320235387Y-193699684D01*
X320242941Y-192774836D01*
X320242941Y-192774834D01*
X320250614Y-191858453D01*
X320250614Y-191858452D01*
X320258439Y-190935635D01*
X320258439Y-190935634D01*
X320265800Y-190067661D01*
X320265801Y-190067656D01*
X320265802Y-190067652D01*
X320265927Y-190052771D01*
X320266069Y-190035988D01*
X320266067Y-190035983D01*
X320273285Y-189174387D01*
X320273286Y-189174378D01*
X320273288Y-189174370D01*
X320273409Y-189159540D01*
X320273550Y-189142717D01*
X320273548Y-189142709D01*
X320273547Y-189142696D01*
X320280538Y-188286432D01*
X320280539Y-188286415D01*
X320280543Y-188286403D01*
X320280672Y-188269941D01*
X320280796Y-188254760D01*
X320280792Y-188254749D01*
X320280791Y-188254733D01*
X320287471Y-187402733D01*
X320287473Y-187402711D01*
X320287478Y-187402695D01*
X320287598Y-187386493D01*
X320287719Y-187371064D01*
X320287715Y-187371048D01*
X320287713Y-187371026D01*
X320289624Y-187113180D01*
X320294002Y-186522228D01*
X320294004Y-186522203D01*
X320294010Y-186522184D01*
X320294114Y-186506964D01*
X320294236Y-186490563D01*
X320294229Y-186490542D01*
X320294227Y-186490512D01*
X320295336Y-186329074D01*
X320298175Y-185915526D01*
X320300040Y-185643874D01*
X320300043Y-185643836D01*
X320300051Y-185643811D01*
X320300156Y-185626935D01*
X320300257Y-185612201D01*
X320300250Y-185612179D01*
X320300248Y-185612146D01*
X320305501Y-184766585D01*
X320305504Y-184766544D01*
X320305514Y-184766516D01*
X320305603Y-184750205D01*
X320305698Y-184734917D01*
X320305690Y-184734889D01*
X320305687Y-184734852D01*
X320305716Y-184729630D01*
X320309820Y-183977449D01*
X320310301Y-183889313D01*
X320310305Y-183889271D01*
X320310315Y-183889240D01*
X320310386Y-183873709D01*
X320310474Y-183857651D01*
X320310463Y-183857618D01*
X320310460Y-183857572D01*
X320311847Y-183555913D01*
X320314351Y-183011008D01*
X320314355Y-183010959D01*
X320314366Y-183010924D01*
X320314423Y-182995226D01*
X320314496Y-182979345D01*
X320314485Y-182979310D01*
X320314481Y-182979255D01*
X320317564Y-182130601D01*
X320317568Y-182130547D01*
X320317581Y-182130509D01*
X320317622Y-182114742D01*
X320317679Y-182099057D01*
X320317679Y-182098939D01*
X320317667Y-182098901D01*
X320317662Y-182098844D01*
X320317850Y-182026080D01*
X320319856Y-181247037D01*
X320319861Y-181246976D01*
X320319874Y-181246935D01*
X320319897Y-181231056D01*
X320319937Y-181215374D01*
X320319924Y-181215333D01*
X320319919Y-181215272D01*
X320321139Y-180359256D01*
X320321144Y-180359189D01*
X320321159Y-180359143D01*
X320321162Y-180342989D01*
X320321184Y-180327590D01*
X320321170Y-180327546D01*
X320321165Y-180327483D01*
X320321328Y-179466195D01*
X320321334Y-179466124D01*
X320321349Y-179466076D01*
X320321331Y-179450155D01*
X320321334Y-179434531D01*
X320321319Y-179434484D01*
X320321313Y-179434414D01*
X320320335Y-178566796D01*
X320320341Y-178566722D01*
X320320357Y-178566671D01*
X320320316Y-178550515D01*
X320320299Y-178535134D01*
X320320283Y-178535085D01*
X320320277Y-178535014D01*
X320318076Y-177659997D01*
X320318081Y-177659924D01*
X320318098Y-177659871D01*
X320318036Y-177644330D01*
X320317996Y-177628341D01*
X320317978Y-177628288D01*
X320317972Y-177628210D01*
X320315203Y-176931375D01*
X320314461Y-176744750D01*
X320314467Y-176744675D01*
X320314484Y-176744620D01*
X320314398Y-176728977D01*
X320314398Y-176728959D01*
X320314336Y-176713266D01*
X320314336Y-176713262D01*
X320314335Y-176713096D01*
X320314318Y-176713042D01*
X320314311Y-176712962D01*
X320310508Y-176020399D01*
X320309407Y-175819984D01*
X320309413Y-175819910D01*
X320309431Y-175819854D01*
X320309323Y-175804599D01*
X320309234Y-175788336D01*
X320309215Y-175788279D01*
X320309208Y-175788193D01*
X320305320Y-175237702D01*
X320302827Y-174884657D01*
X320302833Y-174884578D01*
X320302852Y-174884518D01*
X320302715Y-174868779D01*
X320302604Y-174853004D01*
X320302584Y-174852943D01*
X320302577Y-174852862D01*
X320301955Y-174781116D01*
X320297471Y-174264603D01*
X320294634Y-173937689D01*
X320294639Y-173937609D01*
X320294658Y-173937550D01*
X320294499Y-173922156D01*
X320294507Y-173922137D01*
X320294499Y-173922137D01*
X320294359Y-173906042D01*
X320294340Y-173905983D01*
X320294331Y-173905887D01*
X320284741Y-172978044D01*
X320284747Y-172977953D01*
X320284766Y-172977894D01*
X320284578Y-172962269D01*
X320284414Y-172946389D01*
X320284393Y-172946327D01*
X320284385Y-172946239D01*
X320284128Y-172924810D01*
X320273064Y-172004645D01*
X320273070Y-172004551D01*
X320273089Y-172004489D01*
X320272871Y-171988612D01*
X320272683Y-171972988D01*
X320272662Y-171972926D01*
X320272654Y-171972838D01*
X320259514Y-171016434D01*
X320259520Y-171016340D01*
X320259539Y-171016278D01*
X320259296Y-171000561D01*
X320259290Y-171000119D01*
X320259082Y-170984972D01*
X320259082Y-170984968D01*
X320259079Y-170984779D01*
X320259058Y-170984717D01*
X320259049Y-170984627D01*
X320247345Y-170228146D01*
X320244006Y-170012351D01*
X320244008Y-170012321D01*
X320244019Y-170012287D01*
X320243769Y-169996979D01*
X320243773Y-169996969D01*
X320243769Y-169996969D01*
X320243517Y-169980703D01*
X320243506Y-169980671D01*
X320243501Y-169980619D01*
X320243470Y-169978683D01*
X320236615Y-169559243D01*
X320236614Y-169559241D01*
X320230445Y-169182495D01*
X320230446Y-169182491D01*
X320230112Y-169162213D01*
X320229926Y-169150826D01*
X320229925Y-169150824D01*
X320223935Y-168786614D01*
X320223936Y-168786610D01*
X320223742Y-168774883D01*
X320223414Y-168754949D01*
X320223412Y-168754942D01*
X320217583Y-168402868D01*
X320217584Y-168402858D01*
X320217586Y-168402852D01*
X320217270Y-168383934D01*
X320217059Y-168371196D01*
X320217057Y-168371190D01*
X320211369Y-168030820D01*
X320211370Y-168030811D01*
X320211372Y-168030804D01*
X320211101Y-168014781D01*
X320210840Y-167999152D01*
X320210838Y-167999144D01*
X320210837Y-167999135D01*
X320205273Y-167670068D01*
X320205274Y-167670054D01*
X320205277Y-167670045D01*
X320205191Y-167664995D01*
X320205005Y-167654173D01*
X320205005Y-167654171D01*
X320204738Y-167638427D01*
X320204738Y-167638399D01*
X320204735Y-167638390D01*
X320204734Y-167638378D01*
X320200272Y-167378346D01*
X320199274Y-167320184D01*
X320199275Y-167320174D01*
X320199278Y-167320163D01*
X320199041Y-167306589D01*
X320198731Y-167288522D01*
X320198727Y-167288511D01*
X320198725Y-167288490D01*
X320193352Y-166980771D01*
X320193353Y-166980754D01*
X320193357Y-166980740D01*
X320193079Y-166965133D01*
X320192799Y-166949106D01*
X320192795Y-166949093D01*
X320192793Y-166949074D01*
X320188940Y-166732932D01*
X320187487Y-166651394D01*
X320187488Y-166651377D01*
X320187493Y-166651361D01*
X320187226Y-166636736D01*
X320186923Y-166619733D01*
X320186917Y-166619717D01*
X320186915Y-166619694D01*
X320182945Y-166402220D01*
X320181657Y-166331651D01*
X320181659Y-166331629D01*
X320181664Y-166331611D01*
X320181365Y-166315663D01*
X320181079Y-166299988D01*
X320181073Y-166299972D01*
X320181071Y-166299947D01*
X320177381Y-166103070D01*
X320175845Y-166021114D01*
X320175847Y-166021091D01*
X320175853Y-166021070D01*
X320175563Y-166006035D01*
X320175252Y-165989457D01*
X320175245Y-165989436D01*
X320175242Y-165989405D01*
X320170027Y-165719381D01*
X320170029Y-165719349D01*
X320170036Y-165719326D01*
X320169733Y-165704118D01*
X320169416Y-165687720D01*
X320169407Y-165687694D01*
X320169404Y-165687662D01*
X320169006Y-165667674D01*
X320164185Y-165426016D01*
X320164187Y-165425992D01*
X320164196Y-165425962D01*
X320163860Y-165409729D01*
X320163864Y-165409720D01*
X320163860Y-165409720D01*
X320163556Y-165394445D01*
X320163556Y-165394440D01*
X320163554Y-165394365D01*
X320163545Y-165394338D01*
X320163541Y-165394305D01*
X320158299Y-165140632D01*
X320158301Y-165140592D01*
X320158310Y-165140562D01*
X320157957Y-165124145D01*
X320157961Y-165124135D01*
X320157957Y-165124135D01*
X320157644Y-165108973D01*
X320157635Y-165108946D01*
X320157630Y-165108902D01*
X320157100Y-165084176D01*
X320152348Y-164862792D01*
X320152351Y-164862742D01*
X320152360Y-164862711D01*
X320152331Y-164861385D01*
X320152004Y-164846789D01*
X320152004Y-164846778D01*
X320151670Y-164831231D01*
X320151668Y-164831131D01*
X320151656Y-164831098D01*
X320151652Y-164831054D01*
X320146311Y-164592077D01*
X320146314Y-164592024D01*
X320146324Y-164591989D01*
X320145959Y-164576331D01*
X320145603Y-164560419D01*
X320145590Y-164560383D01*
X320145585Y-164560332D01*
X320140167Y-164328081D01*
X320140170Y-164328023D01*
X320140181Y-164327985D01*
X320139798Y-164312276D01*
X320139428Y-164296424D01*
X320139415Y-164296386D01*
X320139409Y-164296332D01*
X320133898Y-164070382D01*
X320133901Y-164070325D01*
X320133914Y-164070281D01*
X320133507Y-164054363D01*
X320133512Y-164054350D01*
X320133507Y-164054350D01*
X320133126Y-164038731D01*
X320133112Y-164038692D01*
X320133105Y-164038627D01*
X320127482Y-163818573D01*
X320127485Y-163818507D01*
X320127499Y-163818462D01*
X320127087Y-163803097D01*
X320126674Y-163786922D01*
X320126658Y-163786877D01*
X320126651Y-163786810D01*
X320123415Y-163666048D01*
X320120901Y-163572224D01*
X320120904Y-163572163D01*
X320120919Y-163572112D01*
X320120477Y-163556431D01*
X320120484Y-163556415D01*
X320120477Y-163556415D01*
X320120053Y-163540583D01*
X320120036Y-163540535D01*
X320120028Y-163540461D01*
X320114132Y-163330949D01*
X320114136Y-163330867D01*
X320114151Y-163330815D01*
X320113679Y-163314868D01*
X320113241Y-163299296D01*
X320113223Y-163299243D01*
X320113215Y-163299173D01*
X320111775Y-163250479D01*
X320107154Y-163094290D01*
X320107158Y-163094212D01*
X320107174Y-163094157D01*
X320106685Y-163078441D01*
X320106218Y-163062648D01*
X320106199Y-163062595D01*
X320106190Y-163062512D01*
X320105694Y-163046578D01*
X320099949Y-162861868D01*
X320099953Y-162861780D01*
X320099970Y-162861722D01*
X320099455Y-162845967D01*
X320099462Y-162845967D01*
X320099454Y-162845949D01*
X320098971Y-162830402D01*
X320098970Y-162830397D01*
X320098965Y-162830223D01*
X320098944Y-162830166D01*
X320098935Y-162830085D01*
X320098529Y-162817667D01*
X320092497Y-162633238D01*
X320092501Y-162633156D01*
X320092518Y-162633095D01*
X320091990Y-162617736D01*
X320091462Y-162601606D01*
X320091440Y-162601543D01*
X320091429Y-162601449D01*
X320091065Y-162590846D01*
X320084774Y-162408013D01*
X320084778Y-162407927D01*
X320084797Y-162407860D01*
X320084224Y-162392032D01*
X320083686Y-162376381D01*
X320083663Y-162376318D01*
X320083652Y-162376224D01*
X320083356Y-162368021D01*
X320077359Y-162202215D01*
X320076764Y-162185772D01*
X320076768Y-162185669D01*
X320076786Y-162185604D01*
X320076195Y-162170053D01*
X320076203Y-162170053D01*
X320076194Y-162170032D01*
X320075627Y-162154342D01*
X320075626Y-162154337D01*
X320075619Y-162154133D01*
X320075594Y-162154065D01*
X320075583Y-162153974D01*
X320072036Y-162060632D01*
X320068442Y-161966082D01*
X320068446Y-161965981D01*
X320068465Y-161965912D01*
X320067832Y-161950041D01*
X320067239Y-161934449D01*
X320067215Y-161934383D01*
X320067203Y-161934283D01*
X320060461Y-161765331D01*
X320059791Y-161748541D01*
X320059795Y-161748439D01*
X320059815Y-161748367D01*
X320059155Y-161732599D01*
X320058529Y-161716912D01*
X320058504Y-161716845D01*
X320058491Y-161716738D01*
X320052925Y-161583753D01*
X320050789Y-161532730D01*
X320050793Y-161532631D01*
X320050813Y-161532556D01*
X320050116Y-161516670D01*
X320049465Y-161501108D01*
X320049439Y-161501039D01*
X320049427Y-161500937D01*
X320041416Y-161318249D01*
X320041420Y-161318138D01*
X320041440Y-161318065D01*
X320040707Y-161302077D01*
X320040029Y-161286623D01*
X320040002Y-161286552D01*
X320039989Y-161286449D01*
X320036782Y-161216508D01*
X320031652Y-161104660D01*
X320031655Y-161104551D01*
X320031675Y-161104478D01*
X320030922Y-161088749D01*
X320030201Y-161073041D01*
X320030173Y-161072968D01*
X320030160Y-161072864D01*
X320021474Y-160891521D01*
X320021483Y-160891172D01*
X320021545Y-160890940D01*
X320020710Y-160875583D01*
X320019961Y-160859950D01*
X320019874Y-160859721D01*
X320019828Y-160859367D01*
X320018351Y-160832194D01*
X320009095Y-160661993D01*
X320009102Y-160661677D01*
X320009157Y-160661465D01*
X320008218Y-160645872D01*
X320007378Y-160630419D01*
X320007300Y-160630217D01*
X320007257Y-160629905D01*
X319984957Y-160259456D01*
X319984961Y-160259239D01*
X319984998Y-160259091D01*
X319984794Y-160255905D01*
X319984002Y-160243595D01*
X319983999Y-160243548D01*
X319983083Y-160228326D01*
X319983083Y-160228323D01*
X319983056Y-160227882D01*
X319982999Y-160227738D01*
X319982968Y-160227520D01*
X319978211Y-160153502D01*
X319970666Y-160036122D01*
X319967383Y-159985047D01*
X319967385Y-159984889D01*
X319967411Y-159984785D01*
X319966348Y-159968965D01*
X319965352Y-159953465D01*
X319965311Y-159953362D01*
X319965290Y-159953216D01*
X319961721Y-159900069D01*
X319953455Y-159777014D01*
X319945786Y-159662837D01*
X319945788Y-159662685D01*
X319945814Y-159662579D01*
X319945591Y-159659385D01*
X319945030Y-159651388D01*
X319944717Y-159646929D01*
X319944729Y-159646895D01*
X319944715Y-159646896D01*
X319943686Y-159631583D01*
X319943665Y-159631268D01*
X319943625Y-159631168D01*
X319943602Y-159631009D01*
X319927984Y-159408199D01*
X319919932Y-159293326D01*
X319919933Y-159293173D01*
X319919960Y-159293065D01*
X319918823Y-159277505D01*
X319918588Y-159274142D01*
X319917743Y-159262091D01*
X319917743Y-159262090D01*
X319917720Y-159261764D01*
X319917677Y-159261658D01*
X319917654Y-159261505D01*
X319917396Y-159257966D01*
X319889574Y-158877102D01*
X319889575Y-158876945D01*
X319889601Y-158876835D01*
X319888405Y-158861103D01*
X319887268Y-158845544D01*
X319887227Y-158845442D01*
X319887202Y-158845280D01*
X319854461Y-158414758D01*
X319854461Y-158414592D01*
X319854487Y-158414484D01*
X319853258Y-158398937D01*
X319853271Y-158398936D01*
X319853255Y-158398902D01*
X319853069Y-158396447D01*
X319852061Y-158383203D01*
X319852016Y-158383094D01*
X319851993Y-158382946D01*
X319817391Y-157945388D01*
X319814346Y-157906877D01*
X319814346Y-157906713D01*
X319814372Y-157906601D01*
X319813082Y-157890903D01*
X319811851Y-157875332D01*
X319811807Y-157875226D01*
X319811781Y-157875065D01*
X319801946Y-157755355D01*
X319768979Y-157354060D01*
X319768978Y-157353899D01*
X319769005Y-157353783D01*
X319767661Y-157338019D01*
X319766388Y-157322525D01*
X319766343Y-157322417D01*
X319766316Y-157322256D01*
X319763043Y-157283861D01*
X319733436Y-156936629D01*
X319718112Y-156756902D01*
X319718111Y-156756734D01*
X319718137Y-156756621D01*
X319716765Y-156741103D01*
X319715424Y-156725375D01*
X319715378Y-156725266D01*
X319715350Y-156725101D01*
X319661498Y-156115988D01*
X319661496Y-156115825D01*
X319661523Y-156115707D01*
X319660100Y-156100180D01*
X319660112Y-156100142D01*
X319660097Y-156100143D01*
X319658743Y-156084820D01*
X319658742Y-156084815D01*
X319658712Y-156084474D01*
X319658665Y-156084365D01*
X319658636Y-156084192D01*
X319618905Y-155650459D01*
X319598888Y-155431930D01*
X319598886Y-155431756D01*
X319598912Y-155431637D01*
X319597412Y-155415819D01*
X319596001Y-155400416D01*
X319595953Y-155400304D01*
X319595925Y-155400144D01*
X319574616Y-155175443D01*
X319530031Y-154705290D01*
X319530028Y-154705123D01*
X319530055Y-154705000D01*
X319528508Y-154689227D01*
X319527044Y-154673793D01*
X319526996Y-154673682D01*
X319526966Y-154673510D01*
X319454682Y-153936688D01*
X319454679Y-153936512D01*
X319454705Y-153936391D01*
X319454669Y-153936037D01*
X319454669Y-153936031D01*
X319453116Y-153920724D01*
X319453112Y-153920685D01*
X319451628Y-153905553D01*
X319451628Y-153905551D01*
X319451593Y-153905198D01*
X319451544Y-153905086D01*
X319451513Y-153904914D01*
X319395347Y-153351091D01*
X319372590Y-153126696D01*
X319372586Y-153126528D01*
X319372612Y-153126404D01*
X319370989Y-153110913D01*
X319369398Y-153095225D01*
X319369347Y-153095110D01*
X319369315Y-153094932D01*
X319297731Y-152411686D01*
X319283508Y-152275931D01*
X319283503Y-152275755D01*
X319283529Y-152275630D01*
X319281844Y-152260053D01*
X319280211Y-152244466D01*
X319280158Y-152244348D01*
X319280127Y-152244181D01*
X319187188Y-151384973D01*
X319187182Y-151384789D01*
X319187208Y-151384663D01*
X319185466Y-151369057D01*
X319183785Y-151353515D01*
X319183732Y-151353396D01*
X319183699Y-151353222D01*
X319144427Y-151001364D01*
X319083378Y-150454401D01*
X319083372Y-150454223D01*
X319083398Y-150454094D01*
X319081608Y-150438546D01*
X319079869Y-150422962D01*
X319079816Y-150422845D01*
X319079780Y-150422659D01*
X318971834Y-149484836D01*
X318971827Y-149484644D01*
X318971852Y-149484518D01*
X318970020Y-149469073D01*
X318970034Y-149469071D01*
X318970015Y-149469033D01*
X318968260Y-149453789D01*
X318968216Y-149453403D01*
X318968161Y-149453282D01*
X318968125Y-149453100D01*
X318852305Y-148476846D01*
X318852297Y-148476657D01*
X318852323Y-148476528D01*
X318850425Y-148461002D01*
X318848578Y-148445430D01*
X318848521Y-148445306D01*
X318848485Y-148445129D01*
X318724543Y-147431034D01*
X318724534Y-147430850D01*
X318724560Y-147430715D01*
X318722610Y-147415223D01*
X318722622Y-147415180D01*
X318722605Y-147415182D01*
X318720752Y-147400018D01*
X318720752Y-147400016D01*
X318720705Y-147399635D01*
X318720648Y-147399513D01*
X318720609Y-147399321D01*
X318687150Y-147133460D01*
X318588299Y-146347996D01*
X318588290Y-146347809D01*
X318588315Y-146347674D01*
X318586315Y-146332232D01*
X318584349Y-146316612D01*
X318584290Y-146316486D01*
X318584251Y-146316298D01*
X318562578Y-146148973D01*
X318443327Y-145228334D01*
X318443316Y-145228131D01*
X318443341Y-145227996D01*
X318441265Y-145212414D01*
X318439262Y-145196954D01*
X318439204Y-145196830D01*
X318439162Y-145196635D01*
X318427192Y-145106811D01*
X318289374Y-144072609D01*
X318289363Y-144072410D01*
X318289387Y-144072276D01*
X318287294Y-144057003D01*
X318287309Y-144057001D01*
X318287288Y-144056959D01*
X318285195Y-144041252D01*
X318285133Y-144041121D01*
X318285092Y-144040933D01*
X318126196Y-142881444D01*
X318126184Y-142881242D01*
X318126208Y-142881103D01*
X318124023Y-142865592D01*
X318121900Y-142850101D01*
X318121838Y-142849974D01*
X318121795Y-142849777D01*
X317953540Y-141655418D01*
X317953527Y-141655219D01*
X317953552Y-141655075D01*
X317951302Y-141639537D01*
X317951314Y-141639490D01*
X317951296Y-141639493D01*
X317949184Y-141624498D01*
X317949184Y-141624497D01*
X317949127Y-141624094D01*
X317949064Y-141623966D01*
X317949019Y-141623764D01*
X317947318Y-141612008D01*
X317771162Y-140395136D01*
X317771148Y-140394926D01*
X317771172Y-140394782D01*
X317768857Y-140379215D01*
X317768871Y-140379213D01*
X317768850Y-140379170D01*
X317766689Y-140364236D01*
X317766688Y-140364233D01*
X317766629Y-140363823D01*
X317766565Y-140363693D01*
X317766520Y-140363497D01*
X317624112Y-139405817D01*
X317578810Y-139101166D01*
X317578795Y-139100962D01*
X317578819Y-139100816D01*
X317576458Y-139085357D01*
X317574157Y-139069880D01*
X317574092Y-139069749D01*
X317574044Y-139069543D01*
X317376239Y-137774140D01*
X317376225Y-137773949D01*
X317376246Y-137773819D01*
X317373816Y-137758267D01*
X317371463Y-137742860D01*
X317371404Y-137742742D01*
X317371361Y-137742562D01*
X317340139Y-137542772D01*
X317337158Y-137523692D01*
X317337140Y-137523466D01*
X317337165Y-137523302D01*
X317334675Y-137507811D01*
X317332274Y-137492444D01*
X317332201Y-137492299D01*
X317332146Y-137492073D01*
X317291770Y-137240828D01*
X317291749Y-137240573D01*
X317291775Y-137240397D01*
X317289221Y-137224970D01*
X317286751Y-137209601D01*
X317286670Y-137209442D01*
X317286609Y-137209194D01*
X317257705Y-137034607D01*
X317257684Y-137034376D01*
X317257709Y-137034208D01*
X317255081Y-137018762D01*
X317252539Y-137003407D01*
X317252462Y-137003258D01*
X317252404Y-137003024D01*
X317220385Y-136814819D01*
X317220360Y-136814556D01*
X317220386Y-136814373D01*
X317217688Y-136798973D01*
X317215080Y-136783641D01*
X317214993Y-136783475D01*
X317214932Y-136783236D01*
X317179627Y-136581687D01*
X317179600Y-136581407D01*
X317179627Y-136581209D01*
X317176864Y-136565913D01*
X317174172Y-136550544D01*
X317174078Y-136550366D01*
X317174006Y-136550090D01*
X317135253Y-136335541D01*
X317135222Y-136335242D01*
X317135250Y-136335030D01*
X317132384Y-136319660D01*
X317129633Y-136304428D01*
X317129533Y-136304242D01*
X317129455Y-136303949D01*
X317091065Y-136098049D01*
X317087083Y-136076692D01*
X317087049Y-136076375D01*
X317087077Y-136076150D01*
X317084129Y-136060846D01*
X317083252Y-136056142D01*
X317081406Y-136046239D01*
X317081405Y-136046236D01*
X317081289Y-136045613D01*
X317081181Y-136045416D01*
X317081097Y-136045107D01*
X317034936Y-135805459D01*
X317034897Y-135805119D01*
X317034925Y-135804883D01*
X317031872Y-135789547D01*
X317028956Y-135774410D01*
X317028843Y-135774205D01*
X317028753Y-135773883D01*
X316978632Y-135522138D01*
X316978589Y-135521784D01*
X316978616Y-135521540D01*
X316975487Y-135506340D01*
X316972459Y-135491133D01*
X316972339Y-135490918D01*
X316972241Y-135490577D01*
X316943722Y-135352050D01*
X316917987Y-135227051D01*
X316917940Y-135226689D01*
X316917967Y-135226433D01*
X316914746Y-135211306D01*
X316914761Y-135211224D01*
X316914730Y-135211230D01*
X316911613Y-135196092D01*
X316911487Y-135195871D01*
X316911382Y-135195511D01*
X316852826Y-134920526D01*
X316852773Y-134920140D01*
X316852799Y-134919877D01*
X316849449Y-134904668D01*
X316846241Y-134889604D01*
X316846110Y-134889376D01*
X316846001Y-134889014D01*
X316782964Y-134602842D01*
X316782908Y-134602452D01*
X316782932Y-134602181D01*
X316779512Y-134587172D01*
X316779322Y-134586307D01*
X316776330Y-134572728D01*
X316776165Y-134571979D01*
X316776025Y-134571741D01*
X316775909Y-134571364D01*
X316772694Y-134557253D01*
X316708222Y-134274341D01*
X316708161Y-134273938D01*
X316708185Y-134273657D01*
X316704624Y-134258552D01*
X316701200Y-134243527D01*
X316701058Y-134243289D01*
X316700934Y-134242897D01*
X316628421Y-133935316D01*
X316628356Y-133934903D01*
X316628377Y-133934616D01*
X316624738Y-133919694D01*
X316621170Y-133904560D01*
X316621019Y-133904312D01*
X316620887Y-133903904D01*
X316543381Y-133586098D01*
X316543318Y-133585714D01*
X316543336Y-133585448D01*
X316539568Y-133570463D01*
X316535893Y-133555393D01*
X316535752Y-133555165D01*
X316535629Y-133554794D01*
X316473500Y-133307699D01*
X316473440Y-133307349D01*
X316473455Y-133307104D01*
X316469552Y-133291996D01*
X316465791Y-133277039D01*
X316465661Y-133276833D01*
X316465548Y-133276500D01*
X316400265Y-133023817D01*
X316400203Y-133023470D01*
X316400217Y-133023219D01*
X316396243Y-133008249D01*
X316392360Y-132993218D01*
X316392225Y-132993006D01*
X316392106Y-132992665D01*
X316356429Y-132858253D01*
X316323589Y-132734533D01*
X316323534Y-132734237D01*
X316323544Y-132734026D01*
X316319490Y-132719094D01*
X316315478Y-132703978D01*
X316315362Y-132703798D01*
X316315260Y-132703511D01*
X316270497Y-132538619D01*
X316270451Y-132538378D01*
X316270458Y-132538206D01*
X316266309Y-132523193D01*
X316262210Y-132508095D01*
X316262115Y-132507950D01*
X316262033Y-132507721D01*
X316215812Y-132340488D01*
X316215763Y-132340235D01*
X316215770Y-132340061D01*
X316215004Y-132337337D01*
X316211509Y-132324919D01*
X316211495Y-132324867D01*
X316207518Y-132310477D01*
X316207518Y-132310476D01*
X316207385Y-132309996D01*
X316207288Y-132309850D01*
X316207205Y-132309623D01*
X316159494Y-132140056D01*
X316159445Y-132139811D01*
X316159451Y-132139633D01*
X316155141Y-132124586D01*
X316150928Y-132109613D01*
X316150830Y-132109466D01*
X316150743Y-132109232D01*
X316101519Y-131937381D01*
X316101469Y-131937136D01*
X316101474Y-131936955D01*
X316097110Y-131921989D01*
X316097116Y-131921931D01*
X316097095Y-131921937D01*
X316092950Y-131907466D01*
X316092811Y-131906980D01*
X316092713Y-131906834D01*
X316092621Y-131906589D01*
X316041861Y-131732500D01*
X316041808Y-131732246D01*
X316041812Y-131732063D01*
X316037362Y-131717070D01*
X316033008Y-131702136D01*
X316032907Y-131701987D01*
X316032814Y-131701744D01*
X315980488Y-131525435D01*
X315980432Y-131525178D01*
X315980436Y-131524995D01*
X315975932Y-131510085D01*
X315971489Y-131495114D01*
X315971385Y-131494963D01*
X315971291Y-131494719D01*
X315917373Y-131316224D01*
X315917316Y-131315966D01*
X315917319Y-131315780D01*
X315912732Y-131300860D01*
X315908228Y-131285949D01*
X315908123Y-131285798D01*
X315908026Y-131285550D01*
X315852490Y-131104908D01*
X315852431Y-131104646D01*
X315852433Y-131104460D01*
X315847810Y-131089684D01*
X315843197Y-131074679D01*
X315843089Y-131074525D01*
X315842990Y-131074277D01*
X315785810Y-130891522D01*
X315785749Y-130891255D01*
X315785750Y-130891067D01*
X315781039Y-130876270D01*
X315781022Y-130876215D01*
X315776529Y-130861854D01*
X315776527Y-130861848D01*
X315776367Y-130861338D01*
X315776257Y-130861183D01*
X315776157Y-130860936D01*
X315717303Y-130676087D01*
X315717242Y-130675829D01*
X315717242Y-130675636D01*
X315715848Y-130671334D01*
X315712467Y-130660897D01*
X315712448Y-130660840D01*
X315707876Y-130646480D01*
X315707711Y-130645961D01*
X315707599Y-130645804D01*
X315707496Y-130645553D01*
X315646951Y-130458679D01*
X315646904Y-130458483D01*
X315646903Y-130458336D01*
X315642008Y-130443423D01*
X315637201Y-130428585D01*
X315637117Y-130428469D01*
X315637040Y-130428285D01*
X315611050Y-130349101D01*
X315610998Y-130348887D01*
X315610997Y-130348733D01*
X315606019Y-130333772D01*
X315601185Y-130319044D01*
X315601095Y-130318921D01*
X315601011Y-130318720D01*
X315532099Y-130111610D01*
X315532027Y-130111323D01*
X315532024Y-130111114D01*
X315527035Y-130096392D01*
X315522117Y-130081612D01*
X315521994Y-130081445D01*
X315521874Y-130081163D01*
X315452673Y-129876968D01*
X315452601Y-129876686D01*
X315452597Y-129876480D01*
X315447569Y-129861906D01*
X315442526Y-129847026D01*
X315442401Y-129846858D01*
X315442282Y-129846583D01*
X315372849Y-129645337D01*
X315372775Y-129645057D01*
X315372771Y-129644853D01*
X315367625Y-129630196D01*
X315362537Y-129615448D01*
X315362414Y-129615284D01*
X315362296Y-129615015D01*
X315309702Y-129465208D01*
X315292683Y-129416731D01*
X315292610Y-129416458D01*
X315292604Y-129416256D01*
X315292413Y-129415720D01*
X315292411Y-129415714D01*
X315287398Y-129401678D01*
X315282210Y-129386900D01*
X315282086Y-129386738D01*
X315281970Y-129386477D01*
X315231025Y-129243816D01*
X315212231Y-129191187D01*
X315212157Y-129190913D01*
X315212150Y-129190712D01*
X315206798Y-129175970D01*
X315206810Y-129175966D01*
X315206779Y-129175917D01*
X315201597Y-129161406D01*
X315201474Y-129161248D01*
X315201361Y-129160997D01*
X315131550Y-128968710D01*
X315131474Y-128968439D01*
X315131467Y-128968242D01*
X315126076Y-128953632D01*
X315126055Y-128953574D01*
X315120951Y-128939513D01*
X315120948Y-128939506D01*
X315120759Y-128938986D01*
X315120640Y-128938833D01*
X315120521Y-128938573D01*
X315050696Y-128749332D01*
X315050620Y-128749064D01*
X315050611Y-128748871D01*
X315045144Y-128734287D01*
X315039749Y-128719664D01*
X315039629Y-128719511D01*
X315039513Y-128719262D01*
X315010489Y-128641830D01*
X314969722Y-128533071D01*
X314969648Y-128532812D01*
X314969638Y-128532619D01*
X314964059Y-128517961D01*
X314958624Y-128503462D01*
X314958505Y-128503313D01*
X314958389Y-128503066D01*
X314905845Y-128365022D01*
X314888690Y-128319951D01*
X314888615Y-128319699D01*
X314888605Y-128319511D01*
X314883035Y-128305096D01*
X314877443Y-128290404D01*
X314877324Y-128290256D01*
X314877207Y-128290009D01*
X314807657Y-128110009D01*
X314807580Y-128109754D01*
X314807569Y-128109568D01*
X314801872Y-128095038D01*
X314796259Y-128080511D01*
X314796141Y-128080366D01*
X314796025Y-128080125D01*
X314726675Y-127903250D01*
X314726598Y-127902999D01*
X314726586Y-127902814D01*
X314720801Y-127888270D01*
X314715130Y-127873805D01*
X314715014Y-127873664D01*
X314714899Y-127873429D01*
X314645801Y-127699697D01*
X314645725Y-127699451D01*
X314645712Y-127699269D01*
X314639886Y-127684824D01*
X314634114Y-127670311D01*
X314633998Y-127670172D01*
X314633882Y-127669937D01*
X314565095Y-127499380D01*
X314565017Y-127499135D01*
X314565004Y-127498958D01*
X314559110Y-127484541D01*
X314553265Y-127470049D01*
X314553151Y-127469912D01*
X314553036Y-127469683D01*
X314484610Y-127302316D01*
X314484533Y-127302077D01*
X314484519Y-127301902D01*
X314478550Y-127287495D01*
X314472641Y-127273042D01*
X314472529Y-127272910D01*
X314472412Y-127272679D01*
X314404405Y-127108536D01*
X314404327Y-127108297D01*
X314404312Y-127108124D01*
X314398219Y-127093608D01*
X314392297Y-127079314D01*
X314392185Y-127079183D01*
X314392073Y-127078964D01*
X314324533Y-126918050D01*
X314324455Y-126917815D01*
X314324440Y-126917647D01*
X314318395Y-126903425D01*
X314312292Y-126888886D01*
X314312178Y-126888755D01*
X314312066Y-126888538D01*
X314245045Y-126730876D01*
X314244929Y-126730532D01*
X314244905Y-126730279D01*
X314238708Y-126715966D01*
X314238721Y-126715960D01*
X314238680Y-126715899D01*
X314232678Y-126701781D01*
X314232513Y-126701592D01*
X314232348Y-126701277D01*
X314087535Y-126366813D01*
X314087379Y-126366364D01*
X314087345Y-126366041D01*
X314085393Y-126361636D01*
X314081169Y-126352108D01*
X314081128Y-126352016D01*
X314075340Y-126338648D01*
X314075338Y-126338645D01*
X314074982Y-126337822D01*
X314074766Y-126337578D01*
X314074538Y-126337152D01*
X313964618Y-126089197D01*
X313932219Y-126016111D01*
X313932065Y-126015682D01*
X313932030Y-126015368D01*
X313929952Y-126010783D01*
X313925696Y-126001396D01*
X313925656Y-126001307D01*
X313922767Y-125994791D01*
X313919415Y-125987230D01*
X313919205Y-125986996D01*
X313918982Y-125986587D01*
X313779603Y-125679161D01*
X313779450Y-125678744D01*
X313779413Y-125678441D01*
X313772921Y-125664425D01*
X313766554Y-125650381D01*
X313766348Y-125650156D01*
X313766133Y-125649769D01*
X313630130Y-125356134D01*
X313629981Y-125355735D01*
X313629943Y-125355444D01*
X313623328Y-125341449D01*
X313616848Y-125327458D01*
X313616648Y-125327242D01*
X313616442Y-125326878D01*
X313545401Y-125176576D01*
X313484255Y-125047209D01*
X313484110Y-125046833D01*
X313484073Y-125046556D01*
X313477398Y-125032702D01*
X313470752Y-125018641D01*
X313470558Y-125018436D01*
X313470349Y-125018073D01*
X313342438Y-124752591D01*
X313342294Y-124752225D01*
X313342256Y-124751961D01*
X313335422Y-124738031D01*
X313331332Y-124729542D01*
X313329047Y-124724798D01*
X313329042Y-124724789D01*
X313328716Y-124724113D01*
X313328531Y-124723919D01*
X313328334Y-124723584D01*
X313205121Y-124472439D01*
X313205020Y-124472186D01*
X313204992Y-124471996D01*
X313198090Y-124458109D01*
X313191195Y-124444054D01*
X313191060Y-124443915D01*
X313190916Y-124443674D01*
X313138226Y-124337652D01*
X313137994Y-124337084D01*
X313137929Y-124336680D01*
X313130985Y-124323082D01*
X313124169Y-124309367D01*
X313123882Y-124309074D01*
X313123565Y-124308551D01*
X313032723Y-124130661D01*
X313031694Y-124127749D01*
X313031682Y-124127693D01*
X313031682Y-124127692D01*
X313031492Y-124126792D01*
X313024983Y-124115473D01*
X313024709Y-124114967D01*
X313019184Y-124104147D01*
X313019183Y-124104146D01*
X313018765Y-124103327D01*
X313018070Y-124102634D01*
X313016190Y-124100183D01*
X312920980Y-123934609D01*
X312919813Y-123931772D01*
X312919777Y-123931636D01*
X312919776Y-123931634D01*
X312919541Y-123930746D01*
X312919042Y-123929973D01*
X312919041Y-123929970D01*
X312912493Y-123919820D01*
X312912181Y-123919309D01*
X312906177Y-123908867D01*
X312905717Y-123908067D01*
X312904932Y-123907358D01*
X312902945Y-123905020D01*
X312878891Y-123867732D01*
X312788592Y-123727757D01*
X312787282Y-123724981D01*
X312786967Y-123723996D01*
X312779379Y-123713446D01*
X312779045Y-123712957D01*
X312772482Y-123702784D01*
X312771984Y-123702012D01*
X312771180Y-123701357D01*
X312769074Y-123699120D01*
X312660966Y-123548820D01*
X312659507Y-123546091D01*
X312659493Y-123546053D01*
X312659493Y-123546052D01*
X312659171Y-123545194D01*
X312658599Y-123544476D01*
X312651016Y-123534961D01*
X312650668Y-123534501D01*
X312643568Y-123524631D01*
X312643031Y-123523884D01*
X312642291Y-123523341D01*
X312642288Y-123523338D01*
X312642259Y-123523317D01*
X312640027Y-123521174D01*
X312639885Y-123520995D01*
X312517124Y-123366962D01*
X312516181Y-123365374D01*
X312516149Y-123365394D01*
X312515661Y-123364611D01*
X312515303Y-123363764D01*
X312506445Y-123353546D01*
X312506143Y-123353183D01*
X312498273Y-123343308D01*
X312498272Y-123343307D01*
X312497699Y-123342588D01*
X312496930Y-123342080D01*
X312496252Y-123341460D01*
X312496277Y-123341432D01*
X312494887Y-123340212D01*
X312456472Y-123295899D01*
X312421786Y-123255887D01*
X312420827Y-123254411D01*
X312420782Y-123254442D01*
X312420267Y-123253683D01*
X312419875Y-123252849D01*
X312419247Y-123252180D01*
X312419246Y-123252178D01*
X312410522Y-123242880D01*
X312410215Y-123242539D01*
X312401900Y-123232948D01*
X312401297Y-123232252D01*
X312400508Y-123231777D01*
X312399803Y-123231183D01*
X312399838Y-123231141D01*
X312398469Y-123230034D01*
X312276116Y-123099627D01*
X312274895Y-123097916D01*
X312274370Y-123097214D01*
X312273939Y-123096398D01*
X312264394Y-123087117D01*
X312264049Y-123086765D01*
X312255595Y-123077755D01*
X312255593Y-123077754D01*
X312254964Y-123077083D01*
X312254158Y-123076640D01*
X312253445Y-123076086D01*
X312251778Y-123074852D01*
X312178336Y-123003449D01*
X312128986Y-122955468D01*
X312127083Y-122953053D01*
X312127018Y-122952944D01*
X312126549Y-122952154D01*
X312116782Y-122943581D01*
X312116349Y-122943181D01*
X312107694Y-122934766D01*
X312107692Y-122934764D01*
X312107031Y-122934122D01*
X312106090Y-122933659D01*
X312103536Y-122931954D01*
X311933758Y-122782933D01*
X311931761Y-122780659D01*
X311931561Y-122780360D01*
X311931558Y-122780357D01*
X311931046Y-122779594D01*
X311920974Y-122771690D01*
X311920505Y-122771300D01*
X311911609Y-122763491D01*
X311911608Y-122763490D01*
X311910916Y-122762883D01*
X311910074Y-122762521D01*
X311910068Y-122762517D01*
X311909730Y-122762372D01*
X311907135Y-122760830D01*
X311741302Y-122630698D01*
X311739160Y-122628507D01*
X311739069Y-122628386D01*
X311738515Y-122627646D01*
X311737762Y-122627115D01*
X311737761Y-122627114D01*
X311727916Y-122620173D01*
X311727436Y-122619816D01*
X311717949Y-122612372D01*
X311717945Y-122612370D01*
X311717224Y-122611804D01*
X311716361Y-122611488D01*
X311716356Y-122611485D01*
X311716215Y-122611433D01*
X311713505Y-122610014D01*
X311554481Y-122497901D01*
X311552535Y-122496096D01*
X311552247Y-122495842D01*
X311551663Y-122495134D01*
X311540530Y-122488050D01*
X311540089Y-122487755D01*
X311529293Y-122480144D01*
X311528418Y-122479873D01*
X311528086Y-122479710D01*
X311525655Y-122478585D01*
X311451871Y-122431637D01*
X311375780Y-122383221D01*
X311373532Y-122381327D01*
X311373427Y-122381243D01*
X311372806Y-122380560D01*
X311361375Y-122374039D01*
X311360894Y-122373748D01*
X311350596Y-122367196D01*
X311349820Y-122366702D01*
X311348930Y-122366472D01*
X311348858Y-122366441D01*
X311346075Y-122365310D01*
X311191671Y-122277231D01*
X311168731Y-122264145D01*
X311166578Y-122262502D01*
X311166307Y-122262305D01*
X311165652Y-122261651D01*
X311153890Y-122255666D01*
X311153462Y-122255435D01*
X311141975Y-122248882D01*
X311141074Y-122248695D01*
X311140777Y-122248583D01*
X311138191Y-122247676D01*
X311013268Y-122184102D01*
X311007350Y-122176976D01*
X310908616Y-121841271D01*
X310795985Y-121458324D01*
X310685744Y-121083503D01*
X310685743Y-121083502D01*
X310685742Y-121083497D01*
X310685740Y-121083495D01*
X310575499Y-120708671D01*
X310575497Y-120708669D01*
X310465256Y-120333845D01*
X310465255Y-120333843D01*
X310355012Y-119959018D01*
X310244766Y-119584191D01*
X310136911Y-119217488D01*
X310033217Y-118864932D01*
X310033217Y-118864929D01*
X309914033Y-118459713D01*
X309803789Y-118084887D01*
X309693547Y-117710061D01*
X309603688Y-117404540D01*
X309583306Y-117335240D01*
X309583305Y-117335239D01*
X309583304Y-117335234D01*
X309583302Y-117335232D01*
X309473061Y-116960408D01*
X309362819Y-116585581D01*
X309318799Y-116435910D01*
X309261490Y-116241054D01*
X309261264Y-116239543D01*
X309261169Y-116239559D01*
X309261019Y-116238648D01*
X309261014Y-116237729D01*
X309256633Y-116224514D01*
X309256514Y-116224134D01*
X309256487Y-116224042D01*
X309252579Y-116210756D01*
X309252060Y-116209999D01*
X309251665Y-116209165D01*
X309251756Y-116209122D01*
X309251075Y-116207752D01*
X309166489Y-115952624D01*
X309166463Y-115952518D01*
X309166462Y-115952440D01*
X309161516Y-115937626D01*
X309161520Y-115937625D01*
X309161510Y-115937608D01*
X309156529Y-115922585D01*
X309156481Y-115922519D01*
X309156439Y-115922419D01*
X309125034Y-115828362D01*
X309070977Y-115666461D01*
X309070952Y-115666359D01*
X309070951Y-115666279D01*
X309065967Y-115651456D01*
X309065959Y-115651432D01*
X309061031Y-115636670D01*
X309061029Y-115636664D01*
X309060955Y-115636444D01*
X309060906Y-115636378D01*
X309060861Y-115636273D01*
X308974503Y-115379436D01*
X308974476Y-115379328D01*
X308974475Y-115379249D01*
X308969471Y-115364471D01*
X308964416Y-115349437D01*
X308964368Y-115349373D01*
X308964323Y-115349266D01*
X308877056Y-115091544D01*
X308877028Y-115091437D01*
X308877027Y-115091357D01*
X308872035Y-115076717D01*
X308866905Y-115061567D01*
X308866856Y-115061500D01*
X308866811Y-115061397D01*
X308778633Y-114802801D01*
X308778604Y-114802690D01*
X308778603Y-114802610D01*
X308773504Y-114787760D01*
X308773496Y-114787736D01*
X308768494Y-114773066D01*
X308768491Y-114773060D01*
X308768417Y-114772842D01*
X308768367Y-114772776D01*
X308768325Y-114772680D01*
X308696351Y-114563070D01*
X308679228Y-114513204D01*
X308679199Y-114513094D01*
X308679198Y-114513014D01*
X308674128Y-114498351D01*
X308668949Y-114483269D01*
X308668899Y-114483203D01*
X308668854Y-114483099D01*
X308578833Y-114222761D01*
X308578807Y-114222659D01*
X308578805Y-114222575D01*
X308573672Y-114207833D01*
X308573674Y-114207807D01*
X308573664Y-114207810D01*
X308568569Y-114193076D01*
X308568492Y-114192853D01*
X308568444Y-114192789D01*
X308568394Y-114192675D01*
X308477451Y-113931491D01*
X308477421Y-113931378D01*
X308477419Y-113931299D01*
X308472289Y-113916669D01*
X308467042Y-113901599D01*
X308466991Y-113901532D01*
X308466945Y-113901427D01*
X308375065Y-113639380D01*
X308375036Y-113639273D01*
X308375034Y-113639191D01*
X308369858Y-113624530D01*
X308364593Y-113609515D01*
X308364542Y-113609447D01*
X308364496Y-113609344D01*
X308271678Y-113346454D01*
X308271648Y-113346343D01*
X308271646Y-113346260D01*
X308266310Y-113331251D01*
X308261219Y-113316830D01*
X308261216Y-113316823D01*
X308261140Y-113316608D01*
X308261091Y-113316544D01*
X308261043Y-113316436D01*
X308167280Y-113052703D01*
X308167250Y-113052593D01*
X308167248Y-113052509D01*
X308161936Y-113037672D01*
X308156678Y-113022881D01*
X308156629Y-113022817D01*
X308156580Y-113022707D01*
X308061869Y-112758145D01*
X308061837Y-112758028D01*
X308061834Y-112757947D01*
X308056588Y-112743395D01*
X308051200Y-112728343D01*
X308051149Y-112728277D01*
X308051100Y-112728167D01*
X307996292Y-112576122D01*
X307955429Y-112462762D01*
X307955402Y-112462663D01*
X307955399Y-112462579D01*
X307950153Y-112448126D01*
X307950144Y-112448101D01*
X307944785Y-112433232D01*
X307944782Y-112433225D01*
X307944700Y-112432998D01*
X307944647Y-112432930D01*
X307944600Y-112432828D01*
X307867416Y-112220174D01*
X307847975Y-112166610D01*
X307847943Y-112166495D01*
X307847940Y-112166411D01*
X307842497Y-112151519D01*
X307842488Y-112151494D01*
X307837260Y-112137087D01*
X307837256Y-112137078D01*
X307837175Y-112136855D01*
X307837125Y-112136790D01*
X307837075Y-112136681D01*
X307792062Y-112013518D01*
X307739479Y-111869641D01*
X307739449Y-111869534D01*
X307739446Y-111869448D01*
X307733983Y-111854602D01*
X307728616Y-111839917D01*
X307728564Y-111839851D01*
X307728515Y-111839744D01*
X307658550Y-111649611D01*
X307629951Y-111571891D01*
X307629921Y-111571785D01*
X307629917Y-111571699D01*
X307624462Y-111556976D01*
X307624453Y-111556951D01*
X307619109Y-111542428D01*
X307619106Y-111542422D01*
X307619022Y-111542193D01*
X307618970Y-111542127D01*
X307618919Y-111542017D01*
X307519380Y-111273368D01*
X307519348Y-111273255D01*
X307519344Y-111273168D01*
X307513803Y-111258315D01*
X307508383Y-111243687D01*
X307508331Y-111243621D01*
X307508283Y-111243517D01*
X307407758Y-110974060D01*
X307407726Y-110973947D01*
X307407722Y-110973862D01*
X307402216Y-110959202D01*
X307396696Y-110944407D01*
X307396643Y-110944340D01*
X307396592Y-110944232D01*
X307295081Y-110673981D01*
X307295050Y-110673873D01*
X307295046Y-110673787D01*
X307289517Y-110659168D01*
X307283954Y-110644357D01*
X307283901Y-110644290D01*
X307283851Y-110644183D01*
X307181348Y-110373147D01*
X307181316Y-110373036D01*
X307181311Y-110372949D01*
X307181220Y-110372710D01*
X307175707Y-110358230D01*
X307175697Y-110358206D01*
X307170153Y-110343546D01*
X307170101Y-110343481D01*
X307170047Y-110343366D01*
X307066550Y-110071561D01*
X307066514Y-110071440D01*
X307066510Y-110071355D01*
X307060805Y-110056474D01*
X307055285Y-110041977D01*
X307055231Y-110041911D01*
X307055182Y-110041807D01*
X307046540Y-110019265D01*
X306950675Y-109769205D01*
X306950644Y-109769098D01*
X306950639Y-109769009D01*
X306944912Y-109754171D01*
X306939348Y-109739658D01*
X306939295Y-109739592D01*
X306939242Y-109739482D01*
X306901742Y-109642326D01*
X306833731Y-109466122D01*
X306833696Y-109466006D01*
X306833691Y-109465921D01*
X306828038Y-109451373D01*
X306828043Y-109451371D01*
X306828028Y-109451348D01*
X306822425Y-109436833D01*
X306822334Y-109436596D01*
X306822278Y-109436527D01*
X306822228Y-109436423D01*
X306775410Y-109315944D01*
X306715700Y-109162290D01*
X306715667Y-109162182D01*
X306715662Y-109162094D01*
X306709971Y-109147549D01*
X306704238Y-109132795D01*
X306704184Y-109132728D01*
X306704129Y-109132615D01*
X306605634Y-108880866D01*
X306596584Y-108857734D01*
X306596550Y-108857622D01*
X306596545Y-108857534D01*
X306590755Y-108842834D01*
X306585054Y-108828263D01*
X306584999Y-108828195D01*
X306584946Y-108828086D01*
X306476374Y-108552452D01*
X306476339Y-108552338D01*
X306476334Y-108552250D01*
X306476243Y-108552020D01*
X306476241Y-108552014D01*
X306470589Y-108537763D01*
X306470579Y-108537738D01*
X306466864Y-108528305D01*
X306464776Y-108523005D01*
X306464720Y-108522937D01*
X306464665Y-108522825D01*
X306355069Y-108246454D01*
X306355032Y-108246335D01*
X306355026Y-108246246D01*
X306349091Y-108231379D01*
X306343400Y-108217029D01*
X306343345Y-108216962D01*
X306343292Y-108216854D01*
X306298650Y-108105035D01*
X306232653Y-107939726D01*
X306232618Y-107939614D01*
X306232612Y-107939528D01*
X306226872Y-107925248D01*
X306220920Y-107910338D01*
X306220863Y-107910269D01*
X306220807Y-107910156D01*
X306109133Y-107632305D01*
X306109096Y-107632187D01*
X306109090Y-107632101D01*
X306103267Y-107617709D01*
X306099924Y-107609393D01*
X306097428Y-107603182D01*
X306097427Y-107603181D01*
X306097331Y-107602941D01*
X306097274Y-107602873D01*
X306097217Y-107602759D01*
X305984496Y-107324178D01*
X305984460Y-107324064D01*
X305984453Y-107323976D01*
X305978485Y-107309326D01*
X305972625Y-107294843D01*
X305972568Y-107294776D01*
X305972512Y-107294664D01*
X305964308Y-107274525D01*
X305858738Y-107015362D01*
X305858701Y-107015245D01*
X305858694Y-107015156D01*
X305852689Y-107000512D01*
X305846798Y-106986051D01*
X305846742Y-106985984D01*
X305846686Y-106985874D01*
X305798220Y-106867689D01*
X305731851Y-106705845D01*
X305731805Y-106705702D01*
X305731796Y-106705590D01*
X305725772Y-106691023D01*
X305719846Y-106676571D01*
X305719775Y-106676487D01*
X305719706Y-106676350D01*
X305540994Y-106244157D01*
X305540936Y-106243980D01*
X305540925Y-106243850D01*
X305534891Y-106229401D01*
X305528904Y-106214922D01*
X305528819Y-106214822D01*
X305528733Y-106214654D01*
X305430967Y-105980541D01*
X305349372Y-105785151D01*
X305349313Y-105784973D01*
X305349302Y-105784841D01*
X305343188Y-105770341D01*
X305337179Y-105755953D01*
X305337093Y-105755852D01*
X305337009Y-105755690D01*
X305157024Y-105328875D01*
X305156964Y-105328694D01*
X305156952Y-105328563D01*
X305150716Y-105313918D01*
X305144728Y-105299717D01*
X305144643Y-105299619D01*
X305144562Y-105299462D01*
X304963971Y-104875319D01*
X304963913Y-104875147D01*
X304963901Y-104875019D01*
X304957784Y-104860789D01*
X304951578Y-104846213D01*
X304951492Y-104846113D01*
X304951406Y-104845950D01*
X304770247Y-104424509D01*
X304770187Y-104424335D01*
X304770175Y-104424208D01*
X304763975Y-104409921D01*
X304757752Y-104395443D01*
X304757666Y-104395345D01*
X304757579Y-104395181D01*
X304666845Y-104186082D01*
X304575870Y-103976427D01*
X304575813Y-103976261D01*
X304575800Y-103976131D01*
X304569522Y-103961798D01*
X304563278Y-103947408D01*
X304563193Y-103947312D01*
X304563107Y-103947151D01*
X304380877Y-103531095D01*
X304380816Y-103530922D01*
X304380803Y-103530792D01*
X304374390Y-103516284D01*
X304368182Y-103502111D01*
X304368098Y-103502016D01*
X304368013Y-103501857D01*
X304185280Y-103088485D01*
X304185220Y-103088317D01*
X304185207Y-103088190D01*
X304178865Y-103073973D01*
X304172489Y-103059550D01*
X304172404Y-103059454D01*
X304172317Y-103059294D01*
X304008675Y-102692471D01*
X303989114Y-102648623D01*
X303989054Y-102648454D01*
X303989040Y-102648327D01*
X303982596Y-102634012D01*
X303976224Y-102619728D01*
X303976139Y-102619634D01*
X303976054Y-102619477D01*
X303792401Y-102211493D01*
X303792341Y-102211327D01*
X303792327Y-102211202D01*
X303785900Y-102197051D01*
X303779415Y-102182645D01*
X303779330Y-102182552D01*
X303779242Y-102182391D01*
X303595171Y-101777115D01*
X303595109Y-101776943D01*
X303595094Y-101776820D01*
X303594946Y-101776496D01*
X303594943Y-101776489D01*
X303588561Y-101762562D01*
X303588545Y-101762527D01*
X303582234Y-101748632D01*
X303582085Y-101748304D01*
X303582000Y-101748211D01*
X303581915Y-101748058D01*
X303397441Y-101345465D01*
X303397382Y-101345304D01*
X303397367Y-101345178D01*
X303390804Y-101330980D01*
X303390802Y-101330938D01*
X303390788Y-101330945D01*
X303384411Y-101317029D01*
X303384263Y-101316705D01*
X303384179Y-101316614D01*
X303384090Y-101316454D01*
X303199247Y-100916570D01*
X303199186Y-100916405D01*
X303199171Y-100916281D01*
X303192586Y-100902157D01*
X303185972Y-100887849D01*
X303185885Y-100887755D01*
X303185802Y-100887609D01*
X303000611Y-100490413D01*
X303000550Y-100490251D01*
X303000534Y-100490127D01*
X302993888Y-100475994D01*
X302987241Y-100461738D01*
X302987156Y-100461646D01*
X302987070Y-100461495D01*
X302801558Y-100067006D01*
X302801496Y-100066844D01*
X302801480Y-100066719D01*
X302794708Y-100052441D01*
X302788092Y-100038371D01*
X302788008Y-100038282D01*
X302787921Y-100038130D01*
X302602114Y-99646344D01*
X302602050Y-99646177D01*
X302602034Y-99646057D01*
X302595252Y-99631875D01*
X302588554Y-99617753D01*
X302588471Y-99617665D01*
X302588384Y-99617514D01*
X302402302Y-99228425D01*
X302402239Y-99228262D01*
X302402223Y-99228143D01*
X302395475Y-99214150D01*
X302388651Y-99199881D01*
X302388566Y-99199791D01*
X302388479Y-99199642D01*
X302202153Y-98813258D01*
X302202091Y-98813099D01*
X302202074Y-98812979D01*
X302201920Y-98812663D01*
X302201918Y-98812657D01*
X302195191Y-98798822D01*
X302195174Y-98798788D01*
X302188560Y-98785071D01*
X302188557Y-98785066D01*
X302188409Y-98784759D01*
X302188327Y-98784674D01*
X302188239Y-98784523D01*
X302001692Y-98400846D01*
X302001628Y-98400683D01*
X302001611Y-98400565D01*
X301994735Y-98386538D01*
X301994719Y-98386504D01*
X301988010Y-98372705D01*
X301988008Y-98372701D01*
X301987855Y-98372387D01*
X301987770Y-98372299D01*
X301987685Y-98372154D01*
X301807609Y-98004785D01*
X301800934Y-97991168D01*
X301800876Y-97991022D01*
X301800859Y-97990901D01*
X301794012Y-97977044D01*
X301794009Y-97977005D01*
X301793996Y-97977012D01*
X301787167Y-97963081D01*
X301787013Y-97962766D01*
X301786929Y-97962680D01*
X301786838Y-97962525D01*
X301599931Y-97584271D01*
X301599866Y-97584109D01*
X301599848Y-97583990D01*
X301592805Y-97569849D01*
X301585911Y-97555898D01*
X301585827Y-97555812D01*
X301585742Y-97555671D01*
X301563634Y-97511285D01*
X301398679Y-97180103D01*
X301398617Y-97179950D01*
X301398599Y-97179833D01*
X301391620Y-97165930D01*
X301384573Y-97151783D01*
X301384490Y-97151698D01*
X301384398Y-97151546D01*
X301286789Y-96957113D01*
X301197224Y-96778705D01*
X301197159Y-96778548D01*
X301197141Y-96778430D01*
X301190021Y-96764358D01*
X301183026Y-96750424D01*
X301182944Y-96750340D01*
X301182859Y-96750200D01*
X300995578Y-96380050D01*
X300995517Y-96379901D01*
X300995498Y-96379783D01*
X300988369Y-96365800D01*
X300988366Y-96365762D01*
X300988353Y-96365769D01*
X300981449Y-96352123D01*
X300981445Y-96352117D01*
X300981295Y-96351820D01*
X300981213Y-96351737D01*
X300981126Y-96351595D01*
X300793781Y-95984165D01*
X300793716Y-95984009D01*
X300793698Y-95983894D01*
X300786518Y-95969920D01*
X300786523Y-95969917D01*
X300786501Y-95969887D01*
X300779563Y-95956279D01*
X300779407Y-95955973D01*
X300779322Y-95955888D01*
X300779243Y-95955760D01*
X300591843Y-95591021D01*
X300591784Y-95590880D01*
X300591764Y-95590763D01*
X300584610Y-95576944D01*
X300577386Y-95562884D01*
X300577304Y-95562802D01*
X300577214Y-95562658D01*
X300430141Y-95278569D01*
X300389804Y-95200652D01*
X300389744Y-95200510D01*
X300389724Y-95200392D01*
X300382443Y-95186434D01*
X300375259Y-95172556D01*
X300375177Y-95172474D01*
X300375093Y-95172340D01*
X300187683Y-94813039D01*
X300187622Y-94812895D01*
X300187602Y-94812779D01*
X300180329Y-94798938D01*
X300180325Y-94798901D01*
X300180313Y-94798908D01*
X300173207Y-94785284D01*
X300173206Y-94785283D01*
X300173052Y-94784987D01*
X300172970Y-94784907D01*
X300172880Y-94784763D01*
X299985510Y-94428192D01*
X299985446Y-94428043D01*
X299985426Y-94427930D01*
X299978054Y-94414004D01*
X299970790Y-94400180D01*
X299970706Y-94400098D01*
X299970624Y-94399969D01*
X299872825Y-94215215D01*
X299783302Y-94046097D01*
X299783240Y-94045955D01*
X299783220Y-94045843D01*
X299783069Y-94045559D01*
X299783066Y-94045553D01*
X299775888Y-94032092D01*
X299775872Y-94032061D01*
X299768656Y-94018431D01*
X299768500Y-94018136D01*
X299768416Y-94018055D01*
X299768331Y-94017922D01*
X299711537Y-93911409D01*
X299581096Y-93666780D01*
X299581032Y-93666635D01*
X299581011Y-93666521D01*
X299573492Y-93652522D01*
X299566206Y-93638857D01*
X299566126Y-93638779D01*
X299566040Y-93638646D01*
X299378897Y-93290196D01*
X299378265Y-93288811D01*
X299378186Y-93288602D01*
X299377998Y-93287703D01*
X299370856Y-93275218D01*
X299370705Y-93274944D01*
X299364375Y-93263158D01*
X299364374Y-93263157D01*
X299363937Y-93262343D01*
X299363271Y-93261705D01*
X299363143Y-93261537D01*
X299362303Y-93260268D01*
X299197318Y-92971866D01*
X299197257Y-92971738D01*
X299197236Y-92971639D01*
X299189378Y-92957989D01*
X299181604Y-92944399D01*
X299181530Y-92944332D01*
X299181449Y-92944214D01*
X299014786Y-92654690D01*
X299014724Y-92654561D01*
X299014703Y-92654461D01*
X299006818Y-92640848D01*
X298998998Y-92627264D01*
X298998923Y-92627196D01*
X298998839Y-92627074D01*
X298880531Y-92422833D01*
X298830469Y-92336408D01*
X298830409Y-92336284D01*
X298830387Y-92336182D01*
X298822458Y-92322580D01*
X298814609Y-92309029D01*
X298814533Y-92308960D01*
X298814452Y-92308843D01*
X298644367Y-92017048D01*
X298644304Y-92016918D01*
X298644282Y-92016818D01*
X298636381Y-92003347D01*
X298628431Y-91989709D01*
X298628353Y-91989639D01*
X298628271Y-91989521D01*
X298456467Y-91696618D01*
X298456401Y-91696484D01*
X298456379Y-91696384D01*
X298448337Y-91682760D01*
X298440454Y-91669320D01*
X298440377Y-91669251D01*
X298440296Y-91669135D01*
X298266754Y-91375125D01*
X298266691Y-91374996D01*
X298266668Y-91374895D01*
X298266516Y-91374639D01*
X298266513Y-91374633D01*
X298258747Y-91361559D01*
X298258742Y-91361525D01*
X298258731Y-91361532D01*
X298250823Y-91348135D01*
X298250822Y-91348134D01*
X298250670Y-91347876D01*
X298250592Y-91347807D01*
X298250502Y-91347679D01*
X298075230Y-91052603D01*
X298075165Y-91052471D01*
X298075141Y-91052366D01*
X298066965Y-91038688D01*
X298066949Y-91038660D01*
X298059223Y-91025654D01*
X298059068Y-91025393D01*
X298058990Y-91025325D01*
X298058909Y-91025210D01*
X297881879Y-90729046D01*
X297881813Y-90728914D01*
X297881790Y-90728813D01*
X297873775Y-90715490D01*
X297873758Y-90715461D01*
X297865806Y-90702156D01*
X297865802Y-90702151D01*
X297865644Y-90701886D01*
X297865564Y-90701816D01*
X297865476Y-90701693D01*
X297686696Y-90404487D01*
X297686629Y-90404354D01*
X297686605Y-90404252D01*
X297678509Y-90390878D01*
X297670384Y-90377371D01*
X297670303Y-90377301D01*
X297670216Y-90377180D01*
X297489670Y-90078929D01*
X297489603Y-90078797D01*
X297489579Y-90078696D01*
X297481538Y-90065498D01*
X297480850Y-90064362D01*
X297473448Y-90052132D01*
X297473445Y-90052127D01*
X297473284Y-90051862D01*
X297473201Y-90051790D01*
X297473116Y-90051673D01*
X297290792Y-89752393D01*
X297290728Y-89752267D01*
X297290702Y-89752161D01*
X297282494Y-89738774D01*
X297274331Y-89725374D01*
X297274251Y-89725305D01*
X297274162Y-89725183D01*
X297090058Y-89424900D01*
X297089990Y-89424767D01*
X297089965Y-89424662D01*
X297081718Y-89411297D01*
X297073519Y-89397923D01*
X297073438Y-89397854D01*
X297073348Y-89397731D01*
X296887457Y-89096457D01*
X296887388Y-89096322D01*
X296887362Y-89096216D01*
X296887196Y-89095948D01*
X296887193Y-89095943D01*
X296878986Y-89082728D01*
X296878968Y-89082699D01*
X296870840Y-89069525D01*
X296870757Y-89069454D01*
X296870673Y-89069339D01*
X296682979Y-88767076D01*
X296682908Y-88766940D01*
X296682882Y-88766835D01*
X296674526Y-88753464D01*
X296666285Y-88740193D01*
X296666203Y-88740124D01*
X296666113Y-88740002D01*
X296557004Y-88565414D01*
X296476609Y-88436772D01*
X296476543Y-88436645D01*
X296476516Y-88436538D01*
X296476351Y-88436275D01*
X296476348Y-88436270D01*
X296468207Y-88423326D01*
X296468189Y-88423298D01*
X296460009Y-88410210D01*
X296459843Y-88409944D01*
X296459761Y-88409875D01*
X296459667Y-88409748D01*
X296268357Y-88105579D01*
X296268284Y-88105441D01*
X296268257Y-88105336D01*
X296259897Y-88092129D01*
X296259879Y-88092100D01*
X296251681Y-88079066D01*
X296251679Y-88079064D01*
X296251509Y-88078793D01*
X296251425Y-88078723D01*
X296251332Y-88078598D01*
X296058196Y-87773493D01*
X296058122Y-87773354D01*
X296058095Y-87773248D01*
X296049677Y-87760035D01*
X296041270Y-87746754D01*
X296041184Y-87746683D01*
X296041093Y-87746562D01*
X295906201Y-87534832D01*
X295846120Y-87440528D01*
X295846050Y-87440397D01*
X295846022Y-87440288D01*
X295837526Y-87427038D01*
X295837520Y-87427003D01*
X295837508Y-87427010D01*
X295829290Y-87414110D01*
X295829287Y-87414106D01*
X295829120Y-87413844D01*
X295829036Y-87413775D01*
X295828938Y-87413645D01*
X295802799Y-87372879D01*
X295761064Y-87307792D01*
X295632133Y-87106717D01*
X295632056Y-87106574D01*
X295632029Y-87106470D01*
X295623546Y-87093325D01*
X295623528Y-87093296D01*
X295615229Y-87080354D01*
X295615227Y-87080351D01*
X295615051Y-87080077D01*
X295614965Y-87080006D01*
X295614869Y-87079880D01*
X295416211Y-86772055D01*
X295416137Y-86771918D01*
X295416108Y-86771810D01*
X295407579Y-86758679D01*
X295399053Y-86745468D01*
X295398966Y-86745397D01*
X295398870Y-86745271D01*
X295350427Y-86670690D01*
X295198353Y-86436567D01*
X295198279Y-86436430D01*
X295198250Y-86436324D01*
X295189750Y-86423323D01*
X295181118Y-86410033D01*
X295181030Y-86409962D01*
X295180933Y-86409836D01*
X294978552Y-86100273D01*
X294978475Y-86100133D01*
X294978446Y-86100025D01*
X294978268Y-86099754D01*
X294969872Y-86086993D01*
X294969853Y-86086965D01*
X294961414Y-86074058D01*
X294961237Y-86073787D01*
X294961149Y-86073716D01*
X294961053Y-86073592D01*
X294756797Y-85763182D01*
X294756718Y-85763038D01*
X294756688Y-85762930D01*
X294750411Y-85753451D01*
X294747945Y-85749728D01*
X294747926Y-85749700D01*
X294739578Y-85737014D01*
X294739401Y-85736745D01*
X294739315Y-85736676D01*
X294739218Y-85736551D01*
X294630498Y-85572400D01*
X294533070Y-85425297D01*
X294532998Y-85425166D01*
X294532966Y-85425054D01*
X294532784Y-85424781D01*
X294532779Y-85424772D01*
X294524225Y-85411940D01*
X294524205Y-85411912D01*
X294515780Y-85399191D01*
X294515779Y-85399190D01*
X294515601Y-85398921D01*
X294515513Y-85398851D01*
X294515412Y-85398723D01*
X294307380Y-85086660D01*
X294307303Y-85086523D01*
X294307272Y-85086412D01*
X294298524Y-85073375D01*
X294289830Y-85060333D01*
X294289740Y-85060262D01*
X294289642Y-85060137D01*
X294079711Y-84747271D01*
X294079630Y-84747128D01*
X294079599Y-84747019D01*
X294070789Y-84733975D01*
X294062079Y-84720994D01*
X294061991Y-84720925D01*
X294061888Y-84720796D01*
X293850051Y-84407145D01*
X293849969Y-84407001D01*
X293849937Y-84406892D01*
X293841100Y-84393893D01*
X293834832Y-84384612D01*
X293832528Y-84381200D01*
X293832522Y-84381193D01*
X293832338Y-84380920D01*
X293832248Y-84380850D01*
X293832145Y-84380721D01*
X293685994Y-84165739D01*
X293618384Y-84066287D01*
X293618308Y-84066155D01*
X293618275Y-84066043D01*
X293609464Y-84053166D01*
X293600599Y-84040127D01*
X293600506Y-84040055D01*
X293600407Y-84039932D01*
X293384726Y-83724745D01*
X293384642Y-83724599D01*
X293384609Y-83724489D01*
X293375692Y-83711543D01*
X293375672Y-83711513D01*
X293367045Y-83698905D01*
X293367036Y-83698894D01*
X293366854Y-83698628D01*
X293366764Y-83698559D01*
X293366657Y-83698426D01*
X293149043Y-83382498D01*
X293148960Y-83382355D01*
X293148927Y-83382245D01*
X293148740Y-83381976D01*
X293148737Y-83381970D01*
X293140031Y-83369414D01*
X293140011Y-83369385D01*
X293131288Y-83356721D01*
X293131285Y-83356718D01*
X293131094Y-83356440D01*
X293131001Y-83356369D01*
X293130899Y-83356244D01*
X292911337Y-83039576D01*
X292911256Y-83039437D01*
X292911222Y-83039326D01*
X292905347Y-83030908D01*
X292902274Y-83026506D01*
X292902253Y-83026476D01*
X292893505Y-83013858D01*
X292893504Y-83013857D01*
X292893310Y-83013577D01*
X292893216Y-83013506D01*
X292893111Y-83013378D01*
X292671605Y-82696008D01*
X292671535Y-82695888D01*
X292671506Y-82695794D01*
X292662484Y-82682940D01*
X292662485Y-82682939D01*
X292662475Y-82682926D01*
X292653493Y-82670057D01*
X292653413Y-82669997D01*
X292653326Y-82669891D01*
X292505391Y-82459107D01*
X292505335Y-82459012D01*
X292505311Y-82458935D01*
X292496258Y-82446094D01*
X292487209Y-82433201D01*
X292487144Y-82433152D01*
X292487071Y-82433064D01*
X292466532Y-82403932D01*
X292339182Y-82223300D01*
X292339127Y-82223206D01*
X292339103Y-82223130D01*
X292338972Y-82222945D01*
X292338969Y-82222940D01*
X292330091Y-82210404D01*
X292330077Y-82210384D01*
X292321083Y-82197628D01*
X292321082Y-82197626D01*
X292320946Y-82197434D01*
X292320880Y-82197385D01*
X292320808Y-82197298D01*
X292305563Y-82175771D01*
X292172969Y-81988550D01*
X292172913Y-81988456D01*
X292172888Y-81988378D01*
X292163711Y-81975478D01*
X292157649Y-81966918D01*
X292154812Y-81962913D01*
X292154676Y-81962721D01*
X292154612Y-81962673D01*
X292154540Y-81962587D01*
X292006749Y-81754845D01*
X292006695Y-81754756D01*
X292006671Y-81754678D01*
X291997640Y-81742040D01*
X291988405Y-81729059D01*
X291988341Y-81729012D01*
X291988265Y-81728921D01*
X291840546Y-81522206D01*
X291840485Y-81522105D01*
X291840461Y-81522030D01*
X291831302Y-81509271D01*
X291831304Y-81509270D01*
X291831287Y-81509250D01*
X291822279Y-81496643D01*
X291822277Y-81496640D01*
X291822140Y-81496449D01*
X291822074Y-81496401D01*
X291822007Y-81496321D01*
X291674342Y-81290601D01*
X291674285Y-81290507D01*
X291674261Y-81290432D01*
X291674131Y-81290252D01*
X291674127Y-81290245D01*
X291665143Y-81277785D01*
X291665129Y-81277766D01*
X291656019Y-81265074D01*
X291656018Y-81265072D01*
X291655886Y-81264889D01*
X291655823Y-81264843D01*
X291655749Y-81264756D01*
X291508160Y-81060050D01*
X291508102Y-81059955D01*
X291508079Y-81059882D01*
X291507949Y-81059702D01*
X291507945Y-81059696D01*
X291498793Y-81047060D01*
X291498778Y-81047039D01*
X291489783Y-81034563D01*
X291489650Y-81034378D01*
X291489587Y-81034332D01*
X291489514Y-81034246D01*
X291466688Y-81002726D01*
X291342002Y-80830552D01*
X291341944Y-80830458D01*
X291341920Y-80830382D01*
X291332570Y-80817528D01*
X291332556Y-80817508D01*
X291323573Y-80805103D01*
X291323569Y-80805099D01*
X291323437Y-80804916D01*
X291323374Y-80804870D01*
X291323304Y-80804789D01*
X291220568Y-80663545D01*
X291175866Y-80602087D01*
X291175815Y-80602004D01*
X291175790Y-80601929D01*
X291166713Y-80589504D01*
X291162383Y-80583551D01*
X291157392Y-80576689D01*
X291157389Y-80576685D01*
X291157254Y-80576500D01*
X291157190Y-80576453D01*
X291157114Y-80576365D01*
X291118566Y-80523600D01*
X291009776Y-80374688D01*
X291009719Y-80374597D01*
X291009695Y-80374523D01*
X291000442Y-80361913D01*
X290991105Y-80349132D01*
X290991042Y-80349087D01*
X290990968Y-80349000D01*
X290843724Y-80148329D01*
X290843667Y-80148236D01*
X290843642Y-80148162D01*
X290834380Y-80135594D01*
X290834366Y-80135574D01*
X290825141Y-80123001D01*
X290825134Y-80122992D01*
X290824999Y-80122809D01*
X290824935Y-80122763D01*
X290824862Y-80122678D01*
X290677717Y-79923010D01*
X290677659Y-79922917D01*
X290677635Y-79922845D01*
X290668370Y-79910326D01*
X290668371Y-79910325D01*
X290668356Y-79910307D01*
X290659078Y-79897718D01*
X290659077Y-79897717D01*
X290658940Y-79897531D01*
X290658877Y-79897486D01*
X290658803Y-79897401D01*
X290511769Y-79698742D01*
X290511707Y-79698644D01*
X290511683Y-79698572D01*
X290502300Y-79685949D01*
X290492935Y-79673296D01*
X290492871Y-79673251D01*
X290492800Y-79673169D01*
X290345871Y-79475507D01*
X290345813Y-79475415D01*
X290345789Y-79475342D01*
X290336460Y-79462845D01*
X290326989Y-79450104D01*
X290326925Y-79450059D01*
X290326854Y-79449977D01*
X290180044Y-79253318D01*
X290179987Y-79253228D01*
X290179962Y-79253153D01*
X290170396Y-79240393D01*
X290161109Y-79227953D01*
X290161047Y-79227909D01*
X290160973Y-79227825D01*
X290014291Y-79032175D01*
X290014230Y-79032078D01*
X290014205Y-79032005D01*
X290014070Y-79031825D01*
X290004650Y-79019315D01*
X290004635Y-79019295D01*
X289995301Y-79006844D01*
X289995239Y-79006800D01*
X289995165Y-79006716D01*
X289848611Y-78812064D01*
X289848551Y-78811970D01*
X289848526Y-78811898D01*
X289838948Y-78799230D01*
X289829570Y-78786774D01*
X289829507Y-78786730D01*
X289829437Y-78786650D01*
X289683014Y-78592993D01*
X289682957Y-78592904D01*
X289682931Y-78592829D01*
X289673235Y-78580059D01*
X289663923Y-78567743D01*
X289663860Y-78567699D01*
X289663793Y-78567625D01*
X289517508Y-78374960D01*
X289517451Y-78374871D01*
X289517425Y-78374798D01*
X289507709Y-78362055D01*
X289498366Y-78349750D01*
X289498305Y-78349707D01*
X289498237Y-78349631D01*
X289378523Y-78192623D01*
X289352097Y-78157964D01*
X289352040Y-78157875D01*
X289352015Y-78157804D01*
X289351885Y-78157634D01*
X289351881Y-78157628D01*
X289342439Y-78145297D01*
X289342425Y-78145278D01*
X289333042Y-78132973D01*
X289332906Y-78132794D01*
X289332841Y-78132749D01*
X289332777Y-78132677D01*
X289186788Y-77942003D01*
X289186732Y-77941917D01*
X289186707Y-77941846D01*
X289186576Y-77941675D01*
X289186573Y-77941671D01*
X289177241Y-77929533D01*
X289177227Y-77929515D01*
X289167682Y-77917049D01*
X289167548Y-77916874D01*
X289167486Y-77916831D01*
X289167408Y-77916745D01*
X289021592Y-77727086D01*
X289021531Y-77726993D01*
X289021506Y-77726923D01*
X289011852Y-77714418D01*
X289002296Y-77701989D01*
X289002234Y-77701946D01*
X289002165Y-77701870D01*
X288856503Y-77513193D01*
X288856445Y-77513104D01*
X288856419Y-77513034D01*
X288846736Y-77500543D01*
X288837159Y-77488138D01*
X288837097Y-77488096D01*
X288837026Y-77488018D01*
X288691539Y-77300340D01*
X288691478Y-77300247D01*
X288691453Y-77300180D01*
X288681798Y-77287776D01*
X288672142Y-77275320D01*
X288672079Y-77275277D01*
X288672012Y-77275204D01*
X288526692Y-77088509D01*
X288526637Y-77088426D01*
X288526611Y-77088354D01*
X288526477Y-77088183D01*
X288526474Y-77088178D01*
X288516931Y-77075969D01*
X288516916Y-77075950D01*
X288507387Y-77063708D01*
X288507252Y-77063534D01*
X288507190Y-77063492D01*
X288507119Y-77063414D01*
X288373884Y-76892945D01*
X288361985Y-76877720D01*
X288361928Y-76877635D01*
X288361902Y-76877564D01*
X288352154Y-76865142D01*
X288342492Y-76852780D01*
X288342430Y-76852738D01*
X288342361Y-76852663D01*
X288197416Y-76667960D01*
X288197356Y-76667871D01*
X288197331Y-76667802D01*
X288187531Y-76655364D01*
X288177872Y-76643056D01*
X288177810Y-76643015D01*
X288177741Y-76642939D01*
X288065497Y-76500485D01*
X288063068Y-76491866D01*
X288067446Y-76484054D01*
X288076065Y-76481625D01*
X288082292Y-76484353D01*
G37*
G04 #@! TD.AperFunction*
M02*
