G04 #@! TF.GenerationSoftware,KiCad,Pcbnew,(6.0.2)*
G04 #@! TF.CreationDate,2022-04-01T18:40:44-07:00*
G04 #@! TF.ProjectId,DaftPunkTopLayerRightBoard,44616674-5075-46e6-9b54-6f704c617965,rev?*
G04 #@! TF.SameCoordinates,Original*
G04 #@! TF.FileFunction,Legend,Top*
G04 #@! TF.FilePolarity,Positive*
%FSLAX46Y46*%
G04 Gerber Fmt 4.6, Leading zero omitted, Abs format (unit mm)*
G04 Created by KiCad (PCBNEW (6.0.2)) date 2022-04-01 18:40:44*
%MOMM*%
%LPD*%
G01*
G04 APERTURE LIST*
%ADD10C,0.200000*%
%ADD11C,0.350000*%
G04 APERTURE END LIST*
D10*
X328558333Y-163752777D02*
X328753271Y-163648061D01*
X328967514Y-163555261D01*
X329179327Y-163483395D01*
X329423759Y-163423152D01*
X329626652Y-163390882D01*
X329844886Y-163373797D01*
X330077172Y-163375601D01*
X330322222Y-163400000D01*
X331733333Y-158461111D02*
X331484781Y-158281841D01*
X331240025Y-158102609D01*
X330999054Y-157923488D01*
X330761855Y-157744552D01*
X330528417Y-157565877D01*
X330298729Y-157387536D01*
X330072779Y-157209604D01*
X329850556Y-157032155D01*
X329632048Y-156855263D01*
X329417244Y-156679004D01*
X329206132Y-156503451D01*
X328998701Y-156328679D01*
X328794939Y-156154763D01*
X328594835Y-155981776D01*
X328398377Y-155809793D01*
X328205555Y-155638889D01*
D11*
X309158333Y-352052777D02*
X308915208Y-352504156D01*
X308670438Y-352954709D01*
X308424181Y-353404248D01*
X308176600Y-353852584D01*
X307927854Y-354299530D01*
X307678103Y-354744896D01*
X307427510Y-355188494D01*
X307176233Y-355630135D01*
X306924435Y-356069632D01*
X306672274Y-356506796D01*
X306419913Y-356941439D01*
X306167512Y-357373371D01*
X305915230Y-357802405D01*
X305663230Y-358228352D01*
X305411671Y-358651025D01*
X305160714Y-359070233D01*
X304910519Y-359485790D01*
X304661248Y-359897506D01*
X304413061Y-360305193D01*
X304166118Y-360708663D01*
X303920580Y-361107727D01*
X303676608Y-361502198D01*
X303434362Y-361891886D01*
X303194003Y-362276603D01*
X302955692Y-362656160D01*
X302719589Y-363030370D01*
X302485854Y-363399044D01*
X302254649Y-363761993D01*
X302026133Y-364119029D01*
X301800468Y-364469964D01*
X301577815Y-364814610D01*
X301358333Y-365152777D01*
D10*
X313741667Y-283697222D02*
X313653476Y-283476734D01*
X313565282Y-283256247D01*
X313477086Y-283035762D01*
X313388889Y-282815277D01*
X313300691Y-282594792D01*
X313212495Y-282374307D01*
X313124301Y-282153820D01*
X313036111Y-281933333D01*
X342669444Y-166927777D02*
X342704620Y-166715468D01*
X342699201Y-166498171D01*
X342656470Y-166276720D01*
X342579711Y-166051952D01*
X342472210Y-165824701D01*
X342337250Y-165595803D01*
X342178116Y-165366093D01*
X341998092Y-165136407D01*
X341800463Y-164907579D01*
X341588513Y-164680445D01*
X341365526Y-164455841D01*
X341134787Y-164234602D01*
X340899581Y-164017562D01*
X340663191Y-163805559D01*
X340428903Y-163599426D01*
X340200000Y-163400000D01*
D11*
X245126389Y-350901389D02*
X244513886Y-350894335D01*
X243929923Y-350895064D01*
X243366985Y-350903369D01*
X242817559Y-350919044D01*
X242274129Y-350941883D01*
X241729182Y-350971679D01*
X241175202Y-351008227D01*
X240604676Y-351051320D01*
X240010089Y-351100752D01*
X239383926Y-351156316D01*
X238718673Y-351217808D01*
X238369040Y-351250711D01*
X238006816Y-351285019D01*
X237631062Y-351320705D01*
X237240840Y-351357745D01*
X236835209Y-351396111D01*
X236413231Y-351435778D01*
X235973965Y-351476721D01*
X235516474Y-351518913D01*
X235039816Y-351562329D01*
X234543055Y-351606944D01*
D10*
X328205555Y-198677777D02*
X328196559Y-199260456D01*
X328185615Y-199866516D01*
X328172406Y-200496760D01*
X328156617Y-201151988D01*
X328137930Y-201833002D01*
X328116031Y-202540605D01*
X328090603Y-203275598D01*
X328061330Y-204038783D01*
X328027896Y-204830961D01*
X327989984Y-205652934D01*
X327947279Y-206505504D01*
X327899464Y-207389472D01*
X327846224Y-208305641D01*
X327787241Y-209254812D01*
X327722201Y-210237787D01*
X327650787Y-211255367D01*
X327572682Y-212308355D01*
X327487571Y-213397551D01*
X327395138Y-214523759D01*
X327295066Y-215687779D01*
X327187040Y-216890413D01*
X327070743Y-218132463D01*
X326945859Y-219414730D01*
X326812072Y-220738018D01*
X326669065Y-222103126D01*
X326516524Y-223510857D01*
X326354131Y-224962013D01*
X326181571Y-226457395D01*
X325998527Y-227997805D01*
X325804683Y-229584045D01*
X325599724Y-231216917D01*
X325383333Y-232897222D01*
X332086111Y-164458333D02*
X332139714Y-164693964D01*
X332209222Y-164955959D01*
X332297133Y-165239633D01*
X332367198Y-165438479D01*
X332447293Y-165643492D01*
X332538159Y-165853283D01*
X332640535Y-166066465D01*
X332755163Y-166281650D01*
X332882782Y-166497449D01*
X333024133Y-166712477D01*
X333179957Y-166925344D01*
X333350994Y-167134663D01*
X333537983Y-167339047D01*
X333741666Y-167537107D01*
X333850000Y-167633333D01*
X323266667Y-178216666D02*
X323537991Y-178167510D01*
X323822084Y-178137332D01*
X324116413Y-178127821D01*
X324317067Y-178133794D01*
X324520393Y-178150204D01*
X324725639Y-178177550D01*
X324932055Y-178216331D01*
X325138890Y-178267050D01*
X325345393Y-178330205D01*
X325550813Y-178406297D01*
X325754399Y-178495826D01*
X325955400Y-178599293D01*
X326153065Y-178717198D01*
X326346644Y-178850042D01*
X326441667Y-178922222D01*
D11*
X237012500Y-353370833D02*
X237529983Y-353326919D01*
X238029780Y-353281700D01*
X238504639Y-353236403D01*
X238947306Y-353192257D01*
X239350528Y-353150490D01*
X239707053Y-353112331D01*
X240097243Y-353069188D01*
X240465084Y-353026964D01*
X240540278Y-353018055D01*
D10*
X320444444Y-205733333D02*
X320405155Y-205337619D01*
X320366779Y-204939602D01*
X320329337Y-204539291D01*
X320292847Y-204136696D01*
X320257329Y-203731825D01*
X320222805Y-203324690D01*
X320189293Y-202915298D01*
X320156813Y-202503659D01*
X320125386Y-202089784D01*
X320095031Y-201673680D01*
X320065769Y-201255359D01*
X320037619Y-200834829D01*
X320010601Y-200412100D01*
X319984735Y-199987181D01*
X319960041Y-199560082D01*
X319936540Y-199130812D01*
X319914250Y-198699381D01*
X319893192Y-198265798D01*
X319873386Y-197830073D01*
X319854851Y-197392214D01*
X319837609Y-196952233D01*
X319821677Y-196510137D01*
X319807078Y-196065937D01*
X319793830Y-195619642D01*
X319781953Y-195171261D01*
X319771467Y-194720805D01*
X319762393Y-194268282D01*
X319754750Y-193813702D01*
X319748558Y-193357074D01*
X319743837Y-192898408D01*
X319740607Y-192437713D01*
X319738889Y-191975000D01*
X319386111Y-279463889D02*
X319402291Y-279680326D01*
X319409567Y-279892482D01*
X319408441Y-280100240D01*
X319399413Y-280303487D01*
X319359661Y-280695986D01*
X319294323Y-281069063D01*
X319207411Y-281421801D01*
X319102937Y-281753282D01*
X318984913Y-282062589D01*
X318857353Y-282348806D01*
X318724267Y-282611015D01*
X318589669Y-282848298D01*
X318457571Y-283059740D01*
X318331984Y-283244423D01*
X318164590Y-283469268D01*
X318034417Y-283628746D01*
X317975000Y-283697222D01*
D11*
X301923611Y-361837500D02*
X302087432Y-361274217D01*
X302255857Y-360736577D01*
X302428888Y-360221948D01*
X302606527Y-359727701D01*
X302788777Y-359251205D01*
X302975640Y-358789831D01*
X303167120Y-358340948D01*
X303363219Y-357901927D01*
X303563940Y-357470137D01*
X303769284Y-357042949D01*
X303979256Y-356617732D01*
X304193857Y-356191856D01*
X304413091Y-355762691D01*
X304636959Y-355327608D01*
X304865465Y-354883976D01*
X305098611Y-354429166D01*
D10*
X326441667Y-178922222D02*
X326646853Y-179095840D01*
X326831253Y-179276161D01*
X326995977Y-179461195D01*
X327142138Y-179648958D01*
X327270846Y-179837462D01*
X327383215Y-180024719D01*
X327480355Y-180208744D01*
X327599944Y-180474374D01*
X327691523Y-180721554D01*
X327758843Y-180943579D01*
X327817354Y-181188892D01*
X327852778Y-181391666D01*
X320797222Y-227252777D02*
X320837807Y-226405144D01*
X320873536Y-225567162D01*
X320904561Y-224738997D01*
X320931035Y-223920814D01*
X320953110Y-223112776D01*
X320970939Y-222315050D01*
X320984675Y-221527799D01*
X320994471Y-220751189D01*
X321000479Y-219985384D01*
X321002851Y-219230549D01*
X321001741Y-218486850D01*
X320997302Y-217754451D01*
X320989685Y-217033517D01*
X320979045Y-216324212D01*
X320965532Y-215626702D01*
X320949301Y-214941151D01*
X320930504Y-214267725D01*
X320909293Y-213606587D01*
X320885821Y-212957904D01*
X320860242Y-212321839D01*
X320832707Y-211698558D01*
X320803369Y-211088226D01*
X320772382Y-210491006D01*
X320739897Y-209907065D01*
X320706068Y-209336567D01*
X320671047Y-208779677D01*
X320634986Y-208236560D01*
X320598040Y-207707380D01*
X320560359Y-207192302D01*
X320522098Y-206691492D01*
X320483409Y-206205114D01*
X320444444Y-205733333D01*
D11*
X215845833Y-353723611D02*
X216492803Y-353736289D01*
X216880107Y-353743335D01*
X217307196Y-353750626D01*
X217771999Y-353757994D01*
X218272447Y-353765272D01*
X218806469Y-353772290D01*
X219371994Y-353778881D01*
X219966952Y-353784875D01*
X220589273Y-353790105D01*
X221236886Y-353794401D01*
X221907720Y-353797597D01*
X222599706Y-353799522D01*
X223310773Y-353800009D01*
X224038850Y-353798890D01*
X224781867Y-353795995D01*
X225537753Y-353791157D01*
X226304439Y-353784207D01*
X227079853Y-353774976D01*
X227861926Y-353763297D01*
X228648586Y-353749000D01*
X229437763Y-353731918D01*
X230227388Y-353711881D01*
X231015389Y-353688723D01*
X231799696Y-353662273D01*
X232578239Y-353632364D01*
X233348947Y-353598827D01*
X234109750Y-353561494D01*
X234858577Y-353520197D01*
X235593358Y-353474766D01*
X236312022Y-353425034D01*
X237012500Y-353370833D01*
D10*
X333850000Y-167633333D02*
X334127972Y-167855242D01*
X334419547Y-168055093D01*
X334723351Y-168233517D01*
X335038007Y-168391147D01*
X335362139Y-168528613D01*
X335694373Y-168646549D01*
X336033332Y-168745586D01*
X336377641Y-168826356D01*
X336725924Y-168889491D01*
X337076806Y-168935622D01*
X337428910Y-168965383D01*
X337780863Y-168979404D01*
X338131287Y-168978318D01*
X338478807Y-168962757D01*
X338822048Y-168933352D01*
X339159635Y-168890736D01*
X339490190Y-168835540D01*
X339812339Y-168768396D01*
X340124707Y-168689937D01*
X340425917Y-168600794D01*
X340714594Y-168501600D01*
X340989363Y-168392985D01*
X341248847Y-168275583D01*
X341491672Y-168150025D01*
X341716461Y-168016942D01*
X341921839Y-167876968D01*
X342106431Y-167730733D01*
X342268860Y-167578871D01*
X342407752Y-167422012D01*
X342609419Y-167095833D01*
X342669444Y-166927777D01*
X318680555Y-247008333D02*
X318786866Y-246207818D01*
X318890191Y-245430594D01*
X318990568Y-244675515D01*
X319088037Y-243941433D01*
X319182639Y-243227199D01*
X319274411Y-242531667D01*
X319363395Y-241853689D01*
X319449629Y-241192118D01*
X319533153Y-240545806D01*
X319614007Y-239913605D01*
X319692230Y-239294368D01*
X319767861Y-238686947D01*
X319840941Y-238090195D01*
X319911508Y-237502964D01*
X319979603Y-236924108D01*
X320045265Y-236352477D01*
X320108533Y-235786925D01*
X320169447Y-235226305D01*
X320228047Y-234669468D01*
X320284371Y-234115267D01*
X320338461Y-233562555D01*
X320390354Y-233010184D01*
X320440092Y-232457006D01*
X320487712Y-231901875D01*
X320533256Y-231343642D01*
X320576761Y-230781160D01*
X320618269Y-230213281D01*
X320657818Y-229638859D01*
X320695449Y-229056744D01*
X320731200Y-228465791D01*
X320765111Y-227864851D01*
X320797222Y-227252777D01*
D11*
X301358333Y-365152777D02*
X301367880Y-364716379D01*
X301398420Y-364345297D01*
X301448365Y-363954792D01*
X301516837Y-363544957D01*
X301602958Y-363115885D01*
X301705847Y-362667668D01*
X301793490Y-362318997D01*
X301889701Y-361959649D01*
X301923611Y-361837500D01*
X313212500Y-335026389D02*
X313155367Y-335428071D01*
X313094682Y-335837314D01*
X313030350Y-336254203D01*
X312962277Y-336678823D01*
X312890371Y-337111259D01*
X312814537Y-337551597D01*
X312734684Y-337999921D01*
X312650716Y-338456316D01*
X312562540Y-338920869D01*
X312470064Y-339393663D01*
X312373194Y-339874785D01*
X312271835Y-340364319D01*
X312165896Y-340862350D01*
X312055282Y-341368965D01*
X311939899Y-341884247D01*
X311819655Y-342408283D01*
X311694457Y-342941156D01*
X311564209Y-343482953D01*
X311428820Y-344033759D01*
X311288196Y-344593659D01*
X311142242Y-345162737D01*
X310990867Y-345741080D01*
X310833976Y-346328772D01*
X310671475Y-346925899D01*
X310503273Y-347532545D01*
X310329274Y-348148796D01*
X310149386Y-348774738D01*
X309963514Y-349410454D01*
X309771567Y-350056031D01*
X309573450Y-350711554D01*
X309369070Y-351377107D01*
X309158333Y-352052777D01*
D10*
X313741667Y-278758333D02*
X313869396Y-278532944D01*
X314001314Y-278322020D01*
X314135979Y-278125327D01*
X314271947Y-277942634D01*
X314407776Y-277773708D01*
X314542023Y-277618319D01*
X314705409Y-277442764D01*
X314800000Y-277347222D01*
X317975000Y-283697222D02*
X317760057Y-283768292D01*
X317515359Y-283839262D01*
X317313201Y-283890137D01*
X317095769Y-283937212D01*
X316863691Y-283978882D01*
X316617593Y-284013542D01*
X316358103Y-284039589D01*
X316085848Y-284055417D01*
X315801456Y-284059422D01*
X315505555Y-284050000D01*
X340200000Y-163400000D02*
X340037474Y-163261246D01*
X339874718Y-163127359D01*
X339711877Y-162998248D01*
X339549100Y-162873825D01*
X339386533Y-162753999D01*
X339062617Y-162527786D01*
X338741307Y-162318893D01*
X338423777Y-162126607D01*
X338111204Y-161950214D01*
X337804765Y-161788998D01*
X337505636Y-161642247D01*
X337214993Y-161509245D01*
X336934012Y-161389279D01*
X336663869Y-161281633D01*
X336405741Y-161185595D01*
X336160803Y-161100450D01*
X335930233Y-161025483D01*
X335715206Y-160959980D01*
X335613889Y-160930555D01*
X320091667Y-181744444D02*
X320164392Y-181414713D01*
X320257960Y-181095054D01*
X320371497Y-180786429D01*
X320504129Y-180489803D01*
X320654980Y-180206137D01*
X320823176Y-179936395D01*
X321007842Y-179681540D01*
X321208103Y-179442535D01*
X321423085Y-179220343D01*
X321651913Y-179015927D01*
X321893713Y-178830251D01*
X322147609Y-178664276D01*
X322412727Y-178518968D01*
X322688192Y-178395288D01*
X322973131Y-178294199D01*
X323266667Y-178216666D01*
D11*
X225723611Y-352312500D02*
X225333237Y-352354551D01*
X224947507Y-352397194D01*
X224566483Y-352440382D01*
X224190227Y-352484069D01*
X223818803Y-352528209D01*
X223452274Y-352572757D01*
X223090701Y-352617667D01*
X222734148Y-352662892D01*
X222382677Y-352708387D01*
X221695233Y-352800002D01*
X221028872Y-352892145D01*
X220384094Y-352984449D01*
X219761402Y-353076546D01*
X219161297Y-353168068D01*
X218584281Y-353258650D01*
X218030856Y-353347923D01*
X217501523Y-353435520D01*
X216996785Y-353521075D01*
X216517143Y-353604218D01*
X216063099Y-353684584D01*
X215845833Y-353723611D01*
D10*
X313036111Y-281933333D02*
X313029528Y-281668370D01*
X313032773Y-281436046D01*
X313046320Y-281177961D01*
X313073126Y-280896851D01*
X313099824Y-280698005D01*
X313134607Y-280490953D01*
X313178351Y-280276505D01*
X313231933Y-280055473D01*
X313296230Y-279828667D01*
X313372119Y-279596898D01*
X313460475Y-279360978D01*
X313562176Y-279121716D01*
X313678098Y-278879924D01*
X313741667Y-278758333D01*
X328205555Y-155638889D02*
X328216580Y-155892447D01*
X328227605Y-156146006D01*
X328238630Y-156399565D01*
X328249655Y-156653124D01*
X328260680Y-156906683D01*
X328271704Y-157160242D01*
X328282729Y-157413801D01*
X328293753Y-157667360D01*
X328304777Y-157920919D01*
X328315801Y-158174478D01*
X328326825Y-158428037D01*
X328337849Y-158681596D01*
X328348873Y-158935155D01*
X328359896Y-159188714D01*
X328370920Y-159442273D01*
X328381944Y-159695833D01*
X328392967Y-159949392D01*
X328403991Y-160202951D01*
X328415014Y-160456510D01*
X328426038Y-160710069D01*
X328437062Y-160963628D01*
X328448086Y-161217187D01*
X328459110Y-161470746D01*
X328470134Y-161724305D01*
X328481158Y-161977864D01*
X328492183Y-162231423D01*
X328503207Y-162484982D01*
X328514232Y-162738541D01*
X328525257Y-162992100D01*
X328536282Y-163245659D01*
X328547307Y-163499218D01*
X328558333Y-163752777D01*
D11*
X309684722Y-344198611D02*
X309744009Y-343818467D01*
X309797752Y-343436408D01*
X309848596Y-343051736D01*
X309899184Y-342663752D01*
X309952159Y-342271761D01*
X310010166Y-341875064D01*
X310075848Y-341472964D01*
X310151850Y-341064763D01*
X310240814Y-340649764D01*
X310345385Y-340227269D01*
X310468207Y-339796582D01*
X310611924Y-339357003D01*
X310779179Y-338907836D01*
X310972615Y-338448384D01*
X311194878Y-337977949D01*
X311448611Y-337495833D01*
D10*
X325383333Y-232897222D02*
X325243315Y-233962908D01*
X325098434Y-235048881D01*
X324948586Y-236154985D01*
X324793667Y-237281064D01*
X324633574Y-238426962D01*
X324468201Y-239592524D01*
X324297445Y-240777594D01*
X324121202Y-241982016D01*
X323939369Y-243205635D01*
X323751841Y-244448294D01*
X323558514Y-245709838D01*
X323359284Y-246990112D01*
X323154047Y-248288959D01*
X322942700Y-249606224D01*
X322725138Y-250941750D01*
X322501258Y-252295384D01*
X322270954Y-253666967D01*
X322034125Y-255056346D01*
X321790664Y-256463363D01*
X321540470Y-257887864D01*
X321283437Y-259329693D01*
X321019461Y-260788693D01*
X320748439Y-262264710D01*
X320470267Y-263757587D01*
X320184840Y-265267168D01*
X319892055Y-266793299D01*
X319591808Y-268335823D01*
X319283995Y-269894584D01*
X318968511Y-271469427D01*
X318645253Y-273060196D01*
X318314117Y-274666735D01*
X317975000Y-276288889D01*
D11*
X234543055Y-351606944D02*
X234013352Y-351653762D01*
X233518914Y-351696677D01*
X233057853Y-351735921D01*
X232628283Y-351771722D01*
X232228316Y-351804313D01*
X231856066Y-351833922D01*
X231187163Y-351885121D01*
X230606480Y-351927162D01*
X230098918Y-351961889D01*
X229649380Y-351991146D01*
X229242770Y-352016776D01*
X228863989Y-352040623D01*
X228497942Y-352064530D01*
X228129530Y-352090343D01*
X227743657Y-352119903D01*
X227325226Y-352155055D01*
X226859139Y-352197643D01*
X226330300Y-352249510D01*
X225723611Y-352312500D01*
D10*
X319738889Y-191975000D02*
X319738598Y-191637247D01*
X319739119Y-191300619D01*
X319740444Y-190965119D01*
X319742563Y-190630752D01*
X319745468Y-190297521D01*
X319749153Y-189965430D01*
X319753608Y-189634483D01*
X319758826Y-189304685D01*
X319764798Y-188976039D01*
X319771516Y-188648550D01*
X319778972Y-188322221D01*
X319787158Y-187997056D01*
X319796066Y-187673059D01*
X319805688Y-187350235D01*
X319816015Y-187028587D01*
X319827040Y-186708120D01*
X319838754Y-186388837D01*
X319851150Y-186070742D01*
X319864218Y-185753840D01*
X319877952Y-185438134D01*
X319892342Y-185123629D01*
X319907381Y-184810328D01*
X319923061Y-184498235D01*
X319939373Y-184187355D01*
X319956310Y-183877692D01*
X319973863Y-183569249D01*
X319992024Y-183262030D01*
X320010785Y-182956040D01*
X320030138Y-182651282D01*
X320050074Y-182347761D01*
X320070587Y-182045480D01*
X320091667Y-181744444D01*
X314800000Y-277347222D02*
X314951297Y-276122845D01*
X315100981Y-274914910D01*
X315249017Y-273723556D01*
X315395375Y-272548920D01*
X315540021Y-271391141D01*
X315682924Y-270250357D01*
X315824051Y-269126707D01*
X315963370Y-268020328D01*
X316100848Y-266931359D01*
X316236453Y-265859939D01*
X316370153Y-264806206D01*
X316501916Y-263770297D01*
X316631709Y-262752352D01*
X316759500Y-261752508D01*
X316885256Y-260770904D01*
X317008946Y-259807678D01*
X317130537Y-258862968D01*
X317249997Y-257936913D01*
X317367293Y-257029651D01*
X317482393Y-256141321D01*
X317595265Y-255272060D01*
X317705876Y-254422006D01*
X317814195Y-253591299D01*
X317920188Y-252780077D01*
X318023824Y-251988477D01*
X318125070Y-251216638D01*
X318223895Y-250464699D01*
X318320264Y-249732797D01*
X318414148Y-249021071D01*
X318505512Y-248329660D01*
X318594325Y-247658701D01*
X318680555Y-247008333D01*
X317975000Y-276288889D02*
X318127814Y-276465995D01*
X318267830Y-276642516D01*
X318422427Y-276855633D01*
X318585129Y-277104582D01*
X318694903Y-277290075D01*
X318803483Y-277490925D01*
X318908950Y-277706906D01*
X319009386Y-277937789D01*
X319102872Y-278183348D01*
X319187489Y-278443356D01*
X319261320Y-278717585D01*
X319322444Y-279005809D01*
X319368944Y-279307801D01*
X319386111Y-279463889D01*
D11*
X305098611Y-354429166D02*
X305361930Y-353913284D01*
X305616947Y-353413439D01*
X305863716Y-352929294D01*
X306102295Y-352460510D01*
X306332738Y-352006749D01*
X306555103Y-351567673D01*
X306769445Y-351142943D01*
X306975821Y-350732223D01*
X307174286Y-350335174D01*
X307364896Y-349951457D01*
X307547709Y-349580735D01*
X307722779Y-349222669D01*
X307890163Y-348876922D01*
X308049917Y-348543155D01*
X308202097Y-348221031D01*
X308483960Y-347610357D01*
X308736201Y-347042196D01*
X308959269Y-346513843D01*
X309153612Y-346022593D01*
X309319679Y-345565743D01*
X309457919Y-345140587D01*
X309568781Y-344744420D01*
X309652713Y-344374539D01*
X309684722Y-344198611D01*
X240540278Y-353018055D02*
X240931249Y-352970114D01*
X241317466Y-352921030D01*
X241698874Y-352870872D01*
X242075416Y-352819706D01*
X242447038Y-352767602D01*
X242813683Y-352714626D01*
X243175297Y-352660847D01*
X243531823Y-352606333D01*
X243883207Y-352551152D01*
X244229393Y-352495372D01*
X244905948Y-352382285D01*
X245561044Y-352267617D01*
X246194239Y-352151912D01*
X246805087Y-352035713D01*
X247393145Y-351919564D01*
X247957970Y-351804008D01*
X248499118Y-351689590D01*
X249016143Y-351576853D01*
X249508604Y-351466341D01*
X249976056Y-351358597D01*
X250418055Y-351254166D01*
D10*
X327852778Y-181391666D02*
X327874582Y-181791893D01*
X327896260Y-182202175D01*
X327917753Y-182622411D01*
X327939006Y-183052497D01*
X327959961Y-183492331D01*
X327980561Y-183941810D01*
X328000750Y-184400831D01*
X328020470Y-184869293D01*
X328039666Y-185347092D01*
X328058280Y-185834127D01*
X328076255Y-186330294D01*
X328093535Y-186835491D01*
X328110062Y-187349615D01*
X328125780Y-187872564D01*
X328140633Y-188404235D01*
X328154562Y-188944526D01*
X328167512Y-189493334D01*
X328179425Y-190050557D01*
X328190245Y-190616092D01*
X328199914Y-191189836D01*
X328208377Y-191771687D01*
X328215576Y-192361543D01*
X328221454Y-192959300D01*
X328225955Y-193564857D01*
X328229022Y-194178110D01*
X328230597Y-194798958D01*
X328230625Y-195427297D01*
X328229048Y-196063025D01*
X328225809Y-196706039D01*
X328220852Y-197356238D01*
X328214119Y-198013518D01*
X328205555Y-198677777D01*
X335613889Y-160930555D02*
X335386032Y-160801496D01*
X335155889Y-160669239D01*
X334923531Y-160533746D01*
X334689027Y-160394981D01*
X334452449Y-160252906D01*
X334213867Y-160107485D01*
X333973351Y-159958681D01*
X333730972Y-159806456D01*
X333486800Y-159650775D01*
X333240907Y-159491600D01*
X332993362Y-159328893D01*
X332744236Y-159162620D01*
X332493599Y-158992741D01*
X332241523Y-158819222D01*
X331988077Y-158642024D01*
X331733333Y-158461111D01*
X315505555Y-284050000D02*
X315304715Y-284035681D01*
X315047510Y-284007916D01*
X314802819Y-283971567D01*
X314571101Y-283928078D01*
X314352812Y-283878896D01*
X314148413Y-283825468D01*
X313913142Y-283754916D01*
X313741667Y-283697222D01*
X330322222Y-163400000D02*
X330608719Y-163458645D01*
X330870061Y-163542654D01*
X331106281Y-163646155D01*
X331317410Y-163763271D01*
X331503481Y-163888129D01*
X331664526Y-164014855D01*
X331840378Y-164176575D01*
X331997824Y-164347495D01*
X332086111Y-164458333D01*
D11*
X250418055Y-351254166D02*
X250058882Y-351213544D01*
X249668318Y-351172175D01*
X249247423Y-351130857D01*
X248797257Y-351090391D01*
X248318880Y-351051575D01*
X247813353Y-351015208D01*
X247461774Y-350992720D01*
X247098915Y-350971913D01*
X246725087Y-350953025D01*
X246340607Y-350936291D01*
X245945788Y-350921949D01*
X245540944Y-350910236D01*
X245126389Y-350901389D01*
X311448611Y-337495833D02*
X311623421Y-337189961D01*
X311858756Y-336805876D01*
X312094006Y-336449022D01*
X312326266Y-336119502D01*
X312552631Y-335817419D01*
X312770197Y-335542877D01*
X313025354Y-335238586D01*
X313212500Y-335026389D01*
G36*
X313200712Y-335059355D02*
G01*
X313204957Y-335067240D01*
X313204844Y-335070426D01*
X312400051Y-339699709D01*
X312399939Y-339700273D01*
X311500040Y-343699821D01*
X311499946Y-343700206D01*
X311327690Y-344360523D01*
X311327533Y-344361070D01*
X311215356Y-344718890D01*
X311215331Y-344718970D01*
X311100215Y-345077095D01*
X311100189Y-345077175D01*
X310984133Y-345429597D01*
X310984107Y-345429675D01*
X310867236Y-345776362D01*
X310867210Y-345776438D01*
X310749649Y-346117360D01*
X310749623Y-346117435D01*
X310631490Y-346452581D01*
X310631470Y-346452637D01*
X310572449Y-346617422D01*
X310572146Y-346618725D01*
X310540631Y-346896326D01*
X310540612Y-346896484D01*
X310503660Y-347186682D01*
X310503638Y-347186846D01*
X310460852Y-347488608D01*
X310460827Y-347488779D01*
X310411725Y-347801747D01*
X310411695Y-347801924D01*
X310355848Y-348125419D01*
X310355815Y-348125602D01*
X310292727Y-348459371D01*
X310292690Y-348459559D01*
X310256532Y-348635049D01*
X310256212Y-348636267D01*
X309158685Y-352051683D01*
X309157775Y-352053783D01*
X307300118Y-355399787D01*
X307299872Y-355400209D01*
X306200030Y-357199951D01*
X306199977Y-357200040D01*
X304400059Y-360299898D01*
X304399924Y-360300124D01*
X302200139Y-363899772D01*
X302199868Y-363900196D01*
X301379745Y-365120906D01*
X301372287Y-365125862D01*
X301363508Y-365124093D01*
X301358552Y-365116635D01*
X301358333Y-365114381D01*
X301358333Y-364201420D01*
X301358672Y-364198623D01*
X301899887Y-362000459D01*
X301900148Y-361999556D01*
X302899821Y-359000536D01*
X302900229Y-358999484D01*
X303699928Y-357200162D01*
X303700078Y-357199838D01*
X304999864Y-354500282D01*
X305000162Y-354499706D01*
X306599896Y-351600188D01*
X306600089Y-351599808D01*
X307899969Y-348800067D01*
X307900022Y-348799950D01*
X309199829Y-345900382D01*
X309200114Y-345899598D01*
X309684589Y-344199076D01*
X309684776Y-344198134D01*
X309899957Y-342300379D01*
X309900072Y-342299604D01*
X310299806Y-340101066D01*
X310300383Y-340098994D01*
X311099532Y-338001229D01*
X311100731Y-337998904D01*
X312499686Y-335900471D01*
X312500354Y-335899566D01*
X313184250Y-335061027D01*
X313192135Y-335056782D01*
X313200712Y-335059355D01*
G37*
G36*
X248557742Y-351052767D02*
G01*
X248558911Y-351052845D01*
X250196992Y-351245560D01*
X250204808Y-351249930D01*
X250207245Y-351258547D01*
X250202875Y-351266363D01*
X250198603Y-351268495D01*
X248358726Y-351752674D01*
X248357923Y-351752855D01*
X244658739Y-352452700D01*
X244657932Y-352452824D01*
X239858452Y-353018041D01*
X239858185Y-353018069D01*
X235258494Y-353452762D01*
X235258207Y-353452786D01*
X230958734Y-353752749D01*
X230957920Y-353752777D01*
X222658448Y-353752777D01*
X222658268Y-353752776D01*
X216289349Y-353654793D01*
X216281130Y-353651239D01*
X216277830Y-353642914D01*
X216281384Y-353634695D01*
X216287633Y-353631549D01*
X222858014Y-352552829D01*
X222858641Y-352552743D01*
X228357701Y-351952846D01*
X228358970Y-351952777D01*
X231158055Y-351952777D01*
X231158613Y-351952751D01*
X236458333Y-351452777D01*
X240458017Y-351052809D01*
X240458650Y-351052763D01*
X242657975Y-350952793D01*
X242658704Y-350952783D01*
X248557742Y-351052767D01*
G37*
G36*
X328245928Y-156140867D02*
G01*
X328494337Y-156303618D01*
X328774703Y-156486495D01*
X329052161Y-156666681D01*
X329326664Y-156844173D01*
X329598164Y-157018967D01*
X329866547Y-157191017D01*
X329866566Y-157191029D01*
X329866613Y-157191059D01*
X330131964Y-157360444D01*
X330394169Y-157527120D01*
X330653181Y-157691082D01*
X330908951Y-157852326D01*
X331066665Y-157951348D01*
X331067578Y-157951983D01*
X332299790Y-158899839D01*
X332300229Y-158900146D01*
X333399931Y-159599956D01*
X333400074Y-159600044D01*
X335613370Y-160930243D01*
X335614460Y-160930754D01*
X336099755Y-161099915D01*
X336100249Y-161100100D01*
X336599855Y-161299942D01*
X336600119Y-161300051D01*
X336808359Y-161389296D01*
X336809551Y-161389889D01*
X336997661Y-161497283D01*
X337302321Y-161670565D01*
X337592251Y-161835022D01*
X337868064Y-161991241D01*
X338130366Y-162139807D01*
X338130373Y-162139811D01*
X338379776Y-162281309D01*
X338379792Y-162281318D01*
X338616907Y-162416334D01*
X338616927Y-162416360D01*
X338616933Y-162416349D01*
X338842374Y-162545472D01*
X338842411Y-162545493D01*
X339056838Y-162669336D01*
X339056831Y-162669349D01*
X339056886Y-162669364D01*
X339260767Y-162788430D01*
X339260829Y-162788466D01*
X339454957Y-162903446D01*
X339455034Y-162903492D01*
X339639905Y-163014905D01*
X339639997Y-163014961D01*
X339816244Y-163123404D01*
X339816414Y-163123511D01*
X340121153Y-163318282D01*
X340122466Y-163319257D01*
X340799657Y-163899706D01*
X340800316Y-163900316D01*
X341998980Y-165098980D01*
X342000740Y-165101233D01*
X342598857Y-166098096D01*
X342600365Y-166102193D01*
X342699484Y-166696907D01*
X342698898Y-166702938D01*
X342401274Y-167496603D01*
X342397029Y-167502080D01*
X341401038Y-168199273D01*
X341398828Y-168200488D01*
X340201137Y-168699526D01*
X340198793Y-168700226D01*
X338601067Y-168999800D01*
X338598911Y-169000000D01*
X337101053Y-169000000D01*
X337098960Y-168999811D01*
X336001505Y-168800274D01*
X335998616Y-168799349D01*
X334301588Y-168000747D01*
X334298700Y-167998818D01*
X333201226Y-167001115D01*
X333199132Y-166998590D01*
X332400940Y-165701528D01*
X332399561Y-165698264D01*
X332086517Y-164459938D01*
X332084912Y-164457191D01*
X331500368Y-163900351D01*
X331499579Y-163899719D01*
X330901169Y-163500779D01*
X330898603Y-163499845D01*
X330000330Y-163400037D01*
X329999672Y-163400000D01*
X329301303Y-163400000D01*
X329298824Y-163400559D01*
X328574281Y-163745191D01*
X328565338Y-163745650D01*
X328558689Y-163739651D01*
X328557566Y-163735133D01*
X328227827Y-156151162D01*
X328230891Y-156142748D01*
X328239008Y-156138965D01*
X328245928Y-156140867D01*
G37*
G36*
X324601800Y-178100600D02*
G01*
X325498975Y-178399658D01*
X325500949Y-178400526D01*
X326440565Y-178921611D01*
X326442609Y-178923049D01*
X327098279Y-179498489D01*
X327101026Y-179502051D01*
X327599509Y-180499019D01*
X327600300Y-180501060D01*
X327852403Y-181390345D01*
X327852836Y-181393038D01*
X327900000Y-182500000D01*
X328199989Y-189299751D01*
X328200000Y-189300267D01*
X328200000Y-195599935D01*
X328199998Y-195600124D01*
X328100002Y-201799897D01*
X328100000Y-201800000D01*
X328000007Y-205799717D01*
X327999980Y-205800274D01*
X327600000Y-211300000D01*
X327200011Y-216899849D01*
X327199991Y-216900099D01*
X326800013Y-221199862D01*
X326799981Y-221200161D01*
X326300000Y-225400000D01*
X325800014Y-229899871D01*
X325799983Y-229900125D01*
X325200002Y-234399985D01*
X325200000Y-234400000D01*
X324500021Y-239599846D01*
X324499979Y-239600133D01*
X323700017Y-244599891D01*
X323699988Y-244600084D01*
X322900031Y-250199782D01*
X322899967Y-250200184D01*
X320900010Y-261399943D01*
X320900000Y-261400000D01*
X320000014Y-266299926D01*
X319999979Y-266300107D01*
X318800015Y-272299925D01*
X318800000Y-272300000D01*
X317975462Y-276286656D01*
X317976224Y-276290813D01*
X318299912Y-276799861D01*
X318300096Y-276800134D01*
X318799182Y-277498855D01*
X318800524Y-277501310D01*
X319199479Y-278498698D01*
X319200198Y-278501388D01*
X319399818Y-279898725D01*
X319399902Y-279901277D01*
X319300131Y-281198296D01*
X319299385Y-281201599D01*
X318800421Y-282498907D01*
X318799372Y-282500988D01*
X318102231Y-283596494D01*
X318096060Y-283601313D01*
X316901595Y-283999468D01*
X316898314Y-284000060D01*
X315506928Y-284049951D01*
X315504214Y-284049732D01*
X313747515Y-283698392D01*
X313740075Y-283693409D01*
X313739178Y-283691802D01*
X313100788Y-282301715D01*
X313099792Y-282298124D01*
X313078196Y-282103762D01*
X313078212Y-282101037D01*
X313097983Y-281940805D01*
X313097995Y-281940715D01*
X313128478Y-281708552D01*
X313128490Y-281708462D01*
X313160482Y-281478566D01*
X313160494Y-281478478D01*
X313193941Y-281250869D01*
X313193955Y-281250781D01*
X313228768Y-281025736D01*
X313228781Y-281025650D01*
X313264961Y-280802839D01*
X313264976Y-280802753D01*
X313302416Y-280582536D01*
X313302430Y-280582451D01*
X313341119Y-280364587D01*
X313341134Y-280364503D01*
X313381022Y-280149011D01*
X313381038Y-280148929D01*
X313422027Y-279936073D01*
X313422043Y-279935991D01*
X313464143Y-279725460D01*
X313464160Y-279725379D01*
X313507254Y-279517514D01*
X313507304Y-279517441D01*
X313507271Y-279517434D01*
X313551375Y-279311928D01*
X313551393Y-279311849D01*
X313596385Y-279109040D01*
X313596403Y-279108958D01*
X313596837Y-279107066D01*
X313597776Y-279104450D01*
X314099248Y-278101503D01*
X314101145Y-278098768D01*
X314798714Y-277348605D01*
X314800205Y-277345344D01*
X315099987Y-274600120D01*
X315100018Y-274599864D01*
X315600000Y-270800000D01*
X316500000Y-263900000D01*
X316500004Y-263899970D01*
X317299984Y-257300130D01*
X317300021Y-257299854D01*
X318099989Y-251800073D01*
X318100009Y-251799931D01*
X318800000Y-246500000D01*
X318800005Y-246499958D01*
X318800008Y-246499935D01*
X319500000Y-240900000D01*
X319500001Y-240900000D01*
X319500003Y-240899974D01*
X320199980Y-235400158D01*
X320200011Y-235399858D01*
X320500000Y-231500000D01*
X320899987Y-226200168D01*
X320900003Y-226199834D01*
X320999999Y-221200075D01*
X321000000Y-221199900D01*
X321000000Y-216300115D01*
X320999997Y-216299901D01*
X320800004Y-210300118D01*
X320799990Y-210299877D01*
X320400000Y-205300000D01*
X320085407Y-201996773D01*
X320085354Y-201995603D01*
X320086514Y-201774261D01*
X320089212Y-201226636D01*
X320091855Y-200667177D01*
X320094505Y-200095125D01*
X320097222Y-199509727D01*
X320097222Y-199509722D01*
X320102300Y-198504914D01*
X320102300Y-198504905D01*
X320108007Y-197516020D01*
X320108007Y-197516013D01*
X320114256Y-196541991D01*
X320114256Y-196541984D01*
X320120961Y-195581766D01*
X320120961Y-195581761D01*
X320128036Y-194634287D01*
X320128036Y-194634282D01*
X320135394Y-193698493D01*
X320135394Y-193698489D01*
X320142950Y-192773323D01*
X320142950Y-192773321D01*
X320150617Y-191857721D01*
X320150617Y-191857720D01*
X320158308Y-190950625D01*
X320165938Y-190050977D01*
X320173421Y-189157716D01*
X320180670Y-188269782D01*
X320187598Y-187386117D01*
X320194121Y-186505660D01*
X320200151Y-185627352D01*
X320205602Y-184750133D01*
X320210389Y-183872943D01*
X320214424Y-182994723D01*
X320217622Y-182114414D01*
X320219868Y-181242267D01*
X320220468Y-181238597D01*
X320499444Y-180401668D01*
X320501023Y-180398568D01*
X320999748Y-179700353D01*
X321000281Y-179699663D01*
X321498913Y-179101304D01*
X321501411Y-179099059D01*
X322399007Y-178500662D01*
X322401107Y-178499552D01*
X323098691Y-178217196D01*
X323101393Y-178216463D01*
X323899163Y-178100122D01*
X323900851Y-178100000D01*
X324598100Y-178100000D01*
X324601800Y-178100600D01*
G37*
M02*
